G04 #@! TF.GenerationSoftware,KiCad,Pcbnew,(5.0.0)*
G04 #@! TF.CreationDate,2019-08-11T22:43:53-04:00*
G04 #@! TF.ProjectId,discipline-pcb,6469736369706C696E652D7063622E6B,rev?*
G04 #@! TF.SameCoordinates,Original*
G04 #@! TF.FileFunction,Legend,Top*
G04 #@! TF.FilePolarity,Positive*
%FSLAX46Y46*%
G04 Gerber Fmt 4.6, Leading zero omitted, Abs format (unit mm)*
G04 Created by KiCad (PCBNEW (5.0.0)) date 08/11/19 22:43:53*
%MOMM*%
%LPD*%
G01*
G04 APERTURE LIST*
%ADD10C,0.100000*%
%ADD11C,0.120000*%
%ADD12C,0.150000*%
%ADD13C,0.075000*%
%ADD14C,0.200000*%
%ADD15C,0.203200*%
G04 APERTURE END LIST*
D10*
X275386065Y-62041179D02*
X274928922Y-62041179D01*
X275157493Y-62041179D02*
X275157493Y-61241179D01*
X275081303Y-61355465D01*
X275005112Y-61431655D01*
X274928922Y-61469751D01*
X275881303Y-61241179D02*
X275957493Y-61241179D01*
X276033684Y-61279275D01*
X276071779Y-61317370D01*
X276109874Y-61393560D01*
X276147969Y-61545941D01*
X276147969Y-61736417D01*
X276109874Y-61888798D01*
X276071779Y-61964989D01*
X276033684Y-62003084D01*
X275957493Y-62041179D01*
X275881303Y-62041179D01*
X275805112Y-62003084D01*
X275767017Y-61964989D01*
X275728922Y-61888798D01*
X275690827Y-61736417D01*
X275690827Y-61545941D01*
X275728922Y-61393560D01*
X275767017Y-61317370D01*
X275805112Y-61279275D01*
X275881303Y-61241179D01*
X276643208Y-61241179D02*
X276719398Y-61241179D01*
X276795589Y-61279275D01*
X276833684Y-61317370D01*
X276871779Y-61393560D01*
X276909874Y-61545941D01*
X276909874Y-61736417D01*
X276871779Y-61888798D01*
X276833684Y-61964989D01*
X276795589Y-62003084D01*
X276719398Y-62041179D01*
X276643208Y-62041179D01*
X276567017Y-62003084D01*
X276528922Y-61964989D01*
X276490827Y-61888798D01*
X276452731Y-61736417D01*
X276452731Y-61545941D01*
X276490827Y-61393560D01*
X276528922Y-61317370D01*
X276567017Y-61279275D01*
X276643208Y-61241179D01*
X277252731Y-62041179D02*
X277252731Y-61507846D01*
X277252731Y-61584036D02*
X277290827Y-61545941D01*
X277367017Y-61507846D01*
X277481303Y-61507846D01*
X277557493Y-61545941D01*
X277595589Y-61622132D01*
X277595589Y-62041179D01*
X277595589Y-61622132D02*
X277633684Y-61545941D01*
X277709874Y-61507846D01*
X277824160Y-61507846D01*
X277900350Y-61545941D01*
X277938446Y-61622132D01*
X277938446Y-62041179D01*
X278281303Y-61812608D02*
X278662255Y-61812608D01*
X278205112Y-62041179D02*
X278471779Y-61241179D01*
X278738446Y-62041179D01*
X290127979Y-74833764D02*
X290747027Y-74833764D01*
X290413693Y-75214717D01*
X290556550Y-75214717D01*
X290651789Y-75262336D01*
X290699408Y-75309955D01*
X290747027Y-75405193D01*
X290747027Y-75643288D01*
X290699408Y-75738526D01*
X290651789Y-75786145D01*
X290556550Y-75833764D01*
X290270836Y-75833764D01*
X290175598Y-75786145D01*
X290127979Y-75738526D01*
X291175598Y-75738526D02*
X291223217Y-75786145D01*
X291175598Y-75833764D01*
X291127979Y-75786145D01*
X291175598Y-75738526D01*
X291175598Y-75833764D01*
X292080360Y-74833764D02*
X291889884Y-74833764D01*
X291794646Y-74881384D01*
X291747027Y-74929003D01*
X291651789Y-75071860D01*
X291604170Y-75262336D01*
X291604170Y-75643288D01*
X291651789Y-75738526D01*
X291699408Y-75786145D01*
X291794646Y-75833764D01*
X291985122Y-75833764D01*
X292080360Y-75786145D01*
X292127979Y-75738526D01*
X292175598Y-75643288D01*
X292175598Y-75405193D01*
X292127979Y-75309955D01*
X292080360Y-75262336D01*
X291985122Y-75214717D01*
X291794646Y-75214717D01*
X291699408Y-75262336D01*
X291651789Y-75309955D01*
X291604170Y-75405193D01*
X292461312Y-74833764D02*
X292794646Y-75833764D01*
X293127979Y-74833764D01*
X287944174Y-76009000D02*
X287944174Y-75409000D01*
X288844174Y-76121500D01*
X288844174Y-75521500D01*
X288372746Y-75119715D02*
X288372746Y-74819715D01*
X288844174Y-74750072D02*
X288844174Y-75178643D01*
X287944174Y-75066143D01*
X287944174Y-74637572D01*
X288844174Y-74364358D02*
X287944174Y-74251858D01*
X288844174Y-73850072D01*
X287944174Y-73737572D01*
X288372746Y-73362572D02*
X288372746Y-73062572D01*
X288844174Y-72992929D02*
X288844174Y-73421500D01*
X287944174Y-73309000D01*
X287944174Y-72880429D01*
X288844174Y-72092929D02*
X288415603Y-72339358D01*
X288844174Y-72607215D02*
X287944174Y-72494715D01*
X287944174Y-72151858D01*
X287987032Y-72071500D01*
X288029889Y-72034000D01*
X288115603Y-72001858D01*
X288244174Y-72017929D01*
X288329889Y-72071500D01*
X288372746Y-72119715D01*
X288415603Y-72210786D01*
X288415603Y-72553643D01*
X288844174Y-71021500D02*
X287944174Y-70909000D01*
X287944174Y-70694715D01*
X287987032Y-70571500D01*
X288072746Y-70496500D01*
X288158460Y-70464358D01*
X288329889Y-70442929D01*
X288458460Y-70459000D01*
X288629889Y-70523286D01*
X288715603Y-70576858D01*
X288801317Y-70673286D01*
X288844174Y-70807215D01*
X288844174Y-71021500D01*
X288844174Y-70121500D02*
X287944174Y-70009000D01*
X287944174Y-69409000D02*
X287944174Y-69237572D01*
X287987032Y-69157215D01*
X288072746Y-69082215D01*
X288244174Y-69060786D01*
X288544174Y-69098286D01*
X288715603Y-69162572D01*
X288801317Y-69259000D01*
X288844174Y-69350072D01*
X288844174Y-69521500D01*
X288801317Y-69601858D01*
X288715603Y-69676858D01*
X288544174Y-69698286D01*
X288244174Y-69660786D01*
X288072746Y-69596500D01*
X287987032Y-69500072D01*
X287944174Y-69409000D01*
X288844174Y-68750072D02*
X287944174Y-68637572D01*
X287944174Y-68423286D01*
X287987032Y-68300072D01*
X288072746Y-68225072D01*
X288158460Y-68192929D01*
X288329889Y-68171500D01*
X288458460Y-68187572D01*
X288629889Y-68251858D01*
X288715603Y-68305429D01*
X288801317Y-68401858D01*
X288844174Y-68535786D01*
X288844174Y-68750072D01*
X288372746Y-67791143D02*
X288372746Y-67491143D01*
X288844174Y-67421500D02*
X288844174Y-67850072D01*
X287944174Y-67737572D01*
X287944174Y-67309000D01*
X288801317Y-67073286D02*
X288844174Y-66950072D01*
X288844174Y-66735786D01*
X288801317Y-66644715D01*
X288758460Y-66596500D01*
X288672746Y-66542929D01*
X288587032Y-66532215D01*
X288501317Y-66564358D01*
X288458460Y-66601858D01*
X288415603Y-66682215D01*
X288372746Y-66848286D01*
X288329889Y-66928643D01*
X288287032Y-66966143D01*
X288201317Y-66998286D01*
X288115603Y-66987572D01*
X288029889Y-66934000D01*
X287987032Y-66885786D01*
X287944174Y-66794715D01*
X287944174Y-66580429D01*
X287987032Y-66457215D01*
D11*
X292176544Y-70762296D02*
X292421516Y-70499826D01*
X293511452Y-70499442D02*
X293756424Y-70236972D01*
X289294434Y-70761912D02*
X289539406Y-70499442D01*
X290641780Y-70499442D02*
X290886752Y-70236972D01*
D12*
X234976091Y-61764204D02*
X234642757Y-61288014D01*
X234404662Y-61764204D02*
X234404662Y-60764204D01*
X234785614Y-60764204D01*
X234880852Y-60811824D01*
X234928472Y-60859443D01*
X234976091Y-60954681D01*
X234976091Y-61097538D01*
X234928472Y-61192776D01*
X234880852Y-61240395D01*
X234785614Y-61288014D01*
X234404662Y-61288014D01*
X235404662Y-61240395D02*
X235737995Y-61240395D01*
X235880852Y-61764204D02*
X235404662Y-61764204D01*
X235404662Y-60764204D01*
X235880852Y-60764204D01*
X236261805Y-61716585D02*
X236404662Y-61764204D01*
X236642757Y-61764204D01*
X236737995Y-61716585D01*
X236785614Y-61668966D01*
X236833233Y-61573728D01*
X236833233Y-61478490D01*
X236785614Y-61383252D01*
X236737995Y-61335633D01*
X236642757Y-61288014D01*
X236452281Y-61240395D01*
X236357043Y-61192776D01*
X236309424Y-61145157D01*
X236261805Y-61049919D01*
X236261805Y-60954681D01*
X236309424Y-60859443D01*
X236357043Y-60811824D01*
X236452281Y-60764204D01*
X236690376Y-60764204D01*
X236833233Y-60811824D01*
X237261805Y-61240395D02*
X237595138Y-61240395D01*
X237737995Y-61764204D02*
X237261805Y-61764204D01*
X237261805Y-60764204D01*
X237737995Y-60764204D01*
X238023710Y-60764204D02*
X238595138Y-60764204D01*
X238309424Y-61764204D02*
X238309424Y-60764204D01*
X289872080Y-54573694D02*
X289872080Y-53573694D01*
X290253032Y-53573694D01*
X290348270Y-53621314D01*
X290395889Y-53668933D01*
X290443508Y-53764171D01*
X290443508Y-53907028D01*
X290395889Y-54002266D01*
X290348270Y-54049885D01*
X290253032Y-54097504D01*
X289872080Y-54097504D01*
X291062556Y-53573694D02*
X291253032Y-53573694D01*
X291348270Y-53621314D01*
X291443508Y-53716552D01*
X291491127Y-53907028D01*
X291491127Y-54240361D01*
X291443508Y-54430837D01*
X291348270Y-54526075D01*
X291253032Y-54573694D01*
X291062556Y-54573694D01*
X290967318Y-54526075D01*
X290872080Y-54430837D01*
X290824461Y-54240361D01*
X290824461Y-53907028D01*
X290872080Y-53716552D01*
X290967318Y-53621314D01*
X291062556Y-53573694D01*
X291824461Y-53573694D02*
X292062556Y-54573694D01*
X292253032Y-53859409D01*
X292443508Y-54573694D01*
X292681604Y-53573694D01*
X293062556Y-54049885D02*
X293395889Y-54049885D01*
X293538746Y-54573694D02*
X293062556Y-54573694D01*
X293062556Y-53573694D01*
X293538746Y-53573694D01*
X294538746Y-54573694D02*
X294205413Y-54097504D01*
X293967318Y-54573694D02*
X293967318Y-53573694D01*
X294348270Y-53573694D01*
X294443508Y-53621314D01*
X294491127Y-53668933D01*
X294538746Y-53764171D01*
X294538746Y-53907028D01*
X294491127Y-54002266D01*
X294443508Y-54049885D01*
X294348270Y-54097504D01*
X293967318Y-54097504D01*
X256191330Y-59814457D02*
X256096092Y-59766837D01*
X255953235Y-59766837D01*
X255810377Y-59814457D01*
X255715139Y-59909695D01*
X255667520Y-60004933D01*
X255619901Y-60195409D01*
X255619901Y-60338266D01*
X255667520Y-60528742D01*
X255715139Y-60623980D01*
X255810377Y-60719218D01*
X255953235Y-60766837D01*
X256048473Y-60766837D01*
X256191330Y-60719218D01*
X256238949Y-60671599D01*
X256238949Y-60338266D01*
X256048473Y-60338266D01*
X256667520Y-60766837D02*
X256667520Y-59766837D01*
X257238949Y-60766837D01*
X257238949Y-59766837D01*
X257715139Y-60766837D02*
X257715139Y-59766837D01*
X257953235Y-59766837D01*
X258096092Y-59814457D01*
X258191330Y-59909695D01*
X258238949Y-60004933D01*
X258286568Y-60195409D01*
X258286568Y-60338266D01*
X258238949Y-60528742D01*
X258191330Y-60623980D01*
X258096092Y-60719218D01*
X257953235Y-60766837D01*
X257715139Y-60766837D01*
X263746008Y-55884988D02*
X263746008Y-54884988D01*
X264174579Y-55837369D02*
X264317437Y-55884988D01*
X264555532Y-55884988D01*
X264650770Y-55837369D01*
X264698389Y-55789750D01*
X264746008Y-55694512D01*
X264746008Y-55599274D01*
X264698389Y-55504036D01*
X264650770Y-55456417D01*
X264555532Y-55408798D01*
X264365056Y-55361179D01*
X264269818Y-55313560D01*
X264222199Y-55265941D01*
X264174579Y-55170703D01*
X264174579Y-55075465D01*
X264222199Y-54980227D01*
X264269818Y-54932608D01*
X264365056Y-54884988D01*
X264603151Y-54884988D01*
X264746008Y-54932608D01*
X265174579Y-55884988D02*
X265174579Y-54884988D01*
X265555532Y-54884988D01*
X265650770Y-54932608D01*
X265698389Y-54980227D01*
X265746008Y-55075465D01*
X265746008Y-55218322D01*
X265698389Y-55313560D01*
X265650770Y-55361179D01*
X265555532Y-55408798D01*
X265174579Y-55408798D01*
D10*
X298639119Y-65440619D02*
X298258167Y-65440619D01*
X298220072Y-65821572D01*
X298258167Y-65783476D01*
X298334357Y-65745381D01*
X298524833Y-65745381D01*
X298601024Y-65783476D01*
X298639119Y-65821572D01*
X298677214Y-65897762D01*
X298677214Y-66088238D01*
X298639119Y-66164429D01*
X298601024Y-66202524D01*
X298524833Y-66240619D01*
X298334357Y-66240619D01*
X298258167Y-66202524D01*
X298220072Y-66164429D01*
X299020072Y-66164429D02*
X299058167Y-66202524D01*
X299020072Y-66240619D01*
X298981976Y-66202524D01*
X299020072Y-66164429D01*
X299020072Y-66240619D01*
X299820072Y-66240619D02*
X299362929Y-66240619D01*
X299591500Y-66240619D02*
X299591500Y-65440619D01*
X299515310Y-65554905D01*
X299439119Y-65631095D01*
X299362929Y-65669191D01*
X300162929Y-66240619D02*
X300162929Y-65440619D01*
X300620072Y-66240619D02*
X300277214Y-65783476D01*
X300620072Y-65440619D02*
X300162929Y-65897762D01*
X298639119Y-62887166D02*
X298258167Y-62887166D01*
X298220072Y-63268119D01*
X298258167Y-63230023D01*
X298334357Y-63191928D01*
X298524833Y-63191928D01*
X298601024Y-63230023D01*
X298639119Y-63268119D01*
X298677214Y-63344309D01*
X298677214Y-63534785D01*
X298639119Y-63610976D01*
X298601024Y-63649071D01*
X298524833Y-63687166D01*
X298334357Y-63687166D01*
X298258167Y-63649071D01*
X298220072Y-63610976D01*
X299020072Y-63610976D02*
X299058167Y-63649071D01*
X299020072Y-63687166D01*
X298981976Y-63649071D01*
X299020072Y-63610976D01*
X299020072Y-63687166D01*
X299820072Y-63687166D02*
X299362929Y-63687166D01*
X299591500Y-63687166D02*
X299591500Y-62887166D01*
X299515310Y-63001452D01*
X299439119Y-63077642D01*
X299362929Y-63115738D01*
X300162929Y-63687166D02*
X300162929Y-62887166D01*
X300620072Y-63687166D02*
X300277214Y-63230023D01*
X300620072Y-62887166D02*
X300162929Y-63344309D01*
X298627744Y-169726244D02*
X298056316Y-169726244D01*
X298342030Y-169726244D02*
X298342030Y-168726244D01*
X298246792Y-168869102D01*
X298151554Y-168964340D01*
X298056316Y-169011959D01*
X299056316Y-168726244D02*
X299056316Y-169535768D01*
X299103935Y-169631006D01*
X299151554Y-169678625D01*
X299246792Y-169726244D01*
X299437268Y-169726244D01*
X299532506Y-169678625D01*
X299580125Y-169631006D01*
X299627744Y-169535768D01*
X299627744Y-168726244D01*
X279537426Y-169726244D02*
X278965998Y-169726244D01*
X279251712Y-169726244D02*
X279251712Y-168726244D01*
X279156474Y-168869102D01*
X279061236Y-168964340D01*
X278965998Y-169011959D01*
X279965998Y-168726244D02*
X279965998Y-169535768D01*
X280013617Y-169631006D01*
X280061236Y-169678625D01*
X280156474Y-169726244D01*
X280346950Y-169726244D01*
X280442188Y-169678625D01*
X280489807Y-169631006D01*
X280537426Y-169535768D01*
X280537426Y-168726244D01*
X260127184Y-169726244D02*
X259555756Y-169726244D01*
X259841470Y-169726244D02*
X259841470Y-168726244D01*
X259746232Y-168869102D01*
X259650994Y-168964340D01*
X259555756Y-169011959D01*
X260555756Y-168726244D02*
X260555756Y-169535768D01*
X260603375Y-169631006D01*
X260650994Y-169678625D01*
X260746232Y-169726244D01*
X260936708Y-169726244D01*
X261031946Y-169678625D01*
X261079565Y-169631006D01*
X261127184Y-169535768D01*
X261127184Y-168726244D01*
X75753008Y-131673693D02*
X75895866Y-131721312D01*
X76133961Y-131721312D01*
X76229199Y-131673693D01*
X76276818Y-131626074D01*
X76324437Y-131530836D01*
X76324437Y-131435598D01*
X76276818Y-131340360D01*
X76229199Y-131292741D01*
X76133961Y-131245122D01*
X75943485Y-131197503D01*
X75848247Y-131149884D01*
X75800628Y-131102265D01*
X75753008Y-131007027D01*
X75753008Y-130911789D01*
X75800628Y-130816551D01*
X75848247Y-130768932D01*
X75943485Y-130721312D01*
X76181580Y-130721312D01*
X76324437Y-130768932D01*
X76610151Y-130721312D02*
X77181580Y-130721312D01*
X76895866Y-131721312D02*
X76895866Y-130721312D01*
X77467294Y-131435598D02*
X77943485Y-131435598D01*
X77372056Y-131721312D02*
X77705389Y-130721312D01*
X78038723Y-131721312D01*
X78372056Y-131721312D02*
X78372056Y-130721312D01*
X78943485Y-131721312D01*
X78943485Y-130721312D01*
X79419675Y-131721312D02*
X79419675Y-130721312D01*
X79657770Y-130721312D01*
X79800628Y-130768932D01*
X79895866Y-130864170D01*
X79943485Y-130959408D01*
X79991104Y-131149884D01*
X79991104Y-131292741D01*
X79943485Y-131483217D01*
X79895866Y-131578455D01*
X79800628Y-131673693D01*
X79657770Y-131721312D01*
X79419675Y-131721312D01*
X80372056Y-131435598D02*
X80848247Y-131435598D01*
X80276818Y-131721312D02*
X80610151Y-130721312D01*
X80943485Y-131721312D01*
X81848247Y-131721312D02*
X81514913Y-131245122D01*
X81276818Y-131721312D02*
X81276818Y-130721312D01*
X81657770Y-130721312D01*
X81753008Y-130768932D01*
X81800628Y-130816551D01*
X81848247Y-130911789D01*
X81848247Y-131054646D01*
X81800628Y-131149884D01*
X81753008Y-131197503D01*
X81657770Y-131245122D01*
X81276818Y-131245122D01*
X82276818Y-131721312D02*
X82276818Y-130721312D01*
X82514913Y-130721312D01*
X82657770Y-130768932D01*
X82753008Y-130864170D01*
X82800628Y-130959408D01*
X82848247Y-131149884D01*
X82848247Y-131292741D01*
X82800628Y-131483217D01*
X82753008Y-131578455D01*
X82657770Y-131673693D01*
X82514913Y-131721312D01*
X82276818Y-131721312D01*
X66832952Y-131673693D02*
X66975809Y-131721312D01*
X67213904Y-131721312D01*
X67309142Y-131673693D01*
X67356761Y-131626074D01*
X67404381Y-131530836D01*
X67404381Y-131435598D01*
X67356761Y-131340360D01*
X67309142Y-131292741D01*
X67213904Y-131245122D01*
X67023428Y-131197503D01*
X66928190Y-131149884D01*
X66880571Y-131102265D01*
X66832952Y-131007027D01*
X66832952Y-130911789D01*
X66880571Y-130816551D01*
X66928190Y-130768932D01*
X67023428Y-130721312D01*
X67261523Y-130721312D01*
X67404381Y-130768932D01*
X67690095Y-130721312D02*
X68261523Y-130721312D01*
X67975809Y-131721312D02*
X67975809Y-130721312D01*
X68594857Y-131197503D02*
X68928190Y-131197503D01*
X69071047Y-131721312D02*
X68594857Y-131721312D01*
X68594857Y-130721312D01*
X69071047Y-130721312D01*
X69499619Y-131721312D02*
X69499619Y-130721312D01*
X69880571Y-130721312D01*
X69975809Y-130768932D01*
X70023428Y-130816551D01*
X70071047Y-130911789D01*
X70071047Y-131054646D01*
X70023428Y-131149884D01*
X69975809Y-131197503D01*
X69880571Y-131245122D01*
X69499619Y-131245122D01*
X70499619Y-131721312D02*
X70499619Y-130721312D01*
X70880571Y-130721312D01*
X70975809Y-130768932D01*
X71023428Y-130816551D01*
X71071047Y-130911789D01*
X71071047Y-131054646D01*
X71023428Y-131149884D01*
X70975809Y-131197503D01*
X70880571Y-131245122D01*
X70499619Y-131245122D01*
X71499619Y-131197503D02*
X71832952Y-131197503D01*
X71975809Y-131721312D02*
X71499619Y-131721312D01*
X71499619Y-130721312D01*
X71975809Y-130721312D01*
X72404381Y-131721312D02*
X72404381Y-130721312D01*
X72642476Y-130721312D01*
X72785333Y-130768932D01*
X72880571Y-130864170D01*
X72928190Y-130959408D01*
X72975809Y-131149884D01*
X72975809Y-131292741D01*
X72928190Y-131483217D01*
X72880571Y-131578455D01*
X72785333Y-131673693D01*
X72642476Y-131721312D01*
X72404381Y-131721312D01*
X292887138Y-169726244D02*
X292315709Y-169726244D01*
X292601423Y-169726244D02*
X292601423Y-168726244D01*
X292506185Y-168869102D01*
X292410947Y-168964340D01*
X292315709Y-169011959D01*
X293315709Y-169631006D02*
X293363328Y-169678625D01*
X293315709Y-169726244D01*
X293268090Y-169678625D01*
X293315709Y-169631006D01*
X293315709Y-169726244D01*
X294268090Y-168726244D02*
X293791899Y-168726244D01*
X293744280Y-169202435D01*
X293791899Y-169154816D01*
X293887138Y-169107197D01*
X294125233Y-169107197D01*
X294220471Y-169154816D01*
X294268090Y-169202435D01*
X294315709Y-169297673D01*
X294315709Y-169535768D01*
X294268090Y-169631006D01*
X294220471Y-169678625D01*
X294125233Y-169726244D01*
X293887138Y-169726244D01*
X293791899Y-169678625D01*
X293744280Y-169631006D01*
X294744280Y-168726244D02*
X294744280Y-169535768D01*
X294791899Y-169631006D01*
X294839519Y-169678625D01*
X294934757Y-169726244D01*
X295125233Y-169726244D01*
X295220471Y-169678625D01*
X295268090Y-169631006D01*
X295315709Y-169535768D01*
X295315709Y-168726244D01*
X264399734Y-169726244D02*
X263828305Y-169726244D01*
X264114019Y-169726244D02*
X264114019Y-168726244D01*
X264018781Y-168869102D01*
X263923543Y-168964340D01*
X263828305Y-169011959D01*
X264828305Y-169631006D02*
X264875924Y-169678625D01*
X264828305Y-169726244D01*
X264780686Y-169678625D01*
X264828305Y-169631006D01*
X264828305Y-169726244D01*
X265780686Y-168726244D02*
X265304495Y-168726244D01*
X265256876Y-169202435D01*
X265304495Y-169154816D01*
X265399734Y-169107197D01*
X265637829Y-169107197D01*
X265733067Y-169154816D01*
X265780686Y-169202435D01*
X265828305Y-169297673D01*
X265828305Y-169535768D01*
X265780686Y-169631006D01*
X265733067Y-169678625D01*
X265637829Y-169726244D01*
X265399734Y-169726244D01*
X265304495Y-169678625D01*
X265256876Y-169631006D01*
X266256876Y-168726244D02*
X266256876Y-169535768D01*
X266304495Y-169631006D01*
X266352115Y-169678625D01*
X266447353Y-169726244D01*
X266637829Y-169726244D01*
X266733067Y-169678625D01*
X266780686Y-169631006D01*
X266828305Y-169535768D01*
X266828305Y-168726244D01*
X102757492Y-169726244D02*
X102186063Y-169726244D01*
X102471777Y-169726244D02*
X102471777Y-168726244D01*
X102376539Y-168869102D01*
X102281301Y-168964340D01*
X102186063Y-169011959D01*
X103186063Y-169631006D02*
X103233682Y-169678625D01*
X103186063Y-169726244D01*
X103138444Y-169678625D01*
X103186063Y-169631006D01*
X103186063Y-169726244D01*
X104138444Y-168726244D02*
X103662253Y-168726244D01*
X103614634Y-169202435D01*
X103662253Y-169154816D01*
X103757492Y-169107197D01*
X103995587Y-169107197D01*
X104090825Y-169154816D01*
X104138444Y-169202435D01*
X104186063Y-169297673D01*
X104186063Y-169535768D01*
X104138444Y-169631006D01*
X104090825Y-169678625D01*
X103995587Y-169726244D01*
X103757492Y-169726244D01*
X103662253Y-169678625D01*
X103614634Y-169631006D01*
X104614634Y-168726244D02*
X104614634Y-169535768D01*
X104662253Y-169631006D01*
X104709873Y-169678625D01*
X104805111Y-169726244D01*
X104995587Y-169726244D01*
X105090825Y-169678625D01*
X105138444Y-169631006D01*
X105186063Y-169535768D01*
X105186063Y-168726244D01*
X74411272Y-169726244D02*
X73839843Y-169726244D01*
X74125557Y-169726244D02*
X74125557Y-168726244D01*
X74030319Y-168869102D01*
X73935081Y-168964340D01*
X73839843Y-169011959D01*
X74839843Y-169631006D02*
X74887462Y-169678625D01*
X74839843Y-169726244D01*
X74792224Y-169678625D01*
X74839843Y-169631006D01*
X74839843Y-169726244D01*
X75792224Y-168726244D02*
X75316033Y-168726244D01*
X75268414Y-169202435D01*
X75316033Y-169154816D01*
X75411272Y-169107197D01*
X75649367Y-169107197D01*
X75744605Y-169154816D01*
X75792224Y-169202435D01*
X75839843Y-169297673D01*
X75839843Y-169535768D01*
X75792224Y-169631006D01*
X75744605Y-169678625D01*
X75649367Y-169726244D01*
X75411272Y-169726244D01*
X75316033Y-169678625D01*
X75268414Y-169631006D01*
X76268414Y-168726244D02*
X76268414Y-169535768D01*
X76316033Y-169631006D01*
X76363653Y-169678625D01*
X76458891Y-169726244D01*
X76649367Y-169726244D01*
X76744605Y-169678625D01*
X76792224Y-169631006D01*
X76839843Y-169535768D01*
X76839843Y-168726244D01*
X118816596Y-169726244D02*
X118245168Y-169726244D01*
X118530882Y-169726244D02*
X118530882Y-168726244D01*
X118435644Y-168869102D01*
X118340406Y-168964340D01*
X118245168Y-169011959D01*
X119245168Y-169631006D02*
X119292787Y-169678625D01*
X119245168Y-169726244D01*
X119197548Y-169678625D01*
X119245168Y-169631006D01*
X119245168Y-169726244D01*
X119673739Y-168821483D02*
X119721358Y-168773864D01*
X119816596Y-168726244D01*
X120054691Y-168726244D01*
X120149929Y-168773864D01*
X120197548Y-168821483D01*
X120245168Y-168916721D01*
X120245168Y-169011959D01*
X120197548Y-169154816D01*
X119626120Y-169726244D01*
X120245168Y-169726244D01*
X121149929Y-168726244D02*
X120673739Y-168726244D01*
X120626120Y-169202435D01*
X120673739Y-169154816D01*
X120768977Y-169107197D01*
X121007072Y-169107197D01*
X121102310Y-169154816D01*
X121149929Y-169202435D01*
X121197548Y-169297673D01*
X121197548Y-169535768D01*
X121149929Y-169631006D01*
X121102310Y-169678625D01*
X121007072Y-169726244D01*
X120768977Y-169726244D01*
X120673739Y-169678625D01*
X120626120Y-169631006D01*
X121626120Y-168726244D02*
X121626120Y-169535768D01*
X121673739Y-169631006D01*
X121721358Y-169678625D01*
X121816596Y-169726244D01*
X122007072Y-169726244D01*
X122102310Y-169678625D01*
X122149929Y-169631006D01*
X122197548Y-169535768D01*
X122197548Y-168726244D01*
X94669816Y-169726244D02*
X94098388Y-169726244D01*
X94384102Y-169726244D02*
X94384102Y-168726244D01*
X94288864Y-168869102D01*
X94193626Y-168964340D01*
X94098388Y-169011959D01*
X95098388Y-169631006D02*
X95146007Y-169678625D01*
X95098388Y-169726244D01*
X95050768Y-169678625D01*
X95098388Y-169631006D01*
X95098388Y-169726244D01*
X95526959Y-168821483D02*
X95574578Y-168773864D01*
X95669816Y-168726244D01*
X95907911Y-168726244D01*
X96003149Y-168773864D01*
X96050768Y-168821483D01*
X96098388Y-168916721D01*
X96098388Y-169011959D01*
X96050768Y-169154816D01*
X95479340Y-169726244D01*
X96098388Y-169726244D01*
X97003149Y-168726244D02*
X96526959Y-168726244D01*
X96479340Y-169202435D01*
X96526959Y-169154816D01*
X96622197Y-169107197D01*
X96860292Y-169107197D01*
X96955530Y-169154816D01*
X97003149Y-169202435D01*
X97050768Y-169297673D01*
X97050768Y-169535768D01*
X97003149Y-169631006D01*
X96955530Y-169678625D01*
X96860292Y-169726244D01*
X96622197Y-169726244D01*
X96526959Y-169678625D01*
X96479340Y-169631006D01*
X97479340Y-168726244D02*
X97479340Y-169535768D01*
X97526959Y-169631006D01*
X97574578Y-169678625D01*
X97669816Y-169726244D01*
X97860292Y-169726244D01*
X97955530Y-169678625D01*
X98003149Y-169631006D01*
X98050768Y-169535768D01*
X98050768Y-168726244D01*
X69000739Y-169726244D02*
X68429311Y-169726244D01*
X68715025Y-169726244D02*
X68715025Y-168726244D01*
X68619787Y-168869102D01*
X68524549Y-168964340D01*
X68429311Y-169011959D01*
X69429311Y-169631006D02*
X69476930Y-169678625D01*
X69429311Y-169726244D01*
X69381691Y-169678625D01*
X69429311Y-169631006D01*
X69429311Y-169726244D01*
X69857882Y-168821483D02*
X69905501Y-168773864D01*
X70000739Y-168726244D01*
X70238834Y-168726244D01*
X70334072Y-168773864D01*
X70381691Y-168821483D01*
X70429311Y-168916721D01*
X70429311Y-169011959D01*
X70381691Y-169154816D01*
X69810263Y-169726244D01*
X70429311Y-169726244D01*
X71334072Y-168726244D02*
X70857882Y-168726244D01*
X70810263Y-169202435D01*
X70857882Y-169154816D01*
X70953120Y-169107197D01*
X71191215Y-169107197D01*
X71286453Y-169154816D01*
X71334072Y-169202435D01*
X71381691Y-169297673D01*
X71381691Y-169535768D01*
X71334072Y-169631006D01*
X71286453Y-169678625D01*
X71191215Y-169726244D01*
X70953120Y-169726244D01*
X70857882Y-169678625D01*
X70810263Y-169631006D01*
X71810263Y-168726244D02*
X71810263Y-169535768D01*
X71857882Y-169631006D01*
X71905501Y-169678625D01*
X72000739Y-169726244D01*
X72191215Y-169726244D01*
X72286453Y-169678625D01*
X72334072Y-169631006D01*
X72381691Y-169535768D01*
X72381691Y-168726244D01*
D13*
X151015348Y-165433031D02*
X150872491Y-165528269D01*
X150586777Y-165528269D01*
X150443920Y-165433031D01*
X150372491Y-165337793D01*
X150301062Y-165147317D01*
X150301062Y-164575888D01*
X150372491Y-164385412D01*
X150443920Y-164290174D01*
X150586777Y-164194936D01*
X150872491Y-164194936D01*
X151015348Y-164290174D01*
X151872491Y-165528269D02*
X151729634Y-165433031D01*
X151658205Y-165337793D01*
X151586777Y-165147317D01*
X151586777Y-164575888D01*
X151658205Y-164385412D01*
X151729634Y-164290174D01*
X151872491Y-164194936D01*
X152086777Y-164194936D01*
X152229634Y-164290174D01*
X152301062Y-164385412D01*
X152372491Y-164575888D01*
X152372491Y-165147317D01*
X152301062Y-165337793D01*
X152229634Y-165433031D01*
X152086777Y-165528269D01*
X151872491Y-165528269D01*
X152943920Y-165433031D02*
X153086777Y-165528269D01*
X153372491Y-165528269D01*
X153515348Y-165433031D01*
X153586777Y-165242555D01*
X153586777Y-165147317D01*
X153515348Y-164956841D01*
X153372491Y-164861603D01*
X153158205Y-164861603D01*
X153015348Y-164766365D01*
X152943920Y-164575888D01*
X152943920Y-164480650D01*
X153015348Y-164290174D01*
X153158205Y-164194936D01*
X153372491Y-164194936D01*
X153515348Y-164290174D01*
X154801062Y-165433031D02*
X154658205Y-165528269D01*
X154372491Y-165528269D01*
X154229634Y-165433031D01*
X154158205Y-165242555D01*
X154158205Y-164480650D01*
X154229634Y-164290174D01*
X154372491Y-164194936D01*
X154658205Y-164194936D01*
X154801062Y-164290174D01*
X154872491Y-164480650D01*
X154872491Y-164671127D01*
X154158205Y-164861603D01*
X155372491Y-164194936D02*
X155729634Y-165528269D01*
X156086777Y-164194936D02*
X155729634Y-165528269D01*
X155586777Y-166004460D01*
X155515348Y-166099698D01*
X155372491Y-166194936D01*
X156443920Y-164194936D02*
X157015348Y-164194936D01*
X156658205Y-165528269D02*
X156658205Y-163813984D01*
X156729634Y-163623508D01*
X156872491Y-163528269D01*
X157015348Y-163528269D01*
X158158205Y-165528269D02*
X158158205Y-164480650D01*
X158086777Y-164290174D01*
X157943920Y-164194936D01*
X157658205Y-164194936D01*
X157515348Y-164290174D01*
X158158205Y-165433031D02*
X158015348Y-165528269D01*
X157658205Y-165528269D01*
X157515348Y-165433031D01*
X157443920Y-165242555D01*
X157443920Y-165052079D01*
X157515348Y-164861603D01*
X157658205Y-164766365D01*
X158015348Y-164766365D01*
X158158205Y-164671127D01*
X158872491Y-164194936D02*
X158872491Y-165528269D01*
X158872491Y-164385412D02*
X158943920Y-164290174D01*
X159086777Y-164194936D01*
X159301062Y-164194936D01*
X159443920Y-164290174D01*
X159515348Y-164480650D01*
X159515348Y-165528269D01*
X160229634Y-164194936D02*
X160229634Y-165528269D01*
X160229634Y-164385412D02*
X160301062Y-164290174D01*
X160443920Y-164194936D01*
X160658205Y-164194936D01*
X160801062Y-164290174D01*
X160872491Y-164480650D01*
X160872491Y-165528269D01*
X161586777Y-165528269D02*
X161586777Y-164194936D01*
X161586777Y-163528269D02*
X161515348Y-163623508D01*
X161586777Y-163718746D01*
X161658205Y-163623508D01*
X161586777Y-163528269D01*
X161586777Y-163718746D01*
X162086777Y-164194936D02*
X162658205Y-164194936D01*
X162301062Y-163528269D02*
X162301062Y-165242555D01*
X162372491Y-165433031D01*
X162515348Y-165528269D01*
X162658205Y-165528269D01*
X163801062Y-164194936D02*
X163801062Y-165528269D01*
X163158205Y-164194936D02*
X163158205Y-165242555D01*
X163229634Y-165433031D01*
X163372491Y-165528269D01*
X163586777Y-165528269D01*
X163729634Y-165433031D01*
X163801062Y-165337793D01*
X164301062Y-164194936D02*
X164872491Y-164194936D01*
X164515348Y-163528269D02*
X164515348Y-165242555D01*
X164586777Y-165433031D01*
X164729634Y-165528269D01*
X164872491Y-165528269D01*
X165158205Y-164194936D02*
X165729634Y-164194936D01*
X165372491Y-163528269D02*
X165372491Y-165242555D01*
X165443920Y-165433031D01*
X165586777Y-165528269D01*
X165729634Y-165528269D01*
X166229634Y-165528269D02*
X166229634Y-164194936D01*
X166229634Y-163528269D02*
X166158205Y-163623508D01*
X166229634Y-163718746D01*
X166301062Y-163623508D01*
X166229634Y-163528269D01*
X166229634Y-163718746D01*
X168015348Y-163718746D02*
X168086777Y-163623508D01*
X168229634Y-163528269D01*
X168586777Y-163528269D01*
X168729634Y-163623508D01*
X168801062Y-163718746D01*
X168872491Y-163909222D01*
X168872491Y-164099698D01*
X168801062Y-164385412D01*
X167943920Y-165528269D01*
X168872491Y-165528269D01*
X169801062Y-163528269D02*
X169943920Y-163528269D01*
X170086777Y-163623508D01*
X170158205Y-163718746D01*
X170229634Y-163909222D01*
X170301062Y-164290174D01*
X170301062Y-164766365D01*
X170229634Y-165147317D01*
X170158205Y-165337793D01*
X170086777Y-165433031D01*
X169943920Y-165528269D01*
X169801062Y-165528269D01*
X169658205Y-165433031D01*
X169586777Y-165337793D01*
X169515348Y-165147317D01*
X169443920Y-164766365D01*
X169443920Y-164290174D01*
X169515348Y-163909222D01*
X169586777Y-163718746D01*
X169658205Y-163623508D01*
X169801062Y-163528269D01*
X171729634Y-165528269D02*
X170872491Y-165528269D01*
X171301062Y-165528269D02*
X171301062Y-163528269D01*
X171158205Y-163813984D01*
X171015348Y-164004460D01*
X170872491Y-164099698D01*
X172443920Y-165528269D02*
X172729634Y-165528269D01*
X172872491Y-165433031D01*
X172943920Y-165337793D01*
X173086777Y-165052079D01*
X173158205Y-164671127D01*
X173158205Y-163909222D01*
X173086777Y-163718746D01*
X173015348Y-163623508D01*
X172872491Y-163528269D01*
X172586777Y-163528269D01*
X172443920Y-163623508D01*
X172372491Y-163718746D01*
X172301062Y-163909222D01*
X172301062Y-164385412D01*
X172372491Y-164575888D01*
X172443920Y-164671127D01*
X172586777Y-164766365D01*
X172872491Y-164766365D01*
X173015348Y-164671127D01*
X173086777Y-164575888D01*
X173158205Y-164385412D01*
X169015348Y-168603269D02*
X169015348Y-167269936D01*
X169015348Y-167650888D02*
X169086777Y-167460412D01*
X169158205Y-167365174D01*
X169301062Y-167269936D01*
X169443920Y-167269936D01*
X170515348Y-168508031D02*
X170372491Y-168603269D01*
X170086777Y-168603269D01*
X169943920Y-168508031D01*
X169872491Y-168317555D01*
X169872491Y-167555650D01*
X169943920Y-167365174D01*
X170086777Y-167269936D01*
X170372491Y-167269936D01*
X170515348Y-167365174D01*
X170586777Y-167555650D01*
X170586777Y-167746127D01*
X169872491Y-167936603D01*
X171086777Y-167269936D02*
X171443920Y-168603269D01*
X171801062Y-167269936D01*
X173158205Y-168603269D02*
X172301062Y-168603269D01*
X172729634Y-168603269D02*
X172729634Y-166603269D01*
X172586777Y-166888984D01*
X172443920Y-167079460D01*
X172301062Y-167174698D01*
D14*
G04 #@! TO.C,J1*
X260780364Y-54318500D02*
X260780364Y-53518500D01*
X260780364Y-53518500D02*
X258230364Y-53518500D01*
X258230364Y-53518500D02*
X258230364Y-54318500D01*
D15*
X255720364Y-54328500D02*
X263340364Y-54328500D01*
X263340364Y-59408500D02*
X255720364Y-59408500D01*
X255720364Y-59408500D02*
X255720364Y-54328500D01*
X263340364Y-54328500D02*
X263340364Y-59408500D01*
D12*
G04 #@! TO.C,USB1*
X288950002Y-55538652D02*
X279700002Y-55538652D01*
X288800002Y-62198652D02*
X279850002Y-62198652D01*
X279845002Y-53788652D02*
X279850002Y-53028652D01*
X288800002Y-53028652D02*
X279850002Y-53028652D01*
X288800002Y-53028652D02*
X288805002Y-53788652D01*
X284325002Y-55538652D02*
X284325002Y-56808652D01*
D11*
G04 #@! TO.C,D1*
X69376818Y-63793242D02*
X69376818Y-66763242D01*
X71376818Y-63783242D02*
X71366818Y-66773242D01*
X69376818Y-66773242D02*
X71366818Y-66773242D01*
X70386818Y-66983242D02*
X70386818Y-65863242D01*
X70386818Y-63523242D02*
X70386818Y-64803242D01*
X69376818Y-63783242D02*
X71376818Y-63783242D01*
X70386818Y-64913242D02*
X70926818Y-65863242D01*
X70376818Y-64923242D02*
X69846818Y-65833242D01*
X69846818Y-65863242D02*
X70926818Y-65863242D01*
X69846818Y-64813242D02*
X70926818Y-64813242D01*
G04 #@! TO.C,D45*
X78885207Y-68753829D02*
X78885207Y-71723829D01*
X80885207Y-68743829D02*
X80875207Y-71733829D01*
X78885207Y-71733829D02*
X80875207Y-71733829D01*
X79895207Y-71943829D02*
X79895207Y-70823829D01*
X79895207Y-68483829D02*
X79895207Y-69763829D01*
X78885207Y-68743829D02*
X80885207Y-68743829D01*
X79895207Y-69873829D02*
X80435207Y-70823829D01*
X79885207Y-69883829D02*
X79355207Y-70793829D01*
X79355207Y-70823829D02*
X80435207Y-70823829D01*
X79355207Y-69773829D02*
X80435207Y-69773829D01*
G04 #@! TO.C,D2*
X91563059Y-68753829D02*
X91563059Y-71723829D01*
X93563059Y-68743829D02*
X93553059Y-71733829D01*
X91563059Y-71733829D02*
X93553059Y-71733829D01*
X92573059Y-71943829D02*
X92573059Y-70823829D01*
X92573059Y-68483829D02*
X92573059Y-69763829D01*
X91563059Y-68743829D02*
X93563059Y-68743829D01*
X92573059Y-69873829D02*
X93113059Y-70823829D01*
X92563059Y-69883829D02*
X92033059Y-70793829D01*
X92033059Y-70823829D02*
X93113059Y-70823829D01*
X92033059Y-69773829D02*
X93113059Y-69773829D01*
G04 #@! TO.C,D3*
X94732522Y-63793242D02*
X94732522Y-66763242D01*
X96732522Y-63783242D02*
X96722522Y-66773242D01*
X94732522Y-66773242D02*
X96722522Y-66773242D01*
X95742522Y-66983242D02*
X95742522Y-65863242D01*
X95742522Y-63523242D02*
X95742522Y-64803242D01*
X94732522Y-63783242D02*
X96732522Y-63783242D01*
X95742522Y-64913242D02*
X96282522Y-65863242D01*
X95732522Y-64923242D02*
X95202522Y-65833242D01*
X95202522Y-65863242D02*
X96282522Y-65863242D01*
X95202522Y-64813242D02*
X96282522Y-64813242D01*
G04 #@! TO.C,D4*
X107410374Y-63793242D02*
X107410374Y-66763242D01*
X109410374Y-63783242D02*
X109400374Y-66773242D01*
X107410374Y-66773242D02*
X109400374Y-66773242D01*
X108420374Y-66983242D02*
X108420374Y-65863242D01*
X108420374Y-63523242D02*
X108420374Y-64803242D01*
X107410374Y-63783242D02*
X109410374Y-63783242D01*
X108420374Y-64913242D02*
X108960374Y-65863242D01*
X108410374Y-64923242D02*
X107880374Y-65833242D01*
X107880374Y-65863242D02*
X108960374Y-65863242D01*
X107880374Y-64813242D02*
X108960374Y-64813242D01*
G04 #@! TO.C,D5*
X120088226Y-63793242D02*
X120088226Y-66763242D01*
X122088226Y-63783242D02*
X122078226Y-66773242D01*
X120088226Y-66773242D02*
X122078226Y-66773242D01*
X121098226Y-66983242D02*
X121098226Y-65863242D01*
X121098226Y-63523242D02*
X121098226Y-64803242D01*
X120088226Y-63783242D02*
X122088226Y-63783242D01*
X121098226Y-64913242D02*
X121638226Y-65863242D01*
X121088226Y-64923242D02*
X120558226Y-65833242D01*
X120558226Y-65863242D02*
X121638226Y-65863242D01*
X120558226Y-64813242D02*
X121638226Y-64813242D01*
G04 #@! TO.C,D6*
X132766078Y-63793242D02*
X132766078Y-66763242D01*
X134766078Y-63783242D02*
X134756078Y-66773242D01*
X132766078Y-66773242D02*
X134756078Y-66773242D01*
X133776078Y-66983242D02*
X133776078Y-65863242D01*
X133776078Y-63523242D02*
X133776078Y-64803242D01*
X132766078Y-63783242D02*
X134766078Y-63783242D01*
X133776078Y-64913242D02*
X134316078Y-65863242D01*
X133766078Y-64923242D02*
X133236078Y-65833242D01*
X133236078Y-65863242D02*
X134316078Y-65863242D01*
X133236078Y-64813242D02*
X134316078Y-64813242D01*
G04 #@! TO.C,D7*
X145443930Y-63793242D02*
X145443930Y-66763242D01*
X147443930Y-63783242D02*
X147433930Y-66773242D01*
X145443930Y-66773242D02*
X147433930Y-66773242D01*
X146453930Y-66983242D02*
X146453930Y-65863242D01*
X146453930Y-63523242D02*
X146453930Y-64803242D01*
X145443930Y-63783242D02*
X147443930Y-63783242D01*
X146453930Y-64913242D02*
X146993930Y-65863242D01*
X146443930Y-64923242D02*
X145913930Y-65833242D01*
X145913930Y-65863242D02*
X146993930Y-65863242D01*
X145913930Y-64813242D02*
X146993930Y-64813242D01*
G04 #@! TO.C,D8*
X158121782Y-63793242D02*
X158121782Y-66763242D01*
X160121782Y-63783242D02*
X160111782Y-66773242D01*
X158121782Y-66773242D02*
X160111782Y-66773242D01*
X159131782Y-66983242D02*
X159131782Y-65863242D01*
X159131782Y-63523242D02*
X159131782Y-64803242D01*
X158121782Y-63783242D02*
X160121782Y-63783242D01*
X159131782Y-64913242D02*
X159671782Y-65863242D01*
X159121782Y-64923242D02*
X158591782Y-65833242D01*
X158591782Y-65863242D02*
X159671782Y-65863242D01*
X158591782Y-64813242D02*
X159671782Y-64813242D01*
G04 #@! TO.C,D9*
X170799634Y-63793242D02*
X170799634Y-66763242D01*
X172799634Y-63783242D02*
X172789634Y-66773242D01*
X170799634Y-66773242D02*
X172789634Y-66773242D01*
X171809634Y-66983242D02*
X171809634Y-65863242D01*
X171809634Y-63523242D02*
X171809634Y-64803242D01*
X170799634Y-63783242D02*
X172799634Y-63783242D01*
X171809634Y-64913242D02*
X172349634Y-65863242D01*
X171799634Y-64923242D02*
X171269634Y-65833242D01*
X171269634Y-65863242D02*
X172349634Y-65863242D01*
X171269634Y-64813242D02*
X172349634Y-64813242D01*
G04 #@! TO.C,D10*
X183477486Y-63793242D02*
X183477486Y-66763242D01*
X185477486Y-63783242D02*
X185467486Y-66773242D01*
X183477486Y-66773242D02*
X185467486Y-66773242D01*
X184487486Y-66983242D02*
X184487486Y-65863242D01*
X184487486Y-63523242D02*
X184487486Y-64803242D01*
X183477486Y-63783242D02*
X185477486Y-63783242D01*
X184487486Y-64913242D02*
X185027486Y-65863242D01*
X184477486Y-64923242D02*
X183947486Y-65833242D01*
X183947486Y-65863242D02*
X185027486Y-65863242D01*
X183947486Y-64813242D02*
X185027486Y-64813242D01*
G04 #@! TO.C,D11*
X196155338Y-63793242D02*
X196155338Y-66763242D01*
X198155338Y-63783242D02*
X198145338Y-66773242D01*
X196155338Y-66773242D02*
X198145338Y-66773242D01*
X197165338Y-66983242D02*
X197165338Y-65863242D01*
X197165338Y-63523242D02*
X197165338Y-64803242D01*
X196155338Y-63783242D02*
X198155338Y-63783242D01*
X197165338Y-64913242D02*
X197705338Y-65863242D01*
X197155338Y-64923242D02*
X196625338Y-65833242D01*
X196625338Y-65863242D02*
X197705338Y-65863242D01*
X196625338Y-64813242D02*
X197705338Y-64813242D01*
G04 #@! TO.C,D12*
X208833190Y-63793242D02*
X208833190Y-66763242D01*
X210833190Y-63783242D02*
X210823190Y-66773242D01*
X208833190Y-66773242D02*
X210823190Y-66773242D01*
X209843190Y-66983242D02*
X209843190Y-65863242D01*
X209843190Y-63523242D02*
X209843190Y-64803242D01*
X208833190Y-63783242D02*
X210833190Y-63783242D01*
X209843190Y-64913242D02*
X210383190Y-65863242D01*
X209833190Y-64923242D02*
X209303190Y-65833242D01*
X209303190Y-65863242D02*
X210383190Y-65863242D01*
X209303190Y-64813242D02*
X210383190Y-64813242D01*
G04 #@! TO.C,D13*
X221511042Y-63793242D02*
X221511042Y-66763242D01*
X223511042Y-63783242D02*
X223501042Y-66773242D01*
X221511042Y-66773242D02*
X223501042Y-66773242D01*
X222521042Y-66983242D02*
X222521042Y-65863242D01*
X222521042Y-63523242D02*
X222521042Y-64803242D01*
X221511042Y-63783242D02*
X223511042Y-63783242D01*
X222521042Y-64913242D02*
X223061042Y-65863242D01*
X222511042Y-64923242D02*
X221981042Y-65833242D01*
X221981042Y-65863242D02*
X223061042Y-65863242D01*
X221981042Y-64813242D02*
X223061042Y-64813242D01*
G04 #@! TO.C,D14*
X234118910Y-63793242D02*
X234118910Y-66763242D01*
X236118910Y-63783242D02*
X236108910Y-66773242D01*
X234118910Y-66773242D02*
X236108910Y-66773242D01*
X235128910Y-66983242D02*
X235128910Y-65863242D01*
X235128910Y-63523242D02*
X235128910Y-64803242D01*
X234118910Y-63783242D02*
X236118910Y-63783242D01*
X235128910Y-64913242D02*
X235668910Y-65863242D01*
X235118910Y-64923242D02*
X234588910Y-65833242D01*
X234588910Y-65863242D02*
X235668910Y-65863242D01*
X234588910Y-64813242D02*
X235668910Y-64813242D01*
G04 #@! TO.C,D15*
X281318463Y-68753829D02*
X281318463Y-71723829D01*
X283318463Y-68743829D02*
X283308463Y-71733829D01*
X281318463Y-71733829D02*
X283308463Y-71733829D01*
X282328463Y-71943829D02*
X282328463Y-70823829D01*
X282328463Y-68483829D02*
X282328463Y-69763829D01*
X281318463Y-68743829D02*
X283318463Y-68743829D01*
X282328463Y-69873829D02*
X282868463Y-70823829D01*
X282318463Y-69883829D02*
X281788463Y-70793829D01*
X281788463Y-70823829D02*
X282868463Y-70823829D01*
X281788463Y-69773829D02*
X282868463Y-69773829D01*
G04 #@! TO.C,D16*
X72546281Y-65446771D02*
X72546281Y-68416771D01*
X74546281Y-65436771D02*
X74536281Y-68426771D01*
X72546281Y-68426771D02*
X74536281Y-68426771D01*
X73556281Y-68636771D02*
X73556281Y-67516771D01*
X73556281Y-65176771D02*
X73556281Y-66456771D01*
X72546281Y-65436771D02*
X74546281Y-65436771D01*
X73556281Y-66566771D02*
X74096281Y-67516771D01*
X73546281Y-66576771D02*
X73016281Y-67486771D01*
X73016281Y-67516771D02*
X74096281Y-67516771D01*
X73016281Y-66466771D02*
X74096281Y-66466771D01*
G04 #@! TO.C,D17*
X88393596Y-67100300D02*
X88393596Y-70070300D01*
X90393596Y-67090300D02*
X90383596Y-70080300D01*
X88393596Y-70080300D02*
X90383596Y-70080300D01*
X89403596Y-70290300D02*
X89403596Y-69170300D01*
X89403596Y-66830300D02*
X89403596Y-68110300D01*
X88393596Y-67090300D02*
X90393596Y-67090300D01*
X89403596Y-68220300D02*
X89943596Y-69170300D01*
X89393596Y-68230300D02*
X88863596Y-69140300D01*
X88863596Y-69170300D02*
X89943596Y-69170300D01*
X88863596Y-68120300D02*
X89943596Y-68120300D01*
G04 #@! TO.C,D18*
X97901985Y-65446771D02*
X97901985Y-68416771D01*
X99901985Y-65436771D02*
X99891985Y-68426771D01*
X97901985Y-68426771D02*
X99891985Y-68426771D01*
X98911985Y-68636771D02*
X98911985Y-67516771D01*
X98911985Y-65176771D02*
X98911985Y-66456771D01*
X97901985Y-65436771D02*
X99901985Y-65436771D01*
X98911985Y-66566771D02*
X99451985Y-67516771D01*
X98901985Y-66576771D02*
X98371985Y-67486771D01*
X98371985Y-67516771D02*
X99451985Y-67516771D01*
X98371985Y-66466771D02*
X99451985Y-66466771D01*
G04 #@! TO.C,D19*
X110579837Y-65446771D02*
X110579837Y-68416771D01*
X112579837Y-65436771D02*
X112569837Y-68426771D01*
X110579837Y-68426771D02*
X112569837Y-68426771D01*
X111589837Y-68636771D02*
X111589837Y-67516771D01*
X111589837Y-65176771D02*
X111589837Y-66456771D01*
X110579837Y-65436771D02*
X112579837Y-65436771D01*
X111589837Y-66566771D02*
X112129837Y-67516771D01*
X111579837Y-66576771D02*
X111049837Y-67486771D01*
X111049837Y-67516771D02*
X112129837Y-67516771D01*
X111049837Y-66466771D02*
X112129837Y-66466771D01*
G04 #@! TO.C,D20*
X123257689Y-65446771D02*
X123257689Y-68416771D01*
X125257689Y-65436771D02*
X125247689Y-68426771D01*
X123257689Y-68426771D02*
X125247689Y-68426771D01*
X124267689Y-68636771D02*
X124267689Y-67516771D01*
X124267689Y-65176771D02*
X124267689Y-66456771D01*
X123257689Y-65436771D02*
X125257689Y-65436771D01*
X124267689Y-66566771D02*
X124807689Y-67516771D01*
X124257689Y-66576771D02*
X123727689Y-67486771D01*
X123727689Y-67516771D02*
X124807689Y-67516771D01*
X123727689Y-66466771D02*
X124807689Y-66466771D01*
G04 #@! TO.C,D21*
X135935541Y-65446771D02*
X135935541Y-68416771D01*
X137935541Y-65436771D02*
X137925541Y-68426771D01*
X135935541Y-68426771D02*
X137925541Y-68426771D01*
X136945541Y-68636771D02*
X136945541Y-67516771D01*
X136945541Y-65176771D02*
X136945541Y-66456771D01*
X135935541Y-65436771D02*
X137935541Y-65436771D01*
X136945541Y-66566771D02*
X137485541Y-67516771D01*
X136935541Y-66576771D02*
X136405541Y-67486771D01*
X136405541Y-67516771D02*
X137485541Y-67516771D01*
X136405541Y-66466771D02*
X137485541Y-66466771D01*
G04 #@! TO.C,D22*
X148613393Y-65446771D02*
X148613393Y-68416771D01*
X150613393Y-65436771D02*
X150603393Y-68426771D01*
X148613393Y-68426771D02*
X150603393Y-68426771D01*
X149623393Y-68636771D02*
X149623393Y-67516771D01*
X149623393Y-65176771D02*
X149623393Y-66456771D01*
X148613393Y-65436771D02*
X150613393Y-65436771D01*
X149623393Y-66566771D02*
X150163393Y-67516771D01*
X149613393Y-66576771D02*
X149083393Y-67486771D01*
X149083393Y-67516771D02*
X150163393Y-67516771D01*
X149083393Y-66466771D02*
X150163393Y-66466771D01*
G04 #@! TO.C,D23*
X161291245Y-65446771D02*
X161291245Y-68416771D01*
X163291245Y-65436771D02*
X163281245Y-68426771D01*
X161291245Y-68426771D02*
X163281245Y-68426771D01*
X162301245Y-68636771D02*
X162301245Y-67516771D01*
X162301245Y-65176771D02*
X162301245Y-66456771D01*
X161291245Y-65436771D02*
X163291245Y-65436771D01*
X162301245Y-66566771D02*
X162841245Y-67516771D01*
X162291245Y-66576771D02*
X161761245Y-67486771D01*
X161761245Y-67516771D02*
X162841245Y-67516771D01*
X161761245Y-66466771D02*
X162841245Y-66466771D01*
G04 #@! TO.C,D24*
X173969097Y-65446771D02*
X173969097Y-68416771D01*
X175969097Y-65436771D02*
X175959097Y-68426771D01*
X173969097Y-68426771D02*
X175959097Y-68426771D01*
X174979097Y-68636771D02*
X174979097Y-67516771D01*
X174979097Y-65176771D02*
X174979097Y-66456771D01*
X173969097Y-65436771D02*
X175969097Y-65436771D01*
X174979097Y-66566771D02*
X175519097Y-67516771D01*
X174969097Y-66576771D02*
X174439097Y-67486771D01*
X174439097Y-67516771D02*
X175519097Y-67516771D01*
X174439097Y-66466771D02*
X175519097Y-66466771D01*
G04 #@! TO.C,D25*
X186646949Y-65446771D02*
X186646949Y-68416771D01*
X188646949Y-65436771D02*
X188636949Y-68426771D01*
X186646949Y-68426771D02*
X188636949Y-68426771D01*
X187656949Y-68636771D02*
X187656949Y-67516771D01*
X187656949Y-65176771D02*
X187656949Y-66456771D01*
X186646949Y-65436771D02*
X188646949Y-65436771D01*
X187656949Y-66566771D02*
X188196949Y-67516771D01*
X187646949Y-66576771D02*
X187116949Y-67486771D01*
X187116949Y-67516771D02*
X188196949Y-67516771D01*
X187116949Y-66466771D02*
X188196949Y-66466771D01*
G04 #@! TO.C,D26*
X199324801Y-65446771D02*
X199324801Y-68416771D01*
X201324801Y-65436771D02*
X201314801Y-68426771D01*
X199324801Y-68426771D02*
X201314801Y-68426771D01*
X200334801Y-68636771D02*
X200334801Y-67516771D01*
X200334801Y-65176771D02*
X200334801Y-66456771D01*
X199324801Y-65436771D02*
X201324801Y-65436771D01*
X200334801Y-66566771D02*
X200874801Y-67516771D01*
X200324801Y-66576771D02*
X199794801Y-67486771D01*
X199794801Y-67516771D02*
X200874801Y-67516771D01*
X199794801Y-66466771D02*
X200874801Y-66466771D01*
G04 #@! TO.C,D27*
X212002653Y-65446771D02*
X212002653Y-68416771D01*
X214002653Y-65436771D02*
X213992653Y-68426771D01*
X212002653Y-68426771D02*
X213992653Y-68426771D01*
X213012653Y-68636771D02*
X213012653Y-67516771D01*
X213012653Y-65176771D02*
X213012653Y-66456771D01*
X212002653Y-65436771D02*
X214002653Y-65436771D01*
X213012653Y-66566771D02*
X213552653Y-67516771D01*
X213002653Y-66576771D02*
X212472653Y-67486771D01*
X212472653Y-67516771D02*
X213552653Y-67516771D01*
X212472653Y-66466771D02*
X213552653Y-66466771D01*
G04 #@! TO.C,D28*
X224663009Y-65446771D02*
X224663009Y-68416771D01*
X226663009Y-65436771D02*
X226653009Y-68426771D01*
X224663009Y-68426771D02*
X226653009Y-68426771D01*
X225673009Y-68636771D02*
X225673009Y-67516771D01*
X225673009Y-65176771D02*
X225673009Y-66456771D01*
X224663009Y-65436771D02*
X226663009Y-65436771D01*
X225673009Y-66566771D02*
X226213009Y-67516771D01*
X225663009Y-66576771D02*
X225133009Y-67486771D01*
X225133009Y-67516771D02*
X226213009Y-67516771D01*
X225133009Y-66466771D02*
X226213009Y-66466771D01*
G04 #@! TO.C,D29*
X237269683Y-65446771D02*
X237269683Y-68416771D01*
X239269683Y-65436771D02*
X239259683Y-68426771D01*
X237269683Y-68426771D02*
X239259683Y-68426771D01*
X238279683Y-68636771D02*
X238279683Y-67516771D01*
X238279683Y-65176771D02*
X238279683Y-66456771D01*
X237269683Y-65436771D02*
X239269683Y-65436771D01*
X238279683Y-66566771D02*
X238819683Y-67516771D01*
X238269683Y-66576771D02*
X237739683Y-67486771D01*
X237739683Y-67516771D02*
X238819683Y-67516771D01*
X237739683Y-66466771D02*
X238819683Y-66466771D01*
G04 #@! TO.C,D30*
X278229739Y-67100300D02*
X278229739Y-70070300D01*
X280229739Y-67090300D02*
X280219739Y-70080300D01*
X278229739Y-70080300D02*
X280219739Y-70080300D01*
X279239739Y-70290300D02*
X279239739Y-69170300D01*
X279239739Y-66830300D02*
X279239739Y-68110300D01*
X278229739Y-67090300D02*
X280229739Y-67090300D01*
X279239739Y-68220300D02*
X279779739Y-69170300D01*
X279229739Y-68230300D02*
X278699739Y-69140300D01*
X278699739Y-69170300D02*
X279779739Y-69170300D01*
X278699739Y-68120300D02*
X279779739Y-68120300D01*
G04 #@! TO.C,D31*
X75715744Y-67100300D02*
X75715744Y-70070300D01*
X77715744Y-67090300D02*
X77705744Y-70080300D01*
X75715744Y-70080300D02*
X77705744Y-70080300D01*
X76725744Y-70290300D02*
X76725744Y-69170300D01*
X76725744Y-66830300D02*
X76725744Y-68110300D01*
X75715744Y-67090300D02*
X77715744Y-67090300D01*
X76725744Y-68220300D02*
X77265744Y-69170300D01*
X76715744Y-68230300D02*
X76185744Y-69140300D01*
X76185744Y-69170300D02*
X77265744Y-69170300D01*
X76185744Y-68120300D02*
X77265744Y-68120300D01*
G04 #@! TO.C,D32*
X85224133Y-65446771D02*
X85224133Y-68416771D01*
X87224133Y-65436771D02*
X87214133Y-68426771D01*
X85224133Y-68426771D02*
X87214133Y-68426771D01*
X86234133Y-68636771D02*
X86234133Y-67516771D01*
X86234133Y-65176771D02*
X86234133Y-66456771D01*
X85224133Y-65436771D02*
X87224133Y-65436771D01*
X86234133Y-66566771D02*
X86774133Y-67516771D01*
X86224133Y-66576771D02*
X85694133Y-67486771D01*
X85694133Y-67516771D02*
X86774133Y-67516771D01*
X85694133Y-66466771D02*
X86774133Y-66466771D01*
G04 #@! TO.C,D33*
X101071448Y-67100300D02*
X101071448Y-70070300D01*
X103071448Y-67090300D02*
X103061448Y-70080300D01*
X101071448Y-70080300D02*
X103061448Y-70080300D01*
X102081448Y-70290300D02*
X102081448Y-69170300D01*
X102081448Y-66830300D02*
X102081448Y-68110300D01*
X101071448Y-67090300D02*
X103071448Y-67090300D01*
X102081448Y-68220300D02*
X102621448Y-69170300D01*
X102071448Y-68230300D02*
X101541448Y-69140300D01*
X101541448Y-69170300D02*
X102621448Y-69170300D01*
X101541448Y-68120300D02*
X102621448Y-68120300D01*
G04 #@! TO.C,D34*
X113749300Y-67100300D02*
X113749300Y-70070300D01*
X115749300Y-67090300D02*
X115739300Y-70080300D01*
X113749300Y-70080300D02*
X115739300Y-70080300D01*
X114759300Y-70290300D02*
X114759300Y-69170300D01*
X114759300Y-66830300D02*
X114759300Y-68110300D01*
X113749300Y-67090300D02*
X115749300Y-67090300D01*
X114759300Y-68220300D02*
X115299300Y-69170300D01*
X114749300Y-68230300D02*
X114219300Y-69140300D01*
X114219300Y-69170300D02*
X115299300Y-69170300D01*
X114219300Y-68120300D02*
X115299300Y-68120300D01*
G04 #@! TO.C,D35*
X126427152Y-67100300D02*
X126427152Y-70070300D01*
X128427152Y-67090300D02*
X128417152Y-70080300D01*
X126427152Y-70080300D02*
X128417152Y-70080300D01*
X127437152Y-70290300D02*
X127437152Y-69170300D01*
X127437152Y-66830300D02*
X127437152Y-68110300D01*
X126427152Y-67090300D02*
X128427152Y-67090300D01*
X127437152Y-68220300D02*
X127977152Y-69170300D01*
X127427152Y-68230300D02*
X126897152Y-69140300D01*
X126897152Y-69170300D02*
X127977152Y-69170300D01*
X126897152Y-68120300D02*
X127977152Y-68120300D01*
G04 #@! TO.C,D36*
X139105004Y-67100300D02*
X139105004Y-70070300D01*
X141105004Y-67090300D02*
X141095004Y-70080300D01*
X139105004Y-70080300D02*
X141095004Y-70080300D01*
X140115004Y-70290300D02*
X140115004Y-69170300D01*
X140115004Y-66830300D02*
X140115004Y-68110300D01*
X139105004Y-67090300D02*
X141105004Y-67090300D01*
X140115004Y-68220300D02*
X140655004Y-69170300D01*
X140105004Y-68230300D02*
X139575004Y-69140300D01*
X139575004Y-69170300D02*
X140655004Y-69170300D01*
X139575004Y-68120300D02*
X140655004Y-68120300D01*
G04 #@! TO.C,D37*
X151782856Y-67100300D02*
X151782856Y-70070300D01*
X153782856Y-67090300D02*
X153772856Y-70080300D01*
X151782856Y-70080300D02*
X153772856Y-70080300D01*
X152792856Y-70290300D02*
X152792856Y-69170300D01*
X152792856Y-66830300D02*
X152792856Y-68110300D01*
X151782856Y-67090300D02*
X153782856Y-67090300D01*
X152792856Y-68220300D02*
X153332856Y-69170300D01*
X152782856Y-68230300D02*
X152252856Y-69140300D01*
X152252856Y-69170300D02*
X153332856Y-69170300D01*
X152252856Y-68120300D02*
X153332856Y-68120300D01*
G04 #@! TO.C,D38*
X164460708Y-67100300D02*
X164460708Y-70070300D01*
X166460708Y-67090300D02*
X166450708Y-70080300D01*
X164460708Y-70080300D02*
X166450708Y-70080300D01*
X165470708Y-70290300D02*
X165470708Y-69170300D01*
X165470708Y-66830300D02*
X165470708Y-68110300D01*
X164460708Y-67090300D02*
X166460708Y-67090300D01*
X165470708Y-68220300D02*
X166010708Y-69170300D01*
X165460708Y-68230300D02*
X164930708Y-69140300D01*
X164930708Y-69170300D02*
X166010708Y-69170300D01*
X164930708Y-68120300D02*
X166010708Y-68120300D01*
G04 #@! TO.C,D39*
X177138560Y-67100300D02*
X177138560Y-70070300D01*
X179138560Y-67090300D02*
X179128560Y-70080300D01*
X177138560Y-70080300D02*
X179128560Y-70080300D01*
X178148560Y-70290300D02*
X178148560Y-69170300D01*
X178148560Y-66830300D02*
X178148560Y-68110300D01*
X177138560Y-67090300D02*
X179138560Y-67090300D01*
X178148560Y-68220300D02*
X178688560Y-69170300D01*
X178138560Y-68230300D02*
X177608560Y-69140300D01*
X177608560Y-69170300D02*
X178688560Y-69170300D01*
X177608560Y-68120300D02*
X178688560Y-68120300D01*
G04 #@! TO.C,D40*
X189816412Y-67100300D02*
X189816412Y-70070300D01*
X191816412Y-67090300D02*
X191806412Y-70080300D01*
X189816412Y-70080300D02*
X191806412Y-70080300D01*
X190826412Y-70290300D02*
X190826412Y-69170300D01*
X190826412Y-66830300D02*
X190826412Y-68110300D01*
X189816412Y-67090300D02*
X191816412Y-67090300D01*
X190826412Y-68220300D02*
X191366412Y-69170300D01*
X190816412Y-68230300D02*
X190286412Y-69140300D01*
X190286412Y-69170300D02*
X191366412Y-69170300D01*
X190286412Y-68120300D02*
X191366412Y-68120300D01*
G04 #@! TO.C,D41*
X202494264Y-67100300D02*
X202494264Y-70070300D01*
X204494264Y-67090300D02*
X204484264Y-70080300D01*
X202494264Y-70080300D02*
X204484264Y-70080300D01*
X203504264Y-70290300D02*
X203504264Y-69170300D01*
X203504264Y-66830300D02*
X203504264Y-68110300D01*
X202494264Y-67090300D02*
X204494264Y-67090300D01*
X203504264Y-68220300D02*
X204044264Y-69170300D01*
X203494264Y-68230300D02*
X202964264Y-69140300D01*
X202964264Y-69170300D02*
X204044264Y-69170300D01*
X202964264Y-68120300D02*
X204044264Y-68120300D01*
G04 #@! TO.C,D42*
X215172116Y-67100300D02*
X215172116Y-70070300D01*
X217172116Y-67090300D02*
X217162116Y-70080300D01*
X215172116Y-70080300D02*
X217162116Y-70080300D01*
X216182116Y-70290300D02*
X216182116Y-69170300D01*
X216182116Y-66830300D02*
X216182116Y-68110300D01*
X215172116Y-67090300D02*
X217172116Y-67090300D01*
X216182116Y-68220300D02*
X216722116Y-69170300D01*
X216172116Y-68230300D02*
X215642116Y-69140300D01*
X215642116Y-69170300D02*
X216722116Y-69170300D01*
X215642116Y-68120300D02*
X216722116Y-68120300D01*
G04 #@! TO.C,D43*
X240420456Y-67100300D02*
X240420456Y-70070300D01*
X242420456Y-67090300D02*
X242410456Y-70080300D01*
X240420456Y-70080300D02*
X242410456Y-70080300D01*
X241430456Y-70290300D02*
X241430456Y-69170300D01*
X241430456Y-66830300D02*
X241430456Y-68110300D01*
X240420456Y-67090300D02*
X242420456Y-67090300D01*
X241430456Y-68220300D02*
X241970456Y-69170300D01*
X241420456Y-68230300D02*
X240890456Y-69140300D01*
X240890456Y-69170300D02*
X241970456Y-69170300D01*
X240890456Y-68120300D02*
X241970456Y-68120300D01*
G04 #@! TO.C,D44*
X275141015Y-65446771D02*
X275141015Y-68416771D01*
X277141015Y-65436771D02*
X277131015Y-68426771D01*
X275141015Y-68426771D02*
X277131015Y-68426771D01*
X276151015Y-68636771D02*
X276151015Y-67516771D01*
X276151015Y-65176771D02*
X276151015Y-66456771D01*
X275141015Y-65436771D02*
X277141015Y-65436771D01*
X276151015Y-66566771D02*
X276691015Y-67516771D01*
X276141015Y-66576771D02*
X275611015Y-67486771D01*
X275611015Y-67516771D02*
X276691015Y-67516771D01*
X275611015Y-66466771D02*
X276691015Y-66466771D01*
G04 #@! TO.C,D46*
X104240911Y-68753829D02*
X104240911Y-71723829D01*
X106240911Y-68743829D02*
X106230911Y-71733829D01*
X104240911Y-71733829D02*
X106230911Y-71733829D01*
X105250911Y-71943829D02*
X105250911Y-70823829D01*
X105250911Y-68483829D02*
X105250911Y-69763829D01*
X104240911Y-68743829D02*
X106240911Y-68743829D01*
X105250911Y-69873829D02*
X105790911Y-70823829D01*
X105240911Y-69883829D02*
X104710911Y-70793829D01*
X104710911Y-70823829D02*
X105790911Y-70823829D01*
X104710911Y-69773829D02*
X105790911Y-69773829D01*
G04 #@! TO.C,D47*
X116918763Y-68753829D02*
X116918763Y-71723829D01*
X118918763Y-68743829D02*
X118908763Y-71733829D01*
X116918763Y-71733829D02*
X118908763Y-71733829D01*
X117928763Y-71943829D02*
X117928763Y-70823829D01*
X117928763Y-68483829D02*
X117928763Y-69763829D01*
X116918763Y-68743829D02*
X118918763Y-68743829D01*
X117928763Y-69873829D02*
X118468763Y-70823829D01*
X117918763Y-69883829D02*
X117388763Y-70793829D01*
X117388763Y-70823829D02*
X118468763Y-70823829D01*
X117388763Y-69773829D02*
X118468763Y-69773829D01*
G04 #@! TO.C,D48*
X129596615Y-68753829D02*
X129596615Y-71723829D01*
X131596615Y-68743829D02*
X131586615Y-71733829D01*
X129596615Y-71733829D02*
X131586615Y-71733829D01*
X130606615Y-71943829D02*
X130606615Y-70823829D01*
X130606615Y-68483829D02*
X130606615Y-69763829D01*
X129596615Y-68743829D02*
X131596615Y-68743829D01*
X130606615Y-69873829D02*
X131146615Y-70823829D01*
X130596615Y-69883829D02*
X130066615Y-70793829D01*
X130066615Y-70823829D02*
X131146615Y-70823829D01*
X130066615Y-69773829D02*
X131146615Y-69773829D01*
G04 #@! TO.C,D49*
X142274467Y-68753829D02*
X142274467Y-71723829D01*
X144274467Y-68743829D02*
X144264467Y-71733829D01*
X142274467Y-71733829D02*
X144264467Y-71733829D01*
X143284467Y-71943829D02*
X143284467Y-70823829D01*
X143284467Y-68483829D02*
X143284467Y-69763829D01*
X142274467Y-68743829D02*
X144274467Y-68743829D01*
X143284467Y-69873829D02*
X143824467Y-70823829D01*
X143274467Y-69883829D02*
X142744467Y-70793829D01*
X142744467Y-70823829D02*
X143824467Y-70823829D01*
X142744467Y-69773829D02*
X143824467Y-69773829D01*
G04 #@! TO.C,D50*
X154952319Y-68753829D02*
X154952319Y-71723829D01*
X156952319Y-68743829D02*
X156942319Y-71733829D01*
X154952319Y-71733829D02*
X156942319Y-71733829D01*
X155962319Y-71943829D02*
X155962319Y-70823829D01*
X155962319Y-68483829D02*
X155962319Y-69763829D01*
X154952319Y-68743829D02*
X156952319Y-68743829D01*
X155962319Y-69873829D02*
X156502319Y-70823829D01*
X155952319Y-69883829D02*
X155422319Y-70793829D01*
X155422319Y-70823829D02*
X156502319Y-70823829D01*
X155422319Y-69773829D02*
X156502319Y-69773829D01*
G04 #@! TO.C,D51*
X167630171Y-68753829D02*
X167630171Y-71723829D01*
X169630171Y-68743829D02*
X169620171Y-71733829D01*
X167630171Y-71733829D02*
X169620171Y-71733829D01*
X168640171Y-71943829D02*
X168640171Y-70823829D01*
X168640171Y-68483829D02*
X168640171Y-69763829D01*
X167630171Y-68743829D02*
X169630171Y-68743829D01*
X168640171Y-69873829D02*
X169180171Y-70823829D01*
X168630171Y-69883829D02*
X168100171Y-70793829D01*
X168100171Y-70823829D02*
X169180171Y-70823829D01*
X168100171Y-69773829D02*
X169180171Y-69773829D01*
G04 #@! TO.C,D52*
X180308023Y-68753829D02*
X180308023Y-71723829D01*
X182308023Y-68743829D02*
X182298023Y-71733829D01*
X180308023Y-71733829D02*
X182298023Y-71733829D01*
X181318023Y-71943829D02*
X181318023Y-70823829D01*
X181318023Y-68483829D02*
X181318023Y-69763829D01*
X180308023Y-68743829D02*
X182308023Y-68743829D01*
X181318023Y-69873829D02*
X181858023Y-70823829D01*
X181308023Y-69883829D02*
X180778023Y-70793829D01*
X180778023Y-70823829D02*
X181858023Y-70823829D01*
X180778023Y-69773829D02*
X181858023Y-69773829D01*
G04 #@! TO.C,D53*
X192985875Y-68753829D02*
X192985875Y-71723829D01*
X194985875Y-68743829D02*
X194975875Y-71733829D01*
X192985875Y-71733829D02*
X194975875Y-71733829D01*
X193995875Y-71943829D02*
X193995875Y-70823829D01*
X193995875Y-68483829D02*
X193995875Y-69763829D01*
X192985875Y-68743829D02*
X194985875Y-68743829D01*
X193995875Y-69873829D02*
X194535875Y-70823829D01*
X193985875Y-69883829D02*
X193455875Y-70793829D01*
X193455875Y-70823829D02*
X194535875Y-70823829D01*
X193455875Y-69773829D02*
X194535875Y-69773829D01*
G04 #@! TO.C,D54*
X205663727Y-68753829D02*
X205663727Y-71723829D01*
X207663727Y-68743829D02*
X207653727Y-71733829D01*
X205663727Y-71733829D02*
X207653727Y-71733829D01*
X206673727Y-71943829D02*
X206673727Y-70823829D01*
X206673727Y-68483829D02*
X206673727Y-69763829D01*
X205663727Y-68743829D02*
X207663727Y-68743829D01*
X206673727Y-69873829D02*
X207213727Y-70823829D01*
X206663727Y-69883829D02*
X206133727Y-70793829D01*
X206133727Y-70823829D02*
X207213727Y-70823829D01*
X206133727Y-69773829D02*
X207213727Y-69773829D01*
G04 #@! TO.C,D55*
X218341579Y-68753829D02*
X218341579Y-71723829D01*
X220341579Y-68743829D02*
X220331579Y-71733829D01*
X218341579Y-71733829D02*
X220331579Y-71733829D01*
X219351579Y-71943829D02*
X219351579Y-70823829D01*
X219351579Y-68483829D02*
X219351579Y-69763829D01*
X218341579Y-68743829D02*
X220341579Y-68743829D01*
X219351579Y-69873829D02*
X219891579Y-70823829D01*
X219341579Y-69883829D02*
X218811579Y-70793829D01*
X218811579Y-70823829D02*
X219891579Y-70823829D01*
X218811579Y-69773829D02*
X219891579Y-69773829D01*
G04 #@! TO.C,D56*
X227814976Y-67100300D02*
X227814976Y-70070300D01*
X229814976Y-67090300D02*
X229804976Y-70080300D01*
X227814976Y-70080300D02*
X229804976Y-70080300D01*
X228824976Y-70290300D02*
X228824976Y-69170300D01*
X228824976Y-66830300D02*
X228824976Y-68110300D01*
X227814976Y-67090300D02*
X229814976Y-67090300D01*
X228824976Y-68220300D02*
X229364976Y-69170300D01*
X228814976Y-68230300D02*
X228284976Y-69140300D01*
X228284976Y-69170300D02*
X229364976Y-69170300D01*
X228284976Y-68120300D02*
X229364976Y-68120300D01*
G04 #@! TO.C,D57*
X243571229Y-68753829D02*
X243571229Y-71723829D01*
X245571229Y-68743829D02*
X245561229Y-71733829D01*
X243571229Y-71733829D02*
X245561229Y-71733829D01*
X244581229Y-71943829D02*
X244581229Y-70823829D01*
X244581229Y-68483829D02*
X244581229Y-69763829D01*
X243571229Y-68743829D02*
X245571229Y-68743829D01*
X244581229Y-69873829D02*
X245121229Y-70823829D01*
X244571229Y-69883829D02*
X244041229Y-70793829D01*
X244041229Y-70823829D02*
X245121229Y-70823829D01*
X244041229Y-69773829D02*
X245121229Y-69773829D01*
G04 #@! TO.C,D58*
X271866140Y-63793242D02*
X271866140Y-66763242D01*
X273866140Y-63783242D02*
X273856140Y-66773242D01*
X271866140Y-66773242D02*
X273856140Y-66773242D01*
X272876140Y-66983242D02*
X272876140Y-65863242D01*
X272876140Y-63523242D02*
X272876140Y-64803242D01*
X271866140Y-63783242D02*
X273866140Y-63783242D01*
X272876140Y-64913242D02*
X273416140Y-65863242D01*
X272866140Y-64923242D02*
X272336140Y-65833242D01*
X272336140Y-65863242D02*
X273416140Y-65863242D01*
X272336140Y-64813242D02*
X273416140Y-64813242D01*
G04 #@! TO.C,D59*
X265564592Y-67100300D02*
X265564592Y-70070300D01*
X267564592Y-67090300D02*
X267554592Y-70080300D01*
X265564592Y-70080300D02*
X267554592Y-70080300D01*
X266574592Y-70290300D02*
X266574592Y-69170300D01*
X266574592Y-66830300D02*
X266574592Y-68110300D01*
X265564592Y-67090300D02*
X267564592Y-67090300D01*
X266574592Y-68220300D02*
X267114592Y-69170300D01*
X266564592Y-68230300D02*
X266034592Y-69140300D01*
X266034592Y-69170300D02*
X267114592Y-69170300D01*
X266034592Y-68120300D02*
X267114592Y-68120300D01*
G04 #@! TO.C,D60*
X82054670Y-63793242D02*
X82054670Y-66763242D01*
X84054670Y-63783242D02*
X84044670Y-66773242D01*
X82054670Y-66773242D02*
X84044670Y-66773242D01*
X83064670Y-66983242D02*
X83064670Y-65863242D01*
X83064670Y-63523242D02*
X83064670Y-64803242D01*
X82054670Y-63783242D02*
X84054670Y-63783242D01*
X83064670Y-64913242D02*
X83604670Y-65863242D01*
X83054670Y-64923242D02*
X82524670Y-65833242D01*
X82524670Y-65863242D02*
X83604670Y-65863242D01*
X82524670Y-64813242D02*
X83604670Y-64813242D01*
G04 #@! TO.C,D61*
X262413818Y-65446771D02*
X262413818Y-68416771D01*
X264413818Y-65436771D02*
X264403818Y-68426771D01*
X262413818Y-68426771D02*
X264403818Y-68426771D01*
X263423818Y-68636771D02*
X263423818Y-67516771D01*
X263423818Y-65176771D02*
X263423818Y-66456771D01*
X262413818Y-65436771D02*
X264413818Y-65436771D01*
X263423818Y-66566771D02*
X263963818Y-67516771D01*
X263413818Y-66576771D02*
X262883818Y-67486771D01*
X262883818Y-67516771D02*
X263963818Y-67516771D01*
X262883818Y-66466771D02*
X263963818Y-66466771D01*
G04 #@! TO.C,D62*
X259263045Y-63793242D02*
X259263045Y-66763242D01*
X261263045Y-63783242D02*
X261253045Y-66773242D01*
X259263045Y-66773242D02*
X261253045Y-66773242D01*
X260273045Y-66983242D02*
X260273045Y-65863242D01*
X260273045Y-63523242D02*
X260273045Y-64803242D01*
X259263045Y-63783242D02*
X261263045Y-63783242D01*
X260273045Y-64913242D02*
X260813045Y-65863242D01*
X260263045Y-64923242D02*
X259733045Y-65833242D01*
X259733045Y-65863242D02*
X260813045Y-65863242D01*
X259733045Y-64813242D02*
X260813045Y-64813242D01*
G04 #@! TO.C,D63*
X256112272Y-68753829D02*
X256112272Y-71723829D01*
X258112272Y-68743829D02*
X258102272Y-71733829D01*
X256112272Y-71733829D02*
X258102272Y-71733829D01*
X257122272Y-71943829D02*
X257122272Y-70823829D01*
X257122272Y-68483829D02*
X257122272Y-69763829D01*
X256112272Y-68743829D02*
X258112272Y-68743829D01*
X257122272Y-69873829D02*
X257662272Y-70823829D01*
X257112272Y-69883829D02*
X256582272Y-70793829D01*
X256582272Y-70823829D02*
X257662272Y-70823829D01*
X256582272Y-69773829D02*
X257662272Y-69773829D01*
G04 #@! TO.C,D64*
X230966943Y-68753829D02*
X230966943Y-71723829D01*
X232966943Y-68743829D02*
X232956943Y-71733829D01*
X230966943Y-71733829D02*
X232956943Y-71733829D01*
X231976943Y-71943829D02*
X231976943Y-70823829D01*
X231976943Y-68483829D02*
X231976943Y-69763829D01*
X230966943Y-68743829D02*
X232966943Y-68743829D01*
X231976943Y-69873829D02*
X232516943Y-70823829D01*
X231966943Y-69883829D02*
X231436943Y-70793829D01*
X231436943Y-70823829D02*
X232516943Y-70823829D01*
X231436943Y-69773829D02*
X232516943Y-69773829D01*
G04 #@! TO.C,D65*
X249872775Y-65446771D02*
X249872775Y-68416771D01*
X251872775Y-65436771D02*
X251862775Y-68426771D01*
X249872775Y-68426771D02*
X251862775Y-68426771D01*
X250882775Y-68636771D02*
X250882775Y-67516771D01*
X250882775Y-65176771D02*
X250882775Y-66456771D01*
X249872775Y-65436771D02*
X251872775Y-65436771D01*
X250882775Y-66566771D02*
X251422775Y-67516771D01*
X250872775Y-66576771D02*
X250342775Y-67486771D01*
X250342775Y-67516771D02*
X251422775Y-67516771D01*
X250342775Y-66466771D02*
X251422775Y-66466771D01*
G04 #@! TO.C,D66*
X246722002Y-63793242D02*
X246722002Y-66763242D01*
X248722002Y-63783242D02*
X248712002Y-66773242D01*
X246722002Y-66773242D02*
X248712002Y-66773242D01*
X247732002Y-66983242D02*
X247732002Y-65863242D01*
X247732002Y-63523242D02*
X247732002Y-64803242D01*
X246722002Y-63783242D02*
X248722002Y-63783242D01*
X247732002Y-64913242D02*
X248272002Y-65863242D01*
X247722002Y-64923242D02*
X247192002Y-65833242D01*
X247192002Y-65863242D02*
X248272002Y-65863242D01*
X247192002Y-64813242D02*
X248272002Y-64813242D01*
G04 #@! TO.C,D67*
X268715366Y-68753829D02*
X268715366Y-71723829D01*
X270715366Y-68743829D02*
X270705366Y-71733829D01*
X268715366Y-71733829D02*
X270705366Y-71733829D01*
X269725366Y-71943829D02*
X269725366Y-70823829D01*
X269725366Y-68483829D02*
X269725366Y-69763829D01*
X268715366Y-68743829D02*
X270715366Y-68743829D01*
X269725366Y-69873829D02*
X270265366Y-70823829D01*
X269715366Y-69883829D02*
X269185366Y-70793829D01*
X269185366Y-70823829D02*
X270265366Y-70823829D01*
X269185366Y-69773829D02*
X270265366Y-69773829D01*
G04 #@! TO.C,D68*
X252961499Y-67100300D02*
X252961499Y-70070300D01*
X254961499Y-67090300D02*
X254951499Y-70080300D01*
X252961499Y-70080300D02*
X254951499Y-70080300D01*
X253971499Y-70290300D02*
X253971499Y-69170300D01*
X253971499Y-66830300D02*
X253971499Y-68110300D01*
X252961499Y-67090300D02*
X254961499Y-67090300D01*
X253971499Y-68220300D02*
X254511499Y-69170300D01*
X253961499Y-68230300D02*
X253431499Y-69140300D01*
X253431499Y-69170300D02*
X254511499Y-69170300D01*
X253431499Y-68120300D02*
X254511499Y-68120300D01*
G04 #@! TO.C,D69*
X291951516Y-69479826D02*
X291951516Y-72449826D01*
X293951516Y-69469826D02*
X293941516Y-72459826D01*
X291951516Y-72459826D02*
X293941516Y-72459826D01*
X292961516Y-72669826D02*
X292961516Y-71549826D01*
X292961516Y-69209826D02*
X292961516Y-70489826D01*
X291951516Y-69469826D02*
X293951516Y-69469826D01*
X292961516Y-70599826D02*
X293501516Y-71549826D01*
X292951516Y-70609826D02*
X292421516Y-71519826D01*
X292421516Y-71549826D02*
X293501516Y-71549826D01*
X292421516Y-70499826D02*
X293501516Y-70499826D01*
G04 #@! TO.C,D70*
X289081844Y-69479826D02*
X289081844Y-72449826D01*
X291081844Y-69469826D02*
X291071844Y-72459826D01*
X289081844Y-72459826D02*
X291071844Y-72459826D01*
X290091844Y-72669826D02*
X290091844Y-71549826D01*
X290091844Y-69209826D02*
X290091844Y-70489826D01*
X289081844Y-69469826D02*
X291081844Y-69469826D01*
X290091844Y-70599826D02*
X290631844Y-71549826D01*
X290081844Y-70609826D02*
X289551844Y-71519826D01*
X289551844Y-71549826D02*
X290631844Y-71549826D01*
X289551844Y-70499826D02*
X290631844Y-70499826D01*
G04 #@! TO.C,BOOT1*
X246262266Y-60583704D02*
X250762266Y-60583704D01*
X245012266Y-56583704D02*
X245012266Y-58083704D01*
X250762266Y-54083704D02*
X246262266Y-54083704D01*
X252012266Y-58083704D02*
X252012266Y-56583704D01*
G04 #@! TO.C,C4*
X336672064Y-55228808D02*
X336672064Y-55243808D01*
X336672064Y-53103808D02*
X336672064Y-53118808D01*
X332132064Y-55228808D02*
X332132064Y-55243808D01*
X332132064Y-53103808D02*
X332132064Y-53118808D01*
X332132064Y-55243808D02*
X336672064Y-55243808D01*
X332132064Y-53103808D02*
X336672064Y-53103808D01*
G04 #@! TO.C,C5*
X332017596Y-75019046D02*
X332017596Y-75034046D01*
X332017596Y-72894046D02*
X332017596Y-72909046D01*
X327477596Y-75019046D02*
X327477596Y-75034046D01*
X327477596Y-72894046D02*
X327477596Y-72909046D01*
X327477596Y-75034046D02*
X332017596Y-75034046D01*
X327477596Y-72894046D02*
X332017596Y-72894046D01*
G04 #@! TO.C,U1*
X305199964Y-63016812D02*
G75*
G02X305199964Y-65016812I0J-1000000D01*
G01*
X305199964Y-65016812D02*
X305199964Y-70476812D01*
X305199964Y-70476812D02*
X356119964Y-70476812D01*
X356119964Y-70476812D02*
X356119964Y-57556812D01*
X356119964Y-57556812D02*
X305199964Y-57556812D01*
X305199964Y-57556812D02*
X305199964Y-63016812D01*
G04 #@! TO.C,R4*
X301262850Y-71813147D02*
X301262850Y-69973147D01*
X301262850Y-69973147D02*
X297422850Y-69973147D01*
X297422850Y-69973147D02*
X297422850Y-71813147D01*
X297422850Y-71813147D02*
X301262850Y-71813147D01*
X302212850Y-70893147D02*
X301262850Y-70893147D01*
X296472850Y-70893147D02*
X297422850Y-70893147D01*
G04 #@! TO.C,R3*
X296472850Y-68399682D02*
X297422850Y-68399682D01*
X302212850Y-68399682D02*
X301262850Y-68399682D01*
X297422850Y-69319682D02*
X301262850Y-69319682D01*
X297422850Y-67479682D02*
X297422850Y-69319682D01*
X301262850Y-67479682D02*
X297422850Y-67479682D01*
X301262850Y-69319682D02*
X301262850Y-67479682D01*
G04 #@! TO.C,R5*
X301262850Y-74306612D02*
X301262850Y-72466612D01*
X301262850Y-72466612D02*
X297422850Y-72466612D01*
X297422850Y-72466612D02*
X297422850Y-74306612D01*
X297422850Y-74306612D02*
X301262850Y-74306612D01*
X302212850Y-73386612D02*
X301262850Y-73386612D01*
X296472850Y-73386612D02*
X297422850Y-73386612D01*
G04 #@! TO.C,R1*
X302212850Y-65827841D02*
X301262850Y-65827841D01*
X296472850Y-65827841D02*
X297422850Y-65827841D01*
X301262850Y-64907841D02*
X297422850Y-64907841D01*
X301262850Y-66747841D02*
X301262850Y-64907841D01*
X297422850Y-66747841D02*
X301262850Y-66747841D01*
X297422850Y-64907841D02*
X297422850Y-66747841D01*
G04 #@! TO.C,R2*
X302212850Y-63308129D02*
X301262850Y-63308129D01*
X296472850Y-63308129D02*
X297422850Y-63308129D01*
X301262850Y-62388129D02*
X297422850Y-62388129D01*
X301262850Y-64228129D02*
X301262850Y-62388129D01*
X297422850Y-64228129D02*
X301262850Y-64228129D01*
X297422850Y-62388129D02*
X297422850Y-64228129D01*
G04 #@! TO.C,C1*
X347762646Y-76632670D02*
X347762646Y-75374670D01*
X349602646Y-76632670D02*
X349602646Y-75374670D01*
G04 #@! TO.C,C2*
X335376772Y-76632670D02*
X335376772Y-75374670D01*
X333536772Y-76632670D02*
X333536772Y-75374670D01*
G04 #@! TO.C,Y1*
X344788178Y-78028870D02*
X338388178Y-78028870D01*
X344788178Y-72978870D02*
X338388178Y-72978870D01*
X344788178Y-72978870D02*
G75*
G02X344788178Y-78028870I0J-2525000D01*
G01*
X338388178Y-72978870D02*
G75*
G03X338388178Y-78028870I0J-2525000D01*
G01*
G04 #@! TO.C,C3*
X293374210Y-64902496D02*
G75*
G03X293374210Y-64902496I-2120000J0D01*
G01*
X292094210Y-64902496D02*
X293334210Y-64902496D01*
X289174210Y-64902496D02*
X290414210Y-64902496D01*
X292094210Y-64862496D02*
X293334210Y-64862496D01*
X289174210Y-64862496D02*
X290414210Y-64862496D01*
X292094210Y-64822496D02*
X293333210Y-64822496D01*
X289175210Y-64822496D02*
X290414210Y-64822496D01*
X289177210Y-64782496D02*
X290414210Y-64782496D01*
X292094210Y-64782496D02*
X293331210Y-64782496D01*
X289180210Y-64742496D02*
X290414210Y-64742496D01*
X292094210Y-64742496D02*
X293328210Y-64742496D01*
X289183210Y-64702496D02*
X290414210Y-64702496D01*
X292094210Y-64702496D02*
X293325210Y-64702496D01*
X289187210Y-64662496D02*
X290414210Y-64662496D01*
X292094210Y-64662496D02*
X293321210Y-64662496D01*
X289192210Y-64622496D02*
X290414210Y-64622496D01*
X292094210Y-64622496D02*
X293316210Y-64622496D01*
X289198210Y-64582496D02*
X290414210Y-64582496D01*
X292094210Y-64582496D02*
X293310210Y-64582496D01*
X289204210Y-64542496D02*
X290414210Y-64542496D01*
X292094210Y-64542496D02*
X293304210Y-64542496D01*
X289212210Y-64502496D02*
X290414210Y-64502496D01*
X292094210Y-64502496D02*
X293296210Y-64502496D01*
X289220210Y-64462496D02*
X290414210Y-64462496D01*
X292094210Y-64462496D02*
X293288210Y-64462496D01*
X289229210Y-64422496D02*
X290414210Y-64422496D01*
X292094210Y-64422496D02*
X293279210Y-64422496D01*
X289238210Y-64382496D02*
X290414210Y-64382496D01*
X292094210Y-64382496D02*
X293270210Y-64382496D01*
X289249210Y-64342496D02*
X290414210Y-64342496D01*
X292094210Y-64342496D02*
X293259210Y-64342496D01*
X289260210Y-64302496D02*
X290414210Y-64302496D01*
X292094210Y-64302496D02*
X293248210Y-64302496D01*
X289272210Y-64262496D02*
X290414210Y-64262496D01*
X292094210Y-64262496D02*
X293236210Y-64262496D01*
X289286210Y-64222496D02*
X290414210Y-64222496D01*
X292094210Y-64222496D02*
X293222210Y-64222496D01*
X289300210Y-64181496D02*
X290414210Y-64181496D01*
X292094210Y-64181496D02*
X293208210Y-64181496D01*
X289314210Y-64141496D02*
X290414210Y-64141496D01*
X292094210Y-64141496D02*
X293194210Y-64141496D01*
X289330210Y-64101496D02*
X290414210Y-64101496D01*
X292094210Y-64101496D02*
X293178210Y-64101496D01*
X289347210Y-64061496D02*
X290414210Y-64061496D01*
X292094210Y-64061496D02*
X293161210Y-64061496D01*
X289365210Y-64021496D02*
X290414210Y-64021496D01*
X292094210Y-64021496D02*
X293143210Y-64021496D01*
X289384210Y-63981496D02*
X290414210Y-63981496D01*
X292094210Y-63981496D02*
X293124210Y-63981496D01*
X289403210Y-63941496D02*
X290414210Y-63941496D01*
X292094210Y-63941496D02*
X293105210Y-63941496D01*
X289424210Y-63901496D02*
X290414210Y-63901496D01*
X292094210Y-63901496D02*
X293084210Y-63901496D01*
X289446210Y-63861496D02*
X290414210Y-63861496D01*
X292094210Y-63861496D02*
X293062210Y-63861496D01*
X289469210Y-63821496D02*
X290414210Y-63821496D01*
X292094210Y-63821496D02*
X293039210Y-63821496D01*
X289494210Y-63781496D02*
X290414210Y-63781496D01*
X292094210Y-63781496D02*
X293014210Y-63781496D01*
X289519210Y-63741496D02*
X290414210Y-63741496D01*
X292094210Y-63741496D02*
X292989210Y-63741496D01*
X289546210Y-63701496D02*
X290414210Y-63701496D01*
X292094210Y-63701496D02*
X292962210Y-63701496D01*
X289574210Y-63661496D02*
X290414210Y-63661496D01*
X292094210Y-63661496D02*
X292934210Y-63661496D01*
X289604210Y-63621496D02*
X290414210Y-63621496D01*
X292094210Y-63621496D02*
X292904210Y-63621496D01*
X289635210Y-63581496D02*
X290414210Y-63581496D01*
X292094210Y-63581496D02*
X292873210Y-63581496D01*
X289667210Y-63541496D02*
X290414210Y-63541496D01*
X292094210Y-63541496D02*
X292841210Y-63541496D01*
X289702210Y-63501496D02*
X290414210Y-63501496D01*
X292094210Y-63501496D02*
X292806210Y-63501496D01*
X289738210Y-63461496D02*
X290414210Y-63461496D01*
X292094210Y-63461496D02*
X292770210Y-63461496D01*
X289776210Y-63421496D02*
X290414210Y-63421496D01*
X292094210Y-63421496D02*
X292732210Y-63421496D01*
X289816210Y-63381496D02*
X290414210Y-63381496D01*
X292094210Y-63381496D02*
X292692210Y-63381496D01*
X289858210Y-63341496D02*
X290414210Y-63341496D01*
X292094210Y-63341496D02*
X292650210Y-63341496D01*
X289903210Y-63301496D02*
X292605210Y-63301496D01*
X289950210Y-63261496D02*
X292558210Y-63261496D01*
X290000210Y-63221496D02*
X292508210Y-63221496D01*
X290054210Y-63181496D02*
X292454210Y-63181496D01*
X290112210Y-63141496D02*
X292396210Y-63141496D01*
X290174210Y-63101496D02*
X292334210Y-63101496D01*
X290241210Y-63061496D02*
X292267210Y-63061496D01*
X290314210Y-63021496D02*
X292194210Y-63021496D01*
X290395210Y-62981496D02*
X292113210Y-62981496D01*
X290486210Y-62941496D02*
X292022210Y-62941496D01*
X290590210Y-62901496D02*
X291918210Y-62901496D01*
X290717210Y-62861496D02*
X291791210Y-62861496D01*
X290884210Y-62821496D02*
X291624210Y-62821496D01*
X290059210Y-67172297D02*
X290059210Y-66772297D01*
X289859210Y-66972297D02*
X290259210Y-66972297D01*
G04 #@! TO.C,RESET1*
X240012266Y-58083704D02*
X240012266Y-56583704D01*
X238762266Y-54083704D02*
X234262266Y-54083704D01*
X233012266Y-56583704D02*
X233012266Y-58083704D01*
X234262266Y-60583704D02*
X238762266Y-60583704D01*
G04 #@! TO.C,LED1*
X290614250Y-58298460D02*
X290614250Y-58454460D01*
X290614250Y-55982460D02*
X290614250Y-56138460D01*
X293215380Y-58298297D02*
G75*
G02X291133289Y-58298460I-1041130J1079837D01*
G01*
X293215380Y-56138623D02*
G75*
G03X291133289Y-56138460I-1041130J-1079837D01*
G01*
X293846585Y-58297068D02*
G75*
G02X290614250Y-58453976I-1672335J1078608D01*
G01*
X293846585Y-56139852D02*
G75*
G03X290614250Y-55982944I-1672335J-1078608D01*
G01*
G04 #@! TO.C,R6*
X302212850Y-60814664D02*
X301262850Y-60814664D01*
X296472850Y-60814664D02*
X297422850Y-60814664D01*
X301262850Y-59894664D02*
X297422850Y-59894664D01*
X301262850Y-61734664D02*
X301262850Y-59894664D01*
X297422850Y-61734664D02*
X301262850Y-61734664D01*
X297422850Y-59894664D02*
X297422850Y-61734664D01*
G04 #@! TO.C,R7*
X301262850Y-59240834D02*
X301262850Y-57400834D01*
X301262850Y-57400834D02*
X297422850Y-57400834D01*
X297422850Y-57400834D02*
X297422850Y-59240834D01*
X297422850Y-59240834D02*
X301262850Y-59240834D01*
X302212850Y-58320834D02*
X301262850Y-58320834D01*
X296472850Y-58320834D02*
X297422850Y-58320834D01*
G04 #@! TO.C,F1*
D12*
X276782719Y-58437991D02*
X276782719Y-58771325D01*
X277306528Y-58771325D02*
X276306528Y-58771325D01*
X276306528Y-58295134D01*
X276306528Y-57914182D02*
X277116052Y-57914182D01*
X277211290Y-57866563D01*
X277258909Y-57818944D01*
X277306528Y-57723706D01*
X277306528Y-57533229D01*
X277258909Y-57437991D01*
X277211290Y-57390372D01*
X277116052Y-57342753D01*
X276306528Y-57342753D01*
X277258909Y-56914182D02*
X277306528Y-56771325D01*
X277306528Y-56533229D01*
X277258909Y-56437991D01*
X277211290Y-56390372D01*
X277116052Y-56342753D01*
X277020814Y-56342753D01*
X276925576Y-56390372D01*
X276877957Y-56437991D01*
X276830338Y-56533229D01*
X276782719Y-56723706D01*
X276735100Y-56818944D01*
X276687481Y-56866563D01*
X276592243Y-56914182D01*
X276497005Y-56914182D01*
X276401767Y-56866563D01*
X276354148Y-56818944D01*
X276306528Y-56723706D01*
X276306528Y-56485610D01*
X276354148Y-56342753D01*
X276782719Y-55914182D02*
X276782719Y-55580848D01*
X277306528Y-55437991D02*
X277306528Y-55914182D01*
X276306528Y-55914182D01*
X276306528Y-55437991D01*
G04 #@! TO.C,USB1*
X282604404Y-53853662D02*
X282604404Y-54663186D01*
X282652023Y-54758424D01*
X282699642Y-54806043D01*
X282794880Y-54853662D01*
X282985357Y-54853662D01*
X283080595Y-54806043D01*
X283128214Y-54758424D01*
X283175833Y-54663186D01*
X283175833Y-53853662D01*
X283604404Y-54806043D02*
X283747261Y-54853662D01*
X283985357Y-54853662D01*
X284080595Y-54806043D01*
X284128214Y-54758424D01*
X284175833Y-54663186D01*
X284175833Y-54567948D01*
X284128214Y-54472710D01*
X284080595Y-54425091D01*
X283985357Y-54377472D01*
X283794880Y-54329853D01*
X283699642Y-54282234D01*
X283652023Y-54234615D01*
X283604404Y-54139377D01*
X283604404Y-54044139D01*
X283652023Y-53948901D01*
X283699642Y-53901282D01*
X283794880Y-53853662D01*
X284032976Y-53853662D01*
X284175833Y-53901282D01*
X284937738Y-54329853D02*
X285080595Y-54377472D01*
X285128214Y-54425091D01*
X285175833Y-54520329D01*
X285175833Y-54663186D01*
X285128214Y-54758424D01*
X285080595Y-54806043D01*
X284985357Y-54853662D01*
X284604404Y-54853662D01*
X284604404Y-53853662D01*
X284937738Y-53853662D01*
X285032976Y-53901282D01*
X285080595Y-53948901D01*
X285128214Y-54044139D01*
X285128214Y-54139377D01*
X285080595Y-54234615D01*
X285032976Y-54282234D01*
X284937738Y-54329853D01*
X284604404Y-54329853D01*
X286128214Y-54853662D02*
X285556785Y-54853662D01*
X285842500Y-54853662D02*
X285842500Y-53853662D01*
X285747261Y-53996520D01*
X285652023Y-54091758D01*
X285556785Y-54139377D01*
G04 #@! TO.C,D1*
X70738722Y-70813718D02*
X69938722Y-70813718D01*
X69938722Y-70623242D01*
X69976818Y-70508956D01*
X70053008Y-70432765D01*
X70129198Y-70394670D01*
X70281579Y-70356575D01*
X70395865Y-70356575D01*
X70548246Y-70394670D01*
X70624437Y-70432765D01*
X70700627Y-70508956D01*
X70738722Y-70623242D01*
X70738722Y-70813718D01*
X70738722Y-69594670D02*
X70738722Y-70051813D01*
X70738722Y-69823242D02*
X69938722Y-69823242D01*
X70053008Y-69899432D01*
X70129198Y-69975622D01*
X70167294Y-70051813D01*
G04 #@! TO.C,D45*
X80247111Y-76155257D02*
X79447111Y-76155257D01*
X79447111Y-75964781D01*
X79485207Y-75850495D01*
X79561397Y-75774305D01*
X79637587Y-75736209D01*
X79789968Y-75698114D01*
X79904254Y-75698114D01*
X80056635Y-75736209D01*
X80132826Y-75774305D01*
X80209016Y-75850495D01*
X80247111Y-75964781D01*
X80247111Y-76155257D01*
X79713778Y-75012400D02*
X80247111Y-75012400D01*
X79409016Y-75202876D02*
X79980445Y-75393352D01*
X79980445Y-74898114D01*
X79447111Y-74212400D02*
X79447111Y-74593352D01*
X79828064Y-74631448D01*
X79789968Y-74593352D01*
X79751873Y-74517162D01*
X79751873Y-74326686D01*
X79789968Y-74250495D01*
X79828064Y-74212400D01*
X79904254Y-74174305D01*
X80094730Y-74174305D01*
X80170921Y-74212400D01*
X80209016Y-74250495D01*
X80247111Y-74326686D01*
X80247111Y-74517162D01*
X80209016Y-74593352D01*
X80170921Y-74631448D01*
G04 #@! TO.C,D2*
X92924963Y-75774305D02*
X92124963Y-75774305D01*
X92124963Y-75583829D01*
X92163059Y-75469543D01*
X92239249Y-75393352D01*
X92315439Y-75355257D01*
X92467820Y-75317162D01*
X92582106Y-75317162D01*
X92734487Y-75355257D01*
X92810678Y-75393352D01*
X92886868Y-75469543D01*
X92924963Y-75583829D01*
X92924963Y-75774305D01*
X92201154Y-75012400D02*
X92163059Y-74974305D01*
X92124963Y-74898114D01*
X92124963Y-74707638D01*
X92163059Y-74631448D01*
X92201154Y-74593352D01*
X92277344Y-74555257D01*
X92353535Y-74555257D01*
X92467820Y-74593352D01*
X92924963Y-75050495D01*
X92924963Y-74555257D01*
G04 #@! TO.C,D3*
X96094426Y-70813718D02*
X95294426Y-70813718D01*
X95294426Y-70623242D01*
X95332522Y-70508956D01*
X95408712Y-70432765D01*
X95484902Y-70394670D01*
X95637283Y-70356575D01*
X95751569Y-70356575D01*
X95903950Y-70394670D01*
X95980141Y-70432765D01*
X96056331Y-70508956D01*
X96094426Y-70623242D01*
X96094426Y-70813718D01*
X95294426Y-70089908D02*
X95294426Y-69594670D01*
X95599188Y-69861337D01*
X95599188Y-69747051D01*
X95637283Y-69670861D01*
X95675379Y-69632765D01*
X95751569Y-69594670D01*
X95942045Y-69594670D01*
X96018236Y-69632765D01*
X96056331Y-69670861D01*
X96094426Y-69747051D01*
X96094426Y-69975622D01*
X96056331Y-70051813D01*
X96018236Y-70089908D01*
G04 #@! TO.C,D4*
X108772278Y-70813718D02*
X107972278Y-70813718D01*
X107972278Y-70623242D01*
X108010374Y-70508956D01*
X108086564Y-70432765D01*
X108162754Y-70394670D01*
X108315135Y-70356575D01*
X108429421Y-70356575D01*
X108581802Y-70394670D01*
X108657993Y-70432765D01*
X108734183Y-70508956D01*
X108772278Y-70623242D01*
X108772278Y-70813718D01*
X108238945Y-69670861D02*
X108772278Y-69670861D01*
X107934183Y-69861337D02*
X108505612Y-70051813D01*
X108505612Y-69556575D01*
G04 #@! TO.C,D5*
X121450130Y-70813718D02*
X120650130Y-70813718D01*
X120650130Y-70623242D01*
X120688226Y-70508956D01*
X120764416Y-70432765D01*
X120840606Y-70394670D01*
X120992987Y-70356575D01*
X121107273Y-70356575D01*
X121259654Y-70394670D01*
X121335845Y-70432765D01*
X121412035Y-70508956D01*
X121450130Y-70623242D01*
X121450130Y-70813718D01*
X120650130Y-69632765D02*
X120650130Y-70013718D01*
X121031083Y-70051813D01*
X120992987Y-70013718D01*
X120954892Y-69937527D01*
X120954892Y-69747051D01*
X120992987Y-69670861D01*
X121031083Y-69632765D01*
X121107273Y-69594670D01*
X121297749Y-69594670D01*
X121373940Y-69632765D01*
X121412035Y-69670861D01*
X121450130Y-69747051D01*
X121450130Y-69937527D01*
X121412035Y-70013718D01*
X121373940Y-70051813D01*
G04 #@! TO.C,D6*
X134127982Y-70813718D02*
X133327982Y-70813718D01*
X133327982Y-70623242D01*
X133366078Y-70508956D01*
X133442268Y-70432765D01*
X133518458Y-70394670D01*
X133670839Y-70356575D01*
X133785125Y-70356575D01*
X133937506Y-70394670D01*
X134013697Y-70432765D01*
X134089887Y-70508956D01*
X134127982Y-70623242D01*
X134127982Y-70813718D01*
X133327982Y-69670861D02*
X133327982Y-69823242D01*
X133366078Y-69899432D01*
X133404173Y-69937527D01*
X133518458Y-70013718D01*
X133670839Y-70051813D01*
X133975601Y-70051813D01*
X134051792Y-70013718D01*
X134089887Y-69975622D01*
X134127982Y-69899432D01*
X134127982Y-69747051D01*
X134089887Y-69670861D01*
X134051792Y-69632765D01*
X133975601Y-69594670D01*
X133785125Y-69594670D01*
X133708935Y-69632765D01*
X133670839Y-69670861D01*
X133632744Y-69747051D01*
X133632744Y-69899432D01*
X133670839Y-69975622D01*
X133708935Y-70013718D01*
X133785125Y-70051813D01*
G04 #@! TO.C,D7*
X146805834Y-70813718D02*
X146005834Y-70813718D01*
X146005834Y-70623242D01*
X146043930Y-70508956D01*
X146120120Y-70432765D01*
X146196310Y-70394670D01*
X146348691Y-70356575D01*
X146462977Y-70356575D01*
X146615358Y-70394670D01*
X146691549Y-70432765D01*
X146767739Y-70508956D01*
X146805834Y-70623242D01*
X146805834Y-70813718D01*
X146005834Y-70089908D02*
X146005834Y-69556575D01*
X146805834Y-69899432D01*
G04 #@! TO.C,D8*
X159483686Y-70813718D02*
X158683686Y-70813718D01*
X158683686Y-70623242D01*
X158721782Y-70508956D01*
X158797972Y-70432765D01*
X158874162Y-70394670D01*
X159026543Y-70356575D01*
X159140829Y-70356575D01*
X159293210Y-70394670D01*
X159369401Y-70432765D01*
X159445591Y-70508956D01*
X159483686Y-70623242D01*
X159483686Y-70813718D01*
X159026543Y-69899432D02*
X158988448Y-69975622D01*
X158950353Y-70013718D01*
X158874162Y-70051813D01*
X158836067Y-70051813D01*
X158759877Y-70013718D01*
X158721782Y-69975622D01*
X158683686Y-69899432D01*
X158683686Y-69747051D01*
X158721782Y-69670861D01*
X158759877Y-69632765D01*
X158836067Y-69594670D01*
X158874162Y-69594670D01*
X158950353Y-69632765D01*
X158988448Y-69670861D01*
X159026543Y-69747051D01*
X159026543Y-69899432D01*
X159064639Y-69975622D01*
X159102734Y-70013718D01*
X159178924Y-70051813D01*
X159331305Y-70051813D01*
X159407496Y-70013718D01*
X159445591Y-69975622D01*
X159483686Y-69899432D01*
X159483686Y-69747051D01*
X159445591Y-69670861D01*
X159407496Y-69632765D01*
X159331305Y-69594670D01*
X159178924Y-69594670D01*
X159102734Y-69632765D01*
X159064639Y-69670861D01*
X159026543Y-69747051D01*
G04 #@! TO.C,D9*
X172161538Y-70813718D02*
X171361538Y-70813718D01*
X171361538Y-70623242D01*
X171399634Y-70508956D01*
X171475824Y-70432765D01*
X171552014Y-70394670D01*
X171704395Y-70356575D01*
X171818681Y-70356575D01*
X171971062Y-70394670D01*
X172047253Y-70432765D01*
X172123443Y-70508956D01*
X172161538Y-70623242D01*
X172161538Y-70813718D01*
X172161538Y-69975622D02*
X172161538Y-69823242D01*
X172123443Y-69747051D01*
X172085348Y-69708956D01*
X171971062Y-69632765D01*
X171818681Y-69594670D01*
X171513919Y-69594670D01*
X171437729Y-69632765D01*
X171399634Y-69670861D01*
X171361538Y-69747051D01*
X171361538Y-69899432D01*
X171399634Y-69975622D01*
X171437729Y-70013718D01*
X171513919Y-70051813D01*
X171704395Y-70051813D01*
X171780586Y-70013718D01*
X171818681Y-69975622D01*
X171856776Y-69899432D01*
X171856776Y-69747051D01*
X171818681Y-69670861D01*
X171780586Y-69632765D01*
X171704395Y-69594670D01*
G04 #@! TO.C,D10*
X184839390Y-71194670D02*
X184039390Y-71194670D01*
X184039390Y-71004194D01*
X184077486Y-70889908D01*
X184153676Y-70813718D01*
X184229866Y-70775622D01*
X184382247Y-70737527D01*
X184496533Y-70737527D01*
X184648914Y-70775622D01*
X184725105Y-70813718D01*
X184801295Y-70889908D01*
X184839390Y-71004194D01*
X184839390Y-71194670D01*
X184839390Y-69975622D02*
X184839390Y-70432765D01*
X184839390Y-70204194D02*
X184039390Y-70204194D01*
X184153676Y-70280384D01*
X184229866Y-70356575D01*
X184267962Y-70432765D01*
X184039390Y-69480384D02*
X184039390Y-69404194D01*
X184077486Y-69328003D01*
X184115581Y-69289908D01*
X184191771Y-69251813D01*
X184344152Y-69213718D01*
X184534628Y-69213718D01*
X184687009Y-69251813D01*
X184763200Y-69289908D01*
X184801295Y-69328003D01*
X184839390Y-69404194D01*
X184839390Y-69480384D01*
X184801295Y-69556575D01*
X184763200Y-69594670D01*
X184687009Y-69632765D01*
X184534628Y-69670861D01*
X184344152Y-69670861D01*
X184191771Y-69632765D01*
X184115581Y-69594670D01*
X184077486Y-69556575D01*
X184039390Y-69480384D01*
G04 #@! TO.C,D11*
X197517242Y-71194670D02*
X196717242Y-71194670D01*
X196717242Y-71004194D01*
X196755338Y-70889908D01*
X196831528Y-70813718D01*
X196907718Y-70775622D01*
X197060099Y-70737527D01*
X197174385Y-70737527D01*
X197326766Y-70775622D01*
X197402957Y-70813718D01*
X197479147Y-70889908D01*
X197517242Y-71004194D01*
X197517242Y-71194670D01*
X197517242Y-69975622D02*
X197517242Y-70432765D01*
X197517242Y-70204194D02*
X196717242Y-70204194D01*
X196831528Y-70280384D01*
X196907718Y-70356575D01*
X196945814Y-70432765D01*
X197517242Y-69213718D02*
X197517242Y-69670861D01*
X197517242Y-69442289D02*
X196717242Y-69442289D01*
X196831528Y-69518480D01*
X196907718Y-69594670D01*
X196945814Y-69670861D01*
G04 #@! TO.C,D12*
X210195094Y-71194670D02*
X209395094Y-71194670D01*
X209395094Y-71004194D01*
X209433190Y-70889908D01*
X209509380Y-70813718D01*
X209585570Y-70775622D01*
X209737951Y-70737527D01*
X209852237Y-70737527D01*
X210004618Y-70775622D01*
X210080809Y-70813718D01*
X210156999Y-70889908D01*
X210195094Y-71004194D01*
X210195094Y-71194670D01*
X210195094Y-69975622D02*
X210195094Y-70432765D01*
X210195094Y-70204194D02*
X209395094Y-70204194D01*
X209509380Y-70280384D01*
X209585570Y-70356575D01*
X209623666Y-70432765D01*
X209471285Y-69670861D02*
X209433190Y-69632765D01*
X209395094Y-69556575D01*
X209395094Y-69366099D01*
X209433190Y-69289908D01*
X209471285Y-69251813D01*
X209547475Y-69213718D01*
X209623666Y-69213718D01*
X209737951Y-69251813D01*
X210195094Y-69708956D01*
X210195094Y-69213718D01*
G04 #@! TO.C,D13*
X222872946Y-71194670D02*
X222072946Y-71194670D01*
X222072946Y-71004194D01*
X222111042Y-70889908D01*
X222187232Y-70813718D01*
X222263422Y-70775622D01*
X222415803Y-70737527D01*
X222530089Y-70737527D01*
X222682470Y-70775622D01*
X222758661Y-70813718D01*
X222834851Y-70889908D01*
X222872946Y-71004194D01*
X222872946Y-71194670D01*
X222872946Y-69975622D02*
X222872946Y-70432765D01*
X222872946Y-70204194D02*
X222072946Y-70204194D01*
X222187232Y-70280384D01*
X222263422Y-70356575D01*
X222301518Y-70432765D01*
X222072946Y-69708956D02*
X222072946Y-69213718D01*
X222377708Y-69480384D01*
X222377708Y-69366099D01*
X222415803Y-69289908D01*
X222453899Y-69251813D01*
X222530089Y-69213718D01*
X222720565Y-69213718D01*
X222796756Y-69251813D01*
X222834851Y-69289908D01*
X222872946Y-69366099D01*
X222872946Y-69594670D01*
X222834851Y-69670861D01*
X222796756Y-69708956D01*
G04 #@! TO.C,D14*
X235480814Y-71194670D02*
X234680814Y-71194670D01*
X234680814Y-71004194D01*
X234718910Y-70889908D01*
X234795100Y-70813718D01*
X234871290Y-70775622D01*
X235023671Y-70737527D01*
X235137957Y-70737527D01*
X235290338Y-70775622D01*
X235366529Y-70813718D01*
X235442719Y-70889908D01*
X235480814Y-71004194D01*
X235480814Y-71194670D01*
X235480814Y-69975622D02*
X235480814Y-70432765D01*
X235480814Y-70204194D02*
X234680814Y-70204194D01*
X234795100Y-70280384D01*
X234871290Y-70356575D01*
X234909386Y-70432765D01*
X234947481Y-69289908D02*
X235480814Y-69289908D01*
X234642719Y-69480384D02*
X235214148Y-69670861D01*
X235214148Y-69175622D01*
G04 #@! TO.C,D15*
X282680367Y-76155257D02*
X281880367Y-76155257D01*
X281880367Y-75964781D01*
X281918463Y-75850495D01*
X281994653Y-75774305D01*
X282070843Y-75736209D01*
X282223224Y-75698114D01*
X282337510Y-75698114D01*
X282489891Y-75736209D01*
X282566082Y-75774305D01*
X282642272Y-75850495D01*
X282680367Y-75964781D01*
X282680367Y-76155257D01*
X282680367Y-74936209D02*
X282680367Y-75393352D01*
X282680367Y-75164781D02*
X281880367Y-75164781D01*
X281994653Y-75240971D01*
X282070843Y-75317162D01*
X282108939Y-75393352D01*
X281880367Y-74212400D02*
X281880367Y-74593352D01*
X282261320Y-74631448D01*
X282223224Y-74593352D01*
X282185129Y-74517162D01*
X282185129Y-74326686D01*
X282223224Y-74250495D01*
X282261320Y-74212400D01*
X282337510Y-74174305D01*
X282527986Y-74174305D01*
X282604177Y-74212400D01*
X282642272Y-74250495D01*
X282680367Y-74326686D01*
X282680367Y-74517162D01*
X282642272Y-74593352D01*
X282604177Y-74631448D01*
G04 #@! TO.C,D16*
X73908185Y-72848199D02*
X73108185Y-72848199D01*
X73108185Y-72657723D01*
X73146281Y-72543437D01*
X73222471Y-72467247D01*
X73298661Y-72429151D01*
X73451042Y-72391056D01*
X73565328Y-72391056D01*
X73717709Y-72429151D01*
X73793900Y-72467247D01*
X73870090Y-72543437D01*
X73908185Y-72657723D01*
X73908185Y-72848199D01*
X73908185Y-71629151D02*
X73908185Y-72086294D01*
X73908185Y-71857723D02*
X73108185Y-71857723D01*
X73222471Y-71933913D01*
X73298661Y-72010104D01*
X73336757Y-72086294D01*
X73108185Y-70943437D02*
X73108185Y-71095818D01*
X73146281Y-71172009D01*
X73184376Y-71210104D01*
X73298661Y-71286294D01*
X73451042Y-71324390D01*
X73755804Y-71324390D01*
X73831995Y-71286294D01*
X73870090Y-71248199D01*
X73908185Y-71172009D01*
X73908185Y-71019628D01*
X73870090Y-70943437D01*
X73831995Y-70905342D01*
X73755804Y-70867247D01*
X73565328Y-70867247D01*
X73489138Y-70905342D01*
X73451042Y-70943437D01*
X73412947Y-71019628D01*
X73412947Y-71172009D01*
X73451042Y-71248199D01*
X73489138Y-71286294D01*
X73565328Y-71324390D01*
G04 #@! TO.C,D17*
X89755500Y-74501728D02*
X88955500Y-74501728D01*
X88955500Y-74311252D01*
X88993596Y-74196966D01*
X89069786Y-74120776D01*
X89145976Y-74082680D01*
X89298357Y-74044585D01*
X89412643Y-74044585D01*
X89565024Y-74082680D01*
X89641215Y-74120776D01*
X89717405Y-74196966D01*
X89755500Y-74311252D01*
X89755500Y-74501728D01*
X89755500Y-73282680D02*
X89755500Y-73739823D01*
X89755500Y-73511252D02*
X88955500Y-73511252D01*
X89069786Y-73587442D01*
X89145976Y-73663633D01*
X89184072Y-73739823D01*
X88955500Y-73016014D02*
X88955500Y-72482680D01*
X89755500Y-72825538D01*
G04 #@! TO.C,D18*
X99263889Y-72848199D02*
X98463889Y-72848199D01*
X98463889Y-72657723D01*
X98501985Y-72543437D01*
X98578175Y-72467247D01*
X98654365Y-72429151D01*
X98806746Y-72391056D01*
X98921032Y-72391056D01*
X99073413Y-72429151D01*
X99149604Y-72467247D01*
X99225794Y-72543437D01*
X99263889Y-72657723D01*
X99263889Y-72848199D01*
X99263889Y-71629151D02*
X99263889Y-72086294D01*
X99263889Y-71857723D02*
X98463889Y-71857723D01*
X98578175Y-71933913D01*
X98654365Y-72010104D01*
X98692461Y-72086294D01*
X98806746Y-71172009D02*
X98768651Y-71248199D01*
X98730556Y-71286294D01*
X98654365Y-71324390D01*
X98616270Y-71324390D01*
X98540080Y-71286294D01*
X98501985Y-71248199D01*
X98463889Y-71172009D01*
X98463889Y-71019628D01*
X98501985Y-70943437D01*
X98540080Y-70905342D01*
X98616270Y-70867247D01*
X98654365Y-70867247D01*
X98730556Y-70905342D01*
X98768651Y-70943437D01*
X98806746Y-71019628D01*
X98806746Y-71172009D01*
X98844842Y-71248199D01*
X98882937Y-71286294D01*
X98959127Y-71324390D01*
X99111508Y-71324390D01*
X99187699Y-71286294D01*
X99225794Y-71248199D01*
X99263889Y-71172009D01*
X99263889Y-71019628D01*
X99225794Y-70943437D01*
X99187699Y-70905342D01*
X99111508Y-70867247D01*
X98959127Y-70867247D01*
X98882937Y-70905342D01*
X98844842Y-70943437D01*
X98806746Y-71019628D01*
G04 #@! TO.C,D19*
X111941741Y-72848199D02*
X111141741Y-72848199D01*
X111141741Y-72657723D01*
X111179837Y-72543437D01*
X111256027Y-72467247D01*
X111332217Y-72429151D01*
X111484598Y-72391056D01*
X111598884Y-72391056D01*
X111751265Y-72429151D01*
X111827456Y-72467247D01*
X111903646Y-72543437D01*
X111941741Y-72657723D01*
X111941741Y-72848199D01*
X111941741Y-71629151D02*
X111941741Y-72086294D01*
X111941741Y-71857723D02*
X111141741Y-71857723D01*
X111256027Y-71933913D01*
X111332217Y-72010104D01*
X111370313Y-72086294D01*
X111941741Y-71248199D02*
X111941741Y-71095818D01*
X111903646Y-71019628D01*
X111865551Y-70981532D01*
X111751265Y-70905342D01*
X111598884Y-70867247D01*
X111294122Y-70867247D01*
X111217932Y-70905342D01*
X111179837Y-70943437D01*
X111141741Y-71019628D01*
X111141741Y-71172009D01*
X111179837Y-71248199D01*
X111217932Y-71286294D01*
X111294122Y-71324390D01*
X111484598Y-71324390D01*
X111560789Y-71286294D01*
X111598884Y-71248199D01*
X111636979Y-71172009D01*
X111636979Y-71019628D01*
X111598884Y-70943437D01*
X111560789Y-70905342D01*
X111484598Y-70867247D01*
G04 #@! TO.C,D20*
X124619593Y-72848199D02*
X123819593Y-72848199D01*
X123819593Y-72657723D01*
X123857689Y-72543437D01*
X123933879Y-72467247D01*
X124010069Y-72429151D01*
X124162450Y-72391056D01*
X124276736Y-72391056D01*
X124429117Y-72429151D01*
X124505308Y-72467247D01*
X124581498Y-72543437D01*
X124619593Y-72657723D01*
X124619593Y-72848199D01*
X123895784Y-72086294D02*
X123857689Y-72048199D01*
X123819593Y-71972009D01*
X123819593Y-71781532D01*
X123857689Y-71705342D01*
X123895784Y-71667247D01*
X123971974Y-71629151D01*
X124048165Y-71629151D01*
X124162450Y-71667247D01*
X124619593Y-72124390D01*
X124619593Y-71629151D01*
X123819593Y-71133913D02*
X123819593Y-71057723D01*
X123857689Y-70981532D01*
X123895784Y-70943437D01*
X123971974Y-70905342D01*
X124124355Y-70867247D01*
X124314831Y-70867247D01*
X124467212Y-70905342D01*
X124543403Y-70943437D01*
X124581498Y-70981532D01*
X124619593Y-71057723D01*
X124619593Y-71133913D01*
X124581498Y-71210104D01*
X124543403Y-71248199D01*
X124467212Y-71286294D01*
X124314831Y-71324390D01*
X124124355Y-71324390D01*
X123971974Y-71286294D01*
X123895784Y-71248199D01*
X123857689Y-71210104D01*
X123819593Y-71133913D01*
G04 #@! TO.C,D21*
X137297445Y-72848199D02*
X136497445Y-72848199D01*
X136497445Y-72657723D01*
X136535541Y-72543437D01*
X136611731Y-72467247D01*
X136687921Y-72429151D01*
X136840302Y-72391056D01*
X136954588Y-72391056D01*
X137106969Y-72429151D01*
X137183160Y-72467247D01*
X137259350Y-72543437D01*
X137297445Y-72657723D01*
X137297445Y-72848199D01*
X136573636Y-72086294D02*
X136535541Y-72048199D01*
X136497445Y-71972009D01*
X136497445Y-71781532D01*
X136535541Y-71705342D01*
X136573636Y-71667247D01*
X136649826Y-71629151D01*
X136726017Y-71629151D01*
X136840302Y-71667247D01*
X137297445Y-72124390D01*
X137297445Y-71629151D01*
X137297445Y-70867247D02*
X137297445Y-71324390D01*
X137297445Y-71095818D02*
X136497445Y-71095818D01*
X136611731Y-71172009D01*
X136687921Y-71248199D01*
X136726017Y-71324390D01*
G04 #@! TO.C,D22*
X149975297Y-72848199D02*
X149175297Y-72848199D01*
X149175297Y-72657723D01*
X149213393Y-72543437D01*
X149289583Y-72467247D01*
X149365773Y-72429151D01*
X149518154Y-72391056D01*
X149632440Y-72391056D01*
X149784821Y-72429151D01*
X149861012Y-72467247D01*
X149937202Y-72543437D01*
X149975297Y-72657723D01*
X149975297Y-72848199D01*
X149251488Y-72086294D02*
X149213393Y-72048199D01*
X149175297Y-71972009D01*
X149175297Y-71781532D01*
X149213393Y-71705342D01*
X149251488Y-71667247D01*
X149327678Y-71629151D01*
X149403869Y-71629151D01*
X149518154Y-71667247D01*
X149975297Y-72124390D01*
X149975297Y-71629151D01*
X149251488Y-71324390D02*
X149213393Y-71286294D01*
X149175297Y-71210104D01*
X149175297Y-71019628D01*
X149213393Y-70943437D01*
X149251488Y-70905342D01*
X149327678Y-70867247D01*
X149403869Y-70867247D01*
X149518154Y-70905342D01*
X149975297Y-71362485D01*
X149975297Y-70867247D01*
G04 #@! TO.C,D23*
X162653149Y-72848199D02*
X161853149Y-72848199D01*
X161853149Y-72657723D01*
X161891245Y-72543437D01*
X161967435Y-72467247D01*
X162043625Y-72429151D01*
X162196006Y-72391056D01*
X162310292Y-72391056D01*
X162462673Y-72429151D01*
X162538864Y-72467247D01*
X162615054Y-72543437D01*
X162653149Y-72657723D01*
X162653149Y-72848199D01*
X161929340Y-72086294D02*
X161891245Y-72048199D01*
X161853149Y-71972009D01*
X161853149Y-71781532D01*
X161891245Y-71705342D01*
X161929340Y-71667247D01*
X162005530Y-71629151D01*
X162081721Y-71629151D01*
X162196006Y-71667247D01*
X162653149Y-72124390D01*
X162653149Y-71629151D01*
X161853149Y-71362485D02*
X161853149Y-70867247D01*
X162157911Y-71133913D01*
X162157911Y-71019628D01*
X162196006Y-70943437D01*
X162234102Y-70905342D01*
X162310292Y-70867247D01*
X162500768Y-70867247D01*
X162576959Y-70905342D01*
X162615054Y-70943437D01*
X162653149Y-71019628D01*
X162653149Y-71248199D01*
X162615054Y-71324390D01*
X162576959Y-71362485D01*
G04 #@! TO.C,D24*
X175331001Y-72848199D02*
X174531001Y-72848199D01*
X174531001Y-72657723D01*
X174569097Y-72543437D01*
X174645287Y-72467247D01*
X174721477Y-72429151D01*
X174873858Y-72391056D01*
X174988144Y-72391056D01*
X175140525Y-72429151D01*
X175216716Y-72467247D01*
X175292906Y-72543437D01*
X175331001Y-72657723D01*
X175331001Y-72848199D01*
X174607192Y-72086294D02*
X174569097Y-72048199D01*
X174531001Y-71972009D01*
X174531001Y-71781532D01*
X174569097Y-71705342D01*
X174607192Y-71667247D01*
X174683382Y-71629151D01*
X174759573Y-71629151D01*
X174873858Y-71667247D01*
X175331001Y-72124390D01*
X175331001Y-71629151D01*
X174797668Y-70943437D02*
X175331001Y-70943437D01*
X174492906Y-71133913D02*
X175064335Y-71324390D01*
X175064335Y-70829151D01*
G04 #@! TO.C,D25*
X188008853Y-72848199D02*
X187208853Y-72848199D01*
X187208853Y-72657723D01*
X187246949Y-72543437D01*
X187323139Y-72467247D01*
X187399329Y-72429151D01*
X187551710Y-72391056D01*
X187665996Y-72391056D01*
X187818377Y-72429151D01*
X187894568Y-72467247D01*
X187970758Y-72543437D01*
X188008853Y-72657723D01*
X188008853Y-72848199D01*
X187285044Y-72086294D02*
X187246949Y-72048199D01*
X187208853Y-71972009D01*
X187208853Y-71781532D01*
X187246949Y-71705342D01*
X187285044Y-71667247D01*
X187361234Y-71629151D01*
X187437425Y-71629151D01*
X187551710Y-71667247D01*
X188008853Y-72124390D01*
X188008853Y-71629151D01*
X187208853Y-70905342D02*
X187208853Y-71286294D01*
X187589806Y-71324390D01*
X187551710Y-71286294D01*
X187513615Y-71210104D01*
X187513615Y-71019628D01*
X187551710Y-70943437D01*
X187589806Y-70905342D01*
X187665996Y-70867247D01*
X187856472Y-70867247D01*
X187932663Y-70905342D01*
X187970758Y-70943437D01*
X188008853Y-71019628D01*
X188008853Y-71210104D01*
X187970758Y-71286294D01*
X187932663Y-71324390D01*
G04 #@! TO.C,D26*
X200686705Y-72848199D02*
X199886705Y-72848199D01*
X199886705Y-72657723D01*
X199924801Y-72543437D01*
X200000991Y-72467247D01*
X200077181Y-72429151D01*
X200229562Y-72391056D01*
X200343848Y-72391056D01*
X200496229Y-72429151D01*
X200572420Y-72467247D01*
X200648610Y-72543437D01*
X200686705Y-72657723D01*
X200686705Y-72848199D01*
X199962896Y-72086294D02*
X199924801Y-72048199D01*
X199886705Y-71972009D01*
X199886705Y-71781532D01*
X199924801Y-71705342D01*
X199962896Y-71667247D01*
X200039086Y-71629151D01*
X200115277Y-71629151D01*
X200229562Y-71667247D01*
X200686705Y-72124390D01*
X200686705Y-71629151D01*
X199886705Y-70943437D02*
X199886705Y-71095818D01*
X199924801Y-71172009D01*
X199962896Y-71210104D01*
X200077181Y-71286294D01*
X200229562Y-71324390D01*
X200534324Y-71324390D01*
X200610515Y-71286294D01*
X200648610Y-71248199D01*
X200686705Y-71172009D01*
X200686705Y-71019628D01*
X200648610Y-70943437D01*
X200610515Y-70905342D01*
X200534324Y-70867247D01*
X200343848Y-70867247D01*
X200267658Y-70905342D01*
X200229562Y-70943437D01*
X200191467Y-71019628D01*
X200191467Y-71172009D01*
X200229562Y-71248199D01*
X200267658Y-71286294D01*
X200343848Y-71324390D01*
G04 #@! TO.C,D27*
X213364557Y-72848199D02*
X212564557Y-72848199D01*
X212564557Y-72657723D01*
X212602653Y-72543437D01*
X212678843Y-72467247D01*
X212755033Y-72429151D01*
X212907414Y-72391056D01*
X213021700Y-72391056D01*
X213174081Y-72429151D01*
X213250272Y-72467247D01*
X213326462Y-72543437D01*
X213364557Y-72657723D01*
X213364557Y-72848199D01*
X212640748Y-72086294D02*
X212602653Y-72048199D01*
X212564557Y-71972009D01*
X212564557Y-71781532D01*
X212602653Y-71705342D01*
X212640748Y-71667247D01*
X212716938Y-71629151D01*
X212793129Y-71629151D01*
X212907414Y-71667247D01*
X213364557Y-72124390D01*
X213364557Y-71629151D01*
X212564557Y-71362485D02*
X212564557Y-70829151D01*
X213364557Y-71172009D01*
G04 #@! TO.C,D28*
X226024913Y-72848199D02*
X225224913Y-72848199D01*
X225224913Y-72657723D01*
X225263009Y-72543437D01*
X225339199Y-72467247D01*
X225415389Y-72429151D01*
X225567770Y-72391056D01*
X225682056Y-72391056D01*
X225834437Y-72429151D01*
X225910628Y-72467247D01*
X225986818Y-72543437D01*
X226024913Y-72657723D01*
X226024913Y-72848199D01*
X225301104Y-72086294D02*
X225263009Y-72048199D01*
X225224913Y-71972009D01*
X225224913Y-71781532D01*
X225263009Y-71705342D01*
X225301104Y-71667247D01*
X225377294Y-71629151D01*
X225453485Y-71629151D01*
X225567770Y-71667247D01*
X226024913Y-72124390D01*
X226024913Y-71629151D01*
X225567770Y-71172009D02*
X225529675Y-71248199D01*
X225491580Y-71286294D01*
X225415389Y-71324390D01*
X225377294Y-71324390D01*
X225301104Y-71286294D01*
X225263009Y-71248199D01*
X225224913Y-71172009D01*
X225224913Y-71019628D01*
X225263009Y-70943437D01*
X225301104Y-70905342D01*
X225377294Y-70867247D01*
X225415389Y-70867247D01*
X225491580Y-70905342D01*
X225529675Y-70943437D01*
X225567770Y-71019628D01*
X225567770Y-71172009D01*
X225605866Y-71248199D01*
X225643961Y-71286294D01*
X225720151Y-71324390D01*
X225872532Y-71324390D01*
X225948723Y-71286294D01*
X225986818Y-71248199D01*
X226024913Y-71172009D01*
X226024913Y-71019628D01*
X225986818Y-70943437D01*
X225948723Y-70905342D01*
X225872532Y-70867247D01*
X225720151Y-70867247D01*
X225643961Y-70905342D01*
X225605866Y-70943437D01*
X225567770Y-71019628D01*
G04 #@! TO.C,D29*
X238631587Y-72848199D02*
X237831587Y-72848199D01*
X237831587Y-72657723D01*
X237869683Y-72543437D01*
X237945873Y-72467247D01*
X238022063Y-72429151D01*
X238174444Y-72391056D01*
X238288730Y-72391056D01*
X238441111Y-72429151D01*
X238517302Y-72467247D01*
X238593492Y-72543437D01*
X238631587Y-72657723D01*
X238631587Y-72848199D01*
X237907778Y-72086294D02*
X237869683Y-72048199D01*
X237831587Y-71972009D01*
X237831587Y-71781532D01*
X237869683Y-71705342D01*
X237907778Y-71667247D01*
X237983968Y-71629151D01*
X238060159Y-71629151D01*
X238174444Y-71667247D01*
X238631587Y-72124390D01*
X238631587Y-71629151D01*
X238631587Y-71248199D02*
X238631587Y-71095818D01*
X238593492Y-71019628D01*
X238555397Y-70981532D01*
X238441111Y-70905342D01*
X238288730Y-70867247D01*
X237983968Y-70867247D01*
X237907778Y-70905342D01*
X237869683Y-70943437D01*
X237831587Y-71019628D01*
X237831587Y-71172009D01*
X237869683Y-71248199D01*
X237907778Y-71286294D01*
X237983968Y-71324390D01*
X238174444Y-71324390D01*
X238250635Y-71286294D01*
X238288730Y-71248199D01*
X238326825Y-71172009D01*
X238326825Y-71019628D01*
X238288730Y-70943437D01*
X238250635Y-70905342D01*
X238174444Y-70867247D01*
G04 #@! TO.C,D30*
X279591643Y-74501728D02*
X278791643Y-74501728D01*
X278791643Y-74311252D01*
X278829739Y-74196966D01*
X278905929Y-74120776D01*
X278982119Y-74082680D01*
X279134500Y-74044585D01*
X279248786Y-74044585D01*
X279401167Y-74082680D01*
X279477358Y-74120776D01*
X279553548Y-74196966D01*
X279591643Y-74311252D01*
X279591643Y-74501728D01*
X278791643Y-73777919D02*
X278791643Y-73282680D01*
X279096405Y-73549347D01*
X279096405Y-73435061D01*
X279134500Y-73358871D01*
X279172596Y-73320776D01*
X279248786Y-73282680D01*
X279439262Y-73282680D01*
X279515453Y-73320776D01*
X279553548Y-73358871D01*
X279591643Y-73435061D01*
X279591643Y-73663633D01*
X279553548Y-73739823D01*
X279515453Y-73777919D01*
X278791643Y-72787442D02*
X278791643Y-72711252D01*
X278829739Y-72635061D01*
X278867834Y-72596966D01*
X278944024Y-72558871D01*
X279096405Y-72520776D01*
X279286881Y-72520776D01*
X279439262Y-72558871D01*
X279515453Y-72596966D01*
X279553548Y-72635061D01*
X279591643Y-72711252D01*
X279591643Y-72787442D01*
X279553548Y-72863633D01*
X279515453Y-72901728D01*
X279439262Y-72939823D01*
X279286881Y-72977919D01*
X279096405Y-72977919D01*
X278944024Y-72939823D01*
X278867834Y-72901728D01*
X278829739Y-72863633D01*
X278791643Y-72787442D01*
G04 #@! TO.C,D31*
X77077648Y-74501728D02*
X76277648Y-74501728D01*
X76277648Y-74311252D01*
X76315744Y-74196966D01*
X76391934Y-74120776D01*
X76468124Y-74082680D01*
X76620505Y-74044585D01*
X76734791Y-74044585D01*
X76887172Y-74082680D01*
X76963363Y-74120776D01*
X77039553Y-74196966D01*
X77077648Y-74311252D01*
X77077648Y-74501728D01*
X76277648Y-73777919D02*
X76277648Y-73282680D01*
X76582410Y-73549347D01*
X76582410Y-73435061D01*
X76620505Y-73358871D01*
X76658601Y-73320776D01*
X76734791Y-73282680D01*
X76925267Y-73282680D01*
X77001458Y-73320776D01*
X77039553Y-73358871D01*
X77077648Y-73435061D01*
X77077648Y-73663633D01*
X77039553Y-73739823D01*
X77001458Y-73777919D01*
X77077648Y-72520776D02*
X77077648Y-72977919D01*
X77077648Y-72749347D02*
X76277648Y-72749347D01*
X76391934Y-72825538D01*
X76468124Y-72901728D01*
X76506220Y-72977919D01*
G04 #@! TO.C,D32*
X86586037Y-72848199D02*
X85786037Y-72848199D01*
X85786037Y-72657723D01*
X85824133Y-72543437D01*
X85900323Y-72467247D01*
X85976513Y-72429151D01*
X86128894Y-72391056D01*
X86243180Y-72391056D01*
X86395561Y-72429151D01*
X86471752Y-72467247D01*
X86547942Y-72543437D01*
X86586037Y-72657723D01*
X86586037Y-72848199D01*
X85786037Y-72124390D02*
X85786037Y-71629151D01*
X86090799Y-71895818D01*
X86090799Y-71781532D01*
X86128894Y-71705342D01*
X86166990Y-71667247D01*
X86243180Y-71629151D01*
X86433656Y-71629151D01*
X86509847Y-71667247D01*
X86547942Y-71705342D01*
X86586037Y-71781532D01*
X86586037Y-72010104D01*
X86547942Y-72086294D01*
X86509847Y-72124390D01*
X85862228Y-71324390D02*
X85824133Y-71286294D01*
X85786037Y-71210104D01*
X85786037Y-71019628D01*
X85824133Y-70943437D01*
X85862228Y-70905342D01*
X85938418Y-70867247D01*
X86014609Y-70867247D01*
X86128894Y-70905342D01*
X86586037Y-71362485D01*
X86586037Y-70867247D01*
G04 #@! TO.C,D33*
X102433352Y-74501728D02*
X101633352Y-74501728D01*
X101633352Y-74311252D01*
X101671448Y-74196966D01*
X101747638Y-74120776D01*
X101823828Y-74082680D01*
X101976209Y-74044585D01*
X102090495Y-74044585D01*
X102242876Y-74082680D01*
X102319067Y-74120776D01*
X102395257Y-74196966D01*
X102433352Y-74311252D01*
X102433352Y-74501728D01*
X101633352Y-73777919D02*
X101633352Y-73282680D01*
X101938114Y-73549347D01*
X101938114Y-73435061D01*
X101976209Y-73358871D01*
X102014305Y-73320776D01*
X102090495Y-73282680D01*
X102280971Y-73282680D01*
X102357162Y-73320776D01*
X102395257Y-73358871D01*
X102433352Y-73435061D01*
X102433352Y-73663633D01*
X102395257Y-73739823D01*
X102357162Y-73777919D01*
X101633352Y-73016014D02*
X101633352Y-72520776D01*
X101938114Y-72787442D01*
X101938114Y-72673157D01*
X101976209Y-72596966D01*
X102014305Y-72558871D01*
X102090495Y-72520776D01*
X102280971Y-72520776D01*
X102357162Y-72558871D01*
X102395257Y-72596966D01*
X102433352Y-72673157D01*
X102433352Y-72901728D01*
X102395257Y-72977919D01*
X102357162Y-73016014D01*
G04 #@! TO.C,D34*
X115111204Y-74501728D02*
X114311204Y-74501728D01*
X114311204Y-74311252D01*
X114349300Y-74196966D01*
X114425490Y-74120776D01*
X114501680Y-74082680D01*
X114654061Y-74044585D01*
X114768347Y-74044585D01*
X114920728Y-74082680D01*
X114996919Y-74120776D01*
X115073109Y-74196966D01*
X115111204Y-74311252D01*
X115111204Y-74501728D01*
X114311204Y-73777919D02*
X114311204Y-73282680D01*
X114615966Y-73549347D01*
X114615966Y-73435061D01*
X114654061Y-73358871D01*
X114692157Y-73320776D01*
X114768347Y-73282680D01*
X114958823Y-73282680D01*
X115035014Y-73320776D01*
X115073109Y-73358871D01*
X115111204Y-73435061D01*
X115111204Y-73663633D01*
X115073109Y-73739823D01*
X115035014Y-73777919D01*
X114577871Y-72596966D02*
X115111204Y-72596966D01*
X114273109Y-72787442D02*
X114844538Y-72977919D01*
X114844538Y-72482680D01*
G04 #@! TO.C,D35*
X127789056Y-74501728D02*
X126989056Y-74501728D01*
X126989056Y-74311252D01*
X127027152Y-74196966D01*
X127103342Y-74120776D01*
X127179532Y-74082680D01*
X127331913Y-74044585D01*
X127446199Y-74044585D01*
X127598580Y-74082680D01*
X127674771Y-74120776D01*
X127750961Y-74196966D01*
X127789056Y-74311252D01*
X127789056Y-74501728D01*
X126989056Y-73777919D02*
X126989056Y-73282680D01*
X127293818Y-73549347D01*
X127293818Y-73435061D01*
X127331913Y-73358871D01*
X127370009Y-73320776D01*
X127446199Y-73282680D01*
X127636675Y-73282680D01*
X127712866Y-73320776D01*
X127750961Y-73358871D01*
X127789056Y-73435061D01*
X127789056Y-73663633D01*
X127750961Y-73739823D01*
X127712866Y-73777919D01*
X126989056Y-72558871D02*
X126989056Y-72939823D01*
X127370009Y-72977919D01*
X127331913Y-72939823D01*
X127293818Y-72863633D01*
X127293818Y-72673157D01*
X127331913Y-72596966D01*
X127370009Y-72558871D01*
X127446199Y-72520776D01*
X127636675Y-72520776D01*
X127712866Y-72558871D01*
X127750961Y-72596966D01*
X127789056Y-72673157D01*
X127789056Y-72863633D01*
X127750961Y-72939823D01*
X127712866Y-72977919D01*
G04 #@! TO.C,D36*
X140466908Y-74501728D02*
X139666908Y-74501728D01*
X139666908Y-74311252D01*
X139705004Y-74196966D01*
X139781194Y-74120776D01*
X139857384Y-74082680D01*
X140009765Y-74044585D01*
X140124051Y-74044585D01*
X140276432Y-74082680D01*
X140352623Y-74120776D01*
X140428813Y-74196966D01*
X140466908Y-74311252D01*
X140466908Y-74501728D01*
X139666908Y-73777919D02*
X139666908Y-73282680D01*
X139971670Y-73549347D01*
X139971670Y-73435061D01*
X140009765Y-73358871D01*
X140047861Y-73320776D01*
X140124051Y-73282680D01*
X140314527Y-73282680D01*
X140390718Y-73320776D01*
X140428813Y-73358871D01*
X140466908Y-73435061D01*
X140466908Y-73663633D01*
X140428813Y-73739823D01*
X140390718Y-73777919D01*
X139666908Y-72596966D02*
X139666908Y-72749347D01*
X139705004Y-72825538D01*
X139743099Y-72863633D01*
X139857384Y-72939823D01*
X140009765Y-72977919D01*
X140314527Y-72977919D01*
X140390718Y-72939823D01*
X140428813Y-72901728D01*
X140466908Y-72825538D01*
X140466908Y-72673157D01*
X140428813Y-72596966D01*
X140390718Y-72558871D01*
X140314527Y-72520776D01*
X140124051Y-72520776D01*
X140047861Y-72558871D01*
X140009765Y-72596966D01*
X139971670Y-72673157D01*
X139971670Y-72825538D01*
X140009765Y-72901728D01*
X140047861Y-72939823D01*
X140124051Y-72977919D01*
G04 #@! TO.C,D37*
X153144760Y-74501728D02*
X152344760Y-74501728D01*
X152344760Y-74311252D01*
X152382856Y-74196966D01*
X152459046Y-74120776D01*
X152535236Y-74082680D01*
X152687617Y-74044585D01*
X152801903Y-74044585D01*
X152954284Y-74082680D01*
X153030475Y-74120776D01*
X153106665Y-74196966D01*
X153144760Y-74311252D01*
X153144760Y-74501728D01*
X152344760Y-73777919D02*
X152344760Y-73282680D01*
X152649522Y-73549347D01*
X152649522Y-73435061D01*
X152687617Y-73358871D01*
X152725713Y-73320776D01*
X152801903Y-73282680D01*
X152992379Y-73282680D01*
X153068570Y-73320776D01*
X153106665Y-73358871D01*
X153144760Y-73435061D01*
X153144760Y-73663633D01*
X153106665Y-73739823D01*
X153068570Y-73777919D01*
X152344760Y-73016014D02*
X152344760Y-72482680D01*
X153144760Y-72825538D01*
G04 #@! TO.C,D38*
X165822612Y-74501728D02*
X165022612Y-74501728D01*
X165022612Y-74311252D01*
X165060708Y-74196966D01*
X165136898Y-74120776D01*
X165213088Y-74082680D01*
X165365469Y-74044585D01*
X165479755Y-74044585D01*
X165632136Y-74082680D01*
X165708327Y-74120776D01*
X165784517Y-74196966D01*
X165822612Y-74311252D01*
X165822612Y-74501728D01*
X165022612Y-73777919D02*
X165022612Y-73282680D01*
X165327374Y-73549347D01*
X165327374Y-73435061D01*
X165365469Y-73358871D01*
X165403565Y-73320776D01*
X165479755Y-73282680D01*
X165670231Y-73282680D01*
X165746422Y-73320776D01*
X165784517Y-73358871D01*
X165822612Y-73435061D01*
X165822612Y-73663633D01*
X165784517Y-73739823D01*
X165746422Y-73777919D01*
X165365469Y-72825538D02*
X165327374Y-72901728D01*
X165289279Y-72939823D01*
X165213088Y-72977919D01*
X165174993Y-72977919D01*
X165098803Y-72939823D01*
X165060708Y-72901728D01*
X165022612Y-72825538D01*
X165022612Y-72673157D01*
X165060708Y-72596966D01*
X165098803Y-72558871D01*
X165174993Y-72520776D01*
X165213088Y-72520776D01*
X165289279Y-72558871D01*
X165327374Y-72596966D01*
X165365469Y-72673157D01*
X165365469Y-72825538D01*
X165403565Y-72901728D01*
X165441660Y-72939823D01*
X165517850Y-72977919D01*
X165670231Y-72977919D01*
X165746422Y-72939823D01*
X165784517Y-72901728D01*
X165822612Y-72825538D01*
X165822612Y-72673157D01*
X165784517Y-72596966D01*
X165746422Y-72558871D01*
X165670231Y-72520776D01*
X165517850Y-72520776D01*
X165441660Y-72558871D01*
X165403565Y-72596966D01*
X165365469Y-72673157D01*
G04 #@! TO.C,D39*
X178500464Y-74501728D02*
X177700464Y-74501728D01*
X177700464Y-74311252D01*
X177738560Y-74196966D01*
X177814750Y-74120776D01*
X177890940Y-74082680D01*
X178043321Y-74044585D01*
X178157607Y-74044585D01*
X178309988Y-74082680D01*
X178386179Y-74120776D01*
X178462369Y-74196966D01*
X178500464Y-74311252D01*
X178500464Y-74501728D01*
X177700464Y-73777919D02*
X177700464Y-73282680D01*
X178005226Y-73549347D01*
X178005226Y-73435061D01*
X178043321Y-73358871D01*
X178081417Y-73320776D01*
X178157607Y-73282680D01*
X178348083Y-73282680D01*
X178424274Y-73320776D01*
X178462369Y-73358871D01*
X178500464Y-73435061D01*
X178500464Y-73663633D01*
X178462369Y-73739823D01*
X178424274Y-73777919D01*
X178500464Y-72901728D02*
X178500464Y-72749347D01*
X178462369Y-72673157D01*
X178424274Y-72635061D01*
X178309988Y-72558871D01*
X178157607Y-72520776D01*
X177852845Y-72520776D01*
X177776655Y-72558871D01*
X177738560Y-72596966D01*
X177700464Y-72673157D01*
X177700464Y-72825538D01*
X177738560Y-72901728D01*
X177776655Y-72939823D01*
X177852845Y-72977919D01*
X178043321Y-72977919D01*
X178119512Y-72939823D01*
X178157607Y-72901728D01*
X178195702Y-72825538D01*
X178195702Y-72673157D01*
X178157607Y-72596966D01*
X178119512Y-72558871D01*
X178043321Y-72520776D01*
G04 #@! TO.C,D40*
X191178316Y-74501728D02*
X190378316Y-74501728D01*
X190378316Y-74311252D01*
X190416412Y-74196966D01*
X190492602Y-74120776D01*
X190568792Y-74082680D01*
X190721173Y-74044585D01*
X190835459Y-74044585D01*
X190987840Y-74082680D01*
X191064031Y-74120776D01*
X191140221Y-74196966D01*
X191178316Y-74311252D01*
X191178316Y-74501728D01*
X190644983Y-73358871D02*
X191178316Y-73358871D01*
X190340221Y-73549347D02*
X190911650Y-73739823D01*
X190911650Y-73244585D01*
X190378316Y-72787442D02*
X190378316Y-72711252D01*
X190416412Y-72635061D01*
X190454507Y-72596966D01*
X190530697Y-72558871D01*
X190683078Y-72520776D01*
X190873554Y-72520776D01*
X191025935Y-72558871D01*
X191102126Y-72596966D01*
X191140221Y-72635061D01*
X191178316Y-72711252D01*
X191178316Y-72787442D01*
X191140221Y-72863633D01*
X191102126Y-72901728D01*
X191025935Y-72939823D01*
X190873554Y-72977919D01*
X190683078Y-72977919D01*
X190530697Y-72939823D01*
X190454507Y-72901728D01*
X190416412Y-72863633D01*
X190378316Y-72787442D01*
G04 #@! TO.C,D41*
X203856168Y-74501728D02*
X203056168Y-74501728D01*
X203056168Y-74311252D01*
X203094264Y-74196966D01*
X203170454Y-74120776D01*
X203246644Y-74082680D01*
X203399025Y-74044585D01*
X203513311Y-74044585D01*
X203665692Y-74082680D01*
X203741883Y-74120776D01*
X203818073Y-74196966D01*
X203856168Y-74311252D01*
X203856168Y-74501728D01*
X203322835Y-73358871D02*
X203856168Y-73358871D01*
X203018073Y-73549347D02*
X203589502Y-73739823D01*
X203589502Y-73244585D01*
X203856168Y-72520776D02*
X203856168Y-72977919D01*
X203856168Y-72749347D02*
X203056168Y-72749347D01*
X203170454Y-72825538D01*
X203246644Y-72901728D01*
X203284740Y-72977919D01*
G04 #@! TO.C,D42*
X216534020Y-74501728D02*
X215734020Y-74501728D01*
X215734020Y-74311252D01*
X215772116Y-74196966D01*
X215848306Y-74120776D01*
X215924496Y-74082680D01*
X216076877Y-74044585D01*
X216191163Y-74044585D01*
X216343544Y-74082680D01*
X216419735Y-74120776D01*
X216495925Y-74196966D01*
X216534020Y-74311252D01*
X216534020Y-74501728D01*
X216000687Y-73358871D02*
X216534020Y-73358871D01*
X215695925Y-73549347D02*
X216267354Y-73739823D01*
X216267354Y-73244585D01*
X215810211Y-72977919D02*
X215772116Y-72939823D01*
X215734020Y-72863633D01*
X215734020Y-72673157D01*
X215772116Y-72596966D01*
X215810211Y-72558871D01*
X215886401Y-72520776D01*
X215962592Y-72520776D01*
X216076877Y-72558871D01*
X216534020Y-73016014D01*
X216534020Y-72520776D01*
G04 #@! TO.C,D43*
X241782360Y-74501728D02*
X240982360Y-74501728D01*
X240982360Y-74311252D01*
X241020456Y-74196966D01*
X241096646Y-74120776D01*
X241172836Y-74082680D01*
X241325217Y-74044585D01*
X241439503Y-74044585D01*
X241591884Y-74082680D01*
X241668075Y-74120776D01*
X241744265Y-74196966D01*
X241782360Y-74311252D01*
X241782360Y-74501728D01*
X241249027Y-73358871D02*
X241782360Y-73358871D01*
X240944265Y-73549347D02*
X241515694Y-73739823D01*
X241515694Y-73244585D01*
X240982360Y-73016014D02*
X240982360Y-72520776D01*
X241287122Y-72787442D01*
X241287122Y-72673157D01*
X241325217Y-72596966D01*
X241363313Y-72558871D01*
X241439503Y-72520776D01*
X241629979Y-72520776D01*
X241706170Y-72558871D01*
X241744265Y-72596966D01*
X241782360Y-72673157D01*
X241782360Y-72901728D01*
X241744265Y-72977919D01*
X241706170Y-73016014D01*
G04 #@! TO.C,D44*
X276502919Y-72848199D02*
X275702919Y-72848199D01*
X275702919Y-72657723D01*
X275741015Y-72543437D01*
X275817205Y-72467247D01*
X275893395Y-72429151D01*
X276045776Y-72391056D01*
X276160062Y-72391056D01*
X276312443Y-72429151D01*
X276388634Y-72467247D01*
X276464824Y-72543437D01*
X276502919Y-72657723D01*
X276502919Y-72848199D01*
X275969586Y-71705342D02*
X276502919Y-71705342D01*
X275664824Y-71895818D02*
X276236253Y-72086294D01*
X276236253Y-71591056D01*
X275969586Y-70943437D02*
X276502919Y-70943437D01*
X275664824Y-71133913D02*
X276236253Y-71324390D01*
X276236253Y-70829151D01*
G04 #@! TO.C,D46*
X105602815Y-76155257D02*
X104802815Y-76155257D01*
X104802815Y-75964781D01*
X104840911Y-75850495D01*
X104917101Y-75774305D01*
X104993291Y-75736209D01*
X105145672Y-75698114D01*
X105259958Y-75698114D01*
X105412339Y-75736209D01*
X105488530Y-75774305D01*
X105564720Y-75850495D01*
X105602815Y-75964781D01*
X105602815Y-76155257D01*
X105069482Y-75012400D02*
X105602815Y-75012400D01*
X104764720Y-75202876D02*
X105336149Y-75393352D01*
X105336149Y-74898114D01*
X104802815Y-74250495D02*
X104802815Y-74402876D01*
X104840911Y-74479067D01*
X104879006Y-74517162D01*
X104993291Y-74593352D01*
X105145672Y-74631448D01*
X105450434Y-74631448D01*
X105526625Y-74593352D01*
X105564720Y-74555257D01*
X105602815Y-74479067D01*
X105602815Y-74326686D01*
X105564720Y-74250495D01*
X105526625Y-74212400D01*
X105450434Y-74174305D01*
X105259958Y-74174305D01*
X105183768Y-74212400D01*
X105145672Y-74250495D01*
X105107577Y-74326686D01*
X105107577Y-74479067D01*
X105145672Y-74555257D01*
X105183768Y-74593352D01*
X105259958Y-74631448D01*
G04 #@! TO.C,D47*
X118280667Y-76155257D02*
X117480667Y-76155257D01*
X117480667Y-75964781D01*
X117518763Y-75850495D01*
X117594953Y-75774305D01*
X117671143Y-75736209D01*
X117823524Y-75698114D01*
X117937810Y-75698114D01*
X118090191Y-75736209D01*
X118166382Y-75774305D01*
X118242572Y-75850495D01*
X118280667Y-75964781D01*
X118280667Y-76155257D01*
X117747334Y-75012400D02*
X118280667Y-75012400D01*
X117442572Y-75202876D02*
X118014001Y-75393352D01*
X118014001Y-74898114D01*
X117480667Y-74669543D02*
X117480667Y-74136209D01*
X118280667Y-74479067D01*
G04 #@! TO.C,D48*
X130958519Y-76155257D02*
X130158519Y-76155257D01*
X130158519Y-75964781D01*
X130196615Y-75850495D01*
X130272805Y-75774305D01*
X130348995Y-75736209D01*
X130501376Y-75698114D01*
X130615662Y-75698114D01*
X130768043Y-75736209D01*
X130844234Y-75774305D01*
X130920424Y-75850495D01*
X130958519Y-75964781D01*
X130958519Y-76155257D01*
X130425186Y-75012400D02*
X130958519Y-75012400D01*
X130120424Y-75202876D02*
X130691853Y-75393352D01*
X130691853Y-74898114D01*
X130501376Y-74479067D02*
X130463281Y-74555257D01*
X130425186Y-74593352D01*
X130348995Y-74631448D01*
X130310900Y-74631448D01*
X130234710Y-74593352D01*
X130196615Y-74555257D01*
X130158519Y-74479067D01*
X130158519Y-74326686D01*
X130196615Y-74250495D01*
X130234710Y-74212400D01*
X130310900Y-74174305D01*
X130348995Y-74174305D01*
X130425186Y-74212400D01*
X130463281Y-74250495D01*
X130501376Y-74326686D01*
X130501376Y-74479067D01*
X130539472Y-74555257D01*
X130577567Y-74593352D01*
X130653757Y-74631448D01*
X130806138Y-74631448D01*
X130882329Y-74593352D01*
X130920424Y-74555257D01*
X130958519Y-74479067D01*
X130958519Y-74326686D01*
X130920424Y-74250495D01*
X130882329Y-74212400D01*
X130806138Y-74174305D01*
X130653757Y-74174305D01*
X130577567Y-74212400D01*
X130539472Y-74250495D01*
X130501376Y-74326686D01*
G04 #@! TO.C,D49*
X143636371Y-76155257D02*
X142836371Y-76155257D01*
X142836371Y-75964781D01*
X142874467Y-75850495D01*
X142950657Y-75774305D01*
X143026847Y-75736209D01*
X143179228Y-75698114D01*
X143293514Y-75698114D01*
X143445895Y-75736209D01*
X143522086Y-75774305D01*
X143598276Y-75850495D01*
X143636371Y-75964781D01*
X143636371Y-76155257D01*
X143103038Y-75012400D02*
X143636371Y-75012400D01*
X142798276Y-75202876D02*
X143369705Y-75393352D01*
X143369705Y-74898114D01*
X143636371Y-74555257D02*
X143636371Y-74402876D01*
X143598276Y-74326686D01*
X143560181Y-74288590D01*
X143445895Y-74212400D01*
X143293514Y-74174305D01*
X142988752Y-74174305D01*
X142912562Y-74212400D01*
X142874467Y-74250495D01*
X142836371Y-74326686D01*
X142836371Y-74479067D01*
X142874467Y-74555257D01*
X142912562Y-74593352D01*
X142988752Y-74631448D01*
X143179228Y-74631448D01*
X143255419Y-74593352D01*
X143293514Y-74555257D01*
X143331609Y-74479067D01*
X143331609Y-74326686D01*
X143293514Y-74250495D01*
X143255419Y-74212400D01*
X143179228Y-74174305D01*
G04 #@! TO.C,D50*
X156314223Y-76155257D02*
X155514223Y-76155257D01*
X155514223Y-75964781D01*
X155552319Y-75850495D01*
X155628509Y-75774305D01*
X155704699Y-75736209D01*
X155857080Y-75698114D01*
X155971366Y-75698114D01*
X156123747Y-75736209D01*
X156199938Y-75774305D01*
X156276128Y-75850495D01*
X156314223Y-75964781D01*
X156314223Y-76155257D01*
X155514223Y-74974305D02*
X155514223Y-75355257D01*
X155895176Y-75393352D01*
X155857080Y-75355257D01*
X155818985Y-75279067D01*
X155818985Y-75088590D01*
X155857080Y-75012400D01*
X155895176Y-74974305D01*
X155971366Y-74936209D01*
X156161842Y-74936209D01*
X156238033Y-74974305D01*
X156276128Y-75012400D01*
X156314223Y-75088590D01*
X156314223Y-75279067D01*
X156276128Y-75355257D01*
X156238033Y-75393352D01*
X155514223Y-74440971D02*
X155514223Y-74364781D01*
X155552319Y-74288590D01*
X155590414Y-74250495D01*
X155666604Y-74212400D01*
X155818985Y-74174305D01*
X156009461Y-74174305D01*
X156161842Y-74212400D01*
X156238033Y-74250495D01*
X156276128Y-74288590D01*
X156314223Y-74364781D01*
X156314223Y-74440971D01*
X156276128Y-74517162D01*
X156238033Y-74555257D01*
X156161842Y-74593352D01*
X156009461Y-74631448D01*
X155818985Y-74631448D01*
X155666604Y-74593352D01*
X155590414Y-74555257D01*
X155552319Y-74517162D01*
X155514223Y-74440971D01*
G04 #@! TO.C,D51*
X168992075Y-76155257D02*
X168192075Y-76155257D01*
X168192075Y-75964781D01*
X168230171Y-75850495D01*
X168306361Y-75774305D01*
X168382551Y-75736209D01*
X168534932Y-75698114D01*
X168649218Y-75698114D01*
X168801599Y-75736209D01*
X168877790Y-75774305D01*
X168953980Y-75850495D01*
X168992075Y-75964781D01*
X168992075Y-76155257D01*
X168192075Y-74974305D02*
X168192075Y-75355257D01*
X168573028Y-75393352D01*
X168534932Y-75355257D01*
X168496837Y-75279067D01*
X168496837Y-75088590D01*
X168534932Y-75012400D01*
X168573028Y-74974305D01*
X168649218Y-74936209D01*
X168839694Y-74936209D01*
X168915885Y-74974305D01*
X168953980Y-75012400D01*
X168992075Y-75088590D01*
X168992075Y-75279067D01*
X168953980Y-75355257D01*
X168915885Y-75393352D01*
X168992075Y-74174305D02*
X168992075Y-74631448D01*
X168992075Y-74402876D02*
X168192075Y-74402876D01*
X168306361Y-74479067D01*
X168382551Y-74555257D01*
X168420647Y-74631448D01*
G04 #@! TO.C,D52*
X181669927Y-76155257D02*
X180869927Y-76155257D01*
X180869927Y-75964781D01*
X180908023Y-75850495D01*
X180984213Y-75774305D01*
X181060403Y-75736209D01*
X181212784Y-75698114D01*
X181327070Y-75698114D01*
X181479451Y-75736209D01*
X181555642Y-75774305D01*
X181631832Y-75850495D01*
X181669927Y-75964781D01*
X181669927Y-76155257D01*
X180869927Y-74974305D02*
X180869927Y-75355257D01*
X181250880Y-75393352D01*
X181212784Y-75355257D01*
X181174689Y-75279067D01*
X181174689Y-75088590D01*
X181212784Y-75012400D01*
X181250880Y-74974305D01*
X181327070Y-74936209D01*
X181517546Y-74936209D01*
X181593737Y-74974305D01*
X181631832Y-75012400D01*
X181669927Y-75088590D01*
X181669927Y-75279067D01*
X181631832Y-75355257D01*
X181593737Y-75393352D01*
X180946118Y-74631448D02*
X180908023Y-74593352D01*
X180869927Y-74517162D01*
X180869927Y-74326686D01*
X180908023Y-74250495D01*
X180946118Y-74212400D01*
X181022308Y-74174305D01*
X181098499Y-74174305D01*
X181212784Y-74212400D01*
X181669927Y-74669543D01*
X181669927Y-74174305D01*
G04 #@! TO.C,D53*
X194347779Y-76155257D02*
X193547779Y-76155257D01*
X193547779Y-75964781D01*
X193585875Y-75850495D01*
X193662065Y-75774305D01*
X193738255Y-75736209D01*
X193890636Y-75698114D01*
X194004922Y-75698114D01*
X194157303Y-75736209D01*
X194233494Y-75774305D01*
X194309684Y-75850495D01*
X194347779Y-75964781D01*
X194347779Y-76155257D01*
X193547779Y-74974305D02*
X193547779Y-75355257D01*
X193928732Y-75393352D01*
X193890636Y-75355257D01*
X193852541Y-75279067D01*
X193852541Y-75088590D01*
X193890636Y-75012400D01*
X193928732Y-74974305D01*
X194004922Y-74936209D01*
X194195398Y-74936209D01*
X194271589Y-74974305D01*
X194309684Y-75012400D01*
X194347779Y-75088590D01*
X194347779Y-75279067D01*
X194309684Y-75355257D01*
X194271589Y-75393352D01*
X193547779Y-74669543D02*
X193547779Y-74174305D01*
X193852541Y-74440971D01*
X193852541Y-74326686D01*
X193890636Y-74250495D01*
X193928732Y-74212400D01*
X194004922Y-74174305D01*
X194195398Y-74174305D01*
X194271589Y-74212400D01*
X194309684Y-74250495D01*
X194347779Y-74326686D01*
X194347779Y-74555257D01*
X194309684Y-74631448D01*
X194271589Y-74669543D01*
G04 #@! TO.C,D54*
X207025631Y-76155257D02*
X206225631Y-76155257D01*
X206225631Y-75964781D01*
X206263727Y-75850495D01*
X206339917Y-75774305D01*
X206416107Y-75736209D01*
X206568488Y-75698114D01*
X206682774Y-75698114D01*
X206835155Y-75736209D01*
X206911346Y-75774305D01*
X206987536Y-75850495D01*
X207025631Y-75964781D01*
X207025631Y-76155257D01*
X206225631Y-74974305D02*
X206225631Y-75355257D01*
X206606584Y-75393352D01*
X206568488Y-75355257D01*
X206530393Y-75279067D01*
X206530393Y-75088590D01*
X206568488Y-75012400D01*
X206606584Y-74974305D01*
X206682774Y-74936209D01*
X206873250Y-74936209D01*
X206949441Y-74974305D01*
X206987536Y-75012400D01*
X207025631Y-75088590D01*
X207025631Y-75279067D01*
X206987536Y-75355257D01*
X206949441Y-75393352D01*
X206492298Y-74250495D02*
X207025631Y-74250495D01*
X206187536Y-74440971D02*
X206758965Y-74631448D01*
X206758965Y-74136209D01*
G04 #@! TO.C,D55*
X219703483Y-76155257D02*
X218903483Y-76155257D01*
X218903483Y-75964781D01*
X218941579Y-75850495D01*
X219017769Y-75774305D01*
X219093959Y-75736209D01*
X219246340Y-75698114D01*
X219360626Y-75698114D01*
X219513007Y-75736209D01*
X219589198Y-75774305D01*
X219665388Y-75850495D01*
X219703483Y-75964781D01*
X219703483Y-76155257D01*
X218903483Y-74974305D02*
X218903483Y-75355257D01*
X219284436Y-75393352D01*
X219246340Y-75355257D01*
X219208245Y-75279067D01*
X219208245Y-75088590D01*
X219246340Y-75012400D01*
X219284436Y-74974305D01*
X219360626Y-74936209D01*
X219551102Y-74936209D01*
X219627293Y-74974305D01*
X219665388Y-75012400D01*
X219703483Y-75088590D01*
X219703483Y-75279067D01*
X219665388Y-75355257D01*
X219627293Y-75393352D01*
X218903483Y-74212400D02*
X218903483Y-74593352D01*
X219284436Y-74631448D01*
X219246340Y-74593352D01*
X219208245Y-74517162D01*
X219208245Y-74326686D01*
X219246340Y-74250495D01*
X219284436Y-74212400D01*
X219360626Y-74174305D01*
X219551102Y-74174305D01*
X219627293Y-74212400D01*
X219665388Y-74250495D01*
X219703483Y-74326686D01*
X219703483Y-74517162D01*
X219665388Y-74593352D01*
X219627293Y-74631448D01*
G04 #@! TO.C,D56*
X229176880Y-74501728D02*
X228376880Y-74501728D01*
X228376880Y-74311252D01*
X228414976Y-74196966D01*
X228491166Y-74120776D01*
X228567356Y-74082680D01*
X228719737Y-74044585D01*
X228834023Y-74044585D01*
X228986404Y-74082680D01*
X229062595Y-74120776D01*
X229138785Y-74196966D01*
X229176880Y-74311252D01*
X229176880Y-74501728D01*
X228376880Y-73320776D02*
X228376880Y-73701728D01*
X228757833Y-73739823D01*
X228719737Y-73701728D01*
X228681642Y-73625538D01*
X228681642Y-73435061D01*
X228719737Y-73358871D01*
X228757833Y-73320776D01*
X228834023Y-73282680D01*
X229024499Y-73282680D01*
X229100690Y-73320776D01*
X229138785Y-73358871D01*
X229176880Y-73435061D01*
X229176880Y-73625538D01*
X229138785Y-73701728D01*
X229100690Y-73739823D01*
X228376880Y-72596966D02*
X228376880Y-72749347D01*
X228414976Y-72825538D01*
X228453071Y-72863633D01*
X228567356Y-72939823D01*
X228719737Y-72977919D01*
X229024499Y-72977919D01*
X229100690Y-72939823D01*
X229138785Y-72901728D01*
X229176880Y-72825538D01*
X229176880Y-72673157D01*
X229138785Y-72596966D01*
X229100690Y-72558871D01*
X229024499Y-72520776D01*
X228834023Y-72520776D01*
X228757833Y-72558871D01*
X228719737Y-72596966D01*
X228681642Y-72673157D01*
X228681642Y-72825538D01*
X228719737Y-72901728D01*
X228757833Y-72939823D01*
X228834023Y-72977919D01*
G04 #@! TO.C,D57*
X244933133Y-76155257D02*
X244133133Y-76155257D01*
X244133133Y-75964781D01*
X244171229Y-75850495D01*
X244247419Y-75774305D01*
X244323609Y-75736209D01*
X244475990Y-75698114D01*
X244590276Y-75698114D01*
X244742657Y-75736209D01*
X244818848Y-75774305D01*
X244895038Y-75850495D01*
X244933133Y-75964781D01*
X244933133Y-76155257D01*
X244133133Y-74974305D02*
X244133133Y-75355257D01*
X244514086Y-75393352D01*
X244475990Y-75355257D01*
X244437895Y-75279067D01*
X244437895Y-75088590D01*
X244475990Y-75012400D01*
X244514086Y-74974305D01*
X244590276Y-74936209D01*
X244780752Y-74936209D01*
X244856943Y-74974305D01*
X244895038Y-75012400D01*
X244933133Y-75088590D01*
X244933133Y-75279067D01*
X244895038Y-75355257D01*
X244856943Y-75393352D01*
X244133133Y-74669543D02*
X244133133Y-74136209D01*
X244933133Y-74479067D01*
G04 #@! TO.C,D58*
X273228044Y-71194670D02*
X272428044Y-71194670D01*
X272428044Y-71004194D01*
X272466140Y-70889908D01*
X272542330Y-70813718D01*
X272618520Y-70775622D01*
X272770901Y-70737527D01*
X272885187Y-70737527D01*
X273037568Y-70775622D01*
X273113759Y-70813718D01*
X273189949Y-70889908D01*
X273228044Y-71004194D01*
X273228044Y-71194670D01*
X272428044Y-70013718D02*
X272428044Y-70394670D01*
X272808997Y-70432765D01*
X272770901Y-70394670D01*
X272732806Y-70318480D01*
X272732806Y-70128003D01*
X272770901Y-70051813D01*
X272808997Y-70013718D01*
X272885187Y-69975622D01*
X273075663Y-69975622D01*
X273151854Y-70013718D01*
X273189949Y-70051813D01*
X273228044Y-70128003D01*
X273228044Y-70318480D01*
X273189949Y-70394670D01*
X273151854Y-70432765D01*
X272770901Y-69518480D02*
X272732806Y-69594670D01*
X272694711Y-69632765D01*
X272618520Y-69670861D01*
X272580425Y-69670861D01*
X272504235Y-69632765D01*
X272466140Y-69594670D01*
X272428044Y-69518480D01*
X272428044Y-69366099D01*
X272466140Y-69289908D01*
X272504235Y-69251813D01*
X272580425Y-69213718D01*
X272618520Y-69213718D01*
X272694711Y-69251813D01*
X272732806Y-69289908D01*
X272770901Y-69366099D01*
X272770901Y-69518480D01*
X272808997Y-69594670D01*
X272847092Y-69632765D01*
X272923282Y-69670861D01*
X273075663Y-69670861D01*
X273151854Y-69632765D01*
X273189949Y-69594670D01*
X273228044Y-69518480D01*
X273228044Y-69366099D01*
X273189949Y-69289908D01*
X273151854Y-69251813D01*
X273075663Y-69213718D01*
X272923282Y-69213718D01*
X272847092Y-69251813D01*
X272808997Y-69289908D01*
X272770901Y-69366099D01*
G04 #@! TO.C,D59*
X266926496Y-74501728D02*
X266126496Y-74501728D01*
X266126496Y-74311252D01*
X266164592Y-74196966D01*
X266240782Y-74120776D01*
X266316972Y-74082680D01*
X266469353Y-74044585D01*
X266583639Y-74044585D01*
X266736020Y-74082680D01*
X266812211Y-74120776D01*
X266888401Y-74196966D01*
X266926496Y-74311252D01*
X266926496Y-74501728D01*
X266126496Y-73320776D02*
X266126496Y-73701728D01*
X266507449Y-73739823D01*
X266469353Y-73701728D01*
X266431258Y-73625538D01*
X266431258Y-73435061D01*
X266469353Y-73358871D01*
X266507449Y-73320776D01*
X266583639Y-73282680D01*
X266774115Y-73282680D01*
X266850306Y-73320776D01*
X266888401Y-73358871D01*
X266926496Y-73435061D01*
X266926496Y-73625538D01*
X266888401Y-73701728D01*
X266850306Y-73739823D01*
X266926496Y-72901728D02*
X266926496Y-72749347D01*
X266888401Y-72673157D01*
X266850306Y-72635061D01*
X266736020Y-72558871D01*
X266583639Y-72520776D01*
X266278877Y-72520776D01*
X266202687Y-72558871D01*
X266164592Y-72596966D01*
X266126496Y-72673157D01*
X266126496Y-72825538D01*
X266164592Y-72901728D01*
X266202687Y-72939823D01*
X266278877Y-72977919D01*
X266469353Y-72977919D01*
X266545544Y-72939823D01*
X266583639Y-72901728D01*
X266621734Y-72825538D01*
X266621734Y-72673157D01*
X266583639Y-72596966D01*
X266545544Y-72558871D01*
X266469353Y-72520776D01*
G04 #@! TO.C,D60*
X83416574Y-71194670D02*
X82616574Y-71194670D01*
X82616574Y-71004194D01*
X82654670Y-70889908D01*
X82730860Y-70813718D01*
X82807050Y-70775622D01*
X82959431Y-70737527D01*
X83073717Y-70737527D01*
X83226098Y-70775622D01*
X83302289Y-70813718D01*
X83378479Y-70889908D01*
X83416574Y-71004194D01*
X83416574Y-71194670D01*
X82616574Y-70051813D02*
X82616574Y-70204194D01*
X82654670Y-70280384D01*
X82692765Y-70318480D01*
X82807050Y-70394670D01*
X82959431Y-70432765D01*
X83264193Y-70432765D01*
X83340384Y-70394670D01*
X83378479Y-70356575D01*
X83416574Y-70280384D01*
X83416574Y-70128003D01*
X83378479Y-70051813D01*
X83340384Y-70013718D01*
X83264193Y-69975622D01*
X83073717Y-69975622D01*
X82997527Y-70013718D01*
X82959431Y-70051813D01*
X82921336Y-70128003D01*
X82921336Y-70280384D01*
X82959431Y-70356575D01*
X82997527Y-70394670D01*
X83073717Y-70432765D01*
X82616574Y-69480384D02*
X82616574Y-69404194D01*
X82654670Y-69328003D01*
X82692765Y-69289908D01*
X82768955Y-69251813D01*
X82921336Y-69213718D01*
X83111812Y-69213718D01*
X83264193Y-69251813D01*
X83340384Y-69289908D01*
X83378479Y-69328003D01*
X83416574Y-69404194D01*
X83416574Y-69480384D01*
X83378479Y-69556575D01*
X83340384Y-69594670D01*
X83264193Y-69632765D01*
X83111812Y-69670861D01*
X82921336Y-69670861D01*
X82768955Y-69632765D01*
X82692765Y-69594670D01*
X82654670Y-69556575D01*
X82616574Y-69480384D01*
G04 #@! TO.C,D61*
X263775722Y-72848199D02*
X262975722Y-72848199D01*
X262975722Y-72657723D01*
X263013818Y-72543437D01*
X263090008Y-72467247D01*
X263166198Y-72429151D01*
X263318579Y-72391056D01*
X263432865Y-72391056D01*
X263585246Y-72429151D01*
X263661437Y-72467247D01*
X263737627Y-72543437D01*
X263775722Y-72657723D01*
X263775722Y-72848199D01*
X262975722Y-71705342D02*
X262975722Y-71857723D01*
X263013818Y-71933913D01*
X263051913Y-71972009D01*
X263166198Y-72048199D01*
X263318579Y-72086294D01*
X263623341Y-72086294D01*
X263699532Y-72048199D01*
X263737627Y-72010104D01*
X263775722Y-71933913D01*
X263775722Y-71781532D01*
X263737627Y-71705342D01*
X263699532Y-71667247D01*
X263623341Y-71629151D01*
X263432865Y-71629151D01*
X263356675Y-71667247D01*
X263318579Y-71705342D01*
X263280484Y-71781532D01*
X263280484Y-71933913D01*
X263318579Y-72010104D01*
X263356675Y-72048199D01*
X263432865Y-72086294D01*
X263775722Y-70867247D02*
X263775722Y-71324390D01*
X263775722Y-71095818D02*
X262975722Y-71095818D01*
X263090008Y-71172009D01*
X263166198Y-71248199D01*
X263204294Y-71324390D01*
G04 #@! TO.C,D62*
X260624949Y-71194670D02*
X259824949Y-71194670D01*
X259824949Y-71004194D01*
X259863045Y-70889908D01*
X259939235Y-70813718D01*
X260015425Y-70775622D01*
X260167806Y-70737527D01*
X260282092Y-70737527D01*
X260434473Y-70775622D01*
X260510664Y-70813718D01*
X260586854Y-70889908D01*
X260624949Y-71004194D01*
X260624949Y-71194670D01*
X259824949Y-70051813D02*
X259824949Y-70204194D01*
X259863045Y-70280384D01*
X259901140Y-70318480D01*
X260015425Y-70394670D01*
X260167806Y-70432765D01*
X260472568Y-70432765D01*
X260548759Y-70394670D01*
X260586854Y-70356575D01*
X260624949Y-70280384D01*
X260624949Y-70128003D01*
X260586854Y-70051813D01*
X260548759Y-70013718D01*
X260472568Y-69975622D01*
X260282092Y-69975622D01*
X260205902Y-70013718D01*
X260167806Y-70051813D01*
X260129711Y-70128003D01*
X260129711Y-70280384D01*
X260167806Y-70356575D01*
X260205902Y-70394670D01*
X260282092Y-70432765D01*
X259901140Y-69670861D02*
X259863045Y-69632765D01*
X259824949Y-69556575D01*
X259824949Y-69366099D01*
X259863045Y-69289908D01*
X259901140Y-69251813D01*
X259977330Y-69213718D01*
X260053521Y-69213718D01*
X260167806Y-69251813D01*
X260624949Y-69708956D01*
X260624949Y-69213718D01*
G04 #@! TO.C,D63*
X257474176Y-76155257D02*
X256674176Y-76155257D01*
X256674176Y-75964781D01*
X256712272Y-75850495D01*
X256788462Y-75774305D01*
X256864652Y-75736209D01*
X257017033Y-75698114D01*
X257131319Y-75698114D01*
X257283700Y-75736209D01*
X257359891Y-75774305D01*
X257436081Y-75850495D01*
X257474176Y-75964781D01*
X257474176Y-76155257D01*
X256674176Y-75012400D02*
X256674176Y-75164781D01*
X256712272Y-75240971D01*
X256750367Y-75279067D01*
X256864652Y-75355257D01*
X257017033Y-75393352D01*
X257321795Y-75393352D01*
X257397986Y-75355257D01*
X257436081Y-75317162D01*
X257474176Y-75240971D01*
X257474176Y-75088590D01*
X257436081Y-75012400D01*
X257397986Y-74974305D01*
X257321795Y-74936209D01*
X257131319Y-74936209D01*
X257055129Y-74974305D01*
X257017033Y-75012400D01*
X256978938Y-75088590D01*
X256978938Y-75240971D01*
X257017033Y-75317162D01*
X257055129Y-75355257D01*
X257131319Y-75393352D01*
X256674176Y-74669543D02*
X256674176Y-74174305D01*
X256978938Y-74440971D01*
X256978938Y-74326686D01*
X257017033Y-74250495D01*
X257055129Y-74212400D01*
X257131319Y-74174305D01*
X257321795Y-74174305D01*
X257397986Y-74212400D01*
X257436081Y-74250495D01*
X257474176Y-74326686D01*
X257474176Y-74555257D01*
X257436081Y-74631448D01*
X257397986Y-74669543D01*
G04 #@! TO.C,D64*
X232328847Y-76155257D02*
X231528847Y-76155257D01*
X231528847Y-75964781D01*
X231566943Y-75850495D01*
X231643133Y-75774305D01*
X231719323Y-75736209D01*
X231871704Y-75698114D01*
X231985990Y-75698114D01*
X232138371Y-75736209D01*
X232214562Y-75774305D01*
X232290752Y-75850495D01*
X232328847Y-75964781D01*
X232328847Y-76155257D01*
X231528847Y-75012400D02*
X231528847Y-75164781D01*
X231566943Y-75240971D01*
X231605038Y-75279067D01*
X231719323Y-75355257D01*
X231871704Y-75393352D01*
X232176466Y-75393352D01*
X232252657Y-75355257D01*
X232290752Y-75317162D01*
X232328847Y-75240971D01*
X232328847Y-75088590D01*
X232290752Y-75012400D01*
X232252657Y-74974305D01*
X232176466Y-74936209D01*
X231985990Y-74936209D01*
X231909800Y-74974305D01*
X231871704Y-75012400D01*
X231833609Y-75088590D01*
X231833609Y-75240971D01*
X231871704Y-75317162D01*
X231909800Y-75355257D01*
X231985990Y-75393352D01*
X231795514Y-74250495D02*
X232328847Y-74250495D01*
X231490752Y-74440971D02*
X232062181Y-74631448D01*
X232062181Y-74136209D01*
G04 #@! TO.C,D65*
X251234679Y-72848199D02*
X250434679Y-72848199D01*
X250434679Y-72657723D01*
X250472775Y-72543437D01*
X250548965Y-72467247D01*
X250625155Y-72429151D01*
X250777536Y-72391056D01*
X250891822Y-72391056D01*
X251044203Y-72429151D01*
X251120394Y-72467247D01*
X251196584Y-72543437D01*
X251234679Y-72657723D01*
X251234679Y-72848199D01*
X250434679Y-71705342D02*
X250434679Y-71857723D01*
X250472775Y-71933913D01*
X250510870Y-71972009D01*
X250625155Y-72048199D01*
X250777536Y-72086294D01*
X251082298Y-72086294D01*
X251158489Y-72048199D01*
X251196584Y-72010104D01*
X251234679Y-71933913D01*
X251234679Y-71781532D01*
X251196584Y-71705342D01*
X251158489Y-71667247D01*
X251082298Y-71629151D01*
X250891822Y-71629151D01*
X250815632Y-71667247D01*
X250777536Y-71705342D01*
X250739441Y-71781532D01*
X250739441Y-71933913D01*
X250777536Y-72010104D01*
X250815632Y-72048199D01*
X250891822Y-72086294D01*
X250434679Y-70905342D02*
X250434679Y-71286294D01*
X250815632Y-71324390D01*
X250777536Y-71286294D01*
X250739441Y-71210104D01*
X250739441Y-71019628D01*
X250777536Y-70943437D01*
X250815632Y-70905342D01*
X250891822Y-70867247D01*
X251082298Y-70867247D01*
X251158489Y-70905342D01*
X251196584Y-70943437D01*
X251234679Y-71019628D01*
X251234679Y-71210104D01*
X251196584Y-71286294D01*
X251158489Y-71324390D01*
G04 #@! TO.C,D66*
X248083906Y-71194670D02*
X247283906Y-71194670D01*
X247283906Y-71004194D01*
X247322002Y-70889908D01*
X247398192Y-70813718D01*
X247474382Y-70775622D01*
X247626763Y-70737527D01*
X247741049Y-70737527D01*
X247893430Y-70775622D01*
X247969621Y-70813718D01*
X248045811Y-70889908D01*
X248083906Y-71004194D01*
X248083906Y-71194670D01*
X247283906Y-70051813D02*
X247283906Y-70204194D01*
X247322002Y-70280384D01*
X247360097Y-70318480D01*
X247474382Y-70394670D01*
X247626763Y-70432765D01*
X247931525Y-70432765D01*
X248007716Y-70394670D01*
X248045811Y-70356575D01*
X248083906Y-70280384D01*
X248083906Y-70128003D01*
X248045811Y-70051813D01*
X248007716Y-70013718D01*
X247931525Y-69975622D01*
X247741049Y-69975622D01*
X247664859Y-70013718D01*
X247626763Y-70051813D01*
X247588668Y-70128003D01*
X247588668Y-70280384D01*
X247626763Y-70356575D01*
X247664859Y-70394670D01*
X247741049Y-70432765D01*
X247283906Y-69289908D02*
X247283906Y-69442289D01*
X247322002Y-69518480D01*
X247360097Y-69556575D01*
X247474382Y-69632765D01*
X247626763Y-69670861D01*
X247931525Y-69670861D01*
X248007716Y-69632765D01*
X248045811Y-69594670D01*
X248083906Y-69518480D01*
X248083906Y-69366099D01*
X248045811Y-69289908D01*
X248007716Y-69251813D01*
X247931525Y-69213718D01*
X247741049Y-69213718D01*
X247664859Y-69251813D01*
X247626763Y-69289908D01*
X247588668Y-69366099D01*
X247588668Y-69518480D01*
X247626763Y-69594670D01*
X247664859Y-69632765D01*
X247741049Y-69670861D01*
G04 #@! TO.C,D67*
X270077270Y-76155257D02*
X269277270Y-76155257D01*
X269277270Y-75964781D01*
X269315366Y-75850495D01*
X269391556Y-75774305D01*
X269467746Y-75736209D01*
X269620127Y-75698114D01*
X269734413Y-75698114D01*
X269886794Y-75736209D01*
X269962985Y-75774305D01*
X270039175Y-75850495D01*
X270077270Y-75964781D01*
X270077270Y-76155257D01*
X269277270Y-75012400D02*
X269277270Y-75164781D01*
X269315366Y-75240971D01*
X269353461Y-75279067D01*
X269467746Y-75355257D01*
X269620127Y-75393352D01*
X269924889Y-75393352D01*
X270001080Y-75355257D01*
X270039175Y-75317162D01*
X270077270Y-75240971D01*
X270077270Y-75088590D01*
X270039175Y-75012400D01*
X270001080Y-74974305D01*
X269924889Y-74936209D01*
X269734413Y-74936209D01*
X269658223Y-74974305D01*
X269620127Y-75012400D01*
X269582032Y-75088590D01*
X269582032Y-75240971D01*
X269620127Y-75317162D01*
X269658223Y-75355257D01*
X269734413Y-75393352D01*
X269277270Y-74669543D02*
X269277270Y-74136209D01*
X270077270Y-74479067D01*
G04 #@! TO.C,D68*
X254323403Y-74501728D02*
X253523403Y-74501728D01*
X253523403Y-74311252D01*
X253561499Y-74196966D01*
X253637689Y-74120776D01*
X253713879Y-74082680D01*
X253866260Y-74044585D01*
X253980546Y-74044585D01*
X254132927Y-74082680D01*
X254209118Y-74120776D01*
X254285308Y-74196966D01*
X254323403Y-74311252D01*
X254323403Y-74501728D01*
X253523403Y-73358871D02*
X253523403Y-73511252D01*
X253561499Y-73587442D01*
X253599594Y-73625538D01*
X253713879Y-73701728D01*
X253866260Y-73739823D01*
X254171022Y-73739823D01*
X254247213Y-73701728D01*
X254285308Y-73663633D01*
X254323403Y-73587442D01*
X254323403Y-73435061D01*
X254285308Y-73358871D01*
X254247213Y-73320776D01*
X254171022Y-73282680D01*
X253980546Y-73282680D01*
X253904356Y-73320776D01*
X253866260Y-73358871D01*
X253828165Y-73435061D01*
X253828165Y-73587442D01*
X253866260Y-73663633D01*
X253904356Y-73701728D01*
X253980546Y-73739823D01*
X253866260Y-72825538D02*
X253828165Y-72901728D01*
X253790070Y-72939823D01*
X253713879Y-72977919D01*
X253675784Y-72977919D01*
X253599594Y-72939823D01*
X253561499Y-72901728D01*
X253523403Y-72825538D01*
X253523403Y-72673157D01*
X253561499Y-72596966D01*
X253599594Y-72558871D01*
X253675784Y-72520776D01*
X253713879Y-72520776D01*
X253790070Y-72558871D01*
X253828165Y-72596966D01*
X253866260Y-72673157D01*
X253866260Y-72825538D01*
X253904356Y-72901728D01*
X253942451Y-72939823D01*
X254018641Y-72977919D01*
X254171022Y-72977919D01*
X254247213Y-72939823D01*
X254285308Y-72901728D01*
X254323403Y-72825538D01*
X254323403Y-72673157D01*
X254285308Y-72596966D01*
X254247213Y-72558871D01*
X254171022Y-72520776D01*
X254018641Y-72520776D01*
X253942451Y-72558871D01*
X253904356Y-72596966D01*
X253866260Y-72673157D01*
G04 #@! TO.C,BOOT1*
X247197212Y-61240395D02*
X247340069Y-61288014D01*
X247387688Y-61335633D01*
X247435307Y-61430871D01*
X247435307Y-61573728D01*
X247387688Y-61668966D01*
X247340069Y-61716585D01*
X247244831Y-61764204D01*
X246863878Y-61764204D01*
X246863878Y-60764204D01*
X247197212Y-60764204D01*
X247292450Y-60811824D01*
X247340069Y-60859443D01*
X247387688Y-60954681D01*
X247387688Y-61049919D01*
X247340069Y-61145157D01*
X247292450Y-61192776D01*
X247197212Y-61240395D01*
X246863878Y-61240395D01*
X248054355Y-60764204D02*
X248244831Y-60764204D01*
X248340069Y-60811824D01*
X248435307Y-60907062D01*
X248482926Y-61097538D01*
X248482926Y-61430871D01*
X248435307Y-61621347D01*
X248340069Y-61716585D01*
X248244831Y-61764204D01*
X248054355Y-61764204D01*
X247959116Y-61716585D01*
X247863878Y-61621347D01*
X247816259Y-61430871D01*
X247816259Y-61097538D01*
X247863878Y-60907062D01*
X247959116Y-60811824D01*
X248054355Y-60764204D01*
X249101974Y-60764204D02*
X249292450Y-60764204D01*
X249387688Y-60811824D01*
X249482926Y-60907062D01*
X249530545Y-61097538D01*
X249530545Y-61430871D01*
X249482926Y-61621347D01*
X249387688Y-61716585D01*
X249292450Y-61764204D01*
X249101974Y-61764204D01*
X249006735Y-61716585D01*
X248911497Y-61621347D01*
X248863878Y-61430871D01*
X248863878Y-61097538D01*
X248911497Y-60907062D01*
X249006735Y-60811824D01*
X249101974Y-60764204D01*
X249816259Y-60764204D02*
X250387688Y-60764204D01*
X250101974Y-61764204D02*
X250101974Y-60764204D01*
G04 #@! TO.C,C4*
X334185117Y-54548448D02*
X334137498Y-54596067D01*
X333994641Y-54643686D01*
X333899403Y-54643686D01*
X333756545Y-54596067D01*
X333661307Y-54500829D01*
X333613688Y-54405591D01*
X333566069Y-54215115D01*
X333566069Y-54072258D01*
X333613688Y-53881782D01*
X333661307Y-53786544D01*
X333756545Y-53691306D01*
X333899403Y-53643686D01*
X333994641Y-53643686D01*
X334137498Y-53691306D01*
X334185117Y-53738925D01*
X335042260Y-53977020D02*
X335042260Y-54643686D01*
X334804164Y-53596067D02*
X334566069Y-54310353D01*
X335185117Y-54310353D01*
X338520410Y-53730142D02*
X338615648Y-53730142D01*
X338710886Y-53777762D01*
X338758505Y-53825381D01*
X338806124Y-53920619D01*
X338853743Y-54111095D01*
X338853743Y-54349190D01*
X338806124Y-54539666D01*
X338758505Y-54634904D01*
X338710886Y-54682523D01*
X338615648Y-54730142D01*
X338520410Y-54730142D01*
X338425172Y-54682523D01*
X338377553Y-54634904D01*
X338329934Y-54539666D01*
X338282315Y-54349190D01*
X338282315Y-54111095D01*
X338329934Y-53920619D01*
X338377553Y-53825381D01*
X338425172Y-53777762D01*
X338520410Y-53730142D01*
X339282315Y-54634904D02*
X339329934Y-54682523D01*
X339282315Y-54730142D01*
X339234696Y-54682523D01*
X339282315Y-54634904D01*
X339282315Y-54730142D01*
X340282315Y-54730142D02*
X339710886Y-54730142D01*
X339996600Y-54730142D02*
X339996600Y-53730142D01*
X339901362Y-53873000D01*
X339806124Y-53968238D01*
X339710886Y-54015857D01*
X341139457Y-54063476D02*
X341139457Y-54730142D01*
X340710886Y-54063476D02*
X340710886Y-54587285D01*
X340758505Y-54682523D01*
X340853743Y-54730142D01*
X340996600Y-54730142D01*
X341091838Y-54682523D01*
X341139457Y-54634904D01*
G04 #@! TO.C,C5*
X329583143Y-74303690D02*
X329535524Y-74351309D01*
X329392667Y-74398928D01*
X329297429Y-74398928D01*
X329154571Y-74351309D01*
X329059333Y-74256071D01*
X329011714Y-74160833D01*
X328964095Y-73970357D01*
X328964095Y-73827500D01*
X329011714Y-73637024D01*
X329059333Y-73541786D01*
X329154571Y-73446548D01*
X329297429Y-73398928D01*
X329392667Y-73398928D01*
X329535524Y-73446548D01*
X329583143Y-73494167D01*
X330487905Y-73398928D02*
X330011714Y-73398928D01*
X329964095Y-73875119D01*
X330011714Y-73827500D01*
X330106952Y-73779881D01*
X330345048Y-73779881D01*
X330440286Y-73827500D01*
X330487905Y-73875119D01*
X330535524Y-73970357D01*
X330535524Y-74208452D01*
X330487905Y-74303690D01*
X330440286Y-74351309D01*
X330345048Y-74398928D01*
X330106952Y-74398928D01*
X330011714Y-74351309D01*
X329964095Y-74303690D01*
X328704219Y-75409751D02*
X328799457Y-75409751D01*
X328894695Y-75457371D01*
X328942314Y-75504990D01*
X328989933Y-75600228D01*
X329037552Y-75790704D01*
X329037552Y-76028799D01*
X328989933Y-76219275D01*
X328942314Y-76314513D01*
X328894695Y-76362132D01*
X328799457Y-76409751D01*
X328704219Y-76409751D01*
X328608981Y-76362132D01*
X328561362Y-76314513D01*
X328513743Y-76219275D01*
X328466124Y-76028799D01*
X328466124Y-75790704D01*
X328513743Y-75600228D01*
X328561362Y-75504990D01*
X328608981Y-75457371D01*
X328704219Y-75409751D01*
X329466124Y-76314513D02*
X329513743Y-76362132D01*
X329466124Y-76409751D01*
X329418505Y-76362132D01*
X329466124Y-76314513D01*
X329466124Y-76409751D01*
X330466124Y-76409751D02*
X329894695Y-76409751D01*
X330180409Y-76409751D02*
X330180409Y-75409751D01*
X330085171Y-75552609D01*
X329989933Y-75647847D01*
X329894695Y-75695466D01*
X331323266Y-75743085D02*
X331323266Y-76409751D01*
X330894695Y-75743085D02*
X330894695Y-76266894D01*
X330942314Y-76362132D01*
X331037552Y-76409751D01*
X331180409Y-76409751D01*
X331275647Y-76362132D01*
X331323266Y-76314513D01*
G04 #@! TO.C,U1*
X329932797Y-63565052D02*
X329932797Y-64374576D01*
X329980416Y-64469814D01*
X330028035Y-64517433D01*
X330123273Y-64565052D01*
X330313749Y-64565052D01*
X330408987Y-64517433D01*
X330456606Y-64469814D01*
X330504225Y-64374576D01*
X330504225Y-63565052D01*
X331504225Y-64565052D02*
X330932797Y-64565052D01*
X331218511Y-64565052D02*
X331218511Y-63565052D01*
X331123273Y-63707910D01*
X331028035Y-63803148D01*
X330932797Y-63850767D01*
X325349310Y-61742128D02*
X325825501Y-61742128D01*
X325254072Y-62027842D02*
X325587406Y-61027842D01*
X325920739Y-62027842D01*
X326111215Y-61027842D02*
X326682644Y-61027842D01*
X326396929Y-62027842D02*
X326396929Y-61027842D01*
X327015977Y-62027842D02*
X327015977Y-61361176D01*
X327015977Y-61456414D02*
X327063596Y-61408795D01*
X327158834Y-61361176D01*
X327301691Y-61361176D01*
X327396929Y-61408795D01*
X327444548Y-61504033D01*
X327444548Y-62027842D01*
X327444548Y-61504033D02*
X327492168Y-61408795D01*
X327587406Y-61361176D01*
X327730263Y-61361176D01*
X327825501Y-61408795D01*
X327873120Y-61504033D01*
X327873120Y-62027842D01*
X328730263Y-61980223D02*
X328635025Y-62027842D01*
X328444548Y-62027842D01*
X328349310Y-61980223D01*
X328301691Y-61884985D01*
X328301691Y-61504033D01*
X328349310Y-61408795D01*
X328444548Y-61361176D01*
X328635025Y-61361176D01*
X328730263Y-61408795D01*
X328777882Y-61504033D01*
X328777882Y-61599271D01*
X328301691Y-61694509D01*
X329635025Y-61361176D02*
X329635025Y-62170700D01*
X329587406Y-62265938D01*
X329539787Y-62313557D01*
X329444548Y-62361176D01*
X329301691Y-62361176D01*
X329206453Y-62313557D01*
X329635025Y-61980223D02*
X329539787Y-62027842D01*
X329349310Y-62027842D01*
X329254072Y-61980223D01*
X329206453Y-61932604D01*
X329158834Y-61837366D01*
X329158834Y-61551652D01*
X329206453Y-61456414D01*
X329254072Y-61408795D01*
X329349310Y-61361176D01*
X329539787Y-61361176D01*
X329635025Y-61408795D01*
X330539787Y-62027842D02*
X330539787Y-61504033D01*
X330492168Y-61408795D01*
X330396929Y-61361176D01*
X330206453Y-61361176D01*
X330111215Y-61408795D01*
X330539787Y-61980223D02*
X330444548Y-62027842D01*
X330206453Y-62027842D01*
X330111215Y-61980223D01*
X330063596Y-61884985D01*
X330063596Y-61789747D01*
X330111215Y-61694509D01*
X330206453Y-61646890D01*
X330444548Y-61646890D01*
X330539787Y-61599271D01*
X330920739Y-61027842D02*
X331539787Y-61027842D01*
X331206453Y-61408795D01*
X331349310Y-61408795D01*
X331444548Y-61456414D01*
X331492168Y-61504033D01*
X331539787Y-61599271D01*
X331539787Y-61837366D01*
X331492168Y-61932604D01*
X331444548Y-61980223D01*
X331349310Y-62027842D01*
X331063596Y-62027842D01*
X330968358Y-61980223D01*
X330920739Y-61932604D01*
X331920739Y-61123081D02*
X331968358Y-61075462D01*
X332063596Y-61027842D01*
X332301691Y-61027842D01*
X332396929Y-61075462D01*
X332444548Y-61123081D01*
X332492168Y-61218319D01*
X332492168Y-61313557D01*
X332444548Y-61456414D01*
X331873120Y-62027842D01*
X332492168Y-62027842D01*
X332873120Y-61742128D02*
X333349310Y-61742128D01*
X332777882Y-62027842D02*
X333111215Y-61027842D01*
X333444548Y-62027842D01*
X333777882Y-61646890D02*
X334539787Y-61646890D01*
X335015977Y-62027842D02*
X335015977Y-61027842D01*
X335396929Y-61027842D01*
X335492168Y-61075462D01*
X335539787Y-61123081D01*
X335587406Y-61218319D01*
X335587406Y-61361176D01*
X335539787Y-61456414D01*
X335492168Y-61504033D01*
X335396929Y-61551652D01*
X335015977Y-61551652D01*
X336015977Y-61027842D02*
X336015977Y-61837366D01*
X336063596Y-61932604D01*
X336111215Y-61980223D01*
X336206453Y-62027842D01*
X336396929Y-62027842D01*
X336492168Y-61980223D01*
X336539787Y-61932604D01*
X336587406Y-61837366D01*
X336587406Y-61027842D01*
G04 #@! TO.C,R4*
D10*
X304978783Y-71007631D02*
X304597831Y-71274298D01*
X304978783Y-71464774D02*
X304178783Y-71464774D01*
X304178783Y-71160012D01*
X304216879Y-71083821D01*
X304254974Y-71045726D01*
X304331164Y-71007631D01*
X304445450Y-71007631D01*
X304521640Y-71045726D01*
X304559736Y-71083821D01*
X304597831Y-71160012D01*
X304597831Y-71464774D01*
X304445450Y-70321917D02*
X304978783Y-70321917D01*
X304140688Y-70512393D02*
X304712117Y-70702869D01*
X304712117Y-70207631D01*
X298372452Y-70479947D02*
X298905786Y-70479947D01*
X298562929Y-71279947D01*
X299591500Y-70479947D02*
X299210548Y-70479947D01*
X299172452Y-70860900D01*
X299210548Y-70822804D01*
X299286738Y-70784709D01*
X299477214Y-70784709D01*
X299553405Y-70822804D01*
X299591500Y-70860900D01*
X299629595Y-70937090D01*
X299629595Y-71127566D01*
X299591500Y-71203757D01*
X299553405Y-71241852D01*
X299477214Y-71279947D01*
X299286738Y-71279947D01*
X299210548Y-71241852D01*
X299172452Y-71203757D01*
X300429595Y-71279947D02*
X300162929Y-70898995D01*
X299972452Y-71279947D02*
X299972452Y-70479947D01*
X300277214Y-70479947D01*
X300353405Y-70518043D01*
X300391500Y-70556138D01*
X300429595Y-70632328D01*
X300429595Y-70746614D01*
X300391500Y-70822804D01*
X300353405Y-70860900D01*
X300277214Y-70898995D01*
X299972452Y-70898995D01*
G04 #@! TO.C,R3*
X304978783Y-68496716D02*
X304597831Y-68763383D01*
X304978783Y-68953859D02*
X304178783Y-68953859D01*
X304178783Y-68649097D01*
X304216879Y-68572906D01*
X304254974Y-68534811D01*
X304331164Y-68496716D01*
X304445450Y-68496716D01*
X304521640Y-68534811D01*
X304559736Y-68572906D01*
X304597831Y-68649097D01*
X304597831Y-68953859D01*
X304178783Y-68230049D02*
X304178783Y-67734811D01*
X304483545Y-68001478D01*
X304483545Y-67887192D01*
X304521640Y-67811002D01*
X304559736Y-67772906D01*
X304635926Y-67734811D01*
X304826402Y-67734811D01*
X304902593Y-67772906D01*
X304940688Y-67811002D01*
X304978783Y-67887192D01*
X304978783Y-68115763D01*
X304940688Y-68191954D01*
X304902593Y-68230049D01*
X298372452Y-68012776D02*
X298905786Y-68012776D01*
X298562929Y-68812776D01*
X299591500Y-68012776D02*
X299210548Y-68012776D01*
X299172452Y-68393729D01*
X299210548Y-68355633D01*
X299286738Y-68317538D01*
X299477214Y-68317538D01*
X299553405Y-68355633D01*
X299591500Y-68393729D01*
X299629595Y-68469919D01*
X299629595Y-68660395D01*
X299591500Y-68736586D01*
X299553405Y-68774681D01*
X299477214Y-68812776D01*
X299286738Y-68812776D01*
X299210548Y-68774681D01*
X299172452Y-68736586D01*
X300429595Y-68812776D02*
X300162929Y-68431824D01*
X299972452Y-68812776D02*
X299972452Y-68012776D01*
X300277214Y-68012776D01*
X300353405Y-68050872D01*
X300391500Y-68088967D01*
X300429595Y-68165157D01*
X300429595Y-68279443D01*
X300391500Y-68355633D01*
X300353405Y-68393729D01*
X300277214Y-68431824D01*
X299972452Y-68431824D01*
G04 #@! TO.C,R5*
X304978783Y-73518547D02*
X304597831Y-73785214D01*
X304978783Y-73975690D02*
X304178783Y-73975690D01*
X304178783Y-73670928D01*
X304216879Y-73594737D01*
X304254974Y-73556642D01*
X304331164Y-73518547D01*
X304445450Y-73518547D01*
X304521640Y-73556642D01*
X304559736Y-73594737D01*
X304597831Y-73670928D01*
X304597831Y-73975690D01*
X304178783Y-72794737D02*
X304178783Y-73175690D01*
X304559736Y-73213785D01*
X304521640Y-73175690D01*
X304483545Y-73099499D01*
X304483545Y-72909023D01*
X304521640Y-72832833D01*
X304559736Y-72794737D01*
X304635926Y-72756642D01*
X304826402Y-72756642D01*
X304902593Y-72794737D01*
X304940688Y-72832833D01*
X304978783Y-72909023D01*
X304978783Y-73099499D01*
X304940688Y-73175690D01*
X304902593Y-73213785D01*
X298677214Y-73799611D02*
X298220072Y-73799611D01*
X298448643Y-73799611D02*
X298448643Y-72999611D01*
X298372452Y-73113897D01*
X298296262Y-73190087D01*
X298220072Y-73228183D01*
X299020072Y-73723421D02*
X299058167Y-73761516D01*
X299020072Y-73799611D01*
X298981976Y-73761516D01*
X299020072Y-73723421D01*
X299020072Y-73799611D01*
X299781976Y-72999611D02*
X299401024Y-72999611D01*
X299362929Y-73380564D01*
X299401024Y-73342468D01*
X299477214Y-73304373D01*
X299667691Y-73304373D01*
X299743881Y-73342468D01*
X299781976Y-73380564D01*
X299820072Y-73456754D01*
X299820072Y-73647230D01*
X299781976Y-73723421D01*
X299743881Y-73761516D01*
X299667691Y-73799611D01*
X299477214Y-73799611D01*
X299401024Y-73761516D01*
X299362929Y-73723421D01*
X300162929Y-73799611D02*
X300162929Y-72999611D01*
X300620072Y-73799611D02*
X300277214Y-73342468D01*
X300620072Y-72999611D02*
X300162929Y-73456754D01*
G04 #@! TO.C,R1*
X304978783Y-63474886D02*
X304597831Y-63741553D01*
X304978783Y-63932029D02*
X304178783Y-63932029D01*
X304178783Y-63627267D01*
X304216879Y-63551076D01*
X304254974Y-63512981D01*
X304331164Y-63474886D01*
X304445450Y-63474886D01*
X304521640Y-63512981D01*
X304559736Y-63551076D01*
X304597831Y-63627267D01*
X304597831Y-63932029D01*
X304978783Y-62712981D02*
X304978783Y-63170124D01*
X304978783Y-62941553D02*
X304178783Y-62941553D01*
X304293069Y-63017743D01*
X304369259Y-63093933D01*
X304407355Y-63170124D01*
G04 #@! TO.C,R2*
X304978783Y-65985801D02*
X304597831Y-66252468D01*
X304978783Y-66442944D02*
X304178783Y-66442944D01*
X304178783Y-66138182D01*
X304216879Y-66061991D01*
X304254974Y-66023896D01*
X304331164Y-65985801D01*
X304445450Y-65985801D01*
X304521640Y-66023896D01*
X304559736Y-66061991D01*
X304597831Y-66138182D01*
X304597831Y-66442944D01*
X304254974Y-65681039D02*
X304216879Y-65642944D01*
X304178783Y-65566753D01*
X304178783Y-65376277D01*
X304216879Y-65300087D01*
X304254974Y-65261991D01*
X304331164Y-65223896D01*
X304407355Y-65223896D01*
X304521640Y-65261991D01*
X304978783Y-65719134D01*
X304978783Y-65223896D01*
G04 #@! TO.C,ST62*
X190059345Y-168738744D02*
X189868869Y-168738744D01*
X189773631Y-168786364D01*
X189726012Y-168833983D01*
X189630774Y-168976840D01*
X189583155Y-169167316D01*
X189583155Y-169548268D01*
X189630774Y-169643506D01*
X189678393Y-169691125D01*
X189773631Y-169738744D01*
X189964107Y-169738744D01*
X190059345Y-169691125D01*
X190106964Y-169643506D01*
X190154583Y-169548268D01*
X190154583Y-169310173D01*
X190106964Y-169214935D01*
X190059345Y-169167316D01*
X189964107Y-169119697D01*
X189773631Y-169119697D01*
X189678393Y-169167316D01*
X189630774Y-169214935D01*
X189583155Y-169310173D01*
X190583155Y-169643506D02*
X190630774Y-169691125D01*
X190583155Y-169738744D01*
X190535535Y-169691125D01*
X190583155Y-169643506D01*
X190583155Y-169738744D01*
X191011726Y-168833983D02*
X191059345Y-168786364D01*
X191154583Y-168738744D01*
X191392678Y-168738744D01*
X191487916Y-168786364D01*
X191535535Y-168833983D01*
X191583155Y-168929221D01*
X191583155Y-169024459D01*
X191535535Y-169167316D01*
X190964107Y-169738744D01*
X191583155Y-169738744D01*
X192487916Y-168738744D02*
X192011726Y-168738744D01*
X191964107Y-169214935D01*
X192011726Y-169167316D01*
X192106964Y-169119697D01*
X192345059Y-169119697D01*
X192440297Y-169167316D01*
X192487916Y-169214935D01*
X192535535Y-169310173D01*
X192535535Y-169548268D01*
X192487916Y-169643506D01*
X192440297Y-169691125D01*
X192345059Y-169738744D01*
X192106964Y-169738744D01*
X192011726Y-169691125D01*
X191964107Y-169643506D01*
X192964107Y-168738744D02*
X192964107Y-169548268D01*
X193011726Y-169643506D01*
X193059345Y-169691125D01*
X193154583Y-169738744D01*
X193345059Y-169738744D01*
X193440297Y-169691125D01*
X193487916Y-169643506D01*
X193535535Y-169548268D01*
X193535535Y-168738744D01*
X183324499Y-168738744D02*
X183991165Y-168738744D01*
X183562594Y-169738744D01*
X184372118Y-168738744D02*
X184372118Y-169548268D01*
X184419737Y-169643506D01*
X184467356Y-169691125D01*
X184562594Y-169738744D01*
X184753070Y-169738744D01*
X184848308Y-169691125D01*
X184895927Y-169643506D01*
X184943546Y-169548268D01*
X184943546Y-168738744D01*
G04 #@! TO.C,C1*
D12*
X348620967Y-79378110D02*
X348573348Y-79425729D01*
X348430491Y-79473348D01*
X348335253Y-79473348D01*
X348192395Y-79425729D01*
X348097157Y-79330491D01*
X348049538Y-79235253D01*
X348001919Y-79044777D01*
X348001919Y-78901920D01*
X348049538Y-78711444D01*
X348097157Y-78616206D01*
X348192395Y-78520968D01*
X348335253Y-78473348D01*
X348430491Y-78473348D01*
X348573348Y-78520968D01*
X348620967Y-78568587D01*
X349573348Y-79473348D02*
X349001919Y-79473348D01*
X349287634Y-79473348D02*
X349287634Y-78473348D01*
X349192395Y-78616206D01*
X349097157Y-78711444D01*
X349001919Y-78759063D01*
X347916657Y-79966895D02*
X347964276Y-79919276D01*
X348059514Y-79871656D01*
X348297609Y-79871656D01*
X348392847Y-79919276D01*
X348440466Y-79966895D01*
X348488085Y-80062133D01*
X348488085Y-80157371D01*
X348440466Y-80300228D01*
X347869038Y-80871656D01*
X348488085Y-80871656D01*
X348869038Y-79966895D02*
X348916657Y-79919276D01*
X349011895Y-79871656D01*
X349249990Y-79871656D01*
X349345228Y-79919276D01*
X349392847Y-79966895D01*
X349440466Y-80062133D01*
X349440466Y-80157371D01*
X349392847Y-80300228D01*
X348821419Y-80871656D01*
X349440466Y-80871656D01*
X349869038Y-80204990D02*
X349869038Y-81204990D01*
X349869038Y-80252609D02*
X349964276Y-80204990D01*
X350154752Y-80204990D01*
X350249990Y-80252609D01*
X350297609Y-80300228D01*
X350345228Y-80395466D01*
X350345228Y-80681180D01*
X350297609Y-80776418D01*
X350249990Y-80824037D01*
X350154752Y-80871656D01*
X349964276Y-80871656D01*
X349869038Y-80824037D01*
G04 #@! TO.C,C2*
X334342599Y-79430604D02*
X334294980Y-79478223D01*
X334152123Y-79525842D01*
X334056885Y-79525842D01*
X333914027Y-79478223D01*
X333818789Y-79382985D01*
X333771170Y-79287747D01*
X333723551Y-79097271D01*
X333723551Y-78954414D01*
X333771170Y-78763938D01*
X333818789Y-78668700D01*
X333914027Y-78573462D01*
X334056885Y-78525842D01*
X334152123Y-78525842D01*
X334294980Y-78573462D01*
X334342599Y-78621081D01*
X334723551Y-78621081D02*
X334771170Y-78573462D01*
X334866408Y-78525842D01*
X335104504Y-78525842D01*
X335199742Y-78573462D01*
X335247361Y-78621081D01*
X335294980Y-78716319D01*
X335294980Y-78811557D01*
X335247361Y-78954414D01*
X334675932Y-79525842D01*
X335294980Y-79525842D01*
X333428589Y-79966895D02*
X333476208Y-79919276D01*
X333571446Y-79871656D01*
X333809541Y-79871656D01*
X333904779Y-79919276D01*
X333952398Y-79966895D01*
X334000017Y-80062133D01*
X334000017Y-80157371D01*
X333952398Y-80300228D01*
X333380970Y-80871656D01*
X334000017Y-80871656D01*
X334380970Y-79966895D02*
X334428589Y-79919276D01*
X334523827Y-79871656D01*
X334761922Y-79871656D01*
X334857160Y-79919276D01*
X334904779Y-79966895D01*
X334952398Y-80062133D01*
X334952398Y-80157371D01*
X334904779Y-80300228D01*
X334333351Y-80871656D01*
X334952398Y-80871656D01*
X335380970Y-80204990D02*
X335380970Y-81204990D01*
X335380970Y-80252609D02*
X335476208Y-80204990D01*
X335666684Y-80204990D01*
X335761922Y-80252609D01*
X335809541Y-80300228D01*
X335857160Y-80395466D01*
X335857160Y-80681180D01*
X335809541Y-80776418D01*
X335761922Y-80824037D01*
X335666684Y-80871656D01*
X335476208Y-80871656D01*
X335380970Y-80824037D01*
G04 #@! TO.C,Y1*
X341111987Y-75461124D02*
X341111987Y-75937314D01*
X340778654Y-74937314D02*
X341111987Y-75461124D01*
X341445320Y-74937314D01*
X342302463Y-75937314D02*
X341731035Y-75937314D01*
X342016749Y-75937314D02*
X342016749Y-74937314D01*
X341921511Y-75080172D01*
X341826273Y-75175410D01*
X341731035Y-75223029D01*
G04 #@! TO.C,C3*
X291000053Y-62335058D02*
X290952434Y-62382677D01*
X290809577Y-62430296D01*
X290714339Y-62430296D01*
X290571481Y-62382677D01*
X290476243Y-62287439D01*
X290428624Y-62192201D01*
X290381005Y-62001725D01*
X290381005Y-61858868D01*
X290428624Y-61668392D01*
X290476243Y-61573154D01*
X290571481Y-61477916D01*
X290714339Y-61430296D01*
X290809577Y-61430296D01*
X290952434Y-61477916D01*
X291000053Y-61525535D01*
X291333386Y-61430296D02*
X291952434Y-61430296D01*
X291619100Y-61811249D01*
X291761958Y-61811249D01*
X291857196Y-61858868D01*
X291904815Y-61906487D01*
X291952434Y-62001725D01*
X291952434Y-62239820D01*
X291904815Y-62335058D01*
X291857196Y-62382677D01*
X291761958Y-62430296D01*
X291476243Y-62430296D01*
X291381005Y-62382677D01*
X291333386Y-62335058D01*
G04 #@! TO.C,R6*
D10*
X304978783Y-60963971D02*
X304597831Y-61230638D01*
X304978783Y-61421114D02*
X304178783Y-61421114D01*
X304178783Y-61116352D01*
X304216879Y-61040161D01*
X304254974Y-61002066D01*
X304331164Y-60963971D01*
X304445450Y-60963971D01*
X304521640Y-61002066D01*
X304559736Y-61040161D01*
X304597831Y-61116352D01*
X304597831Y-61421114D01*
X304178783Y-60278257D02*
X304178783Y-60430638D01*
X304216879Y-60506828D01*
X304254974Y-60544923D01*
X304369259Y-60621114D01*
X304521640Y-60659209D01*
X304826402Y-60659209D01*
X304902593Y-60621114D01*
X304940688Y-60583018D01*
X304978783Y-60506828D01*
X304978783Y-60354447D01*
X304940688Y-60278257D01*
X304902593Y-60240161D01*
X304826402Y-60202066D01*
X304635926Y-60202066D01*
X304559736Y-60240161D01*
X304521640Y-60278257D01*
X304483545Y-60354447D01*
X304483545Y-60506828D01*
X304521640Y-60583018D01*
X304559736Y-60621114D01*
X304635926Y-60659209D01*
X298677214Y-61219948D02*
X298220072Y-61219948D01*
X298448643Y-61219948D02*
X298448643Y-60419948D01*
X298372452Y-60534234D01*
X298296262Y-60610424D01*
X298220072Y-60648520D01*
X299020072Y-61143758D02*
X299058167Y-61181853D01*
X299020072Y-61219948D01*
X298981976Y-61181853D01*
X299020072Y-61143758D01*
X299020072Y-61219948D01*
X299781976Y-60419948D02*
X299401024Y-60419948D01*
X299362929Y-60800901D01*
X299401024Y-60762805D01*
X299477214Y-60724710D01*
X299667691Y-60724710D01*
X299743881Y-60762805D01*
X299781976Y-60800901D01*
X299820072Y-60877091D01*
X299820072Y-61067567D01*
X299781976Y-61143758D01*
X299743881Y-61181853D01*
X299667691Y-61219948D01*
X299477214Y-61219948D01*
X299401024Y-61181853D01*
X299362929Y-61143758D01*
X300162929Y-61219948D02*
X300162929Y-60419948D01*
X300620072Y-61219948D02*
X300277214Y-60762805D01*
X300620072Y-60419948D02*
X300162929Y-60877091D01*
G04 #@! TO.C,R7*
X304978783Y-58453056D02*
X304597831Y-58719723D01*
X304978783Y-58910199D02*
X304178783Y-58910199D01*
X304178783Y-58605437D01*
X304216879Y-58529246D01*
X304254974Y-58491151D01*
X304331164Y-58453056D01*
X304445450Y-58453056D01*
X304521640Y-58491151D01*
X304559736Y-58529246D01*
X304597831Y-58605437D01*
X304597831Y-58910199D01*
X304178783Y-58186389D02*
X304178783Y-57653056D01*
X304978783Y-57995913D01*
X298867691Y-58731402D02*
X298410548Y-58731402D01*
X298639119Y-58731402D02*
X298639119Y-57931402D01*
X298562929Y-58045688D01*
X298486738Y-58121878D01*
X298410548Y-58159974D01*
X299362929Y-57931402D02*
X299439119Y-57931402D01*
X299515310Y-57969498D01*
X299553405Y-58007593D01*
X299591500Y-58083783D01*
X299629595Y-58236164D01*
X299629595Y-58426640D01*
X299591500Y-58579021D01*
X299553405Y-58655212D01*
X299515310Y-58693307D01*
X299439119Y-58731402D01*
X299362929Y-58731402D01*
X299286738Y-58693307D01*
X299248643Y-58655212D01*
X299210548Y-58579021D01*
X299172452Y-58426640D01*
X299172452Y-58236164D01*
X299210548Y-58083783D01*
X299248643Y-58007593D01*
X299286738Y-57969498D01*
X299362929Y-57931402D01*
X299972452Y-58731402D02*
X299972452Y-57931402D01*
X300429595Y-58731402D02*
X300086738Y-58274259D01*
X300429595Y-57931402D02*
X299972452Y-58388545D01*
G04 #@! TD*
M02*
