M48
;DRILL file {KiCad (5.0.0)} date 07/30/19 01:35:37
;FORMAT={-:-/ absolute / inch / decimal}
FMAT,2
INCH,TZ
T1C0.0669
T2C0.1200
T3C0.1201
T4C0.1570
T5C0.1575
%
G90
G05
M72
T1
X6.3105Y-3.5441
X6.7105Y-3.5441
X10.8119Y-6.5441
X11.2119Y-6.5441
X7.3418Y-6.5441
X7.7418Y-6.5441
X2.8418Y-5.0441
X3.2418Y-5.0441
X12.0293Y-5.7941
X12.4293Y-5.7941
X13.8105Y-6.5441
X14.2105Y-6.5441
X10.8105Y-3.5441
X11.2105Y-3.5441
X5.748Y-5.7941
X6.148Y-5.7941
X10.0605Y-3.5441
X10.4605Y-3.5441
X6.4981Y-5.7941
X6.8981Y-5.7941
X5.5605Y-3.5441
X5.9605Y-3.5441
X2.6543Y-5.0441
X3.0543Y-5.0441
X13.0605Y-6.5441
X13.4605Y-6.5441
X12.5918Y-5.0441
X12.9918Y-5.0441
X10.623Y-5.0441
X11.023Y-5.0441
X9.3105Y-3.5441
X9.7105Y-3.5441
X4.998Y-5.7941
X5.398Y-5.7941
X8.9355Y-4.2941
X9.3355Y-4.2941
X5.1855Y-4.2941
X5.5855Y-4.2941
X5.373Y-5.0441
X5.773Y-5.0441
X4.8105Y-3.5441
X5.2105Y-3.5441
X12.873Y-4.2941
X13.273Y-4.2941
X9.4981Y-5.7941
X9.8981Y-5.7941
X2.6543Y-6.5441
X3.0543Y-6.5441
X11.9355Y-4.2941
X12.3355Y-4.2941
X6.123Y-5.0441
X6.523Y-5.0441
X7.4355Y-4.2941
X7.8355Y-4.2941
X9.123Y-5.0441
X9.523Y-5.0441
X8.1855Y-4.2941
X8.5855Y-4.2941
X2.5605Y-3.5441
X2.9605Y-3.5441
X7.623Y-5.0441
X8.023Y-5.0441
X2.748Y-6.544
X3.148Y-6.544
X11.5621Y-6.5441
X11.9621Y-6.5441
X13.8105Y-5.7941
X14.2105Y-5.7941
X4.5293Y-6.5441
X4.9293Y-6.5441
X6.6855Y-4.2941
X7.0855Y-4.2941
X4.623Y-5.0441
X5.023Y-5.0441
X9.6855Y-4.2941
X10.0855Y-4.2941
X8.373Y-5.0441
X8.773Y-5.0441
X4.4355Y-4.2941
X4.8355Y-4.2941
X6.873Y-5.0441
X7.273Y-5.0441
X10.1554Y-6.5441
X10.5554Y-6.5441
X10.2496Y-6.5441
X10.6496Y-6.5441
X3.5918Y-6.5441
X3.9918Y-6.5441
X10.2481Y-5.7941
X10.6481Y-5.7941
X8.7481Y-5.7941
X9.1481Y-5.7941
X11.1855Y-4.2941
X11.5855Y-4.2941
X9.873Y-5.0441
X10.273Y-5.0441
X13.8105Y-3.5441
X14.2105Y-3.5441
X3.873Y-5.0441
X4.273Y-5.0441
X7.8105Y-3.5441
X8.2105Y-3.5441
X11.5605Y-3.5441
X11.9605Y-3.5441
X11.373Y-5.0441
X11.773Y-5.0441
X11.3739Y-6.5441
X11.7739Y-6.5441
X10.0617Y-6.5441
X10.4617Y-6.5441
X7.0616Y-6.5445
X7.4616Y-6.5445
X13.0605Y-5.7941
X13.4605Y-5.7941
X3.0293Y-5.7941
X3.4293Y-5.7941
X12.3105Y-6.5441
X12.7105Y-6.5441
X10.4355Y-4.2941
X10.8355Y-4.2941
X4.248Y-5.7941
X4.648Y-5.7941
X8.5605Y-3.5441
X8.9605Y-3.5441
X3.3105Y-3.5441
X3.7105Y-3.5441
X13.8105Y-5.0441
X14.2105Y-5.0441
X13.8105Y-4.2941
X14.2105Y-4.2941
X11.0937Y-6.5441
X11.4937Y-6.5441
X7.0605Y-3.5441
X7.4605Y-3.5441
X10.9981Y-5.7941
X11.3981Y-5.7941
X12.6855Y-3.5441
X13.0855Y-3.5441
X2.748Y-4.2941
X3.148Y-4.2941
X3.6855Y-4.2941
X4.0855Y-4.2941
X7.9981Y-5.7941
X8.3981Y-5.7941
X5.9355Y-4.2941
X6.3355Y-4.2941
X4.0605Y-3.5441
X4.4605Y-3.5441
X7.2481Y-5.7941
X7.6481Y-5.7941
X3.874Y-6.544
X4.274Y-6.544
T2
X5.5741Y-6.8195
X9.5111Y-6.8195
X5.0116Y-6.8195
X9.5116Y-6.8195
T3
X2.7608Y-5.5186
X3.6978Y-5.5186
X12.417Y-3.2686
X13.354Y-3.2686
X12.3233Y-4.7686
X13.2603Y-4.7686
T4
X5.5741Y-6.2195
X9.5111Y-6.2195
X5.0116Y-6.2195
X9.5116Y-6.2195
T5
X13.2605Y-6.5441
X12.3233Y-5.3686
X12.7918Y-5.0441
X13.2603Y-5.3686
X10.823Y-5.0441
X9.5105Y-3.5441
X5.198Y-5.7941
X9.1355Y-4.2941
X5.3855Y-4.2941
X5.573Y-5.0441
X5.0105Y-3.5441
X13.073Y-4.2941
X9.6981Y-5.7941
X2.8543Y-6.5441
X12.1355Y-4.2941
X6.323Y-5.0441
X7.6355Y-4.2941
X9.323Y-5.0441
X8.3855Y-4.2941
X2.7605Y-3.5441
X7.823Y-5.0441
X2.948Y-6.544
X11.7621Y-6.5441
X14.0105Y-5.7941
X4.7293Y-6.5441
X6.8855Y-4.2941
X4.823Y-5.0441
X9.8855Y-4.2941
X8.573Y-5.0441
X4.6355Y-4.2941
X7.073Y-5.0441
X10.3554Y-6.5441
X10.4496Y-6.5441
X3.7918Y-6.5441
X10.4481Y-5.7941
X8.9481Y-5.7941
X11.3855Y-4.2941
X10.073Y-5.0441
X14.0105Y-3.5441
X4.073Y-5.0441
X8.0105Y-3.5441
X11.7605Y-3.5441
X11.573Y-5.0441
X11.5739Y-6.5441
X10.2617Y-6.5441
X7.2616Y-6.5445
X13.2605Y-5.7941
X2.7608Y-6.1186
X3.2293Y-5.7941
X3.6978Y-6.1186
X12.5105Y-6.5441
X10.6355Y-4.2941
X4.448Y-5.7941
X8.7605Y-3.5441
X3.5105Y-3.5441
X14.0105Y-5.0441
X14.0105Y-4.2941
X11.2937Y-6.5441
X7.2605Y-3.5441
X11.1981Y-5.7941
X12.417Y-3.8686
X12.8855Y-3.5441
X13.354Y-3.8686
X2.948Y-4.2941
X3.8855Y-4.2941
X8.1981Y-5.7941
X6.1355Y-4.2941
X4.2605Y-3.5441
X7.4481Y-5.7941
X4.074Y-6.544
X6.5105Y-3.5441
X11.0119Y-6.5441
X7.5418Y-6.5441
X3.0418Y-5.0441
X12.2293Y-5.7941
X14.0105Y-6.5441
X11.0105Y-3.5441
X5.948Y-5.7941
X10.2605Y-3.5441
X6.6981Y-5.7941
X5.7605Y-3.5441
X2.8543Y-5.0441
T0
M30
