M48
;DRILL file {KiCad (5.0.0)} date 09/06/19 23:32:40
;FORMAT={-:-/ absolute / inch / decimal}
FMAT,2
INCH,TZ
T1C0.0157
T2C0.0236
T3C0.0276
T4C0.0315
T5C0.0354
T6C0.0400
T7C0.0433
T8C0.0591
T9C0.0866
%
G90
G05
M72
T1
X2.5345Y-3.2172
X4.3965Y-4.7017
X5.2776Y-6.8146
X8.6305Y-6.8256
X9.0748Y-2.5055
X9.5206Y-2.3912
X9.5867Y-2.5423
X9.6397Y-2.5269
X9.6652Y-2.4759
X10.0779Y-2.4604
X10.0806Y-2.5861
X10.1075Y-6.632
X10.1125Y-2.5085
X10.1172Y-2.4118
X10.1275Y-2.4693
X10.2908Y-4.5977
X10.3947Y-2.2677
X10.5937Y-2.1845
X10.6226Y-2.3457
X10.8042Y-2.199
X10.9695Y-2.3181
X11.1002Y-4.6149
X11.154Y-2.4693
X11.1567Y-6.6238
X11.165Y-2.2551
X11.1828Y-2.4979
X11.2442Y-2.5215
X11.4254Y-6.6272
X11.5361Y-2.387
X11.6118Y-2.2148
X11.6704Y-2.2212
X11.6727Y-6.6327
X12.0226Y-2.8975
X12.1685Y-2.4159
X12.2162Y-3.315
X12.269Y-2.4159
X12.3696Y-2.4159
X12.4702Y-2.4159
X12.5708Y-2.4159
X12.6633Y-2.6157
X12.6713Y-2.4159
X12.7182Y-2.7146
X12.7191Y-2.8934
X12.7467Y-3.2771
X12.7584Y-5.6262
X12.7719Y-2.4159
X12.7719Y-2.6185
X12.8629Y-2.6185
X12.9621Y-2.6185
X12.9788Y-2.2933
X13.0401Y-3.4617
X13.3901Y-6.4867
X13.7538Y-3.5074
X11.0766Y-2.3746
X11.0768Y-2.4267
X11.11Y-2.3746
X11.1102Y-2.4267
X11.1435Y-2.3746
X11.1437Y-2.4267
X11.177Y-2.3746
X11.1772Y-2.4267
X11.2104Y-2.3746
X11.2106Y-2.4267
X11.2439Y-2.3746
X11.2441Y-2.4267
X11.2774Y-2.3746
X11.2776Y-2.4267
X11.311Y-2.3746
X11.311Y-2.4267
T2
X11.4667Y-2.5257
X11.4667Y-2.5847
T3
X11.6352Y-2.5916
X11.9352Y-2.5916
X10.8986Y-2.1495
X10.8986Y-2.3503
X11.6352Y-2.8892
X11.9352Y-2.8892
X11.6352Y-2.2961
X11.9352Y-2.2961
X11.6352Y-2.6929
X11.9352Y-2.6929
X11.6352Y-2.3943
X11.9352Y-2.3943
X11.6352Y-2.4924
X11.9352Y-2.4924
X11.6352Y-2.7911
X11.9352Y-2.7911
T4
X6.0151Y-2.5996
X6.0151Y-2.7996
X4.5177Y-2.5996
X4.5177Y-2.7996
X2.8955Y-2.5345
X2.8955Y-2.7345
X3.8938Y-2.5345
X3.8938Y-2.7345
X6.7638Y-2.4694
X6.7638Y-2.6694
X9.1326Y-2.6647
X9.1326Y-2.8647
X11.5335Y-2.6933
X11.5335Y-2.8933
X3.5194Y-2.5996
X3.5194Y-2.7996
X5.1416Y-2.6647
X5.1416Y-2.8647
X7.6372Y-2.6647
X7.6372Y-2.8647
X7.0133Y-2.5996
X7.0133Y-2.7996
X8.3859Y-2.5345
X8.3859Y-2.7345
X5.7655Y-2.4694
X5.7655Y-2.6694
X4.892Y-2.5345
X4.892Y-2.7345
X7.762Y-2.4694
X7.762Y-2.6694
X12.8838Y-2.912
X13.0806Y-2.912
X10.1225Y-2.6647
X10.1225Y-2.8647
X8.2611Y-2.4694
X8.2611Y-2.6694
X9.6288Y-2.6647
X9.6288Y-2.8647
X7.1381Y-2.6647
X7.1381Y-2.8647
X4.0186Y-2.5996
X4.0186Y-2.7996
X5.0168Y-2.5996
X5.0168Y-2.7996
X2.7707Y-2.4694
X2.7707Y-2.6694
X9.2567Y-2.4694
X9.2567Y-2.6694
X13.3523Y-2.9726
X13.5444Y-2.9726
X8.7603Y-2.4694
X8.7603Y-2.6694
X10.4947Y-2.5996
X10.4947Y-2.7996
X6.639Y-2.6647
X6.639Y-2.8647
X5.6407Y-2.6647
X5.6407Y-2.8647
X6.5142Y-2.5996
X6.5142Y-2.7996
X10.9933Y-2.5996
X10.9933Y-2.7996
X3.0203Y-2.5996
X3.0203Y-2.7996
X3.1451Y-2.6647
X3.1451Y-2.8647
X9.9985Y-2.5996
X9.9985Y-2.7996
X13.1676Y-2.9431
X13.1676Y-3.0415
X5.8903Y-2.5345
X5.8903Y-2.7345
X12.0681Y-2.2203
X12.0681Y-2.8203
X12.1681Y-2.2203
X12.1681Y-2.8203
X12.2681Y-2.2203
X12.2681Y-2.8203
X12.3681Y-2.2203
X12.3681Y-2.8203
X12.4681Y-2.2203
X12.4681Y-2.8203
X12.5681Y-2.2203
X12.5681Y-2.8203
X12.6681Y-2.2203
X12.6681Y-2.8203
X12.7681Y-2.2203
X12.7681Y-2.8203
X12.8681Y-2.2203
X12.8681Y-2.8203
X12.9681Y-2.2203
X12.9681Y-2.8203
X13.0681Y-2.2203
X13.0681Y-2.8203
X13.1681Y-2.2203
X13.1681Y-2.8203
X13.2681Y-2.2203
X13.2681Y-2.8203
X13.3681Y-2.2203
X13.3681Y-2.8203
X13.4681Y-2.2203
X13.4681Y-2.8203
X13.5681Y-2.2203
X13.5681Y-2.8203
X13.6681Y-2.2203
X13.6681Y-2.8203
X13.7681Y-2.2203
X13.7681Y-2.8203
X13.8681Y-2.2203
X13.8681Y-2.8203
X13.9681Y-2.2203
X13.9681Y-2.8203
X5.2664Y-2.4694
X5.2664Y-2.6694
X10.6187Y-2.6647
X10.6187Y-2.8647
X10.8717Y-2.5345
X10.8717Y-2.7345
X6.2646Y-2.4694
X6.2646Y-2.6694
X4.6425Y-2.6647
X4.6425Y-2.8647
X10.2466Y-2.4694
X10.2466Y-2.6694
X9.5047Y-2.5996
X9.5047Y-2.7996
X3.3947Y-2.5345
X3.3947Y-2.7345
X9.3807Y-2.5345
X9.3807Y-2.7345
X3.6442Y-2.6647
X3.6442Y-2.8647
X7.2629Y-2.4694
X7.2629Y-2.6694
X13.7277Y-2.9431
X13.7277Y-3.0415
X4.2681Y-2.4694
X4.2681Y-2.6694
X9.8769Y-2.5345
X9.8769Y-2.7345
X10.7428Y-2.4694
X10.7428Y-2.6694
X4.7673Y-2.4694
X4.7673Y-2.6694
X8.6355Y-2.6647
X8.6355Y-2.8647
X10.3706Y-2.5345
X10.3706Y-2.7345
X8.5107Y-2.5996
X8.5107Y-2.7996
X7.8868Y-2.5345
X7.8868Y-2.7345
X8.8844Y-2.5345
X8.8844Y-2.7345
X3.769Y-2.4694
X3.769Y-2.6694
X11.1149Y-2.6647
X11.1149Y-2.8647
X11.4205Y-2.6933
X11.4205Y-2.8933
X9.7528Y-2.4694
X9.7528Y-2.6694
X9.0085Y-2.5996
X9.0085Y-2.7996
X4.1433Y-2.6647
X4.1433Y-2.8647
X3.2699Y-2.4694
X3.2699Y-2.6694
X7.3877Y-2.5345
X7.3877Y-2.7345
X7.5125Y-2.5996
X7.5125Y-2.7996
X5.5159Y-2.5996
X5.5159Y-2.7996
X8.0116Y-2.5996
X8.0116Y-2.7996
X6.3894Y-2.5345
X6.3894Y-2.7345
X4.3929Y-2.5345
X4.3929Y-2.7345
X5.3912Y-2.5345
X5.3912Y-2.7345
X13.067Y-2.1328
X13.2639Y-2.1328
X6.1399Y-2.6647
X6.1399Y-2.8647
X6.8885Y-2.5345
X6.8885Y-2.7345
X8.1364Y-2.6647
X8.1364Y-2.8647
T5
X11.4529Y-2.2527
X11.5529Y-2.2527
T6
X10.1177Y-2.1889
X10.1177Y-2.2889
X10.2177Y-2.1889
X10.2177Y-2.2889
X10.3177Y-2.1889
X10.3177Y-2.2889
T7
X9.656Y-2.1686
X9.656Y-2.3458
X9.9119Y-2.1686
X9.9119Y-2.3458
X9.1836Y-2.1686
X9.1836Y-2.3458
X9.4395Y-2.1686
X9.4395Y-2.3458
T8
X7.3918Y-6.4441
X7.6418Y-6.3441
X2.798Y-6.444
X3.048Y-6.344
X10.2981Y-5.6941
X10.5481Y-5.5941
X13.1105Y-5.6941
X13.3605Y-5.5941
X6.3605Y-3.4441
X6.6105Y-3.3441
X12.923Y-4.1941
X13.173Y-4.0941
X11.6105Y-3.4441
X11.8605Y-3.3441
X2.7043Y-6.4441
X2.9543Y-6.3441
X9.173Y-4.9441
X9.423Y-4.8441
X2.6105Y-3.4441
X2.8605Y-3.3441
X7.673Y-4.9441
X7.923Y-4.8441
X7.4855Y-4.1941
X7.7355Y-4.0941
X13.8605Y-5.6941
X14.1105Y-5.5941
X10.8619Y-6.4441
X11.1119Y-6.3441
X9.923Y-4.9441
X10.173Y-4.8441
X5.798Y-5.6941
X6.048Y-5.5941
X4.4855Y-4.1941
X4.7355Y-4.0941
X2.798Y-4.1941
X3.048Y-4.0941
X4.1105Y-3.4441
X4.3605Y-3.3441
X11.6121Y-6.4441
X11.8621Y-6.3441
X4.673Y-4.9441
X4.923Y-4.8441
X10.1105Y-3.4441
X10.3605Y-3.3441
X6.923Y-4.9441
X7.173Y-4.8441
X10.673Y-4.9441
X10.923Y-4.8441
X5.048Y-5.6941
X5.298Y-5.5941
X2.7043Y-4.9441
X2.9543Y-4.8441
X6.5481Y-5.6941
X6.7981Y-5.5941
X2.8918Y-4.9441
X3.1418Y-4.8441
X9.3605Y-3.4441
X9.6105Y-3.3441
X3.6418Y-6.4441
X3.8918Y-6.3441
X8.6105Y-3.4441
X8.8605Y-3.3441
X12.0793Y-5.6941
X12.3293Y-5.5941
X11.9855Y-4.1941
X12.2355Y-4.0941
X7.1105Y-3.4441
X7.3605Y-3.3441
X6.173Y-4.9441
X6.423Y-4.8441
X7.1116Y-6.4445
X7.3616Y-6.3445
X13.8605Y-4.9441
X14.1105Y-4.8441
X11.423Y-4.9441
X11.673Y-4.8441
X5.6105Y-3.4441
X5.8605Y-3.3441
X4.8605Y-3.4441
X5.1105Y-3.3441
X13.8605Y-6.4441
X14.1105Y-6.3441
X8.423Y-4.9441
X8.673Y-4.8441
X7.8605Y-3.4441
X8.1105Y-3.3441
X5.423Y-4.9441
X5.673Y-4.8441
X11.4239Y-6.4441
X11.6739Y-6.3441
X8.7981Y-5.6941
X9.0481Y-5.5941
X9.5481Y-5.6941
X9.7981Y-5.5941
X13.1105Y-6.4441
X13.3605Y-6.3441
X5.2355Y-4.1941
X5.4855Y-4.0941
X6.7355Y-4.1941
X6.9855Y-4.0941
X3.7355Y-4.1941
X3.9855Y-4.0941
X13.8605Y-4.1941
X14.1105Y-4.0941
X5.9855Y-4.1941
X6.2355Y-4.0941
X10.2996Y-6.4441
X10.5496Y-6.3441
X8.0481Y-5.6941
X8.2981Y-5.5941
X7.2981Y-5.6941
X7.5481Y-5.5941
X3.0793Y-5.6941
X3.3293Y-5.5941
X10.4855Y-4.1941
X10.7355Y-4.0941
X13.8605Y-3.4441
X14.1105Y-3.3441
X4.5793Y-6.4441
X4.8293Y-6.3441
X3.923Y-4.9441
X4.173Y-4.8441
X11.2355Y-4.1941
X11.4855Y-4.0941
X12.3605Y-6.4441
X12.6105Y-6.3441
X3.924Y-6.444
X4.174Y-6.344
X11.0481Y-5.6941
X11.2981Y-5.5941
X10.1117Y-6.4441
X10.3617Y-6.3441
X4.298Y-5.6941
X4.548Y-5.5941
X12.6418Y-4.9441
X12.8918Y-4.8441
X3.3605Y-3.4441
X3.6105Y-3.3441
X12.7355Y-3.4441
X12.9855Y-3.3441
X9.7355Y-4.1941
X9.9855Y-4.0941
X10.8605Y-3.4441
X11.1105Y-3.3441
X8.9855Y-4.1941
X9.2355Y-4.0941
X8.2355Y-4.1941
X8.4855Y-4.0941
T9
X14.2026Y-2.9712
X4.0686Y-6.1573
X12.7023Y-6.1573
X12.0255Y-3.9193
X4.7453Y-3.9193
X8.3854Y-3.9193
X14.2026Y-2.2499
X2.5682Y-2.9712
X2.5682Y-2.2499
X8.3854Y-6.3861
T2
X11.0236Y-2.2708G85X11.0236Y-2.2393
G05
X11.0236Y-2.4177G85X11.0236Y-2.3586
G05
X11.3642Y-2.2708G85X11.3642Y-2.2393
G05
X11.3642Y-2.4177G85X11.3642Y-2.3586
G05
T0
M30
