  0
SECTION
  2
HEADER
  9
$ACADVER
  1
AC1009
  9
$INSBASE
 10
0.0
 20
0.0
 30
0.0
  9
$EXTMIN
 10
0.0
 20
0.0
 30
0.0
  9
$EXTMAX
 10
0.0
 20
0.0
 30
0.0
  0
ENDSEC
  0
SECTION
  2
TABLES
  0
TABLE
  2
VPORT
 70
0
  0
ENDTAB
  0
TABLE
  2
LTYPE
 70
1
  0
LTYPE
  2
CONTINUOUS
 70
0
  3
Solid line
 72
65
 73
0
 40
0.0
  0
ENDTAB
  0
TABLE
  2
LAYER
 70
1
  0
LAYER
  2
0
 70
64
 62
7
  6
continuous
  0
ENDTAB
  0
TABLE
  2
STYLE
 70
1
  0
STYLE
  2
STANDARD
 70
0
 40
0
 41
1.0
 50
0.0
 71
0
 42
1
 3
ARIAL.TTF
 4

  0
ENDTAB
  0
TABLE
  2
VIEW
 70
0
  0
ENDTAB
  0
ENDSEC
  0
SECTION
  2
BLOCKS
  0
BLOCK
  8
0
  2
PART__FEATURE
 70
0
 10
0.0
 20
0.0
 30
0.0
  3
PART__FEATURE
  0
ARC
  8
0
 62
0
 10
56.647558
 20
-94.629959
 30
0.0
 40
3.307059
 50
90.0
 51
-180.0
  0
LINE
  8
0
 62
0
 10
56.647558
 20
-91.3229
 30
0.0
 11
355.783441
 21
-91.3229
 31
0.0
  0
LINE
  8
0
 62
0
 10
53.340499
 20
-184.218841
 30
0.0
 11
53.340499
 21
-94.629959
 31
0.0
  0
ARC
  8
0
 62
0
 10
56.647558
 20
-184.215841
 30
0.0
 40
3.307060360725
 50
-179.94802412312794
 51
-89.94802412312895
  0
LINE
  8
0
 62
0
 10
355.783441
 20
-187.522901
 30
0.0
 11
56.65055799999999
 21
-187.5229
 31
0.0
  0
ARC
  8
0
 62
0
 10
355.783441
 20
-184.215842
 30
0.0
 40
3.307059
 50
-90.0
 51
-0.0
  0
LINE
  8
0
 62
0
 10
359.0905
 20
-94.629959
 30
0.0
 11
359.0905
 21
-184.215842
 31
0.0
  0
ARC
  8
0
 62
0
 10
355.783441
 20
-94.629959
 30
0.0
 40
3.307059
 50
-0.0
 51
90.0
  0
LINE
  8
0
 62
0
 10
141.778
 20
-145.422901
 30
0.0
 11
141.778
 21
-133.422901
 31
0.0
  0
ARC
  8
0
 62
0
 10
140.778
 20
-145.422901
 30
0.0
 40
1.0
 50
-90.0
 51
-0.0
  0
LINE
  8
0
 62
0
 10
128.778
 20
-146.422901
 30
0.0
 11
140.778
 21
-146.42290100000002
 31
0.0
  0
ARC
  8
0
 62
0
 10
128.778
 20
-145.422901
 30
0.0
 40
1.0
 50
-180.0
 51
-90.0
  0
LINE
  8
0
 62
0
 10
127.778
 20
-133.422901
 30
0.0
 11
127.77800000000002
 21
-145.422901
 31
0.0
  0
ARC
  8
0
 62
0
 10
128.778
 20
-133.422901
 30
0.0
 40
1.0
 50
90.0
 51
-180.0
  0
LINE
  8
0
 62
0
 10
140.778
 20
-132.422901
 30
0.0
 11
128.778
 21
-132.422901
 31
0.0
  0
ARC
  8
0
 62
0
 10
140.778
 20
-133.422901
 30
0.0
 40
1.0
 50
-0.0
 51
90.0
  0
LINE
  8
0
 62
0
 10
166.878
 20
-146.422901
 30
0.0
 11
178.878
 21
-146.422901
 31
0.0
  0
ARC
  8
0
 62
0
 10
166.878
 20
-145.422901
 30
0.0
 40
1.0
 50
-180.0
 51
-90.0
  0
LINE
  8
0
 62
0
 10
165.878
 20
-133.422901
 30
0.0
 11
165.878
 21
-145.422901
 31
0.0
  0
ARC
  8
0
 62
0
 10
166.878
 20
-133.422901
 30
0.0
 40
1.0
 50
90.0
 51
-180.0
  0
LINE
  8
0
 62
0
 10
178.878
 20
-132.422901
 30
0.0
 11
166.878
 21
-132.422901
 31
0.0
  0
ARC
  8
0
 62
0
 10
178.878
 20
-133.422901
 30
0.0
 40
1.0
 50
-0.0
 51
90.0
  0
LINE
  8
0
 62
0
 10
179.878
 20
-145.422901
 30
0.0
 11
179.878
 21
-133.422901
 31
0.0
  0
ARC
  8
0
 62
0
 10
178.878
 20
-145.422901
 30
0.0
 40
1.0
 50
-90.0
 51
-0.0
  0
ARC
  8
0
 62
0
 10
147.828
 20
-145.422901
 30
0.0
 40
1.0
 50
-180.0
 51
-90.0
  0
LINE
  8
0
 62
0
 10
146.828
 20
-145.422901
 30
0.0
 11
146.828
 21
-133.422901
 31
0.0
  0
ARC
  8
0
 62
0
 10
147.828
 20
-133.422901
 30
0.0
 40
1.0
 50
90.0
 51
-180.0
  0
LINE
  8
0
 62
0
 10
147.828
 20
-132.422901
 30
0.0
 11
159.828
 21
-132.422901
 31
0.0
  0
ARC
  8
0
 62
0
 10
159.828
 20
-133.422901
 30
0.0
 40
1.0
 50
-0.0
 51
90.0
  0
LINE
  8
0
 62
0
 10
160.828
 20
-133.422901
 30
0.0
 11
160.828
 21
-145.422901
 31
0.0
  0
ARC
  8
0
 62
0
 10
159.828
 20
-145.422901
 30
0.0
 40
1.0
 50
-90.0
 51
-0.0
  0
LINE
  8
0
 62
0
 10
159.828
 20
-146.422901
 30
0.0
 11
147.828
 21
-146.422901
 31
0.0
  0
ARC
  8
0
 62
0
 10
174.1155
 20
-126.372901
 30
0.0
 40
1.0
 50
-90.0
 51
-0.0
  0
LINE
  8
0
 62
0
 10
174.1155
 20
-127.372901
 30
0.0
 11
162.1155
 21
-127.372901
 31
0.0
  0
ARC
  8
0
 62
0
 10
162.1155
 20
-126.372901
 30
0.0
 40
1.0
 50
-180.0
 51
-90.0
  0
LINE
  8
0
 62
0
 10
161.1155
 20
-126.372901
 30
0.0
 11
161.1155
 21
-114.372901
 31
0.0
  0
ARC
  8
0
 62
0
 10
162.1155
 20
-114.372901
 30
0.0
 40
1.0
 50
90.0
 51
-180.0
  0
LINE
  8
0
 62
0
 10
162.1155
 20
-113.372901
 30
0.0
 11
174.1155
 21
-113.372901
 31
0.0
  0
ARC
  8
0
 62
0
 10
174.1155
 20
-114.372901
 30
0.0
 40
1.0
 50
-0.0
 51
90.0
  0
LINE
  8
0
 62
0
 10
175.1155
 20
-114.372901
 30
0.0
 11
175.1155
 21
-126.372901
 31
0.0
  0
ARC
  8
0
 62
0
 10
124.0155
 20
-114.372901
 30
0.0
 40
1.0
 50
90.0
 51
-180.0
  0
LINE
  8
0
 62
0
 10
124.0155
 20
-113.372901
 30
0.0
 11
136.0155
 21
-113.372901
 31
0.0
  0
ARC
  8
0
 62
0
 10
136.0155
 20
-114.372901
 30
0.0
 40
1.0
 50
-0.0
 51
90.0
  0
LINE
  8
0
 62
0
 10
137.0155
 20
-114.372901
 30
0.0
 11
137.0155
 21
-126.372901
 31
0.0
  0
ARC
  8
0
 62
0
 10
136.0155
 20
-126.372901
 30
0.0
 40
1.0
 50
-90.0
 51
-0.0
  0
LINE
  8
0
 62
0
 10
136.0155
 20
-127.372901
 30
0.0
 11
124.0155
 21
-127.372901
 31
0.0
  0
ARC
  8
0
 62
0
 10
124.0155
 20
-126.372901
 30
0.0
 40
1.0
 50
-180.0
 51
-90.0
  0
LINE
  8
0
 62
0
 10
123.0155
 20
-126.372901
 30
0.0
 11
123.0155
 21
-114.372901
 31
0.0
  0
LINE
  8
0
 62
0
 10
155.0655
 20
-113.372901
 30
0.0
 11
143.0655
 21
-113.372901
 31
0.0
  0
ARC
  8
0
 62
0
 10
155.0655
 20
-114.372901
 30
0.0
 40
1.0
 50
-0.0
 51
90.0
  0
LINE
  8
0
 62
0
 10
156.0655
 20
-126.372901
 30
0.0
 11
156.0655
 21
-114.372901
 31
0.0
  0
ARC
  8
0
 62
0
 10
155.0655
 20
-126.372901
 30
0.0
 40
1.0
 50
-90.0
 51
-0.0
  0
LINE
  8
0
 62
0
 10
143.0655
 20
-127.372901
 30
0.0
 11
155.0655
 21
-127.372901
 31
0.0
  0
ARC
  8
0
 62
0
 10
143.0655
 20
-126.372901
 30
0.0
 40
1.0
 50
-180.0
 51
-90.0
  0
LINE
  8
0
 62
0
 10
142.0655
 20
-114.372901
 30
0.0
 11
142.0655
 21
-126.372901
 31
0.0
  0
ARC
  8
0
 62
0
 10
143.0655
 20
-114.372901
 30
0.0
 40
1.0
 50
90.0
 51
-180.0
  0
ARC
  8
0
 62
0
 10
200.2155
 20
-114.372901
 30
0.0
 40
1.0
 50
90.0
 51
-180.0
  0
LINE
  8
0
 62
0
 10
200.2155
 20
-113.372901
 30
0.0
 11
212.2155
 21
-113.372901
 31
0.0
  0
ARC
  8
0
 62
0
 10
212.2155
 20
-114.372901
 30
0.0
 40
1.0
 50
-0.0
 51
90.0
  0
LINE
  8
0
 62
0
 10
213.2155
 20
-114.372901
 30
0.0
 11
213.2155
 21
-126.372901
 31
0.0
  0
ARC
  8
0
 62
0
 10
212.2155
 20
-126.372901
 30
0.0
 40
1.0
 50
-90.0
 51
-0.0
  0
LINE
  8
0
 62
0
 10
212.2155
 20
-127.372901
 30
0.0
 11
200.2155
 21
-127.372901
 31
0.0
  0
ARC
  8
0
 62
0
 10
200.2155
 20
-126.372901
 30
0.0
 40
1.0
 50
-180.0
 51
-90.0
  0
LINE
  8
0
 62
0
 10
199.2155
 20
-126.372901
 30
0.0
 11
199.2155
 21
-114.372901
 31
0.0
  0
ARC
  8
0
 62
0
 10
193.1655
 20
-126.372901
 30
0.0
 40
1.0
 50
-90.0
 51
-0.0
  0
LINE
  8
0
 62
0
 10
193.1655
 20
-127.372901
 30
0.0
 11
181.1655
 21
-127.372901
 31
0.0
  0
ARC
  8
0
 62
0
 10
181.1655
 20
-126.372901
 30
0.0
 40
1.0
 50
-180.0
 51
-90.0
  0
LINE
  8
0
 62
0
 10
180.1655
 20
-126.372901
 30
0.0
 11
180.1655
 21
-114.372901
 31
0.0
  0
ARC
  8
0
 62
0
 10
181.1655
 20
-114.372901
 30
0.0
 40
1.0
 50
90.0
 51
-180.0
  0
LINE
  8
0
 62
0
 10
181.1655
 20
-113.372901
 30
0.0
 11
193.1655
 21
-113.372901
 31
0.0
  0
ARC
  8
0
 62
0
 10
193.1655
 20
-114.372901
 30
0.0
 40
1.0
 50
-0.0
 51
90.0
  0
LINE
  8
0
 62
0
 10
194.1655
 20
-114.372901
 30
0.0
 11
194.1655
 21
-126.372901
 31
0.0
  0
LINE
  8
0
 62
0
 10
184.928
 20
-133.422901
 30
0.0
 11
184.928
 21
-145.422901
 31
0.0
  0
ARC
  8
0
 62
0
 10
185.928
 20
-133.422901
 30
0.0
 40
1.0
 50
90.0
 51
-180.0
  0
LINE
  8
0
 62
0
 10
197.928
 20
-132.422901
 30
0.0
 11
185.928
 21
-132.422901
 31
0.0
  0
ARC
  8
0
 62
0
 10
197.928
 20
-133.422901
 30
0.0
 40
1.0
 50
-0.0
 51
90.0
  0
LINE
  8
0
 62
0
 10
198.928
 20
-145.422901
 30
0.0
 11
198.928
 21
-133.422901
 31
0.0
  0
ARC
  8
0
 62
0
 10
197.928
 20
-145.422901
 30
0.0
 40
1.0
 50
-90.0
 51
-0.0
  0
LINE
  8
0
 62
0
 10
185.928
 20
-146.422901
 30
0.0
 11
197.928
 21
-146.422901
 31
0.0
  0
ARC
  8
0
 62
0
 10
185.928
 20
-145.422901
 30
0.0
 40
1.0
 50
-180.0
 51
-90.0
  0
ARC
  8
0
 62
0
 10
204.978
 20
-133.422901
 30
0.0
 40
1.0
 50
90.0
 51
-180.0
  0
LINE
  8
0
 62
0
 10
216.978
 20
-132.422901
 30
0.0
 11
204.978
 21
-132.422901
 31
0.0
  0
ARC
  8
0
 62
0
 10
216.978
 20
-133.422901
 30
0.0
 40
1.0
 50
-0.0
 51
90.0
  0
LINE
  8
0
 62
0
 10
217.978
 20
-145.422901
 30
0.0
 11
217.978
 21
-133.422901
 31
0.0
  0
ARC
  8
0
 62
0
 10
216.978
 20
-145.422901
 30
0.0
 40
1.0
 50
-90.0
 51
-0.0
  0
LINE
  8
0
 62
0
 10
204.978
 20
-146.422901
 30
0.0
 11
216.978
 21
-146.422901
 31
0.0
  0
ARC
  8
0
 62
0
 10
204.978
 20
-145.422901
 30
0.0
 40
1.0
 50
-180.0
 51
-90.0
  0
LINE
  8
0
 62
0
 10
203.978
 20
-133.422901
 30
0.0
 11
203.978
 21
-145.422901
 31
0.0
  0
LINE
  8
0
 62
0
 10
207.453
 20
-151.4729
 30
0.0
 11
195.453
 21
-151.472901
 31
0.0
  0
ARC
  8
0
 62
0
 10
207.453
 20
-152.4729
 30
0.0
 40
1.0
 50
-0.0
 51
90.0
  0
LINE
  8
0
 62
0
 10
208.453
 20
-164.472901
 30
0.0
 11
208.453
 21
-152.4729
 31
0.0
  0
ARC
  8
0
 62
0
 10
207.453
 20
-164.472901
 30
0.0
 40
1.0
 50
-90.0
 51
-0.0
  0
LINE
  8
0
 62
0
 10
195.453
 20
-165.472901
 30
0.0
 11
207.453
 21
-165.4729
 31
0.0
  0
ARC
  8
0
 62
0
 10
195.453
 20
-164.472901
 30
0.0
 40
1.0
 50
-180.0
 51
-90.0
  0
LINE
  8
0
 62
0
 10
194.453
 20
-152.4729
 30
0.0
 11
194.453
 21
-164.472901
 31
0.0
  0
ARC
  8
0
 62
0
 10
195.453
 20
-152.4729
 30
0.0
 40
1.0
 50
90.0
 51
-180.0
  0
LINE
  8
0
 62
0
 10
175.403
 20
-152.4729
 30
0.0
 11
175.403
 21
-164.472901
 31
0.0
  0
ARC
  8
0
 62
0
 10
176.403
 20
-152.4729
 30
0.0
 40
1.0
 50
90.0
 51
-180.0
  0
LINE
  8
0
 62
0
 10
188.403
 20
-151.4729
 30
0.0
 11
176.403
 21
-151.472901
 31
0.0
  0
ARC
  8
0
 62
0
 10
188.403
 20
-152.4729
 30
0.0
 40
1.0
 50
-0.0
 51
90.0
  0
LINE
  8
0
 62
0
 10
189.403
 20
-164.472901
 30
0.0
 11
189.403
 21
-152.4729
 31
0.0
  0
ARC
  8
0
 62
0
 10
188.403
 20
-164.472901
 30
0.0
 40
1.0
 50
-90.0
 51
-0.0
  0
LINE
  8
0
 62
0
 10
176.403
 20
-165.472901
 30
0.0
 11
188.403
 21
-165.4729
 31
0.0
  0
ARC
  8
0
 62
0
 10
176.403
 20
-164.472901
 30
0.0
 40
1.0
 50
-180.0
 51
-90.0
  0
LINE
  8
0
 62
0
 10
157.353
 20
-165.472901
 30
0.0
 11
169.353
 21
-165.4729
 31
0.0
  0
ARC
  8
0
 62
0
 10
157.353
 20
-164.472901
 30
0.0
 40
1.0
 50
-180.0
 51
-90.0
  0
LINE
  8
0
 62
0
 10
156.353
 20
-152.4729
 30
0.0
 11
156.353
 21
-164.472901
 31
0.0
  0
ARC
  8
0
 62
0
 10
157.353
 20
-152.4729
 30
0.0
 40
1.0
 50
90.0
 51
-180.0
  0
LINE
  8
0
 62
0
 10
169.353
 20
-151.4729
 30
0.0
 11
157.353
 21
-151.472901
 31
0.0
  0
ARC
  8
0
 62
0
 10
169.353
 20
-152.4729
 30
0.0
 40
1.0
 50
-0.0
 51
90.0
  0
LINE
  8
0
 62
0
 10
170.353
 20
-164.472901
 30
0.0
 11
170.353
 21
-152.4729
 31
0.0
  0
ARC
  8
0
 62
0
 10
169.353
 20
-164.472901
 30
0.0
 40
1.0
 50
-90.0
 51
-0.0
  0
LINE
  8
0
 62
0
 10
118.253
 20
-152.4729
 30
0.0
 11
118.253
 21
-164.472901
 31
0.0
  0
ARC
  8
0
 62
0
 10
119.253
 20
-152.4729
 30
0.0
 40
1.0
 50
90.0
 51
-180.0
  0
LINE
  8
0
 62
0
 10
131.253
 20
-151.4729
 30
0.0
 11
119.253
 21
-151.472901
 31
0.0
  0
ARC
  8
0
 62
0
 10
131.253
 20
-152.4729
 30
0.0
 40
1.0
 50
-0.0
 51
90.0
  0
LINE
  8
0
 62
0
 10
132.253
 20
-164.472901
 30
0.0
 11
132.253
 21
-152.4729
 31
0.0
  0
ARC
  8
0
 62
0
 10
131.253
 20
-164.472901
 30
0.0
 40
1.0
 50
-90.0
 51
-0.0
  0
LINE
  8
0
 62
0
 10
119.253
 20
-165.472901
 30
0.0
 11
131.253
 21
-165.4729
 31
0.0
  0
ARC
  8
0
 62
0
 10
119.253
 20
-164.472901
 30
0.0
 40
1.0
 50
-180.0
 51
-90.0
  0
ARC
  8
0
 62
0
 10
150.302999
 20
-152.4729
 30
0.0
 40
1.0
 50
-0.0
 51
90.0
  0
LINE
  8
0
 62
0
 10
151.302999
 20
-164.472901
 30
0.0
 11
151.303
 21
-152.4729
 31
0.0
  0
ARC
  8
0
 62
0
 10
150.302999
 20
-164.472901
 30
0.0
 40
1.0
 50
-90.0
 51
-0.0
  0
LINE
  8
0
 62
0
 10
138.303
 20
-165.472901
 30
0.0
 11
150.302999
 21
-165.4729
 31
0.0
  0
ARC
  8
0
 62
0
 10
138.303
 20
-164.472901
 30
0.0
 40
1.0
 50
-180.0
 51
-90.0
  0
LINE
  8
0
 62
0
 10
137.303
 20
-152.4729
 30
0.0
 11
137.303
 21
-164.472901
 31
0.0
  0
ARC
  8
0
 62
0
 10
138.303
 20
-152.4729
 30
0.0
 40
1.0
 50
90.0
 51
-180.0
  0
LINE
  8
0
 62
0
 10
150.302999
 20
-151.4729
 30
0.0
 11
138.303
 21
-151.472901
 31
0.0
  0
LINE
  8
0
 62
0
 10
100.203
 20
-165.472901
 30
0.0
 11
112.203
 21
-165.4729
 31
0.0
  0
ARC
  8
0
 62
0
 10
100.203
 20
-164.472901
 30
0.0
 40
1.0
 50
-180.0
 51
-90.0
  0
LINE
  8
0
 62
0
 10
99.203
 20
-152.4729
 30
0.0
 11
99.203
 21
-164.472901
 31
0.0
  0
ARC
  8
0
 62
0
 10
100.203
 20
-152.4729
 30
0.0
 40
1.0
 50
90.0
 51
-180.0
  0
LINE
  8
0
 62
0
 10
112.203
 20
-151.4729
 30
0.0
 11
100.203
 21
-151.472901
 31
0.0
  0
ARC
  8
0
 62
0
 10
112.203
 20
-152.4729
 30
0.0
 40
1.0
 50
-0.0
 51
90.0
  0
LINE
  8
0
 62
0
 10
113.203
 20
-164.472901
 30
0.0
 11
113.203
 21
-152.4729
 31
0.0
  0
ARC
  8
0
 62
0
 10
112.203
 20
-164.472901
 30
0.0
 40
1.0
 50
-90.0
 51
-0.0
  0
ARC
  8
0
 62
0
 10
116.9655
 20
-114.372901
 30
0.0
 40
1.0
 50
-0.0
 51
90.0
  0
LINE
  8
0
 62
0
 10
117.9655
 20
-114.372901
 30
0.0
 11
117.9655
 21
-126.372901
 31
0.0
  0
ARC
  8
0
 62
0
 10
116.9655
 20
-126.372901
 30
0.0
 40
1.0
 50
-90.0
 51
-0.0
  0
LINE
  8
0
 62
0
 10
116.9655
 20
-127.372901
 30
0.0
 11
104.9655
 21
-127.372901
 31
0.0
  0
ARC
  8
0
 62
0
 10
104.9655
 20
-126.372901
 30
0.0
 40
1.0
 50
-180.0
 51
-90.0
  0
LINE
  8
0
 62
0
 10
103.9655
 20
-126.372901
 30
0.0
 11
103.9655
 21
-114.372901
 31
0.0
  0
ARC
  8
0
 62
0
 10
104.9655
 20
-114.372901
 30
0.0
 40
1.0
 50
90.0
 51
-180.0
  0
LINE
  8
0
 62
0
 10
104.9655
 20
-113.372901
 30
0.0
 11
116.9655
 21
-113.372901
 31
0.0
  0
ARC
  8
0
 62
0
 10
121.728
 20
-133.422901
 30
0.0
 40
1.0
 50
-0.0
 51
90.0
  0
LINE
  8
0
 62
0
 10
122.728
 20
-145.422901
 30
0.0
 11
122.728
 21
-133.422901
 31
0.0
  0
ARC
  8
0
 62
0
 10
121.728
 20
-145.422901
 30
0.0
 40
1.0
 50
-90.0
 51
-0.0
  0
LINE
  8
0
 62
0
 10
109.728
 20
-146.422901
 30
0.0
 11
121.728
 21
-146.422901
 31
0.0
  0
ARC
  8
0
 62
0
 10
109.728
 20
-145.422901
 30
0.0
 40
1.0
 50
-180.0
 51
-90.0
  0
LINE
  8
0
 62
0
 10
108.728
 20
-133.422901
 30
0.0
 11
108.728
 21
-145.422901
 31
0.0
  0
ARC
  8
0
 62
0
 10
109.728
 20
-133.422901
 30
0.0
 40
1.0
 50
90.0
 51
-180.0
  0
LINE
  8
0
 62
0
 10
121.728
 20
-132.422901
 30
0.0
 11
109.728
 21
-132.422901
 31
0.0
  0
LINE
  8
0
 62
0
 10
343.0905
 20
-165.472901
 30
0.0
 11
355.0905
 21
-165.4729
 31
0.0
  0
ARC
  8
0
 62
0
 10
343.0905
 20
-164.472901
 30
0.0
 40
1.0
 50
-180.0
 51
-90.0
  0
LINE
  8
0
 62
0
 10
342.0905
 20
-152.4729
 30
0.0
 11
342.0905
 21
-164.472901
 31
0.0
  0
ARC
  8
0
 62
0
 10
343.0905
 20
-152.4729
 30
0.0
 40
1.0
 50
90.0
 51
-180.0
  0
LINE
  8
0
 62
0
 10
355.0905
 20
-151.4729
 30
0.0
 11
343.0905
 21
-151.472901
 31
0.0
  0
ARC
  8
0
 62
0
 10
355.0905
 20
-152.4729
 30
0.0
 40
1.0
 50
-0.0
 51
90.0
  0
LINE
  8
0
 62
0
 10
356.0905
 20
-164.472901
 30
0.0
 11
356.0905
 21
-152.4729
 31
0.0
  0
ARC
  8
0
 62
0
 10
355.0905
 20
-164.472901
 30
0.0
 40
1.0
 50
-90.0
 51
-0.0
  0
ARC
  8
0
 62
0
 10
355.0905
 20
-145.422901
 30
0.0
 40
1.0
 50
-90.0
 51
-0.0
  0
LINE
  8
0
 62
0
 10
343.0905
 20
-146.422901
 30
0.0
 11
355.0905
 21
-146.422901
 31
0.0
  0
ARC
  8
0
 62
0
 10
343.0905
 20
-145.422901
 30
0.0
 40
1.0
 50
-180.0
 51
-90.0
  0
LINE
  8
0
 62
0
 10
342.0905
 20
-133.422901
 30
0.0
 11
342.0905
 21
-145.422901
 31
0.0
  0
ARC
  8
0
 62
0
 10
343.0905
 20
-133.422901
 30
0.0
 40
1.0
 50
90.0
 51
-180.0
  0
LINE
  8
0
 62
0
 10
355.0905
 20
-132.422901
 30
0.0
 11
343.0905
 21
-132.422901
 31
0.0
  0
ARC
  8
0
 62
0
 10
355.0905
 20
-133.422901
 30
0.0
 40
1.0
 50
-0.0
 51
90.0
  0
LINE
  8
0
 62
0
 10
356.0905
 20
-145.422901
 30
0.0
 11
356.0905
 21
-133.422901
 31
0.0
  0
LINE
  8
0
 62
0
 10
296.84675
 20
-152.4729
 30
0.0
 11
296.84675
 21
-164.472901
 31
0.0
  0
ARC
  8
0
 62
0
 10
297.84675
 20
-152.4729
 30
0.0
 40
1.0
 50
90.0
 51
-180.0
  0
LINE
  8
0
 62
0
 10
309.84675
 20
-151.4729
 30
0.0
 11
297.84675
 21
-151.472901
 31
0.0
  0
ARC
  8
0
 62
0
 10
309.84675
 20
-152.4729
 30
0.0
 40
1.0
 50
-0.0
 51
90.0
  0
LINE
  8
0
 62
0
 10
310.84675
 20
-164.472901
 30
0.0
 11
310.84675
 21
-152.4729
 31
0.0
  0
ARC
  8
0
 62
0
 10
309.84675
 20
-164.472901
 30
0.0
 40
1.0
 50
-90.0
 51
-0.0
  0
LINE
  8
0
 62
0
 10
297.84675
 20
-165.472901
 30
0.0
 11
309.84675
 21
-165.4729
 31
0.0
  0
ARC
  8
0
 62
0
 10
297.84675
 20
-164.472901
 30
0.0
 40
1.0
 50
-180.0
 51
-90.0
  0
LINE
  8
0
 62
0
 10
336.0405
 20
-151.4729
 30
0.0
 11
324.0405
 21
-151.472901
 31
0.0
  0
ARC
  8
0
 62
0
 10
336.0405
 20
-152.4729
 30
0.0
 40
1.0
 50
-0.0
 51
90.0
  0
LINE
  8
0
 62
0
 10
337.0405
 20
-164.472901
 30
0.0
 11
337.0405
 21
-152.4729
 31
0.0
  0
ARC
  8
0
 62
0
 10
336.0405
 20
-164.472901
 30
0.0
 40
1.0
 50
-90.0
 51
-0.0
  0
LINE
  8
0
 62
0
 10
324.0405
 20
-165.472901
 30
0.0
 11
336.0405
 21
-165.4729
 31
0.0
  0
ARC
  8
0
 62
0
 10
324.0405
 20
-164.472901
 30
0.0
 40
1.0
 50
-180.0
 51
-90.0
  0
LINE
  8
0
 62
0
 10
323.0405
 20
-152.4729
 30
0.0
 11
323.0405
 21
-164.472901
 31
0.0
  0
ARC
  8
0
 62
0
 10
324.0405
 20
-152.4729
 30
0.0
 40
1.0
 50
90.0
 51
-180.0
  0
ARC
  8
0
 62
0
 10
236.028
 20
-145.422901
 30
0.0
 40
1.0
 50
-90.0
 51
-0.0
  0
LINE
  8
0
 62
0
 10
236.028
 20
-146.422901
 30
0.0
 11
224.028
 21
-146.422901
 31
0.0
  0
ARC
  8
0
 62
0
 10
224.028
 20
-145.422901
 30
0.0
 40
1.0
 50
-180.0
 51
-90.0
  0
LINE
  8
0
 62
0
 10
223.028
 20
-145.422901
 30
0.0
 11
223.028
 21
-133.422901
 31
0.0
  0
ARC
  8
0
 62
0
 10
224.028
 20
-133.422901
 30
0.0
 40
1.0
 50
90.0
 51
-180.0
  0
LINE
  8
0
 62
0
 10
224.028
 20
-132.422901
 30
0.0
 11
236.028
 21
-132.422901
 31
0.0
  0
ARC
  8
0
 62
0
 10
236.028
 20
-133.422901
 30
0.0
 40
1.0
 50
-0.0
 51
90.0
  0
LINE
  8
0
 62
0
 10
237.028
 20
-133.422901
 30
0.0
 11
237.028
 21
-145.422901
 31
0.0
  0
ARC
  8
0
 62
0
 10
255.078
 20
-133.422901
 30
0.0
 40
1.0
 50
-0.0
 51
90.0
  0
LINE
  8
0
 62
0
 10
256.078
 20
-133.422901
 30
0.0
 11
256.078
 21
-145.422901
 31
0.0
  0
ARC
  8
0
 62
0
 10
255.078
 20
-145.422901
 30
0.0
 40
1.0
 50
-90.0
 51
-0.0
  0
LINE
  8
0
 62
0
 10
255.078
 20
-146.422901
 30
0.0
 11
243.078
 21
-146.422901
 31
0.0
  0
ARC
  8
0
 62
0
 10
243.078
 20
-145.422901
 30
0.0
 40
1.0
 50
-180.0
 51
-90.0
  0
LINE
  8
0
 62
0
 10
242.078
 20
-145.422901
 30
0.0
 11
242.078
 21
-133.422901
 31
0.0
  0
ARC
  8
0
 62
0
 10
243.078
 20
-133.422901
 30
0.0
 40
1.0
 50
90.0
 51
-180.0
  0
LINE
  8
0
 62
0
 10
243.078
 20
-132.422901
 30
0.0
 11
255.078
 21
-132.422901
 31
0.0
  0
LINE
  8
0
 62
0
 10
252.603
 20
-165.472901
 30
0.0
 11
264.603
 21
-165.4729
 31
0.0
  0
ARC
  8
0
 62
0
 10
252.603
 20
-164.472901
 30
0.0
 40
1.0
 50
-180.0
 51
-90.0
  0
LINE
  8
0
 62
0
 10
251.603
 20
-152.4729
 30
0.0
 11
251.603
 21
-164.472901
 31
0.0
  0
ARC
  8
0
 62
0
 10
252.603
 20
-152.4729
 30
0.0
 40
1.0
 50
90.0
 51
-180.0
  0
LINE
  8
0
 62
0
 10
264.603
 20
-151.4729
 30
0.0
 11
252.603
 21
-151.472901
 31
0.0
  0
ARC
  8
0
 62
0
 10
264.603
 20
-152.4729
 30
0.0
 40
1.0
 50
-0.0
 51
90.0
  0
LINE
  8
0
 62
0
 10
265.603
 20
-164.472901
 30
0.0
 11
265.603
 21
-152.4729
 31
0.0
  0
ARC
  8
0
 62
0
 10
264.603
 20
-164.472901
 30
0.0
 40
1.0
 50
-90.0
 51
-0.0
  0
LINE
  8
0
 62
0
 10
214.503
 20
-165.472901
 30
0.0
 11
226.503
 21
-165.4729
 31
0.0
  0
ARC
  8
0
 62
0
 10
214.503
 20
-164.472901
 30
0.0
 40
1.0
 50
-180.0
 51
-90.0
  0
LINE
  8
0
 62
0
 10
213.503
 20
-152.4729
 30
0.0
 11
213.503
 21
-164.472901
 31
0.0
  0
ARC
  8
0
 62
0
 10
214.503
 20
-152.4729
 30
0.0
 40
1.0
 50
90.0
 51
-180.0
  0
LINE
  8
0
 62
0
 10
226.503
 20
-151.4729
 30
0.0
 11
214.503
 21
-151.472901
 31
0.0
  0
ARC
  8
0
 62
0
 10
226.503
 20
-152.4729
 30
0.0
 40
1.0
 50
-0.0
 51
90.0
  0
LINE
  8
0
 62
0
 10
227.503
 20
-164.472901
 30
0.0
 11
227.503
 21
-152.4729
 31
0.0
  0
ARC
  8
0
 62
0
 10
226.503
 20
-164.472901
 30
0.0
 40
1.0
 50
-90.0
 51
-0.0
  0
LINE
  8
0
 62
0
 10
232.553
 20
-152.4729
 30
0.0
 11
232.553
 21
-164.472901
 31
0.0
  0
ARC
  8
0
 62
0
 10
233.553
 20
-152.4729
 30
0.0
 40
1.0
 50
90.0
 51
-180.0
  0
LINE
  8
0
 62
0
 10
245.553
 20
-151.4729
 30
0.0
 11
233.553
 21
-151.472901
 31
0.0
  0
ARC
  8
0
 62
0
 10
245.553
 20
-152.4729
 30
0.0
 40
1.0
 50
-0.0
 51
90.0
  0
LINE
  8
0
 62
0
 10
246.553
 20
-164.472901
 30
0.0
 11
246.553
 21
-152.4729
 31
0.0
  0
ARC
  8
0
 62
0
 10
245.553
 20
-164.472901
 30
0.0
 40
1.0
 50
-90.0
 51
-0.0
  0
LINE
  8
0
 62
0
 10
233.553
 20
-165.472901
 30
0.0
 11
245.553
 21
-165.4729
 31
0.0
  0
ARC
  8
0
 62
0
 10
233.553
 20
-164.472901
 30
0.0
 40
1.0
 50
-180.0
 51
-90.0
  0
ARC
  8
0
 62
0
 10
283.653
 20
-164.472901
 30
0.0
 40
1.0
 50
-90.0
 51
-0.0
  0
LINE
  8
0
 62
0
 10
271.653
 20
-165.472901
 30
0.0
 11
283.653
 21
-165.4729
 31
0.0
  0
ARC
  8
0
 62
0
 10
271.653
 20
-164.472901
 30
0.0
 40
1.0
 50
-180.0
 51
-90.0
  0
LINE
  8
0
 62
0
 10
270.653
 20
-152.4729
 30
0.0
 11
270.653
 21
-164.472901
 31
0.0
  0
ARC
  8
0
 62
0
 10
271.653
 20
-152.4729
 30
0.0
 40
1.0
 50
90.0
 51
-180.0
  0
LINE
  8
0
 62
0
 10
283.653
 20
-151.4729
 30
0.0
 11
271.653
 21
-151.472901
 31
0.0
  0
ARC
  8
0
 62
0
 10
283.653
 20
-152.4729
 30
0.0
 40
1.0
 50
-0.0
 51
90.0
  0
LINE
  8
0
 62
0
 10
284.653
 20
-164.472901
 30
0.0
 11
284.653
 21
-152.4729
 31
0.0
  0
LINE
  8
0
 62
0
 10
257.3655
 20
-127.372901
 30
0.0
 11
269.3655
 21
-127.372901
 31
0.0
  0
ARC
  8
0
 62
0
 10
257.3655
 20
-126.372901
 30
0.0
 40
1.0
 50
-180.0
 51
-90.0
  0
LINE
  8
0
 62
0
 10
256.3655
 20
-114.372901
 30
0.0
 11
256.3655
 21
-126.372901
 31
0.0
  0
ARC
  8
0
 62
0
 10
257.3655
 20
-114.372901
 30
0.0
 40
1.0
 50
90.0
 51
-180.0
  0
LINE
  8
0
 62
0
 10
269.3655
 20
-113.372901
 30
0.0
 11
257.3655
 21
-113.372901
 31
0.0
  0
ARC
  8
0
 62
0
 10
269.3655
 20
-114.372901
 30
0.0
 40
1.0
 50
-0.0
 51
90.0
  0
LINE
  8
0
 62
0
 10
270.3655
 20
-126.372901
 30
0.0
 11
270.3655
 21
-114.372901
 31
0.0
  0
ARC
  8
0
 62
0
 10
269.3655
 20
-126.372901
 30
0.0
 40
1.0
 50
-90.0
 51
-0.0
  0
ARC
  8
0
 62
0
 10
276.4155
 20
-126.372901
 30
0.0
 40
1.0
 50
-180.0
 51
-90.0
  0
LINE
  8
0
 62
0
 10
275.4155
 20
-114.372901
 30
0.0
 11
275.4155
 21
-126.372901
 31
0.0
  0
ARC
  8
0
 62
0
 10
276.4155
 20
-114.372901
 30
0.0
 40
1.0
 50
90.0
 51
-180.0
  0
LINE
  8
0
 62
0
 10
288.4155
 20
-113.372901
 30
0.0
 11
276.4155
 21
-113.372901
 31
0.0
  0
ARC
  8
0
 62
0
 10
288.4155
 20
-114.372901
 30
0.0
 40
1.0
 50
-0.0
 51
90.0
  0
LINE
  8
0
 62
0
 10
289.4155
 20
-126.372901
 30
0.0
 11
289.4155
 21
-114.372901
 31
0.0
  0
ARC
  8
0
 62
0
 10
288.4155
 20
-126.372901
 30
0.0
 40
1.0
 50
-90.0
 51
-0.0
  0
LINE
  8
0
 62
0
 10
276.4155
 20
-127.372901
 30
0.0
 11
288.4155
 21
-127.372901
 31
0.0
  0
LINE
  8
0
 62
0
 10
280.178
 20
-133.422901
 30
0.0
 11
280.178
 21
-145.422901
 31
0.0
  0
ARC
  8
0
 62
0
 10
281.178
 20
-133.422901
 30
0.0
 40
1.0
 50
90.0
 51
-180.0
  0
LINE
  8
0
 62
0
 10
293.178
 20
-132.422901
 30
0.0
 11
281.178
 21
-132.422901
 31
0.0
  0
ARC
  8
0
 62
0
 10
293.178
 20
-133.422901
 30
0.0
 40
1.0
 50
-0.0
 51
90.0
  0
LINE
  8
0
 62
0
 10
294.178
 20
-145.422901
 30
0.0
 11
294.178
 21
-133.422901
 31
0.0
  0
ARC
  8
0
 62
0
 10
293.178
 20
-145.422901
 30
0.0
 40
1.0
 50
-90.0
 51
-0.0
  0
LINE
  8
0
 62
0
 10
281.178
 20
-146.422901
 30
0.0
 11
293.178
 21
-146.422901
 31
0.0
  0
ARC
  8
0
 62
0
 10
281.178
 20
-145.422901
 30
0.0
 40
1.0
 50
-180.0
 51
-90.0
  0
LINE
  8
0
 62
0
 10
261.128
 20
-133.422901
 30
0.0
 11
261.128
 21
-145.422901
 31
0.0
  0
ARC
  8
0
 62
0
 10
262.128
 20
-133.422901
 30
0.0
 40
1.0
 50
90.0
 51
-180.0
  0
LINE
  8
0
 62
0
 10
274.128
 20
-132.422901
 30
0.0
 11
262.128
 21
-132.422901
 31
0.0
  0
ARC
  8
0
 62
0
 10
274.128
 20
-133.422901
 30
0.0
 40
1.0
 50
-0.0
 51
90.0
  0
LINE
  8
0
 62
0
 10
275.128
 20
-145.422901
 30
0.0
 11
275.128
 21
-133.422901
 31
0.0
  0
ARC
  8
0
 62
0
 10
274.128
 20
-145.422901
 30
0.0
 40
1.0
 50
-90.0
 51
-0.0
  0
LINE
  8
0
 62
0
 10
262.128
 20
-146.422901
 30
0.0
 11
274.128
 21
-146.422901
 31
0.0
  0
ARC
  8
0
 62
0
 10
262.128
 20
-145.422901
 30
0.0
 40
1.0
 50
-180.0
 51
-90.0
  0
ARC
  8
0
 62
0
 10
295.4655
 20
-126.372901
 30
0.0
 40
1.0
 50
-180.0
 51
-90.0
  0
LINE
  8
0
 62
0
 10
294.4655
 20
-114.372901
 30
0.0
 11
294.4655
 21
-126.372901
 31
0.0
  0
ARC
  8
0
 62
0
 10
295.4655
 20
-114.372901
 30
0.0
 40
1.0
 50
90.0
 51
-180.0
  0
LINE
  8
0
 62
0
 10
307.4655
 20
-113.372901
 30
0.0
 11
295.4655
 21
-113.372901
 31
0.0
  0
ARC
  8
0
 62
0
 10
307.4655
 20
-114.372901
 30
0.0
 40
1.0
 50
-0.0
 51
90.0
  0
LINE
  8
0
 62
0
 10
308.4655
 20
-126.372901
 30
0.0
 11
308.4655
 21
-114.372901
 31
0.0
  0
ARC
  8
0
 62
0
 10
307.4655
 20
-126.372901
 30
0.0
 40
1.0
 50
-90.0
 51
-0.0
  0
LINE
  8
0
 62
0
 10
295.4655
 20
-127.372901
 30
0.0
 11
307.4655
 21
-127.372901
 31
0.0
  0
LINE
  8
0
 62
0
 10
303.69625
 20
-148.422901
 30
0.0
 11
308.69625
 21
-148.422901
 31
0.0
  0
ARC
  8
0
 62
0
 10
303.69625
 20
-147.422901
 30
0.0
 40
1.0
 50
-180.0
 51
-90.0
  0
ARC
  8
0
 62
0
 10
301.69625
 20
-147.422901
 30
0.0
 40
1.0
 50
-0.0
 51
90.0
  0
LINE
  8
0
 62
0
 10
300.228
 20
-146.422901
 30
0.0
 11
301.69625
 21
-146.422901
 31
0.0
  0
ARC
  8
0
 62
0
 10
300.228
 20
-145.422901
 30
0.0
 40
1.0
 50
-180.0
 51
-90.0
  0
LINE
  8
0
 62
0
 10
299.228
 20
-133.422901
 30
0.0
 11
299.228
 21
-145.422901
 31
0.0
  0
ARC
  8
0
 62
0
 10
300.228
 20
-133.422901
 30
0.0
 40
1.0
 50
90.0
 51
-180.0
  0
LINE
  8
0
 62
0
 10
319.65925
 20
-132.422901
 30
0.0
 11
300.228
 21
-132.422901
 31
0.0
  0
ARC
  8
0
 62
0
 10
319.65925
 20
-131.422901
 30
0.0
 40
1.0
 50
-90.0
 51
-0.0
  0
LINE
  8
0
 62
0
 10
320.65925
 20
-128.372901
 30
0.0
 11
320.65925
 21
-131.422901
 31
0.0
  0
ARC
  8
0
 62
0
 10
319.65925
 20
-128.372901
 30
0.0
 40
1.0
 50
-0.0
 51
90.0
  0
LINE
  8
0
 62
0
 10
319.277999
 20
-127.372901
 30
0.0
 11
319.65925
 21
-127.372901
 31
0.0
  0
ARC
  8
0
 62
0
 10
319.277999
 20
-126.372901
 30
0.0
 40
1.0
 50
-180.0
 51
-90.0
  0
LINE
  8
0
 62
0
 10
318.277999
 20
-114.372901
 30
0.0
 11
318.277999
 21
-126.372901
 31
0.0
  0
ARC
  8
0
 62
0
 10
319.277999
 20
-114.372901
 30
0.0
 40
1.0
 50
90.0
 51
-180.0
  0
LINE
  8
0
 62
0
 10
331.2779992925
 20
-113.3729016335
 30
0.0
 11
319.277999
 21
-113.37290099995202
 31
0.0
  0
ARC
  8
0
 62
0
 10
331.278
 20
-114.372901
 30
0.0
 40
0.999999366452
 50
25.731618496254292
 51
90.0000405367909
  0
ARC
  8
0
 62
0
 10
333.079675
 20
-113.504589
 30
0.0
 40
1.00000026729
 50
-154.2684063790624
 51
-102.13477665989917
  0
ARC
  8
0
 62
0
 10
332.65925
 20
-115.459901
 30
0.0
 40
1.0
 50
-0.0
 51
77.8651722809275
  0
LINE
  8
0
 62
0
 10
333.65925
 20
-122.16585
 30
0.0
 11
333.65925
 21
-115.459901
 31
0.0
  0
ARC
  8
0
 62
0
 10
334.65925
 20
-122.16585
 30
0.0
 40
1.0
 50
-180.0
 51
-119.99999448770184
  0
ARC
  8
0
 62
0
 10
333.65925
 20
-123.897901
 30
0.0
 40
1.0
 50
-0.0
 51
60.000000000447066
  0
LINE
  8
0
 62
0
 10
334.65924965031
 20
-135.8979007981
 30
0.0
 11
334.6592499999976
 21
-123.897901
 31
0.0
  0
ARC
  8
0
 62
0
 10
333.65925
 20
-135.897901
 30
0.0
 40
0.999999650312
 50
-59.999988432423976
 51
1.1549635809980122e-05
  0
ARC
  8
0
 62
0
 10
334.65925
 20
-137.629951
 30
0.0
 40
0.999999650312
 50
120.00001156757602
 51
-180.0
  0
LINE
  8
0
 62
0
 10
333.65925
 20
-147.422901
 30
0.0
 11
333.65925
 21
-137.629951
 31
0.0
  0
ARC
  8
0
 62
0
 10
332.65925
 20
-147.422901
 30
0.0
 40
1.0
 50
-90.0
 51
-0.0
  0
LINE
  8
0
 62
0
 10
332.57225
 20
-148.422901
 30
0.0
 11
332.65925
 21
-148.422901
 31
0.0
  0
LINE
  8
0
 62
0
 10
327.57225
 20
-148.422901
 30
0.0
 11
332.57225
 21
-148.422901
 31
0.0
  0
ARC
  8
0
 62
0
 10
327.57225
 20
-147.422901
 30
0.0
 40
1.0
 50
-180.0
 51
-90.0
  0
ARC
  8
0
 62
0
 10
325.57225
 20
-147.422901
 30
0.0
 40
1.0
 50
-0.0
 51
90.0
  0
LINE
  8
0
 62
0
 10
310.69625
 20
-146.422901
 30
0.0
 11
325.57225
 21
-146.422901
 31
0.0
  0
ARC
  8
0
 62
0
 10
310.69625
 20
-147.422901
 30
0.0
 40
1.0
 50
90.0
 51
-180.0
  0
ARC
  8
0
 62
0
 10
308.69625
 20
-147.422901
 30
0.0
 40
1.0
 50
-90.0
 51
-0.0
  0
LINE
  8
0
 62
0
 10
342.0905
 20
-114.372901
 30
0.0
 11
342.0905
 21
-126.372901
 31
0.0
  0
ARC
  8
0
 62
0
 10
343.0905
 20
-114.372901
 30
0.0
 40
1.0
 50
90.0
 51
-180.0
  0
LINE
  8
0
 62
0
 10
355.0905
 20
-113.372901
 30
0.0
 11
343.0905
 21
-113.372901
 31
0.0
  0
ARC
  8
0
 62
0
 10
355.0905
 20
-114.372901
 30
0.0
 40
1.0
 50
-0.0
 51
90.0
  0
LINE
  8
0
 62
0
 10
356.0905
 20
-126.372901
 30
0.0
 11
356.0905
 21
-114.372901
 31
0.0
  0
ARC
  8
0
 62
0
 10
355.0905
 20
-126.372901
 30
0.0
 40
1.0
 50
-90.0
 51
-0.0
  0
LINE
  8
0
 62
0
 10
343.0905
 20
-127.372901
 30
0.0
 11
355.0905
 21
-127.372901
 31
0.0
  0
ARC
  8
0
 62
0
 10
343.0905
 20
-126.372901
 30
0.0
 40
1.0
 50
-180.0
 51
-90.0
  0
LINE
  8
0
 62
0
 10
237.3155
 20
-114.372901
 30
0.0
 11
237.3155
 21
-126.372901
 31
0.0
  0
ARC
  8
0
 62
0
 10
238.3155
 20
-114.372901
 30
0.0
 40
1.0
 50
90.0
 51
-180.0
  0
LINE
  8
0
 62
0
 10
250.3155
 20
-113.372901
 30
0.0
 11
238.3155
 21
-113.372901
 31
0.0
  0
ARC
  8
0
 62
0
 10
250.3155
 20
-114.372901
 30
0.0
 40
1.0
 50
-0.0
 51
90.0
  0
LINE
  8
0
 62
0
 10
251.3155
 20
-126.372901
 30
0.0
 11
251.3155
 21
-114.372901
 31
0.0
  0
ARC
  8
0
 62
0
 10
250.3155
 20
-126.372901
 30
0.0
 40
1.0
 50
-90.0
 51
-0.0
  0
LINE
  8
0
 62
0
 10
238.3155
 20
-127.372901
 30
0.0
 11
250.3155
 21
-127.372901
 31
0.0
  0
ARC
  8
0
 62
0
 10
238.3155
 20
-126.372901
 30
0.0
 40
1.0
 50
-180.0
 51
-90.0
  0
ARC
  8
0
 62
0
 10
219.2655
 20
-114.372901
 30
0.0
 40
1.0
 50
90.0
 51
-180.0
  0
LINE
  8
0
 62
0
 10
219.2655
 20
-113.372901
 30
0.0
 11
231.2655
 21
-113.372901
 31
0.0
  0
ARC
  8
0
 62
0
 10
231.2655
 20
-114.372901
 30
0.0
 40
1.0
 50
-0.0
 51
90.0
  0
LINE
  8
0
 62
0
 10
232.2655
 20
-114.372901
 30
0.0
 11
232.2655
 21
-126.372901
 31
0.0
  0
ARC
  8
0
 62
0
 10
231.2655
 20
-126.372901
 30
0.0
 40
1.0
 50
-90.0
 51
-0.0
  0
LINE
  8
0
 62
0
 10
231.2655
 20
-127.372901
 30
0.0
 11
219.2655
 21
-127.372901
 31
0.0
  0
ARC
  8
0
 62
0
 10
219.2655
 20
-126.372901
 30
0.0
 40
1.0
 50
-180.0
 51
-90.0
  0
LINE
  8
0
 62
0
 10
218.2655
 20
-126.372901
 30
0.0
 11
218.2655
 21
-114.372901
 31
0.0
  0
LINE
  8
0
 62
0
 10
152.5905
 20
-108.322901
 30
0.0
 11
164.5905
 21
-108.3229
 31
0.0
  0
ARC
  8
0
 62
0
 10
152.5905
 20
-107.322901
 30
0.0
 40
1.0
 50
-180.0
 51
-90.0
  0
LINE
  8
0
 62
0
 10
151.5905
 20
-95.3229
 30
0.0
 11
151.5905
 21
-107.322901
 31
0.0
  0
ARC
  8
0
 62
0
 10
152.5905
 20
-95.3229
 30
0.0
 40
1.0
 50
90.0
 51
-180.0
  0
LINE
  8
0
 62
0
 10
164.5905
 20
-94.3229
 30
0.0
 11
152.5905
 21
-94.3229
 31
0.0
  0
ARC
  8
0
 62
0
 10
164.5905
 20
-95.3229
 30
0.0
 40
1.0
 50
-0.0
 51
90.0
  0
LINE
  8
0
 62
0
 10
165.590499
 20
-107.322901
 30
0.0
 11
165.5905
 21
-95.3229
 31
0.0
  0
ARC
  8
0
 62
0
 10
164.5905
 20
-107.322901
 30
0.0
 40
0.999999
 50
-90.0
 51
-0.0
  0
ARC
  8
0
 62
0
 10
183.640499
 20
-95.3229
 30
0.0
 40
1.0
 50
-0.0
 51
90.0
  0
LINE
  8
0
 62
0
 10
184.640498
 20
-107.322901
 30
0.0
 11
184.640499
 21
-95.3229
 31
0.0
  0
ARC
  8
0
 62
0
 10
183.640499
 20
-107.322901
 30
0.0
 40
0.999999
 50
-90.0
 51
-0.0
  0
LINE
  8
0
 62
0
 10
171.6405
 20
-108.322901
 30
0.0
 11
183.640499
 21
-108.3229
 31
0.0
  0
ARC
  8
0
 62
0
 10
171.6405
 20
-107.322901
 30
0.0
 40
1.0
 50
-180.0
 51
-90.0
  0
LINE
  8
0
 62
0
 10
170.6405
 20
-95.3229
 30
0.0
 11
170.6405
 21
-107.322901
 31
0.0
  0
ARC
  8
0
 62
0
 10
171.6405
 20
-95.3229
 30
0.0
 40
1.0
 50
90.0
 51
-180.0
  0
LINE
  8
0
 62
0
 10
183.640499
 20
-94.3229
 30
0.0
 11
171.6405
 21
-94.3229
 31
0.0
  0
LINE
  8
0
 62
0
 10
189.6905
 20
-95.3229
 30
0.0
 11
189.6905
 21
-107.322901
 31
0.0
  0
ARC
  8
0
 62
0
 10
190.6905
 20
-95.3229
 30
0.0
 40
1.0
 50
90.0
 51
-180.0
  0
LINE
  8
0
 62
0
 10
202.6905
 20
-94.3229
 30
0.0
 11
190.6905
 21
-94.3229
 31
0.0
  0
ARC
  8
0
 62
0
 10
202.6905
 20
-95.3229
 30
0.0
 40
1.0
 50
-0.0
 51
90.0
  0
LINE
  8
0
 62
0
 10
203.690499
 20
-107.322901
 30
0.0
 11
203.6905
 21
-95.3229
 31
0.0
  0
ARC
  8
0
 62
0
 10
202.6905
 20
-107.322901
 30
0.0
 40
0.999999
 50
-90.0
 51
-0.0
  0
LINE
  8
0
 62
0
 10
190.6905
 20
-108.322901
 30
0.0
 11
202.6905
 21
-108.3229
 31
0.0
  0
ARC
  8
0
 62
0
 10
190.6905
 20
-107.322901
 30
0.0
 40
1.0
 50
-180.0
 51
-90.0
  0
LINE
  8
0
 62
0
 10
266.8905
 20
-108.322901
 30
0.0
 11
278.8905
 21
-108.3229
 31
0.0
  0
ARC
  8
0
 62
0
 10
266.8905
 20
-107.322901
 30
0.0
 40
1.0
 50
-180.0
 51
-90.0
  0
LINE
  8
0
 62
0
 10
265.8905
 20
-95.3229
 30
0.0
 11
265.8905
 21
-107.322901
 31
0.0
  0
ARC
  8
0
 62
0
 10
266.8905
 20
-95.3229
 30
0.0
 40
1.0
 50
90.0
 51
-180.0
  0
LINE
  8
0
 62
0
 10
278.8905
 20
-94.3229
 30
0.0
 11
266.8905
 21
-94.3229
 31
0.0
  0
ARC
  8
0
 62
0
 10
278.8905
 20
-95.3229
 30
0.0
 40
1.0
 50
-0.0
 51
90.0
  0
LINE
  8
0
 62
0
 10
279.890499
 20
-107.322901
 30
0.0
 11
279.8905
 21
-95.3229
 31
0.0
  0
ARC
  8
0
 62
0
 10
278.8905
 20
-107.322901
 30
0.0
 40
0.999999
 50
-90.0
 51
-0.0
  0
ARC
  8
0
 62
0
 10
247.8405
 20
-95.3229
 30
0.0
 40
1.0
 50
90.0
 51
-180.0
  0
LINE
  8
0
 62
0
 10
259.8405
 20
-94.3229
 30
0.0
 11
247.8405
 21
-94.3229
 31
0.0
  0
ARC
  8
0
 62
0
 10
259.8405
 20
-95.3229
 30
0.0
 40
1.0
 50
-0.0
 51
90.0
  0
LINE
  8
0
 62
0
 10
260.840499
 20
-107.322901
 30
0.0
 11
260.8405
 21
-95.3229
 31
0.0
  0
ARC
  8
0
 62
0
 10
259.8405
 20
-107.322901
 30
0.0
 40
0.999999
 50
-90.0
 51
-0.0
  0
LINE
  8
0
 62
0
 10
247.8405
 20
-108.322901
 30
0.0
 11
259.8405
 21
-108.3229
 31
0.0
  0
ARC
  8
0
 62
0
 10
247.8405
 20
-107.322901
 30
0.0
 40
1.0
 50
-180.0
 51
-90.0
  0
LINE
  8
0
 62
0
 10
246.8405
 20
-95.3229
 30
0.0
 11
246.8405
 21
-107.322901
 31
0.0
  0
ARC
  8
0
 62
0
 10
228.7905
 20
-107.322901
 30
0.0
 40
1.0
 50
-180.0
 51
-90.0
  0
LINE
  8
0
 62
0
 10
227.7905
 20
-107.322901
 30
0.0
 11
227.7905
 21
-95.3229
 31
0.0
  0
ARC
  8
0
 62
0
 10
228.7905
 20
-95.3229
 30
0.0
 40
1.0
 50
90.0
 51
-180.0
  0
LINE
  8
0
 62
0
 10
228.7905
 20
-94.3229
 30
0.0
 11
240.7905
 21
-94.3229
 31
0.0
  0
ARC
  8
0
 62
0
 10
240.7905
 20
-95.3229
 30
0.0
 40
1.0
 50
-0.0
 51
90.0
  0
LINE
  8
0
 62
0
 10
241.7905
 20
-95.3229
 30
0.0
 11
241.7905
 21
-107.322901
 31
0.0
  0
ARC
  8
0
 62
0
 10
240.7905
 20
-107.322901
 30
0.0
 40
0.999999
 50
-90.0
 51
-0.0
  0
LINE
  8
0
 62
0
 10
240.7905
 20
-108.3229
 30
0.0
 11
228.7905
 21
-108.3229
 31
0.0
  0
ARC
  8
0
 62
0
 10
209.7405
 20
-95.3229
 30
0.0
 40
1.0
 50
90.0
 51
-180.0
  0
LINE
  8
0
 62
0
 10
221.7405
 20
-94.3229
 30
0.0
 11
209.7405
 21
-94.3229
 31
0.0
  0
ARC
  8
0
 62
0
 10
221.7405
 20
-95.3229
 30
0.0
 40
1.0
 50
-0.0
 51
90.0
  0
LINE
  8
0
 62
0
 10
222.740499
 20
-107.322901
 30
0.0
 11
222.7405
 21
-95.3229
 31
0.0
  0
ARC
  8
0
 62
0
 10
221.7405
 20
-107.322901
 30
0.0
 40
0.999999
 50
-90.0
 51
-0.0
  0
LINE
  8
0
 62
0
 10
209.7405
 20
-108.322901
 30
0.0
 11
221.7405
 21
-108.3229
 31
0.0
  0
ARC
  8
0
 62
0
 10
209.7405
 20
-107.322901
 30
0.0
 40
1.0
 50
-180.0
 51
-90.0
  0
LINE
  8
0
 62
0
 10
208.7405
 20
-95.3229
 30
0.0
 11
208.7405
 21
-107.322901
 31
0.0
  0
LINE
  8
0
 62
0
 10
298.940499
 20
-107.322901
 30
0.0
 11
298.9405
 21
-95.3229
 31
0.0
  0
ARC
  8
0
 62
0
 10
297.9405
 20
-107.322901
 30
0.0
 40
0.999999
 50
-90.0
 51
-0.0
  0
LINE
  8
0
 62
0
 10
285.9405
 20
-108.322901
 30
0.0
 11
297.9405
 21
-108.3229
 31
0.0
  0
ARC
  8
0
 62
0
 10
285.9405
 20
-107.322901
 30
0.0
 40
1.0
 50
-180.0
 51
-90.0
  0
LINE
  8
0
 62
0
 10
284.9405
 20
-95.3229
 30
0.0
 11
284.9405
 21
-107.322901
 31
0.0
  0
ARC
  8
0
 62
0
 10
285.9405
 20
-95.3229
 30
0.0
 40
1.0
 50
90.0
 51
-180.0
  0
LINE
  8
0
 62
0
 10
297.9405
 20
-94.3229
 30
0.0
 11
285.9405
 21
-94.3229
 31
0.0
  0
ARC
  8
0
 62
0
 10
297.9405
 20
-95.3229
 30
0.0
 40
1.0
 50
-0.0
 51
90.0
  0
LINE
  8
0
 62
0
 10
306.0775
 20
-110.322901
 30
0.0
 11
311.0775
 21
-110.322901
 31
0.0
  0
ARC
  8
0
 62
0
 10
306.0775
 20
-109.322901
 30
0.0
 40
1.0
 50
-180.0
 51
-90.0
  0
LINE
  8
0
 62
0
 10
305.0775
 20
-96.322901
 30
0.0
 11
305.0775
 21
-109.322901
 31
0.0
  0
ARC
  8
0
 62
0
 10
306.0775
 20
-96.322901
 30
0.0
 40
1.0
 50
90.0
 51
-180.0
  0
LINE
  8
0
 62
0
 10
312.783449
 20
-95.3229
 30
0.0
 11
306.0775
 21
-95.322901
 31
0.0
  0
ARC
  8
0
 62
0
 10
312.783449
 20
-94.3229
 30
0.0
 40
1.0
 50
-90.0
 51
-29.999994487414707
  0
ARC
  8
0
 62
0
 10
314.5155
 20
-95.3229
 30
0.0
 40
1.0
 50
90.0
 51
150.0000000001593
  0
LINE
  8
0
 62
0
 10
326.5154997981
 20
-94.32290034968
 30
0.0
 11
314.5155
 21
-94.32289999999244
 31
0.0
  0
ARC
  8
0
 62
0
 10
326.5155
 20
-95.3229
 30
0.0
 40
0.999999650312
 50
30.000011567574507
 51
90.00001156802075
  0
ARC
  8
0
 62
0
 10
328.24755
 20
-94.3229
 30
0.0
 40
0.999999650312
 50
-149.9999884324241
 51
-90.0
  0
LINE
  8
0
 62
0
 10
334.9535
 20
-95.322901
 30
0.0
 11
328.24755
 21
-95.3229
 31
0.0
  0
ARC
  8
0
 62
0
 10
334.9535
 20
-96.322901
 30
0.0
 40
1.0
 50
-0.0
 51
90.0
  0
LINE
  8
0
 62
0
 10
335.9535
 20
-109.322901
 30
0.0
 11
335.9535
 21
-96.322901
 31
0.0
  0
ARC
  8
0
 62
0
 10
334.9535
 20
-109.322901
 30
0.0
 40
1.0
 50
-90.0
 51
-0.0
  0
LINE
  8
0
 62
0
 10
329.9535
 20
-110.322901
 30
0.0
 11
334.9535
 21
-110.322901
 31
0.0
  0
ARC
  8
0
 62
0
 10
329.9535
 20
-109.322901
 30
0.0
 40
1.0
 50
-180.0
 51
-90.0
  0
ARC
  8
0
 62
0
 10
327.9535
 20
-109.322901
 30
0.0
 40
1.0
 50
-0.0
 51
90.0
  0
LINE
  8
0
 62
0
 10
313.0775
 20
-108.3229
 30
0.0
 11
327.9535
 21
-108.3229
 31
0.0
  0
ARC
  8
0
 62
0
 10
313.0775
 20
-109.322901
 30
0.0
 40
1.000001
 50
90.0
 51
-180.0
  0
ARC
  8
0
 62
0
 10
311.0775
 20
-109.322901
 30
0.0
 40
1.0
 50
-90.0
 51
-0.0
  0
ARC
  8
0
 62
0
 10
343.0905
 20
-95.3229
 30
0.0
 40
1.0
 50
90.0
 51
-180.0
  0
LINE
  8
0
 62
0
 10
343.0905
 20
-94.3229
 30
0.0
 11
355.0905
 21
-94.3229
 31
0.0
  0
ARC
  8
0
 62
0
 10
355.0905
 20
-95.3229
 30
0.0
 40
1.0
 50
-0.0
 51
90.0
  0
LINE
  8
0
 62
0
 10
356.0905
 20
-95.3229
 30
0.0
 11
356.0905
 21
-107.322901
 31
0.0
  0
ARC
  8
0
 62
0
 10
355.0905
 20
-107.322901
 30
0.0
 40
0.999999
 50
-90.0
 51
-0.0
  0
LINE
  8
0
 62
0
 10
355.0905
 20
-108.3229
 30
0.0
 11
343.0905
 21
-108.3229
 31
0.0
  0
ARC
  8
0
 62
0
 10
343.0905
 20
-107.322901
 30
0.0
 40
1.0
 50
-180.0
 51
-90.0
  0
LINE
  8
0
 62
0
 10
342.0905
 20
-107.322901
 30
0.0
 11
342.0905
 21
-95.3229
 31
0.0
  0
ARC
  8
0
 62
0
 10
133.5405
 20
-95.3229
 30
0.0
 40
1.0
 50
90.0
 51
-180.0
  0
LINE
  8
0
 62
0
 10
145.5405
 20
-94.3229
 30
0.0
 11
133.5405
 21
-94.3229
 31
0.0
  0
ARC
  8
0
 62
0
 10
145.5405
 20
-95.3229
 30
0.0
 40
1.0
 50
-0.0
 51
90.0
  0
LINE
  8
0
 62
0
 10
146.540499
 20
-107.322901
 30
0.0
 11
146.5405
 21
-95.3229
 31
0.0
  0
ARC
  8
0
 62
0
 10
145.5405
 20
-107.322901
 30
0.0
 40
0.999999
 50
-90.0
 51
-0.0
  0
LINE
  8
0
 62
0
 10
133.5405
 20
-108.322901
 30
0.0
 11
145.5405
 21
-108.3229
 31
0.0
  0
ARC
  8
0
 62
0
 10
133.5405
 20
-107.322901
 30
0.0
 40
1.0
 50
-180.0
 51
-90.0
  0
LINE
  8
0
 62
0
 10
132.5405
 20
-95.3229
 30
0.0
 11
132.5405
 21
-107.322901
 31
0.0
  0
LINE
  8
0
 62
0
 10
337.0405
 20
-183.522901
 30
0.0
 11
337.0405
 21
-171.522901
 31
0.0
  0
ARC
  8
0
 62
0
 10
336.0405
 20
-183.522901
 30
0.0
 40
1.0
 50
-90.0
 51
-0.0
  0
LINE
  8
0
 62
0
 10
324.0405
 20
-184.522901
 30
0.0
 11
336.0405
 21
-184.522901
 31
0.0
  0
ARC
  8
0
 62
0
 10
324.0405
 20
-183.522901
 30
0.0
 40
1.0
 50
-180.0
 51
-90.0
  0
LINE
  8
0
 62
0
 10
323.0405
 20
-171.522901
 30
0.0
 11
323.0405
 21
-183.522901
 31
0.0
  0
ARC
  8
0
 62
0
 10
324.0405
 20
-171.522901
 30
0.0
 40
1.0
 50
90.0
 51
-180.0
  0
LINE
  8
0
 62
0
 10
336.0405
 20
-170.522901
 30
0.0
 11
324.0405
 21
-170.522901
 31
0.0
  0
ARC
  8
0
 62
0
 10
336.0405
 20
-171.522901
 30
0.0
 40
1.0
 50
-0.0
 51
90.0
  0
ARC
  8
0
 62
0
 10
316.9905
 20
-183.522901
 30
0.0
 40
1.0
 50
-90.0
 51
-0.0
  0
LINE
  8
0
 62
0
 10
304.9905
 20
-184.522901
 30
0.0
 11
316.9905
 21
-184.522901
 31
0.0
  0
ARC
  8
0
 62
0
 10
304.9905
 20
-183.522901
 30
0.0
 40
1.0
 50
-180.0
 51
-90.0
  0
LINE
  8
0
 62
0
 10
303.9905
 20
-171.522901
 30
0.0
 11
303.9905
 21
-183.522901
 31
0.0
  0
ARC
  8
0
 62
0
 10
304.9905
 20
-171.522901
 30
0.0
 40
1.0
 50
90.0
 51
-180.0
  0
LINE
  8
0
 62
0
 10
316.9905
 20
-170.522901
 30
0.0
 11
304.9905
 21
-170.522901
 31
0.0
  0
ARC
  8
0
 62
0
 10
316.9905
 20
-171.522901
 30
0.0
 40
1.0
 50
-0.0
 51
90.0
  0
LINE
  8
0
 62
0
 10
317.9905
 20
-183.522901
 30
0.0
 11
317.9905
 21
-171.522901
 31
0.0
  0
ARC
  8
0
 62
0
 10
247.8405
 20
-171.522901
 30
0.0
 40
1.0
 50
90.0
 51
-180.0
  0
LINE
  8
0
 62
0
 10
297.9405
 20
-170.522901
 30
0.0
 11
247.8405
 21
-170.522901
 31
0.0
  0
ARC
  8
0
 62
0
 10
297.9405
 20
-171.522901
 30
0.0
 40
1.0
 50
-0.0
 51
90.0
  0
LINE
  8
0
 62
0
 10
298.9405
 20
-183.522901
 30
0.0
 11
298.9405
 21
-171.522901
 31
0.0
  0
ARC
  8
0
 62
0
 10
297.9405
 20
-183.522901
 30
0.0
 40
1.0
 50
-90.0
 51
-0.0
  0
LINE
  8
0
 62
0
 10
247.8405
 20
-184.522901
 30
0.0
 11
297.9405
 21
-184.522901
 31
0.0
  0
ARC
  8
0
 62
0
 10
247.8405
 20
-183.522901
 30
0.0
 40
1.0
 50
-180.0
 51
-90.0
  0
LINE
  8
0
 62
0
 10
246.8405
 20
-171.522901
 30
0.0
 11
246.8405
 21
-183.522901
 31
0.0
  0
LINE
  8
0
 62
0
 10
170.6405
 20
-171.522901
 30
0.0
 11
170.6405
 21
-183.522901
 31
0.0
  0
ARC
  8
0
 62
0
 10
171.6405
 20
-171.522901
 30
0.0
 40
1.0
 50
90.0
 51
-180.0
  0
LINE
  8
0
 62
0
 10
190.78425
 20
-170.522901
 30
0.0
 11
171.6405
 21
-170.522901
 31
0.0
  0
ARC
  8
0
 62
0
 10
190.78425
 20
-171.522901
 30
0.0
 40
1.0
 50
-0.0
 51
90.0
  0
LINE
  8
0
 62
0
 10
191.78425
 20
-183.522901
 30
0.0
 11
191.78425
 21
-171.522901
 31
0.0
  0
ARC
  8
0
 62
0
 10
190.78425
 20
-183.522901
 30
0.0
 40
1.0
 50
-90.0
 51
-0.0
  0
LINE
  8
0
 62
0
 10
171.6405
 20
-184.522901
 30
0.0
 11
190.78425
 21
-184.522901
 31
0.0
  0
ARC
  8
0
 62
0
 10
171.6405
 20
-183.522901
 30
0.0
 40
1.0
 50
-180.0
 51
-90.0
  0
LINE
  8
0
 62
0
 10
218.281248
 20
-178.5229
 30
0.0
 11
218.18828200000002
 21
-178.46860199999998
 31
0.0
  0
ARC
  8
0
 62
0
 10
216.675252
 20
-181.059112
 30
0.0
 40
3.000000306833
 50
59.71223235812787
 51
120.28778502799341
  0
LINE
  8
0
 62
0
 10
215.16222121391
 20
-178.4686024591
 30
0.0
 11
215.06925599998738
 21
-178.52290099997836
 31
0.0
  0
ARC
  8
0
 62
0
 10
211.538852
 20
-172.478378
 30
0.0
 40
6.999999900836
 50
-120.28777785792703
 51
-59.712226270179684
  0
LINE
  8
0
 62
0
 10
208.008448
 20
-178.5229
 30
0.0
 11
207.91548200000003
 21
-178.46860199999998
 31
0.0
  0
ARC
  8
0
 62
0
 10
206.402452
 20
-181.059112
 30
0.0
 40
3.000000306833
 50
59.71223235812787
 51
120.28778502799341
  0
LINE
  8
0
 62
0
 10
204.88942121391
 20
-178.4686024591
 30
0.0
 11
204.7964559999874
 21
-178.52290099997836
 31
0.0
  0
ARC
  8
0
 62
0
 10
201.266052
 20
-172.478378
 30
0.0
 40
7.000000578898
 50
-113.23564708649505
 51
-59.712226270179585
  0
ARC
  8
0
 62
0
 10
196.531887
 20
-183.505059
 30
0.0
 40
4.999999926226
 50
66.76434517163578
 51
85.58037909173103
  0
ARC
  8
0
 62
0
 10
196.99425
 20
-177.522901
 30
0.0
 40
1.0
 50
-180.0
 51
-94.41963565176556
  0
ARC
  8
0
 62
0
 10
196.99425
 20
-177.522901
 30
0.0
 40
1.0
 50
90.0
 51
-180.0
  0
LINE
  8
0
 62
0
 10
196.99425
 20
-176.522901
 30
0.0
 11
197.230502
 21
-176.522901
 31
0.0
  0
ARC
  8
0
 62
0
 10
197.230502
 20
-180.522901
 30
0.0
 40
4.000000845052
 50
63.35928276444759
 51
90.0
  0
ARC
  8
0
 62
0
 10
201.266052
 20
-172.478378
 30
0.0
 40
4.999999938282
 50
-116.64071725247177
 51
-59.71222196225165
  0
LINE
  8
0
 62
0
 10
203.78776916098
 20
-176.7958937142
 30
0.0
 11
203.8807349999758
 21
-176.74159599995858
 31
0.0
  0
ARC
  8
0
 62
0
 10
206.402452
 20
-181.059112
 30
0.0
 40
5.000000103835
 50
59.712225206889705
 51
120.28777479311029
  0
LINE
  8
0
 62
0
 10
208.924169
 20
-176.741596
 30
0.0
 11
209.017135
 21
-176.795894
 31
0.0
  0
ARC
  8
0
 62
0
 10
211.538852
 20
-172.478378
 30
0.0
 40
5.000000103835
 50
-120.28777479311029
 51
-59.712222122748805
  0
LINE
  8
0
 62
0
 10
214.06056923237
 20
-176.7958938642
 30
0.0
 11
214.15353499996496
 21
-176.74159599994
 31
0.0
  0
ARC
  8
0
 62
0
 10
216.675252
 20
-181.059112
 30
0.0
 40
5.000000103835
 50
59.712225206889705
 51
120.28777479311029
  0
LINE
  8
0
 62
0
 10
219.196969
 20
-176.741596
 30
0.0
 11
219.289935
 21
-176.79589400000003
 31
0.0
  0
ARC
  8
0
 62
0
 10
221.811652
 20
-172.478378
 30
0.0
 40
5.000000103835
 50
-120.28777479311029
 51
-63.35927950302676
  0
ARC
  8
0
 62
0
 10
225.847202
 20
-180.522901
 30
0.0
 40
4.0
 50
90.0
 51
116.64071317992578
  0
LINE
  8
0
 62
0
 10
225.847202
 20
-176.522901
 30
0.0
 11
226.08129
 21
-176.522901
 31
0.0
  0
ARC
  8
0
 62
0
 10
226.08129
 20
-177.522901
 30
0.0
 40
1.0
 50
-0.0
 51
90.0
  0
ARC
  8
0
 62
0
 10
226.08129
 20
-177.522901
 30
0.0
 40
0.999999649032
 50
-85.55511841897328
 51
-0.0
  0
ARC
  8
0
 62
0
 10
226.546293
 20
-183.504854
 30
0.0
 40
4.999999474653
 50
94.44491496701686
 51
113.23813300688202
  0
ARC
  8
0
 62
0
 10
221.811652
 20
-172.478378
 30
0.0
 40
6.999999900836
 50
-120.28777785792703
 51
-66.76188096807479
  0
ARC
  8
0
 62
0
 10
237.28425
 20
-169.522901
 30
0.0
 40
1.0
 50
-0.0
 51
90.0
  0
LINE
  8
0
 62
0
 10
238.28425
 20
-182.522901
 30
0.0
 11
238.28425
 21
-169.522901
 31
0.0
  0
ARC
  8
0
 62
0
 10
237.28425
 20
-182.522901
 30
0.0
 40
1.0
 50
-90.0
 51
-0.0
  0
LINE
  8
0
 62
0
 10
232.28425
 20
-183.522901
 30
0.0
 11
237.28425
 21
-183.522901
 31
0.0
  0
ARC
  8
0
 62
0
 10
232.28425
 20
-182.522901
 30
0.0
 40
1.0
 50
-180.0
 51
-90.0
  0
LINE
  8
0
 62
0
 10
231.28425
 20
-169.522901
 30
0.0
 11
231.28425
 21
-182.522901
 31
0.0
  0
ARC
  8
0
 62
0
 10
232.28425
 20
-169.522901
 30
0.0
 40
1.0
 50
90.0
 51
-180.0
  0
LINE
  8
0
 62
0
 10
237.28425
 20
-168.522901
 30
0.0
 11
232.28425
 21
-168.522901
 31
0.0
  0
ARC
  8
0
 62
0
 10
143.766387
 20
-180.556818
 30
0.0
 40
3.999999951217
 50
63.359276341670984
 51
90.0
  0
ARC
  8
0
 62
0
 10
147.801937
 20
-172.512296
 30
0.0
 40
4.999999938282
 50
-116.64071725247177
 51
-59.71222196225165
  0
LINE
  8
0
 62
0
 10
150.32365416098
 20
-176.8298117142
 30
0.0
 11
150.4166199999758
 21
-176.77551399995858
 31
0.0
  0
ARC
  8
0
 62
0
 10
152.938337
 20
-181.09303
 30
0.0
 40
5.000000103835
 50
59.71222520688943
 51
120.28777479311029
  0
LINE
  8
0
 62
0
 10
155.460054
 20
-176.775514
 30
0.0
 11
155.55302
 21
-176.829812
 31
0.0
  0
ARC
  8
0
 62
0
 10
158.074737
 20
-172.512296
 30
0.0
 40
5.000000103835
 50
-120.28777479311029
 51
-59.712222122748805
  0
LINE
  8
0
 62
0
 10
160.59645423237
 20
-176.8298118642
 30
0.0
 11
160.68941999996497
 21
-176.77551399994
 31
0.0
  0
ARC
  8
0
 62
0
 10
163.211137
 20
-181.09303
 30
0.0
 40
5.000000081623
 50
74.13523097640007
 51
120.28777479311034
  0
ARC
  8
0
 62
0
 10
170.045331
 20
-157.04529
 30
0.0
 40
20.000000053122
 50
-105.86476626793197
 51
-102.80647090400447
  0
ARC
  8
0
 62
0
 10
165.3905
 20
-177.5229
 30
0.0
 40
1.000000000001
 50
-5.729832627056611e-05
 51
77.19352888805814
  0
ARC
  8
0
 62
0
 10
165.3905
 20
-177.5229
 30
0.0
 40
1.000000161652
 50
-97.13149762799387
 51
-5.729832627056611e-05
  0
ARC
  8
0
 62
0
 10
165.887084
 20
-173.553845
 30
0.0
 40
4.999999562619
 50
-109.54173659128267
 51
-97.13145356858323
  0
ARC
  8
0
 62
0
 10
163.211137
 20
-181.09303
 30
0.0
 40
3.000000613071
 50
70.45827339676428
 51
120.28778315620957
  0
LINE
  8
0
 62
0
 10
161.69810614407
 20
-178.5025201452
 30
0.0
 11
161.60514099996746
 21
-178.5568179999443
 31
0.0
  0
ARC
  8
0
 62
0
 10
158.074737
 20
-172.512296
 30
0.0
 40
6.999999900836
 50
-120.28777785792703
 51
-59.71222214207298
  0
LINE
  8
0
 62
0
 10
154.544333
 20
-178.556818
 30
0.0
 11
154.45136700000003
 21
-178.50251999999998
 31
0.0
  0
ARC
  8
0
 62
0
 10
152.938337
 20
-181.09303
 30
0.0
 40
3.000000306833
 50
59.712232358127594
 51
120.28778502799312
  0
LINE
  8
0
 62
0
 10
151.42530621391
 20
-178.5025204591
 30
0.0
 11
151.3323409999874
 21
-178.5568179999784
 31
0.0
  0
ARC
  8
0
 62
0
 10
147.801937
 20
-172.512296
 30
0.0
 40
7.000000578898
 50
-113.23564708649505
 51
-59.71222214207297
  0
ARC
  8
0
 62
0
 10
143.067773
 20
-183.538977
 30
0.0
 40
4.999999531712
 50
66.7643557013404
 51
85.58038962138525
  0
ARC
  8
0
 62
0
 10
143.530135
 20
-177.556818
 30
0.0
 40
1.0
 50
-180.0
 51
-94.41962675937705
  0
ARC
  8
0
 62
0
 10
143.530135
 20
-177.556818
 30
0.0
 40
1.0
 50
90.0
 51
-180.0
  0
LINE
  8
0
 62
0
 10
143.530135
 20
-176.556818
 30
0.0
 11
143.766387
 21
-176.556818
 31
0.0
  0
LINE
  8
0
 62
0
 10
343.0905
 20
-184.522901
 30
0.0
 11
355.0905
 21
-184.522901
 31
0.0
  0
ARC
  8
0
 62
0
 10
343.0905
 20
-183.522901
 30
0.0
 40
1.0
 50
-180.0
 51
-90.0
  0
LINE
  8
0
 62
0
 10
342.0905
 20
-171.522901
 30
0.0
 11
342.0905
 21
-183.522901
 31
0.0
  0
ARC
  8
0
 62
0
 10
343.0905
 20
-171.522901
 30
0.0
 40
1.0
 50
90.0
 51
-180.0
  0
LINE
  8
0
 62
0
 10
355.0905
 20
-170.522901
 30
0.0
 11
343.0905
 21
-170.522901
 31
0.0
  0
ARC
  8
0
 62
0
 10
355.0905
 20
-171.522901
 30
0.0
 40
1.0
 50
-0.0
 51
90.0
  0
LINE
  8
0
 62
0
 10
356.0905
 20
-183.522901
 30
0.0
 11
356.0905
 21
-171.522901
 31
0.0
  0
ARC
  8
0
 62
0
 10
355.0905
 20
-183.522901
 30
0.0
 40
1.0
 50
-90.0
 51
-0.0
  0
ARC
  8
0
 62
0
 10
132.28425
 20
-182.522901
 30
0.0
 40
1.0
 50
-180.0
 51
-90.0
  0
LINE
  8
0
 62
0
 10
131.28425
 20
-182.522901
 30
0.0
 11
131.28425
 21
-169.522901
 31
0.0
  0
ARC
  8
0
 62
0
 10
132.28425
 20
-169.522901
 30
0.0
 40
1.0
 50
90.0
 51
-180.0
  0
LINE
  8
0
 62
0
 10
132.28425
 20
-168.522901
 30
0.0
 11
137.28425
 21
-168.522901
 31
0.0
  0
ARC
  8
0
 62
0
 10
137.28425
 20
-169.522901
 30
0.0
 40
1.0
 50
-0.0
 51
90.0
  0
LINE
  8
0
 62
0
 10
138.28425
 20
-169.522901
 30
0.0
 11
138.28425
 21
-182.522901
 31
0.0
  0
ARC
  8
0
 62
0
 10
137.28425
 20
-182.522901
 30
0.0
 40
1.0
 50
-90.0
 51
-0.0
  0
LINE
  8
0
 62
0
 10
137.28425
 20
-183.522901
 30
0.0
 11
132.28425
 21
-183.522901
 31
0.0
  0
LINE
  8
0
 62
0
 10
58.72175
 20
-171.522901
 30
0.0
 11
58.72175
 21
-183.522901
 31
0.0
  0
ARC
  8
0
 62
0
 10
59.72175
 20
-171.522901
 30
0.0
 40
1.0
 50
90.0
 51
-180.0
  0
LINE
  8
0
 62
0
 10
74.103
 20
-170.522901
 30
0.0
 11
59.72175
 21
-170.522901
 31
0.0
  0
ARC
  8
0
 62
0
 10
74.103
 20
-171.522901
 30
0.0
 40
1.0
 50
-0.0
 51
90.0
  0
LINE
  8
0
 62
0
 10
75.103
 20
-183.522901
 30
0.0
 11
75.103
 21
-171.522901
 31
0.0
  0
ARC
  8
0
 62
0
 10
74.103
 20
-183.522901
 30
0.0
 40
1.0
 50
-90.0
 51
-0.0
  0
LINE
  8
0
 62
0
 10
59.72175
 20
-184.522901
 30
0.0
 11
74.103
 21
-184.522901
 31
0.0
  0
ARC
  8
0
 62
0
 10
59.72175
 20
-183.522901
 30
0.0
 40
1.0
 50
-180.0
 51
-90.0
  0
ARC
  8
0
 62
0
 10
102.678
 20
-171.522901
 30
0.0
 40
1.0
 50
-0.0
 51
90.0
  0
LINE
  8
0
 62
0
 10
103.678
 20
-183.522901
 30
0.0
 11
103.678
 21
-171.522901
 31
0.0
  0
ARC
  8
0
 62
0
 10
102.678
 20
-183.522901
 30
0.0
 40
1.0
 50
-90.0
 51
-0.0
  0
LINE
  8
0
 62
0
 10
83.53425
 20
-184.522901
 30
0.0
 11
102.678
 21
-184.522901
 31
0.0
  0
ARC
  8
0
 62
0
 10
83.53425
 20
-183.522901
 30
0.0
 40
1.0
 50
-180.0
 51
-90.0
  0
LINE
  8
0
 62
0
 10
82.53425
 20
-171.522901
 30
0.0
 11
82.53425
 21
-183.522901
 31
0.0
  0
ARC
  8
0
 62
0
 10
83.53425
 20
-171.522901
 30
0.0
 40
1.0
 50
90.0
 51
-180.0
  0
LINE
  8
0
 62
0
 10
102.678
 20
-170.522901
 30
0.0
 11
83.53425
 21
-170.522901
 31
0.0
  0
LINE
  8
0
 62
0
 10
93.153
 20
-151.4729
 30
0.0
 11
59.72175
 21
-151.472901
 31
0.0
  0
ARC
  8
0
 62
0
 10
93.153
 20
-152.4729
 30
0.0
 40
1.0
 50
-0.0
 51
90.0
  0
LINE
  8
0
 62
0
 10
94.153
 20
-164.472901
 30
0.0
 11
94.153
 21
-152.4729
 31
0.0
  0
ARC
  8
0
 62
0
 10
93.153
 20
-164.472901
 30
0.0
 40
1.0
 50
-90.0
 51
-0.0
  0
LINE
  8
0
 62
0
 10
91.68475
 20
-165.472901
 30
0.0
 11
93.153
 21
-165.4729
 31
0.0
  0
ARC
  8
0
 62
0
 10
91.68475
 20
-166.472901
 30
0.0
 40
1.0
 50
90.0
 51
-180.0
  0
ARC
  8
0
 62
0
 10
89.68475
 20
-166.472901
 30
0.0
 40
1.0
 50
-90.0
 51
-0.0
  0
LINE
  8
0
 62
0
 10
84.68475
 20
-167.472901
 30
0.0
 11
89.68475
 21
-167.4729
 31
0.0
  0
ARC
  8
0
 62
0
 10
84.68475
 20
-166.472901
 30
0.0
 40
1.0
 50
-180.0
 51
-90.0
  0
ARC
  8
0
 62
0
 10
82.68475
 20
-166.472901
 30
0.0
 40
1.0
 50
-0.0
 51
90.0
  0
LINE
  8
0
 62
0
 10
67.80875
 20
-165.472901
 30
0.0
 11
82.68475
 21
-165.4729
 31
0.0
  0
ARC
  8
0
 62
0
 10
67.80875
 20
-166.472901
 30
0.0
 40
1.0
 50
90.0
 51
-180.0
  0
ARC
  8
0
 62
0
 10
65.80875
 20
-166.472901
 30
0.0
 40
1.0
 50
-90.0
 51
-0.0
  0
LINE
  8
0
 62
0
 10
60.808749
 20
-167.472901
 30
0.0
 11
65.80875
 21
-167.4729
 31
0.0
  0
ARC
  8
0
 62
0
 10
60.808749
 20
-166.472901
 30
0.0
 40
1.0
 50
-180.0
 51
-90.0
  0
LINE
  8
0
 62
0
 10
59.80875
 20
-166.252347
 30
0.0
 11
59.808749
 21
-166.472901
 31
0.0
  0
ARC
  8
0
 62
0
 10
58.80875
 20
-166.252347
 30
0.0
 40
1.0
 50
-0.0
 51
62.83848997177902
  0
ARC
  8
0
 62
0
 10
59.72175
 20
-164.472901
 30
0.0
 40
1.0
 50
-180.0
 51
-117.16148847248526
  0
LINE
  8
0
 62
0
 10
58.72175
 20
-152.4729
 30
0.0
 11
58.72175
 21
-164.472901
 31
0.0
  0
ARC
  8
0
 62
0
 10
59.72175
 20
-152.4729
 30
0.0
 40
1.0
 50
90.0
 51
-180.0
  0
LINE
  8
0
 62
0
 10
115.9905
 20
-170.522901
 30
0.0
 11
107.34675
 21
-170.522901
 31
0.0
  0
ARC
  8
0
 62
0
 10
115.9905
 20
-169.522901
 30
0.0
 40
1.0
 50
-90.0
 51
-0.0
  0
ARC
  8
0
 62
0
 10
117.9905
 20
-169.522901
 30
0.0
 40
1.0
 50
90.0
 51
-180.0
  0
LINE
  8
0
 62
0
 10
122.9905
 20
-168.522901
 30
0.0
 11
117.9905
 21
-168.522901
 31
0.0
  0
ARC
  8
0
 62
0
 10
122.9905
 20
-169.522901
 30
0.0
 40
1.0
 50
-0.0
 51
90.0
  0
LINE
  8
0
 62
0
 10
123.9905
 20
-182.522901
 30
0.0
 11
123.9905
 21
-169.522901
 31
0.0
  0
ARC
  8
0
 62
0
 10
122.9905
 20
-182.522901
 30
0.0
 40
1.0
 50
-90.0
 51
-0.0
  0
LINE
  8
0
 62
0
 10
121.0788
 20
-183.522901
 30
0.0
 11
122.9905
 21
-183.522901
 31
0.0
  0
ARC
  8
0
 62
0
 10
121.0788
 20
-184.522901
 30
0.0
 40
1.0
 50
90.0
 51
149.99997686496633
  0
ARC
  8
0
 62
0
 10
119.34675
 20
-183.522901
 30
0.0
 40
1.0
 50
-90.0
 51
-30.000000000127773
  0
LINE
  8
0
 62
0
 10
107.34675
 20
-184.522901
 30
0.0
 11
119.34675
 21
-184.522901
 31
0.0
  0
ARC
  8
0
 62
0
 10
107.34675
 20
-183.522901
 30
0.0
 40
1.0
 50
-180.0
 51
-90.0
  0
LINE
  8
0
 62
0
 10
106.34675
 20
-171.522901
 30
0.0
 11
106.34675
 21
-183.522901
 31
0.0
  0
ARC
  8
0
 62
0
 10
107.34675
 20
-171.522901
 30
0.0
 40
1.0
 50
90.0
 51
-180.0
  0
ARC
  8
0
 62
0
 10
88.3905
 20
-107.322901
 30
0.0
 40
0.999999
 50
-90.0
 51
-0.0
  0
LINE
  8
0
 62
0
 10
76.3905
 20
-108.322901
 30
0.0
 11
88.3905
 21
-108.3229
 31
0.0
  0
ARC
  8
0
 62
0
 10
76.3905
 20
-107.322901
 30
0.0
 40
1.0
 50
-180.0
 51
-90.0
  0
LINE
  8
0
 62
0
 10
75.3905
 20
-95.3229
 30
0.0
 11
75.3905
 21
-107.322901
 31
0.0
  0
ARC
  8
0
 62
0
 10
76.3905
 20
-95.3229
 30
0.0
 40
1.0
 50
90.0
 51
-180.0
  0
LINE
  8
0
 62
0
 10
88.3905
 20
-94.3229
 30
0.0
 11
76.3905
 21
-94.3229
 31
0.0
  0
ARC
  8
0
 62
0
 10
88.3905
 20
-95.3229
 30
0.0
 40
1.0
 50
-0.0
 51
90.0
  0
LINE
  8
0
 62
0
 10
89.390499
 20
-107.322901
 30
0.0
 11
89.3905
 21
-95.3229
 31
0.0
  0
ARC
  8
0
 62
0
 10
95.4405
 20
-95.3229
 30
0.0
 40
1.0
 50
90.0
 51
-180.0
  0
LINE
  8
0
 62
0
 10
95.4405
 20
-94.3229
 30
0.0
 11
107.4405
 21
-94.3229
 31
0.0
  0
ARC
  8
0
 62
0
 10
107.4405
 20
-95.3229
 30
0.0
 40
1.0
 50
-0.0
 51
90.0
  0
LINE
  8
0
 62
0
 10
108.4405
 20
-95.3229
 30
0.0
 11
108.4405
 21
-107.322901
 31
0.0
  0
ARC
  8
0
 62
0
 10
107.4405
 20
-107.322901
 30
0.0
 40
0.999999
 50
-90.0
 51
-0.0
  0
LINE
  8
0
 62
0
 10
107.4405
 20
-108.3229
 30
0.0
 11
95.4405
 21
-108.3229
 31
0.0
  0
ARC
  8
0
 62
0
 10
95.4405
 20
-107.322901
 30
0.0
 40
1.0
 50
-180.0
 51
-90.0
  0
LINE
  8
0
 62
0
 10
94.4405
 20
-107.322901
 30
0.0
 11
94.4405
 21
-95.3229
 31
0.0
  0
LINE
  8
0
 62
0
 10
84.9155
 20
-114.372901
 30
0.0
 11
84.9155
 21
-126.372901
 31
0.0
  0
ARC
  8
0
 62
0
 10
85.9155
 20
-114.372901
 30
0.0
 40
1.0
 50
90.0
 51
-180.0
  0
LINE
  8
0
 62
0
 10
97.9155
 20
-113.372901
 30
0.0
 11
85.9155
 21
-113.372901
 31
0.0
  0
ARC
  8
0
 62
0
 10
97.9155
 20
-114.372901
 30
0.0
 40
1.0
 50
-0.0
 51
90.0
  0
LINE
  8
0
 62
0
 10
98.9155
 20
-126.372901
 30
0.0
 11
98.9155
 21
-114.372901
 31
0.0
  0
ARC
  8
0
 62
0
 10
97.9155
 20
-126.372901
 30
0.0
 40
1.0
 50
-90.0
 51
-0.0
  0
LINE
  8
0
 62
0
 10
85.9155
 20
-127.372901
 30
0.0
 11
97.9155
 21
-127.372901
 31
0.0
  0
ARC
  8
0
 62
0
 10
85.9155
 20
-126.372901
 30
0.0
 40
1.0
 50
-180.0
 51
-90.0
  0
ARC
  8
0
 62
0
 10
90.678
 20
-145.422901
 30
0.0
 40
1.0
 50
-180.0
 51
-90.0
  0
LINE
  8
0
 62
0
 10
89.678
 20
-133.422901
 30
0.0
 11
89.678
 21
-145.422901
 31
0.0
  0
ARC
  8
0
 62
0
 10
90.678
 20
-133.422901
 30
0.0
 40
1.0
 50
90.0
 51
-180.0
  0
LINE
  8
0
 62
0
 10
102.678
 20
-132.422901
 30
0.0
 11
90.678
 21
-132.422901
 31
0.0
  0
ARC
  8
0
 62
0
 10
102.678
 20
-133.422901
 30
0.0
 40
1.0
 50
-0.0
 51
90.0
  0
LINE
  8
0
 62
0
 10
103.678
 20
-145.422901
 30
0.0
 11
103.678
 21
-133.422901
 31
0.0
  0
ARC
  8
0
 62
0
 10
102.678
 20
-145.422901
 30
0.0
 40
1.0
 50
-90.0
 51
-0.0
  0
LINE
  8
0
 62
0
 10
90.678
 20
-146.422901
 30
0.0
 11
102.678
 21
-146.422901
 31
0.0
  0
ARC
  8
0
 62
0
 10
59.72175
 20
-145.422901
 30
0.0
 40
1.0
 50
-180.0
 51
-90.0
  0
LINE
  8
0
 62
0
 10
58.72175
 20
-145.422901
 30
0.0
 11
58.72175
 21
-133.422901
 31
0.0
  0
ARC
  8
0
 62
0
 10
59.72175
 20
-133.422901
 30
0.0
 40
1.0
 50
90.0
 51
-180.0
  0
LINE
  8
0
 62
0
 10
59.72175
 20
-132.422901
 30
0.0
 11
76.48425
 21
-132.422901
 31
0.0
  0
ARC
  8
0
 62
0
 10
76.48425
 20
-133.422901
 30
0.0
 40
1.0
 50
-0.0
 51
90.0
  0
LINE
  8
0
 62
0
 10
77.48425
 20
-133.422901
 30
0.0
 11
77.48425
 21
-145.422901
 31
0.0
  0
ARC
  8
0
 62
0
 10
76.48425
 20
-145.422901
 30
0.0
 40
1.0
 50
-90.0
 51
-0.0
  0
LINE
  8
0
 62
0
 10
76.48425
 20
-146.422901
 30
0.0
 11
59.72175
 21
-146.422901
 31
0.0
  0
LINE
  8
0
 62
0
 10
57.340499
 20
-108.322901
 30
0.0
 11
69.3405
 21
-108.3229
 31
0.0
  0
ARC
  8
0
 62
0
 10
57.340499
 20
-107.322901
 30
0.0
 40
1.0
 50
-180.0
 51
-90.0
  0
LINE
  8
0
 62
0
 10
56.340499
 20
-95.3229
 30
0.0
 11
56.340499
 21
-107.322901
 31
0.0
  0
ARC
  8
0
 62
0
 10
57.340499
 20
-95.3229
 30
0.0
 40
1.0
 50
90.0
 51
-180.0
  0
LINE
  8
0
 62
0
 10
69.3405
 20
-94.322901
 30
0.0
 11
57.340499
 21
-94.32289999999999
 31
0.0
  0
ARC
  8
0
 62
0
 10
69.3405
 20
-95.3229
 30
0.0
 40
0.999999
 50
-0.0
 51
90.0
  0
LINE
  8
0
 62
0
 10
70.340499
 20
-107.322901
 30
0.0
 11
70.34049899999998
 21
-95.3229
 31
0.0
  0
ARC
  8
0
 62
0
 10
69.3405
 20
-107.322901
 30
0.0
 40
0.999999
 50
-90.0
 51
-0.0
  0
LINE
  8
0
 62
0
 10
127.490499
 20
-107.322901
 30
0.0
 11
127.490499
 21
-95.3229
 31
0.0
  0
ARC
  8
0
 62
0
 10
126.4905
 20
-107.322901
 30
0.0
 40
0.999999
 50
-90.0
 51
-0.0
  0
LINE
  8
0
 62
0
 10
114.490499
 20
-108.322901
 30
0.0
 11
126.4905
 21
-108.3229
 31
0.0
  0
ARC
  8
0
 62
0
 10
114.490499
 20
-107.322901
 30
0.0
 40
1.0
 50
-180.0
 51
-90.0
  0
LINE
  8
0
 62
0
 10
113.490499
 20
-95.3229
 30
0.0
 11
113.4905
 21
-107.322901
 31
0.0
  0
ARC
  8
0
 62
0
 10
114.490499
 20
-95.3229
 30
0.0
 40
1.0
 50
90.0
 51
-180.0
  0
LINE
  8
0
 62
0
 10
126.4905
 20
-94.3229
 30
0.0
 11
114.490499
 21
-94.3229
 31
0.0
  0
ARC
  8
0
 62
0
 10
126.4905
 20
-95.3229
 30
0.0
 40
1.0
 50
-0.0
 51
90.0
  0
ENDBLK
  0
ENDSEC
  0
SECTION
  2
ENTITIES
  0
INSERT
  2
PART__FEATURE
  8
0
 62
0
 10
0.0
 20
0.0
 30
0.0
  0
ENDSEC
  0
EOF
