M48
; DRILL file {KiCad (5.1.5)-3} date 6/26/2020 11:57:26 AM
; FORMAT={-:-/ absolute / inch / decimal}
; #@! TF.CreationDate,2020-06-26T11:57:26-04:00
; #@! TF.GenerationSoftware,Kicad,Pcbnew,(5.1.5)-3
FMAT,2
INCH
T1C0.0157
T2C0.0236
T3C0.0276
T4C0.0315
T5C0.0354
T6C0.0400
T7C0.0433
T8C0.0591
T9C0.0866
T10C0.0669
T11C0.1200
T12C0.1201
T13C0.1570
T14C0.1575
%
G90
G05
T1
X2.2677Y-3.4043
X2.779Y-5.073
X2.788Y-3.466
X2.96Y-2.97
X3.072Y-5.074
X4.1298Y-4.8888
X5.0109Y-7.0017
X5.062Y-3.1648
X5.5582Y-3.1648
X6.0942Y-3.1648
X6.5558Y-3.1648
X7.0088Y-3.1648
X7.6332Y-3.1648
X7.9444Y-3.1648
X8.2672Y-3.1648
X8.3637Y-7.0127
X8.5846Y-3.1648
X8.901Y-2.6916
X9.1144Y-3.1648
X9.2538Y-2.5783
X9.3199Y-2.7294
X9.388Y-2.7298
X9.3984Y-2.663
X9.6064Y-3.1648
X9.8111Y-2.6475
X9.8407Y-6.8191
X9.8457Y-2.6956
X9.8504Y-2.5989
X9.8607Y-2.6564
X10.024Y-4.7848
X10.1279Y-2.4548
X10.3269Y-2.3716
X10.3558Y-2.5328
X10.5374Y-2.3861
X10.7028Y-2.5052
X10.8334Y-4.802
X10.8872Y-2.6564
X10.8899Y-6.8109
X10.8982Y-2.4422
X10.916Y-2.685
X10.9774Y-2.7086
X11.1586Y-6.8143
X11.2693Y-2.5741
X11.4059Y-6.8198
X11.54Y-2.442
X11.7032Y-3.0212
X11.7978Y-2.9182
X11.8082Y-3.1002
X11.8698Y-2.9152
X11.9017Y-2.603
X11.9494Y-3.5021
X11.9514Y-3.0846
X11.9672Y-2.9152
X12.0022Y-2.603
X12.0516Y-2.9152
X12.0524Y-3.0932
X12.1028Y-2.603
X12.1514Y-2.9152
X12.1516Y-3.1036
X12.2034Y-2.603
X12.2518Y-3.1036
X12.304Y-2.603
X12.3965Y-2.8028
X12.4045Y-2.603
X12.4514Y-2.9017
X12.4523Y-3.0805
X12.4799Y-3.4642
X12.4916Y-5.8133
X12.5051Y-2.603
X12.5051Y-2.8056
X12.5961Y-2.8056
X12.6953Y-2.8056
X12.712Y-2.4804
X12.7734Y-3.6488
X12.85Y-4.639
X13.1233Y-6.6738
X13.487Y-3.6945
X10.8098Y-2.5617
X10.81Y-2.6138
X10.8432Y-2.5617
X10.8434Y-2.6138
X10.8767Y-2.5617
X10.8769Y-2.6138
X10.9102Y-2.5617
X10.9104Y-2.6138
X10.9436Y-2.5617
X10.9438Y-2.6138
X10.9771Y-2.5617
X10.9773Y-2.6138
X11.0106Y-2.5617
X11.0108Y-2.6138
X11.0442Y-2.5617
X11.0442Y-2.6138
T2
X11.1999Y-2.7128
X11.1999Y-2.7718
T3
X11.4184Y-2.88
X11.6184Y-2.88
X11.4184Y-2.9782
X11.6184Y-2.9782
X11.4184Y-2.5814
X11.6184Y-2.5814
X11.4184Y-3.0763
X11.6184Y-3.0763
X11.4184Y-2.7787
X11.6184Y-2.7787
X11.4184Y-2.6795
X11.6184Y-2.6795
X10.6318Y-2.3366
X10.6318Y-2.5374
X11.4184Y-2.4832
X11.6184Y-2.4832
T4
X6.9961Y-2.6565
X6.9961Y-2.8565
X8.9899Y-2.6565
X8.9899Y-2.8565
X3.627Y-2.7216
X3.627Y-2.9216
X7.62Y-2.7216
X7.62Y-2.9216
X9.1139Y-2.7216
X9.1139Y-2.9216
X3.0031Y-2.6565
X3.0031Y-2.8565
X3.5022Y-2.6565
X3.5022Y-2.8565
X8.7417Y-2.7867
X8.7417Y-2.9867
X7.8696Y-2.8518
X7.8696Y-3.0518
X13.4609Y-3.1302
X13.4609Y-3.2286
X12.9008Y-3.1302
X12.9008Y-3.2286
X5.1244Y-2.7216
X5.1244Y-2.9216
X4.9996Y-2.6565
X4.9996Y-2.8565
X11.8013Y-2.4074
X11.8013Y-3.0074
X11.9013Y-2.4074
X11.9013Y-3.0074
X12.0013Y-2.4074
X12.0013Y-3.0074
X12.1013Y-2.4074
X12.1013Y-3.0074
X12.2013Y-2.4074
X12.2013Y-3.0074
X12.3013Y-2.4074
X12.3013Y-3.0074
X12.4013Y-2.4074
X12.4013Y-3.0074
X12.5013Y-2.4074
X12.5013Y-3.0074
X12.6013Y-2.4074
X12.6013Y-3.0074
X12.7013Y-2.4074
X12.7013Y-3.0074
X12.8013Y-2.4074
X12.8013Y-3.0074
X12.9013Y-2.4074
X12.9013Y-3.0074
X13.0013Y-2.4074
X13.0013Y-3.0074
X13.1013Y-2.4074
X13.1013Y-3.0074
X13.2013Y-2.4074
X13.2013Y-3.0074
X13.3013Y-2.4074
X13.3013Y-3.0074
X13.4013Y-2.4074
X13.4013Y-3.0074
X13.5013Y-2.4074
X13.5013Y-3.0074
X13.6013Y-2.4074
X13.6013Y-3.0074
X13.7013Y-2.4074
X13.7013Y-3.0074
X6.6218Y-2.7216
X6.6218Y-2.9216
X7.1209Y-2.7216
X7.1209Y-2.9216
X7.3704Y-2.8518
X7.3704Y-3.0518
X3.3774Y-2.8518
X3.3774Y-3.0518
X9.6101Y-2.7216
X9.6101Y-2.9216
X6.3722Y-2.8518
X6.3722Y-3.0518
X5.3739Y-2.8518
X5.3739Y-3.0518
X12.8002Y-2.3199
X12.9971Y-2.3199
X8.4935Y-2.6565
X8.4935Y-2.8565
X4.1261Y-2.7216
X4.1261Y-2.9216
X8.6176Y-2.7216
X8.6176Y-2.9216
X4.75Y-2.7867
X4.75Y-2.9867
X6.8713Y-2.8518
X6.8713Y-3.0518
X4.0013Y-2.6565
X4.0013Y-2.8565
X11.1538Y-2.8804
X11.1538Y-3.0804
X8.8658Y-2.8518
X8.8658Y-3.0518
X3.8766Y-2.8518
X3.8766Y-3.0518
X12.617Y-3.0991
X12.8138Y-3.0991
X4.6252Y-2.7216
X4.6252Y-2.9216
X7.4952Y-2.6565
X7.4952Y-2.8565
X6.2474Y-2.7867
X6.2474Y-2.9867
X7.2457Y-2.7867
X7.2457Y-2.9867
X5.2492Y-2.7867
X5.2492Y-2.9867
X13.0855Y-3.1597
X13.2776Y-3.1597
X8.3687Y-2.8518
X8.3687Y-3.0518
X2.5039Y-2.6565
X2.5039Y-2.8565
X9.486Y-2.6565
X9.486Y-2.8565
X2.8783Y-2.8518
X2.8783Y-3.0518
X5.8731Y-2.8518
X5.8731Y-3.0518
X9.2379Y-2.7867
X9.2379Y-2.9867
X10.476Y-2.6565
X10.476Y-2.8565
X5.6235Y-2.7216
X5.6235Y-2.9216
X2.6287Y-2.7216
X2.6287Y-2.9216
X6.497Y-2.6565
X6.497Y-2.8565
X4.2509Y-2.7867
X4.2509Y-2.9867
X6.7465Y-2.7867
X6.7465Y-2.9867
X8.1191Y-2.7216
X8.1191Y-2.9216
X10.6049Y-2.7216
X10.6049Y-2.9216
X9.8557Y-2.8518
X9.8557Y-3.0518
X4.3757Y-2.8518
X4.3757Y-3.0518
X4.8748Y-2.8518
X4.8748Y-3.0518
X11.2667Y-2.8804
X11.2667Y-3.0804
X7.9944Y-2.6565
X7.9944Y-2.8565
X5.9978Y-2.6565
X5.9978Y-2.8565
X5.4987Y-2.6565
X5.4987Y-2.8565
X3.1279Y-2.7216
X3.1279Y-2.9216
X5.7483Y-2.7867
X5.7483Y-2.9867
X3.7518Y-2.7867
X3.7518Y-2.9867
X10.2279Y-2.7867
X10.2279Y-2.9867
X7.7448Y-2.7867
X7.7448Y-2.9867
X10.3519Y-2.8518
X10.3519Y-3.0518
X9.7317Y-2.7867
X9.7317Y-2.9867
X3.2526Y-2.7867
X3.2526Y-2.9867
X3.8062Y-5.836
X3.8062Y-6.036
X10.8481Y-2.8518
X10.8481Y-3.0518
X4.5005Y-2.6565
X4.5005Y-2.8565
X2.7535Y-2.7867
X2.7535Y-2.9867
X6.1226Y-2.7216
X6.1226Y-2.9216
X9.362Y-2.8518
X9.362Y-3.0518
X10.7265Y-2.7867
X10.7265Y-2.9867
X10.1038Y-2.7216
X10.1038Y-2.9216
X8.2439Y-2.7867
X8.2439Y-2.9867
X9.9798Y-2.6565
X9.9798Y-2.8565
T5
X11.1861Y-2.4398
X11.2861Y-2.4398
T6
X9.8509Y-2.376
X9.8509Y-2.476
X9.9509Y-2.376
X9.9509Y-2.476
X10.0509Y-2.376
X10.0509Y-2.476
T7
X8.9168Y-2.3558
X8.9168Y-2.5329
X9.1727Y-2.3558
X9.1727Y-2.5329
X9.3892Y-2.3558
X9.3892Y-2.5329
X9.6451Y-2.3558
X9.6451Y-2.5329
T8
X11.3453Y-6.6309
X11.5953Y-6.5309
X12.8438Y-6.6312
X13.0938Y-6.5312
X4.0312Y-5.8812
X4.2812Y-5.7812
X5.5312Y-5.8812
X5.7812Y-5.7812
X8.3438Y-3.6313
X8.5938Y-3.5312
X4.5938Y-3.6313
X4.8438Y-3.5312
X10.9688Y-4.3812
X11.2188Y-4.2812
X6.0938Y-3.6313
X6.3438Y-3.5312
X4.2188Y-4.3812
X4.4688Y-4.2812
X13.5938Y-4.3812
X13.8438Y-4.2812
X12.375Y-5.1312
X12.625Y-5.0312
X7.125Y-6.6312
X7.375Y-6.5312
X10.4062Y-5.1312
X10.6562Y-5.0312
X13.5938Y-5.1312
X13.8438Y-5.0312
X6.6562Y-5.1312
X6.9062Y-5.0312
X2.625Y-5.1309
X2.875Y-5.0309
X5.3438Y-3.6313
X5.5938Y-3.5312
X8.7188Y-4.3812
X8.9688Y-4.2812
X9.0938Y-3.6313
X9.3438Y-3.5312
X9.8449Y-6.6309
X10.0949Y-6.5309
X3.6562Y-5.1312
X3.9062Y-5.0312
X10.5951Y-6.6312
X10.8451Y-6.5312
X11.7188Y-4.3812
X11.9688Y-4.2812
X8.1562Y-5.1312
X8.4062Y-5.0312
X11.1562Y-5.1312
X11.4062Y-5.0312
X7.7813Y-5.8812
X8.0313Y-5.7812
X4.9688Y-4.3812
X5.2188Y-4.2812
X3.8438Y-3.6313
X4.0938Y-3.5312
X10.5938Y-3.6313
X10.8438Y-3.5312
X12.6562Y-4.3812
X12.9062Y-4.2812
X7.9688Y-4.3812
X8.2188Y-4.2812
X3.2812Y-5.8812
X3.5312Y-5.7812
X9.4688Y-4.3812
X9.7188Y-4.2812
X2.8125Y-5.8812
X3.0625Y-5.7812
X2.4375Y-5.1309
X2.6875Y-5.0309
X12.8438Y-5.8812
X13.0938Y-5.7812
X13.5938Y-6.6312
X13.8438Y-6.5312
X7.0313Y-5.8812
X7.2813Y-5.7812
X7.4062Y-5.1312
X7.6562Y-5.0312
X6.2813Y-5.8812
X6.5313Y-5.7812
X11.3438Y-3.6313
X11.5938Y-3.5312
X4.3125Y-6.6309
X4.5625Y-6.5309
X6.4688Y-4.3812
X6.7188Y-4.2812
X2.4375Y-5.8812
X2.6875Y-5.7812
X10.2188Y-4.3812
X10.4688Y-4.2812
X11.9062Y-5.1312
X12.1562Y-5.0312
X6.8448Y-6.6316
X7.0948Y-6.5316
X3.6572Y-6.6311
X3.9072Y-6.5311
X11.1571Y-6.6312
X11.4071Y-6.5312
X13.5938Y-5.8812
X13.8438Y-5.7812
X10.7813Y-5.8812
X11.0313Y-5.7812
X10.0313Y-5.8812
X10.2813Y-5.7812
X9.6562Y-5.1312
X9.9062Y-5.0312
X2.5312Y-4.3812
X2.7812Y-4.2812
X11.8125Y-5.8812
X12.0625Y-5.7812
X4.4062Y-5.1312
X4.6562Y-5.0312
X5.9062Y-5.1312
X6.1562Y-5.0312
X2.5312Y-6.6309
X2.7812Y-6.5309
X4.7812Y-5.8812
X5.0312Y-5.7812
X8.5313Y-5.8812
X8.7813Y-5.7812
X7.5938Y-3.6313
X7.8438Y-3.5312
X2.3438Y-3.6313
X2.5938Y-3.5312
X7.2188Y-4.3812
X7.4688Y-4.2812
X5.1562Y-5.1312
X5.4062Y-5.0312
X12.75Y-4.7562
X13.0Y-4.6562
X3.375Y-6.6312
X3.625Y-6.5312
X12.4688Y-3.6313
X12.7188Y-3.5312
X12.0938Y-6.6312
X12.3438Y-6.5312
X8.9062Y-5.1312
X9.1562Y-5.0312
X9.2813Y-5.8812
X9.5313Y-5.7812
X9.8438Y-3.6313
X10.0938Y-3.5312
X6.8438Y-3.6313
X7.0938Y-3.5312
X13.5938Y-3.6313
X13.8438Y-3.5312
X3.0938Y-3.6313
X3.3438Y-3.5312
X3.4688Y-4.3812
X3.7188Y-4.2812
X5.7188Y-4.3812
X5.9688Y-4.2812
X2.4375Y-6.6309
X2.6875Y-6.5309
X10.0328Y-6.6312
X10.2828Y-6.5312
T9
X12.4355Y-6.3444
X8.1186Y-6.5732
X8.1186Y-3.1671
X8.1186Y-2.4289
X13.963Y-2.4289
X13.963Y-3.1671
X8.1186Y-4.1064
X2.2743Y-3.1671
X2.2743Y-2.4289
X4.4785Y-4.1064
X11.7587Y-4.1064
X3.8018Y-6.3444
T10
X11.2953Y-6.7309
X11.6953Y-6.7309
X12.7937Y-6.7313
X13.1937Y-6.7313
X3.9812Y-5.9813
X4.3812Y-5.9813
X5.4813Y-5.9813
X5.8812Y-5.9813
X8.2937Y-3.7312
X8.6937Y-3.7312
X4.5438Y-3.7312
X4.9437Y-3.7312
X10.9187Y-4.4813
X11.3187Y-4.4813
X6.0438Y-3.7312
X6.4437Y-3.7312
X4.1688Y-4.4813
X4.5687Y-4.4813
X13.5437Y-4.4813
X13.9437Y-4.4813
X12.325Y-5.2313
X12.725Y-5.2313
X7.075Y-6.7313
X7.475Y-6.7313
X10.3562Y-5.2313
X10.7562Y-5.2313
X13.5437Y-5.2313
X13.9437Y-5.2313
X6.6062Y-5.2313
X7.0062Y-5.2313
X2.575Y-5.2309
X2.975Y-5.2309
X5.2938Y-3.7312
X5.6937Y-3.7312
X8.6687Y-4.4813
X9.0687Y-4.4813
X9.0437Y-3.7312
X9.4437Y-3.7312
X9.7949Y-6.7309
X10.1949Y-6.7309
X3.6062Y-5.2313
X4.0062Y-5.2313
X10.5451Y-6.7313
X10.9451Y-6.7313
X11.6687Y-4.4813
X12.0687Y-4.4813
X8.1062Y-5.2313
X8.5062Y-5.2313
X11.1062Y-5.2313
X11.5062Y-5.2313
X7.7313Y-5.9813
X8.1313Y-5.9813
X4.9188Y-4.4813
X5.3187Y-4.4813
X3.7937Y-3.7312
X4.1937Y-3.7312
X10.5437Y-3.7312
X10.9437Y-3.7312
X12.6062Y-4.4813
X13.0062Y-4.4813
X7.9188Y-4.4813
X8.3187Y-4.4813
X3.2312Y-5.9813
X3.6313Y-5.9813
X9.4187Y-4.4813
X9.8187Y-4.4813
X2.7625Y-5.9813
X3.1625Y-5.9813
X2.3875Y-5.2309
X2.7875Y-5.2309
X12.7937Y-5.9813
X13.1937Y-5.9813
X13.5437Y-6.7313
X13.9437Y-6.7313
X6.9813Y-5.9813
X7.3813Y-5.9813
X7.3562Y-5.2313
X7.7562Y-5.2313
X6.2313Y-5.9813
X6.6313Y-5.9813
X11.2937Y-3.7312
X11.6937Y-3.7312
X4.2625Y-6.7309
X4.6625Y-6.7309
X6.4188Y-4.4813
X6.8187Y-4.4813
X2.3875Y-5.9813
X2.7875Y-5.9813
X10.1687Y-4.4813
X10.5687Y-4.4813
X11.8562Y-5.2313
X12.2562Y-5.2313
X6.7948Y-6.7316
X7.1948Y-6.7316
X3.6072Y-6.7311
X4.0072Y-6.7311
X11.1071Y-6.7313
X11.5071Y-6.7313
X13.5437Y-5.9813
X13.9437Y-5.9813
X10.7313Y-5.9813
X11.1313Y-5.9813
X9.9813Y-5.9813
X10.3813Y-5.9813
X9.6062Y-5.2313
X10.0062Y-5.2313
X2.4812Y-4.4813
X2.8813Y-4.4813
X11.7625Y-5.9813
X12.1625Y-5.9813
X4.3563Y-5.2313
X4.7562Y-5.2313
X5.8562Y-5.2313
X6.2562Y-5.2313
X2.4812Y-6.7309
X2.8812Y-6.7309
X4.7313Y-5.9813
X5.1312Y-5.9813
X8.4813Y-5.9813
X8.8813Y-5.9813
X7.5438Y-3.7312
X7.9437Y-3.7312
X2.2937Y-3.7312
X2.6938Y-3.7312
X7.1688Y-4.4813
X7.5687Y-4.4813
X5.1063Y-5.2313
X5.5062Y-5.2313
X12.7Y-4.8563
X13.1Y-4.8563
X3.325Y-6.7313
X3.725Y-6.7313
X12.4187Y-3.7312
X12.8187Y-3.7312
X12.0437Y-6.7313
X12.4437Y-6.7313
X8.8562Y-5.2313
X9.2562Y-5.2313
X9.2313Y-5.9813
X9.6313Y-5.9813
X9.7937Y-3.7312
X10.1937Y-3.7312
X6.7938Y-3.7312
X7.1937Y-3.7312
X13.5437Y-3.7312
X13.9437Y-3.7312
X3.0437Y-3.7312
X3.4438Y-3.7312
X3.4187Y-4.4813
X3.8188Y-4.4813
X5.6688Y-4.4813
X6.0687Y-4.4813
X2.3875Y-6.7309
X2.7875Y-6.7309
X9.9828Y-6.7313
X10.3828Y-6.7313
T11
X4.7448Y-7.0066
X9.2448Y-7.0066
X5.3075Y-7.0066
X9.2445Y-7.0066
T12
X2.494Y-5.7057
X3.431Y-5.7057
X13.1756Y-4.3877
X13.1756Y-5.3248
X12.1502Y-3.4557
X13.0873Y-3.4557
X12.0565Y-4.9557
X12.9935Y-4.9557
T13
X4.7448Y-6.4066
X9.2448Y-6.4066
X5.3075Y-6.4066
X9.2445Y-6.4066
T14
X11.4953Y-6.7309
X12.9938Y-6.7313
X4.1812Y-5.9813
X5.6812Y-5.9813
X8.4938Y-3.7312
X4.7437Y-3.7312
X11.1188Y-4.4813
X6.2437Y-3.7312
X4.3687Y-4.4813
X13.7438Y-4.4813
X12.0565Y-5.5557
X12.525Y-5.2313
X12.9935Y-5.5557
X7.275Y-6.7313
X10.5562Y-5.2313
X13.7438Y-5.2313
X6.8062Y-5.2313
X2.775Y-5.2309
X5.4937Y-3.7312
X8.8688Y-4.4813
X9.2438Y-3.7312
X9.9949Y-6.7309
X3.8062Y-5.2313
X10.7451Y-6.7313
X11.8688Y-4.4813
X8.3062Y-5.2313
X11.3062Y-5.2313
X7.9313Y-5.9813
X5.1187Y-4.4813
X3.9937Y-3.7312
X10.7438Y-3.7312
X12.8062Y-4.4813
X8.1188Y-4.4813
X3.4312Y-5.9813
X9.6188Y-4.4813
X2.494Y-6.3057
X2.9625Y-5.9813
X3.431Y-6.3057
X2.5875Y-5.2309
X12.9938Y-5.9813
X13.7438Y-6.7313
X7.1813Y-5.9813
X7.5562Y-5.2313
X6.4313Y-5.9813
X11.4938Y-3.7312
X4.4625Y-6.7309
X6.6187Y-4.4813
X2.5875Y-5.9813
X10.3688Y-4.4813
X12.0563Y-5.2313
X6.9948Y-6.7316
X3.8072Y-6.7311
X11.3071Y-6.7313
X13.7438Y-5.9813
X10.9313Y-5.9813
X10.1813Y-5.9813
X9.8062Y-5.2313
X2.6812Y-4.4813
X11.9625Y-5.9813
X4.5562Y-5.2313
X6.0562Y-5.2313
X2.6812Y-6.7309
X4.9312Y-5.9813
X8.6813Y-5.9813
X7.7437Y-3.7312
X2.4937Y-3.7312
X7.3687Y-4.4813
X5.3062Y-5.2313
X12.5756Y-4.3877
X12.5756Y-5.3248
X12.9Y-4.8563
X3.525Y-6.7313
X12.1502Y-4.0557
X12.6188Y-3.7312
X13.0873Y-4.0557
X12.2438Y-6.7313
X9.0562Y-5.2313
X9.4313Y-5.9813
X9.9938Y-3.7312
X6.9937Y-3.7312
X13.7438Y-3.7312
X3.2437Y-3.7312
X3.6187Y-4.4813
X5.8687Y-4.4813
X2.5875Y-6.7309
X10.1828Y-6.7313
T2
G00X10.7568Y-2.4579
M15
G01X10.7568Y-2.4264
M16
G05
G00X10.7568Y-2.6048
M15
G01X10.7568Y-2.5457
M16
G05
G00X11.0974Y-2.4579
M15
G01X11.0974Y-2.4264
M16
G05
G00X11.0974Y-2.6048
M15
G01X11.0974Y-2.5457
M16
G05
T0
M30
