G04 #@! TF.GenerationSoftware,KiCad,Pcbnew,(5.1.5)-3*
G04 #@! TF.CreationDate,2020-06-26T11:57:11-04:00*
G04 #@! TF.ProjectId,discipline-pcb,64697363-6970-46c6-996e-652d7063622e,rev?*
G04 #@! TF.SameCoordinates,Original*
G04 #@! TF.FileFunction,Legend,Top*
G04 #@! TF.FilePolarity,Positive*
%FSLAX46Y46*%
G04 Gerber Fmt 4.6, Leading zero omitted, Abs format (unit mm)*
G04 Created by KiCad (PCBNEW (5.1.5)-3) date 2020-06-26 11:57:11*
%MOMM*%
%LPD*%
G04 APERTURE LIST*
%ADD10C,0.100000*%
%ADD11C,0.120000*%
%ADD12C,0.150000*%
%ADD13C,0.200000*%
%ADD14C,0.203200*%
G04 APERTURE END LIST*
D10*
X95678750Y-146908780D02*
X95678750Y-145908780D01*
X96107321Y-146861161D02*
X96250178Y-146908780D01*
X96488273Y-146908780D01*
X96583511Y-146861161D01*
X96631130Y-146813542D01*
X96678750Y-146718304D01*
X96678750Y-146623066D01*
X96631130Y-146527828D01*
X96583511Y-146480209D01*
X96488273Y-146432590D01*
X96297797Y-146384971D01*
X96202559Y-146337352D01*
X96154940Y-146289733D01*
X96107321Y-146194495D01*
X96107321Y-146099257D01*
X96154940Y-146004019D01*
X96202559Y-145956400D01*
X96297797Y-145908780D01*
X96535892Y-145908780D01*
X96678750Y-145956400D01*
X97297797Y-145908780D02*
X97488273Y-145908780D01*
X97583511Y-145956400D01*
X97678750Y-146051638D01*
X97726369Y-146242114D01*
X97726369Y-146575447D01*
X97678750Y-146765923D01*
X97583511Y-146861161D01*
X97488273Y-146908780D01*
X97297797Y-146908780D01*
X97202559Y-146861161D01*
X97107321Y-146765923D01*
X97059702Y-146575447D01*
X97059702Y-146242114D01*
X97107321Y-146051638D01*
X97202559Y-145956400D01*
X97297797Y-145908780D01*
X305101857Y-130500380D02*
X304530428Y-130500380D01*
X304816142Y-130500380D02*
X304816142Y-129500380D01*
X304720904Y-129643238D01*
X304625666Y-129738476D01*
X304530428Y-129786095D01*
X305530428Y-129500380D02*
X305530428Y-130309904D01*
X305578047Y-130405142D01*
X305625666Y-130452761D01*
X305720904Y-130500380D01*
X305911380Y-130500380D01*
X306006619Y-130452761D01*
X306054238Y-130405142D01*
X306101857Y-130309904D01*
X306101857Y-129500380D01*
X307339952Y-130500380D02*
X307339952Y-129500380D01*
X307768523Y-130452761D02*
X307911380Y-130500380D01*
X308149476Y-130500380D01*
X308244714Y-130452761D01*
X308292333Y-130405142D01*
X308339952Y-130309904D01*
X308339952Y-130214666D01*
X308292333Y-130119428D01*
X308244714Y-130071809D01*
X308149476Y-130024190D01*
X307959000Y-129976571D01*
X307863761Y-129928952D01*
X307816142Y-129881333D01*
X307768523Y-129786095D01*
X307768523Y-129690857D01*
X307816142Y-129595619D01*
X307863761Y-129548000D01*
X307959000Y-129500380D01*
X308197095Y-129500380D01*
X308339952Y-129548000D01*
X308959000Y-129500380D02*
X309149476Y-129500380D01*
X309244714Y-129548000D01*
X309339952Y-129643238D01*
X309387571Y-129833714D01*
X309387571Y-130167047D01*
X309339952Y-130357523D01*
X309244714Y-130452761D01*
X309149476Y-130500380D01*
X308959000Y-130500380D01*
X308863761Y-130452761D01*
X308768523Y-130357523D01*
X308720904Y-130167047D01*
X308720904Y-129833714D01*
X308768523Y-129643238D01*
X308863761Y-129548000D01*
X308959000Y-129500380D01*
X325722123Y-120924580D02*
X325722123Y-119924580D01*
X326150695Y-120876961D02*
X326293552Y-120924580D01*
X326531647Y-120924580D01*
X326626885Y-120876961D01*
X326674504Y-120829342D01*
X326722123Y-120734104D01*
X326722123Y-120638866D01*
X326674504Y-120543628D01*
X326626885Y-120496009D01*
X326531647Y-120448390D01*
X326341171Y-120400771D01*
X326245933Y-120353152D01*
X326198314Y-120305533D01*
X326150695Y-120210295D01*
X326150695Y-120115057D01*
X326198314Y-120019819D01*
X326245933Y-119972200D01*
X326341171Y-119924580D01*
X326579266Y-119924580D01*
X326722123Y-119972200D01*
X327341171Y-119924580D02*
X327531647Y-119924580D01*
X327626885Y-119972200D01*
X327722123Y-120067438D01*
X327769742Y-120257914D01*
X327769742Y-120591247D01*
X327722123Y-120781723D01*
X327626885Y-120876961D01*
X327531647Y-120924580D01*
X327341171Y-120924580D01*
X327245933Y-120876961D01*
X327150695Y-120781723D01*
X327103076Y-120591247D01*
X327103076Y-120257914D01*
X327150695Y-120067438D01*
X327245933Y-119972200D01*
X327341171Y-119924580D01*
X328960219Y-120400771D02*
X329293552Y-120400771D01*
X329436409Y-120924580D02*
X328960219Y-120924580D01*
X328960219Y-119924580D01*
X329436409Y-119924580D01*
X329864980Y-120924580D02*
X329864980Y-119924580D01*
X330436409Y-120924580D01*
X330436409Y-119924580D01*
X330769742Y-119924580D02*
X331341171Y-119924580D01*
X331055457Y-120924580D02*
X331055457Y-119924580D01*
X331674504Y-120400771D02*
X332007838Y-120400771D01*
X332150695Y-120924580D02*
X331674504Y-120924580D01*
X331674504Y-119924580D01*
X332150695Y-119924580D01*
X333150695Y-120924580D02*
X332817361Y-120448390D01*
X332579266Y-120924580D02*
X332579266Y-119924580D01*
X332960219Y-119924580D01*
X333055457Y-119972200D01*
X333103076Y-120019819D01*
X333150695Y-120115057D01*
X333150695Y-120257914D01*
X333103076Y-120353152D01*
X333055457Y-120400771D01*
X332960219Y-120448390D01*
X332579266Y-120448390D01*
X316533733Y-130214666D02*
X317009923Y-130214666D01*
X316438495Y-130500380D02*
X316771828Y-129500380D01*
X317105161Y-130500380D01*
X317438495Y-130500380D02*
X317438495Y-129500380D01*
X318009923Y-130500380D01*
X318009923Y-129500380D01*
X318438495Y-130452761D02*
X318581352Y-130500380D01*
X318819447Y-130500380D01*
X318914685Y-130452761D01*
X318962304Y-130405142D01*
X319009923Y-130309904D01*
X319009923Y-130214666D01*
X318962304Y-130119428D01*
X318914685Y-130071809D01*
X318819447Y-130024190D01*
X318628971Y-129976571D01*
X318533733Y-129928952D01*
X318486114Y-129881333D01*
X318438495Y-129786095D01*
X318438495Y-129690857D01*
X318486114Y-129595619D01*
X318533733Y-129548000D01*
X318628971Y-129500380D01*
X318867066Y-129500380D01*
X319009923Y-129548000D01*
X319438495Y-130500380D02*
X319438495Y-129500380D01*
X320676590Y-129976571D02*
X321009923Y-129976571D01*
X321152780Y-130500380D02*
X320676590Y-130500380D01*
X320676590Y-129500380D01*
X321152780Y-129500380D01*
X321581352Y-130500380D02*
X321581352Y-129500380D01*
X322152780Y-130500380D01*
X322152780Y-129500380D01*
X322486114Y-129500380D02*
X323057542Y-129500380D01*
X322771828Y-130500380D02*
X322771828Y-129500380D01*
X323390876Y-129976571D02*
X323724209Y-129976571D01*
X323867066Y-130500380D02*
X323390876Y-130500380D01*
X323390876Y-129500380D01*
X323867066Y-129500380D01*
X324867066Y-130500380D02*
X324533733Y-130024190D01*
X324295638Y-130500380D02*
X324295638Y-129500380D01*
X324676590Y-129500380D01*
X324771828Y-129548000D01*
X324819447Y-129595619D01*
X324867066Y-129690857D01*
X324867066Y-129833714D01*
X324819447Y-129928952D01*
X324771828Y-129976571D01*
X324676590Y-130024190D01*
X324295638Y-130024190D01*
X86915654Y-155544780D02*
X86344226Y-155544780D01*
X86629940Y-155544780D02*
X86629940Y-154544780D01*
X86534702Y-154687638D01*
X86439464Y-154782876D01*
X86344226Y-154830495D01*
X87344226Y-154544780D02*
X87344226Y-155354304D01*
X87391845Y-155449542D01*
X87439464Y-155497161D01*
X87534702Y-155544780D01*
X87725178Y-155544780D01*
X87820416Y-155497161D01*
X87868035Y-155449542D01*
X87915654Y-155354304D01*
X87915654Y-154544780D01*
X86153750Y-157144780D02*
X86153750Y-156144780D01*
X86582321Y-157097161D02*
X86725178Y-157144780D01*
X86963273Y-157144780D01*
X87058511Y-157097161D01*
X87106130Y-157049542D01*
X87153750Y-156954304D01*
X87153750Y-156859066D01*
X87106130Y-156763828D01*
X87058511Y-156716209D01*
X86963273Y-156668590D01*
X86772797Y-156620971D01*
X86677559Y-156573352D01*
X86629940Y-156525733D01*
X86582321Y-156430495D01*
X86582321Y-156335257D01*
X86629940Y-156240019D01*
X86677559Y-156192400D01*
X86772797Y-156144780D01*
X87010892Y-156144780D01*
X87153750Y-156192400D01*
X87772797Y-156144780D02*
X87963273Y-156144780D01*
X88058511Y-156192400D01*
X88153750Y-156287638D01*
X88201369Y-156478114D01*
X88201369Y-156811447D01*
X88153750Y-157001923D01*
X88058511Y-157097161D01*
X87963273Y-157144780D01*
X87772797Y-157144780D01*
X87677559Y-157097161D01*
X87582321Y-157001923D01*
X87534702Y-156811447D01*
X87534702Y-156478114D01*
X87582321Y-156287638D01*
X87677559Y-156192400D01*
X87772797Y-156144780D01*
X73285600Y-154640019D02*
X73333219Y-154592400D01*
X73428457Y-154544780D01*
X73666552Y-154544780D01*
X73761790Y-154592400D01*
X73809409Y-154640019D01*
X73857028Y-154735257D01*
X73857028Y-154830495D01*
X73809409Y-154973352D01*
X73237980Y-155544780D01*
X73857028Y-155544780D01*
X74285600Y-155449542D02*
X74333219Y-155497161D01*
X74285600Y-155544780D01*
X74237980Y-155497161D01*
X74285600Y-155449542D01*
X74285600Y-155544780D01*
X74714171Y-154640019D02*
X74761790Y-154592400D01*
X74857028Y-154544780D01*
X75095123Y-154544780D01*
X75190361Y-154592400D01*
X75237980Y-154640019D01*
X75285600Y-154735257D01*
X75285600Y-154830495D01*
X75237980Y-154973352D01*
X74666552Y-155544780D01*
X75285600Y-155544780D01*
X76190361Y-154544780D02*
X75714171Y-154544780D01*
X75666552Y-155020971D01*
X75714171Y-154973352D01*
X75809409Y-154925733D01*
X76047504Y-154925733D01*
X76142742Y-154973352D01*
X76190361Y-155020971D01*
X76237980Y-155116209D01*
X76237980Y-155354304D01*
X76190361Y-155449542D01*
X76142742Y-155497161D01*
X76047504Y-155544780D01*
X75809409Y-155544780D01*
X75714171Y-155497161D01*
X75666552Y-155449542D01*
X76666552Y-154544780D02*
X76666552Y-155354304D01*
X76714171Y-155449542D01*
X76761790Y-155497161D01*
X76857028Y-155544780D01*
X77047504Y-155544780D01*
X77142742Y-155497161D01*
X77190361Y-155449542D01*
X77237980Y-155354304D01*
X77237980Y-154544780D01*
X73809409Y-156859066D02*
X74285600Y-156859066D01*
X73714171Y-157144780D02*
X74047504Y-156144780D01*
X74380838Y-157144780D01*
X74714171Y-157144780D02*
X74714171Y-156144780D01*
X75285600Y-157144780D01*
X75285600Y-156144780D01*
X75714171Y-157097161D02*
X75857028Y-157144780D01*
X76095123Y-157144780D01*
X76190361Y-157097161D01*
X76237980Y-157049542D01*
X76285600Y-156954304D01*
X76285600Y-156859066D01*
X76237980Y-156763828D01*
X76190361Y-156716209D01*
X76095123Y-156668590D01*
X75904647Y-156620971D01*
X75809409Y-156573352D01*
X75761790Y-156525733D01*
X75714171Y-156430495D01*
X75714171Y-156335257D01*
X75761790Y-156240019D01*
X75809409Y-156192400D01*
X75904647Y-156144780D01*
X76142742Y-156144780D01*
X76285600Y-156192400D01*
X76714171Y-157144780D02*
X76714171Y-156144780D01*
X64293928Y-155544780D02*
X63722500Y-155544780D01*
X64008214Y-155544780D02*
X64008214Y-154544780D01*
X63912976Y-154687638D01*
X63817738Y-154782876D01*
X63722500Y-154830495D01*
X64722500Y-155449542D02*
X64770119Y-155497161D01*
X64722500Y-155544780D01*
X64674880Y-155497161D01*
X64722500Y-155449542D01*
X64722500Y-155544780D01*
X65151071Y-154640019D02*
X65198690Y-154592400D01*
X65293928Y-154544780D01*
X65532023Y-154544780D01*
X65627261Y-154592400D01*
X65674880Y-154640019D01*
X65722500Y-154735257D01*
X65722500Y-154830495D01*
X65674880Y-154973352D01*
X65103452Y-155544780D01*
X65722500Y-155544780D01*
X66627261Y-154544780D02*
X66151071Y-154544780D01*
X66103452Y-155020971D01*
X66151071Y-154973352D01*
X66246309Y-154925733D01*
X66484404Y-154925733D01*
X66579642Y-154973352D01*
X66627261Y-155020971D01*
X66674880Y-155116209D01*
X66674880Y-155354304D01*
X66627261Y-155449542D01*
X66579642Y-155497161D01*
X66484404Y-155544780D01*
X66246309Y-155544780D01*
X66151071Y-155497161D01*
X66103452Y-155449542D01*
X67103452Y-154544780D02*
X67103452Y-155354304D01*
X67151071Y-155449542D01*
X67198690Y-155497161D01*
X67293928Y-155544780D01*
X67484404Y-155544780D01*
X67579642Y-155497161D01*
X67627261Y-155449542D01*
X67674880Y-155354304D01*
X67674880Y-154544780D01*
X64722500Y-157144780D02*
X64722500Y-156144780D01*
X65151071Y-157097161D02*
X65293928Y-157144780D01*
X65532023Y-157144780D01*
X65627261Y-157097161D01*
X65674880Y-157049542D01*
X65722500Y-156954304D01*
X65722500Y-156859066D01*
X65674880Y-156763828D01*
X65627261Y-156716209D01*
X65532023Y-156668590D01*
X65341547Y-156620971D01*
X65246309Y-156573352D01*
X65198690Y-156525733D01*
X65151071Y-156430495D01*
X65151071Y-156335257D01*
X65198690Y-156240019D01*
X65246309Y-156192400D01*
X65341547Y-156144780D01*
X65579642Y-156144780D01*
X65722500Y-156192400D01*
X66341547Y-156144780D02*
X66532023Y-156144780D01*
X66627261Y-156192400D01*
X66722500Y-156287638D01*
X66770119Y-156478114D01*
X66770119Y-156811447D01*
X66722500Y-157001923D01*
X66627261Y-157097161D01*
X66532023Y-157144780D01*
X66341547Y-157144780D01*
X66246309Y-157097161D01*
X66151071Y-157001923D01*
X66103452Y-156811447D01*
X66103452Y-156478114D01*
X66151071Y-156287638D01*
X66246309Y-156192400D01*
X66341547Y-156144780D01*
X268571435Y-65993549D02*
X268190483Y-65993549D01*
X268152388Y-66374502D01*
X268190483Y-66336406D01*
X268266674Y-66298311D01*
X268457150Y-66298311D01*
X268533340Y-66336406D01*
X268571435Y-66374502D01*
X268609531Y-66450692D01*
X268609531Y-66641168D01*
X268571435Y-66717359D01*
X268533340Y-66755454D01*
X268457150Y-66793549D01*
X268266674Y-66793549D01*
X268190483Y-66755454D01*
X268152388Y-66717359D01*
X269104769Y-65993549D02*
X269180959Y-65993549D01*
X269257150Y-66031645D01*
X269295245Y-66069740D01*
X269333340Y-66145930D01*
X269371435Y-66298311D01*
X269371435Y-66488787D01*
X269333340Y-66641168D01*
X269295245Y-66717359D01*
X269257150Y-66755454D01*
X269180959Y-66793549D01*
X269104769Y-66793549D01*
X269028578Y-66755454D01*
X268990483Y-66717359D01*
X268952388Y-66641168D01*
X268914293Y-66488787D01*
X268914293Y-66298311D01*
X268952388Y-66145930D01*
X268990483Y-66069740D01*
X269028578Y-66031645D01*
X269104769Y-65993549D01*
X269866674Y-65993549D02*
X269942864Y-65993549D01*
X270019055Y-66031645D01*
X270057150Y-66069740D01*
X270095245Y-66145930D01*
X270133340Y-66298311D01*
X270133340Y-66488787D01*
X270095245Y-66641168D01*
X270057150Y-66717359D01*
X270019055Y-66755454D01*
X269942864Y-66793549D01*
X269866674Y-66793549D01*
X269790483Y-66755454D01*
X269752388Y-66717359D01*
X269714293Y-66641168D01*
X269676197Y-66488787D01*
X269676197Y-66298311D01*
X269714293Y-66145930D01*
X269752388Y-66069740D01*
X269790483Y-66031645D01*
X269866674Y-65993549D01*
X270476197Y-66793549D02*
X270476197Y-66260216D01*
X270476197Y-66336406D02*
X270514293Y-66298311D01*
X270590483Y-66260216D01*
X270704769Y-66260216D01*
X270780959Y-66298311D01*
X270819055Y-66374502D01*
X270819055Y-66793549D01*
X270819055Y-66374502D02*
X270857150Y-66298311D01*
X270933340Y-66260216D01*
X271047626Y-66260216D01*
X271123816Y-66298311D01*
X271161912Y-66374502D01*
X271161912Y-66793549D01*
X271504769Y-66564978D02*
X271885721Y-66564978D01*
X271428578Y-66793549D02*
X271695245Y-65993549D01*
X271961912Y-66793549D01*
X283351445Y-79586134D02*
X283970493Y-79586134D01*
X283637159Y-79967087D01*
X283780016Y-79967087D01*
X283875255Y-80014706D01*
X283922874Y-80062325D01*
X283970493Y-80157563D01*
X283970493Y-80395658D01*
X283922874Y-80490896D01*
X283875255Y-80538515D01*
X283780016Y-80586134D01*
X283494302Y-80586134D01*
X283399064Y-80538515D01*
X283351445Y-80490896D01*
X284399064Y-80490896D02*
X284446683Y-80538515D01*
X284399064Y-80586134D01*
X284351445Y-80538515D01*
X284399064Y-80490896D01*
X284399064Y-80586134D01*
X285303826Y-79586134D02*
X285113350Y-79586134D01*
X285018112Y-79633754D01*
X284970493Y-79681373D01*
X284875255Y-79824230D01*
X284827636Y-80014706D01*
X284827636Y-80395658D01*
X284875255Y-80490896D01*
X284922874Y-80538515D01*
X285018112Y-80586134D01*
X285208588Y-80586134D01*
X285303826Y-80538515D01*
X285351445Y-80490896D01*
X285399064Y-80395658D01*
X285399064Y-80157563D01*
X285351445Y-80062325D01*
X285303826Y-80014706D01*
X285208588Y-79967087D01*
X285018112Y-79967087D01*
X284922874Y-80014706D01*
X284875255Y-80062325D01*
X284827636Y-80157563D01*
X285684778Y-79586134D02*
X286018112Y-80586134D01*
X286351445Y-79586134D01*
X281167640Y-80761370D02*
X281167640Y-80161370D01*
X282067640Y-80873870D01*
X282067640Y-80273870D01*
X281596212Y-79872085D02*
X281596212Y-79572085D01*
X282067640Y-79502442D02*
X282067640Y-79931013D01*
X281167640Y-79818513D01*
X281167640Y-79389942D01*
X282067640Y-79116728D02*
X281167640Y-79004228D01*
X282067640Y-78602442D01*
X281167640Y-78489942D01*
X281596212Y-78114942D02*
X281596212Y-77814942D01*
X282067640Y-77745299D02*
X282067640Y-78173870D01*
X281167640Y-78061370D01*
X281167640Y-77632799D01*
X282067640Y-76845299D02*
X281639069Y-77091728D01*
X282067640Y-77359585D02*
X281167640Y-77247085D01*
X281167640Y-76904228D01*
X281210498Y-76823870D01*
X281253355Y-76786370D01*
X281339069Y-76754228D01*
X281467640Y-76770299D01*
X281553355Y-76823870D01*
X281596212Y-76872085D01*
X281639069Y-76963156D01*
X281639069Y-77306013D01*
X282067640Y-75773870D02*
X281167640Y-75661370D01*
X281167640Y-75447085D01*
X281210498Y-75323870D01*
X281296212Y-75248870D01*
X281381926Y-75216728D01*
X281553355Y-75195299D01*
X281681926Y-75211370D01*
X281853355Y-75275656D01*
X281939069Y-75329228D01*
X282024783Y-75425656D01*
X282067640Y-75559585D01*
X282067640Y-75773870D01*
X282067640Y-74873870D02*
X281167640Y-74761370D01*
X281167640Y-74161370D02*
X281167640Y-73989942D01*
X281210498Y-73909585D01*
X281296212Y-73834585D01*
X281467640Y-73813156D01*
X281767640Y-73850656D01*
X281939069Y-73914942D01*
X282024783Y-74011370D01*
X282067640Y-74102442D01*
X282067640Y-74273870D01*
X282024783Y-74354228D01*
X281939069Y-74429228D01*
X281767640Y-74450656D01*
X281467640Y-74413156D01*
X281296212Y-74348870D01*
X281210498Y-74252442D01*
X281167640Y-74161370D01*
X282067640Y-73502442D02*
X281167640Y-73389942D01*
X281167640Y-73175656D01*
X281210498Y-73052442D01*
X281296212Y-72977442D01*
X281381926Y-72945299D01*
X281553355Y-72923870D01*
X281681926Y-72939942D01*
X281853355Y-73004228D01*
X281939069Y-73057799D01*
X282024783Y-73154228D01*
X282067640Y-73288156D01*
X282067640Y-73502442D01*
X281596212Y-72543513D02*
X281596212Y-72243513D01*
X282067640Y-72173870D02*
X282067640Y-72602442D01*
X281167640Y-72489942D01*
X281167640Y-72061370D01*
X282024783Y-71825656D02*
X282067640Y-71702442D01*
X282067640Y-71488156D01*
X282024783Y-71397085D01*
X281981926Y-71348870D01*
X281896212Y-71295299D01*
X281810498Y-71284585D01*
X281724783Y-71316728D01*
X281681926Y-71354228D01*
X281639069Y-71434585D01*
X281596212Y-71600656D01*
X281553355Y-71681013D01*
X281510498Y-71718513D01*
X281424783Y-71750656D01*
X281339069Y-71739942D01*
X281253355Y-71686370D01*
X281210498Y-71638156D01*
X281167640Y-71547085D01*
X281167640Y-71332799D01*
X281210498Y-71209585D01*
D11*
X285400010Y-75514666D02*
X285644982Y-75252196D01*
X286734918Y-75251812D02*
X286979890Y-74989342D01*
X282517900Y-75514282D02*
X282762872Y-75251812D01*
X283865246Y-75251812D02*
X284110218Y-74989342D01*
D12*
X228199557Y-66516574D02*
X227866223Y-66040384D01*
X227628128Y-66516574D02*
X227628128Y-65516574D01*
X228009080Y-65516574D01*
X228104318Y-65564194D01*
X228151938Y-65611813D01*
X228199557Y-65707051D01*
X228199557Y-65849908D01*
X228151938Y-65945146D01*
X228104318Y-65992765D01*
X228009080Y-66040384D01*
X227628128Y-66040384D01*
X228628128Y-65992765D02*
X228961461Y-65992765D01*
X229104318Y-66516574D02*
X228628128Y-66516574D01*
X228628128Y-65516574D01*
X229104318Y-65516574D01*
X229485271Y-66468955D02*
X229628128Y-66516574D01*
X229866223Y-66516574D01*
X229961461Y-66468955D01*
X230009080Y-66421336D01*
X230056699Y-66326098D01*
X230056699Y-66230860D01*
X230009080Y-66135622D01*
X229961461Y-66088003D01*
X229866223Y-66040384D01*
X229675747Y-65992765D01*
X229580509Y-65945146D01*
X229532890Y-65897527D01*
X229485271Y-65802289D01*
X229485271Y-65707051D01*
X229532890Y-65611813D01*
X229580509Y-65564194D01*
X229675747Y-65516574D01*
X229913842Y-65516574D01*
X230056699Y-65564194D01*
X230485271Y-65992765D02*
X230818604Y-65992765D01*
X230961461Y-66516574D02*
X230485271Y-66516574D01*
X230485271Y-65516574D01*
X230961461Y-65516574D01*
X231247176Y-65516574D02*
X231818604Y-65516574D01*
X231532890Y-66516574D02*
X231532890Y-65516574D01*
X283095546Y-59326064D02*
X283095546Y-58326064D01*
X283476498Y-58326064D01*
X283571736Y-58373684D01*
X283619355Y-58421303D01*
X283666974Y-58516541D01*
X283666974Y-58659398D01*
X283619355Y-58754636D01*
X283571736Y-58802255D01*
X283476498Y-58849874D01*
X283095546Y-58849874D01*
X284286022Y-58326064D02*
X284476498Y-58326064D01*
X284571736Y-58373684D01*
X284666974Y-58468922D01*
X284714593Y-58659398D01*
X284714593Y-58992731D01*
X284666974Y-59183207D01*
X284571736Y-59278445D01*
X284476498Y-59326064D01*
X284286022Y-59326064D01*
X284190784Y-59278445D01*
X284095546Y-59183207D01*
X284047927Y-58992731D01*
X284047927Y-58659398D01*
X284095546Y-58468922D01*
X284190784Y-58373684D01*
X284286022Y-58326064D01*
X285047927Y-58326064D02*
X285286022Y-59326064D01*
X285476498Y-58611779D01*
X285666974Y-59326064D01*
X285905070Y-58326064D01*
X286286022Y-58802255D02*
X286619355Y-58802255D01*
X286762212Y-59326064D02*
X286286022Y-59326064D01*
X286286022Y-58326064D01*
X286762212Y-58326064D01*
X287762212Y-59326064D02*
X287428879Y-58849874D01*
X287190784Y-59326064D02*
X287190784Y-58326064D01*
X287571736Y-58326064D01*
X287666974Y-58373684D01*
X287714593Y-58421303D01*
X287762212Y-58516541D01*
X287762212Y-58659398D01*
X287714593Y-58754636D01*
X287666974Y-58802255D01*
X287571736Y-58849874D01*
X287190784Y-58849874D01*
X249414796Y-64566827D02*
X249319558Y-64519207D01*
X249176701Y-64519207D01*
X249033843Y-64566827D01*
X248938605Y-64662065D01*
X248890986Y-64757303D01*
X248843367Y-64947779D01*
X248843367Y-65090636D01*
X248890986Y-65281112D01*
X248938605Y-65376350D01*
X249033843Y-65471588D01*
X249176701Y-65519207D01*
X249271939Y-65519207D01*
X249414796Y-65471588D01*
X249462415Y-65423969D01*
X249462415Y-65090636D01*
X249271939Y-65090636D01*
X249890986Y-65519207D02*
X249890986Y-64519207D01*
X250462415Y-65519207D01*
X250462415Y-64519207D01*
X250938605Y-65519207D02*
X250938605Y-64519207D01*
X251176701Y-64519207D01*
X251319558Y-64566827D01*
X251414796Y-64662065D01*
X251462415Y-64757303D01*
X251510034Y-64947779D01*
X251510034Y-65090636D01*
X251462415Y-65281112D01*
X251414796Y-65376350D01*
X251319558Y-65471588D01*
X251176701Y-65519207D01*
X250938605Y-65519207D01*
X256969474Y-60637358D02*
X256969474Y-59637358D01*
X257398045Y-60589739D02*
X257540903Y-60637358D01*
X257778998Y-60637358D01*
X257874236Y-60589739D01*
X257921855Y-60542120D01*
X257969474Y-60446882D01*
X257969474Y-60351644D01*
X257921855Y-60256406D01*
X257874236Y-60208787D01*
X257778998Y-60161168D01*
X257588522Y-60113549D01*
X257493284Y-60065930D01*
X257445665Y-60018311D01*
X257398045Y-59923073D01*
X257398045Y-59827835D01*
X257445665Y-59732597D01*
X257493284Y-59684978D01*
X257588522Y-59637358D01*
X257826617Y-59637358D01*
X257969474Y-59684978D01*
X258398045Y-60637358D02*
X258398045Y-59637358D01*
X258778998Y-59637358D01*
X258874236Y-59684978D01*
X258921855Y-59732597D01*
X258969474Y-59827835D01*
X258969474Y-59970692D01*
X258921855Y-60065930D01*
X258874236Y-60113549D01*
X258778998Y-60161168D01*
X258398045Y-60161168D01*
D10*
X291785363Y-70192989D02*
X291404411Y-70192989D01*
X291366316Y-70573942D01*
X291404411Y-70535846D01*
X291480601Y-70497751D01*
X291671077Y-70497751D01*
X291747268Y-70535846D01*
X291785363Y-70573942D01*
X291823458Y-70650132D01*
X291823458Y-70840608D01*
X291785363Y-70916799D01*
X291747268Y-70954894D01*
X291671077Y-70992989D01*
X291480601Y-70992989D01*
X291404411Y-70954894D01*
X291366316Y-70916799D01*
X292166316Y-70916799D02*
X292204411Y-70954894D01*
X292166316Y-70992989D01*
X292128220Y-70954894D01*
X292166316Y-70916799D01*
X292166316Y-70992989D01*
X292966316Y-70992989D02*
X292509173Y-70992989D01*
X292737744Y-70992989D02*
X292737744Y-70192989D01*
X292661554Y-70307275D01*
X292585363Y-70383465D01*
X292509173Y-70421561D01*
X293309173Y-70992989D02*
X293309173Y-70192989D01*
X293766316Y-70992989D02*
X293423458Y-70535846D01*
X293766316Y-70192989D02*
X293309173Y-70650132D01*
X291785363Y-67639536D02*
X291404411Y-67639536D01*
X291366316Y-68020489D01*
X291404411Y-67982393D01*
X291480601Y-67944298D01*
X291671077Y-67944298D01*
X291747268Y-67982393D01*
X291785363Y-68020489D01*
X291823458Y-68096679D01*
X291823458Y-68287155D01*
X291785363Y-68363346D01*
X291747268Y-68401441D01*
X291671077Y-68439536D01*
X291480601Y-68439536D01*
X291404411Y-68401441D01*
X291366316Y-68363346D01*
X292166316Y-68363346D02*
X292204411Y-68401441D01*
X292166316Y-68439536D01*
X292128220Y-68401441D01*
X292166316Y-68363346D01*
X292166316Y-68439536D01*
X292966316Y-68439536D02*
X292509173Y-68439536D01*
X292737744Y-68439536D02*
X292737744Y-67639536D01*
X292661554Y-67753822D01*
X292585363Y-67830012D01*
X292509173Y-67868108D01*
X293309173Y-68439536D02*
X293309173Y-67639536D01*
X293766316Y-68439536D02*
X293423458Y-67982393D01*
X293766316Y-67639536D02*
X293309173Y-68096679D01*
X291851210Y-174478614D02*
X291279782Y-174478614D01*
X291565496Y-174478614D02*
X291565496Y-173478614D01*
X291470258Y-173621472D01*
X291375020Y-173716710D01*
X291279782Y-173764329D01*
X292279782Y-173478614D02*
X292279782Y-174288138D01*
X292327401Y-174383376D01*
X292375020Y-174430995D01*
X292470258Y-174478614D01*
X292660734Y-174478614D01*
X292755972Y-174430995D01*
X292803591Y-174383376D01*
X292851210Y-174288138D01*
X292851210Y-173478614D01*
X272760892Y-174478614D02*
X272189464Y-174478614D01*
X272475178Y-174478614D02*
X272475178Y-173478614D01*
X272379940Y-173621472D01*
X272284702Y-173716710D01*
X272189464Y-173764329D01*
X273189464Y-173478614D02*
X273189464Y-174288138D01*
X273237083Y-174383376D01*
X273284702Y-174430995D01*
X273379940Y-174478614D01*
X273570416Y-174478614D01*
X273665654Y-174430995D01*
X273713273Y-174383376D01*
X273760892Y-174288138D01*
X273760892Y-173478614D01*
X253350650Y-174478614D02*
X252779222Y-174478614D01*
X253064936Y-174478614D02*
X253064936Y-173478614D01*
X252969698Y-173621472D01*
X252874460Y-173716710D01*
X252779222Y-173764329D01*
X253779222Y-173478614D02*
X253779222Y-174288138D01*
X253826841Y-174383376D01*
X253874460Y-174430995D01*
X253969698Y-174478614D01*
X254160174Y-174478614D01*
X254255412Y-174430995D01*
X254303031Y-174383376D01*
X254350650Y-174288138D01*
X254350650Y-173478614D01*
X68976474Y-136426063D02*
X69119332Y-136473682D01*
X69357427Y-136473682D01*
X69452665Y-136426063D01*
X69500284Y-136378444D01*
X69547903Y-136283206D01*
X69547903Y-136187968D01*
X69500284Y-136092730D01*
X69452665Y-136045111D01*
X69357427Y-135997492D01*
X69166951Y-135949873D01*
X69071713Y-135902254D01*
X69024094Y-135854635D01*
X68976474Y-135759397D01*
X68976474Y-135664159D01*
X69024094Y-135568921D01*
X69071713Y-135521302D01*
X69166951Y-135473682D01*
X69405046Y-135473682D01*
X69547903Y-135521302D01*
X69833617Y-135473682D02*
X70405046Y-135473682D01*
X70119332Y-136473682D02*
X70119332Y-135473682D01*
X70690760Y-136187968D02*
X71166951Y-136187968D01*
X70595522Y-136473682D02*
X70928855Y-135473682D01*
X71262189Y-136473682D01*
X71595522Y-136473682D02*
X71595522Y-135473682D01*
X72166951Y-136473682D01*
X72166951Y-135473682D01*
X72643141Y-136473682D02*
X72643141Y-135473682D01*
X72881236Y-135473682D01*
X73024094Y-135521302D01*
X73119332Y-135616540D01*
X73166951Y-135711778D01*
X73214570Y-135902254D01*
X73214570Y-136045111D01*
X73166951Y-136235587D01*
X73119332Y-136330825D01*
X73024094Y-136426063D01*
X72881236Y-136473682D01*
X72643141Y-136473682D01*
X73595522Y-136187968D02*
X74071713Y-136187968D01*
X73500284Y-136473682D02*
X73833617Y-135473682D01*
X74166951Y-136473682D01*
X75071713Y-136473682D02*
X74738379Y-135997492D01*
X74500284Y-136473682D02*
X74500284Y-135473682D01*
X74881236Y-135473682D01*
X74976474Y-135521302D01*
X75024094Y-135568921D01*
X75071713Y-135664159D01*
X75071713Y-135807016D01*
X75024094Y-135902254D01*
X74976474Y-135949873D01*
X74881236Y-135997492D01*
X74500284Y-135997492D01*
X75500284Y-136473682D02*
X75500284Y-135473682D01*
X75738379Y-135473682D01*
X75881236Y-135521302D01*
X75976474Y-135616540D01*
X76024094Y-135711778D01*
X76071713Y-135902254D01*
X76071713Y-136045111D01*
X76024094Y-136235587D01*
X75976474Y-136330825D01*
X75881236Y-136426063D01*
X75738379Y-136473682D01*
X75500284Y-136473682D01*
X60056418Y-136426063D02*
X60199275Y-136473682D01*
X60437370Y-136473682D01*
X60532608Y-136426063D01*
X60580227Y-136378444D01*
X60627847Y-136283206D01*
X60627847Y-136187968D01*
X60580227Y-136092730D01*
X60532608Y-136045111D01*
X60437370Y-135997492D01*
X60246894Y-135949873D01*
X60151656Y-135902254D01*
X60104037Y-135854635D01*
X60056418Y-135759397D01*
X60056418Y-135664159D01*
X60104037Y-135568921D01*
X60151656Y-135521302D01*
X60246894Y-135473682D01*
X60484989Y-135473682D01*
X60627847Y-135521302D01*
X60913561Y-135473682D02*
X61484989Y-135473682D01*
X61199275Y-136473682D02*
X61199275Y-135473682D01*
X61818323Y-135949873D02*
X62151656Y-135949873D01*
X62294513Y-136473682D02*
X61818323Y-136473682D01*
X61818323Y-135473682D01*
X62294513Y-135473682D01*
X62723085Y-136473682D02*
X62723085Y-135473682D01*
X63104037Y-135473682D01*
X63199275Y-135521302D01*
X63246894Y-135568921D01*
X63294513Y-135664159D01*
X63294513Y-135807016D01*
X63246894Y-135902254D01*
X63199275Y-135949873D01*
X63104037Y-135997492D01*
X62723085Y-135997492D01*
X63723085Y-136473682D02*
X63723085Y-135473682D01*
X64104037Y-135473682D01*
X64199275Y-135521302D01*
X64246894Y-135568921D01*
X64294513Y-135664159D01*
X64294513Y-135807016D01*
X64246894Y-135902254D01*
X64199275Y-135949873D01*
X64104037Y-135997492D01*
X63723085Y-135997492D01*
X64723085Y-135949873D02*
X65056418Y-135949873D01*
X65199275Y-136473682D02*
X64723085Y-136473682D01*
X64723085Y-135473682D01*
X65199275Y-135473682D01*
X65627847Y-136473682D02*
X65627847Y-135473682D01*
X65865942Y-135473682D01*
X66008799Y-135521302D01*
X66104037Y-135616540D01*
X66151656Y-135711778D01*
X66199275Y-135902254D01*
X66199275Y-136045111D01*
X66151656Y-136235587D01*
X66104037Y-136330825D01*
X66008799Y-136426063D01*
X65865942Y-136473682D01*
X65627847Y-136473682D01*
X286110604Y-174478614D02*
X285539175Y-174478614D01*
X285824889Y-174478614D02*
X285824889Y-173478614D01*
X285729651Y-173621472D01*
X285634413Y-173716710D01*
X285539175Y-173764329D01*
X286539175Y-174383376D02*
X286586794Y-174430995D01*
X286539175Y-174478614D01*
X286491556Y-174430995D01*
X286539175Y-174383376D01*
X286539175Y-174478614D01*
X287491556Y-173478614D02*
X287015365Y-173478614D01*
X286967746Y-173954805D01*
X287015365Y-173907186D01*
X287110604Y-173859567D01*
X287348699Y-173859567D01*
X287443937Y-173907186D01*
X287491556Y-173954805D01*
X287539175Y-174050043D01*
X287539175Y-174288138D01*
X287491556Y-174383376D01*
X287443937Y-174430995D01*
X287348699Y-174478614D01*
X287110604Y-174478614D01*
X287015365Y-174430995D01*
X286967746Y-174383376D01*
X287967746Y-173478614D02*
X287967746Y-174288138D01*
X288015365Y-174383376D01*
X288062985Y-174430995D01*
X288158223Y-174478614D01*
X288348699Y-174478614D01*
X288443937Y-174430995D01*
X288491556Y-174383376D01*
X288539175Y-174288138D01*
X288539175Y-173478614D01*
X257623200Y-174478614D02*
X257051771Y-174478614D01*
X257337485Y-174478614D02*
X257337485Y-173478614D01*
X257242247Y-173621472D01*
X257147009Y-173716710D01*
X257051771Y-173764329D01*
X258051771Y-174383376D02*
X258099390Y-174430995D01*
X258051771Y-174478614D01*
X258004152Y-174430995D01*
X258051771Y-174383376D01*
X258051771Y-174478614D01*
X259004152Y-173478614D02*
X258527961Y-173478614D01*
X258480342Y-173954805D01*
X258527961Y-173907186D01*
X258623200Y-173859567D01*
X258861295Y-173859567D01*
X258956533Y-173907186D01*
X259004152Y-173954805D01*
X259051771Y-174050043D01*
X259051771Y-174288138D01*
X259004152Y-174383376D01*
X258956533Y-174430995D01*
X258861295Y-174478614D01*
X258623200Y-174478614D01*
X258527961Y-174430995D01*
X258480342Y-174383376D01*
X259480342Y-173478614D02*
X259480342Y-174288138D01*
X259527961Y-174383376D01*
X259575581Y-174430995D01*
X259670819Y-174478614D01*
X259861295Y-174478614D01*
X259956533Y-174430995D01*
X260004152Y-174383376D01*
X260051771Y-174288138D01*
X260051771Y-173478614D01*
X95980958Y-174478614D02*
X95409529Y-174478614D01*
X95695243Y-174478614D02*
X95695243Y-173478614D01*
X95600005Y-173621472D01*
X95504767Y-173716710D01*
X95409529Y-173764329D01*
X96409529Y-174383376D02*
X96457148Y-174430995D01*
X96409529Y-174478614D01*
X96361910Y-174430995D01*
X96409529Y-174383376D01*
X96409529Y-174478614D01*
X97361910Y-173478614D02*
X96885719Y-173478614D01*
X96838100Y-173954805D01*
X96885719Y-173907186D01*
X96980958Y-173859567D01*
X97219053Y-173859567D01*
X97314291Y-173907186D01*
X97361910Y-173954805D01*
X97409529Y-174050043D01*
X97409529Y-174288138D01*
X97361910Y-174383376D01*
X97314291Y-174430995D01*
X97219053Y-174478614D01*
X96980958Y-174478614D01*
X96885719Y-174430995D01*
X96838100Y-174383376D01*
X97838100Y-173478614D02*
X97838100Y-174288138D01*
X97885719Y-174383376D01*
X97933339Y-174430995D01*
X98028577Y-174478614D01*
X98219053Y-174478614D01*
X98314291Y-174430995D01*
X98361910Y-174383376D01*
X98409529Y-174288138D01*
X98409529Y-173478614D01*
X67634738Y-174478614D02*
X67063309Y-174478614D01*
X67349023Y-174478614D02*
X67349023Y-173478614D01*
X67253785Y-173621472D01*
X67158547Y-173716710D01*
X67063309Y-173764329D01*
X68063309Y-174383376D02*
X68110928Y-174430995D01*
X68063309Y-174478614D01*
X68015690Y-174430995D01*
X68063309Y-174383376D01*
X68063309Y-174478614D01*
X69015690Y-173478614D02*
X68539499Y-173478614D01*
X68491880Y-173954805D01*
X68539499Y-173907186D01*
X68634738Y-173859567D01*
X68872833Y-173859567D01*
X68968071Y-173907186D01*
X69015690Y-173954805D01*
X69063309Y-174050043D01*
X69063309Y-174288138D01*
X69015690Y-174383376D01*
X68968071Y-174430995D01*
X68872833Y-174478614D01*
X68634738Y-174478614D01*
X68539499Y-174430995D01*
X68491880Y-174383376D01*
X69491880Y-173478614D02*
X69491880Y-174288138D01*
X69539499Y-174383376D01*
X69587119Y-174430995D01*
X69682357Y-174478614D01*
X69872833Y-174478614D01*
X69968071Y-174430995D01*
X70015690Y-174383376D01*
X70063309Y-174288138D01*
X70063309Y-173478614D01*
X112040062Y-174478614D02*
X111468634Y-174478614D01*
X111754348Y-174478614D02*
X111754348Y-173478614D01*
X111659110Y-173621472D01*
X111563872Y-173716710D01*
X111468634Y-173764329D01*
X112468634Y-174383376D02*
X112516253Y-174430995D01*
X112468634Y-174478614D01*
X112421014Y-174430995D01*
X112468634Y-174383376D01*
X112468634Y-174478614D01*
X112897205Y-173573853D02*
X112944824Y-173526234D01*
X113040062Y-173478614D01*
X113278157Y-173478614D01*
X113373395Y-173526234D01*
X113421014Y-173573853D01*
X113468634Y-173669091D01*
X113468634Y-173764329D01*
X113421014Y-173907186D01*
X112849586Y-174478614D01*
X113468634Y-174478614D01*
X114373395Y-173478614D02*
X113897205Y-173478614D01*
X113849586Y-173954805D01*
X113897205Y-173907186D01*
X113992443Y-173859567D01*
X114230538Y-173859567D01*
X114325776Y-173907186D01*
X114373395Y-173954805D01*
X114421014Y-174050043D01*
X114421014Y-174288138D01*
X114373395Y-174383376D01*
X114325776Y-174430995D01*
X114230538Y-174478614D01*
X113992443Y-174478614D01*
X113897205Y-174430995D01*
X113849586Y-174383376D01*
X114849586Y-173478614D02*
X114849586Y-174288138D01*
X114897205Y-174383376D01*
X114944824Y-174430995D01*
X115040062Y-174478614D01*
X115230538Y-174478614D01*
X115325776Y-174430995D01*
X115373395Y-174383376D01*
X115421014Y-174288138D01*
X115421014Y-173478614D01*
X87893282Y-174478614D02*
X87321854Y-174478614D01*
X87607568Y-174478614D02*
X87607568Y-173478614D01*
X87512330Y-173621472D01*
X87417092Y-173716710D01*
X87321854Y-173764329D01*
X88321854Y-174383376D02*
X88369473Y-174430995D01*
X88321854Y-174478614D01*
X88274234Y-174430995D01*
X88321854Y-174383376D01*
X88321854Y-174478614D01*
X88750425Y-173573853D02*
X88798044Y-173526234D01*
X88893282Y-173478614D01*
X89131377Y-173478614D01*
X89226615Y-173526234D01*
X89274234Y-173573853D01*
X89321854Y-173669091D01*
X89321854Y-173764329D01*
X89274234Y-173907186D01*
X88702806Y-174478614D01*
X89321854Y-174478614D01*
X90226615Y-173478614D02*
X89750425Y-173478614D01*
X89702806Y-173954805D01*
X89750425Y-173907186D01*
X89845663Y-173859567D01*
X90083758Y-173859567D01*
X90178996Y-173907186D01*
X90226615Y-173954805D01*
X90274234Y-174050043D01*
X90274234Y-174288138D01*
X90226615Y-174383376D01*
X90178996Y-174430995D01*
X90083758Y-174478614D01*
X89845663Y-174478614D01*
X89750425Y-174430995D01*
X89702806Y-174383376D01*
X90702806Y-173478614D02*
X90702806Y-174288138D01*
X90750425Y-174383376D01*
X90798044Y-174430995D01*
X90893282Y-174478614D01*
X91083758Y-174478614D01*
X91178996Y-174430995D01*
X91226615Y-174383376D01*
X91274234Y-174288138D01*
X91274234Y-173478614D01*
X62224205Y-174478614D02*
X61652777Y-174478614D01*
X61938491Y-174478614D02*
X61938491Y-173478614D01*
X61843253Y-173621472D01*
X61748015Y-173716710D01*
X61652777Y-173764329D01*
X62652777Y-174383376D02*
X62700396Y-174430995D01*
X62652777Y-174478614D01*
X62605157Y-174430995D01*
X62652777Y-174383376D01*
X62652777Y-174478614D01*
X63081348Y-173573853D02*
X63128967Y-173526234D01*
X63224205Y-173478614D01*
X63462300Y-173478614D01*
X63557538Y-173526234D01*
X63605157Y-173573853D01*
X63652777Y-173669091D01*
X63652777Y-173764329D01*
X63605157Y-173907186D01*
X63033729Y-174478614D01*
X63652777Y-174478614D01*
X64557538Y-173478614D02*
X64081348Y-173478614D01*
X64033729Y-173954805D01*
X64081348Y-173907186D01*
X64176586Y-173859567D01*
X64414681Y-173859567D01*
X64509919Y-173907186D01*
X64557538Y-173954805D01*
X64605157Y-174050043D01*
X64605157Y-174288138D01*
X64557538Y-174383376D01*
X64509919Y-174430995D01*
X64414681Y-174478614D01*
X64176586Y-174478614D01*
X64081348Y-174430995D01*
X64033729Y-174383376D01*
X65033729Y-173478614D02*
X65033729Y-174288138D01*
X65081348Y-174383376D01*
X65128967Y-174430995D01*
X65224205Y-174478614D01*
X65414681Y-174478614D01*
X65509919Y-174430995D01*
X65557538Y-174383376D01*
X65605157Y-174288138D01*
X65605157Y-173478614D01*
D11*
X325241062Y-79771416D02*
X325241062Y-79786416D01*
X325241062Y-77646416D02*
X325241062Y-77661416D01*
X320701062Y-79771416D02*
X320701062Y-79786416D01*
X320701062Y-77646416D02*
X320701062Y-77661416D01*
X320701062Y-79786416D02*
X325241062Y-79786416D01*
X320701062Y-77646416D02*
X325241062Y-77646416D01*
X329895530Y-59981178D02*
X329895530Y-59996178D01*
X329895530Y-57856178D02*
X329895530Y-57871178D01*
X325355530Y-59981178D02*
X325355530Y-59996178D01*
X325355530Y-57856178D02*
X325355530Y-57871178D01*
X325355530Y-59996178D02*
X329895530Y-59996178D01*
X325355530Y-57856178D02*
X329895530Y-57856178D01*
X286597676Y-69654866D02*
G75*
G03X286597676Y-69654866I-2120000J0D01*
G01*
X285317676Y-69654866D02*
X286557676Y-69654866D01*
X282397676Y-69654866D02*
X283637676Y-69654866D01*
X285317676Y-69614866D02*
X286557676Y-69614866D01*
X282397676Y-69614866D02*
X283637676Y-69614866D01*
X285317676Y-69574866D02*
X286556676Y-69574866D01*
X282398676Y-69574866D02*
X283637676Y-69574866D01*
X282400676Y-69534866D02*
X283637676Y-69534866D01*
X285317676Y-69534866D02*
X286554676Y-69534866D01*
X282403676Y-69494866D02*
X283637676Y-69494866D01*
X285317676Y-69494866D02*
X286551676Y-69494866D01*
X282406676Y-69454866D02*
X283637676Y-69454866D01*
X285317676Y-69454866D02*
X286548676Y-69454866D01*
X282410676Y-69414866D02*
X283637676Y-69414866D01*
X285317676Y-69414866D02*
X286544676Y-69414866D01*
X282415676Y-69374866D02*
X283637676Y-69374866D01*
X285317676Y-69374866D02*
X286539676Y-69374866D01*
X282421676Y-69334866D02*
X283637676Y-69334866D01*
X285317676Y-69334866D02*
X286533676Y-69334866D01*
X282427676Y-69294866D02*
X283637676Y-69294866D01*
X285317676Y-69294866D02*
X286527676Y-69294866D01*
X282435676Y-69254866D02*
X283637676Y-69254866D01*
X285317676Y-69254866D02*
X286519676Y-69254866D01*
X282443676Y-69214866D02*
X283637676Y-69214866D01*
X285317676Y-69214866D02*
X286511676Y-69214866D01*
X282452676Y-69174866D02*
X283637676Y-69174866D01*
X285317676Y-69174866D02*
X286502676Y-69174866D01*
X282461676Y-69134866D02*
X283637676Y-69134866D01*
X285317676Y-69134866D02*
X286493676Y-69134866D01*
X282472676Y-69094866D02*
X283637676Y-69094866D01*
X285317676Y-69094866D02*
X286482676Y-69094866D01*
X282483676Y-69054866D02*
X283637676Y-69054866D01*
X285317676Y-69054866D02*
X286471676Y-69054866D01*
X282495676Y-69014866D02*
X283637676Y-69014866D01*
X285317676Y-69014866D02*
X286459676Y-69014866D01*
X282509676Y-68974866D02*
X283637676Y-68974866D01*
X285317676Y-68974866D02*
X286445676Y-68974866D01*
X282523676Y-68933866D02*
X283637676Y-68933866D01*
X285317676Y-68933866D02*
X286431676Y-68933866D01*
X282537676Y-68893866D02*
X283637676Y-68893866D01*
X285317676Y-68893866D02*
X286417676Y-68893866D01*
X282553676Y-68853866D02*
X283637676Y-68853866D01*
X285317676Y-68853866D02*
X286401676Y-68853866D01*
X282570676Y-68813866D02*
X283637676Y-68813866D01*
X285317676Y-68813866D02*
X286384676Y-68813866D01*
X282588676Y-68773866D02*
X283637676Y-68773866D01*
X285317676Y-68773866D02*
X286366676Y-68773866D01*
X282607676Y-68733866D02*
X283637676Y-68733866D01*
X285317676Y-68733866D02*
X286347676Y-68733866D01*
X282626676Y-68693866D02*
X283637676Y-68693866D01*
X285317676Y-68693866D02*
X286328676Y-68693866D01*
X282647676Y-68653866D02*
X283637676Y-68653866D01*
X285317676Y-68653866D02*
X286307676Y-68653866D01*
X282669676Y-68613866D02*
X283637676Y-68613866D01*
X285317676Y-68613866D02*
X286285676Y-68613866D01*
X282692676Y-68573866D02*
X283637676Y-68573866D01*
X285317676Y-68573866D02*
X286262676Y-68573866D01*
X282717676Y-68533866D02*
X283637676Y-68533866D01*
X285317676Y-68533866D02*
X286237676Y-68533866D01*
X282742676Y-68493866D02*
X283637676Y-68493866D01*
X285317676Y-68493866D02*
X286212676Y-68493866D01*
X282769676Y-68453866D02*
X283637676Y-68453866D01*
X285317676Y-68453866D02*
X286185676Y-68453866D01*
X282797676Y-68413866D02*
X283637676Y-68413866D01*
X285317676Y-68413866D02*
X286157676Y-68413866D01*
X282827676Y-68373866D02*
X283637676Y-68373866D01*
X285317676Y-68373866D02*
X286127676Y-68373866D01*
X282858676Y-68333866D02*
X283637676Y-68333866D01*
X285317676Y-68333866D02*
X286096676Y-68333866D01*
X282890676Y-68293866D02*
X283637676Y-68293866D01*
X285317676Y-68293866D02*
X286064676Y-68293866D01*
X282925676Y-68253866D02*
X283637676Y-68253866D01*
X285317676Y-68253866D02*
X286029676Y-68253866D01*
X282961676Y-68213866D02*
X283637676Y-68213866D01*
X285317676Y-68213866D02*
X285993676Y-68213866D01*
X282999676Y-68173866D02*
X283637676Y-68173866D01*
X285317676Y-68173866D02*
X285955676Y-68173866D01*
X283039676Y-68133866D02*
X283637676Y-68133866D01*
X285317676Y-68133866D02*
X285915676Y-68133866D01*
X283081676Y-68093866D02*
X283637676Y-68093866D01*
X285317676Y-68093866D02*
X285873676Y-68093866D01*
X283126676Y-68053866D02*
X285828676Y-68053866D01*
X283173676Y-68013866D02*
X285781676Y-68013866D01*
X283223676Y-67973866D02*
X285731676Y-67973866D01*
X283277676Y-67933866D02*
X285677676Y-67933866D01*
X283335676Y-67893866D02*
X285619676Y-67893866D01*
X283397676Y-67853866D02*
X285557676Y-67853866D01*
X283464676Y-67813866D02*
X285490676Y-67813866D01*
X283537676Y-67773866D02*
X285417676Y-67773866D01*
X283618676Y-67733866D02*
X285336676Y-67733866D01*
X283709676Y-67693866D02*
X285245676Y-67693866D01*
X283813676Y-67653866D02*
X285141676Y-67653866D01*
X283940676Y-67613866D02*
X285014676Y-67613866D01*
X284107676Y-67573866D02*
X284847676Y-67573866D01*
X283282676Y-71924667D02*
X283282676Y-71524667D01*
X283082676Y-71724667D02*
X283482676Y-71724667D01*
X328600238Y-81385040D02*
X328600238Y-80127040D01*
X326760238Y-81385040D02*
X326760238Y-80127040D01*
X342826112Y-81385040D02*
X342826112Y-80127040D01*
X340986112Y-81385040D02*
X340986112Y-80127040D01*
X95678750Y-149304400D02*
X95678750Y-152274400D01*
X97678750Y-149294400D02*
X97668750Y-152284400D01*
X95678750Y-152284400D02*
X97668750Y-152284400D01*
X96688750Y-152494400D02*
X96688750Y-151374400D01*
X96688750Y-149034400D02*
X96688750Y-150314400D01*
X95678750Y-149294400D02*
X97678750Y-149294400D01*
X96688750Y-150424400D02*
X97228750Y-151374400D01*
X96678750Y-150434400D02*
X96148750Y-151344400D01*
X96148750Y-151374400D02*
X97228750Y-151374400D01*
X96148750Y-150324400D02*
X97228750Y-150324400D01*
X294486316Y-77218982D02*
X290646316Y-77218982D01*
X294486316Y-79058982D02*
X290646316Y-79058982D01*
X294486316Y-74725517D02*
X290646316Y-74725517D01*
X294486316Y-76565517D02*
X290646316Y-76565517D01*
X294486316Y-72232052D02*
X290646316Y-72232052D01*
X294486316Y-74072052D02*
X290646316Y-74072052D01*
X290646316Y-71500211D02*
X294486316Y-71500211D01*
X290646316Y-69660211D02*
X294486316Y-69660211D01*
X290646316Y-68980499D02*
X294486316Y-68980499D01*
X290646316Y-67140499D02*
X294486316Y-67140499D01*
X290646316Y-66487034D02*
X294486316Y-66487034D01*
X290646316Y-64647034D02*
X294486316Y-64647034D01*
X294486316Y-62153204D02*
X290646316Y-62153204D01*
X294486316Y-63993204D02*
X290646316Y-63993204D01*
X298423430Y-67769182D02*
G75*
G02X298423430Y-69769182I0J-1000000D01*
G01*
X298423430Y-69769182D02*
X298423430Y-75229182D01*
X298423430Y-75229182D02*
X349343430Y-75229182D01*
X349343430Y-75229182D02*
X349343430Y-62309182D01*
X349343430Y-62309182D02*
X298423430Y-62309182D01*
X298423430Y-62309182D02*
X298423430Y-67769182D01*
D13*
X254003830Y-59070870D02*
X254003830Y-58270870D01*
X254003830Y-58270870D02*
X251453830Y-58270870D01*
X251453830Y-58270870D02*
X251453830Y-59070870D01*
D14*
X248943830Y-59080870D02*
X256563830Y-59080870D01*
X256563830Y-64160870D02*
X248943830Y-64160870D01*
X248943830Y-64160870D02*
X248943830Y-59080870D01*
X256563830Y-59080870D02*
X256563830Y-64160870D01*
D11*
X338011644Y-82781240D02*
X331611644Y-82781240D01*
X338011644Y-77731240D02*
X331611644Y-77731240D01*
X338011644Y-77731240D02*
G75*
G02X338011644Y-82781240I0J-2525000D01*
G01*
X331611644Y-77731240D02*
G75*
G03X331611644Y-82781240I0J-2525000D01*
G01*
X283837716Y-63050830D02*
X283837716Y-63206830D01*
X283837716Y-60734830D02*
X283837716Y-60890830D01*
X286438846Y-63050667D02*
G75*
G02X284356755Y-63050830I-1041130J1079837D01*
G01*
X286438846Y-60890993D02*
G75*
G03X284356755Y-60890830I-1041130J-1079837D01*
G01*
X287070051Y-63049438D02*
G75*
G02X283837716Y-63206346I-1672335J1078608D01*
G01*
X287070051Y-60892222D02*
G75*
G03X283837716Y-60735314I-1672335J-1078608D01*
G01*
D12*
X282173468Y-60291022D02*
X272923468Y-60291022D01*
X282023468Y-66951022D02*
X273073468Y-66951022D01*
X273068468Y-58541022D02*
X273073468Y-57781022D01*
X282023468Y-57781022D02*
X273073468Y-57781022D01*
X282023468Y-57781022D02*
X282028468Y-58541022D01*
X277548468Y-60291022D02*
X277548468Y-61561022D01*
D11*
X245235732Y-62836074D02*
X245235732Y-61336074D01*
X243985732Y-58836074D02*
X239485732Y-58836074D01*
X238235732Y-61336074D02*
X238235732Y-62836074D01*
X239485732Y-65336074D02*
X243985732Y-65336074D01*
X233235732Y-62836074D02*
X233235732Y-61336074D01*
X231985732Y-58836074D02*
X227485732Y-58836074D01*
X226235732Y-61336074D02*
X226235732Y-62836074D01*
X227485732Y-65336074D02*
X231985732Y-65336074D01*
X62600284Y-68545612D02*
X62600284Y-71515612D01*
X64600284Y-68535612D02*
X64590284Y-71525612D01*
X62600284Y-71525612D02*
X64590284Y-71525612D01*
X63610284Y-71735612D02*
X63610284Y-70615612D01*
X63610284Y-68275612D02*
X63610284Y-69555612D01*
X62600284Y-68535612D02*
X64600284Y-68535612D01*
X63610284Y-69665612D02*
X64150284Y-70615612D01*
X63600284Y-69675612D02*
X63070284Y-70585612D01*
X63070284Y-70615612D02*
X64150284Y-70615612D01*
X63070284Y-69565612D02*
X64150284Y-69565612D01*
X72108673Y-73506199D02*
X72108673Y-76476199D01*
X74108673Y-73496199D02*
X74098673Y-76486199D01*
X72108673Y-76486199D02*
X74098673Y-76486199D01*
X73118673Y-76696199D02*
X73118673Y-75576199D01*
X73118673Y-73236199D02*
X73118673Y-74516199D01*
X72108673Y-73496199D02*
X74108673Y-73496199D01*
X73118673Y-74626199D02*
X73658673Y-75576199D01*
X73108673Y-74636199D02*
X72578673Y-75546199D01*
X72578673Y-75576199D02*
X73658673Y-75576199D01*
X72578673Y-74526199D02*
X73658673Y-74526199D01*
X84786525Y-73506199D02*
X84786525Y-76476199D01*
X86786525Y-73496199D02*
X86776525Y-76486199D01*
X84786525Y-76486199D02*
X86776525Y-76486199D01*
X85796525Y-76696199D02*
X85796525Y-75576199D01*
X85796525Y-73236199D02*
X85796525Y-74516199D01*
X84786525Y-73496199D02*
X86786525Y-73496199D01*
X85796525Y-74626199D02*
X86336525Y-75576199D01*
X85786525Y-74636199D02*
X85256525Y-75546199D01*
X85256525Y-75576199D02*
X86336525Y-75576199D01*
X85256525Y-74526199D02*
X86336525Y-74526199D01*
X87955988Y-68545612D02*
X87955988Y-71515612D01*
X89955988Y-68535612D02*
X89945988Y-71525612D01*
X87955988Y-71525612D02*
X89945988Y-71525612D01*
X88965988Y-71735612D02*
X88965988Y-70615612D01*
X88965988Y-68275612D02*
X88965988Y-69555612D01*
X87955988Y-68535612D02*
X89955988Y-68535612D01*
X88965988Y-69665612D02*
X89505988Y-70615612D01*
X88955988Y-69675612D02*
X88425988Y-70585612D01*
X88425988Y-70615612D02*
X89505988Y-70615612D01*
X88425988Y-69565612D02*
X89505988Y-69565612D01*
X100633840Y-68545612D02*
X100633840Y-71515612D01*
X102633840Y-68535612D02*
X102623840Y-71525612D01*
X100633840Y-71525612D02*
X102623840Y-71525612D01*
X101643840Y-71735612D02*
X101643840Y-70615612D01*
X101643840Y-68275612D02*
X101643840Y-69555612D01*
X100633840Y-68535612D02*
X102633840Y-68535612D01*
X101643840Y-69665612D02*
X102183840Y-70615612D01*
X101633840Y-69675612D02*
X101103840Y-70585612D01*
X101103840Y-70615612D02*
X102183840Y-70615612D01*
X101103840Y-69565612D02*
X102183840Y-69565612D01*
X113311692Y-68545612D02*
X113311692Y-71515612D01*
X115311692Y-68535612D02*
X115301692Y-71525612D01*
X113311692Y-71525612D02*
X115301692Y-71525612D01*
X114321692Y-71735612D02*
X114321692Y-70615612D01*
X114321692Y-68275612D02*
X114321692Y-69555612D01*
X113311692Y-68535612D02*
X115311692Y-68535612D01*
X114321692Y-69665612D02*
X114861692Y-70615612D01*
X114311692Y-69675612D02*
X113781692Y-70585612D01*
X113781692Y-70615612D02*
X114861692Y-70615612D01*
X113781692Y-69565612D02*
X114861692Y-69565612D01*
X125989544Y-68545612D02*
X125989544Y-71515612D01*
X127989544Y-68535612D02*
X127979544Y-71525612D01*
X125989544Y-71525612D02*
X127979544Y-71525612D01*
X126999544Y-71735612D02*
X126999544Y-70615612D01*
X126999544Y-68275612D02*
X126999544Y-69555612D01*
X125989544Y-68535612D02*
X127989544Y-68535612D01*
X126999544Y-69665612D02*
X127539544Y-70615612D01*
X126989544Y-69675612D02*
X126459544Y-70585612D01*
X126459544Y-70615612D02*
X127539544Y-70615612D01*
X126459544Y-69565612D02*
X127539544Y-69565612D01*
X138667396Y-68545612D02*
X138667396Y-71515612D01*
X140667396Y-68535612D02*
X140657396Y-71525612D01*
X138667396Y-71525612D02*
X140657396Y-71525612D01*
X139677396Y-71735612D02*
X139677396Y-70615612D01*
X139677396Y-68275612D02*
X139677396Y-69555612D01*
X138667396Y-68535612D02*
X140667396Y-68535612D01*
X139677396Y-69665612D02*
X140217396Y-70615612D01*
X139667396Y-69675612D02*
X139137396Y-70585612D01*
X139137396Y-70615612D02*
X140217396Y-70615612D01*
X139137396Y-69565612D02*
X140217396Y-69565612D01*
X151345248Y-68545612D02*
X151345248Y-71515612D01*
X153345248Y-68535612D02*
X153335248Y-71525612D01*
X151345248Y-71525612D02*
X153335248Y-71525612D01*
X152355248Y-71735612D02*
X152355248Y-70615612D01*
X152355248Y-68275612D02*
X152355248Y-69555612D01*
X151345248Y-68535612D02*
X153345248Y-68535612D01*
X152355248Y-69665612D02*
X152895248Y-70615612D01*
X152345248Y-69675612D02*
X151815248Y-70585612D01*
X151815248Y-70615612D02*
X152895248Y-70615612D01*
X151815248Y-69565612D02*
X152895248Y-69565612D01*
X164023100Y-68545612D02*
X164023100Y-71515612D01*
X166023100Y-68535612D02*
X166013100Y-71525612D01*
X164023100Y-71525612D02*
X166013100Y-71525612D01*
X165033100Y-71735612D02*
X165033100Y-70615612D01*
X165033100Y-68275612D02*
X165033100Y-69555612D01*
X164023100Y-68535612D02*
X166023100Y-68535612D01*
X165033100Y-69665612D02*
X165573100Y-70615612D01*
X165023100Y-69675612D02*
X164493100Y-70585612D01*
X164493100Y-70615612D02*
X165573100Y-70615612D01*
X164493100Y-69565612D02*
X165573100Y-69565612D01*
X176700952Y-68545612D02*
X176700952Y-71515612D01*
X178700952Y-68535612D02*
X178690952Y-71525612D01*
X176700952Y-71525612D02*
X178690952Y-71525612D01*
X177710952Y-71735612D02*
X177710952Y-70615612D01*
X177710952Y-68275612D02*
X177710952Y-69555612D01*
X176700952Y-68535612D02*
X178700952Y-68535612D01*
X177710952Y-69665612D02*
X178250952Y-70615612D01*
X177700952Y-69675612D02*
X177170952Y-70585612D01*
X177170952Y-70615612D02*
X178250952Y-70615612D01*
X177170952Y-69565612D02*
X178250952Y-69565612D01*
X189378804Y-68545612D02*
X189378804Y-71515612D01*
X191378804Y-68535612D02*
X191368804Y-71525612D01*
X189378804Y-71525612D02*
X191368804Y-71525612D01*
X190388804Y-71735612D02*
X190388804Y-70615612D01*
X190388804Y-68275612D02*
X190388804Y-69555612D01*
X189378804Y-68535612D02*
X191378804Y-68535612D01*
X190388804Y-69665612D02*
X190928804Y-70615612D01*
X190378804Y-69675612D02*
X189848804Y-70585612D01*
X189848804Y-70615612D02*
X190928804Y-70615612D01*
X189848804Y-69565612D02*
X190928804Y-69565612D01*
X202056656Y-68545612D02*
X202056656Y-71515612D01*
X204056656Y-68535612D02*
X204046656Y-71525612D01*
X202056656Y-71525612D02*
X204046656Y-71525612D01*
X203066656Y-71735612D02*
X203066656Y-70615612D01*
X203066656Y-68275612D02*
X203066656Y-69555612D01*
X202056656Y-68535612D02*
X204056656Y-68535612D01*
X203066656Y-69665612D02*
X203606656Y-70615612D01*
X203056656Y-69675612D02*
X202526656Y-70585612D01*
X202526656Y-70615612D02*
X203606656Y-70615612D01*
X202526656Y-69565612D02*
X203606656Y-69565612D01*
X214734508Y-68545612D02*
X214734508Y-71515612D01*
X216734508Y-68535612D02*
X216724508Y-71525612D01*
X214734508Y-71525612D02*
X216724508Y-71525612D01*
X215744508Y-71735612D02*
X215744508Y-70615612D01*
X215744508Y-68275612D02*
X215744508Y-69555612D01*
X214734508Y-68535612D02*
X216734508Y-68535612D01*
X215744508Y-69665612D02*
X216284508Y-70615612D01*
X215734508Y-69675612D02*
X215204508Y-70585612D01*
X215204508Y-70615612D02*
X216284508Y-70615612D01*
X215204508Y-69565612D02*
X216284508Y-69565612D01*
X227342376Y-68545612D02*
X227342376Y-71515612D01*
X229342376Y-68535612D02*
X229332376Y-71525612D01*
X227342376Y-71525612D02*
X229332376Y-71525612D01*
X228352376Y-71735612D02*
X228352376Y-70615612D01*
X228352376Y-68275612D02*
X228352376Y-69555612D01*
X227342376Y-68535612D02*
X229342376Y-68535612D01*
X228352376Y-69665612D02*
X228892376Y-70615612D01*
X228342376Y-69675612D02*
X227812376Y-70585612D01*
X227812376Y-70615612D02*
X228892376Y-70615612D01*
X227812376Y-69565612D02*
X228892376Y-69565612D01*
X274541929Y-73506199D02*
X274541929Y-76476199D01*
X276541929Y-73496199D02*
X276531929Y-76486199D01*
X274541929Y-76486199D02*
X276531929Y-76486199D01*
X275551929Y-76696199D02*
X275551929Y-75576199D01*
X275551929Y-73236199D02*
X275551929Y-74516199D01*
X274541929Y-73496199D02*
X276541929Y-73496199D01*
X275551929Y-74626199D02*
X276091929Y-75576199D01*
X275541929Y-74636199D02*
X275011929Y-75546199D01*
X275011929Y-75576199D02*
X276091929Y-75576199D01*
X275011929Y-74526199D02*
X276091929Y-74526199D01*
X65769747Y-70199141D02*
X65769747Y-73169141D01*
X67769747Y-70189141D02*
X67759747Y-73179141D01*
X65769747Y-73179141D02*
X67759747Y-73179141D01*
X66779747Y-73389141D02*
X66779747Y-72269141D01*
X66779747Y-69929141D02*
X66779747Y-71209141D01*
X65769747Y-70189141D02*
X67769747Y-70189141D01*
X66779747Y-71319141D02*
X67319747Y-72269141D01*
X66769747Y-71329141D02*
X66239747Y-72239141D01*
X66239747Y-72269141D02*
X67319747Y-72269141D01*
X66239747Y-71219141D02*
X67319747Y-71219141D01*
X81617062Y-71852670D02*
X81617062Y-74822670D01*
X83617062Y-71842670D02*
X83607062Y-74832670D01*
X81617062Y-74832670D02*
X83607062Y-74832670D01*
X82627062Y-75042670D02*
X82627062Y-73922670D01*
X82627062Y-71582670D02*
X82627062Y-72862670D01*
X81617062Y-71842670D02*
X83617062Y-71842670D01*
X82627062Y-72972670D02*
X83167062Y-73922670D01*
X82617062Y-72982670D02*
X82087062Y-73892670D01*
X82087062Y-73922670D02*
X83167062Y-73922670D01*
X82087062Y-72872670D02*
X83167062Y-72872670D01*
X91125451Y-70199141D02*
X91125451Y-73169141D01*
X93125451Y-70189141D02*
X93115451Y-73179141D01*
X91125451Y-73179141D02*
X93115451Y-73179141D01*
X92135451Y-73389141D02*
X92135451Y-72269141D01*
X92135451Y-69929141D02*
X92135451Y-71209141D01*
X91125451Y-70189141D02*
X93125451Y-70189141D01*
X92135451Y-71319141D02*
X92675451Y-72269141D01*
X92125451Y-71329141D02*
X91595451Y-72239141D01*
X91595451Y-72269141D02*
X92675451Y-72269141D01*
X91595451Y-71219141D02*
X92675451Y-71219141D01*
X103803303Y-70199141D02*
X103803303Y-73169141D01*
X105803303Y-70189141D02*
X105793303Y-73179141D01*
X103803303Y-73179141D02*
X105793303Y-73179141D01*
X104813303Y-73389141D02*
X104813303Y-72269141D01*
X104813303Y-69929141D02*
X104813303Y-71209141D01*
X103803303Y-70189141D02*
X105803303Y-70189141D01*
X104813303Y-71319141D02*
X105353303Y-72269141D01*
X104803303Y-71329141D02*
X104273303Y-72239141D01*
X104273303Y-72269141D02*
X105353303Y-72269141D01*
X104273303Y-71219141D02*
X105353303Y-71219141D01*
X116481155Y-70199141D02*
X116481155Y-73169141D01*
X118481155Y-70189141D02*
X118471155Y-73179141D01*
X116481155Y-73179141D02*
X118471155Y-73179141D01*
X117491155Y-73389141D02*
X117491155Y-72269141D01*
X117491155Y-69929141D02*
X117491155Y-71209141D01*
X116481155Y-70189141D02*
X118481155Y-70189141D01*
X117491155Y-71319141D02*
X118031155Y-72269141D01*
X117481155Y-71329141D02*
X116951155Y-72239141D01*
X116951155Y-72269141D02*
X118031155Y-72269141D01*
X116951155Y-71219141D02*
X118031155Y-71219141D01*
X129159007Y-70199141D02*
X129159007Y-73169141D01*
X131159007Y-70189141D02*
X131149007Y-73179141D01*
X129159007Y-73179141D02*
X131149007Y-73179141D01*
X130169007Y-73389141D02*
X130169007Y-72269141D01*
X130169007Y-69929141D02*
X130169007Y-71209141D01*
X129159007Y-70189141D02*
X131159007Y-70189141D01*
X130169007Y-71319141D02*
X130709007Y-72269141D01*
X130159007Y-71329141D02*
X129629007Y-72239141D01*
X129629007Y-72269141D02*
X130709007Y-72269141D01*
X129629007Y-71219141D02*
X130709007Y-71219141D01*
X141836859Y-70199141D02*
X141836859Y-73169141D01*
X143836859Y-70189141D02*
X143826859Y-73179141D01*
X141836859Y-73179141D02*
X143826859Y-73179141D01*
X142846859Y-73389141D02*
X142846859Y-72269141D01*
X142846859Y-69929141D02*
X142846859Y-71209141D01*
X141836859Y-70189141D02*
X143836859Y-70189141D01*
X142846859Y-71319141D02*
X143386859Y-72269141D01*
X142836859Y-71329141D02*
X142306859Y-72239141D01*
X142306859Y-72269141D02*
X143386859Y-72269141D01*
X142306859Y-71219141D02*
X143386859Y-71219141D01*
X154514711Y-70199141D02*
X154514711Y-73169141D01*
X156514711Y-70189141D02*
X156504711Y-73179141D01*
X154514711Y-73179141D02*
X156504711Y-73179141D01*
X155524711Y-73389141D02*
X155524711Y-72269141D01*
X155524711Y-69929141D02*
X155524711Y-71209141D01*
X154514711Y-70189141D02*
X156514711Y-70189141D01*
X155524711Y-71319141D02*
X156064711Y-72269141D01*
X155514711Y-71329141D02*
X154984711Y-72239141D01*
X154984711Y-72269141D02*
X156064711Y-72269141D01*
X154984711Y-71219141D02*
X156064711Y-71219141D01*
X167192563Y-70199141D02*
X167192563Y-73169141D01*
X169192563Y-70189141D02*
X169182563Y-73179141D01*
X167192563Y-73179141D02*
X169182563Y-73179141D01*
X168202563Y-73389141D02*
X168202563Y-72269141D01*
X168202563Y-69929141D02*
X168202563Y-71209141D01*
X167192563Y-70189141D02*
X169192563Y-70189141D01*
X168202563Y-71319141D02*
X168742563Y-72269141D01*
X168192563Y-71329141D02*
X167662563Y-72239141D01*
X167662563Y-72269141D02*
X168742563Y-72269141D01*
X167662563Y-71219141D02*
X168742563Y-71219141D01*
X179870415Y-70199141D02*
X179870415Y-73169141D01*
X181870415Y-70189141D02*
X181860415Y-73179141D01*
X179870415Y-73179141D02*
X181860415Y-73179141D01*
X180880415Y-73389141D02*
X180880415Y-72269141D01*
X180880415Y-69929141D02*
X180880415Y-71209141D01*
X179870415Y-70189141D02*
X181870415Y-70189141D01*
X180880415Y-71319141D02*
X181420415Y-72269141D01*
X180870415Y-71329141D02*
X180340415Y-72239141D01*
X180340415Y-72269141D02*
X181420415Y-72269141D01*
X180340415Y-71219141D02*
X181420415Y-71219141D01*
X192548267Y-70199141D02*
X192548267Y-73169141D01*
X194548267Y-70189141D02*
X194538267Y-73179141D01*
X192548267Y-73179141D02*
X194538267Y-73179141D01*
X193558267Y-73389141D02*
X193558267Y-72269141D01*
X193558267Y-69929141D02*
X193558267Y-71209141D01*
X192548267Y-70189141D02*
X194548267Y-70189141D01*
X193558267Y-71319141D02*
X194098267Y-72269141D01*
X193548267Y-71329141D02*
X193018267Y-72239141D01*
X193018267Y-72269141D02*
X194098267Y-72269141D01*
X193018267Y-71219141D02*
X194098267Y-71219141D01*
X205226119Y-70199141D02*
X205226119Y-73169141D01*
X207226119Y-70189141D02*
X207216119Y-73179141D01*
X205226119Y-73179141D02*
X207216119Y-73179141D01*
X206236119Y-73389141D02*
X206236119Y-72269141D01*
X206236119Y-69929141D02*
X206236119Y-71209141D01*
X205226119Y-70189141D02*
X207226119Y-70189141D01*
X206236119Y-71319141D02*
X206776119Y-72269141D01*
X206226119Y-71329141D02*
X205696119Y-72239141D01*
X205696119Y-72269141D02*
X206776119Y-72269141D01*
X205696119Y-71219141D02*
X206776119Y-71219141D01*
X217886475Y-70199141D02*
X217886475Y-73169141D01*
X219886475Y-70189141D02*
X219876475Y-73179141D01*
X217886475Y-73179141D02*
X219876475Y-73179141D01*
X218896475Y-73389141D02*
X218896475Y-72269141D01*
X218896475Y-69929141D02*
X218896475Y-71209141D01*
X217886475Y-70189141D02*
X219886475Y-70189141D01*
X218896475Y-71319141D02*
X219436475Y-72269141D01*
X218886475Y-71329141D02*
X218356475Y-72239141D01*
X218356475Y-72269141D02*
X219436475Y-72269141D01*
X218356475Y-71219141D02*
X219436475Y-71219141D01*
X230493149Y-70199141D02*
X230493149Y-73169141D01*
X232493149Y-70189141D02*
X232483149Y-73179141D01*
X230493149Y-73179141D02*
X232483149Y-73179141D01*
X231503149Y-73389141D02*
X231503149Y-72269141D01*
X231503149Y-69929141D02*
X231503149Y-71209141D01*
X230493149Y-70189141D02*
X232493149Y-70189141D01*
X231503149Y-71319141D02*
X232043149Y-72269141D01*
X231493149Y-71329141D02*
X230963149Y-72239141D01*
X230963149Y-72269141D02*
X232043149Y-72269141D01*
X230963149Y-71219141D02*
X232043149Y-71219141D01*
X271453205Y-71852670D02*
X271453205Y-74822670D01*
X273453205Y-71842670D02*
X273443205Y-74832670D01*
X271453205Y-74832670D02*
X273443205Y-74832670D01*
X272463205Y-75042670D02*
X272463205Y-73922670D01*
X272463205Y-71582670D02*
X272463205Y-72862670D01*
X271453205Y-71842670D02*
X273453205Y-71842670D01*
X272463205Y-72972670D02*
X273003205Y-73922670D01*
X272453205Y-72982670D02*
X271923205Y-73892670D01*
X271923205Y-73922670D02*
X273003205Y-73922670D01*
X271923205Y-72872670D02*
X273003205Y-72872670D01*
X68939210Y-71852670D02*
X68939210Y-74822670D01*
X70939210Y-71842670D02*
X70929210Y-74832670D01*
X68939210Y-74832670D02*
X70929210Y-74832670D01*
X69949210Y-75042670D02*
X69949210Y-73922670D01*
X69949210Y-71582670D02*
X69949210Y-72862670D01*
X68939210Y-71842670D02*
X70939210Y-71842670D01*
X69949210Y-72972670D02*
X70489210Y-73922670D01*
X69939210Y-72982670D02*
X69409210Y-73892670D01*
X69409210Y-73922670D02*
X70489210Y-73922670D01*
X69409210Y-72872670D02*
X70489210Y-72872670D01*
X78447599Y-70199141D02*
X78447599Y-73169141D01*
X80447599Y-70189141D02*
X80437599Y-73179141D01*
X78447599Y-73179141D02*
X80437599Y-73179141D01*
X79457599Y-73389141D02*
X79457599Y-72269141D01*
X79457599Y-69929141D02*
X79457599Y-71209141D01*
X78447599Y-70189141D02*
X80447599Y-70189141D01*
X79457599Y-71319141D02*
X79997599Y-72269141D01*
X79447599Y-71329141D02*
X78917599Y-72239141D01*
X78917599Y-72269141D02*
X79997599Y-72269141D01*
X78917599Y-71219141D02*
X79997599Y-71219141D01*
X94294914Y-71852670D02*
X94294914Y-74822670D01*
X96294914Y-71842670D02*
X96284914Y-74832670D01*
X94294914Y-74832670D02*
X96284914Y-74832670D01*
X95304914Y-75042670D02*
X95304914Y-73922670D01*
X95304914Y-71582670D02*
X95304914Y-72862670D01*
X94294914Y-71842670D02*
X96294914Y-71842670D01*
X95304914Y-72972670D02*
X95844914Y-73922670D01*
X95294914Y-72982670D02*
X94764914Y-73892670D01*
X94764914Y-73922670D02*
X95844914Y-73922670D01*
X94764914Y-72872670D02*
X95844914Y-72872670D01*
X106972766Y-71852670D02*
X106972766Y-74822670D01*
X108972766Y-71842670D02*
X108962766Y-74832670D01*
X106972766Y-74832670D02*
X108962766Y-74832670D01*
X107982766Y-75042670D02*
X107982766Y-73922670D01*
X107982766Y-71582670D02*
X107982766Y-72862670D01*
X106972766Y-71842670D02*
X108972766Y-71842670D01*
X107982766Y-72972670D02*
X108522766Y-73922670D01*
X107972766Y-72982670D02*
X107442766Y-73892670D01*
X107442766Y-73922670D02*
X108522766Y-73922670D01*
X107442766Y-72872670D02*
X108522766Y-72872670D01*
X119650618Y-71852670D02*
X119650618Y-74822670D01*
X121650618Y-71842670D02*
X121640618Y-74832670D01*
X119650618Y-74832670D02*
X121640618Y-74832670D01*
X120660618Y-75042670D02*
X120660618Y-73922670D01*
X120660618Y-71582670D02*
X120660618Y-72862670D01*
X119650618Y-71842670D02*
X121650618Y-71842670D01*
X120660618Y-72972670D02*
X121200618Y-73922670D01*
X120650618Y-72982670D02*
X120120618Y-73892670D01*
X120120618Y-73922670D02*
X121200618Y-73922670D01*
X120120618Y-72872670D02*
X121200618Y-72872670D01*
X132328470Y-71852670D02*
X132328470Y-74822670D01*
X134328470Y-71842670D02*
X134318470Y-74832670D01*
X132328470Y-74832670D02*
X134318470Y-74832670D01*
X133338470Y-75042670D02*
X133338470Y-73922670D01*
X133338470Y-71582670D02*
X133338470Y-72862670D01*
X132328470Y-71842670D02*
X134328470Y-71842670D01*
X133338470Y-72972670D02*
X133878470Y-73922670D01*
X133328470Y-72982670D02*
X132798470Y-73892670D01*
X132798470Y-73922670D02*
X133878470Y-73922670D01*
X132798470Y-72872670D02*
X133878470Y-72872670D01*
X145006322Y-71852670D02*
X145006322Y-74822670D01*
X147006322Y-71842670D02*
X146996322Y-74832670D01*
X145006322Y-74832670D02*
X146996322Y-74832670D01*
X146016322Y-75042670D02*
X146016322Y-73922670D01*
X146016322Y-71582670D02*
X146016322Y-72862670D01*
X145006322Y-71842670D02*
X147006322Y-71842670D01*
X146016322Y-72972670D02*
X146556322Y-73922670D01*
X146006322Y-72982670D02*
X145476322Y-73892670D01*
X145476322Y-73922670D02*
X146556322Y-73922670D01*
X145476322Y-72872670D02*
X146556322Y-72872670D01*
X157684174Y-71852670D02*
X157684174Y-74822670D01*
X159684174Y-71842670D02*
X159674174Y-74832670D01*
X157684174Y-74832670D02*
X159674174Y-74832670D01*
X158694174Y-75042670D02*
X158694174Y-73922670D01*
X158694174Y-71582670D02*
X158694174Y-72862670D01*
X157684174Y-71842670D02*
X159684174Y-71842670D01*
X158694174Y-72972670D02*
X159234174Y-73922670D01*
X158684174Y-72982670D02*
X158154174Y-73892670D01*
X158154174Y-73922670D02*
X159234174Y-73922670D01*
X158154174Y-72872670D02*
X159234174Y-72872670D01*
X170362026Y-71852670D02*
X170362026Y-74822670D01*
X172362026Y-71842670D02*
X172352026Y-74832670D01*
X170362026Y-74832670D02*
X172352026Y-74832670D01*
X171372026Y-75042670D02*
X171372026Y-73922670D01*
X171372026Y-71582670D02*
X171372026Y-72862670D01*
X170362026Y-71842670D02*
X172362026Y-71842670D01*
X171372026Y-72972670D02*
X171912026Y-73922670D01*
X171362026Y-72982670D02*
X170832026Y-73892670D01*
X170832026Y-73922670D02*
X171912026Y-73922670D01*
X170832026Y-72872670D02*
X171912026Y-72872670D01*
X183039878Y-71852670D02*
X183039878Y-74822670D01*
X185039878Y-71842670D02*
X185029878Y-74832670D01*
X183039878Y-74832670D02*
X185029878Y-74832670D01*
X184049878Y-75042670D02*
X184049878Y-73922670D01*
X184049878Y-71582670D02*
X184049878Y-72862670D01*
X183039878Y-71842670D02*
X185039878Y-71842670D01*
X184049878Y-72972670D02*
X184589878Y-73922670D01*
X184039878Y-72982670D02*
X183509878Y-73892670D01*
X183509878Y-73922670D02*
X184589878Y-73922670D01*
X183509878Y-72872670D02*
X184589878Y-72872670D01*
X195717730Y-71852670D02*
X195717730Y-74822670D01*
X197717730Y-71842670D02*
X197707730Y-74832670D01*
X195717730Y-74832670D02*
X197707730Y-74832670D01*
X196727730Y-75042670D02*
X196727730Y-73922670D01*
X196727730Y-71582670D02*
X196727730Y-72862670D01*
X195717730Y-71842670D02*
X197717730Y-71842670D01*
X196727730Y-72972670D02*
X197267730Y-73922670D01*
X196717730Y-72982670D02*
X196187730Y-73892670D01*
X196187730Y-73922670D02*
X197267730Y-73922670D01*
X196187730Y-72872670D02*
X197267730Y-72872670D01*
X208395582Y-71852670D02*
X208395582Y-74822670D01*
X210395582Y-71842670D02*
X210385582Y-74832670D01*
X208395582Y-74832670D02*
X210385582Y-74832670D01*
X209405582Y-75042670D02*
X209405582Y-73922670D01*
X209405582Y-71582670D02*
X209405582Y-72862670D01*
X208395582Y-71842670D02*
X210395582Y-71842670D01*
X209405582Y-72972670D02*
X209945582Y-73922670D01*
X209395582Y-72982670D02*
X208865582Y-73892670D01*
X208865582Y-73922670D02*
X209945582Y-73922670D01*
X208865582Y-72872670D02*
X209945582Y-72872670D01*
X233643922Y-71852670D02*
X233643922Y-74822670D01*
X235643922Y-71842670D02*
X235633922Y-74832670D01*
X233643922Y-74832670D02*
X235633922Y-74832670D01*
X234653922Y-75042670D02*
X234653922Y-73922670D01*
X234653922Y-71582670D02*
X234653922Y-72862670D01*
X233643922Y-71842670D02*
X235643922Y-71842670D01*
X234653922Y-72972670D02*
X235193922Y-73922670D01*
X234643922Y-72982670D02*
X234113922Y-73892670D01*
X234113922Y-73922670D02*
X235193922Y-73922670D01*
X234113922Y-72872670D02*
X235193922Y-72872670D01*
X268364481Y-70199141D02*
X268364481Y-73169141D01*
X270364481Y-70189141D02*
X270354481Y-73179141D01*
X268364481Y-73179141D02*
X270354481Y-73179141D01*
X269374481Y-73389141D02*
X269374481Y-72269141D01*
X269374481Y-69929141D02*
X269374481Y-71209141D01*
X268364481Y-70189141D02*
X270364481Y-70189141D01*
X269374481Y-71319141D02*
X269914481Y-72269141D01*
X269364481Y-71329141D02*
X268834481Y-72239141D01*
X268834481Y-72269141D02*
X269914481Y-72269141D01*
X268834481Y-71219141D02*
X269914481Y-71219141D01*
X97464377Y-73506199D02*
X97464377Y-76476199D01*
X99464377Y-73496199D02*
X99454377Y-76486199D01*
X97464377Y-76486199D02*
X99454377Y-76486199D01*
X98474377Y-76696199D02*
X98474377Y-75576199D01*
X98474377Y-73236199D02*
X98474377Y-74516199D01*
X97464377Y-73496199D02*
X99464377Y-73496199D01*
X98474377Y-74626199D02*
X99014377Y-75576199D01*
X98464377Y-74636199D02*
X97934377Y-75546199D01*
X97934377Y-75576199D02*
X99014377Y-75576199D01*
X97934377Y-74526199D02*
X99014377Y-74526199D01*
X110142229Y-73506199D02*
X110142229Y-76476199D01*
X112142229Y-73496199D02*
X112132229Y-76486199D01*
X110142229Y-76486199D02*
X112132229Y-76486199D01*
X111152229Y-76696199D02*
X111152229Y-75576199D01*
X111152229Y-73236199D02*
X111152229Y-74516199D01*
X110142229Y-73496199D02*
X112142229Y-73496199D01*
X111152229Y-74626199D02*
X111692229Y-75576199D01*
X111142229Y-74636199D02*
X110612229Y-75546199D01*
X110612229Y-75576199D02*
X111692229Y-75576199D01*
X110612229Y-74526199D02*
X111692229Y-74526199D01*
X122820081Y-73506199D02*
X122820081Y-76476199D01*
X124820081Y-73496199D02*
X124810081Y-76486199D01*
X122820081Y-76486199D02*
X124810081Y-76486199D01*
X123830081Y-76696199D02*
X123830081Y-75576199D01*
X123830081Y-73236199D02*
X123830081Y-74516199D01*
X122820081Y-73496199D02*
X124820081Y-73496199D01*
X123830081Y-74626199D02*
X124370081Y-75576199D01*
X123820081Y-74636199D02*
X123290081Y-75546199D01*
X123290081Y-75576199D02*
X124370081Y-75576199D01*
X123290081Y-74526199D02*
X124370081Y-74526199D01*
X135497933Y-73506199D02*
X135497933Y-76476199D01*
X137497933Y-73496199D02*
X137487933Y-76486199D01*
X135497933Y-76486199D02*
X137487933Y-76486199D01*
X136507933Y-76696199D02*
X136507933Y-75576199D01*
X136507933Y-73236199D02*
X136507933Y-74516199D01*
X135497933Y-73496199D02*
X137497933Y-73496199D01*
X136507933Y-74626199D02*
X137047933Y-75576199D01*
X136497933Y-74636199D02*
X135967933Y-75546199D01*
X135967933Y-75576199D02*
X137047933Y-75576199D01*
X135967933Y-74526199D02*
X137047933Y-74526199D01*
X148175785Y-73506199D02*
X148175785Y-76476199D01*
X150175785Y-73496199D02*
X150165785Y-76486199D01*
X148175785Y-76486199D02*
X150165785Y-76486199D01*
X149185785Y-76696199D02*
X149185785Y-75576199D01*
X149185785Y-73236199D02*
X149185785Y-74516199D01*
X148175785Y-73496199D02*
X150175785Y-73496199D01*
X149185785Y-74626199D02*
X149725785Y-75576199D01*
X149175785Y-74636199D02*
X148645785Y-75546199D01*
X148645785Y-75576199D02*
X149725785Y-75576199D01*
X148645785Y-74526199D02*
X149725785Y-74526199D01*
X160853637Y-73506199D02*
X160853637Y-76476199D01*
X162853637Y-73496199D02*
X162843637Y-76486199D01*
X160853637Y-76486199D02*
X162843637Y-76486199D01*
X161863637Y-76696199D02*
X161863637Y-75576199D01*
X161863637Y-73236199D02*
X161863637Y-74516199D01*
X160853637Y-73496199D02*
X162853637Y-73496199D01*
X161863637Y-74626199D02*
X162403637Y-75576199D01*
X161853637Y-74636199D02*
X161323637Y-75546199D01*
X161323637Y-75576199D02*
X162403637Y-75576199D01*
X161323637Y-74526199D02*
X162403637Y-74526199D01*
X173531489Y-73506199D02*
X173531489Y-76476199D01*
X175531489Y-73496199D02*
X175521489Y-76486199D01*
X173531489Y-76486199D02*
X175521489Y-76486199D01*
X174541489Y-76696199D02*
X174541489Y-75576199D01*
X174541489Y-73236199D02*
X174541489Y-74516199D01*
X173531489Y-73496199D02*
X175531489Y-73496199D01*
X174541489Y-74626199D02*
X175081489Y-75576199D01*
X174531489Y-74636199D02*
X174001489Y-75546199D01*
X174001489Y-75576199D02*
X175081489Y-75576199D01*
X174001489Y-74526199D02*
X175081489Y-74526199D01*
X186209341Y-73506199D02*
X186209341Y-76476199D01*
X188209341Y-73496199D02*
X188199341Y-76486199D01*
X186209341Y-76486199D02*
X188199341Y-76486199D01*
X187219341Y-76696199D02*
X187219341Y-75576199D01*
X187219341Y-73236199D02*
X187219341Y-74516199D01*
X186209341Y-73496199D02*
X188209341Y-73496199D01*
X187219341Y-74626199D02*
X187759341Y-75576199D01*
X187209341Y-74636199D02*
X186679341Y-75546199D01*
X186679341Y-75576199D02*
X187759341Y-75576199D01*
X186679341Y-74526199D02*
X187759341Y-74526199D01*
X198887193Y-73506199D02*
X198887193Y-76476199D01*
X200887193Y-73496199D02*
X200877193Y-76486199D01*
X198887193Y-76486199D02*
X200877193Y-76486199D01*
X199897193Y-76696199D02*
X199897193Y-75576199D01*
X199897193Y-73236199D02*
X199897193Y-74516199D01*
X198887193Y-73496199D02*
X200887193Y-73496199D01*
X199897193Y-74626199D02*
X200437193Y-75576199D01*
X199887193Y-74636199D02*
X199357193Y-75546199D01*
X199357193Y-75576199D02*
X200437193Y-75576199D01*
X199357193Y-74526199D02*
X200437193Y-74526199D01*
X211565045Y-73506199D02*
X211565045Y-76476199D01*
X213565045Y-73496199D02*
X213555045Y-76486199D01*
X211565045Y-76486199D02*
X213555045Y-76486199D01*
X212575045Y-76696199D02*
X212575045Y-75576199D01*
X212575045Y-73236199D02*
X212575045Y-74516199D01*
X211565045Y-73496199D02*
X213565045Y-73496199D01*
X212575045Y-74626199D02*
X213115045Y-75576199D01*
X212565045Y-74636199D02*
X212035045Y-75546199D01*
X212035045Y-75576199D02*
X213115045Y-75576199D01*
X212035045Y-74526199D02*
X213115045Y-74526199D01*
X221038442Y-71852670D02*
X221038442Y-74822670D01*
X223038442Y-71842670D02*
X223028442Y-74832670D01*
X221038442Y-74832670D02*
X223028442Y-74832670D01*
X222048442Y-75042670D02*
X222048442Y-73922670D01*
X222048442Y-71582670D02*
X222048442Y-72862670D01*
X221038442Y-71842670D02*
X223038442Y-71842670D01*
X222048442Y-72972670D02*
X222588442Y-73922670D01*
X222038442Y-72982670D02*
X221508442Y-73892670D01*
X221508442Y-73922670D02*
X222588442Y-73922670D01*
X221508442Y-72872670D02*
X222588442Y-72872670D01*
X236794695Y-73506199D02*
X236794695Y-76476199D01*
X238794695Y-73496199D02*
X238784695Y-76486199D01*
X236794695Y-76486199D02*
X238784695Y-76486199D01*
X237804695Y-76696199D02*
X237804695Y-75576199D01*
X237804695Y-73236199D02*
X237804695Y-74516199D01*
X236794695Y-73496199D02*
X238794695Y-73496199D01*
X237804695Y-74626199D02*
X238344695Y-75576199D01*
X237794695Y-74636199D02*
X237264695Y-75546199D01*
X237264695Y-75576199D02*
X238344695Y-75576199D01*
X237264695Y-74526199D02*
X238344695Y-74526199D01*
X265089606Y-68545612D02*
X265089606Y-71515612D01*
X267089606Y-68535612D02*
X267079606Y-71525612D01*
X265089606Y-71525612D02*
X267079606Y-71525612D01*
X266099606Y-71735612D02*
X266099606Y-70615612D01*
X266099606Y-68275612D02*
X266099606Y-69555612D01*
X265089606Y-68535612D02*
X267089606Y-68535612D01*
X266099606Y-69665612D02*
X266639606Y-70615612D01*
X266089606Y-69675612D02*
X265559606Y-70585612D01*
X265559606Y-70615612D02*
X266639606Y-70615612D01*
X265559606Y-69565612D02*
X266639606Y-69565612D01*
X258788058Y-71852670D02*
X258788058Y-74822670D01*
X260788058Y-71842670D02*
X260778058Y-74832670D01*
X258788058Y-74832670D02*
X260778058Y-74832670D01*
X259798058Y-75042670D02*
X259798058Y-73922670D01*
X259798058Y-71582670D02*
X259798058Y-72862670D01*
X258788058Y-71842670D02*
X260788058Y-71842670D01*
X259798058Y-72972670D02*
X260338058Y-73922670D01*
X259788058Y-72982670D02*
X259258058Y-73892670D01*
X259258058Y-73922670D02*
X260338058Y-73922670D01*
X259258058Y-72872670D02*
X260338058Y-72872670D01*
X75278136Y-68545612D02*
X75278136Y-71515612D01*
X77278136Y-68535612D02*
X77268136Y-71525612D01*
X75278136Y-71525612D02*
X77268136Y-71525612D01*
X76288136Y-71735612D02*
X76288136Y-70615612D01*
X76288136Y-68275612D02*
X76288136Y-69555612D01*
X75278136Y-68535612D02*
X77278136Y-68535612D01*
X76288136Y-69665612D02*
X76828136Y-70615612D01*
X76278136Y-69675612D02*
X75748136Y-70585612D01*
X75748136Y-70615612D02*
X76828136Y-70615612D01*
X75748136Y-69565612D02*
X76828136Y-69565612D01*
X255637284Y-70199141D02*
X255637284Y-73169141D01*
X257637284Y-70189141D02*
X257627284Y-73179141D01*
X255637284Y-73179141D02*
X257627284Y-73179141D01*
X256647284Y-73389141D02*
X256647284Y-72269141D01*
X256647284Y-69929141D02*
X256647284Y-71209141D01*
X255637284Y-70189141D02*
X257637284Y-70189141D01*
X256647284Y-71319141D02*
X257187284Y-72269141D01*
X256637284Y-71329141D02*
X256107284Y-72239141D01*
X256107284Y-72269141D02*
X257187284Y-72269141D01*
X256107284Y-71219141D02*
X257187284Y-71219141D01*
X252486511Y-68545612D02*
X252486511Y-71515612D01*
X254486511Y-68535612D02*
X254476511Y-71525612D01*
X252486511Y-71525612D02*
X254476511Y-71525612D01*
X253496511Y-71735612D02*
X253496511Y-70615612D01*
X253496511Y-68275612D02*
X253496511Y-69555612D01*
X252486511Y-68535612D02*
X254486511Y-68535612D01*
X253496511Y-69665612D02*
X254036511Y-70615612D01*
X253486511Y-69675612D02*
X252956511Y-70585612D01*
X252956511Y-70615612D02*
X254036511Y-70615612D01*
X252956511Y-69565612D02*
X254036511Y-69565612D01*
X249335738Y-73506199D02*
X249335738Y-76476199D01*
X251335738Y-73496199D02*
X251325738Y-76486199D01*
X249335738Y-76486199D02*
X251325738Y-76486199D01*
X250345738Y-76696199D02*
X250345738Y-75576199D01*
X250345738Y-73236199D02*
X250345738Y-74516199D01*
X249335738Y-73496199D02*
X251335738Y-73496199D01*
X250345738Y-74626199D02*
X250885738Y-75576199D01*
X250335738Y-74636199D02*
X249805738Y-75546199D01*
X249805738Y-75576199D02*
X250885738Y-75576199D01*
X249805738Y-74526199D02*
X250885738Y-74526199D01*
X224190409Y-73506199D02*
X224190409Y-76476199D01*
X226190409Y-73496199D02*
X226180409Y-76486199D01*
X224190409Y-76486199D02*
X226180409Y-76486199D01*
X225200409Y-76696199D02*
X225200409Y-75576199D01*
X225200409Y-73236199D02*
X225200409Y-74516199D01*
X224190409Y-73496199D02*
X226190409Y-73496199D01*
X225200409Y-74626199D02*
X225740409Y-75576199D01*
X225190409Y-74636199D02*
X224660409Y-75546199D01*
X224660409Y-75576199D02*
X225740409Y-75576199D01*
X224660409Y-74526199D02*
X225740409Y-74526199D01*
X243096241Y-70199141D02*
X243096241Y-73169141D01*
X245096241Y-70189141D02*
X245086241Y-73179141D01*
X243096241Y-73179141D02*
X245086241Y-73179141D01*
X244106241Y-73389141D02*
X244106241Y-72269141D01*
X244106241Y-69929141D02*
X244106241Y-71209141D01*
X243096241Y-70189141D02*
X245096241Y-70189141D01*
X244106241Y-71319141D02*
X244646241Y-72269141D01*
X244096241Y-71329141D02*
X243566241Y-72239141D01*
X243566241Y-72269141D02*
X244646241Y-72269141D01*
X243566241Y-71219141D02*
X244646241Y-71219141D01*
X239945468Y-68545612D02*
X239945468Y-71515612D01*
X241945468Y-68535612D02*
X241935468Y-71525612D01*
X239945468Y-71525612D02*
X241935468Y-71525612D01*
X240955468Y-71735612D02*
X240955468Y-70615612D01*
X240955468Y-68275612D02*
X240955468Y-69555612D01*
X239945468Y-68535612D02*
X241945468Y-68535612D01*
X240955468Y-69665612D02*
X241495468Y-70615612D01*
X240945468Y-69675612D02*
X240415468Y-70585612D01*
X240415468Y-70615612D02*
X241495468Y-70615612D01*
X240415468Y-69565612D02*
X241495468Y-69565612D01*
X261938832Y-73506199D02*
X261938832Y-76476199D01*
X263938832Y-73496199D02*
X263928832Y-76486199D01*
X261938832Y-76486199D02*
X263928832Y-76486199D01*
X262948832Y-76696199D02*
X262948832Y-75576199D01*
X262948832Y-73236199D02*
X262948832Y-74516199D01*
X261938832Y-73496199D02*
X263938832Y-73496199D01*
X262948832Y-74626199D02*
X263488832Y-75576199D01*
X262938832Y-74636199D02*
X262408832Y-75546199D01*
X262408832Y-75576199D02*
X263488832Y-75576199D01*
X262408832Y-74526199D02*
X263488832Y-74526199D01*
X246184965Y-71852670D02*
X246184965Y-74822670D01*
X248184965Y-71842670D02*
X248174965Y-74832670D01*
X246184965Y-74832670D02*
X248174965Y-74832670D01*
X247194965Y-75042670D02*
X247194965Y-73922670D01*
X247194965Y-71582670D02*
X247194965Y-72862670D01*
X246184965Y-71842670D02*
X248184965Y-71842670D01*
X247194965Y-72972670D02*
X247734965Y-73922670D01*
X247184965Y-72982670D02*
X246654965Y-73892670D01*
X246654965Y-73922670D02*
X247734965Y-73922670D01*
X246654965Y-72872670D02*
X247734965Y-72872670D01*
X285174982Y-74232196D02*
X285174982Y-77202196D01*
X287174982Y-74222196D02*
X287164982Y-77212196D01*
X285174982Y-77212196D02*
X287164982Y-77212196D01*
X286184982Y-77422196D02*
X286184982Y-76302196D01*
X286184982Y-73962196D02*
X286184982Y-75242196D01*
X285174982Y-74222196D02*
X287174982Y-74222196D01*
X286184982Y-75352196D02*
X286724982Y-76302196D01*
X286174982Y-75362196D02*
X285644982Y-76272196D01*
X285644982Y-76302196D02*
X286724982Y-76302196D01*
X285644982Y-75252196D02*
X286724982Y-75252196D01*
X282305310Y-74232196D02*
X282305310Y-77202196D01*
X284305310Y-74222196D02*
X284295310Y-77212196D01*
X282305310Y-77212196D02*
X284295310Y-77212196D01*
X283315310Y-77422196D02*
X283315310Y-76302196D01*
X283315310Y-73962196D02*
X283315310Y-75242196D01*
X282305310Y-74222196D02*
X284305310Y-74222196D01*
X283315310Y-75352196D02*
X283855310Y-76302196D01*
X283305310Y-75362196D02*
X282775310Y-76272196D01*
X282775310Y-76302196D02*
X283855310Y-76302196D01*
X282775310Y-75252196D02*
X283855310Y-75252196D01*
D12*
X322806609Y-79056060D02*
X322758990Y-79103679D01*
X322616133Y-79151298D01*
X322520895Y-79151298D01*
X322378037Y-79103679D01*
X322282799Y-79008441D01*
X322235180Y-78913203D01*
X322187561Y-78722727D01*
X322187561Y-78579870D01*
X322235180Y-78389394D01*
X322282799Y-78294156D01*
X322378037Y-78198918D01*
X322520895Y-78151298D01*
X322616133Y-78151298D01*
X322758990Y-78198918D01*
X322806609Y-78246537D01*
X323711371Y-78151298D02*
X323235180Y-78151298D01*
X323187561Y-78627489D01*
X323235180Y-78579870D01*
X323330418Y-78532251D01*
X323568514Y-78532251D01*
X323663752Y-78579870D01*
X323711371Y-78627489D01*
X323758990Y-78722727D01*
X323758990Y-78960822D01*
X323711371Y-79056060D01*
X323663752Y-79103679D01*
X323568514Y-79151298D01*
X323330418Y-79151298D01*
X323235180Y-79103679D01*
X323187561Y-79056060D01*
X321927685Y-80162121D02*
X322022923Y-80162121D01*
X322118161Y-80209741D01*
X322165780Y-80257360D01*
X322213399Y-80352598D01*
X322261018Y-80543074D01*
X322261018Y-80781169D01*
X322213399Y-80971645D01*
X322165780Y-81066883D01*
X322118161Y-81114502D01*
X322022923Y-81162121D01*
X321927685Y-81162121D01*
X321832447Y-81114502D01*
X321784828Y-81066883D01*
X321737209Y-80971645D01*
X321689590Y-80781169D01*
X321689590Y-80543074D01*
X321737209Y-80352598D01*
X321784828Y-80257360D01*
X321832447Y-80209741D01*
X321927685Y-80162121D01*
X322689590Y-81066883D02*
X322737209Y-81114502D01*
X322689590Y-81162121D01*
X322641971Y-81114502D01*
X322689590Y-81066883D01*
X322689590Y-81162121D01*
X323689590Y-81162121D02*
X323118161Y-81162121D01*
X323403875Y-81162121D02*
X323403875Y-80162121D01*
X323308637Y-80304979D01*
X323213399Y-80400217D01*
X323118161Y-80447836D01*
X324546732Y-80495455D02*
X324546732Y-81162121D01*
X324118161Y-80495455D02*
X324118161Y-81019264D01*
X324165780Y-81114502D01*
X324261018Y-81162121D01*
X324403875Y-81162121D01*
X324499113Y-81114502D01*
X324546732Y-81066883D01*
X327461077Y-59265822D02*
X327413458Y-59313441D01*
X327270601Y-59361060D01*
X327175363Y-59361060D01*
X327032505Y-59313441D01*
X326937267Y-59218203D01*
X326889648Y-59122965D01*
X326842029Y-58932489D01*
X326842029Y-58789632D01*
X326889648Y-58599156D01*
X326937267Y-58503918D01*
X327032505Y-58408680D01*
X327175363Y-58361060D01*
X327270601Y-58361060D01*
X327413458Y-58408680D01*
X327461077Y-58456299D01*
X328318220Y-58694394D02*
X328318220Y-59361060D01*
X328080124Y-58313441D02*
X327842029Y-59027727D01*
X328461077Y-59027727D01*
X326582153Y-60371883D02*
X326677391Y-60371883D01*
X326772629Y-60419503D01*
X326820248Y-60467122D01*
X326867867Y-60562360D01*
X326915486Y-60752836D01*
X326915486Y-60990931D01*
X326867867Y-61181407D01*
X326820248Y-61276645D01*
X326772629Y-61324264D01*
X326677391Y-61371883D01*
X326582153Y-61371883D01*
X326486915Y-61324264D01*
X326439296Y-61276645D01*
X326391677Y-61181407D01*
X326344058Y-60990931D01*
X326344058Y-60752836D01*
X326391677Y-60562360D01*
X326439296Y-60467122D01*
X326486915Y-60419503D01*
X326582153Y-60371883D01*
X327344058Y-61276645D02*
X327391677Y-61324264D01*
X327344058Y-61371883D01*
X327296439Y-61324264D01*
X327344058Y-61276645D01*
X327344058Y-61371883D01*
X328344058Y-61371883D02*
X327772629Y-61371883D01*
X328058343Y-61371883D02*
X328058343Y-60371883D01*
X327963105Y-60514741D01*
X327867867Y-60609979D01*
X327772629Y-60657598D01*
X329201200Y-60705217D02*
X329201200Y-61371883D01*
X328772629Y-60705217D02*
X328772629Y-61229026D01*
X328820248Y-61324264D01*
X328915486Y-61371883D01*
X329058343Y-61371883D01*
X329153581Y-61324264D01*
X329201200Y-61276645D01*
X284223519Y-67087428D02*
X284175900Y-67135047D01*
X284033043Y-67182666D01*
X283937805Y-67182666D01*
X283794947Y-67135047D01*
X283699709Y-67039809D01*
X283652090Y-66944571D01*
X283604471Y-66754095D01*
X283604471Y-66611238D01*
X283652090Y-66420762D01*
X283699709Y-66325524D01*
X283794947Y-66230286D01*
X283937805Y-66182666D01*
X284033043Y-66182666D01*
X284175900Y-66230286D01*
X284223519Y-66277905D01*
X284556852Y-66182666D02*
X285175900Y-66182666D01*
X284842566Y-66563619D01*
X284985424Y-66563619D01*
X285080662Y-66611238D01*
X285128281Y-66658857D01*
X285175900Y-66754095D01*
X285175900Y-66992190D01*
X285128281Y-67087428D01*
X285080662Y-67135047D01*
X284985424Y-67182666D01*
X284699709Y-67182666D01*
X284604471Y-67135047D01*
X284556852Y-67087428D01*
X327566065Y-84182974D02*
X327518446Y-84230593D01*
X327375589Y-84278212D01*
X327280351Y-84278212D01*
X327137493Y-84230593D01*
X327042255Y-84135355D01*
X326994636Y-84040117D01*
X326947017Y-83849641D01*
X326947017Y-83706784D01*
X326994636Y-83516308D01*
X327042255Y-83421070D01*
X327137493Y-83325832D01*
X327280351Y-83278212D01*
X327375589Y-83278212D01*
X327518446Y-83325832D01*
X327566065Y-83373451D01*
X327947017Y-83373451D02*
X327994636Y-83325832D01*
X328089874Y-83278212D01*
X328327970Y-83278212D01*
X328423208Y-83325832D01*
X328470827Y-83373451D01*
X328518446Y-83468689D01*
X328518446Y-83563927D01*
X328470827Y-83706784D01*
X327899398Y-84278212D01*
X328518446Y-84278212D01*
X326652055Y-84719265D02*
X326699674Y-84671646D01*
X326794912Y-84624026D01*
X327033007Y-84624026D01*
X327128245Y-84671646D01*
X327175864Y-84719265D01*
X327223483Y-84814503D01*
X327223483Y-84909741D01*
X327175864Y-85052598D01*
X326604436Y-85624026D01*
X327223483Y-85624026D01*
X327604436Y-84719265D02*
X327652055Y-84671646D01*
X327747293Y-84624026D01*
X327985388Y-84624026D01*
X328080626Y-84671646D01*
X328128245Y-84719265D01*
X328175864Y-84814503D01*
X328175864Y-84909741D01*
X328128245Y-85052598D01*
X327556817Y-85624026D01*
X328175864Y-85624026D01*
X328604436Y-84957360D02*
X328604436Y-85957360D01*
X328604436Y-85004979D02*
X328699674Y-84957360D01*
X328890150Y-84957360D01*
X328985388Y-85004979D01*
X329033007Y-85052598D01*
X329080626Y-85147836D01*
X329080626Y-85433550D01*
X329033007Y-85528788D01*
X328985388Y-85576407D01*
X328890150Y-85624026D01*
X328699674Y-85624026D01*
X328604436Y-85576407D01*
X341791939Y-84182974D02*
X341744320Y-84230593D01*
X341601463Y-84278212D01*
X341506225Y-84278212D01*
X341363367Y-84230593D01*
X341268129Y-84135355D01*
X341220510Y-84040117D01*
X341172891Y-83849641D01*
X341172891Y-83706784D01*
X341220510Y-83516308D01*
X341268129Y-83421070D01*
X341363367Y-83325832D01*
X341506225Y-83278212D01*
X341601463Y-83278212D01*
X341744320Y-83325832D01*
X341791939Y-83373451D01*
X342744320Y-84278212D02*
X342172891Y-84278212D01*
X342458606Y-84278212D02*
X342458606Y-83278212D01*
X342363367Y-83421070D01*
X342268129Y-83516308D01*
X342172891Y-83563927D01*
X340877929Y-84719265D02*
X340925548Y-84671646D01*
X341020786Y-84624026D01*
X341258881Y-84624026D01*
X341354119Y-84671646D01*
X341401738Y-84719265D01*
X341449357Y-84814503D01*
X341449357Y-84909741D01*
X341401738Y-85052598D01*
X340830310Y-85624026D01*
X341449357Y-85624026D01*
X341830310Y-84719265D02*
X341877929Y-84671646D01*
X341973167Y-84624026D01*
X342211262Y-84624026D01*
X342306500Y-84671646D01*
X342354119Y-84719265D01*
X342401738Y-84814503D01*
X342401738Y-84909741D01*
X342354119Y-85052598D01*
X341782691Y-85624026D01*
X342401738Y-85624026D01*
X342830310Y-84957360D02*
X342830310Y-85957360D01*
X342830310Y-85004979D02*
X342925548Y-84957360D01*
X343116024Y-84957360D01*
X343211262Y-85004979D01*
X343258881Y-85052598D01*
X343306500Y-85147836D01*
X343306500Y-85433550D01*
X343258881Y-85528788D01*
X343211262Y-85576407D01*
X343116024Y-85624026D01*
X342925548Y-85624026D01*
X342830310Y-85576407D01*
X97040654Y-156705828D02*
X96240654Y-156705828D01*
X96240654Y-156515352D01*
X96278750Y-156401066D01*
X96354940Y-156324876D01*
X96431130Y-156286780D01*
X96583511Y-156248685D01*
X96697797Y-156248685D01*
X96850178Y-156286780D01*
X96926369Y-156324876D01*
X97002559Y-156401066D01*
X97040654Y-156515352D01*
X97040654Y-156705828D01*
X96240654Y-155982019D02*
X96240654Y-155448685D01*
X97040654Y-155791542D01*
X97040654Y-154724876D02*
X97040654Y-155182019D01*
X97040654Y-154953447D02*
X96240654Y-154953447D01*
X96354940Y-155029638D01*
X96431130Y-155105828D01*
X96469226Y-155182019D01*
D10*
X296932249Y-78270917D02*
X296551297Y-78537584D01*
X296932249Y-78728060D02*
X296132249Y-78728060D01*
X296132249Y-78423298D01*
X296170345Y-78347107D01*
X296208440Y-78309012D01*
X296284630Y-78270917D01*
X296398916Y-78270917D01*
X296475106Y-78309012D01*
X296513202Y-78347107D01*
X296551297Y-78423298D01*
X296551297Y-78728060D01*
X296132249Y-77547107D02*
X296132249Y-77928060D01*
X296513202Y-77966155D01*
X296475106Y-77928060D01*
X296437011Y-77851869D01*
X296437011Y-77661393D01*
X296475106Y-77585203D01*
X296513202Y-77547107D01*
X296589392Y-77509012D01*
X296779868Y-77509012D01*
X296856059Y-77547107D01*
X296894154Y-77585203D01*
X296932249Y-77661393D01*
X296932249Y-77851869D01*
X296894154Y-77928060D01*
X296856059Y-77966155D01*
X291899649Y-78551981D02*
X291442506Y-78551981D01*
X291671077Y-78551981D02*
X291671077Y-77751981D01*
X291594887Y-77866267D01*
X291518696Y-77942457D01*
X291442506Y-77980553D01*
X292242506Y-78475791D02*
X292280601Y-78513886D01*
X292242506Y-78551981D01*
X292204411Y-78513886D01*
X292242506Y-78475791D01*
X292242506Y-78551981D01*
X293004411Y-77751981D02*
X292623458Y-77751981D01*
X292585363Y-78132934D01*
X292623458Y-78094838D01*
X292699649Y-78056743D01*
X292890125Y-78056743D01*
X292966316Y-78094838D01*
X293004411Y-78132934D01*
X293042506Y-78209124D01*
X293042506Y-78399600D01*
X293004411Y-78475791D01*
X292966316Y-78513886D01*
X292890125Y-78551981D01*
X292699649Y-78551981D01*
X292623458Y-78513886D01*
X292585363Y-78475791D01*
X293385363Y-78551981D02*
X293385363Y-77751981D01*
X293461554Y-78247219D02*
X293690125Y-78551981D01*
X293690125Y-78018648D02*
X293385363Y-78323410D01*
X296932249Y-75760001D02*
X296551297Y-76026668D01*
X296932249Y-76217144D02*
X296132249Y-76217144D01*
X296132249Y-75912382D01*
X296170345Y-75836191D01*
X296208440Y-75798096D01*
X296284630Y-75760001D01*
X296398916Y-75760001D01*
X296475106Y-75798096D01*
X296513202Y-75836191D01*
X296551297Y-75912382D01*
X296551297Y-76217144D01*
X296398916Y-75074287D02*
X296932249Y-75074287D01*
X296094154Y-75264763D02*
X296665583Y-75455239D01*
X296665583Y-74960001D01*
X291518696Y-75232317D02*
X292052030Y-75232317D01*
X291709173Y-76032317D01*
X292737744Y-75232317D02*
X292356792Y-75232317D01*
X292318696Y-75613270D01*
X292356792Y-75575174D01*
X292432982Y-75537079D01*
X292623458Y-75537079D01*
X292699649Y-75575174D01*
X292737744Y-75613270D01*
X292775839Y-75689460D01*
X292775839Y-75879936D01*
X292737744Y-75956127D01*
X292699649Y-75994222D01*
X292623458Y-76032317D01*
X292432982Y-76032317D01*
X292356792Y-75994222D01*
X292318696Y-75956127D01*
X293575839Y-76032317D02*
X293309173Y-75651365D01*
X293118696Y-76032317D02*
X293118696Y-75232317D01*
X293423458Y-75232317D01*
X293499649Y-75270413D01*
X293537744Y-75308508D01*
X293575839Y-75384698D01*
X293575839Y-75498984D01*
X293537744Y-75575174D01*
X293499649Y-75613270D01*
X293423458Y-75651365D01*
X293118696Y-75651365D01*
X296932249Y-73249086D02*
X296551297Y-73515753D01*
X296932249Y-73706229D02*
X296132249Y-73706229D01*
X296132249Y-73401467D01*
X296170345Y-73325276D01*
X296208440Y-73287181D01*
X296284630Y-73249086D01*
X296398916Y-73249086D01*
X296475106Y-73287181D01*
X296513202Y-73325276D01*
X296551297Y-73401467D01*
X296551297Y-73706229D01*
X296132249Y-72982419D02*
X296132249Y-72487181D01*
X296437011Y-72753848D01*
X296437011Y-72639562D01*
X296475106Y-72563372D01*
X296513202Y-72525276D01*
X296589392Y-72487181D01*
X296779868Y-72487181D01*
X296856059Y-72525276D01*
X296894154Y-72563372D01*
X296932249Y-72639562D01*
X296932249Y-72868133D01*
X296894154Y-72944324D01*
X296856059Y-72982419D01*
X291518696Y-72765146D02*
X292052030Y-72765146D01*
X291709173Y-73565146D01*
X292737744Y-72765146D02*
X292356792Y-72765146D01*
X292318696Y-73146099D01*
X292356792Y-73108003D01*
X292432982Y-73069908D01*
X292623458Y-73069908D01*
X292699649Y-73108003D01*
X292737744Y-73146099D01*
X292775839Y-73222289D01*
X292775839Y-73412765D01*
X292737744Y-73488956D01*
X292699649Y-73527051D01*
X292623458Y-73565146D01*
X292432982Y-73565146D01*
X292356792Y-73527051D01*
X292318696Y-73488956D01*
X293575839Y-73565146D02*
X293309173Y-73184194D01*
X293118696Y-73565146D02*
X293118696Y-72765146D01*
X293423458Y-72765146D01*
X293499649Y-72803242D01*
X293537744Y-72841337D01*
X293575839Y-72917527D01*
X293575839Y-73031813D01*
X293537744Y-73108003D01*
X293499649Y-73146099D01*
X293423458Y-73184194D01*
X293118696Y-73184194D01*
X296932249Y-68227256D02*
X296551297Y-68493923D01*
X296932249Y-68684399D02*
X296132249Y-68684399D01*
X296132249Y-68379637D01*
X296170345Y-68303446D01*
X296208440Y-68265351D01*
X296284630Y-68227256D01*
X296398916Y-68227256D01*
X296475106Y-68265351D01*
X296513202Y-68303446D01*
X296551297Y-68379637D01*
X296551297Y-68684399D01*
X296932249Y-67465351D02*
X296932249Y-67922494D01*
X296932249Y-67693923D02*
X296132249Y-67693923D01*
X296246535Y-67770113D01*
X296322725Y-67846303D01*
X296360821Y-67922494D01*
X296932249Y-70738171D02*
X296551297Y-71004838D01*
X296932249Y-71195314D02*
X296132249Y-71195314D01*
X296132249Y-70890552D01*
X296170345Y-70814361D01*
X296208440Y-70776266D01*
X296284630Y-70738171D01*
X296398916Y-70738171D01*
X296475106Y-70776266D01*
X296513202Y-70814361D01*
X296551297Y-70890552D01*
X296551297Y-71195314D01*
X296208440Y-70433409D02*
X296170345Y-70395314D01*
X296132249Y-70319123D01*
X296132249Y-70128647D01*
X296170345Y-70052457D01*
X296208440Y-70014361D01*
X296284630Y-69976266D01*
X296360821Y-69976266D01*
X296475106Y-70014361D01*
X296932249Y-70471504D01*
X296932249Y-69976266D01*
X296932249Y-65716341D02*
X296551297Y-65983008D01*
X296932249Y-66173484D02*
X296132249Y-66173484D01*
X296132249Y-65868722D01*
X296170345Y-65792531D01*
X296208440Y-65754436D01*
X296284630Y-65716341D01*
X296398916Y-65716341D01*
X296475106Y-65754436D01*
X296513202Y-65792531D01*
X296551297Y-65868722D01*
X296551297Y-66173484D01*
X296132249Y-65030627D02*
X296132249Y-65183008D01*
X296170345Y-65259198D01*
X296208440Y-65297293D01*
X296322725Y-65373484D01*
X296475106Y-65411579D01*
X296779868Y-65411579D01*
X296856059Y-65373484D01*
X296894154Y-65335388D01*
X296932249Y-65259198D01*
X296932249Y-65106817D01*
X296894154Y-65030627D01*
X296856059Y-64992531D01*
X296779868Y-64954436D01*
X296589392Y-64954436D01*
X296513202Y-64992531D01*
X296475106Y-65030627D01*
X296437011Y-65106817D01*
X296437011Y-65259198D01*
X296475106Y-65335388D01*
X296513202Y-65373484D01*
X296589392Y-65411579D01*
X291823458Y-65972318D02*
X291366316Y-65972318D01*
X291594887Y-65972318D02*
X291594887Y-65172318D01*
X291518696Y-65286604D01*
X291442506Y-65362794D01*
X291366316Y-65400890D01*
X292166316Y-65896128D02*
X292204411Y-65934223D01*
X292166316Y-65972318D01*
X292128220Y-65934223D01*
X292166316Y-65896128D01*
X292166316Y-65972318D01*
X292928220Y-65172318D02*
X292547268Y-65172318D01*
X292509173Y-65553271D01*
X292547268Y-65515175D01*
X292623458Y-65477080D01*
X292813935Y-65477080D01*
X292890125Y-65515175D01*
X292928220Y-65553271D01*
X292966316Y-65629461D01*
X292966316Y-65819937D01*
X292928220Y-65896128D01*
X292890125Y-65934223D01*
X292813935Y-65972318D01*
X292623458Y-65972318D01*
X292547268Y-65934223D01*
X292509173Y-65896128D01*
X293309173Y-65972318D02*
X293309173Y-65172318D01*
X293766316Y-65972318D02*
X293423458Y-65515175D01*
X293766316Y-65172318D02*
X293309173Y-65629461D01*
X296932249Y-63205426D02*
X296551297Y-63472093D01*
X296932249Y-63662569D02*
X296132249Y-63662569D01*
X296132249Y-63357807D01*
X296170345Y-63281616D01*
X296208440Y-63243521D01*
X296284630Y-63205426D01*
X296398916Y-63205426D01*
X296475106Y-63243521D01*
X296513202Y-63281616D01*
X296551297Y-63357807D01*
X296551297Y-63662569D01*
X296132249Y-62938759D02*
X296132249Y-62405426D01*
X296932249Y-62748283D01*
X292090125Y-63483772D02*
X291632982Y-63483772D01*
X291861554Y-63483772D02*
X291861554Y-62683772D01*
X291785363Y-62798058D01*
X291709173Y-62874248D01*
X291632982Y-62912344D01*
X292585363Y-62683772D02*
X292661554Y-62683772D01*
X292737744Y-62721868D01*
X292775839Y-62759963D01*
X292813935Y-62836153D01*
X292852030Y-62988534D01*
X292852030Y-63179010D01*
X292813935Y-63331391D01*
X292775839Y-63407582D01*
X292737744Y-63445677D01*
X292661554Y-63483772D01*
X292585363Y-63483772D01*
X292509173Y-63445677D01*
X292471077Y-63407582D01*
X292432982Y-63331391D01*
X292394887Y-63179010D01*
X292394887Y-62988534D01*
X292432982Y-62836153D01*
X292471077Y-62759963D01*
X292509173Y-62721868D01*
X292585363Y-62683772D01*
X293194887Y-63483772D02*
X293194887Y-62683772D01*
X293271077Y-63179010D02*
X293499649Y-63483772D01*
X293499649Y-62950439D02*
X293194887Y-63255201D01*
D12*
X323156263Y-68317422D02*
X323156263Y-69126946D01*
X323203882Y-69222184D01*
X323251501Y-69269803D01*
X323346739Y-69317422D01*
X323537215Y-69317422D01*
X323632453Y-69269803D01*
X323680072Y-69222184D01*
X323727691Y-69126946D01*
X323727691Y-68317422D01*
X324727691Y-69317422D02*
X324156263Y-69317422D01*
X324441977Y-69317422D02*
X324441977Y-68317422D01*
X324346739Y-68460280D01*
X324251501Y-68555518D01*
X324156263Y-68603137D01*
X318572776Y-66494498D02*
X319048967Y-66494498D01*
X318477538Y-66780212D02*
X318810872Y-65780212D01*
X319144205Y-66780212D01*
X319334681Y-65780212D02*
X319906110Y-65780212D01*
X319620395Y-66780212D02*
X319620395Y-65780212D01*
X320239443Y-66780212D02*
X320239443Y-66113546D01*
X320239443Y-66208784D02*
X320287062Y-66161165D01*
X320382300Y-66113546D01*
X320525157Y-66113546D01*
X320620395Y-66161165D01*
X320668014Y-66256403D01*
X320668014Y-66780212D01*
X320668014Y-66256403D02*
X320715634Y-66161165D01*
X320810872Y-66113546D01*
X320953729Y-66113546D01*
X321048967Y-66161165D01*
X321096586Y-66256403D01*
X321096586Y-66780212D01*
X321953729Y-66732593D02*
X321858491Y-66780212D01*
X321668014Y-66780212D01*
X321572776Y-66732593D01*
X321525157Y-66637355D01*
X321525157Y-66256403D01*
X321572776Y-66161165D01*
X321668014Y-66113546D01*
X321858491Y-66113546D01*
X321953729Y-66161165D01*
X322001348Y-66256403D01*
X322001348Y-66351641D01*
X321525157Y-66446879D01*
X322858491Y-66113546D02*
X322858491Y-66923070D01*
X322810872Y-67018308D01*
X322763253Y-67065927D01*
X322668014Y-67113546D01*
X322525157Y-67113546D01*
X322429919Y-67065927D01*
X322858491Y-66732593D02*
X322763253Y-66780212D01*
X322572776Y-66780212D01*
X322477538Y-66732593D01*
X322429919Y-66684974D01*
X322382300Y-66589736D01*
X322382300Y-66304022D01*
X322429919Y-66208784D01*
X322477538Y-66161165D01*
X322572776Y-66113546D01*
X322763253Y-66113546D01*
X322858491Y-66161165D01*
X323763253Y-66780212D02*
X323763253Y-66256403D01*
X323715634Y-66161165D01*
X323620395Y-66113546D01*
X323429919Y-66113546D01*
X323334681Y-66161165D01*
X323763253Y-66732593D02*
X323668014Y-66780212D01*
X323429919Y-66780212D01*
X323334681Y-66732593D01*
X323287062Y-66637355D01*
X323287062Y-66542117D01*
X323334681Y-66446879D01*
X323429919Y-66399260D01*
X323668014Y-66399260D01*
X323763253Y-66351641D01*
X324144205Y-65780212D02*
X324763253Y-65780212D01*
X324429919Y-66161165D01*
X324572776Y-66161165D01*
X324668014Y-66208784D01*
X324715634Y-66256403D01*
X324763253Y-66351641D01*
X324763253Y-66589736D01*
X324715634Y-66684974D01*
X324668014Y-66732593D01*
X324572776Y-66780212D01*
X324287062Y-66780212D01*
X324191824Y-66732593D01*
X324144205Y-66684974D01*
X325144205Y-65875451D02*
X325191824Y-65827832D01*
X325287062Y-65780212D01*
X325525157Y-65780212D01*
X325620395Y-65827832D01*
X325668014Y-65875451D01*
X325715634Y-65970689D01*
X325715634Y-66065927D01*
X325668014Y-66208784D01*
X325096586Y-66780212D01*
X325715634Y-66780212D01*
X326096586Y-66494498D02*
X326572776Y-66494498D01*
X326001348Y-66780212D02*
X326334681Y-65780212D01*
X326668014Y-66780212D01*
X327001348Y-66399260D02*
X327763253Y-66399260D01*
X328239443Y-66780212D02*
X328239443Y-65780212D01*
X328620395Y-65780212D01*
X328715634Y-65827832D01*
X328763253Y-65875451D01*
X328810872Y-65970689D01*
X328810872Y-66113546D01*
X328763253Y-66208784D01*
X328715634Y-66256403D01*
X328620395Y-66304022D01*
X328239443Y-66304022D01*
X329239443Y-65780212D02*
X329239443Y-66589736D01*
X329287062Y-66684974D01*
X329334681Y-66732593D01*
X329429919Y-66780212D01*
X329620395Y-66780212D01*
X329715634Y-66732593D01*
X329763253Y-66684974D01*
X329810872Y-66589736D01*
X329810872Y-65780212D01*
X334335453Y-80213494D02*
X334335453Y-80689684D01*
X334002120Y-79689684D02*
X334335453Y-80213494D01*
X334668786Y-79689684D01*
X335525929Y-80689684D02*
X334954501Y-80689684D01*
X335240215Y-80689684D02*
X335240215Y-79689684D01*
X335144977Y-79832542D01*
X335049739Y-79927780D01*
X334954501Y-79975399D01*
X275827870Y-58606032D02*
X275827870Y-59415556D01*
X275875489Y-59510794D01*
X275923108Y-59558413D01*
X276018346Y-59606032D01*
X276208823Y-59606032D01*
X276304061Y-59558413D01*
X276351680Y-59510794D01*
X276399299Y-59415556D01*
X276399299Y-58606032D01*
X276827870Y-59558413D02*
X276970727Y-59606032D01*
X277208823Y-59606032D01*
X277304061Y-59558413D01*
X277351680Y-59510794D01*
X277399299Y-59415556D01*
X277399299Y-59320318D01*
X277351680Y-59225080D01*
X277304061Y-59177461D01*
X277208823Y-59129842D01*
X277018346Y-59082223D01*
X276923108Y-59034604D01*
X276875489Y-58986985D01*
X276827870Y-58891747D01*
X276827870Y-58796509D01*
X276875489Y-58701271D01*
X276923108Y-58653652D01*
X277018346Y-58606032D01*
X277256442Y-58606032D01*
X277399299Y-58653652D01*
X278161204Y-59082223D02*
X278304061Y-59129842D01*
X278351680Y-59177461D01*
X278399299Y-59272699D01*
X278399299Y-59415556D01*
X278351680Y-59510794D01*
X278304061Y-59558413D01*
X278208823Y-59606032D01*
X277827870Y-59606032D01*
X277827870Y-58606032D01*
X278161204Y-58606032D01*
X278256442Y-58653652D01*
X278304061Y-58701271D01*
X278351680Y-58796509D01*
X278351680Y-58891747D01*
X278304061Y-58986985D01*
X278256442Y-59034604D01*
X278161204Y-59082223D01*
X277827870Y-59082223D01*
X279351680Y-59606032D02*
X278780251Y-59606032D01*
X279065966Y-59606032D02*
X279065966Y-58606032D01*
X278970727Y-58748890D01*
X278875489Y-58844128D01*
X278780251Y-58891747D01*
X270006185Y-63190361D02*
X270006185Y-63523695D01*
X270529994Y-63523695D02*
X269529994Y-63523695D01*
X269529994Y-63047504D01*
X269529994Y-62666552D02*
X270339518Y-62666552D01*
X270434756Y-62618933D01*
X270482375Y-62571314D01*
X270529994Y-62476076D01*
X270529994Y-62285599D01*
X270482375Y-62190361D01*
X270434756Y-62142742D01*
X270339518Y-62095123D01*
X269529994Y-62095123D01*
X270482375Y-61666552D02*
X270529994Y-61523695D01*
X270529994Y-61285599D01*
X270482375Y-61190361D01*
X270434756Y-61142742D01*
X270339518Y-61095123D01*
X270244280Y-61095123D01*
X270149042Y-61142742D01*
X270101423Y-61190361D01*
X270053804Y-61285599D01*
X270006185Y-61476076D01*
X269958566Y-61571314D01*
X269910947Y-61618933D01*
X269815709Y-61666552D01*
X269720471Y-61666552D01*
X269625233Y-61618933D01*
X269577614Y-61571314D01*
X269529994Y-61476076D01*
X269529994Y-61237980D01*
X269577614Y-61095123D01*
X270006185Y-60666552D02*
X270006185Y-60333218D01*
X270529994Y-60190361D02*
X270529994Y-60666552D01*
X269529994Y-60666552D01*
X269529994Y-60190361D01*
X240420678Y-65992765D02*
X240563535Y-66040384D01*
X240611154Y-66088003D01*
X240658773Y-66183241D01*
X240658773Y-66326098D01*
X240611154Y-66421336D01*
X240563535Y-66468955D01*
X240468297Y-66516574D01*
X240087344Y-66516574D01*
X240087344Y-65516574D01*
X240420678Y-65516574D01*
X240515916Y-65564194D01*
X240563535Y-65611813D01*
X240611154Y-65707051D01*
X240611154Y-65802289D01*
X240563535Y-65897527D01*
X240515916Y-65945146D01*
X240420678Y-65992765D01*
X240087344Y-65992765D01*
X241277821Y-65516574D02*
X241468297Y-65516574D01*
X241563535Y-65564194D01*
X241658773Y-65659432D01*
X241706392Y-65849908D01*
X241706392Y-66183241D01*
X241658773Y-66373717D01*
X241563535Y-66468955D01*
X241468297Y-66516574D01*
X241277821Y-66516574D01*
X241182582Y-66468955D01*
X241087344Y-66373717D01*
X241039725Y-66183241D01*
X241039725Y-65849908D01*
X241087344Y-65659432D01*
X241182582Y-65564194D01*
X241277821Y-65516574D01*
X242325440Y-65516574D02*
X242515916Y-65516574D01*
X242611154Y-65564194D01*
X242706392Y-65659432D01*
X242754011Y-65849908D01*
X242754011Y-66183241D01*
X242706392Y-66373717D01*
X242611154Y-66468955D01*
X242515916Y-66516574D01*
X242325440Y-66516574D01*
X242230201Y-66468955D01*
X242134963Y-66373717D01*
X242087344Y-66183241D01*
X242087344Y-65849908D01*
X242134963Y-65659432D01*
X242230201Y-65564194D01*
X242325440Y-65516574D01*
X243039725Y-65516574D02*
X243611154Y-65516574D01*
X243325440Y-66516574D02*
X243325440Y-65516574D01*
X63962188Y-75566088D02*
X63162188Y-75566088D01*
X63162188Y-75375612D01*
X63200284Y-75261326D01*
X63276474Y-75185135D01*
X63352664Y-75147040D01*
X63505045Y-75108945D01*
X63619331Y-75108945D01*
X63771712Y-75147040D01*
X63847903Y-75185135D01*
X63924093Y-75261326D01*
X63962188Y-75375612D01*
X63962188Y-75566088D01*
X63962188Y-74347040D02*
X63962188Y-74804183D01*
X63962188Y-74575612D02*
X63162188Y-74575612D01*
X63276474Y-74651802D01*
X63352664Y-74727992D01*
X63390760Y-74804183D01*
X73470577Y-80907627D02*
X72670577Y-80907627D01*
X72670577Y-80717151D01*
X72708673Y-80602865D01*
X72784863Y-80526675D01*
X72861053Y-80488579D01*
X73013434Y-80450484D01*
X73127720Y-80450484D01*
X73280101Y-80488579D01*
X73356292Y-80526675D01*
X73432482Y-80602865D01*
X73470577Y-80717151D01*
X73470577Y-80907627D01*
X72937244Y-79764770D02*
X73470577Y-79764770D01*
X72632482Y-79955246D02*
X73203911Y-80145722D01*
X73203911Y-79650484D01*
X72670577Y-78964770D02*
X72670577Y-79345722D01*
X73051530Y-79383818D01*
X73013434Y-79345722D01*
X72975339Y-79269532D01*
X72975339Y-79079056D01*
X73013434Y-79002865D01*
X73051530Y-78964770D01*
X73127720Y-78926675D01*
X73318196Y-78926675D01*
X73394387Y-78964770D01*
X73432482Y-79002865D01*
X73470577Y-79079056D01*
X73470577Y-79269532D01*
X73432482Y-79345722D01*
X73394387Y-79383818D01*
X86148429Y-80526675D02*
X85348429Y-80526675D01*
X85348429Y-80336199D01*
X85386525Y-80221913D01*
X85462715Y-80145722D01*
X85538905Y-80107627D01*
X85691286Y-80069532D01*
X85805572Y-80069532D01*
X85957953Y-80107627D01*
X86034144Y-80145722D01*
X86110334Y-80221913D01*
X86148429Y-80336199D01*
X86148429Y-80526675D01*
X85424620Y-79764770D02*
X85386525Y-79726675D01*
X85348429Y-79650484D01*
X85348429Y-79460008D01*
X85386525Y-79383818D01*
X85424620Y-79345722D01*
X85500810Y-79307627D01*
X85577001Y-79307627D01*
X85691286Y-79345722D01*
X86148429Y-79802865D01*
X86148429Y-79307627D01*
X89317892Y-75566088D02*
X88517892Y-75566088D01*
X88517892Y-75375612D01*
X88555988Y-75261326D01*
X88632178Y-75185135D01*
X88708368Y-75147040D01*
X88860749Y-75108945D01*
X88975035Y-75108945D01*
X89127416Y-75147040D01*
X89203607Y-75185135D01*
X89279797Y-75261326D01*
X89317892Y-75375612D01*
X89317892Y-75566088D01*
X88517892Y-74842278D02*
X88517892Y-74347040D01*
X88822654Y-74613707D01*
X88822654Y-74499421D01*
X88860749Y-74423231D01*
X88898845Y-74385135D01*
X88975035Y-74347040D01*
X89165511Y-74347040D01*
X89241702Y-74385135D01*
X89279797Y-74423231D01*
X89317892Y-74499421D01*
X89317892Y-74727992D01*
X89279797Y-74804183D01*
X89241702Y-74842278D01*
X101995744Y-75566088D02*
X101195744Y-75566088D01*
X101195744Y-75375612D01*
X101233840Y-75261326D01*
X101310030Y-75185135D01*
X101386220Y-75147040D01*
X101538601Y-75108945D01*
X101652887Y-75108945D01*
X101805268Y-75147040D01*
X101881459Y-75185135D01*
X101957649Y-75261326D01*
X101995744Y-75375612D01*
X101995744Y-75566088D01*
X101462411Y-74423231D02*
X101995744Y-74423231D01*
X101157649Y-74613707D02*
X101729078Y-74804183D01*
X101729078Y-74308945D01*
X114673596Y-75566088D02*
X113873596Y-75566088D01*
X113873596Y-75375612D01*
X113911692Y-75261326D01*
X113987882Y-75185135D01*
X114064072Y-75147040D01*
X114216453Y-75108945D01*
X114330739Y-75108945D01*
X114483120Y-75147040D01*
X114559311Y-75185135D01*
X114635501Y-75261326D01*
X114673596Y-75375612D01*
X114673596Y-75566088D01*
X113873596Y-74385135D02*
X113873596Y-74766088D01*
X114254549Y-74804183D01*
X114216453Y-74766088D01*
X114178358Y-74689897D01*
X114178358Y-74499421D01*
X114216453Y-74423231D01*
X114254549Y-74385135D01*
X114330739Y-74347040D01*
X114521215Y-74347040D01*
X114597406Y-74385135D01*
X114635501Y-74423231D01*
X114673596Y-74499421D01*
X114673596Y-74689897D01*
X114635501Y-74766088D01*
X114597406Y-74804183D01*
X127351448Y-75566088D02*
X126551448Y-75566088D01*
X126551448Y-75375612D01*
X126589544Y-75261326D01*
X126665734Y-75185135D01*
X126741924Y-75147040D01*
X126894305Y-75108945D01*
X127008591Y-75108945D01*
X127160972Y-75147040D01*
X127237163Y-75185135D01*
X127313353Y-75261326D01*
X127351448Y-75375612D01*
X127351448Y-75566088D01*
X126551448Y-74423231D02*
X126551448Y-74575612D01*
X126589544Y-74651802D01*
X126627639Y-74689897D01*
X126741924Y-74766088D01*
X126894305Y-74804183D01*
X127199067Y-74804183D01*
X127275258Y-74766088D01*
X127313353Y-74727992D01*
X127351448Y-74651802D01*
X127351448Y-74499421D01*
X127313353Y-74423231D01*
X127275258Y-74385135D01*
X127199067Y-74347040D01*
X127008591Y-74347040D01*
X126932401Y-74385135D01*
X126894305Y-74423231D01*
X126856210Y-74499421D01*
X126856210Y-74651802D01*
X126894305Y-74727992D01*
X126932401Y-74766088D01*
X127008591Y-74804183D01*
X140029300Y-75566088D02*
X139229300Y-75566088D01*
X139229300Y-75375612D01*
X139267396Y-75261326D01*
X139343586Y-75185135D01*
X139419776Y-75147040D01*
X139572157Y-75108945D01*
X139686443Y-75108945D01*
X139838824Y-75147040D01*
X139915015Y-75185135D01*
X139991205Y-75261326D01*
X140029300Y-75375612D01*
X140029300Y-75566088D01*
X139229300Y-74842278D02*
X139229300Y-74308945D01*
X140029300Y-74651802D01*
X152707152Y-75566088D02*
X151907152Y-75566088D01*
X151907152Y-75375612D01*
X151945248Y-75261326D01*
X152021438Y-75185135D01*
X152097628Y-75147040D01*
X152250009Y-75108945D01*
X152364295Y-75108945D01*
X152516676Y-75147040D01*
X152592867Y-75185135D01*
X152669057Y-75261326D01*
X152707152Y-75375612D01*
X152707152Y-75566088D01*
X152250009Y-74651802D02*
X152211914Y-74727992D01*
X152173819Y-74766088D01*
X152097628Y-74804183D01*
X152059533Y-74804183D01*
X151983343Y-74766088D01*
X151945248Y-74727992D01*
X151907152Y-74651802D01*
X151907152Y-74499421D01*
X151945248Y-74423231D01*
X151983343Y-74385135D01*
X152059533Y-74347040D01*
X152097628Y-74347040D01*
X152173819Y-74385135D01*
X152211914Y-74423231D01*
X152250009Y-74499421D01*
X152250009Y-74651802D01*
X152288105Y-74727992D01*
X152326200Y-74766088D01*
X152402390Y-74804183D01*
X152554771Y-74804183D01*
X152630962Y-74766088D01*
X152669057Y-74727992D01*
X152707152Y-74651802D01*
X152707152Y-74499421D01*
X152669057Y-74423231D01*
X152630962Y-74385135D01*
X152554771Y-74347040D01*
X152402390Y-74347040D01*
X152326200Y-74385135D01*
X152288105Y-74423231D01*
X152250009Y-74499421D01*
X165385004Y-75566088D02*
X164585004Y-75566088D01*
X164585004Y-75375612D01*
X164623100Y-75261326D01*
X164699290Y-75185135D01*
X164775480Y-75147040D01*
X164927861Y-75108945D01*
X165042147Y-75108945D01*
X165194528Y-75147040D01*
X165270719Y-75185135D01*
X165346909Y-75261326D01*
X165385004Y-75375612D01*
X165385004Y-75566088D01*
X165385004Y-74727992D02*
X165385004Y-74575612D01*
X165346909Y-74499421D01*
X165308814Y-74461326D01*
X165194528Y-74385135D01*
X165042147Y-74347040D01*
X164737385Y-74347040D01*
X164661195Y-74385135D01*
X164623100Y-74423231D01*
X164585004Y-74499421D01*
X164585004Y-74651802D01*
X164623100Y-74727992D01*
X164661195Y-74766088D01*
X164737385Y-74804183D01*
X164927861Y-74804183D01*
X165004052Y-74766088D01*
X165042147Y-74727992D01*
X165080242Y-74651802D01*
X165080242Y-74499421D01*
X165042147Y-74423231D01*
X165004052Y-74385135D01*
X164927861Y-74347040D01*
X178062856Y-75947040D02*
X177262856Y-75947040D01*
X177262856Y-75756564D01*
X177300952Y-75642278D01*
X177377142Y-75566088D01*
X177453332Y-75527992D01*
X177605713Y-75489897D01*
X177719999Y-75489897D01*
X177872380Y-75527992D01*
X177948571Y-75566088D01*
X178024761Y-75642278D01*
X178062856Y-75756564D01*
X178062856Y-75947040D01*
X178062856Y-74727992D02*
X178062856Y-75185135D01*
X178062856Y-74956564D02*
X177262856Y-74956564D01*
X177377142Y-75032754D01*
X177453332Y-75108945D01*
X177491428Y-75185135D01*
X177262856Y-74232754D02*
X177262856Y-74156564D01*
X177300952Y-74080373D01*
X177339047Y-74042278D01*
X177415237Y-74004183D01*
X177567618Y-73966088D01*
X177758094Y-73966088D01*
X177910475Y-74004183D01*
X177986666Y-74042278D01*
X178024761Y-74080373D01*
X178062856Y-74156564D01*
X178062856Y-74232754D01*
X178024761Y-74308945D01*
X177986666Y-74347040D01*
X177910475Y-74385135D01*
X177758094Y-74423231D01*
X177567618Y-74423231D01*
X177415237Y-74385135D01*
X177339047Y-74347040D01*
X177300952Y-74308945D01*
X177262856Y-74232754D01*
X190740708Y-75947040D02*
X189940708Y-75947040D01*
X189940708Y-75756564D01*
X189978804Y-75642278D01*
X190054994Y-75566088D01*
X190131184Y-75527992D01*
X190283565Y-75489897D01*
X190397851Y-75489897D01*
X190550232Y-75527992D01*
X190626423Y-75566088D01*
X190702613Y-75642278D01*
X190740708Y-75756564D01*
X190740708Y-75947040D01*
X190740708Y-74727992D02*
X190740708Y-75185135D01*
X190740708Y-74956564D02*
X189940708Y-74956564D01*
X190054994Y-75032754D01*
X190131184Y-75108945D01*
X190169280Y-75185135D01*
X190740708Y-73966088D02*
X190740708Y-74423231D01*
X190740708Y-74194659D02*
X189940708Y-74194659D01*
X190054994Y-74270850D01*
X190131184Y-74347040D01*
X190169280Y-74423231D01*
X203418560Y-75947040D02*
X202618560Y-75947040D01*
X202618560Y-75756564D01*
X202656656Y-75642278D01*
X202732846Y-75566088D01*
X202809036Y-75527992D01*
X202961417Y-75489897D01*
X203075703Y-75489897D01*
X203228084Y-75527992D01*
X203304275Y-75566088D01*
X203380465Y-75642278D01*
X203418560Y-75756564D01*
X203418560Y-75947040D01*
X203418560Y-74727992D02*
X203418560Y-75185135D01*
X203418560Y-74956564D02*
X202618560Y-74956564D01*
X202732846Y-75032754D01*
X202809036Y-75108945D01*
X202847132Y-75185135D01*
X202694751Y-74423231D02*
X202656656Y-74385135D01*
X202618560Y-74308945D01*
X202618560Y-74118469D01*
X202656656Y-74042278D01*
X202694751Y-74004183D01*
X202770941Y-73966088D01*
X202847132Y-73966088D01*
X202961417Y-74004183D01*
X203418560Y-74461326D01*
X203418560Y-73966088D01*
X216096412Y-75947040D02*
X215296412Y-75947040D01*
X215296412Y-75756564D01*
X215334508Y-75642278D01*
X215410698Y-75566088D01*
X215486888Y-75527992D01*
X215639269Y-75489897D01*
X215753555Y-75489897D01*
X215905936Y-75527992D01*
X215982127Y-75566088D01*
X216058317Y-75642278D01*
X216096412Y-75756564D01*
X216096412Y-75947040D01*
X216096412Y-74727992D02*
X216096412Y-75185135D01*
X216096412Y-74956564D02*
X215296412Y-74956564D01*
X215410698Y-75032754D01*
X215486888Y-75108945D01*
X215524984Y-75185135D01*
X215296412Y-74461326D02*
X215296412Y-73966088D01*
X215601174Y-74232754D01*
X215601174Y-74118469D01*
X215639269Y-74042278D01*
X215677365Y-74004183D01*
X215753555Y-73966088D01*
X215944031Y-73966088D01*
X216020222Y-74004183D01*
X216058317Y-74042278D01*
X216096412Y-74118469D01*
X216096412Y-74347040D01*
X216058317Y-74423231D01*
X216020222Y-74461326D01*
X228704280Y-75947040D02*
X227904280Y-75947040D01*
X227904280Y-75756564D01*
X227942376Y-75642278D01*
X228018566Y-75566088D01*
X228094756Y-75527992D01*
X228247137Y-75489897D01*
X228361423Y-75489897D01*
X228513804Y-75527992D01*
X228589995Y-75566088D01*
X228666185Y-75642278D01*
X228704280Y-75756564D01*
X228704280Y-75947040D01*
X228704280Y-74727992D02*
X228704280Y-75185135D01*
X228704280Y-74956564D02*
X227904280Y-74956564D01*
X228018566Y-75032754D01*
X228094756Y-75108945D01*
X228132852Y-75185135D01*
X228170947Y-74042278D02*
X228704280Y-74042278D01*
X227866185Y-74232754D02*
X228437614Y-74423231D01*
X228437614Y-73927992D01*
X275903833Y-80907627D02*
X275103833Y-80907627D01*
X275103833Y-80717151D01*
X275141929Y-80602865D01*
X275218119Y-80526675D01*
X275294309Y-80488579D01*
X275446690Y-80450484D01*
X275560976Y-80450484D01*
X275713357Y-80488579D01*
X275789548Y-80526675D01*
X275865738Y-80602865D01*
X275903833Y-80717151D01*
X275903833Y-80907627D01*
X275903833Y-79688579D02*
X275903833Y-80145722D01*
X275903833Y-79917151D02*
X275103833Y-79917151D01*
X275218119Y-79993341D01*
X275294309Y-80069532D01*
X275332405Y-80145722D01*
X275103833Y-78964770D02*
X275103833Y-79345722D01*
X275484786Y-79383818D01*
X275446690Y-79345722D01*
X275408595Y-79269532D01*
X275408595Y-79079056D01*
X275446690Y-79002865D01*
X275484786Y-78964770D01*
X275560976Y-78926675D01*
X275751452Y-78926675D01*
X275827643Y-78964770D01*
X275865738Y-79002865D01*
X275903833Y-79079056D01*
X275903833Y-79269532D01*
X275865738Y-79345722D01*
X275827643Y-79383818D01*
X67131651Y-77600569D02*
X66331651Y-77600569D01*
X66331651Y-77410093D01*
X66369747Y-77295807D01*
X66445937Y-77219617D01*
X66522127Y-77181521D01*
X66674508Y-77143426D01*
X66788794Y-77143426D01*
X66941175Y-77181521D01*
X67017366Y-77219617D01*
X67093556Y-77295807D01*
X67131651Y-77410093D01*
X67131651Y-77600569D01*
X67131651Y-76381521D02*
X67131651Y-76838664D01*
X67131651Y-76610093D02*
X66331651Y-76610093D01*
X66445937Y-76686283D01*
X66522127Y-76762474D01*
X66560223Y-76838664D01*
X66331651Y-75695807D02*
X66331651Y-75848188D01*
X66369747Y-75924379D01*
X66407842Y-75962474D01*
X66522127Y-76038664D01*
X66674508Y-76076760D01*
X66979270Y-76076760D01*
X67055461Y-76038664D01*
X67093556Y-76000569D01*
X67131651Y-75924379D01*
X67131651Y-75771998D01*
X67093556Y-75695807D01*
X67055461Y-75657712D01*
X66979270Y-75619617D01*
X66788794Y-75619617D01*
X66712604Y-75657712D01*
X66674508Y-75695807D01*
X66636413Y-75771998D01*
X66636413Y-75924379D01*
X66674508Y-76000569D01*
X66712604Y-76038664D01*
X66788794Y-76076760D01*
X82978966Y-79254098D02*
X82178966Y-79254098D01*
X82178966Y-79063622D01*
X82217062Y-78949336D01*
X82293252Y-78873146D01*
X82369442Y-78835050D01*
X82521823Y-78796955D01*
X82636109Y-78796955D01*
X82788490Y-78835050D01*
X82864681Y-78873146D01*
X82940871Y-78949336D01*
X82978966Y-79063622D01*
X82978966Y-79254098D01*
X82978966Y-78035050D02*
X82978966Y-78492193D01*
X82978966Y-78263622D02*
X82178966Y-78263622D01*
X82293252Y-78339812D01*
X82369442Y-78416003D01*
X82407538Y-78492193D01*
X82178966Y-77768384D02*
X82178966Y-77235050D01*
X82978966Y-77577908D01*
X92487355Y-77600569D02*
X91687355Y-77600569D01*
X91687355Y-77410093D01*
X91725451Y-77295807D01*
X91801641Y-77219617D01*
X91877831Y-77181521D01*
X92030212Y-77143426D01*
X92144498Y-77143426D01*
X92296879Y-77181521D01*
X92373070Y-77219617D01*
X92449260Y-77295807D01*
X92487355Y-77410093D01*
X92487355Y-77600569D01*
X92487355Y-76381521D02*
X92487355Y-76838664D01*
X92487355Y-76610093D02*
X91687355Y-76610093D01*
X91801641Y-76686283D01*
X91877831Y-76762474D01*
X91915927Y-76838664D01*
X92030212Y-75924379D02*
X91992117Y-76000569D01*
X91954022Y-76038664D01*
X91877831Y-76076760D01*
X91839736Y-76076760D01*
X91763546Y-76038664D01*
X91725451Y-76000569D01*
X91687355Y-75924379D01*
X91687355Y-75771998D01*
X91725451Y-75695807D01*
X91763546Y-75657712D01*
X91839736Y-75619617D01*
X91877831Y-75619617D01*
X91954022Y-75657712D01*
X91992117Y-75695807D01*
X92030212Y-75771998D01*
X92030212Y-75924379D01*
X92068308Y-76000569D01*
X92106403Y-76038664D01*
X92182593Y-76076760D01*
X92334974Y-76076760D01*
X92411165Y-76038664D01*
X92449260Y-76000569D01*
X92487355Y-75924379D01*
X92487355Y-75771998D01*
X92449260Y-75695807D01*
X92411165Y-75657712D01*
X92334974Y-75619617D01*
X92182593Y-75619617D01*
X92106403Y-75657712D01*
X92068308Y-75695807D01*
X92030212Y-75771998D01*
X105165207Y-77600569D02*
X104365207Y-77600569D01*
X104365207Y-77410093D01*
X104403303Y-77295807D01*
X104479493Y-77219617D01*
X104555683Y-77181521D01*
X104708064Y-77143426D01*
X104822350Y-77143426D01*
X104974731Y-77181521D01*
X105050922Y-77219617D01*
X105127112Y-77295807D01*
X105165207Y-77410093D01*
X105165207Y-77600569D01*
X105165207Y-76381521D02*
X105165207Y-76838664D01*
X105165207Y-76610093D02*
X104365207Y-76610093D01*
X104479493Y-76686283D01*
X104555683Y-76762474D01*
X104593779Y-76838664D01*
X105165207Y-76000569D02*
X105165207Y-75848188D01*
X105127112Y-75771998D01*
X105089017Y-75733902D01*
X104974731Y-75657712D01*
X104822350Y-75619617D01*
X104517588Y-75619617D01*
X104441398Y-75657712D01*
X104403303Y-75695807D01*
X104365207Y-75771998D01*
X104365207Y-75924379D01*
X104403303Y-76000569D01*
X104441398Y-76038664D01*
X104517588Y-76076760D01*
X104708064Y-76076760D01*
X104784255Y-76038664D01*
X104822350Y-76000569D01*
X104860445Y-75924379D01*
X104860445Y-75771998D01*
X104822350Y-75695807D01*
X104784255Y-75657712D01*
X104708064Y-75619617D01*
X117843059Y-77600569D02*
X117043059Y-77600569D01*
X117043059Y-77410093D01*
X117081155Y-77295807D01*
X117157345Y-77219617D01*
X117233535Y-77181521D01*
X117385916Y-77143426D01*
X117500202Y-77143426D01*
X117652583Y-77181521D01*
X117728774Y-77219617D01*
X117804964Y-77295807D01*
X117843059Y-77410093D01*
X117843059Y-77600569D01*
X117119250Y-76838664D02*
X117081155Y-76800569D01*
X117043059Y-76724379D01*
X117043059Y-76533902D01*
X117081155Y-76457712D01*
X117119250Y-76419617D01*
X117195440Y-76381521D01*
X117271631Y-76381521D01*
X117385916Y-76419617D01*
X117843059Y-76876760D01*
X117843059Y-76381521D01*
X117043059Y-75886283D02*
X117043059Y-75810093D01*
X117081155Y-75733902D01*
X117119250Y-75695807D01*
X117195440Y-75657712D01*
X117347821Y-75619617D01*
X117538297Y-75619617D01*
X117690678Y-75657712D01*
X117766869Y-75695807D01*
X117804964Y-75733902D01*
X117843059Y-75810093D01*
X117843059Y-75886283D01*
X117804964Y-75962474D01*
X117766869Y-76000569D01*
X117690678Y-76038664D01*
X117538297Y-76076760D01*
X117347821Y-76076760D01*
X117195440Y-76038664D01*
X117119250Y-76000569D01*
X117081155Y-75962474D01*
X117043059Y-75886283D01*
X130520911Y-77600569D02*
X129720911Y-77600569D01*
X129720911Y-77410093D01*
X129759007Y-77295807D01*
X129835197Y-77219617D01*
X129911387Y-77181521D01*
X130063768Y-77143426D01*
X130178054Y-77143426D01*
X130330435Y-77181521D01*
X130406626Y-77219617D01*
X130482816Y-77295807D01*
X130520911Y-77410093D01*
X130520911Y-77600569D01*
X129797102Y-76838664D02*
X129759007Y-76800569D01*
X129720911Y-76724379D01*
X129720911Y-76533902D01*
X129759007Y-76457712D01*
X129797102Y-76419617D01*
X129873292Y-76381521D01*
X129949483Y-76381521D01*
X130063768Y-76419617D01*
X130520911Y-76876760D01*
X130520911Y-76381521D01*
X130520911Y-75619617D02*
X130520911Y-76076760D01*
X130520911Y-75848188D02*
X129720911Y-75848188D01*
X129835197Y-75924379D01*
X129911387Y-76000569D01*
X129949483Y-76076760D01*
X143198763Y-77600569D02*
X142398763Y-77600569D01*
X142398763Y-77410093D01*
X142436859Y-77295807D01*
X142513049Y-77219617D01*
X142589239Y-77181521D01*
X142741620Y-77143426D01*
X142855906Y-77143426D01*
X143008287Y-77181521D01*
X143084478Y-77219617D01*
X143160668Y-77295807D01*
X143198763Y-77410093D01*
X143198763Y-77600569D01*
X142474954Y-76838664D02*
X142436859Y-76800569D01*
X142398763Y-76724379D01*
X142398763Y-76533902D01*
X142436859Y-76457712D01*
X142474954Y-76419617D01*
X142551144Y-76381521D01*
X142627335Y-76381521D01*
X142741620Y-76419617D01*
X143198763Y-76876760D01*
X143198763Y-76381521D01*
X142474954Y-76076760D02*
X142436859Y-76038664D01*
X142398763Y-75962474D01*
X142398763Y-75771998D01*
X142436859Y-75695807D01*
X142474954Y-75657712D01*
X142551144Y-75619617D01*
X142627335Y-75619617D01*
X142741620Y-75657712D01*
X143198763Y-76114855D01*
X143198763Y-75619617D01*
X155876615Y-77600569D02*
X155076615Y-77600569D01*
X155076615Y-77410093D01*
X155114711Y-77295807D01*
X155190901Y-77219617D01*
X155267091Y-77181521D01*
X155419472Y-77143426D01*
X155533758Y-77143426D01*
X155686139Y-77181521D01*
X155762330Y-77219617D01*
X155838520Y-77295807D01*
X155876615Y-77410093D01*
X155876615Y-77600569D01*
X155152806Y-76838664D02*
X155114711Y-76800569D01*
X155076615Y-76724379D01*
X155076615Y-76533902D01*
X155114711Y-76457712D01*
X155152806Y-76419617D01*
X155228996Y-76381521D01*
X155305187Y-76381521D01*
X155419472Y-76419617D01*
X155876615Y-76876760D01*
X155876615Y-76381521D01*
X155076615Y-76114855D02*
X155076615Y-75619617D01*
X155381377Y-75886283D01*
X155381377Y-75771998D01*
X155419472Y-75695807D01*
X155457568Y-75657712D01*
X155533758Y-75619617D01*
X155724234Y-75619617D01*
X155800425Y-75657712D01*
X155838520Y-75695807D01*
X155876615Y-75771998D01*
X155876615Y-76000569D01*
X155838520Y-76076760D01*
X155800425Y-76114855D01*
X168554467Y-77600569D02*
X167754467Y-77600569D01*
X167754467Y-77410093D01*
X167792563Y-77295807D01*
X167868753Y-77219617D01*
X167944943Y-77181521D01*
X168097324Y-77143426D01*
X168211610Y-77143426D01*
X168363991Y-77181521D01*
X168440182Y-77219617D01*
X168516372Y-77295807D01*
X168554467Y-77410093D01*
X168554467Y-77600569D01*
X167830658Y-76838664D02*
X167792563Y-76800569D01*
X167754467Y-76724379D01*
X167754467Y-76533902D01*
X167792563Y-76457712D01*
X167830658Y-76419617D01*
X167906848Y-76381521D01*
X167983039Y-76381521D01*
X168097324Y-76419617D01*
X168554467Y-76876760D01*
X168554467Y-76381521D01*
X168021134Y-75695807D02*
X168554467Y-75695807D01*
X167716372Y-75886283D02*
X168287801Y-76076760D01*
X168287801Y-75581521D01*
X181232319Y-77600569D02*
X180432319Y-77600569D01*
X180432319Y-77410093D01*
X180470415Y-77295807D01*
X180546605Y-77219617D01*
X180622795Y-77181521D01*
X180775176Y-77143426D01*
X180889462Y-77143426D01*
X181041843Y-77181521D01*
X181118034Y-77219617D01*
X181194224Y-77295807D01*
X181232319Y-77410093D01*
X181232319Y-77600569D01*
X180508510Y-76838664D02*
X180470415Y-76800569D01*
X180432319Y-76724379D01*
X180432319Y-76533902D01*
X180470415Y-76457712D01*
X180508510Y-76419617D01*
X180584700Y-76381521D01*
X180660891Y-76381521D01*
X180775176Y-76419617D01*
X181232319Y-76876760D01*
X181232319Y-76381521D01*
X180432319Y-75657712D02*
X180432319Y-76038664D01*
X180813272Y-76076760D01*
X180775176Y-76038664D01*
X180737081Y-75962474D01*
X180737081Y-75771998D01*
X180775176Y-75695807D01*
X180813272Y-75657712D01*
X180889462Y-75619617D01*
X181079938Y-75619617D01*
X181156129Y-75657712D01*
X181194224Y-75695807D01*
X181232319Y-75771998D01*
X181232319Y-75962474D01*
X181194224Y-76038664D01*
X181156129Y-76076760D01*
X193910171Y-77600569D02*
X193110171Y-77600569D01*
X193110171Y-77410093D01*
X193148267Y-77295807D01*
X193224457Y-77219617D01*
X193300647Y-77181521D01*
X193453028Y-77143426D01*
X193567314Y-77143426D01*
X193719695Y-77181521D01*
X193795886Y-77219617D01*
X193872076Y-77295807D01*
X193910171Y-77410093D01*
X193910171Y-77600569D01*
X193186362Y-76838664D02*
X193148267Y-76800569D01*
X193110171Y-76724379D01*
X193110171Y-76533902D01*
X193148267Y-76457712D01*
X193186362Y-76419617D01*
X193262552Y-76381521D01*
X193338743Y-76381521D01*
X193453028Y-76419617D01*
X193910171Y-76876760D01*
X193910171Y-76381521D01*
X193110171Y-75695807D02*
X193110171Y-75848188D01*
X193148267Y-75924379D01*
X193186362Y-75962474D01*
X193300647Y-76038664D01*
X193453028Y-76076760D01*
X193757790Y-76076760D01*
X193833981Y-76038664D01*
X193872076Y-76000569D01*
X193910171Y-75924379D01*
X193910171Y-75771998D01*
X193872076Y-75695807D01*
X193833981Y-75657712D01*
X193757790Y-75619617D01*
X193567314Y-75619617D01*
X193491124Y-75657712D01*
X193453028Y-75695807D01*
X193414933Y-75771998D01*
X193414933Y-75924379D01*
X193453028Y-76000569D01*
X193491124Y-76038664D01*
X193567314Y-76076760D01*
X206588023Y-77600569D02*
X205788023Y-77600569D01*
X205788023Y-77410093D01*
X205826119Y-77295807D01*
X205902309Y-77219617D01*
X205978499Y-77181521D01*
X206130880Y-77143426D01*
X206245166Y-77143426D01*
X206397547Y-77181521D01*
X206473738Y-77219617D01*
X206549928Y-77295807D01*
X206588023Y-77410093D01*
X206588023Y-77600569D01*
X205864214Y-76838664D02*
X205826119Y-76800569D01*
X205788023Y-76724379D01*
X205788023Y-76533902D01*
X205826119Y-76457712D01*
X205864214Y-76419617D01*
X205940404Y-76381521D01*
X206016595Y-76381521D01*
X206130880Y-76419617D01*
X206588023Y-76876760D01*
X206588023Y-76381521D01*
X205788023Y-76114855D02*
X205788023Y-75581521D01*
X206588023Y-75924379D01*
X219248379Y-77600569D02*
X218448379Y-77600569D01*
X218448379Y-77410093D01*
X218486475Y-77295807D01*
X218562665Y-77219617D01*
X218638855Y-77181521D01*
X218791236Y-77143426D01*
X218905522Y-77143426D01*
X219057903Y-77181521D01*
X219134094Y-77219617D01*
X219210284Y-77295807D01*
X219248379Y-77410093D01*
X219248379Y-77600569D01*
X218524570Y-76838664D02*
X218486475Y-76800569D01*
X218448379Y-76724379D01*
X218448379Y-76533902D01*
X218486475Y-76457712D01*
X218524570Y-76419617D01*
X218600760Y-76381521D01*
X218676951Y-76381521D01*
X218791236Y-76419617D01*
X219248379Y-76876760D01*
X219248379Y-76381521D01*
X218791236Y-75924379D02*
X218753141Y-76000569D01*
X218715046Y-76038664D01*
X218638855Y-76076760D01*
X218600760Y-76076760D01*
X218524570Y-76038664D01*
X218486475Y-76000569D01*
X218448379Y-75924379D01*
X218448379Y-75771998D01*
X218486475Y-75695807D01*
X218524570Y-75657712D01*
X218600760Y-75619617D01*
X218638855Y-75619617D01*
X218715046Y-75657712D01*
X218753141Y-75695807D01*
X218791236Y-75771998D01*
X218791236Y-75924379D01*
X218829332Y-76000569D01*
X218867427Y-76038664D01*
X218943617Y-76076760D01*
X219095998Y-76076760D01*
X219172189Y-76038664D01*
X219210284Y-76000569D01*
X219248379Y-75924379D01*
X219248379Y-75771998D01*
X219210284Y-75695807D01*
X219172189Y-75657712D01*
X219095998Y-75619617D01*
X218943617Y-75619617D01*
X218867427Y-75657712D01*
X218829332Y-75695807D01*
X218791236Y-75771998D01*
X231855053Y-77600569D02*
X231055053Y-77600569D01*
X231055053Y-77410093D01*
X231093149Y-77295807D01*
X231169339Y-77219617D01*
X231245529Y-77181521D01*
X231397910Y-77143426D01*
X231512196Y-77143426D01*
X231664577Y-77181521D01*
X231740768Y-77219617D01*
X231816958Y-77295807D01*
X231855053Y-77410093D01*
X231855053Y-77600569D01*
X231131244Y-76838664D02*
X231093149Y-76800569D01*
X231055053Y-76724379D01*
X231055053Y-76533902D01*
X231093149Y-76457712D01*
X231131244Y-76419617D01*
X231207434Y-76381521D01*
X231283625Y-76381521D01*
X231397910Y-76419617D01*
X231855053Y-76876760D01*
X231855053Y-76381521D01*
X231855053Y-76000569D02*
X231855053Y-75848188D01*
X231816958Y-75771998D01*
X231778863Y-75733902D01*
X231664577Y-75657712D01*
X231512196Y-75619617D01*
X231207434Y-75619617D01*
X231131244Y-75657712D01*
X231093149Y-75695807D01*
X231055053Y-75771998D01*
X231055053Y-75924379D01*
X231093149Y-76000569D01*
X231131244Y-76038664D01*
X231207434Y-76076760D01*
X231397910Y-76076760D01*
X231474101Y-76038664D01*
X231512196Y-76000569D01*
X231550291Y-75924379D01*
X231550291Y-75771998D01*
X231512196Y-75695807D01*
X231474101Y-75657712D01*
X231397910Y-75619617D01*
X272815109Y-79254098D02*
X272015109Y-79254098D01*
X272015109Y-79063622D01*
X272053205Y-78949336D01*
X272129395Y-78873146D01*
X272205585Y-78835050D01*
X272357966Y-78796955D01*
X272472252Y-78796955D01*
X272624633Y-78835050D01*
X272700824Y-78873146D01*
X272777014Y-78949336D01*
X272815109Y-79063622D01*
X272815109Y-79254098D01*
X272015109Y-78530289D02*
X272015109Y-78035050D01*
X272319871Y-78301717D01*
X272319871Y-78187431D01*
X272357966Y-78111241D01*
X272396062Y-78073146D01*
X272472252Y-78035050D01*
X272662728Y-78035050D01*
X272738919Y-78073146D01*
X272777014Y-78111241D01*
X272815109Y-78187431D01*
X272815109Y-78416003D01*
X272777014Y-78492193D01*
X272738919Y-78530289D01*
X272015109Y-77539812D02*
X272015109Y-77463622D01*
X272053205Y-77387431D01*
X272091300Y-77349336D01*
X272167490Y-77311241D01*
X272319871Y-77273146D01*
X272510347Y-77273146D01*
X272662728Y-77311241D01*
X272738919Y-77349336D01*
X272777014Y-77387431D01*
X272815109Y-77463622D01*
X272815109Y-77539812D01*
X272777014Y-77616003D01*
X272738919Y-77654098D01*
X272662728Y-77692193D01*
X272510347Y-77730289D01*
X272319871Y-77730289D01*
X272167490Y-77692193D01*
X272091300Y-77654098D01*
X272053205Y-77616003D01*
X272015109Y-77539812D01*
X70301114Y-79254098D02*
X69501114Y-79254098D01*
X69501114Y-79063622D01*
X69539210Y-78949336D01*
X69615400Y-78873146D01*
X69691590Y-78835050D01*
X69843971Y-78796955D01*
X69958257Y-78796955D01*
X70110638Y-78835050D01*
X70186829Y-78873146D01*
X70263019Y-78949336D01*
X70301114Y-79063622D01*
X70301114Y-79254098D01*
X69501114Y-78530289D02*
X69501114Y-78035050D01*
X69805876Y-78301717D01*
X69805876Y-78187431D01*
X69843971Y-78111241D01*
X69882067Y-78073146D01*
X69958257Y-78035050D01*
X70148733Y-78035050D01*
X70224924Y-78073146D01*
X70263019Y-78111241D01*
X70301114Y-78187431D01*
X70301114Y-78416003D01*
X70263019Y-78492193D01*
X70224924Y-78530289D01*
X70301114Y-77273146D02*
X70301114Y-77730289D01*
X70301114Y-77501717D02*
X69501114Y-77501717D01*
X69615400Y-77577908D01*
X69691590Y-77654098D01*
X69729686Y-77730289D01*
X79809503Y-77600569D02*
X79009503Y-77600569D01*
X79009503Y-77410093D01*
X79047599Y-77295807D01*
X79123789Y-77219617D01*
X79199979Y-77181521D01*
X79352360Y-77143426D01*
X79466646Y-77143426D01*
X79619027Y-77181521D01*
X79695218Y-77219617D01*
X79771408Y-77295807D01*
X79809503Y-77410093D01*
X79809503Y-77600569D01*
X79009503Y-76876760D02*
X79009503Y-76381521D01*
X79314265Y-76648188D01*
X79314265Y-76533902D01*
X79352360Y-76457712D01*
X79390456Y-76419617D01*
X79466646Y-76381521D01*
X79657122Y-76381521D01*
X79733313Y-76419617D01*
X79771408Y-76457712D01*
X79809503Y-76533902D01*
X79809503Y-76762474D01*
X79771408Y-76838664D01*
X79733313Y-76876760D01*
X79085694Y-76076760D02*
X79047599Y-76038664D01*
X79009503Y-75962474D01*
X79009503Y-75771998D01*
X79047599Y-75695807D01*
X79085694Y-75657712D01*
X79161884Y-75619617D01*
X79238075Y-75619617D01*
X79352360Y-75657712D01*
X79809503Y-76114855D01*
X79809503Y-75619617D01*
X95656818Y-79254098D02*
X94856818Y-79254098D01*
X94856818Y-79063622D01*
X94894914Y-78949336D01*
X94971104Y-78873146D01*
X95047294Y-78835050D01*
X95199675Y-78796955D01*
X95313961Y-78796955D01*
X95466342Y-78835050D01*
X95542533Y-78873146D01*
X95618723Y-78949336D01*
X95656818Y-79063622D01*
X95656818Y-79254098D01*
X94856818Y-78530289D02*
X94856818Y-78035050D01*
X95161580Y-78301717D01*
X95161580Y-78187431D01*
X95199675Y-78111241D01*
X95237771Y-78073146D01*
X95313961Y-78035050D01*
X95504437Y-78035050D01*
X95580628Y-78073146D01*
X95618723Y-78111241D01*
X95656818Y-78187431D01*
X95656818Y-78416003D01*
X95618723Y-78492193D01*
X95580628Y-78530289D01*
X94856818Y-77768384D02*
X94856818Y-77273146D01*
X95161580Y-77539812D01*
X95161580Y-77425527D01*
X95199675Y-77349336D01*
X95237771Y-77311241D01*
X95313961Y-77273146D01*
X95504437Y-77273146D01*
X95580628Y-77311241D01*
X95618723Y-77349336D01*
X95656818Y-77425527D01*
X95656818Y-77654098D01*
X95618723Y-77730289D01*
X95580628Y-77768384D01*
X108334670Y-79254098D02*
X107534670Y-79254098D01*
X107534670Y-79063622D01*
X107572766Y-78949336D01*
X107648956Y-78873146D01*
X107725146Y-78835050D01*
X107877527Y-78796955D01*
X107991813Y-78796955D01*
X108144194Y-78835050D01*
X108220385Y-78873146D01*
X108296575Y-78949336D01*
X108334670Y-79063622D01*
X108334670Y-79254098D01*
X107534670Y-78530289D02*
X107534670Y-78035050D01*
X107839432Y-78301717D01*
X107839432Y-78187431D01*
X107877527Y-78111241D01*
X107915623Y-78073146D01*
X107991813Y-78035050D01*
X108182289Y-78035050D01*
X108258480Y-78073146D01*
X108296575Y-78111241D01*
X108334670Y-78187431D01*
X108334670Y-78416003D01*
X108296575Y-78492193D01*
X108258480Y-78530289D01*
X107801337Y-77349336D02*
X108334670Y-77349336D01*
X107496575Y-77539812D02*
X108068004Y-77730289D01*
X108068004Y-77235050D01*
X121012522Y-79254098D02*
X120212522Y-79254098D01*
X120212522Y-79063622D01*
X120250618Y-78949336D01*
X120326808Y-78873146D01*
X120402998Y-78835050D01*
X120555379Y-78796955D01*
X120669665Y-78796955D01*
X120822046Y-78835050D01*
X120898237Y-78873146D01*
X120974427Y-78949336D01*
X121012522Y-79063622D01*
X121012522Y-79254098D01*
X120212522Y-78530289D02*
X120212522Y-78035050D01*
X120517284Y-78301717D01*
X120517284Y-78187431D01*
X120555379Y-78111241D01*
X120593475Y-78073146D01*
X120669665Y-78035050D01*
X120860141Y-78035050D01*
X120936332Y-78073146D01*
X120974427Y-78111241D01*
X121012522Y-78187431D01*
X121012522Y-78416003D01*
X120974427Y-78492193D01*
X120936332Y-78530289D01*
X120212522Y-77311241D02*
X120212522Y-77692193D01*
X120593475Y-77730289D01*
X120555379Y-77692193D01*
X120517284Y-77616003D01*
X120517284Y-77425527D01*
X120555379Y-77349336D01*
X120593475Y-77311241D01*
X120669665Y-77273146D01*
X120860141Y-77273146D01*
X120936332Y-77311241D01*
X120974427Y-77349336D01*
X121012522Y-77425527D01*
X121012522Y-77616003D01*
X120974427Y-77692193D01*
X120936332Y-77730289D01*
X133690374Y-79254098D02*
X132890374Y-79254098D01*
X132890374Y-79063622D01*
X132928470Y-78949336D01*
X133004660Y-78873146D01*
X133080850Y-78835050D01*
X133233231Y-78796955D01*
X133347517Y-78796955D01*
X133499898Y-78835050D01*
X133576089Y-78873146D01*
X133652279Y-78949336D01*
X133690374Y-79063622D01*
X133690374Y-79254098D01*
X132890374Y-78530289D02*
X132890374Y-78035050D01*
X133195136Y-78301717D01*
X133195136Y-78187431D01*
X133233231Y-78111241D01*
X133271327Y-78073146D01*
X133347517Y-78035050D01*
X133537993Y-78035050D01*
X133614184Y-78073146D01*
X133652279Y-78111241D01*
X133690374Y-78187431D01*
X133690374Y-78416003D01*
X133652279Y-78492193D01*
X133614184Y-78530289D01*
X132890374Y-77349336D02*
X132890374Y-77501717D01*
X132928470Y-77577908D01*
X132966565Y-77616003D01*
X133080850Y-77692193D01*
X133233231Y-77730289D01*
X133537993Y-77730289D01*
X133614184Y-77692193D01*
X133652279Y-77654098D01*
X133690374Y-77577908D01*
X133690374Y-77425527D01*
X133652279Y-77349336D01*
X133614184Y-77311241D01*
X133537993Y-77273146D01*
X133347517Y-77273146D01*
X133271327Y-77311241D01*
X133233231Y-77349336D01*
X133195136Y-77425527D01*
X133195136Y-77577908D01*
X133233231Y-77654098D01*
X133271327Y-77692193D01*
X133347517Y-77730289D01*
X146368226Y-79254098D02*
X145568226Y-79254098D01*
X145568226Y-79063622D01*
X145606322Y-78949336D01*
X145682512Y-78873146D01*
X145758702Y-78835050D01*
X145911083Y-78796955D01*
X146025369Y-78796955D01*
X146177750Y-78835050D01*
X146253941Y-78873146D01*
X146330131Y-78949336D01*
X146368226Y-79063622D01*
X146368226Y-79254098D01*
X145568226Y-78530289D02*
X145568226Y-78035050D01*
X145872988Y-78301717D01*
X145872988Y-78187431D01*
X145911083Y-78111241D01*
X145949179Y-78073146D01*
X146025369Y-78035050D01*
X146215845Y-78035050D01*
X146292036Y-78073146D01*
X146330131Y-78111241D01*
X146368226Y-78187431D01*
X146368226Y-78416003D01*
X146330131Y-78492193D01*
X146292036Y-78530289D01*
X145568226Y-77768384D02*
X145568226Y-77235050D01*
X146368226Y-77577908D01*
X159046078Y-79254098D02*
X158246078Y-79254098D01*
X158246078Y-79063622D01*
X158284174Y-78949336D01*
X158360364Y-78873146D01*
X158436554Y-78835050D01*
X158588935Y-78796955D01*
X158703221Y-78796955D01*
X158855602Y-78835050D01*
X158931793Y-78873146D01*
X159007983Y-78949336D01*
X159046078Y-79063622D01*
X159046078Y-79254098D01*
X158246078Y-78530289D02*
X158246078Y-78035050D01*
X158550840Y-78301717D01*
X158550840Y-78187431D01*
X158588935Y-78111241D01*
X158627031Y-78073146D01*
X158703221Y-78035050D01*
X158893697Y-78035050D01*
X158969888Y-78073146D01*
X159007983Y-78111241D01*
X159046078Y-78187431D01*
X159046078Y-78416003D01*
X159007983Y-78492193D01*
X158969888Y-78530289D01*
X158588935Y-77577908D02*
X158550840Y-77654098D01*
X158512745Y-77692193D01*
X158436554Y-77730289D01*
X158398459Y-77730289D01*
X158322269Y-77692193D01*
X158284174Y-77654098D01*
X158246078Y-77577908D01*
X158246078Y-77425527D01*
X158284174Y-77349336D01*
X158322269Y-77311241D01*
X158398459Y-77273146D01*
X158436554Y-77273146D01*
X158512745Y-77311241D01*
X158550840Y-77349336D01*
X158588935Y-77425527D01*
X158588935Y-77577908D01*
X158627031Y-77654098D01*
X158665126Y-77692193D01*
X158741316Y-77730289D01*
X158893697Y-77730289D01*
X158969888Y-77692193D01*
X159007983Y-77654098D01*
X159046078Y-77577908D01*
X159046078Y-77425527D01*
X159007983Y-77349336D01*
X158969888Y-77311241D01*
X158893697Y-77273146D01*
X158741316Y-77273146D01*
X158665126Y-77311241D01*
X158627031Y-77349336D01*
X158588935Y-77425527D01*
X171723930Y-79254098D02*
X170923930Y-79254098D01*
X170923930Y-79063622D01*
X170962026Y-78949336D01*
X171038216Y-78873146D01*
X171114406Y-78835050D01*
X171266787Y-78796955D01*
X171381073Y-78796955D01*
X171533454Y-78835050D01*
X171609645Y-78873146D01*
X171685835Y-78949336D01*
X171723930Y-79063622D01*
X171723930Y-79254098D01*
X170923930Y-78530289D02*
X170923930Y-78035050D01*
X171228692Y-78301717D01*
X171228692Y-78187431D01*
X171266787Y-78111241D01*
X171304883Y-78073146D01*
X171381073Y-78035050D01*
X171571549Y-78035050D01*
X171647740Y-78073146D01*
X171685835Y-78111241D01*
X171723930Y-78187431D01*
X171723930Y-78416003D01*
X171685835Y-78492193D01*
X171647740Y-78530289D01*
X171723930Y-77654098D02*
X171723930Y-77501717D01*
X171685835Y-77425527D01*
X171647740Y-77387431D01*
X171533454Y-77311241D01*
X171381073Y-77273146D01*
X171076311Y-77273146D01*
X171000121Y-77311241D01*
X170962026Y-77349336D01*
X170923930Y-77425527D01*
X170923930Y-77577908D01*
X170962026Y-77654098D01*
X171000121Y-77692193D01*
X171076311Y-77730289D01*
X171266787Y-77730289D01*
X171342978Y-77692193D01*
X171381073Y-77654098D01*
X171419168Y-77577908D01*
X171419168Y-77425527D01*
X171381073Y-77349336D01*
X171342978Y-77311241D01*
X171266787Y-77273146D01*
X184401782Y-79254098D02*
X183601782Y-79254098D01*
X183601782Y-79063622D01*
X183639878Y-78949336D01*
X183716068Y-78873146D01*
X183792258Y-78835050D01*
X183944639Y-78796955D01*
X184058925Y-78796955D01*
X184211306Y-78835050D01*
X184287497Y-78873146D01*
X184363687Y-78949336D01*
X184401782Y-79063622D01*
X184401782Y-79254098D01*
X183868449Y-78111241D02*
X184401782Y-78111241D01*
X183563687Y-78301717D02*
X184135116Y-78492193D01*
X184135116Y-77996955D01*
X183601782Y-77539812D02*
X183601782Y-77463622D01*
X183639878Y-77387431D01*
X183677973Y-77349336D01*
X183754163Y-77311241D01*
X183906544Y-77273146D01*
X184097020Y-77273146D01*
X184249401Y-77311241D01*
X184325592Y-77349336D01*
X184363687Y-77387431D01*
X184401782Y-77463622D01*
X184401782Y-77539812D01*
X184363687Y-77616003D01*
X184325592Y-77654098D01*
X184249401Y-77692193D01*
X184097020Y-77730289D01*
X183906544Y-77730289D01*
X183754163Y-77692193D01*
X183677973Y-77654098D01*
X183639878Y-77616003D01*
X183601782Y-77539812D01*
X197079634Y-79254098D02*
X196279634Y-79254098D01*
X196279634Y-79063622D01*
X196317730Y-78949336D01*
X196393920Y-78873146D01*
X196470110Y-78835050D01*
X196622491Y-78796955D01*
X196736777Y-78796955D01*
X196889158Y-78835050D01*
X196965349Y-78873146D01*
X197041539Y-78949336D01*
X197079634Y-79063622D01*
X197079634Y-79254098D01*
X196546301Y-78111241D02*
X197079634Y-78111241D01*
X196241539Y-78301717D02*
X196812968Y-78492193D01*
X196812968Y-77996955D01*
X197079634Y-77273146D02*
X197079634Y-77730289D01*
X197079634Y-77501717D02*
X196279634Y-77501717D01*
X196393920Y-77577908D01*
X196470110Y-77654098D01*
X196508206Y-77730289D01*
X209757486Y-79254098D02*
X208957486Y-79254098D01*
X208957486Y-79063622D01*
X208995582Y-78949336D01*
X209071772Y-78873146D01*
X209147962Y-78835050D01*
X209300343Y-78796955D01*
X209414629Y-78796955D01*
X209567010Y-78835050D01*
X209643201Y-78873146D01*
X209719391Y-78949336D01*
X209757486Y-79063622D01*
X209757486Y-79254098D01*
X209224153Y-78111241D02*
X209757486Y-78111241D01*
X208919391Y-78301717D02*
X209490820Y-78492193D01*
X209490820Y-77996955D01*
X209033677Y-77730289D02*
X208995582Y-77692193D01*
X208957486Y-77616003D01*
X208957486Y-77425527D01*
X208995582Y-77349336D01*
X209033677Y-77311241D01*
X209109867Y-77273146D01*
X209186058Y-77273146D01*
X209300343Y-77311241D01*
X209757486Y-77768384D01*
X209757486Y-77273146D01*
X235005826Y-79254098D02*
X234205826Y-79254098D01*
X234205826Y-79063622D01*
X234243922Y-78949336D01*
X234320112Y-78873146D01*
X234396302Y-78835050D01*
X234548683Y-78796955D01*
X234662969Y-78796955D01*
X234815350Y-78835050D01*
X234891541Y-78873146D01*
X234967731Y-78949336D01*
X235005826Y-79063622D01*
X235005826Y-79254098D01*
X234472493Y-78111241D02*
X235005826Y-78111241D01*
X234167731Y-78301717D02*
X234739160Y-78492193D01*
X234739160Y-77996955D01*
X234205826Y-77768384D02*
X234205826Y-77273146D01*
X234510588Y-77539812D01*
X234510588Y-77425527D01*
X234548683Y-77349336D01*
X234586779Y-77311241D01*
X234662969Y-77273146D01*
X234853445Y-77273146D01*
X234929636Y-77311241D01*
X234967731Y-77349336D01*
X235005826Y-77425527D01*
X235005826Y-77654098D01*
X234967731Y-77730289D01*
X234929636Y-77768384D01*
X269726385Y-77600569D02*
X268926385Y-77600569D01*
X268926385Y-77410093D01*
X268964481Y-77295807D01*
X269040671Y-77219617D01*
X269116861Y-77181521D01*
X269269242Y-77143426D01*
X269383528Y-77143426D01*
X269535909Y-77181521D01*
X269612100Y-77219617D01*
X269688290Y-77295807D01*
X269726385Y-77410093D01*
X269726385Y-77600569D01*
X269193052Y-76457712D02*
X269726385Y-76457712D01*
X268888290Y-76648188D02*
X269459719Y-76838664D01*
X269459719Y-76343426D01*
X269193052Y-75695807D02*
X269726385Y-75695807D01*
X268888290Y-75886283D02*
X269459719Y-76076760D01*
X269459719Y-75581521D01*
X98826281Y-80907627D02*
X98026281Y-80907627D01*
X98026281Y-80717151D01*
X98064377Y-80602865D01*
X98140567Y-80526675D01*
X98216757Y-80488579D01*
X98369138Y-80450484D01*
X98483424Y-80450484D01*
X98635805Y-80488579D01*
X98711996Y-80526675D01*
X98788186Y-80602865D01*
X98826281Y-80717151D01*
X98826281Y-80907627D01*
X98292948Y-79764770D02*
X98826281Y-79764770D01*
X97988186Y-79955246D02*
X98559615Y-80145722D01*
X98559615Y-79650484D01*
X98026281Y-79002865D02*
X98026281Y-79155246D01*
X98064377Y-79231437D01*
X98102472Y-79269532D01*
X98216757Y-79345722D01*
X98369138Y-79383818D01*
X98673900Y-79383818D01*
X98750091Y-79345722D01*
X98788186Y-79307627D01*
X98826281Y-79231437D01*
X98826281Y-79079056D01*
X98788186Y-79002865D01*
X98750091Y-78964770D01*
X98673900Y-78926675D01*
X98483424Y-78926675D01*
X98407234Y-78964770D01*
X98369138Y-79002865D01*
X98331043Y-79079056D01*
X98331043Y-79231437D01*
X98369138Y-79307627D01*
X98407234Y-79345722D01*
X98483424Y-79383818D01*
X111504133Y-80907627D02*
X110704133Y-80907627D01*
X110704133Y-80717151D01*
X110742229Y-80602865D01*
X110818419Y-80526675D01*
X110894609Y-80488579D01*
X111046990Y-80450484D01*
X111161276Y-80450484D01*
X111313657Y-80488579D01*
X111389848Y-80526675D01*
X111466038Y-80602865D01*
X111504133Y-80717151D01*
X111504133Y-80907627D01*
X110970800Y-79764770D02*
X111504133Y-79764770D01*
X110666038Y-79955246D02*
X111237467Y-80145722D01*
X111237467Y-79650484D01*
X110704133Y-79421913D02*
X110704133Y-78888579D01*
X111504133Y-79231437D01*
X124181985Y-80907627D02*
X123381985Y-80907627D01*
X123381985Y-80717151D01*
X123420081Y-80602865D01*
X123496271Y-80526675D01*
X123572461Y-80488579D01*
X123724842Y-80450484D01*
X123839128Y-80450484D01*
X123991509Y-80488579D01*
X124067700Y-80526675D01*
X124143890Y-80602865D01*
X124181985Y-80717151D01*
X124181985Y-80907627D01*
X123648652Y-79764770D02*
X124181985Y-79764770D01*
X123343890Y-79955246D02*
X123915319Y-80145722D01*
X123915319Y-79650484D01*
X123724842Y-79231437D02*
X123686747Y-79307627D01*
X123648652Y-79345722D01*
X123572461Y-79383818D01*
X123534366Y-79383818D01*
X123458176Y-79345722D01*
X123420081Y-79307627D01*
X123381985Y-79231437D01*
X123381985Y-79079056D01*
X123420081Y-79002865D01*
X123458176Y-78964770D01*
X123534366Y-78926675D01*
X123572461Y-78926675D01*
X123648652Y-78964770D01*
X123686747Y-79002865D01*
X123724842Y-79079056D01*
X123724842Y-79231437D01*
X123762938Y-79307627D01*
X123801033Y-79345722D01*
X123877223Y-79383818D01*
X124029604Y-79383818D01*
X124105795Y-79345722D01*
X124143890Y-79307627D01*
X124181985Y-79231437D01*
X124181985Y-79079056D01*
X124143890Y-79002865D01*
X124105795Y-78964770D01*
X124029604Y-78926675D01*
X123877223Y-78926675D01*
X123801033Y-78964770D01*
X123762938Y-79002865D01*
X123724842Y-79079056D01*
X136859837Y-80907627D02*
X136059837Y-80907627D01*
X136059837Y-80717151D01*
X136097933Y-80602865D01*
X136174123Y-80526675D01*
X136250313Y-80488579D01*
X136402694Y-80450484D01*
X136516980Y-80450484D01*
X136669361Y-80488579D01*
X136745552Y-80526675D01*
X136821742Y-80602865D01*
X136859837Y-80717151D01*
X136859837Y-80907627D01*
X136326504Y-79764770D02*
X136859837Y-79764770D01*
X136021742Y-79955246D02*
X136593171Y-80145722D01*
X136593171Y-79650484D01*
X136859837Y-79307627D02*
X136859837Y-79155246D01*
X136821742Y-79079056D01*
X136783647Y-79040960D01*
X136669361Y-78964770D01*
X136516980Y-78926675D01*
X136212218Y-78926675D01*
X136136028Y-78964770D01*
X136097933Y-79002865D01*
X136059837Y-79079056D01*
X136059837Y-79231437D01*
X136097933Y-79307627D01*
X136136028Y-79345722D01*
X136212218Y-79383818D01*
X136402694Y-79383818D01*
X136478885Y-79345722D01*
X136516980Y-79307627D01*
X136555075Y-79231437D01*
X136555075Y-79079056D01*
X136516980Y-79002865D01*
X136478885Y-78964770D01*
X136402694Y-78926675D01*
X149537689Y-80907627D02*
X148737689Y-80907627D01*
X148737689Y-80717151D01*
X148775785Y-80602865D01*
X148851975Y-80526675D01*
X148928165Y-80488579D01*
X149080546Y-80450484D01*
X149194832Y-80450484D01*
X149347213Y-80488579D01*
X149423404Y-80526675D01*
X149499594Y-80602865D01*
X149537689Y-80717151D01*
X149537689Y-80907627D01*
X148737689Y-79726675D02*
X148737689Y-80107627D01*
X149118642Y-80145722D01*
X149080546Y-80107627D01*
X149042451Y-80031437D01*
X149042451Y-79840960D01*
X149080546Y-79764770D01*
X149118642Y-79726675D01*
X149194832Y-79688579D01*
X149385308Y-79688579D01*
X149461499Y-79726675D01*
X149499594Y-79764770D01*
X149537689Y-79840960D01*
X149537689Y-80031437D01*
X149499594Y-80107627D01*
X149461499Y-80145722D01*
X148737689Y-79193341D02*
X148737689Y-79117151D01*
X148775785Y-79040960D01*
X148813880Y-79002865D01*
X148890070Y-78964770D01*
X149042451Y-78926675D01*
X149232927Y-78926675D01*
X149385308Y-78964770D01*
X149461499Y-79002865D01*
X149499594Y-79040960D01*
X149537689Y-79117151D01*
X149537689Y-79193341D01*
X149499594Y-79269532D01*
X149461499Y-79307627D01*
X149385308Y-79345722D01*
X149232927Y-79383818D01*
X149042451Y-79383818D01*
X148890070Y-79345722D01*
X148813880Y-79307627D01*
X148775785Y-79269532D01*
X148737689Y-79193341D01*
X162215541Y-80907627D02*
X161415541Y-80907627D01*
X161415541Y-80717151D01*
X161453637Y-80602865D01*
X161529827Y-80526675D01*
X161606017Y-80488579D01*
X161758398Y-80450484D01*
X161872684Y-80450484D01*
X162025065Y-80488579D01*
X162101256Y-80526675D01*
X162177446Y-80602865D01*
X162215541Y-80717151D01*
X162215541Y-80907627D01*
X161415541Y-79726675D02*
X161415541Y-80107627D01*
X161796494Y-80145722D01*
X161758398Y-80107627D01*
X161720303Y-80031437D01*
X161720303Y-79840960D01*
X161758398Y-79764770D01*
X161796494Y-79726675D01*
X161872684Y-79688579D01*
X162063160Y-79688579D01*
X162139351Y-79726675D01*
X162177446Y-79764770D01*
X162215541Y-79840960D01*
X162215541Y-80031437D01*
X162177446Y-80107627D01*
X162139351Y-80145722D01*
X162215541Y-78926675D02*
X162215541Y-79383818D01*
X162215541Y-79155246D02*
X161415541Y-79155246D01*
X161529827Y-79231437D01*
X161606017Y-79307627D01*
X161644113Y-79383818D01*
X174893393Y-80907627D02*
X174093393Y-80907627D01*
X174093393Y-80717151D01*
X174131489Y-80602865D01*
X174207679Y-80526675D01*
X174283869Y-80488579D01*
X174436250Y-80450484D01*
X174550536Y-80450484D01*
X174702917Y-80488579D01*
X174779108Y-80526675D01*
X174855298Y-80602865D01*
X174893393Y-80717151D01*
X174893393Y-80907627D01*
X174093393Y-79726675D02*
X174093393Y-80107627D01*
X174474346Y-80145722D01*
X174436250Y-80107627D01*
X174398155Y-80031437D01*
X174398155Y-79840960D01*
X174436250Y-79764770D01*
X174474346Y-79726675D01*
X174550536Y-79688579D01*
X174741012Y-79688579D01*
X174817203Y-79726675D01*
X174855298Y-79764770D01*
X174893393Y-79840960D01*
X174893393Y-80031437D01*
X174855298Y-80107627D01*
X174817203Y-80145722D01*
X174169584Y-79383818D02*
X174131489Y-79345722D01*
X174093393Y-79269532D01*
X174093393Y-79079056D01*
X174131489Y-79002865D01*
X174169584Y-78964770D01*
X174245774Y-78926675D01*
X174321965Y-78926675D01*
X174436250Y-78964770D01*
X174893393Y-79421913D01*
X174893393Y-78926675D01*
X187571245Y-80907627D02*
X186771245Y-80907627D01*
X186771245Y-80717151D01*
X186809341Y-80602865D01*
X186885531Y-80526675D01*
X186961721Y-80488579D01*
X187114102Y-80450484D01*
X187228388Y-80450484D01*
X187380769Y-80488579D01*
X187456960Y-80526675D01*
X187533150Y-80602865D01*
X187571245Y-80717151D01*
X187571245Y-80907627D01*
X186771245Y-79726675D02*
X186771245Y-80107627D01*
X187152198Y-80145722D01*
X187114102Y-80107627D01*
X187076007Y-80031437D01*
X187076007Y-79840960D01*
X187114102Y-79764770D01*
X187152198Y-79726675D01*
X187228388Y-79688579D01*
X187418864Y-79688579D01*
X187495055Y-79726675D01*
X187533150Y-79764770D01*
X187571245Y-79840960D01*
X187571245Y-80031437D01*
X187533150Y-80107627D01*
X187495055Y-80145722D01*
X186771245Y-79421913D02*
X186771245Y-78926675D01*
X187076007Y-79193341D01*
X187076007Y-79079056D01*
X187114102Y-79002865D01*
X187152198Y-78964770D01*
X187228388Y-78926675D01*
X187418864Y-78926675D01*
X187495055Y-78964770D01*
X187533150Y-79002865D01*
X187571245Y-79079056D01*
X187571245Y-79307627D01*
X187533150Y-79383818D01*
X187495055Y-79421913D01*
X200249097Y-80907627D02*
X199449097Y-80907627D01*
X199449097Y-80717151D01*
X199487193Y-80602865D01*
X199563383Y-80526675D01*
X199639573Y-80488579D01*
X199791954Y-80450484D01*
X199906240Y-80450484D01*
X200058621Y-80488579D01*
X200134812Y-80526675D01*
X200211002Y-80602865D01*
X200249097Y-80717151D01*
X200249097Y-80907627D01*
X199449097Y-79726675D02*
X199449097Y-80107627D01*
X199830050Y-80145722D01*
X199791954Y-80107627D01*
X199753859Y-80031437D01*
X199753859Y-79840960D01*
X199791954Y-79764770D01*
X199830050Y-79726675D01*
X199906240Y-79688579D01*
X200096716Y-79688579D01*
X200172907Y-79726675D01*
X200211002Y-79764770D01*
X200249097Y-79840960D01*
X200249097Y-80031437D01*
X200211002Y-80107627D01*
X200172907Y-80145722D01*
X199715764Y-79002865D02*
X200249097Y-79002865D01*
X199411002Y-79193341D02*
X199982431Y-79383818D01*
X199982431Y-78888579D01*
X212926949Y-80907627D02*
X212126949Y-80907627D01*
X212126949Y-80717151D01*
X212165045Y-80602865D01*
X212241235Y-80526675D01*
X212317425Y-80488579D01*
X212469806Y-80450484D01*
X212584092Y-80450484D01*
X212736473Y-80488579D01*
X212812664Y-80526675D01*
X212888854Y-80602865D01*
X212926949Y-80717151D01*
X212926949Y-80907627D01*
X212126949Y-79726675D02*
X212126949Y-80107627D01*
X212507902Y-80145722D01*
X212469806Y-80107627D01*
X212431711Y-80031437D01*
X212431711Y-79840960D01*
X212469806Y-79764770D01*
X212507902Y-79726675D01*
X212584092Y-79688579D01*
X212774568Y-79688579D01*
X212850759Y-79726675D01*
X212888854Y-79764770D01*
X212926949Y-79840960D01*
X212926949Y-80031437D01*
X212888854Y-80107627D01*
X212850759Y-80145722D01*
X212126949Y-78964770D02*
X212126949Y-79345722D01*
X212507902Y-79383818D01*
X212469806Y-79345722D01*
X212431711Y-79269532D01*
X212431711Y-79079056D01*
X212469806Y-79002865D01*
X212507902Y-78964770D01*
X212584092Y-78926675D01*
X212774568Y-78926675D01*
X212850759Y-78964770D01*
X212888854Y-79002865D01*
X212926949Y-79079056D01*
X212926949Y-79269532D01*
X212888854Y-79345722D01*
X212850759Y-79383818D01*
X222400346Y-79254098D02*
X221600346Y-79254098D01*
X221600346Y-79063622D01*
X221638442Y-78949336D01*
X221714632Y-78873146D01*
X221790822Y-78835050D01*
X221943203Y-78796955D01*
X222057489Y-78796955D01*
X222209870Y-78835050D01*
X222286061Y-78873146D01*
X222362251Y-78949336D01*
X222400346Y-79063622D01*
X222400346Y-79254098D01*
X221600346Y-78073146D02*
X221600346Y-78454098D01*
X221981299Y-78492193D01*
X221943203Y-78454098D01*
X221905108Y-78377908D01*
X221905108Y-78187431D01*
X221943203Y-78111241D01*
X221981299Y-78073146D01*
X222057489Y-78035050D01*
X222247965Y-78035050D01*
X222324156Y-78073146D01*
X222362251Y-78111241D01*
X222400346Y-78187431D01*
X222400346Y-78377908D01*
X222362251Y-78454098D01*
X222324156Y-78492193D01*
X221600346Y-77349336D02*
X221600346Y-77501717D01*
X221638442Y-77577908D01*
X221676537Y-77616003D01*
X221790822Y-77692193D01*
X221943203Y-77730289D01*
X222247965Y-77730289D01*
X222324156Y-77692193D01*
X222362251Y-77654098D01*
X222400346Y-77577908D01*
X222400346Y-77425527D01*
X222362251Y-77349336D01*
X222324156Y-77311241D01*
X222247965Y-77273146D01*
X222057489Y-77273146D01*
X221981299Y-77311241D01*
X221943203Y-77349336D01*
X221905108Y-77425527D01*
X221905108Y-77577908D01*
X221943203Y-77654098D01*
X221981299Y-77692193D01*
X222057489Y-77730289D01*
X238156599Y-80907627D02*
X237356599Y-80907627D01*
X237356599Y-80717151D01*
X237394695Y-80602865D01*
X237470885Y-80526675D01*
X237547075Y-80488579D01*
X237699456Y-80450484D01*
X237813742Y-80450484D01*
X237966123Y-80488579D01*
X238042314Y-80526675D01*
X238118504Y-80602865D01*
X238156599Y-80717151D01*
X238156599Y-80907627D01*
X237356599Y-79726675D02*
X237356599Y-80107627D01*
X237737552Y-80145722D01*
X237699456Y-80107627D01*
X237661361Y-80031437D01*
X237661361Y-79840960D01*
X237699456Y-79764770D01*
X237737552Y-79726675D01*
X237813742Y-79688579D01*
X238004218Y-79688579D01*
X238080409Y-79726675D01*
X238118504Y-79764770D01*
X238156599Y-79840960D01*
X238156599Y-80031437D01*
X238118504Y-80107627D01*
X238080409Y-80145722D01*
X237356599Y-79421913D02*
X237356599Y-78888579D01*
X238156599Y-79231437D01*
X266451510Y-75947040D02*
X265651510Y-75947040D01*
X265651510Y-75756564D01*
X265689606Y-75642278D01*
X265765796Y-75566088D01*
X265841986Y-75527992D01*
X265994367Y-75489897D01*
X266108653Y-75489897D01*
X266261034Y-75527992D01*
X266337225Y-75566088D01*
X266413415Y-75642278D01*
X266451510Y-75756564D01*
X266451510Y-75947040D01*
X265651510Y-74766088D02*
X265651510Y-75147040D01*
X266032463Y-75185135D01*
X265994367Y-75147040D01*
X265956272Y-75070850D01*
X265956272Y-74880373D01*
X265994367Y-74804183D01*
X266032463Y-74766088D01*
X266108653Y-74727992D01*
X266299129Y-74727992D01*
X266375320Y-74766088D01*
X266413415Y-74804183D01*
X266451510Y-74880373D01*
X266451510Y-75070850D01*
X266413415Y-75147040D01*
X266375320Y-75185135D01*
X265994367Y-74270850D02*
X265956272Y-74347040D01*
X265918177Y-74385135D01*
X265841986Y-74423231D01*
X265803891Y-74423231D01*
X265727701Y-74385135D01*
X265689606Y-74347040D01*
X265651510Y-74270850D01*
X265651510Y-74118469D01*
X265689606Y-74042278D01*
X265727701Y-74004183D01*
X265803891Y-73966088D01*
X265841986Y-73966088D01*
X265918177Y-74004183D01*
X265956272Y-74042278D01*
X265994367Y-74118469D01*
X265994367Y-74270850D01*
X266032463Y-74347040D01*
X266070558Y-74385135D01*
X266146748Y-74423231D01*
X266299129Y-74423231D01*
X266375320Y-74385135D01*
X266413415Y-74347040D01*
X266451510Y-74270850D01*
X266451510Y-74118469D01*
X266413415Y-74042278D01*
X266375320Y-74004183D01*
X266299129Y-73966088D01*
X266146748Y-73966088D01*
X266070558Y-74004183D01*
X266032463Y-74042278D01*
X265994367Y-74118469D01*
X260149962Y-79254098D02*
X259349962Y-79254098D01*
X259349962Y-79063622D01*
X259388058Y-78949336D01*
X259464248Y-78873146D01*
X259540438Y-78835050D01*
X259692819Y-78796955D01*
X259807105Y-78796955D01*
X259959486Y-78835050D01*
X260035677Y-78873146D01*
X260111867Y-78949336D01*
X260149962Y-79063622D01*
X260149962Y-79254098D01*
X259349962Y-78073146D02*
X259349962Y-78454098D01*
X259730915Y-78492193D01*
X259692819Y-78454098D01*
X259654724Y-78377908D01*
X259654724Y-78187431D01*
X259692819Y-78111241D01*
X259730915Y-78073146D01*
X259807105Y-78035050D01*
X259997581Y-78035050D01*
X260073772Y-78073146D01*
X260111867Y-78111241D01*
X260149962Y-78187431D01*
X260149962Y-78377908D01*
X260111867Y-78454098D01*
X260073772Y-78492193D01*
X260149962Y-77654098D02*
X260149962Y-77501717D01*
X260111867Y-77425527D01*
X260073772Y-77387431D01*
X259959486Y-77311241D01*
X259807105Y-77273146D01*
X259502343Y-77273146D01*
X259426153Y-77311241D01*
X259388058Y-77349336D01*
X259349962Y-77425527D01*
X259349962Y-77577908D01*
X259388058Y-77654098D01*
X259426153Y-77692193D01*
X259502343Y-77730289D01*
X259692819Y-77730289D01*
X259769010Y-77692193D01*
X259807105Y-77654098D01*
X259845200Y-77577908D01*
X259845200Y-77425527D01*
X259807105Y-77349336D01*
X259769010Y-77311241D01*
X259692819Y-77273146D01*
X76640040Y-75947040D02*
X75840040Y-75947040D01*
X75840040Y-75756564D01*
X75878136Y-75642278D01*
X75954326Y-75566088D01*
X76030516Y-75527992D01*
X76182897Y-75489897D01*
X76297183Y-75489897D01*
X76449564Y-75527992D01*
X76525755Y-75566088D01*
X76601945Y-75642278D01*
X76640040Y-75756564D01*
X76640040Y-75947040D01*
X75840040Y-74804183D02*
X75840040Y-74956564D01*
X75878136Y-75032754D01*
X75916231Y-75070850D01*
X76030516Y-75147040D01*
X76182897Y-75185135D01*
X76487659Y-75185135D01*
X76563850Y-75147040D01*
X76601945Y-75108945D01*
X76640040Y-75032754D01*
X76640040Y-74880373D01*
X76601945Y-74804183D01*
X76563850Y-74766088D01*
X76487659Y-74727992D01*
X76297183Y-74727992D01*
X76220993Y-74766088D01*
X76182897Y-74804183D01*
X76144802Y-74880373D01*
X76144802Y-75032754D01*
X76182897Y-75108945D01*
X76220993Y-75147040D01*
X76297183Y-75185135D01*
X75840040Y-74232754D02*
X75840040Y-74156564D01*
X75878136Y-74080373D01*
X75916231Y-74042278D01*
X75992421Y-74004183D01*
X76144802Y-73966088D01*
X76335278Y-73966088D01*
X76487659Y-74004183D01*
X76563850Y-74042278D01*
X76601945Y-74080373D01*
X76640040Y-74156564D01*
X76640040Y-74232754D01*
X76601945Y-74308945D01*
X76563850Y-74347040D01*
X76487659Y-74385135D01*
X76335278Y-74423231D01*
X76144802Y-74423231D01*
X75992421Y-74385135D01*
X75916231Y-74347040D01*
X75878136Y-74308945D01*
X75840040Y-74232754D01*
X256999188Y-77600569D02*
X256199188Y-77600569D01*
X256199188Y-77410093D01*
X256237284Y-77295807D01*
X256313474Y-77219617D01*
X256389664Y-77181521D01*
X256542045Y-77143426D01*
X256656331Y-77143426D01*
X256808712Y-77181521D01*
X256884903Y-77219617D01*
X256961093Y-77295807D01*
X256999188Y-77410093D01*
X256999188Y-77600569D01*
X256199188Y-76457712D02*
X256199188Y-76610093D01*
X256237284Y-76686283D01*
X256275379Y-76724379D01*
X256389664Y-76800569D01*
X256542045Y-76838664D01*
X256846807Y-76838664D01*
X256922998Y-76800569D01*
X256961093Y-76762474D01*
X256999188Y-76686283D01*
X256999188Y-76533902D01*
X256961093Y-76457712D01*
X256922998Y-76419617D01*
X256846807Y-76381521D01*
X256656331Y-76381521D01*
X256580141Y-76419617D01*
X256542045Y-76457712D01*
X256503950Y-76533902D01*
X256503950Y-76686283D01*
X256542045Y-76762474D01*
X256580141Y-76800569D01*
X256656331Y-76838664D01*
X256999188Y-75619617D02*
X256999188Y-76076760D01*
X256999188Y-75848188D02*
X256199188Y-75848188D01*
X256313474Y-75924379D01*
X256389664Y-76000569D01*
X256427760Y-76076760D01*
X253848415Y-75947040D02*
X253048415Y-75947040D01*
X253048415Y-75756564D01*
X253086511Y-75642278D01*
X253162701Y-75566088D01*
X253238891Y-75527992D01*
X253391272Y-75489897D01*
X253505558Y-75489897D01*
X253657939Y-75527992D01*
X253734130Y-75566088D01*
X253810320Y-75642278D01*
X253848415Y-75756564D01*
X253848415Y-75947040D01*
X253048415Y-74804183D02*
X253048415Y-74956564D01*
X253086511Y-75032754D01*
X253124606Y-75070850D01*
X253238891Y-75147040D01*
X253391272Y-75185135D01*
X253696034Y-75185135D01*
X253772225Y-75147040D01*
X253810320Y-75108945D01*
X253848415Y-75032754D01*
X253848415Y-74880373D01*
X253810320Y-74804183D01*
X253772225Y-74766088D01*
X253696034Y-74727992D01*
X253505558Y-74727992D01*
X253429368Y-74766088D01*
X253391272Y-74804183D01*
X253353177Y-74880373D01*
X253353177Y-75032754D01*
X253391272Y-75108945D01*
X253429368Y-75147040D01*
X253505558Y-75185135D01*
X253124606Y-74423231D02*
X253086511Y-74385135D01*
X253048415Y-74308945D01*
X253048415Y-74118469D01*
X253086511Y-74042278D01*
X253124606Y-74004183D01*
X253200796Y-73966088D01*
X253276987Y-73966088D01*
X253391272Y-74004183D01*
X253848415Y-74461326D01*
X253848415Y-73966088D01*
X250697642Y-80907627D02*
X249897642Y-80907627D01*
X249897642Y-80717151D01*
X249935738Y-80602865D01*
X250011928Y-80526675D01*
X250088118Y-80488579D01*
X250240499Y-80450484D01*
X250354785Y-80450484D01*
X250507166Y-80488579D01*
X250583357Y-80526675D01*
X250659547Y-80602865D01*
X250697642Y-80717151D01*
X250697642Y-80907627D01*
X249897642Y-79764770D02*
X249897642Y-79917151D01*
X249935738Y-79993341D01*
X249973833Y-80031437D01*
X250088118Y-80107627D01*
X250240499Y-80145722D01*
X250545261Y-80145722D01*
X250621452Y-80107627D01*
X250659547Y-80069532D01*
X250697642Y-79993341D01*
X250697642Y-79840960D01*
X250659547Y-79764770D01*
X250621452Y-79726675D01*
X250545261Y-79688579D01*
X250354785Y-79688579D01*
X250278595Y-79726675D01*
X250240499Y-79764770D01*
X250202404Y-79840960D01*
X250202404Y-79993341D01*
X250240499Y-80069532D01*
X250278595Y-80107627D01*
X250354785Y-80145722D01*
X249897642Y-79421913D02*
X249897642Y-78926675D01*
X250202404Y-79193341D01*
X250202404Y-79079056D01*
X250240499Y-79002865D01*
X250278595Y-78964770D01*
X250354785Y-78926675D01*
X250545261Y-78926675D01*
X250621452Y-78964770D01*
X250659547Y-79002865D01*
X250697642Y-79079056D01*
X250697642Y-79307627D01*
X250659547Y-79383818D01*
X250621452Y-79421913D01*
X225552313Y-80907627D02*
X224752313Y-80907627D01*
X224752313Y-80717151D01*
X224790409Y-80602865D01*
X224866599Y-80526675D01*
X224942789Y-80488579D01*
X225095170Y-80450484D01*
X225209456Y-80450484D01*
X225361837Y-80488579D01*
X225438028Y-80526675D01*
X225514218Y-80602865D01*
X225552313Y-80717151D01*
X225552313Y-80907627D01*
X224752313Y-79764770D02*
X224752313Y-79917151D01*
X224790409Y-79993341D01*
X224828504Y-80031437D01*
X224942789Y-80107627D01*
X225095170Y-80145722D01*
X225399932Y-80145722D01*
X225476123Y-80107627D01*
X225514218Y-80069532D01*
X225552313Y-79993341D01*
X225552313Y-79840960D01*
X225514218Y-79764770D01*
X225476123Y-79726675D01*
X225399932Y-79688579D01*
X225209456Y-79688579D01*
X225133266Y-79726675D01*
X225095170Y-79764770D01*
X225057075Y-79840960D01*
X225057075Y-79993341D01*
X225095170Y-80069532D01*
X225133266Y-80107627D01*
X225209456Y-80145722D01*
X225018980Y-79002865D02*
X225552313Y-79002865D01*
X224714218Y-79193341D02*
X225285647Y-79383818D01*
X225285647Y-78888579D01*
X244458145Y-77600569D02*
X243658145Y-77600569D01*
X243658145Y-77410093D01*
X243696241Y-77295807D01*
X243772431Y-77219617D01*
X243848621Y-77181521D01*
X244001002Y-77143426D01*
X244115288Y-77143426D01*
X244267669Y-77181521D01*
X244343860Y-77219617D01*
X244420050Y-77295807D01*
X244458145Y-77410093D01*
X244458145Y-77600569D01*
X243658145Y-76457712D02*
X243658145Y-76610093D01*
X243696241Y-76686283D01*
X243734336Y-76724379D01*
X243848621Y-76800569D01*
X244001002Y-76838664D01*
X244305764Y-76838664D01*
X244381955Y-76800569D01*
X244420050Y-76762474D01*
X244458145Y-76686283D01*
X244458145Y-76533902D01*
X244420050Y-76457712D01*
X244381955Y-76419617D01*
X244305764Y-76381521D01*
X244115288Y-76381521D01*
X244039098Y-76419617D01*
X244001002Y-76457712D01*
X243962907Y-76533902D01*
X243962907Y-76686283D01*
X244001002Y-76762474D01*
X244039098Y-76800569D01*
X244115288Y-76838664D01*
X243658145Y-75657712D02*
X243658145Y-76038664D01*
X244039098Y-76076760D01*
X244001002Y-76038664D01*
X243962907Y-75962474D01*
X243962907Y-75771998D01*
X244001002Y-75695807D01*
X244039098Y-75657712D01*
X244115288Y-75619617D01*
X244305764Y-75619617D01*
X244381955Y-75657712D01*
X244420050Y-75695807D01*
X244458145Y-75771998D01*
X244458145Y-75962474D01*
X244420050Y-76038664D01*
X244381955Y-76076760D01*
X241307372Y-75947040D02*
X240507372Y-75947040D01*
X240507372Y-75756564D01*
X240545468Y-75642278D01*
X240621658Y-75566088D01*
X240697848Y-75527992D01*
X240850229Y-75489897D01*
X240964515Y-75489897D01*
X241116896Y-75527992D01*
X241193087Y-75566088D01*
X241269277Y-75642278D01*
X241307372Y-75756564D01*
X241307372Y-75947040D01*
X240507372Y-74804183D02*
X240507372Y-74956564D01*
X240545468Y-75032754D01*
X240583563Y-75070850D01*
X240697848Y-75147040D01*
X240850229Y-75185135D01*
X241154991Y-75185135D01*
X241231182Y-75147040D01*
X241269277Y-75108945D01*
X241307372Y-75032754D01*
X241307372Y-74880373D01*
X241269277Y-74804183D01*
X241231182Y-74766088D01*
X241154991Y-74727992D01*
X240964515Y-74727992D01*
X240888325Y-74766088D01*
X240850229Y-74804183D01*
X240812134Y-74880373D01*
X240812134Y-75032754D01*
X240850229Y-75108945D01*
X240888325Y-75147040D01*
X240964515Y-75185135D01*
X240507372Y-74042278D02*
X240507372Y-74194659D01*
X240545468Y-74270850D01*
X240583563Y-74308945D01*
X240697848Y-74385135D01*
X240850229Y-74423231D01*
X241154991Y-74423231D01*
X241231182Y-74385135D01*
X241269277Y-74347040D01*
X241307372Y-74270850D01*
X241307372Y-74118469D01*
X241269277Y-74042278D01*
X241231182Y-74004183D01*
X241154991Y-73966088D01*
X240964515Y-73966088D01*
X240888325Y-74004183D01*
X240850229Y-74042278D01*
X240812134Y-74118469D01*
X240812134Y-74270850D01*
X240850229Y-74347040D01*
X240888325Y-74385135D01*
X240964515Y-74423231D01*
X263300736Y-80907627D02*
X262500736Y-80907627D01*
X262500736Y-80717151D01*
X262538832Y-80602865D01*
X262615022Y-80526675D01*
X262691212Y-80488579D01*
X262843593Y-80450484D01*
X262957879Y-80450484D01*
X263110260Y-80488579D01*
X263186451Y-80526675D01*
X263262641Y-80602865D01*
X263300736Y-80717151D01*
X263300736Y-80907627D01*
X262500736Y-79764770D02*
X262500736Y-79917151D01*
X262538832Y-79993341D01*
X262576927Y-80031437D01*
X262691212Y-80107627D01*
X262843593Y-80145722D01*
X263148355Y-80145722D01*
X263224546Y-80107627D01*
X263262641Y-80069532D01*
X263300736Y-79993341D01*
X263300736Y-79840960D01*
X263262641Y-79764770D01*
X263224546Y-79726675D01*
X263148355Y-79688579D01*
X262957879Y-79688579D01*
X262881689Y-79726675D01*
X262843593Y-79764770D01*
X262805498Y-79840960D01*
X262805498Y-79993341D01*
X262843593Y-80069532D01*
X262881689Y-80107627D01*
X262957879Y-80145722D01*
X262500736Y-79421913D02*
X262500736Y-78888579D01*
X263300736Y-79231437D01*
X247546869Y-79254098D02*
X246746869Y-79254098D01*
X246746869Y-79063622D01*
X246784965Y-78949336D01*
X246861155Y-78873146D01*
X246937345Y-78835050D01*
X247089726Y-78796955D01*
X247204012Y-78796955D01*
X247356393Y-78835050D01*
X247432584Y-78873146D01*
X247508774Y-78949336D01*
X247546869Y-79063622D01*
X247546869Y-79254098D01*
X246746869Y-78111241D02*
X246746869Y-78263622D01*
X246784965Y-78339812D01*
X246823060Y-78377908D01*
X246937345Y-78454098D01*
X247089726Y-78492193D01*
X247394488Y-78492193D01*
X247470679Y-78454098D01*
X247508774Y-78416003D01*
X247546869Y-78339812D01*
X247546869Y-78187431D01*
X247508774Y-78111241D01*
X247470679Y-78073146D01*
X247394488Y-78035050D01*
X247204012Y-78035050D01*
X247127822Y-78073146D01*
X247089726Y-78111241D01*
X247051631Y-78187431D01*
X247051631Y-78339812D01*
X247089726Y-78416003D01*
X247127822Y-78454098D01*
X247204012Y-78492193D01*
X247089726Y-77577908D02*
X247051631Y-77654098D01*
X247013536Y-77692193D01*
X246937345Y-77730289D01*
X246899250Y-77730289D01*
X246823060Y-77692193D01*
X246784965Y-77654098D01*
X246746869Y-77577908D01*
X246746869Y-77425527D01*
X246784965Y-77349336D01*
X246823060Y-77311241D01*
X246899250Y-77273146D01*
X246937345Y-77273146D01*
X247013536Y-77311241D01*
X247051631Y-77349336D01*
X247089726Y-77425527D01*
X247089726Y-77577908D01*
X247127822Y-77654098D01*
X247165917Y-77692193D01*
X247242107Y-77730289D01*
X247394488Y-77730289D01*
X247470679Y-77692193D01*
X247508774Y-77654098D01*
X247546869Y-77577908D01*
X247546869Y-77425527D01*
X247508774Y-77349336D01*
X247470679Y-77311241D01*
X247394488Y-77273146D01*
X247242107Y-77273146D01*
X247165917Y-77311241D01*
X247127822Y-77349336D01*
X247089726Y-77425527D01*
D10*
X183287513Y-173611114D02*
X183097037Y-173611114D01*
X183001799Y-173658734D01*
X182954180Y-173706353D01*
X182858942Y-173849210D01*
X182811323Y-174039686D01*
X182811323Y-174420638D01*
X182858942Y-174515876D01*
X182906561Y-174563495D01*
X183001799Y-174611114D01*
X183192275Y-174611114D01*
X183287513Y-174563495D01*
X183335132Y-174515876D01*
X183382751Y-174420638D01*
X183382751Y-174182543D01*
X183335132Y-174087305D01*
X183287513Y-174039686D01*
X183192275Y-173992067D01*
X183001799Y-173992067D01*
X182906561Y-174039686D01*
X182858942Y-174087305D01*
X182811323Y-174182543D01*
X183811323Y-174515876D02*
X183858942Y-174563495D01*
X183811323Y-174611114D01*
X183763703Y-174563495D01*
X183811323Y-174515876D01*
X183811323Y-174611114D01*
X184239894Y-173706353D02*
X184287513Y-173658734D01*
X184382751Y-173611114D01*
X184620846Y-173611114D01*
X184716084Y-173658734D01*
X184763703Y-173706353D01*
X184811323Y-173801591D01*
X184811323Y-173896829D01*
X184763703Y-174039686D01*
X184192275Y-174611114D01*
X184811323Y-174611114D01*
X185716084Y-173611114D02*
X185239894Y-173611114D01*
X185192275Y-174087305D01*
X185239894Y-174039686D01*
X185335132Y-173992067D01*
X185573227Y-173992067D01*
X185668465Y-174039686D01*
X185716084Y-174087305D01*
X185763703Y-174182543D01*
X185763703Y-174420638D01*
X185716084Y-174515876D01*
X185668465Y-174563495D01*
X185573227Y-174611114D01*
X185335132Y-174611114D01*
X185239894Y-174563495D01*
X185192275Y-174515876D01*
X186192275Y-173611114D02*
X186192275Y-174420638D01*
X186239894Y-174515876D01*
X186287513Y-174563495D01*
X186382751Y-174611114D01*
X186573227Y-174611114D01*
X186668465Y-174563495D01*
X186716084Y-174515876D01*
X186763703Y-174420638D01*
X186763703Y-173611114D01*
X176547965Y-173491114D02*
X177214631Y-173491114D01*
X176786060Y-174491114D01*
X177595584Y-173491114D02*
X177595584Y-174300638D01*
X177643203Y-174395876D01*
X177690822Y-174443495D01*
X177786060Y-174491114D01*
X177976536Y-174491114D01*
X178071774Y-174443495D01*
X178119393Y-174395876D01*
X178167012Y-174300638D01*
X178167012Y-173491114D01*
M02*
