G04 #@! TF.GenerationSoftware,KiCad,Pcbnew,(5.0.0)*
G04 #@! TF.CreationDate,2019-07-31T16:17:29-04:00*
G04 #@! TF.ProjectId,discipline-pcb,6469736369706C696E652D7063622E6B,rev?*
G04 #@! TF.SameCoordinates,Original*
G04 #@! TF.FileFunction,Copper,L1,Top,Signal*
G04 #@! TF.FilePolarity,Positive*
%FSLAX46Y46*%
G04 Gerber Fmt 4.6, Leading zero omitted, Abs format (unit mm)*
G04 Created by KiCad (PCBNEW (5.0.0)) date 07/31/19 16:17:29*
%MOMM*%
%LPD*%
G01*
G04 APERTURE LIST*
G04 #@! TA.AperFunction,ComponentPad*
%ADD10C,8.600000*%
G04 #@! TD*
G04 #@! TA.AperFunction,ComponentPad*
%ADD11C,4.400000*%
G04 #@! TD*
G04 #@! TA.AperFunction,Conductor*
%ADD12C,0.254000*%
G04 #@! TD*
G04 APERTURE END LIST*
D10*
G04 #@! TO.P,REF\002A\002A,1*
G04 #@! TO.N,N/C*
X337229903Y-91409552D03*
G04 #@! TD*
D11*
G04 #@! TO.P,H1,1*
G04 #@! TO.N,GND*
X212989879Y-162205740D03*
G04 #@! TD*
G04 #@! TO.P,REF\002A\002A,1*
G04 #@! TO.N,N/C*
X212989879Y-99550624D03*
G04 #@! TD*
G04 #@! TO.P,REF\002A\002A,1*
G04 #@! TO.N,N/C*
X305448502Y-99550624D03*
G04 #@! TD*
G04 #@! TO.P,REF\002A\002A,1*
G04 #@! TO.N,N/C*
X120531257Y-99550624D03*
G04 #@! TD*
G04 #@! TO.P,REF\002A\002A,1*
G04 #@! TO.N,N/C*
X322637337Y-156394590D03*
G04 #@! TD*
G04 #@! TO.P,REF\002A\002A,1*
G04 #@! TO.N,N/C*
X103342422Y-156394590D03*
G04 #@! TD*
G04 #@! TO.P,REF\002A\002A,1*
G04 #@! TO.N,N/C*
X360747255Y-75468873D03*
G04 #@! TD*
G04 #@! TO.P,REF\002A\002A,1*
G04 #@! TO.N,N/C*
X360747255Y-57147160D03*
G04 #@! TD*
G04 #@! TO.P,REF\002A\002A,1*
G04 #@! TO.N,N/C*
X65232504Y-57147160D03*
G04 #@! TD*
G04 #@! TO.P,REF\002A\002A,1*
G04 #@! TO.N,N/C*
X65232504Y-75468873D03*
G04 #@! TD*
D10*
G04 #@! TO.P,REF\002A\002A,1*
G04 #@! TO.N,N/C*
X88749856Y-91409552D03*
G04 #@! TD*
D12*
G04 #@! TO.N,GND*
G36*
X362686565Y-53717043D02*
X363217376Y-53895680D01*
X363697439Y-54184132D01*
X364104363Y-54568941D01*
X364419162Y-55032154D01*
X364627151Y-55552162D01*
X364723315Y-56133043D01*
X364726843Y-56259344D01*
X364726844Y-172404331D01*
X364662180Y-172999570D01*
X364483543Y-173530382D01*
X364195092Y-174010444D01*
X363810282Y-174417369D01*
X363347069Y-174732168D01*
X362827061Y-174940157D01*
X362246180Y-175036321D01*
X362119879Y-175039849D01*
X63891109Y-175039849D01*
X63295493Y-174975691D01*
X62764519Y-174797534D01*
X62284197Y-174509521D01*
X61876919Y-174125077D01*
X61561701Y-173662151D01*
X61353241Y-173142332D01*
X61256550Y-172561538D01*
X61252916Y-172435550D01*
X61252916Y-155830673D01*
X100507422Y-155830673D01*
X100507422Y-156958507D01*
X100939025Y-158000489D01*
X101736523Y-158797987D01*
X102778505Y-159229590D01*
X103906339Y-159229590D01*
X104948321Y-158797987D01*
X105745819Y-158000489D01*
X106177422Y-156958507D01*
X106177422Y-155830673D01*
X319802337Y-155830673D01*
X319802337Y-156958507D01*
X320233940Y-158000489D01*
X321031438Y-158797987D01*
X322073420Y-159229590D01*
X323201254Y-159229590D01*
X324243236Y-158797987D01*
X325040734Y-158000489D01*
X325472337Y-156958507D01*
X325472337Y-155830673D01*
X325040734Y-154788691D01*
X324243236Y-153991193D01*
X323201254Y-153559590D01*
X322073420Y-153559590D01*
X321031438Y-153991193D01*
X320233940Y-154788691D01*
X319802337Y-155830673D01*
X106177422Y-155830673D01*
X105745819Y-154788691D01*
X104948321Y-153991193D01*
X103906339Y-153559590D01*
X102778505Y-153559590D01*
X101736523Y-153991193D01*
X100939025Y-154788691D01*
X100507422Y-155830673D01*
X61252916Y-155830673D01*
X61252916Y-98986707D01*
X117696257Y-98986707D01*
X117696257Y-100114541D01*
X118127860Y-101156523D01*
X118925358Y-101954021D01*
X119967340Y-102385624D01*
X121095174Y-102385624D01*
X122137156Y-101954021D01*
X122934654Y-101156523D01*
X123366257Y-100114541D01*
X123366257Y-98986707D01*
X210154879Y-98986707D01*
X210154879Y-100114541D01*
X210586482Y-101156523D01*
X211383980Y-101954021D01*
X212425962Y-102385624D01*
X213553796Y-102385624D01*
X214595778Y-101954021D01*
X215393276Y-101156523D01*
X215824879Y-100114541D01*
X215824879Y-98986707D01*
X302613502Y-98986707D01*
X302613502Y-100114541D01*
X303045105Y-101156523D01*
X303842603Y-101954021D01*
X304884585Y-102385624D01*
X306012419Y-102385624D01*
X307054401Y-101954021D01*
X307851899Y-101156523D01*
X308283502Y-100114541D01*
X308283502Y-98986707D01*
X307851899Y-97944725D01*
X307054401Y-97147227D01*
X306012419Y-96715624D01*
X304884585Y-96715624D01*
X303842603Y-97147227D01*
X303045105Y-97944725D01*
X302613502Y-98986707D01*
X215824879Y-98986707D01*
X215393276Y-97944725D01*
X214595778Y-97147227D01*
X213553796Y-96715624D01*
X212425962Y-96715624D01*
X211383980Y-97147227D01*
X210586482Y-97944725D01*
X210154879Y-98986707D01*
X123366257Y-98986707D01*
X122934654Y-97944725D01*
X122137156Y-97147227D01*
X121095174Y-96715624D01*
X119967340Y-96715624D01*
X118925358Y-97147227D01*
X118127860Y-97944725D01*
X117696257Y-98986707D01*
X61252916Y-98986707D01*
X61252916Y-90427920D01*
X83814856Y-90427920D01*
X83814856Y-92391184D01*
X84566165Y-94205005D01*
X85954403Y-95593243D01*
X87768224Y-96344552D01*
X89731488Y-96344552D01*
X91545309Y-95593243D01*
X92933547Y-94205005D01*
X93684856Y-92391184D01*
X93684856Y-90427920D01*
X332294903Y-90427920D01*
X332294903Y-92391184D01*
X333046212Y-94205005D01*
X334434450Y-95593243D01*
X336248271Y-96344552D01*
X338211535Y-96344552D01*
X340025356Y-95593243D01*
X341413594Y-94205005D01*
X342164903Y-92391184D01*
X342164903Y-90427920D01*
X341413594Y-88614099D01*
X340025356Y-87225861D01*
X338211535Y-86474552D01*
X336248271Y-86474552D01*
X334434450Y-87225861D01*
X333046212Y-88614099D01*
X332294903Y-90427920D01*
X93684856Y-90427920D01*
X92933547Y-88614099D01*
X91545309Y-87225861D01*
X89731488Y-86474552D01*
X87768224Y-86474552D01*
X85954403Y-87225861D01*
X84566165Y-88614099D01*
X83814856Y-90427920D01*
X61252916Y-90427920D01*
X61252916Y-74904956D01*
X62397504Y-74904956D01*
X62397504Y-76032790D01*
X62829107Y-77074772D01*
X63626605Y-77872270D01*
X64668587Y-78303873D01*
X65796421Y-78303873D01*
X66838403Y-77872270D01*
X67635901Y-77074772D01*
X68067504Y-76032790D01*
X68067504Y-74904956D01*
X357912255Y-74904956D01*
X357912255Y-76032790D01*
X358343858Y-77074772D01*
X359141356Y-77872270D01*
X360183338Y-78303873D01*
X361311172Y-78303873D01*
X362353154Y-77872270D01*
X363150652Y-77074772D01*
X363582255Y-76032790D01*
X363582255Y-74904956D01*
X363150652Y-73862974D01*
X362353154Y-73065476D01*
X361311172Y-72633873D01*
X360183338Y-72633873D01*
X359141356Y-73065476D01*
X358343858Y-73862974D01*
X357912255Y-74904956D01*
X68067504Y-74904956D01*
X67635901Y-73862974D01*
X66838403Y-73065476D01*
X65796421Y-72633873D01*
X64668587Y-72633873D01*
X63626605Y-73065476D01*
X62829107Y-73862974D01*
X62397504Y-74904956D01*
X61252916Y-74904956D01*
X61252916Y-56583243D01*
X62397504Y-56583243D01*
X62397504Y-57711077D01*
X62829107Y-58753059D01*
X63626605Y-59550557D01*
X64668587Y-59982160D01*
X65796421Y-59982160D01*
X66838403Y-59550557D01*
X67635901Y-58753059D01*
X68067504Y-57711077D01*
X68067504Y-56583243D01*
X357912255Y-56583243D01*
X357912255Y-57711077D01*
X358343858Y-58753059D01*
X359141356Y-59550557D01*
X360183338Y-59982160D01*
X361311172Y-59982160D01*
X362353154Y-59550557D01*
X363150652Y-58753059D01*
X363582255Y-57711077D01*
X363582255Y-56583243D01*
X363150652Y-55541261D01*
X362353154Y-54743763D01*
X361311172Y-54312160D01*
X360183338Y-54312160D01*
X359141356Y-54743763D01*
X358343858Y-55541261D01*
X357912255Y-56583243D01*
X68067504Y-56583243D01*
X67635901Y-55541261D01*
X66838403Y-54743763D01*
X65796421Y-54312160D01*
X64668587Y-54312160D01*
X63626605Y-54743763D01*
X62829107Y-55541261D01*
X62397504Y-56583243D01*
X61252916Y-56583243D01*
X61252916Y-56287889D01*
X61317579Y-55692658D01*
X61496216Y-55161847D01*
X61784668Y-54681784D01*
X62169477Y-54274860D01*
X62632690Y-53960061D01*
X63152698Y-53752072D01*
X63733579Y-53655908D01*
X63859880Y-53652380D01*
X362091334Y-53652380D01*
X362686565Y-53717043D01*
X362686565Y-53717043D01*
G37*
X362686565Y-53717043D02*
X363217376Y-53895680D01*
X363697439Y-54184132D01*
X364104363Y-54568941D01*
X364419162Y-55032154D01*
X364627151Y-55552162D01*
X364723315Y-56133043D01*
X364726843Y-56259344D01*
X364726844Y-172404331D01*
X364662180Y-172999570D01*
X364483543Y-173530382D01*
X364195092Y-174010444D01*
X363810282Y-174417369D01*
X363347069Y-174732168D01*
X362827061Y-174940157D01*
X362246180Y-175036321D01*
X362119879Y-175039849D01*
X63891109Y-175039849D01*
X63295493Y-174975691D01*
X62764519Y-174797534D01*
X62284197Y-174509521D01*
X61876919Y-174125077D01*
X61561701Y-173662151D01*
X61353241Y-173142332D01*
X61256550Y-172561538D01*
X61252916Y-172435550D01*
X61252916Y-155830673D01*
X100507422Y-155830673D01*
X100507422Y-156958507D01*
X100939025Y-158000489D01*
X101736523Y-158797987D01*
X102778505Y-159229590D01*
X103906339Y-159229590D01*
X104948321Y-158797987D01*
X105745819Y-158000489D01*
X106177422Y-156958507D01*
X106177422Y-155830673D01*
X319802337Y-155830673D01*
X319802337Y-156958507D01*
X320233940Y-158000489D01*
X321031438Y-158797987D01*
X322073420Y-159229590D01*
X323201254Y-159229590D01*
X324243236Y-158797987D01*
X325040734Y-158000489D01*
X325472337Y-156958507D01*
X325472337Y-155830673D01*
X325040734Y-154788691D01*
X324243236Y-153991193D01*
X323201254Y-153559590D01*
X322073420Y-153559590D01*
X321031438Y-153991193D01*
X320233940Y-154788691D01*
X319802337Y-155830673D01*
X106177422Y-155830673D01*
X105745819Y-154788691D01*
X104948321Y-153991193D01*
X103906339Y-153559590D01*
X102778505Y-153559590D01*
X101736523Y-153991193D01*
X100939025Y-154788691D01*
X100507422Y-155830673D01*
X61252916Y-155830673D01*
X61252916Y-98986707D01*
X117696257Y-98986707D01*
X117696257Y-100114541D01*
X118127860Y-101156523D01*
X118925358Y-101954021D01*
X119967340Y-102385624D01*
X121095174Y-102385624D01*
X122137156Y-101954021D01*
X122934654Y-101156523D01*
X123366257Y-100114541D01*
X123366257Y-98986707D01*
X210154879Y-98986707D01*
X210154879Y-100114541D01*
X210586482Y-101156523D01*
X211383980Y-101954021D01*
X212425962Y-102385624D01*
X213553796Y-102385624D01*
X214595778Y-101954021D01*
X215393276Y-101156523D01*
X215824879Y-100114541D01*
X215824879Y-98986707D01*
X302613502Y-98986707D01*
X302613502Y-100114541D01*
X303045105Y-101156523D01*
X303842603Y-101954021D01*
X304884585Y-102385624D01*
X306012419Y-102385624D01*
X307054401Y-101954021D01*
X307851899Y-101156523D01*
X308283502Y-100114541D01*
X308283502Y-98986707D01*
X307851899Y-97944725D01*
X307054401Y-97147227D01*
X306012419Y-96715624D01*
X304884585Y-96715624D01*
X303842603Y-97147227D01*
X303045105Y-97944725D01*
X302613502Y-98986707D01*
X215824879Y-98986707D01*
X215393276Y-97944725D01*
X214595778Y-97147227D01*
X213553796Y-96715624D01*
X212425962Y-96715624D01*
X211383980Y-97147227D01*
X210586482Y-97944725D01*
X210154879Y-98986707D01*
X123366257Y-98986707D01*
X122934654Y-97944725D01*
X122137156Y-97147227D01*
X121095174Y-96715624D01*
X119967340Y-96715624D01*
X118925358Y-97147227D01*
X118127860Y-97944725D01*
X117696257Y-98986707D01*
X61252916Y-98986707D01*
X61252916Y-90427920D01*
X83814856Y-90427920D01*
X83814856Y-92391184D01*
X84566165Y-94205005D01*
X85954403Y-95593243D01*
X87768224Y-96344552D01*
X89731488Y-96344552D01*
X91545309Y-95593243D01*
X92933547Y-94205005D01*
X93684856Y-92391184D01*
X93684856Y-90427920D01*
X332294903Y-90427920D01*
X332294903Y-92391184D01*
X333046212Y-94205005D01*
X334434450Y-95593243D01*
X336248271Y-96344552D01*
X338211535Y-96344552D01*
X340025356Y-95593243D01*
X341413594Y-94205005D01*
X342164903Y-92391184D01*
X342164903Y-90427920D01*
X341413594Y-88614099D01*
X340025356Y-87225861D01*
X338211535Y-86474552D01*
X336248271Y-86474552D01*
X334434450Y-87225861D01*
X333046212Y-88614099D01*
X332294903Y-90427920D01*
X93684856Y-90427920D01*
X92933547Y-88614099D01*
X91545309Y-87225861D01*
X89731488Y-86474552D01*
X87768224Y-86474552D01*
X85954403Y-87225861D01*
X84566165Y-88614099D01*
X83814856Y-90427920D01*
X61252916Y-90427920D01*
X61252916Y-74904956D01*
X62397504Y-74904956D01*
X62397504Y-76032790D01*
X62829107Y-77074772D01*
X63626605Y-77872270D01*
X64668587Y-78303873D01*
X65796421Y-78303873D01*
X66838403Y-77872270D01*
X67635901Y-77074772D01*
X68067504Y-76032790D01*
X68067504Y-74904956D01*
X357912255Y-74904956D01*
X357912255Y-76032790D01*
X358343858Y-77074772D01*
X359141356Y-77872270D01*
X360183338Y-78303873D01*
X361311172Y-78303873D01*
X362353154Y-77872270D01*
X363150652Y-77074772D01*
X363582255Y-76032790D01*
X363582255Y-74904956D01*
X363150652Y-73862974D01*
X362353154Y-73065476D01*
X361311172Y-72633873D01*
X360183338Y-72633873D01*
X359141356Y-73065476D01*
X358343858Y-73862974D01*
X357912255Y-74904956D01*
X68067504Y-74904956D01*
X67635901Y-73862974D01*
X66838403Y-73065476D01*
X65796421Y-72633873D01*
X64668587Y-72633873D01*
X63626605Y-73065476D01*
X62829107Y-73862974D01*
X62397504Y-74904956D01*
X61252916Y-74904956D01*
X61252916Y-56583243D01*
X62397504Y-56583243D01*
X62397504Y-57711077D01*
X62829107Y-58753059D01*
X63626605Y-59550557D01*
X64668587Y-59982160D01*
X65796421Y-59982160D01*
X66838403Y-59550557D01*
X67635901Y-58753059D01*
X68067504Y-57711077D01*
X68067504Y-56583243D01*
X357912255Y-56583243D01*
X357912255Y-57711077D01*
X358343858Y-58753059D01*
X359141356Y-59550557D01*
X360183338Y-59982160D01*
X361311172Y-59982160D01*
X362353154Y-59550557D01*
X363150652Y-58753059D01*
X363582255Y-57711077D01*
X363582255Y-56583243D01*
X363150652Y-55541261D01*
X362353154Y-54743763D01*
X361311172Y-54312160D01*
X360183338Y-54312160D01*
X359141356Y-54743763D01*
X358343858Y-55541261D01*
X357912255Y-56583243D01*
X68067504Y-56583243D01*
X67635901Y-55541261D01*
X66838403Y-54743763D01*
X65796421Y-54312160D01*
X64668587Y-54312160D01*
X63626605Y-54743763D01*
X62829107Y-55541261D01*
X62397504Y-56583243D01*
X61252916Y-56583243D01*
X61252916Y-56287889D01*
X61317579Y-55692658D01*
X61496216Y-55161847D01*
X61784668Y-54681784D01*
X62169477Y-54274860D01*
X62632690Y-53960061D01*
X63152698Y-53752072D01*
X63733579Y-53655908D01*
X63859880Y-53652380D01*
X362091334Y-53652380D01*
X362686565Y-53717043D01*
G04 #@! TD*
M02*
