G04 #@! TF.GenerationSoftware,KiCad,Pcbnew,(5.0.0)*
G04 #@! TF.CreationDate,2019-07-26T01:09:39-04:00*
G04 #@! TF.ProjectId,discipline-pcb,6469736369706C696E652D7063622E6B,rev?*
G04 #@! TF.SameCoordinates,Original*
G04 #@! TF.FileFunction,Copper,L2,Bot,Signal*
G04 #@! TF.FilePolarity,Positive*
%FSLAX46Y46*%
G04 Gerber Fmt 4.6, Leading zero omitted, Abs format (unit mm)*
G04 Created by KiCad (PCBNEW (5.0.0)) date 07/26/19 01:09:39*
%MOMM*%
%LPD*%
G01*
G04 APERTURE LIST*
G04 #@! TA.AperFunction,NonConductor*
%ADD10C,0.200000*%
G04 #@! TD*
G04 #@! TA.AperFunction,EtchedComponent*
%ADD11C,0.010000*%
G04 #@! TD*
G04 #@! TA.AperFunction,EtchedComponent*
%ADD12C,3.000000*%
G04 #@! TD*
G04 #@! TA.AperFunction,ComponentPad*
%ADD13C,8.600000*%
G04 #@! TD*
G04 #@! TA.AperFunction,ComponentPad*
%ADD14C,4.400000*%
G04 #@! TD*
G04 #@! TA.AperFunction,Conductor*
%ADD15C,0.254000*%
G04 #@! TD*
G04 APERTURE END LIST*
D10*
X125397214Y-134521644D02*
X125540071Y-134640692D01*
X125825785Y-134640692D01*
X125968642Y-134521644D01*
X126040071Y-134402597D01*
X126111500Y-134164501D01*
X126111500Y-133450216D01*
X126040071Y-133212120D01*
X125968642Y-133093073D01*
X125825785Y-132974025D01*
X125540071Y-132974025D01*
X125397214Y-133093073D01*
X124540071Y-134640692D02*
X124682928Y-134521644D01*
X124754357Y-134402597D01*
X124825785Y-134164501D01*
X124825785Y-133450216D01*
X124754357Y-133212120D01*
X124682928Y-133093073D01*
X124540071Y-132974025D01*
X124325785Y-132974025D01*
X124182928Y-133093073D01*
X124111500Y-133212120D01*
X124040071Y-133450216D01*
X124040071Y-134164501D01*
X124111500Y-134402597D01*
X124182928Y-134521644D01*
X124325785Y-134640692D01*
X124540071Y-134640692D01*
X123468642Y-134521644D02*
X123325785Y-134640692D01*
X123040071Y-134640692D01*
X122897214Y-134521644D01*
X122825785Y-134283549D01*
X122825785Y-134164501D01*
X122897214Y-133926406D01*
X123040071Y-133807359D01*
X123254357Y-133807359D01*
X123397214Y-133688311D01*
X123468642Y-133450216D01*
X123468642Y-133331168D01*
X123397214Y-133093073D01*
X123254357Y-132974025D01*
X123040071Y-132974025D01*
X122897214Y-133093073D01*
X121611500Y-134521644D02*
X121754357Y-134640692D01*
X122040071Y-134640692D01*
X122182928Y-134521644D01*
X122254357Y-134283549D01*
X122254357Y-133331168D01*
X122182928Y-133093073D01*
X122040071Y-132974025D01*
X121754357Y-132974025D01*
X121611500Y-133093073D01*
X121540071Y-133331168D01*
X121540071Y-133569263D01*
X122254357Y-133807359D01*
X121040071Y-132974025D02*
X120682928Y-134640692D01*
X120325785Y-132974025D02*
X120682928Y-134640692D01*
X120825785Y-135235930D01*
X120897214Y-135354978D01*
X121040071Y-135474025D01*
X119968642Y-132974025D02*
X119397214Y-132974025D01*
X119754357Y-134640692D02*
X119754357Y-132497835D01*
X119682928Y-132259740D01*
X119540071Y-132140692D01*
X119397214Y-132140692D01*
X118254357Y-134640692D02*
X118254357Y-133331168D01*
X118325785Y-133093073D01*
X118468642Y-132974025D01*
X118754357Y-132974025D01*
X118897214Y-133093073D01*
X118254357Y-134521644D02*
X118397214Y-134640692D01*
X118754357Y-134640692D01*
X118897214Y-134521644D01*
X118968642Y-134283549D01*
X118968642Y-134045454D01*
X118897214Y-133807359D01*
X118754357Y-133688311D01*
X118397214Y-133688311D01*
X118254357Y-133569263D01*
X117540071Y-132974025D02*
X117540071Y-134640692D01*
X117540071Y-133212120D02*
X117468642Y-133093073D01*
X117325785Y-132974025D01*
X117111500Y-132974025D01*
X116968642Y-133093073D01*
X116897214Y-133331168D01*
X116897214Y-134640692D01*
X116182928Y-132974025D02*
X116182928Y-134640692D01*
X116182928Y-133212120D02*
X116111500Y-133093073D01*
X115968642Y-132974025D01*
X115754357Y-132974025D01*
X115611500Y-133093073D01*
X115540071Y-133331168D01*
X115540071Y-134640692D01*
X114825785Y-134640692D02*
X114825785Y-132974025D01*
X114825785Y-132140692D02*
X114897214Y-132259740D01*
X114825785Y-132378787D01*
X114754357Y-132259740D01*
X114825785Y-132140692D01*
X114825785Y-132378787D01*
X114325785Y-132974025D02*
X113754357Y-132974025D01*
X114111500Y-132140692D02*
X114111500Y-134283549D01*
X114040071Y-134521644D01*
X113897214Y-134640692D01*
X113754357Y-134640692D01*
X112611500Y-132974025D02*
X112611500Y-134640692D01*
X113254357Y-132974025D02*
X113254357Y-134283549D01*
X113182928Y-134521644D01*
X113040071Y-134640692D01*
X112825785Y-134640692D01*
X112682928Y-134521644D01*
X112611500Y-134402597D01*
X112111500Y-132974025D02*
X111540071Y-132974025D01*
X111897214Y-132140692D02*
X111897214Y-134283549D01*
X111825785Y-134521644D01*
X111682928Y-134640692D01*
X111540071Y-134640692D01*
X111254357Y-132974025D02*
X110682928Y-132974025D01*
X111040071Y-132140692D02*
X111040071Y-134283549D01*
X110968642Y-134521644D01*
X110825785Y-134640692D01*
X110682928Y-134640692D01*
X110182928Y-134640692D02*
X110182928Y-132974025D01*
X110182928Y-132140692D02*
X110254357Y-132259740D01*
X110182928Y-132378787D01*
X110111500Y-132259740D01*
X110182928Y-132140692D01*
X110182928Y-132378787D01*
D11*
G04 #@! TO.C,G\002A\002A\002A*
G36*
X260332239Y-102854250D02*
X259104686Y-103194839D01*
X258182173Y-103636282D01*
X257760991Y-104083500D01*
X257582785Y-104925058D01*
X257650441Y-105661492D01*
X257847228Y-105964214D01*
X258282699Y-105933993D01*
X259047589Y-105654551D01*
X259381466Y-105494971D01*
X260956708Y-104929932D01*
X262443722Y-104823332D01*
X263733726Y-105136628D01*
X264717934Y-105831274D01*
X265287562Y-106868727D01*
X265385135Y-107622186D01*
X265151844Y-108747577D01*
X264415020Y-109736645D01*
X263119239Y-110647309D01*
X261928143Y-111234751D01*
X259661824Y-112391215D01*
X258032834Y-113572903D01*
X257201287Y-114521248D01*
X256780384Y-115598316D01*
X256603773Y-117004051D01*
X256678370Y-118460637D01*
X257011093Y-119690258D01*
X257069593Y-119811107D01*
X258160522Y-121243172D01*
X259692515Y-122286696D01*
X261557849Y-122903863D01*
X263648806Y-123056852D01*
X265547956Y-122787708D01*
X266710856Y-122403454D01*
X267729716Y-121889751D01*
X268366055Y-121368668D01*
X268392328Y-121331770D01*
X268604873Y-120678661D01*
X268598672Y-119919458D01*
X268383185Y-119393826D01*
X268337361Y-119358525D01*
X267891859Y-119385606D01*
X267109887Y-119668877D01*
X266674056Y-119878942D01*
X264936817Y-120548141D01*
X263264628Y-120767268D01*
X261757070Y-120569078D01*
X260513722Y-119986321D01*
X259634165Y-119051752D01*
X259217978Y-117798121D01*
X259197956Y-117420010D01*
X259412277Y-116530195D01*
X260090373Y-115640781D01*
X261284943Y-114702734D01*
X263048683Y-113667018D01*
X263467213Y-113447534D01*
X265301878Y-112412457D01*
X266589592Y-111445243D01*
X267412230Y-110444192D01*
X267851663Y-109307607D01*
X267989765Y-107933791D01*
X267990263Y-107829261D01*
X267734179Y-105962756D01*
X266969598Y-104501877D01*
X265702028Y-103452289D01*
X263936977Y-102819657D01*
X262976861Y-102671997D01*
X261683432Y-102663606D01*
X260332239Y-102854250D01*
X260332239Y-102854250D01*
G37*
X260332239Y-102854250D02*
X259104686Y-103194839D01*
X258182173Y-103636282D01*
X257760991Y-104083500D01*
X257582785Y-104925058D01*
X257650441Y-105661492D01*
X257847228Y-105964214D01*
X258282699Y-105933993D01*
X259047589Y-105654551D01*
X259381466Y-105494971D01*
X260956708Y-104929932D01*
X262443722Y-104823332D01*
X263733726Y-105136628D01*
X264717934Y-105831274D01*
X265287562Y-106868727D01*
X265385135Y-107622186D01*
X265151844Y-108747577D01*
X264415020Y-109736645D01*
X263119239Y-110647309D01*
X261928143Y-111234751D01*
X259661824Y-112391215D01*
X258032834Y-113572903D01*
X257201287Y-114521248D01*
X256780384Y-115598316D01*
X256603773Y-117004051D01*
X256678370Y-118460637D01*
X257011093Y-119690258D01*
X257069593Y-119811107D01*
X258160522Y-121243172D01*
X259692515Y-122286696D01*
X261557849Y-122903863D01*
X263648806Y-123056852D01*
X265547956Y-122787708D01*
X266710856Y-122403454D01*
X267729716Y-121889751D01*
X268366055Y-121368668D01*
X268392328Y-121331770D01*
X268604873Y-120678661D01*
X268598672Y-119919458D01*
X268383185Y-119393826D01*
X268337361Y-119358525D01*
X267891859Y-119385606D01*
X267109887Y-119668877D01*
X266674056Y-119878942D01*
X264936817Y-120548141D01*
X263264628Y-120767268D01*
X261757070Y-120569078D01*
X260513722Y-119986321D01*
X259634165Y-119051752D01*
X259217978Y-117798121D01*
X259197956Y-117420010D01*
X259412277Y-116530195D01*
X260090373Y-115640781D01*
X261284943Y-114702734D01*
X263048683Y-113667018D01*
X263467213Y-113447534D01*
X265301878Y-112412457D01*
X266589592Y-111445243D01*
X267412230Y-110444192D01*
X267851663Y-109307607D01*
X267989765Y-107933791D01*
X267990263Y-107829261D01*
X267734179Y-105962756D01*
X266969598Y-104501877D01*
X265702028Y-103452289D01*
X263936977Y-102819657D01*
X262976861Y-102671997D01*
X261683432Y-102663606D01*
X260332239Y-102854250D01*
G36*
X236894832Y-102712705D02*
X234771714Y-103252915D01*
X234186031Y-103519822D01*
X233143470Y-104192750D01*
X232622111Y-104953516D01*
X232495391Y-105838576D01*
X232644732Y-106470393D01*
X233121098Y-106608224D01*
X233967008Y-106254329D01*
X234467280Y-105943389D01*
X235845490Y-105258155D01*
X237447857Y-104955384D01*
X237653686Y-104940827D01*
X239541270Y-105068921D01*
X241072121Y-105730833D01*
X242300922Y-106957853D01*
X242896776Y-107940786D01*
X243281623Y-108761716D01*
X243526745Y-109538628D01*
X243662523Y-110455909D01*
X243719335Y-111697948D01*
X243728386Y-112988222D01*
X243708007Y-114625080D01*
X243630645Y-115786467D01*
X243469219Y-116647511D01*
X243196646Y-117383335D01*
X242982559Y-117811243D01*
X241880546Y-119243713D01*
X240421626Y-120211754D01*
X238727931Y-120692169D01*
X236921597Y-120661763D01*
X235124755Y-120097342D01*
X234107675Y-119496746D01*
X233393329Y-119057721D01*
X232875225Y-118857952D01*
X232852173Y-118856802D01*
X232544979Y-119113812D01*
X232490855Y-119740202D01*
X232659370Y-120519007D01*
X233020094Y-121233266D01*
X233216931Y-121457493D01*
X234420584Y-122215527D01*
X236048364Y-122741217D01*
X237904050Y-123000557D01*
X239791421Y-122959544D01*
X240845415Y-122779495D01*
X242715722Y-122015296D01*
X244271021Y-120725716D01*
X245478192Y-118972490D01*
X246304115Y-116817357D01*
X246715669Y-114322052D01*
X246705878Y-111855520D01*
X246290900Y-109336973D01*
X245481843Y-107122462D01*
X244327178Y-105317203D01*
X243201636Y-104248956D01*
X241287951Y-103225134D01*
X239126297Y-102708247D01*
X236894832Y-102712705D01*
X236894832Y-102712705D01*
G37*
X236894832Y-102712705D02*
X234771714Y-103252915D01*
X234186031Y-103519822D01*
X233143470Y-104192750D01*
X232622111Y-104953516D01*
X232495391Y-105838576D01*
X232644732Y-106470393D01*
X233121098Y-106608224D01*
X233967008Y-106254329D01*
X234467280Y-105943389D01*
X235845490Y-105258155D01*
X237447857Y-104955384D01*
X237653686Y-104940827D01*
X239541270Y-105068921D01*
X241072121Y-105730833D01*
X242300922Y-106957853D01*
X242896776Y-107940786D01*
X243281623Y-108761716D01*
X243526745Y-109538628D01*
X243662523Y-110455909D01*
X243719335Y-111697948D01*
X243728386Y-112988222D01*
X243708007Y-114625080D01*
X243630645Y-115786467D01*
X243469219Y-116647511D01*
X243196646Y-117383335D01*
X242982559Y-117811243D01*
X241880546Y-119243713D01*
X240421626Y-120211754D01*
X238727931Y-120692169D01*
X236921597Y-120661763D01*
X235124755Y-120097342D01*
X234107675Y-119496746D01*
X233393329Y-119057721D01*
X232875225Y-118857952D01*
X232852173Y-118856802D01*
X232544979Y-119113812D01*
X232490855Y-119740202D01*
X232659370Y-120519007D01*
X233020094Y-121233266D01*
X233216931Y-121457493D01*
X234420584Y-122215527D01*
X236048364Y-122741217D01*
X237904050Y-123000557D01*
X239791421Y-122959544D01*
X240845415Y-122779495D01*
X242715722Y-122015296D01*
X244271021Y-120725716D01*
X245478192Y-118972490D01*
X246304115Y-116817357D01*
X246715669Y-114322052D01*
X246705878Y-111855520D01*
X246290900Y-109336973D01*
X245481843Y-107122462D01*
X244327178Y-105317203D01*
X243201636Y-104248956D01*
X241287951Y-103225134D01*
X239126297Y-102708247D01*
X236894832Y-102712705D01*
G36*
X302362477Y-102987725D02*
X300236848Y-103228131D01*
X298475432Y-103715110D01*
X296950042Y-104473164D01*
X296878689Y-104517975D01*
X295366450Y-105850401D01*
X294230846Y-107641950D01*
X293503369Y-109799432D01*
X293215511Y-112229662D01*
X293396129Y-114823010D01*
X294017727Y-117297291D01*
X295029764Y-119275249D01*
X296465557Y-120805200D01*
X298274879Y-121897939D01*
X299184301Y-122185210D01*
X300461692Y-122424841D01*
X301969231Y-122609978D01*
X303569099Y-122733769D01*
X305123476Y-122789360D01*
X306494543Y-122769898D01*
X307544479Y-122668530D01*
X308135466Y-122478403D01*
X308207549Y-122391843D01*
X308248796Y-121961440D01*
X308280588Y-120965995D01*
X308302178Y-119491691D01*
X308312816Y-117624709D01*
X308311754Y-115451233D01*
X308298243Y-113057444D01*
X308293461Y-112502838D01*
X308226334Y-105179879D01*
X305764622Y-105179879D01*
X305764622Y-120485007D01*
X303228494Y-120485007D01*
X301660444Y-120431027D01*
X300488861Y-120238699D01*
X299465568Y-119862439D01*
X299239391Y-119752315D01*
X297864026Y-118777731D01*
X296895823Y-117414694D01*
X296301093Y-115598634D01*
X296065062Y-113668302D01*
X296076844Y-111360055D01*
X296428298Y-109504438D01*
X297150439Y-107980581D01*
X297713622Y-107243764D01*
X298777704Y-106242275D01*
X299966834Y-105606031D01*
X301450048Y-105272715D01*
X303311855Y-105179879D01*
X305764622Y-105179879D01*
X308226334Y-105179879D01*
X308206930Y-103063212D01*
X304980509Y-102969390D01*
X302362477Y-102987725D01*
X302362477Y-102987725D01*
G37*
X302362477Y-102987725D02*
X300236848Y-103228131D01*
X298475432Y-103715110D01*
X296950042Y-104473164D01*
X296878689Y-104517975D01*
X295366450Y-105850401D01*
X294230846Y-107641950D01*
X293503369Y-109799432D01*
X293215511Y-112229662D01*
X293396129Y-114823010D01*
X294017727Y-117297291D01*
X295029764Y-119275249D01*
X296465557Y-120805200D01*
X298274879Y-121897939D01*
X299184301Y-122185210D01*
X300461692Y-122424841D01*
X301969231Y-122609978D01*
X303569099Y-122733769D01*
X305123476Y-122789360D01*
X306494543Y-122769898D01*
X307544479Y-122668530D01*
X308135466Y-122478403D01*
X308207549Y-122391843D01*
X308248796Y-121961440D01*
X308280588Y-120965995D01*
X308302178Y-119491691D01*
X308312816Y-117624709D01*
X308311754Y-115451233D01*
X308298243Y-113057444D01*
X308293461Y-112502838D01*
X308226334Y-105179879D01*
X305764622Y-105179879D01*
X305764622Y-120485007D01*
X303228494Y-120485007D01*
X301660444Y-120431027D01*
X300488861Y-120238699D01*
X299465568Y-119862439D01*
X299239391Y-119752315D01*
X297864026Y-118777731D01*
X296895823Y-117414694D01*
X296301093Y-115598634D01*
X296065062Y-113668302D01*
X296076844Y-111360055D01*
X296428298Y-109504438D01*
X297150439Y-107980581D01*
X297713622Y-107243764D01*
X298777704Y-106242275D01*
X299966834Y-105606031D01*
X301450048Y-105272715D01*
X303311855Y-105179879D01*
X305764622Y-105179879D01*
X308226334Y-105179879D01*
X308206930Y-103063212D01*
X304980509Y-102969390D01*
X302362477Y-102987725D01*
G36*
X279550520Y-122601674D02*
X280611092Y-122703883D01*
X281468885Y-122653409D01*
X281837367Y-122374278D01*
X281876881Y-121948521D01*
X281907108Y-120957514D01*
X281927359Y-119487233D01*
X281936943Y-117623653D01*
X281935172Y-115452750D01*
X281921356Y-113060500D01*
X281916538Y-112502838D01*
X281830007Y-103063212D01*
X279550520Y-103063212D01*
X279550520Y-122601674D01*
X279550520Y-122601674D01*
G37*
X279550520Y-122601674D02*
X280611092Y-122703883D01*
X281468885Y-122653409D01*
X281837367Y-122374278D01*
X281876881Y-121948521D01*
X281907108Y-120957514D01*
X281927359Y-119487233D01*
X281936943Y-117623653D01*
X281935172Y-115452750D01*
X281921356Y-113060500D01*
X281916538Y-112502838D01*
X281830007Y-103063212D01*
X279550520Y-103063212D01*
X279550520Y-122601674D01*
G36*
X219469750Y-122764494D02*
X220619714Y-122764494D01*
X221426505Y-122659251D01*
X221901369Y-122401139D01*
X221927399Y-122353479D01*
X221964863Y-121933221D01*
X221993237Y-120947467D01*
X222011903Y-119481948D01*
X222020240Y-117622395D01*
X222017629Y-115454541D01*
X222003451Y-113064115D01*
X221998589Y-112502838D01*
X221912058Y-103063212D01*
X220690904Y-102962144D01*
X219469750Y-102861077D01*
X219469750Y-122764494D01*
X219469750Y-122764494D01*
G37*
X219469750Y-122764494D02*
X220619714Y-122764494D01*
X221426505Y-122659251D01*
X221901369Y-122401139D01*
X221927399Y-122353479D01*
X221964863Y-121933221D01*
X221993237Y-120947467D01*
X222011903Y-119481948D01*
X222020240Y-117622395D01*
X222017629Y-115454541D01*
X222003451Y-113064115D01*
X221998589Y-112502838D01*
X221912058Y-103063212D01*
X220690904Y-102962144D01*
X219469750Y-102861077D01*
X219469750Y-122764494D01*
G36*
X202430790Y-102959591D02*
X200733726Y-103042421D01*
X199531340Y-103157222D01*
X198667034Y-103332731D01*
X197984214Y-103597686D01*
X197513900Y-103861914D01*
X196251251Y-104859463D01*
X195473145Y-106058970D01*
X195106353Y-107606252D01*
X195053248Y-108761930D01*
X195289734Y-110871912D01*
X195999357Y-112551768D01*
X197196028Y-113814516D01*
X198893660Y-114673177D01*
X201106164Y-115140768D01*
X201944789Y-115211076D01*
X204490263Y-115358431D01*
X204490263Y-122764494D01*
X205575733Y-122764494D01*
X206380365Y-122704918D01*
X206863592Y-122560220D01*
X206878297Y-122547400D01*
X206933976Y-122178062D01*
X206984373Y-121241351D01*
X207027583Y-119821168D01*
X207061704Y-118001414D01*
X207084831Y-115865988D01*
X207095060Y-113498792D01*
X207095391Y-112980863D01*
X207091033Y-110207936D01*
X207075629Y-108016695D01*
X207045689Y-106337587D01*
X207000780Y-105179879D01*
X204490263Y-105179879D01*
X204490263Y-109033298D01*
X204472899Y-110556629D01*
X204425656Y-111834148D01*
X204355809Y-112729438D01*
X204273169Y-113103810D01*
X203754503Y-113272830D01*
X202822527Y-113308811D01*
X201700071Y-113218344D01*
X200609964Y-113008019D01*
X200558390Y-112993943D01*
X199172633Y-112353685D01*
X198261198Y-111306975D01*
X197784192Y-109801328D01*
X197720481Y-109260062D01*
X197664856Y-108194636D01*
X197782979Y-107501152D01*
X198168273Y-106905242D01*
X198719251Y-106326788D01*
X199361385Y-105724934D01*
X199922698Y-105381624D01*
X200621244Y-105224557D01*
X201675074Y-105181434D01*
X202178212Y-105179879D01*
X204490263Y-105179879D01*
X207000780Y-105179879D01*
X206997722Y-105101059D01*
X206928235Y-104237559D01*
X206833737Y-103677535D01*
X206710737Y-103351434D01*
X206605658Y-103224977D01*
X206125608Y-103034794D01*
X205205701Y-102935245D01*
X203769135Y-102921447D01*
X202430790Y-102959591D01*
X202430790Y-102959591D01*
G37*
X202430790Y-102959591D02*
X200733726Y-103042421D01*
X199531340Y-103157222D01*
X198667034Y-103332731D01*
X197984214Y-103597686D01*
X197513900Y-103861914D01*
X196251251Y-104859463D01*
X195473145Y-106058970D01*
X195106353Y-107606252D01*
X195053248Y-108761930D01*
X195289734Y-110871912D01*
X195999357Y-112551768D01*
X197196028Y-113814516D01*
X198893660Y-114673177D01*
X201106164Y-115140768D01*
X201944789Y-115211076D01*
X204490263Y-115358431D01*
X204490263Y-122764494D01*
X205575733Y-122764494D01*
X206380365Y-122704918D01*
X206863592Y-122560220D01*
X206878297Y-122547400D01*
X206933976Y-122178062D01*
X206984373Y-121241351D01*
X207027583Y-119821168D01*
X207061704Y-118001414D01*
X207084831Y-115865988D01*
X207095060Y-113498792D01*
X207095391Y-112980863D01*
X207091033Y-110207936D01*
X207075629Y-108016695D01*
X207045689Y-106337587D01*
X207000780Y-105179879D01*
X204490263Y-105179879D01*
X204490263Y-109033298D01*
X204472899Y-110556629D01*
X204425656Y-111834148D01*
X204355809Y-112729438D01*
X204273169Y-113103810D01*
X203754503Y-113272830D01*
X202822527Y-113308811D01*
X201700071Y-113218344D01*
X200609964Y-113008019D01*
X200558390Y-112993943D01*
X199172633Y-112353685D01*
X198261198Y-111306975D01*
X197784192Y-109801328D01*
X197720481Y-109260062D01*
X197664856Y-108194636D01*
X197782979Y-107501152D01*
X198168273Y-106905242D01*
X198719251Y-106326788D01*
X199361385Y-105724934D01*
X199922698Y-105381624D01*
X200621244Y-105224557D01*
X201675074Y-105181434D01*
X202178212Y-105179879D01*
X204490263Y-105179879D01*
X207000780Y-105179879D01*
X206997722Y-105101059D01*
X206928235Y-104237559D01*
X206833737Y-103677535D01*
X206710737Y-103351434D01*
X206605658Y-103224977D01*
X206125608Y-103034794D01*
X205205701Y-102935245D01*
X203769135Y-102921447D01*
X202430790Y-102959591D01*
G36*
X182428084Y-102962144D02*
X181206930Y-103063212D01*
X181033512Y-120463776D01*
X173717186Y-120647828D01*
X173717186Y-122601674D01*
X178457771Y-122691431D01*
X180153480Y-122708533D01*
X181612727Y-122694899D01*
X182713973Y-122653849D01*
X183335677Y-122588705D01*
X183423797Y-122555747D01*
X183480507Y-122185108D01*
X183531988Y-121245413D01*
X183576378Y-119818879D01*
X183611816Y-117987724D01*
X183636441Y-115834165D01*
X183648392Y-113440419D01*
X183649238Y-112595691D01*
X183649238Y-102861077D01*
X182428084Y-102962144D01*
X182428084Y-102962144D01*
G37*
X182428084Y-102962144D02*
X181206930Y-103063212D01*
X181033512Y-120463776D01*
X173717186Y-120647828D01*
X173717186Y-122601674D01*
X178457771Y-122691431D01*
X180153480Y-122708533D01*
X181612727Y-122694899D01*
X182713973Y-122653849D01*
X183335677Y-122588705D01*
X183423797Y-122555747D01*
X183480507Y-122185108D01*
X183531988Y-121245413D01*
X183576378Y-119818879D01*
X183611816Y-117987724D01*
X183636441Y-115834165D01*
X183648392Y-113440419D01*
X183649238Y-112595691D01*
X183649238Y-102861077D01*
X182428084Y-102962144D01*
G36*
X162238340Y-102962144D02*
X161017186Y-103063212D01*
X161017186Y-122601674D01*
X162238340Y-122702741D01*
X163459494Y-122803809D01*
X163459494Y-102861077D01*
X162238340Y-102962144D01*
X162238340Y-102962144D01*
G37*
X162238340Y-102962144D02*
X161017186Y-103063212D01*
X161017186Y-122601674D01*
X162238340Y-122702741D01*
X163459494Y-122803809D01*
X163459494Y-102861077D01*
X162238340Y-102962144D01*
G36*
X133902765Y-112730042D02*
X133988981Y-122601674D01*
X135128725Y-122697577D01*
X136061888Y-122647531D01*
X136781287Y-122395900D01*
X136814381Y-122371936D01*
X137110235Y-121984896D01*
X137671798Y-121103669D01*
X138453152Y-119805957D01*
X139408379Y-118169462D01*
X140491562Y-116271885D01*
X141656781Y-114190929D01*
X141774657Y-113978250D01*
X146189020Y-106006108D01*
X146363340Y-122601674D01*
X147426480Y-122704075D01*
X148489619Y-122806475D01*
X148403403Y-112934844D01*
X148317186Y-103063212D01*
X146806889Y-102965450D01*
X145801572Y-102959872D01*
X145179405Y-103164749D01*
X144690222Y-103656410D01*
X144369552Y-104155024D01*
X143789691Y-105138365D01*
X143000806Y-106518039D01*
X142053063Y-108205655D01*
X140996626Y-110112819D01*
X140176161Y-111610233D01*
X136268468Y-118775334D01*
X136105648Y-110919273D01*
X135942827Y-103063212D01*
X134879688Y-102960811D01*
X133816548Y-102858410D01*
X133902765Y-112730042D01*
X133902765Y-112730042D01*
G37*
X133902765Y-112730042D02*
X133988981Y-122601674D01*
X135128725Y-122697577D01*
X136061888Y-122647531D01*
X136781287Y-122395900D01*
X136814381Y-122371936D01*
X137110235Y-121984896D01*
X137671798Y-121103669D01*
X138453152Y-119805957D01*
X139408379Y-118169462D01*
X140491562Y-116271885D01*
X141656781Y-114190929D01*
X141774657Y-113978250D01*
X146189020Y-106006108D01*
X146363340Y-122601674D01*
X147426480Y-122704075D01*
X148489619Y-122806475D01*
X148403403Y-112934844D01*
X148317186Y-103063212D01*
X146806889Y-102965450D01*
X145801572Y-102959872D01*
X145179405Y-103164749D01*
X144690222Y-103656410D01*
X144369552Y-104155024D01*
X143789691Y-105138365D01*
X143000806Y-106518039D01*
X142053063Y-108205655D01*
X140996626Y-110112819D01*
X140176161Y-111610233D01*
X136268468Y-118775334D01*
X136105648Y-110919273D01*
X135942827Y-103063212D01*
X134879688Y-102960811D01*
X133816548Y-102858410D01*
X133902765Y-112730042D01*
G36*
X113804399Y-102906301D02*
X112450889Y-102931801D01*
X111550129Y-102988554D01*
X111002875Y-103088220D01*
X110709885Y-103242460D01*
X110571918Y-103462935D01*
X110557388Y-103505798D01*
X110493418Y-104294246D01*
X110570283Y-104645542D01*
X110742886Y-104872224D01*
X111126582Y-105025520D01*
X111828579Y-105118899D01*
X112956080Y-105165828D01*
X114616290Y-105179779D01*
X114823221Y-105179879D01*
X118871113Y-105179879D01*
X118777483Y-108192058D01*
X118683853Y-111204238D01*
X111682571Y-111389092D01*
X111682571Y-113320904D01*
X118846674Y-113320904D01*
X118846674Y-120465549D01*
X114694750Y-120556688D01*
X110542827Y-120647828D01*
X110542827Y-122601674D01*
X115598647Y-122690982D01*
X117747674Y-122711183D01*
X119309956Y-122682376D01*
X120348445Y-122600991D01*
X120926092Y-122463459D01*
X121053134Y-122381623D01*
X121176490Y-121939512D01*
X121278951Y-120949292D01*
X121360474Y-119513767D01*
X121421018Y-117735742D01*
X121460540Y-115718021D01*
X121478998Y-113563408D01*
X121476348Y-111374707D01*
X121452548Y-109254723D01*
X121407556Y-107306260D01*
X121341329Y-105632121D01*
X121253825Y-104335113D01*
X121145001Y-103518037D01*
X121061032Y-103291161D01*
X120599671Y-103117729D01*
X119593318Y-102996475D01*
X118007497Y-102924879D01*
X115807728Y-102900425D01*
X115709900Y-102900392D01*
X113804399Y-102906301D01*
X113804399Y-102906301D01*
G37*
X113804399Y-102906301D02*
X112450889Y-102931801D01*
X111550129Y-102988554D01*
X111002875Y-103088220D01*
X110709885Y-103242460D01*
X110571918Y-103462935D01*
X110557388Y-103505798D01*
X110493418Y-104294246D01*
X110570283Y-104645542D01*
X110742886Y-104872224D01*
X111126582Y-105025520D01*
X111828579Y-105118899D01*
X112956080Y-105165828D01*
X114616290Y-105179779D01*
X114823221Y-105179879D01*
X118871113Y-105179879D01*
X118777483Y-108192058D01*
X118683853Y-111204238D01*
X111682571Y-111389092D01*
X111682571Y-113320904D01*
X118846674Y-113320904D01*
X118846674Y-120465549D01*
X114694750Y-120556688D01*
X110542827Y-120647828D01*
X110542827Y-122601674D01*
X115598647Y-122690982D01*
X117747674Y-122711183D01*
X119309956Y-122682376D01*
X120348445Y-122600991D01*
X120926092Y-122463459D01*
X121053134Y-122381623D01*
X121176490Y-121939512D01*
X121278951Y-120949292D01*
X121360474Y-119513767D01*
X121421018Y-117735742D01*
X121460540Y-115718021D01*
X121478998Y-113563408D01*
X121476348Y-111374707D01*
X121452548Y-109254723D01*
X121407556Y-107306260D01*
X121341329Y-105632121D01*
X121253825Y-104335113D01*
X121145001Y-103518037D01*
X121061032Y-103291161D01*
X120599671Y-103117729D01*
X119593318Y-102996475D01*
X118007497Y-102924879D01*
X115807728Y-102900425D01*
X115709900Y-102900392D01*
X113804399Y-102906301D01*
D12*
X322394879Y-146359622D02*
G75*
G03X322394879Y-79659622I0J33350000D01*
G01*
X103584879Y-79659622D02*
G75*
G03X103584879Y-146359622I0J-33350000D01*
G01*
X322324879Y-79629622D02*
X103004879Y-79659622D01*
X322774879Y-146279622D02*
X103454879Y-146309622D01*
D11*
G36*
X128375486Y-135163121D02*
X128944869Y-135160944D01*
X129514252Y-135158768D01*
X129514252Y-134752368D01*
X128375486Y-134748016D01*
X128375486Y-134087735D01*
X129095153Y-134087735D01*
X129095153Y-133655935D01*
X128375486Y-133655935D01*
X128375486Y-132978721D01*
X128944869Y-132976544D01*
X129514252Y-132974368D01*
X129516515Y-132760585D01*
X129518777Y-132546802D01*
X128375486Y-132546802D01*
X128375486Y-131928735D01*
X127935219Y-131928735D01*
X127935219Y-132546802D01*
X126800686Y-132546802D01*
X126800686Y-132978601D01*
X127935219Y-132978601D01*
X127935219Y-133655935D01*
X127224019Y-133655935D01*
X127224019Y-134087735D01*
X127935219Y-134087735D01*
X127935219Y-134748135D01*
X126800686Y-134748135D01*
X126800686Y-135163001D01*
X127935000Y-135163001D01*
X127939452Y-135751435D01*
X128157469Y-135753694D01*
X128375486Y-135755954D01*
X128375486Y-135163121D01*
X128375486Y-135163121D01*
G37*
X128375486Y-135163121D02*
X128944869Y-135160944D01*
X129514252Y-135158768D01*
X129514252Y-134752368D01*
X128375486Y-134748016D01*
X128375486Y-134087735D01*
X129095153Y-134087735D01*
X129095153Y-133655935D01*
X128375486Y-133655935D01*
X128375486Y-132978721D01*
X128944869Y-132976544D01*
X129514252Y-132974368D01*
X129516515Y-132760585D01*
X129518777Y-132546802D01*
X128375486Y-132546802D01*
X128375486Y-131928735D01*
X127935219Y-131928735D01*
X127935219Y-132546802D01*
X126800686Y-132546802D01*
X126800686Y-132978601D01*
X127935219Y-132978601D01*
X127935219Y-133655935D01*
X127224019Y-133655935D01*
X127224019Y-134087735D01*
X127935219Y-134087735D01*
X127935219Y-134748135D01*
X126800686Y-134748135D01*
X126800686Y-135163001D01*
X127935000Y-135163001D01*
X127939452Y-135751435D01*
X128157469Y-135753694D01*
X128375486Y-135755954D01*
X128375486Y-135163121D01*
G04 #@! TD*
D13*
G04 #@! TO.P,REF\002A\002A,1*
G04 #@! TO.N,N/C*
X337229903Y-91409552D03*
G04 #@! TD*
D14*
G04 #@! TO.P,H1,1*
G04 #@! TO.N,GND*
X212989879Y-162205740D03*
G04 #@! TD*
G04 #@! TO.P,REF\002A\002A,1*
G04 #@! TO.N,N/C*
X212989879Y-99550624D03*
G04 #@! TD*
G04 #@! TO.P,REF\002A\002A,1*
G04 #@! TO.N,N/C*
X305448502Y-99550624D03*
G04 #@! TD*
G04 #@! TO.P,REF\002A\002A,1*
G04 #@! TO.N,N/C*
X120531257Y-99550624D03*
G04 #@! TD*
G04 #@! TO.P,REF\002A\002A,1*
G04 #@! TO.N,N/C*
X322637337Y-156394590D03*
G04 #@! TD*
G04 #@! TO.P,REF\002A\002A,1*
G04 #@! TO.N,N/C*
X103342422Y-156394590D03*
G04 #@! TD*
G04 #@! TO.P,REF\002A\002A,1*
G04 #@! TO.N,N/C*
X360747255Y-75468873D03*
G04 #@! TD*
G04 #@! TO.P,REF\002A\002A,1*
G04 #@! TO.N,N/C*
X360747255Y-57147160D03*
G04 #@! TD*
G04 #@! TO.P,REF\002A\002A,1*
G04 #@! TO.N,N/C*
X65232504Y-57147160D03*
G04 #@! TD*
G04 #@! TO.P,REF\002A\002A,1*
G04 #@! TO.N,N/C*
X65232504Y-75468873D03*
G04 #@! TD*
D13*
G04 #@! TO.P,REF\002A\002A,1*
G04 #@! TO.N,N/C*
X88749856Y-91409552D03*
G04 #@! TD*
D15*
G04 #@! TO.N,GND*
G36*
X362686565Y-53717043D02*
X363217376Y-53895680D01*
X363697439Y-54184132D01*
X364104363Y-54568941D01*
X364419162Y-55032154D01*
X364627151Y-55552162D01*
X364723315Y-56133043D01*
X364726843Y-56259344D01*
X364726844Y-172404331D01*
X364662180Y-172999570D01*
X364483543Y-173530382D01*
X364195092Y-174010444D01*
X363810282Y-174417369D01*
X363347069Y-174732168D01*
X362827061Y-174940157D01*
X362246180Y-175036321D01*
X362119879Y-175039849D01*
X63891109Y-175039849D01*
X63295493Y-174975691D01*
X62764519Y-174797534D01*
X62284197Y-174509521D01*
X61876919Y-174125077D01*
X61561701Y-173662151D01*
X61353241Y-173142332D01*
X61256550Y-172561538D01*
X61252916Y-172435550D01*
X61252916Y-155830673D01*
X100507422Y-155830673D01*
X100507422Y-156958507D01*
X100939025Y-158000489D01*
X101736523Y-158797987D01*
X102778505Y-159229590D01*
X103906339Y-159229590D01*
X104948321Y-158797987D01*
X105745819Y-158000489D01*
X106177422Y-156958507D01*
X106177422Y-155830673D01*
X319802337Y-155830673D01*
X319802337Y-156958507D01*
X320233940Y-158000489D01*
X321031438Y-158797987D01*
X322073420Y-159229590D01*
X323201254Y-159229590D01*
X324243236Y-158797987D01*
X325040734Y-158000489D01*
X325472337Y-156958507D01*
X325472337Y-155830673D01*
X325040734Y-154788691D01*
X324243236Y-153991193D01*
X323201254Y-153559590D01*
X322073420Y-153559590D01*
X321031438Y-153991193D01*
X320233940Y-154788691D01*
X319802337Y-155830673D01*
X106177422Y-155830673D01*
X105745819Y-154788691D01*
X104948321Y-153991193D01*
X103906339Y-153559590D01*
X102778505Y-153559590D01*
X101736523Y-153991193D01*
X100939025Y-154788691D01*
X100507422Y-155830673D01*
X61252916Y-155830673D01*
X61252916Y-113122765D01*
X68101221Y-113122765D01*
X68101543Y-113184241D01*
X68101221Y-113245716D01*
X68101982Y-113268061D01*
X68191087Y-115535936D01*
X68195587Y-115597222D01*
X68199449Y-115658602D01*
X68201728Y-115680842D01*
X68444877Y-117937404D01*
X68453539Y-117998267D01*
X68461564Y-118059218D01*
X68465350Y-118081252D01*
X68861417Y-120316051D01*
X68874187Y-120376131D01*
X68886349Y-120436446D01*
X68891626Y-120458172D01*
X69438774Y-122660857D01*
X69455615Y-122719978D01*
X69471838Y-122779278D01*
X69478580Y-122800595D01*
X70174279Y-124960965D01*
X70195089Y-125018768D01*
X70215321Y-125076864D01*
X70223497Y-125097673D01*
X71064524Y-127205721D01*
X71089223Y-127261986D01*
X71113353Y-127318558D01*
X71122925Y-127338763D01*
X72105383Y-129384728D01*
X72133876Y-129439230D01*
X72161775Y-129493984D01*
X72172699Y-129513491D01*
X73292039Y-131487895D01*
X73324148Y-131540292D01*
X73355730Y-131593062D01*
X73367946Y-131611765D01*
X73367956Y-131611781D01*
X73367965Y-131611794D01*
X74618993Y-133505480D01*
X74654588Y-133555567D01*
X74689690Y-133606072D01*
X74703161Y-133623916D01*
X76080102Y-135428141D01*
X76119037Y-135475710D01*
X76157477Y-135523691D01*
X76172130Y-135540577D01*
X77668597Y-137246971D01*
X77710680Y-137291786D01*
X77752292Y-137337038D01*
X77768059Y-137352888D01*
X79377123Y-138953548D01*
X79422134Y-138995375D01*
X79466750Y-139037714D01*
X79483559Y-139052455D01*
X81197765Y-140539967D01*
X81245524Y-140578641D01*
X81292909Y-140617841D01*
X81310682Y-140631405D01*
X83122091Y-141998880D01*
X83172410Y-142034245D01*
X83222312Y-142070103D01*
X83240942Y-142082410D01*
X83240966Y-142082427D01*
X83240987Y-142082440D01*
X85141190Y-143323531D01*
X85193713Y-143355340D01*
X85246022Y-143387773D01*
X85265471Y-143398799D01*
X87245709Y-144507786D01*
X87300307Y-144535966D01*
X87354669Y-144564749D01*
X87374823Y-144574426D01*
X89425904Y-145546159D01*
X89482329Y-145570576D01*
X89538485Y-145595578D01*
X89559251Y-145603863D01*
X91671674Y-146433840D01*
X91729612Y-146454357D01*
X91787355Y-146475488D01*
X91808636Y-146482341D01*
X93972620Y-147166719D01*
X94031818Y-147183247D01*
X94090866Y-147200402D01*
X94112564Y-147205792D01*
X96318085Y-147741401D01*
X96378213Y-147753853D01*
X96438348Y-147766964D01*
X96460362Y-147770865D01*
X98697204Y-148155224D01*
X98758068Y-148163561D01*
X98818927Y-148172548D01*
X98841156Y-148174943D01*
X101098960Y-148406274D01*
X101160258Y-148410453D01*
X101221581Y-148415279D01*
X101243919Y-148416157D01*
X101243921Y-148416157D01*
X103512231Y-148493386D01*
X103657528Y-148493386D01*
X103802488Y-148483504D01*
X103946440Y-148463784D01*
X104039360Y-148444541D01*
X321817276Y-148414753D01*
X321950990Y-148447967D01*
X322094058Y-148473322D01*
X322238518Y-148488889D01*
X322383703Y-148494593D01*
X322406060Y-148494593D01*
X322755294Y-148492764D01*
X322786011Y-148491557D01*
X322816761Y-148491557D01*
X322839101Y-148490679D01*
X325106478Y-148389701D01*
X325167761Y-148384878D01*
X325229099Y-148380696D01*
X325251328Y-148378301D01*
X327506586Y-148123340D01*
X327567400Y-148114360D01*
X327628309Y-148106016D01*
X327650318Y-148102116D01*
X327650324Y-148102115D01*
X327650329Y-148102114D01*
X329883018Y-147694353D01*
X329943056Y-147681262D01*
X330003282Y-147668790D01*
X330024980Y-147663400D01*
X332224769Y-147104724D01*
X332283755Y-147087587D01*
X332343016Y-147071041D01*
X332364297Y-147064188D01*
X334520995Y-146357186D01*
X334578689Y-146336073D01*
X334636676Y-146315539D01*
X334657431Y-146307258D01*
X334657443Y-146307254D01*
X334657453Y-146307250D01*
X336761058Y-145455202D01*
X336817212Y-145430201D01*
X336873639Y-145405782D01*
X336893780Y-145396110D01*
X336893794Y-145396104D01*
X336893805Y-145396098D01*
X338934585Y-144402947D01*
X338988856Y-144374213D01*
X339043545Y-144345985D01*
X339062994Y-144334959D01*
X341031511Y-143205296D01*
X341083773Y-143172892D01*
X341136343Y-143141054D01*
X341154997Y-143128731D01*
X343042120Y-141867796D01*
X343092003Y-141831951D01*
X343142341Y-141796573D01*
X343160113Y-141783009D01*
X344957105Y-140396640D01*
X345004479Y-140357449D01*
X345052249Y-140318765D01*
X345069058Y-140304024D01*
X346767593Y-138798642D01*
X346812206Y-138756306D01*
X346857219Y-138714477D01*
X346872987Y-138698627D01*
X348465200Y-137081206D01*
X348506812Y-137035954D01*
X348548895Y-136991139D01*
X348563548Y-136974253D01*
X350042064Y-135252282D01*
X350080480Y-135204331D01*
X350119440Y-135156731D01*
X350132910Y-135138888D01*
X351490882Y-133320342D01*
X351525939Y-133269901D01*
X351561579Y-133219751D01*
X351573804Y-133201032D01*
X352804943Y-131294336D01*
X352836503Y-131241604D01*
X352868636Y-131189168D01*
X352879551Y-131169677D01*
X352879560Y-131169662D01*
X352879566Y-131169649D01*
X353978163Y-129183643D01*
X354006048Y-129128916D01*
X354034554Y-129074388D01*
X354044126Y-129054183D01*
X355005105Y-126998043D01*
X355029216Y-126941516D01*
X355053935Y-126885205D01*
X355062098Y-126864426D01*
X355062111Y-126864396D01*
X355062120Y-126864370D01*
X355881015Y-124747656D01*
X355901224Y-124689626D01*
X355922057Y-124631758D01*
X355928799Y-124610441D01*
X356601837Y-122442904D01*
X356618074Y-122383553D01*
X356634900Y-122324483D01*
X356640168Y-122302790D01*
X356640177Y-122302757D01*
X356640183Y-122302729D01*
X357164230Y-120094464D01*
X357176373Y-120034241D01*
X357189163Y-119974067D01*
X357192950Y-119952033D01*
X357565591Y-117713210D01*
X357573610Y-117652306D01*
X357582278Y-117591397D01*
X357584557Y-117569156D01*
X357804062Y-115310170D01*
X357807923Y-115248801D01*
X357812424Y-115187506D01*
X357813185Y-115165162D01*
X357878537Y-112896479D01*
X357878215Y-112835004D01*
X357878537Y-112773528D01*
X357877776Y-112751184D01*
X357788671Y-110483308D01*
X357784171Y-110422025D01*
X357780309Y-110360642D01*
X357778030Y-110338401D01*
X357534881Y-108081840D01*
X357526217Y-108020965D01*
X357518194Y-107960027D01*
X357514408Y-107937992D01*
X357118341Y-105703193D01*
X357105572Y-105643121D01*
X357093409Y-105582798D01*
X357088132Y-105561072D01*
X356540983Y-103358387D01*
X356524157Y-103299317D01*
X356507920Y-103239966D01*
X356501178Y-103218649D01*
X355805479Y-101058279D01*
X355784669Y-101000477D01*
X355764437Y-100942380D01*
X355756261Y-100921571D01*
X354915234Y-98813523D01*
X354890535Y-98757258D01*
X354866405Y-98700686D01*
X354856833Y-98680482D01*
X353874375Y-96634516D01*
X353845882Y-96580014D01*
X353817983Y-96525260D01*
X353807059Y-96505753D01*
X352687719Y-94531349D01*
X352655610Y-94478952D01*
X352624028Y-94426182D01*
X352611812Y-94407479D01*
X352611802Y-94407463D01*
X352611793Y-94407450D01*
X351360765Y-92513764D01*
X351325170Y-92463677D01*
X351290068Y-92413172D01*
X351276597Y-92395328D01*
X349899656Y-90591103D01*
X349860705Y-90543514D01*
X349822281Y-90495553D01*
X349807642Y-90478684D01*
X349807628Y-90478666D01*
X349807615Y-90478652D01*
X348311161Y-88772273D01*
X348269118Y-88727502D01*
X348227466Y-88682206D01*
X348211699Y-88666356D01*
X346602636Y-87065696D01*
X346557597Y-87023843D01*
X346513008Y-86981530D01*
X346496199Y-86966789D01*
X344781993Y-85479277D01*
X344734214Y-85440586D01*
X344686849Y-85401403D01*
X344669076Y-85387839D01*
X342857666Y-84020364D01*
X342807374Y-83985018D01*
X342757446Y-83949141D01*
X342738816Y-83936834D01*
X342738792Y-83936817D01*
X342738771Y-83936804D01*
X340838568Y-82695713D01*
X340786045Y-82663904D01*
X340733736Y-82631471D01*
X340714286Y-82620445D01*
X338734049Y-81511458D01*
X338679408Y-81483256D01*
X338625089Y-81454496D01*
X338604935Y-81444818D01*
X336553854Y-80473086D01*
X336497475Y-80448688D01*
X336441273Y-80423666D01*
X336420508Y-80415381D01*
X334308084Y-79585404D01*
X334250110Y-79564874D01*
X334192403Y-79543757D01*
X334171122Y-79536903D01*
X332007139Y-78852525D01*
X331947916Y-78835990D01*
X331888892Y-78818842D01*
X331867194Y-78813452D01*
X329661674Y-78277843D01*
X329601517Y-78265385D01*
X329541410Y-78252280D01*
X329519402Y-78248380D01*
X329519396Y-78248379D01*
X329519391Y-78248378D01*
X327282554Y-77864020D01*
X327221690Y-77855683D01*
X327160831Y-77846696D01*
X327138603Y-77844301D01*
X324880798Y-77612970D01*
X324819500Y-77608791D01*
X324758177Y-77603965D01*
X324735839Y-77603087D01*
X324735837Y-77603087D01*
X322738580Y-77535087D01*
X322534865Y-77494594D01*
X102794308Y-77524651D01*
X102669154Y-77549563D01*
X100873280Y-77629543D01*
X100811994Y-77634366D01*
X100750659Y-77638548D01*
X100728430Y-77640943D01*
X98473172Y-77895904D01*
X98412358Y-77904884D01*
X98351449Y-77913228D01*
X98329440Y-77917128D01*
X98329434Y-77917129D01*
X98329429Y-77917130D01*
X96096741Y-78324891D01*
X96036683Y-78337986D01*
X95976476Y-78350454D01*
X95954778Y-78355844D01*
X93754988Y-78914520D01*
X93695963Y-78931669D01*
X93636743Y-78948203D01*
X93615462Y-78955056D01*
X91458763Y-79662057D01*
X91401033Y-79683183D01*
X91343082Y-79703705D01*
X91322316Y-79711990D01*
X89218700Y-80564042D01*
X89162546Y-80589043D01*
X89106119Y-80613462D01*
X89085978Y-80623134D01*
X89085964Y-80623140D01*
X89085953Y-80623146D01*
X87045173Y-81616297D01*
X86990902Y-81645031D01*
X86936213Y-81673259D01*
X86916764Y-81684285D01*
X84948247Y-82813948D01*
X84895985Y-82846352D01*
X84843415Y-82878190D01*
X84824760Y-82890513D01*
X82937638Y-84151448D01*
X82887710Y-84187325D01*
X82837418Y-84222671D01*
X82819661Y-84236223D01*
X82819644Y-84236235D01*
X82819630Y-84236246D01*
X81022654Y-85622604D01*
X80975307Y-85661773D01*
X80927509Y-85700479D01*
X80910700Y-85715220D01*
X79212165Y-87220602D01*
X79167552Y-87262938D01*
X79122539Y-87304767D01*
X79106771Y-87320617D01*
X77514558Y-88938038D01*
X77472946Y-88983290D01*
X77430863Y-89028105D01*
X77416210Y-89044991D01*
X75937694Y-90766962D01*
X75899278Y-90814913D01*
X75860318Y-90862513D01*
X75846848Y-90880356D01*
X74488876Y-92698902D01*
X74453819Y-92749343D01*
X74418179Y-92799493D01*
X74405954Y-92818212D01*
X73174815Y-94724908D01*
X73143242Y-94777662D01*
X73111123Y-94830076D01*
X73100198Y-94849582D01*
X72001595Y-96835601D01*
X71973710Y-96890328D01*
X71945204Y-96944856D01*
X71935632Y-96965061D01*
X70974653Y-99021201D01*
X70950542Y-99077728D01*
X70925823Y-99134039D01*
X70917660Y-99154818D01*
X70917647Y-99154848D01*
X70917638Y-99154874D01*
X70098743Y-101271588D01*
X70078534Y-101329618D01*
X70057701Y-101387486D01*
X70050959Y-101408803D01*
X69377921Y-103576340D01*
X69361684Y-103635691D01*
X69344858Y-103694761D01*
X69339581Y-103716487D01*
X68815528Y-105924781D01*
X68803377Y-105985040D01*
X68790595Y-106045177D01*
X68786808Y-106067212D01*
X68414166Y-108306034D01*
X68406142Y-108366986D01*
X68397480Y-108427847D01*
X68395206Y-108450054D01*
X68395201Y-108450088D01*
X68395199Y-108450117D01*
X68175696Y-110709073D01*
X68171835Y-110770446D01*
X68167334Y-110831738D01*
X68166573Y-110854082D01*
X68101221Y-113122765D01*
X61252916Y-113122765D01*
X61252916Y-74904956D01*
X62397504Y-74904956D01*
X62397504Y-76032790D01*
X62829107Y-77074772D01*
X63626605Y-77872270D01*
X64668587Y-78303873D01*
X65796421Y-78303873D01*
X66838403Y-77872270D01*
X67635901Y-77074772D01*
X68067504Y-76032790D01*
X68067504Y-74904956D01*
X357912255Y-74904956D01*
X357912255Y-76032790D01*
X358343858Y-77074772D01*
X359141356Y-77872270D01*
X360183338Y-78303873D01*
X361311172Y-78303873D01*
X362353154Y-77872270D01*
X363150652Y-77074772D01*
X363582255Y-76032790D01*
X363582255Y-74904956D01*
X363150652Y-73862974D01*
X362353154Y-73065476D01*
X361311172Y-72633873D01*
X360183338Y-72633873D01*
X359141356Y-73065476D01*
X358343858Y-73862974D01*
X357912255Y-74904956D01*
X68067504Y-74904956D01*
X67635901Y-73862974D01*
X66838403Y-73065476D01*
X65796421Y-72633873D01*
X64668587Y-72633873D01*
X63626605Y-73065476D01*
X62829107Y-73862974D01*
X62397504Y-74904956D01*
X61252916Y-74904956D01*
X61252916Y-56583243D01*
X62397504Y-56583243D01*
X62397504Y-57711077D01*
X62829107Y-58753059D01*
X63626605Y-59550557D01*
X64668587Y-59982160D01*
X65796421Y-59982160D01*
X66838403Y-59550557D01*
X67635901Y-58753059D01*
X68067504Y-57711077D01*
X68067504Y-56583243D01*
X357912255Y-56583243D01*
X357912255Y-57711077D01*
X358343858Y-58753059D01*
X359141356Y-59550557D01*
X360183338Y-59982160D01*
X361311172Y-59982160D01*
X362353154Y-59550557D01*
X363150652Y-58753059D01*
X363582255Y-57711077D01*
X363582255Y-56583243D01*
X363150652Y-55541261D01*
X362353154Y-54743763D01*
X361311172Y-54312160D01*
X360183338Y-54312160D01*
X359141356Y-54743763D01*
X358343858Y-55541261D01*
X357912255Y-56583243D01*
X68067504Y-56583243D01*
X67635901Y-55541261D01*
X66838403Y-54743763D01*
X65796421Y-54312160D01*
X64668587Y-54312160D01*
X63626605Y-54743763D01*
X62829107Y-55541261D01*
X62397504Y-56583243D01*
X61252916Y-56583243D01*
X61252916Y-56287889D01*
X61317579Y-55692658D01*
X61496216Y-55161847D01*
X61784668Y-54681784D01*
X62169477Y-54274860D01*
X62632690Y-53960061D01*
X63152698Y-53752072D01*
X63733579Y-53655908D01*
X63859880Y-53652380D01*
X362091334Y-53652380D01*
X362686565Y-53717043D01*
X362686565Y-53717043D01*
G37*
X362686565Y-53717043D02*
X363217376Y-53895680D01*
X363697439Y-54184132D01*
X364104363Y-54568941D01*
X364419162Y-55032154D01*
X364627151Y-55552162D01*
X364723315Y-56133043D01*
X364726843Y-56259344D01*
X364726844Y-172404331D01*
X364662180Y-172999570D01*
X364483543Y-173530382D01*
X364195092Y-174010444D01*
X363810282Y-174417369D01*
X363347069Y-174732168D01*
X362827061Y-174940157D01*
X362246180Y-175036321D01*
X362119879Y-175039849D01*
X63891109Y-175039849D01*
X63295493Y-174975691D01*
X62764519Y-174797534D01*
X62284197Y-174509521D01*
X61876919Y-174125077D01*
X61561701Y-173662151D01*
X61353241Y-173142332D01*
X61256550Y-172561538D01*
X61252916Y-172435550D01*
X61252916Y-155830673D01*
X100507422Y-155830673D01*
X100507422Y-156958507D01*
X100939025Y-158000489D01*
X101736523Y-158797987D01*
X102778505Y-159229590D01*
X103906339Y-159229590D01*
X104948321Y-158797987D01*
X105745819Y-158000489D01*
X106177422Y-156958507D01*
X106177422Y-155830673D01*
X319802337Y-155830673D01*
X319802337Y-156958507D01*
X320233940Y-158000489D01*
X321031438Y-158797987D01*
X322073420Y-159229590D01*
X323201254Y-159229590D01*
X324243236Y-158797987D01*
X325040734Y-158000489D01*
X325472337Y-156958507D01*
X325472337Y-155830673D01*
X325040734Y-154788691D01*
X324243236Y-153991193D01*
X323201254Y-153559590D01*
X322073420Y-153559590D01*
X321031438Y-153991193D01*
X320233940Y-154788691D01*
X319802337Y-155830673D01*
X106177422Y-155830673D01*
X105745819Y-154788691D01*
X104948321Y-153991193D01*
X103906339Y-153559590D01*
X102778505Y-153559590D01*
X101736523Y-153991193D01*
X100939025Y-154788691D01*
X100507422Y-155830673D01*
X61252916Y-155830673D01*
X61252916Y-113122765D01*
X68101221Y-113122765D01*
X68101543Y-113184241D01*
X68101221Y-113245716D01*
X68101982Y-113268061D01*
X68191087Y-115535936D01*
X68195587Y-115597222D01*
X68199449Y-115658602D01*
X68201728Y-115680842D01*
X68444877Y-117937404D01*
X68453539Y-117998267D01*
X68461564Y-118059218D01*
X68465350Y-118081252D01*
X68861417Y-120316051D01*
X68874187Y-120376131D01*
X68886349Y-120436446D01*
X68891626Y-120458172D01*
X69438774Y-122660857D01*
X69455615Y-122719978D01*
X69471838Y-122779278D01*
X69478580Y-122800595D01*
X70174279Y-124960965D01*
X70195089Y-125018768D01*
X70215321Y-125076864D01*
X70223497Y-125097673D01*
X71064524Y-127205721D01*
X71089223Y-127261986D01*
X71113353Y-127318558D01*
X71122925Y-127338763D01*
X72105383Y-129384728D01*
X72133876Y-129439230D01*
X72161775Y-129493984D01*
X72172699Y-129513491D01*
X73292039Y-131487895D01*
X73324148Y-131540292D01*
X73355730Y-131593062D01*
X73367946Y-131611765D01*
X73367956Y-131611781D01*
X73367965Y-131611794D01*
X74618993Y-133505480D01*
X74654588Y-133555567D01*
X74689690Y-133606072D01*
X74703161Y-133623916D01*
X76080102Y-135428141D01*
X76119037Y-135475710D01*
X76157477Y-135523691D01*
X76172130Y-135540577D01*
X77668597Y-137246971D01*
X77710680Y-137291786D01*
X77752292Y-137337038D01*
X77768059Y-137352888D01*
X79377123Y-138953548D01*
X79422134Y-138995375D01*
X79466750Y-139037714D01*
X79483559Y-139052455D01*
X81197765Y-140539967D01*
X81245524Y-140578641D01*
X81292909Y-140617841D01*
X81310682Y-140631405D01*
X83122091Y-141998880D01*
X83172410Y-142034245D01*
X83222312Y-142070103D01*
X83240942Y-142082410D01*
X83240966Y-142082427D01*
X83240987Y-142082440D01*
X85141190Y-143323531D01*
X85193713Y-143355340D01*
X85246022Y-143387773D01*
X85265471Y-143398799D01*
X87245709Y-144507786D01*
X87300307Y-144535966D01*
X87354669Y-144564749D01*
X87374823Y-144574426D01*
X89425904Y-145546159D01*
X89482329Y-145570576D01*
X89538485Y-145595578D01*
X89559251Y-145603863D01*
X91671674Y-146433840D01*
X91729612Y-146454357D01*
X91787355Y-146475488D01*
X91808636Y-146482341D01*
X93972620Y-147166719D01*
X94031818Y-147183247D01*
X94090866Y-147200402D01*
X94112564Y-147205792D01*
X96318085Y-147741401D01*
X96378213Y-147753853D01*
X96438348Y-147766964D01*
X96460362Y-147770865D01*
X98697204Y-148155224D01*
X98758068Y-148163561D01*
X98818927Y-148172548D01*
X98841156Y-148174943D01*
X101098960Y-148406274D01*
X101160258Y-148410453D01*
X101221581Y-148415279D01*
X101243919Y-148416157D01*
X101243921Y-148416157D01*
X103512231Y-148493386D01*
X103657528Y-148493386D01*
X103802488Y-148483504D01*
X103946440Y-148463784D01*
X104039360Y-148444541D01*
X321817276Y-148414753D01*
X321950990Y-148447967D01*
X322094058Y-148473322D01*
X322238518Y-148488889D01*
X322383703Y-148494593D01*
X322406060Y-148494593D01*
X322755294Y-148492764D01*
X322786011Y-148491557D01*
X322816761Y-148491557D01*
X322839101Y-148490679D01*
X325106478Y-148389701D01*
X325167761Y-148384878D01*
X325229099Y-148380696D01*
X325251328Y-148378301D01*
X327506586Y-148123340D01*
X327567400Y-148114360D01*
X327628309Y-148106016D01*
X327650318Y-148102116D01*
X327650324Y-148102115D01*
X327650329Y-148102114D01*
X329883018Y-147694353D01*
X329943056Y-147681262D01*
X330003282Y-147668790D01*
X330024980Y-147663400D01*
X332224769Y-147104724D01*
X332283755Y-147087587D01*
X332343016Y-147071041D01*
X332364297Y-147064188D01*
X334520995Y-146357186D01*
X334578689Y-146336073D01*
X334636676Y-146315539D01*
X334657431Y-146307258D01*
X334657443Y-146307254D01*
X334657453Y-146307250D01*
X336761058Y-145455202D01*
X336817212Y-145430201D01*
X336873639Y-145405782D01*
X336893780Y-145396110D01*
X336893794Y-145396104D01*
X336893805Y-145396098D01*
X338934585Y-144402947D01*
X338988856Y-144374213D01*
X339043545Y-144345985D01*
X339062994Y-144334959D01*
X341031511Y-143205296D01*
X341083773Y-143172892D01*
X341136343Y-143141054D01*
X341154997Y-143128731D01*
X343042120Y-141867796D01*
X343092003Y-141831951D01*
X343142341Y-141796573D01*
X343160113Y-141783009D01*
X344957105Y-140396640D01*
X345004479Y-140357449D01*
X345052249Y-140318765D01*
X345069058Y-140304024D01*
X346767593Y-138798642D01*
X346812206Y-138756306D01*
X346857219Y-138714477D01*
X346872987Y-138698627D01*
X348465200Y-137081206D01*
X348506812Y-137035954D01*
X348548895Y-136991139D01*
X348563548Y-136974253D01*
X350042064Y-135252282D01*
X350080480Y-135204331D01*
X350119440Y-135156731D01*
X350132910Y-135138888D01*
X351490882Y-133320342D01*
X351525939Y-133269901D01*
X351561579Y-133219751D01*
X351573804Y-133201032D01*
X352804943Y-131294336D01*
X352836503Y-131241604D01*
X352868636Y-131189168D01*
X352879551Y-131169677D01*
X352879560Y-131169662D01*
X352879566Y-131169649D01*
X353978163Y-129183643D01*
X354006048Y-129128916D01*
X354034554Y-129074388D01*
X354044126Y-129054183D01*
X355005105Y-126998043D01*
X355029216Y-126941516D01*
X355053935Y-126885205D01*
X355062098Y-126864426D01*
X355062111Y-126864396D01*
X355062120Y-126864370D01*
X355881015Y-124747656D01*
X355901224Y-124689626D01*
X355922057Y-124631758D01*
X355928799Y-124610441D01*
X356601837Y-122442904D01*
X356618074Y-122383553D01*
X356634900Y-122324483D01*
X356640168Y-122302790D01*
X356640177Y-122302757D01*
X356640183Y-122302729D01*
X357164230Y-120094464D01*
X357176373Y-120034241D01*
X357189163Y-119974067D01*
X357192950Y-119952033D01*
X357565591Y-117713210D01*
X357573610Y-117652306D01*
X357582278Y-117591397D01*
X357584557Y-117569156D01*
X357804062Y-115310170D01*
X357807923Y-115248801D01*
X357812424Y-115187506D01*
X357813185Y-115165162D01*
X357878537Y-112896479D01*
X357878215Y-112835004D01*
X357878537Y-112773528D01*
X357877776Y-112751184D01*
X357788671Y-110483308D01*
X357784171Y-110422025D01*
X357780309Y-110360642D01*
X357778030Y-110338401D01*
X357534881Y-108081840D01*
X357526217Y-108020965D01*
X357518194Y-107960027D01*
X357514408Y-107937992D01*
X357118341Y-105703193D01*
X357105572Y-105643121D01*
X357093409Y-105582798D01*
X357088132Y-105561072D01*
X356540983Y-103358387D01*
X356524157Y-103299317D01*
X356507920Y-103239966D01*
X356501178Y-103218649D01*
X355805479Y-101058279D01*
X355784669Y-101000477D01*
X355764437Y-100942380D01*
X355756261Y-100921571D01*
X354915234Y-98813523D01*
X354890535Y-98757258D01*
X354866405Y-98700686D01*
X354856833Y-98680482D01*
X353874375Y-96634516D01*
X353845882Y-96580014D01*
X353817983Y-96525260D01*
X353807059Y-96505753D01*
X352687719Y-94531349D01*
X352655610Y-94478952D01*
X352624028Y-94426182D01*
X352611812Y-94407479D01*
X352611802Y-94407463D01*
X352611793Y-94407450D01*
X351360765Y-92513764D01*
X351325170Y-92463677D01*
X351290068Y-92413172D01*
X351276597Y-92395328D01*
X349899656Y-90591103D01*
X349860705Y-90543514D01*
X349822281Y-90495553D01*
X349807642Y-90478684D01*
X349807628Y-90478666D01*
X349807615Y-90478652D01*
X348311161Y-88772273D01*
X348269118Y-88727502D01*
X348227466Y-88682206D01*
X348211699Y-88666356D01*
X346602636Y-87065696D01*
X346557597Y-87023843D01*
X346513008Y-86981530D01*
X346496199Y-86966789D01*
X344781993Y-85479277D01*
X344734214Y-85440586D01*
X344686849Y-85401403D01*
X344669076Y-85387839D01*
X342857666Y-84020364D01*
X342807374Y-83985018D01*
X342757446Y-83949141D01*
X342738816Y-83936834D01*
X342738792Y-83936817D01*
X342738771Y-83936804D01*
X340838568Y-82695713D01*
X340786045Y-82663904D01*
X340733736Y-82631471D01*
X340714286Y-82620445D01*
X338734049Y-81511458D01*
X338679408Y-81483256D01*
X338625089Y-81454496D01*
X338604935Y-81444818D01*
X336553854Y-80473086D01*
X336497475Y-80448688D01*
X336441273Y-80423666D01*
X336420508Y-80415381D01*
X334308084Y-79585404D01*
X334250110Y-79564874D01*
X334192403Y-79543757D01*
X334171122Y-79536903D01*
X332007139Y-78852525D01*
X331947916Y-78835990D01*
X331888892Y-78818842D01*
X331867194Y-78813452D01*
X329661674Y-78277843D01*
X329601517Y-78265385D01*
X329541410Y-78252280D01*
X329519402Y-78248380D01*
X329519396Y-78248379D01*
X329519391Y-78248378D01*
X327282554Y-77864020D01*
X327221690Y-77855683D01*
X327160831Y-77846696D01*
X327138603Y-77844301D01*
X324880798Y-77612970D01*
X324819500Y-77608791D01*
X324758177Y-77603965D01*
X324735839Y-77603087D01*
X324735837Y-77603087D01*
X322738580Y-77535087D01*
X322534865Y-77494594D01*
X102794308Y-77524651D01*
X102669154Y-77549563D01*
X100873280Y-77629543D01*
X100811994Y-77634366D01*
X100750659Y-77638548D01*
X100728430Y-77640943D01*
X98473172Y-77895904D01*
X98412358Y-77904884D01*
X98351449Y-77913228D01*
X98329440Y-77917128D01*
X98329434Y-77917129D01*
X98329429Y-77917130D01*
X96096741Y-78324891D01*
X96036683Y-78337986D01*
X95976476Y-78350454D01*
X95954778Y-78355844D01*
X93754988Y-78914520D01*
X93695963Y-78931669D01*
X93636743Y-78948203D01*
X93615462Y-78955056D01*
X91458763Y-79662057D01*
X91401033Y-79683183D01*
X91343082Y-79703705D01*
X91322316Y-79711990D01*
X89218700Y-80564042D01*
X89162546Y-80589043D01*
X89106119Y-80613462D01*
X89085978Y-80623134D01*
X89085964Y-80623140D01*
X89085953Y-80623146D01*
X87045173Y-81616297D01*
X86990902Y-81645031D01*
X86936213Y-81673259D01*
X86916764Y-81684285D01*
X84948247Y-82813948D01*
X84895985Y-82846352D01*
X84843415Y-82878190D01*
X84824760Y-82890513D01*
X82937638Y-84151448D01*
X82887710Y-84187325D01*
X82837418Y-84222671D01*
X82819661Y-84236223D01*
X82819644Y-84236235D01*
X82819630Y-84236246D01*
X81022654Y-85622604D01*
X80975307Y-85661773D01*
X80927509Y-85700479D01*
X80910700Y-85715220D01*
X79212165Y-87220602D01*
X79167552Y-87262938D01*
X79122539Y-87304767D01*
X79106771Y-87320617D01*
X77514558Y-88938038D01*
X77472946Y-88983290D01*
X77430863Y-89028105D01*
X77416210Y-89044991D01*
X75937694Y-90766962D01*
X75899278Y-90814913D01*
X75860318Y-90862513D01*
X75846848Y-90880356D01*
X74488876Y-92698902D01*
X74453819Y-92749343D01*
X74418179Y-92799493D01*
X74405954Y-92818212D01*
X73174815Y-94724908D01*
X73143242Y-94777662D01*
X73111123Y-94830076D01*
X73100198Y-94849582D01*
X72001595Y-96835601D01*
X71973710Y-96890328D01*
X71945204Y-96944856D01*
X71935632Y-96965061D01*
X70974653Y-99021201D01*
X70950542Y-99077728D01*
X70925823Y-99134039D01*
X70917660Y-99154818D01*
X70917647Y-99154848D01*
X70917638Y-99154874D01*
X70098743Y-101271588D01*
X70078534Y-101329618D01*
X70057701Y-101387486D01*
X70050959Y-101408803D01*
X69377921Y-103576340D01*
X69361684Y-103635691D01*
X69344858Y-103694761D01*
X69339581Y-103716487D01*
X68815528Y-105924781D01*
X68803377Y-105985040D01*
X68790595Y-106045177D01*
X68786808Y-106067212D01*
X68414166Y-108306034D01*
X68406142Y-108366986D01*
X68397480Y-108427847D01*
X68395206Y-108450054D01*
X68395201Y-108450088D01*
X68395199Y-108450117D01*
X68175696Y-110709073D01*
X68171835Y-110770446D01*
X68167334Y-110831738D01*
X68166573Y-110854082D01*
X68101221Y-113122765D01*
X61252916Y-113122765D01*
X61252916Y-74904956D01*
X62397504Y-74904956D01*
X62397504Y-76032790D01*
X62829107Y-77074772D01*
X63626605Y-77872270D01*
X64668587Y-78303873D01*
X65796421Y-78303873D01*
X66838403Y-77872270D01*
X67635901Y-77074772D01*
X68067504Y-76032790D01*
X68067504Y-74904956D01*
X357912255Y-74904956D01*
X357912255Y-76032790D01*
X358343858Y-77074772D01*
X359141356Y-77872270D01*
X360183338Y-78303873D01*
X361311172Y-78303873D01*
X362353154Y-77872270D01*
X363150652Y-77074772D01*
X363582255Y-76032790D01*
X363582255Y-74904956D01*
X363150652Y-73862974D01*
X362353154Y-73065476D01*
X361311172Y-72633873D01*
X360183338Y-72633873D01*
X359141356Y-73065476D01*
X358343858Y-73862974D01*
X357912255Y-74904956D01*
X68067504Y-74904956D01*
X67635901Y-73862974D01*
X66838403Y-73065476D01*
X65796421Y-72633873D01*
X64668587Y-72633873D01*
X63626605Y-73065476D01*
X62829107Y-73862974D01*
X62397504Y-74904956D01*
X61252916Y-74904956D01*
X61252916Y-56583243D01*
X62397504Y-56583243D01*
X62397504Y-57711077D01*
X62829107Y-58753059D01*
X63626605Y-59550557D01*
X64668587Y-59982160D01*
X65796421Y-59982160D01*
X66838403Y-59550557D01*
X67635901Y-58753059D01*
X68067504Y-57711077D01*
X68067504Y-56583243D01*
X357912255Y-56583243D01*
X357912255Y-57711077D01*
X358343858Y-58753059D01*
X359141356Y-59550557D01*
X360183338Y-59982160D01*
X361311172Y-59982160D01*
X362353154Y-59550557D01*
X363150652Y-58753059D01*
X363582255Y-57711077D01*
X363582255Y-56583243D01*
X363150652Y-55541261D01*
X362353154Y-54743763D01*
X361311172Y-54312160D01*
X360183338Y-54312160D01*
X359141356Y-54743763D01*
X358343858Y-55541261D01*
X357912255Y-56583243D01*
X68067504Y-56583243D01*
X67635901Y-55541261D01*
X66838403Y-54743763D01*
X65796421Y-54312160D01*
X64668587Y-54312160D01*
X63626605Y-54743763D01*
X62829107Y-55541261D01*
X62397504Y-56583243D01*
X61252916Y-56583243D01*
X61252916Y-56287889D01*
X61317579Y-55692658D01*
X61496216Y-55161847D01*
X61784668Y-54681784D01*
X62169477Y-54274860D01*
X62632690Y-53960061D01*
X63152698Y-53752072D01*
X63733579Y-53655908D01*
X63859880Y-53652380D01*
X362091334Y-53652380D01*
X362686565Y-53717043D01*
G04 #@! TD*
M02*
