G04 #@! TF.GenerationSoftware,KiCad,Pcbnew,(5.1.5)-3*
G04 #@! TF.CreationDate,2020-06-26T11:59:49-04:00*
G04 #@! TF.ProjectId,discipline-pcb,64697363-6970-46c6-996e-652d7063622e,rev?*
G04 #@! TF.SameCoordinates,Original*
G04 #@! TF.FileFunction,Copper,L2,Bot*
G04 #@! TF.FilePolarity,Positive*
%FSLAX46Y46*%
G04 Gerber Fmt 4.6, Leading zero omitted, Abs format (unit mm)*
G04 Created by KiCad (PCBNEW (5.1.5)-3) date 2020-06-26 11:59:49*
%MOMM*%
%LPD*%
G04 APERTURE LIST*
%ADD10C,4.400000*%
%ADD11C,0.800000*%
%ADD12C,0.254000*%
G04 APERTURE END LIST*
D10*
X206213345Y-92373872D03*
X81973322Y-92373872D03*
X330453369Y-92373872D03*
X206213345Y-166958110D03*
X206213345Y-61694750D03*
X206213345Y-80444750D03*
X206213345Y-104302994D03*
X298671968Y-104302994D03*
X113754723Y-104302994D03*
X315860803Y-161146960D03*
X96565888Y-161146960D03*
X354660309Y-80444750D03*
X354660309Y-61694750D03*
X57766382Y-61694750D03*
X57766382Y-80444750D03*
D11*
X113753900Y-119024400D03*
D12*
G36*
X355857023Y-58457549D02*
G01*
X356341617Y-58603858D01*
X356788558Y-58841499D01*
X357180827Y-59161427D01*
X357503489Y-59551460D01*
X357744243Y-59996725D01*
X357893929Y-60480280D01*
X357950309Y-61016706D01*
X357950310Y-177160421D01*
X357897510Y-177698933D01*
X357751201Y-178183527D01*
X357513561Y-178630465D01*
X357193631Y-179022738D01*
X356803602Y-179345398D01*
X356358336Y-179586153D01*
X355874777Y-179735839D01*
X355338353Y-179792219D01*
X57110854Y-179792219D01*
X56571973Y-179739875D01*
X56087250Y-179594007D01*
X55640094Y-179356771D01*
X55247533Y-179037198D01*
X54924519Y-178647462D01*
X54683359Y-178202411D01*
X54533234Y-177718990D01*
X54476382Y-177182752D01*
X54476382Y-168947885D01*
X204403175Y-168947885D01*
X204643321Y-169335128D01*
X205137222Y-169595751D01*
X205672478Y-169755011D01*
X206228519Y-169806788D01*
X206783977Y-169749091D01*
X207317506Y-169584138D01*
X207783369Y-169335128D01*
X208023515Y-168947885D01*
X206213345Y-167137715D01*
X204403175Y-168947885D01*
X54476382Y-168947885D01*
X54476382Y-166973284D01*
X203364667Y-166973284D01*
X203422364Y-167528742D01*
X203587317Y-168062271D01*
X203836327Y-168528134D01*
X204223570Y-168768280D01*
X206033740Y-166958110D01*
X206392950Y-166958110D01*
X208203120Y-168768280D01*
X208590363Y-168528134D01*
X208850986Y-168034233D01*
X209010246Y-167498977D01*
X209062023Y-166942936D01*
X209004326Y-166387478D01*
X208839373Y-165853949D01*
X208590363Y-165388086D01*
X208203120Y-165147940D01*
X206392950Y-166958110D01*
X206033740Y-166958110D01*
X204223570Y-165147940D01*
X203836327Y-165388086D01*
X203575704Y-165881987D01*
X203416444Y-166417243D01*
X203364667Y-166973284D01*
X54476382Y-166973284D01*
X54476382Y-164968335D01*
X204403175Y-164968335D01*
X206213345Y-166778505D01*
X208023515Y-164968335D01*
X207783369Y-164581092D01*
X207289468Y-164320469D01*
X206754212Y-164161209D01*
X206198171Y-164109432D01*
X205642713Y-164167129D01*
X205109184Y-164332082D01*
X204643321Y-164581092D01*
X204403175Y-164968335D01*
X54476382Y-164968335D01*
X54476382Y-160867737D01*
X93730888Y-160867737D01*
X93730888Y-161426183D01*
X93839836Y-161973899D01*
X94053544Y-162489836D01*
X94363800Y-162954167D01*
X94758681Y-163349048D01*
X95223012Y-163659304D01*
X95738949Y-163873012D01*
X96286665Y-163981960D01*
X96845111Y-163981960D01*
X97392827Y-163873012D01*
X97908764Y-163659304D01*
X98373095Y-163349048D01*
X98767976Y-162954167D01*
X99078232Y-162489836D01*
X99291940Y-161973899D01*
X99400888Y-161426183D01*
X99400888Y-160867737D01*
X313025803Y-160867737D01*
X313025803Y-161426183D01*
X313134751Y-161973899D01*
X313348459Y-162489836D01*
X313658715Y-162954167D01*
X314053596Y-163349048D01*
X314517927Y-163659304D01*
X315033864Y-163873012D01*
X315581580Y-163981960D01*
X316140026Y-163981960D01*
X316687742Y-163873012D01*
X317203679Y-163659304D01*
X317668010Y-163349048D01*
X318062891Y-162954167D01*
X318373147Y-162489836D01*
X318586855Y-161973899D01*
X318695803Y-161426183D01*
X318695803Y-160867737D01*
X318586855Y-160320021D01*
X318373147Y-159804084D01*
X318062891Y-159339753D01*
X317668010Y-158944872D01*
X317203679Y-158634616D01*
X316687742Y-158420908D01*
X316140026Y-158311960D01*
X315581580Y-158311960D01*
X315033864Y-158420908D01*
X314517927Y-158634616D01*
X314053596Y-158944872D01*
X313658715Y-159339753D01*
X313348459Y-159804084D01*
X313134751Y-160320021D01*
X313025803Y-160867737D01*
X99400888Y-160867737D01*
X99291940Y-160320021D01*
X99078232Y-159804084D01*
X98767976Y-159339753D01*
X98373095Y-158944872D01*
X97908764Y-158634616D01*
X97392827Y-158420908D01*
X96845111Y-158311960D01*
X96286665Y-158311960D01*
X95738949Y-158420908D01*
X95223012Y-158634616D01*
X94758681Y-158944872D01*
X94363800Y-159339753D01*
X94053544Y-159804084D01*
X93839836Y-160320021D01*
X93730888Y-160867737D01*
X54476382Y-160867737D01*
X54476382Y-104023771D01*
X110919723Y-104023771D01*
X110919723Y-104582217D01*
X111028671Y-105129933D01*
X111242379Y-105645870D01*
X111552635Y-106110201D01*
X111947516Y-106505082D01*
X112411847Y-106815338D01*
X112927784Y-107029046D01*
X113475500Y-107137994D01*
X114033946Y-107137994D01*
X114581662Y-107029046D01*
X115097599Y-106815338D01*
X115561930Y-106505082D01*
X115956811Y-106110201D01*
X116267067Y-105645870D01*
X116480775Y-105129933D01*
X116589723Y-104582217D01*
X116589723Y-104023771D01*
X203378345Y-104023771D01*
X203378345Y-104582217D01*
X203487293Y-105129933D01*
X203701001Y-105645870D01*
X204011257Y-106110201D01*
X204406138Y-106505082D01*
X204870469Y-106815338D01*
X205386406Y-107029046D01*
X205934122Y-107137994D01*
X206492568Y-107137994D01*
X207040284Y-107029046D01*
X207556221Y-106815338D01*
X208020552Y-106505082D01*
X208415433Y-106110201D01*
X208725689Y-105645870D01*
X208939397Y-105129933D01*
X209048345Y-104582217D01*
X209048345Y-104023771D01*
X295836968Y-104023771D01*
X295836968Y-104582217D01*
X295945916Y-105129933D01*
X296159624Y-105645870D01*
X296469880Y-106110201D01*
X296864761Y-106505082D01*
X297329092Y-106815338D01*
X297845029Y-107029046D01*
X298392745Y-107137994D01*
X298951191Y-107137994D01*
X299498907Y-107029046D01*
X300014844Y-106815338D01*
X300479175Y-106505082D01*
X300874056Y-106110201D01*
X301184312Y-105645870D01*
X301398020Y-105129933D01*
X301506968Y-104582217D01*
X301506968Y-104023771D01*
X301398020Y-103476055D01*
X301184312Y-102960118D01*
X300874056Y-102495787D01*
X300479175Y-102100906D01*
X300014844Y-101790650D01*
X299498907Y-101576942D01*
X298951191Y-101467994D01*
X298392745Y-101467994D01*
X297845029Y-101576942D01*
X297329092Y-101790650D01*
X296864761Y-102100906D01*
X296469880Y-102495787D01*
X296159624Y-102960118D01*
X295945916Y-103476055D01*
X295836968Y-104023771D01*
X209048345Y-104023771D01*
X208939397Y-103476055D01*
X208725689Y-102960118D01*
X208415433Y-102495787D01*
X208020552Y-102100906D01*
X207556221Y-101790650D01*
X207040284Y-101576942D01*
X206492568Y-101467994D01*
X205934122Y-101467994D01*
X205386406Y-101576942D01*
X204870469Y-101790650D01*
X204406138Y-102100906D01*
X204011257Y-102495787D01*
X203701001Y-102960118D01*
X203487293Y-103476055D01*
X203378345Y-104023771D01*
X116589723Y-104023771D01*
X116480775Y-103476055D01*
X116267067Y-102960118D01*
X115956811Y-102495787D01*
X115561930Y-102100906D01*
X115097599Y-101790650D01*
X114581662Y-101576942D01*
X114033946Y-101467994D01*
X113475500Y-101467994D01*
X112927784Y-101576942D01*
X112411847Y-101790650D01*
X111947516Y-102100906D01*
X111552635Y-102495787D01*
X111242379Y-102960118D01*
X111028671Y-103476055D01*
X110919723Y-104023771D01*
X54476382Y-104023771D01*
X54476382Y-92094649D01*
X79138322Y-92094649D01*
X79138322Y-92653095D01*
X79247270Y-93200811D01*
X79460978Y-93716748D01*
X79771234Y-94181079D01*
X80166115Y-94575960D01*
X80630446Y-94886216D01*
X81146383Y-95099924D01*
X81694099Y-95208872D01*
X82252545Y-95208872D01*
X82800261Y-95099924D01*
X83316198Y-94886216D01*
X83780529Y-94575960D01*
X84175410Y-94181079D01*
X84485666Y-93716748D01*
X84699374Y-93200811D01*
X84808322Y-92653095D01*
X84808322Y-92094649D01*
X203378345Y-92094649D01*
X203378345Y-92653095D01*
X203487293Y-93200811D01*
X203701001Y-93716748D01*
X204011257Y-94181079D01*
X204406138Y-94575960D01*
X204870469Y-94886216D01*
X205386406Y-95099924D01*
X205934122Y-95208872D01*
X206492568Y-95208872D01*
X207040284Y-95099924D01*
X207556221Y-94886216D01*
X208020552Y-94575960D01*
X208415433Y-94181079D01*
X208725689Y-93716748D01*
X208939397Y-93200811D01*
X209048345Y-92653095D01*
X209048345Y-92094649D01*
X327618369Y-92094649D01*
X327618369Y-92653095D01*
X327727317Y-93200811D01*
X327941025Y-93716748D01*
X328251281Y-94181079D01*
X328646162Y-94575960D01*
X329110493Y-94886216D01*
X329626430Y-95099924D01*
X330174146Y-95208872D01*
X330732592Y-95208872D01*
X331280308Y-95099924D01*
X331796245Y-94886216D01*
X332260576Y-94575960D01*
X332655457Y-94181079D01*
X332965713Y-93716748D01*
X333179421Y-93200811D01*
X333288369Y-92653095D01*
X333288369Y-92094649D01*
X333179421Y-91546933D01*
X332965713Y-91030996D01*
X332655457Y-90566665D01*
X332260576Y-90171784D01*
X331796245Y-89861528D01*
X331280308Y-89647820D01*
X330732592Y-89538872D01*
X330174146Y-89538872D01*
X329626430Y-89647820D01*
X329110493Y-89861528D01*
X328646162Y-90171784D01*
X328251281Y-90566665D01*
X327941025Y-91030996D01*
X327727317Y-91546933D01*
X327618369Y-92094649D01*
X209048345Y-92094649D01*
X208939397Y-91546933D01*
X208725689Y-91030996D01*
X208415433Y-90566665D01*
X208020552Y-90171784D01*
X207556221Y-89861528D01*
X207040284Y-89647820D01*
X206492568Y-89538872D01*
X205934122Y-89538872D01*
X205386406Y-89647820D01*
X204870469Y-89861528D01*
X204406138Y-90171784D01*
X204011257Y-90566665D01*
X203701001Y-91030996D01*
X203487293Y-91546933D01*
X203378345Y-92094649D01*
X84808322Y-92094649D01*
X84699374Y-91546933D01*
X84485666Y-91030996D01*
X84175410Y-90566665D01*
X83780529Y-90171784D01*
X83316198Y-89861528D01*
X82800261Y-89647820D01*
X82252545Y-89538872D01*
X81694099Y-89538872D01*
X81146383Y-89647820D01*
X80630446Y-89861528D01*
X80166115Y-90171784D01*
X79771234Y-90566665D01*
X79460978Y-91030996D01*
X79247270Y-91546933D01*
X79138322Y-92094649D01*
X54476382Y-92094649D01*
X54476382Y-80165527D01*
X54931382Y-80165527D01*
X54931382Y-80723973D01*
X55040330Y-81271689D01*
X55254038Y-81787626D01*
X55564294Y-82251957D01*
X55959175Y-82646838D01*
X56423506Y-82957094D01*
X56939443Y-83170802D01*
X57487159Y-83279750D01*
X58045605Y-83279750D01*
X58593321Y-83170802D01*
X59109258Y-82957094D01*
X59573589Y-82646838D01*
X59968470Y-82251957D01*
X60278726Y-81787626D01*
X60492434Y-81271689D01*
X60601382Y-80723973D01*
X60601382Y-80165527D01*
X203378345Y-80165527D01*
X203378345Y-80723973D01*
X203487293Y-81271689D01*
X203701001Y-81787626D01*
X204011257Y-82251957D01*
X204406138Y-82646838D01*
X204870469Y-82957094D01*
X205386406Y-83170802D01*
X205934122Y-83279750D01*
X206492568Y-83279750D01*
X207040284Y-83170802D01*
X207556221Y-82957094D01*
X208020552Y-82646838D01*
X208415433Y-82251957D01*
X208725689Y-81787626D01*
X208939397Y-81271689D01*
X209048345Y-80723973D01*
X209048345Y-80165527D01*
X351825309Y-80165527D01*
X351825309Y-80723973D01*
X351934257Y-81271689D01*
X352147965Y-81787626D01*
X352458221Y-82251957D01*
X352853102Y-82646838D01*
X353317433Y-82957094D01*
X353833370Y-83170802D01*
X354381086Y-83279750D01*
X354939532Y-83279750D01*
X355487248Y-83170802D01*
X356003185Y-82957094D01*
X356467516Y-82646838D01*
X356862397Y-82251957D01*
X357172653Y-81787626D01*
X357386361Y-81271689D01*
X357495309Y-80723973D01*
X357495309Y-80165527D01*
X357386361Y-79617811D01*
X357172653Y-79101874D01*
X356862397Y-78637543D01*
X356467516Y-78242662D01*
X356003185Y-77932406D01*
X355487248Y-77718698D01*
X354939532Y-77609750D01*
X354381086Y-77609750D01*
X353833370Y-77718698D01*
X353317433Y-77932406D01*
X352853102Y-78242662D01*
X352458221Y-78637543D01*
X352147965Y-79101874D01*
X351934257Y-79617811D01*
X351825309Y-80165527D01*
X209048345Y-80165527D01*
X208939397Y-79617811D01*
X208725689Y-79101874D01*
X208415433Y-78637543D01*
X208020552Y-78242662D01*
X207556221Y-77932406D01*
X207040284Y-77718698D01*
X206492568Y-77609750D01*
X205934122Y-77609750D01*
X205386406Y-77718698D01*
X204870469Y-77932406D01*
X204406138Y-78242662D01*
X204011257Y-78637543D01*
X203701001Y-79101874D01*
X203487293Y-79617811D01*
X203378345Y-80165527D01*
X60601382Y-80165527D01*
X60492434Y-79617811D01*
X60278726Y-79101874D01*
X59968470Y-78637543D01*
X59573589Y-78242662D01*
X59109258Y-77932406D01*
X58593321Y-77718698D01*
X58045605Y-77609750D01*
X57487159Y-77609750D01*
X56939443Y-77718698D01*
X56423506Y-77932406D01*
X55959175Y-78242662D01*
X55564294Y-78637543D01*
X55254038Y-79101874D01*
X55040330Y-79617811D01*
X54931382Y-80165527D01*
X54476382Y-80165527D01*
X54476382Y-61415527D01*
X54931382Y-61415527D01*
X54931382Y-61973973D01*
X55040330Y-62521689D01*
X55254038Y-63037626D01*
X55564294Y-63501957D01*
X55959175Y-63896838D01*
X56423506Y-64207094D01*
X56939443Y-64420802D01*
X57487159Y-64529750D01*
X58045605Y-64529750D01*
X58593321Y-64420802D01*
X59109258Y-64207094D01*
X59573589Y-63896838D01*
X59968470Y-63501957D01*
X60278726Y-63037626D01*
X60492434Y-62521689D01*
X60601382Y-61973973D01*
X60601382Y-61415527D01*
X203378345Y-61415527D01*
X203378345Y-61973973D01*
X203487293Y-62521689D01*
X203701001Y-63037626D01*
X204011257Y-63501957D01*
X204406138Y-63896838D01*
X204870469Y-64207094D01*
X205386406Y-64420802D01*
X205934122Y-64529750D01*
X206492568Y-64529750D01*
X207040284Y-64420802D01*
X207556221Y-64207094D01*
X208020552Y-63896838D01*
X208415433Y-63501957D01*
X208725689Y-63037626D01*
X208939397Y-62521689D01*
X209048345Y-61973973D01*
X209048345Y-61415527D01*
X351825309Y-61415527D01*
X351825309Y-61973973D01*
X351934257Y-62521689D01*
X352147965Y-63037626D01*
X352458221Y-63501957D01*
X352853102Y-63896838D01*
X353317433Y-64207094D01*
X353833370Y-64420802D01*
X354381086Y-64529750D01*
X354939532Y-64529750D01*
X355487248Y-64420802D01*
X356003185Y-64207094D01*
X356467516Y-63896838D01*
X356862397Y-63501957D01*
X357172653Y-63037626D01*
X357386361Y-62521689D01*
X357495309Y-61973973D01*
X357495309Y-61415527D01*
X357386361Y-60867811D01*
X357172653Y-60351874D01*
X356862397Y-59887543D01*
X356467516Y-59492662D01*
X356003185Y-59182406D01*
X355487248Y-58968698D01*
X354939532Y-58859750D01*
X354381086Y-58859750D01*
X353833370Y-58968698D01*
X353317433Y-59182406D01*
X352853102Y-59492662D01*
X352458221Y-59887543D01*
X352147965Y-60351874D01*
X351934257Y-60867811D01*
X351825309Y-61415527D01*
X209048345Y-61415527D01*
X208939397Y-60867811D01*
X208725689Y-60351874D01*
X208415433Y-59887543D01*
X208020552Y-59492662D01*
X207556221Y-59182406D01*
X207040284Y-58968698D01*
X206492568Y-58859750D01*
X205934122Y-58859750D01*
X205386406Y-58968698D01*
X204870469Y-59182406D01*
X204406138Y-59492662D01*
X204011257Y-59887543D01*
X203701001Y-60351874D01*
X203487293Y-60867811D01*
X203378345Y-61415527D01*
X60601382Y-61415527D01*
X60492434Y-60867811D01*
X60278726Y-60351874D01*
X59968470Y-59887543D01*
X59573589Y-59492662D01*
X59109258Y-59182406D01*
X58593321Y-58968698D01*
X58045605Y-58859750D01*
X57487159Y-58859750D01*
X56939443Y-58968698D01*
X56423506Y-59182406D01*
X55959175Y-59492662D01*
X55564294Y-59887543D01*
X55254038Y-60351874D01*
X55040330Y-60867811D01*
X54931382Y-61415527D01*
X54476382Y-61415527D01*
X54476382Y-61036528D01*
X54529181Y-60498036D01*
X54675490Y-60013442D01*
X54913131Y-59566501D01*
X55233059Y-59174232D01*
X55623092Y-58851570D01*
X56068357Y-58610816D01*
X56551912Y-58461130D01*
X57088338Y-58404750D01*
X355318531Y-58404750D01*
X355857023Y-58457549D01*
G37*
X355857023Y-58457549D02*
X356341617Y-58603858D01*
X356788558Y-58841499D01*
X357180827Y-59161427D01*
X357503489Y-59551460D01*
X357744243Y-59996725D01*
X357893929Y-60480280D01*
X357950309Y-61016706D01*
X357950310Y-177160421D01*
X357897510Y-177698933D01*
X357751201Y-178183527D01*
X357513561Y-178630465D01*
X357193631Y-179022738D01*
X356803602Y-179345398D01*
X356358336Y-179586153D01*
X355874777Y-179735839D01*
X355338353Y-179792219D01*
X57110854Y-179792219D01*
X56571973Y-179739875D01*
X56087250Y-179594007D01*
X55640094Y-179356771D01*
X55247533Y-179037198D01*
X54924519Y-178647462D01*
X54683359Y-178202411D01*
X54533234Y-177718990D01*
X54476382Y-177182752D01*
X54476382Y-168947885D01*
X204403175Y-168947885D01*
X204643321Y-169335128D01*
X205137222Y-169595751D01*
X205672478Y-169755011D01*
X206228519Y-169806788D01*
X206783977Y-169749091D01*
X207317506Y-169584138D01*
X207783369Y-169335128D01*
X208023515Y-168947885D01*
X206213345Y-167137715D01*
X204403175Y-168947885D01*
X54476382Y-168947885D01*
X54476382Y-166973284D01*
X203364667Y-166973284D01*
X203422364Y-167528742D01*
X203587317Y-168062271D01*
X203836327Y-168528134D01*
X204223570Y-168768280D01*
X206033740Y-166958110D01*
X206392950Y-166958110D01*
X208203120Y-168768280D01*
X208590363Y-168528134D01*
X208850986Y-168034233D01*
X209010246Y-167498977D01*
X209062023Y-166942936D01*
X209004326Y-166387478D01*
X208839373Y-165853949D01*
X208590363Y-165388086D01*
X208203120Y-165147940D01*
X206392950Y-166958110D01*
X206033740Y-166958110D01*
X204223570Y-165147940D01*
X203836327Y-165388086D01*
X203575704Y-165881987D01*
X203416444Y-166417243D01*
X203364667Y-166973284D01*
X54476382Y-166973284D01*
X54476382Y-164968335D01*
X204403175Y-164968335D01*
X206213345Y-166778505D01*
X208023515Y-164968335D01*
X207783369Y-164581092D01*
X207289468Y-164320469D01*
X206754212Y-164161209D01*
X206198171Y-164109432D01*
X205642713Y-164167129D01*
X205109184Y-164332082D01*
X204643321Y-164581092D01*
X204403175Y-164968335D01*
X54476382Y-164968335D01*
X54476382Y-160867737D01*
X93730888Y-160867737D01*
X93730888Y-161426183D01*
X93839836Y-161973899D01*
X94053544Y-162489836D01*
X94363800Y-162954167D01*
X94758681Y-163349048D01*
X95223012Y-163659304D01*
X95738949Y-163873012D01*
X96286665Y-163981960D01*
X96845111Y-163981960D01*
X97392827Y-163873012D01*
X97908764Y-163659304D01*
X98373095Y-163349048D01*
X98767976Y-162954167D01*
X99078232Y-162489836D01*
X99291940Y-161973899D01*
X99400888Y-161426183D01*
X99400888Y-160867737D01*
X313025803Y-160867737D01*
X313025803Y-161426183D01*
X313134751Y-161973899D01*
X313348459Y-162489836D01*
X313658715Y-162954167D01*
X314053596Y-163349048D01*
X314517927Y-163659304D01*
X315033864Y-163873012D01*
X315581580Y-163981960D01*
X316140026Y-163981960D01*
X316687742Y-163873012D01*
X317203679Y-163659304D01*
X317668010Y-163349048D01*
X318062891Y-162954167D01*
X318373147Y-162489836D01*
X318586855Y-161973899D01*
X318695803Y-161426183D01*
X318695803Y-160867737D01*
X318586855Y-160320021D01*
X318373147Y-159804084D01*
X318062891Y-159339753D01*
X317668010Y-158944872D01*
X317203679Y-158634616D01*
X316687742Y-158420908D01*
X316140026Y-158311960D01*
X315581580Y-158311960D01*
X315033864Y-158420908D01*
X314517927Y-158634616D01*
X314053596Y-158944872D01*
X313658715Y-159339753D01*
X313348459Y-159804084D01*
X313134751Y-160320021D01*
X313025803Y-160867737D01*
X99400888Y-160867737D01*
X99291940Y-160320021D01*
X99078232Y-159804084D01*
X98767976Y-159339753D01*
X98373095Y-158944872D01*
X97908764Y-158634616D01*
X97392827Y-158420908D01*
X96845111Y-158311960D01*
X96286665Y-158311960D01*
X95738949Y-158420908D01*
X95223012Y-158634616D01*
X94758681Y-158944872D01*
X94363800Y-159339753D01*
X94053544Y-159804084D01*
X93839836Y-160320021D01*
X93730888Y-160867737D01*
X54476382Y-160867737D01*
X54476382Y-104023771D01*
X110919723Y-104023771D01*
X110919723Y-104582217D01*
X111028671Y-105129933D01*
X111242379Y-105645870D01*
X111552635Y-106110201D01*
X111947516Y-106505082D01*
X112411847Y-106815338D01*
X112927784Y-107029046D01*
X113475500Y-107137994D01*
X114033946Y-107137994D01*
X114581662Y-107029046D01*
X115097599Y-106815338D01*
X115561930Y-106505082D01*
X115956811Y-106110201D01*
X116267067Y-105645870D01*
X116480775Y-105129933D01*
X116589723Y-104582217D01*
X116589723Y-104023771D01*
X203378345Y-104023771D01*
X203378345Y-104582217D01*
X203487293Y-105129933D01*
X203701001Y-105645870D01*
X204011257Y-106110201D01*
X204406138Y-106505082D01*
X204870469Y-106815338D01*
X205386406Y-107029046D01*
X205934122Y-107137994D01*
X206492568Y-107137994D01*
X207040284Y-107029046D01*
X207556221Y-106815338D01*
X208020552Y-106505082D01*
X208415433Y-106110201D01*
X208725689Y-105645870D01*
X208939397Y-105129933D01*
X209048345Y-104582217D01*
X209048345Y-104023771D01*
X295836968Y-104023771D01*
X295836968Y-104582217D01*
X295945916Y-105129933D01*
X296159624Y-105645870D01*
X296469880Y-106110201D01*
X296864761Y-106505082D01*
X297329092Y-106815338D01*
X297845029Y-107029046D01*
X298392745Y-107137994D01*
X298951191Y-107137994D01*
X299498907Y-107029046D01*
X300014844Y-106815338D01*
X300479175Y-106505082D01*
X300874056Y-106110201D01*
X301184312Y-105645870D01*
X301398020Y-105129933D01*
X301506968Y-104582217D01*
X301506968Y-104023771D01*
X301398020Y-103476055D01*
X301184312Y-102960118D01*
X300874056Y-102495787D01*
X300479175Y-102100906D01*
X300014844Y-101790650D01*
X299498907Y-101576942D01*
X298951191Y-101467994D01*
X298392745Y-101467994D01*
X297845029Y-101576942D01*
X297329092Y-101790650D01*
X296864761Y-102100906D01*
X296469880Y-102495787D01*
X296159624Y-102960118D01*
X295945916Y-103476055D01*
X295836968Y-104023771D01*
X209048345Y-104023771D01*
X208939397Y-103476055D01*
X208725689Y-102960118D01*
X208415433Y-102495787D01*
X208020552Y-102100906D01*
X207556221Y-101790650D01*
X207040284Y-101576942D01*
X206492568Y-101467994D01*
X205934122Y-101467994D01*
X205386406Y-101576942D01*
X204870469Y-101790650D01*
X204406138Y-102100906D01*
X204011257Y-102495787D01*
X203701001Y-102960118D01*
X203487293Y-103476055D01*
X203378345Y-104023771D01*
X116589723Y-104023771D01*
X116480775Y-103476055D01*
X116267067Y-102960118D01*
X115956811Y-102495787D01*
X115561930Y-102100906D01*
X115097599Y-101790650D01*
X114581662Y-101576942D01*
X114033946Y-101467994D01*
X113475500Y-101467994D01*
X112927784Y-101576942D01*
X112411847Y-101790650D01*
X111947516Y-102100906D01*
X111552635Y-102495787D01*
X111242379Y-102960118D01*
X111028671Y-103476055D01*
X110919723Y-104023771D01*
X54476382Y-104023771D01*
X54476382Y-92094649D01*
X79138322Y-92094649D01*
X79138322Y-92653095D01*
X79247270Y-93200811D01*
X79460978Y-93716748D01*
X79771234Y-94181079D01*
X80166115Y-94575960D01*
X80630446Y-94886216D01*
X81146383Y-95099924D01*
X81694099Y-95208872D01*
X82252545Y-95208872D01*
X82800261Y-95099924D01*
X83316198Y-94886216D01*
X83780529Y-94575960D01*
X84175410Y-94181079D01*
X84485666Y-93716748D01*
X84699374Y-93200811D01*
X84808322Y-92653095D01*
X84808322Y-92094649D01*
X203378345Y-92094649D01*
X203378345Y-92653095D01*
X203487293Y-93200811D01*
X203701001Y-93716748D01*
X204011257Y-94181079D01*
X204406138Y-94575960D01*
X204870469Y-94886216D01*
X205386406Y-95099924D01*
X205934122Y-95208872D01*
X206492568Y-95208872D01*
X207040284Y-95099924D01*
X207556221Y-94886216D01*
X208020552Y-94575960D01*
X208415433Y-94181079D01*
X208725689Y-93716748D01*
X208939397Y-93200811D01*
X209048345Y-92653095D01*
X209048345Y-92094649D01*
X327618369Y-92094649D01*
X327618369Y-92653095D01*
X327727317Y-93200811D01*
X327941025Y-93716748D01*
X328251281Y-94181079D01*
X328646162Y-94575960D01*
X329110493Y-94886216D01*
X329626430Y-95099924D01*
X330174146Y-95208872D01*
X330732592Y-95208872D01*
X331280308Y-95099924D01*
X331796245Y-94886216D01*
X332260576Y-94575960D01*
X332655457Y-94181079D01*
X332965713Y-93716748D01*
X333179421Y-93200811D01*
X333288369Y-92653095D01*
X333288369Y-92094649D01*
X333179421Y-91546933D01*
X332965713Y-91030996D01*
X332655457Y-90566665D01*
X332260576Y-90171784D01*
X331796245Y-89861528D01*
X331280308Y-89647820D01*
X330732592Y-89538872D01*
X330174146Y-89538872D01*
X329626430Y-89647820D01*
X329110493Y-89861528D01*
X328646162Y-90171784D01*
X328251281Y-90566665D01*
X327941025Y-91030996D01*
X327727317Y-91546933D01*
X327618369Y-92094649D01*
X209048345Y-92094649D01*
X208939397Y-91546933D01*
X208725689Y-91030996D01*
X208415433Y-90566665D01*
X208020552Y-90171784D01*
X207556221Y-89861528D01*
X207040284Y-89647820D01*
X206492568Y-89538872D01*
X205934122Y-89538872D01*
X205386406Y-89647820D01*
X204870469Y-89861528D01*
X204406138Y-90171784D01*
X204011257Y-90566665D01*
X203701001Y-91030996D01*
X203487293Y-91546933D01*
X203378345Y-92094649D01*
X84808322Y-92094649D01*
X84699374Y-91546933D01*
X84485666Y-91030996D01*
X84175410Y-90566665D01*
X83780529Y-90171784D01*
X83316198Y-89861528D01*
X82800261Y-89647820D01*
X82252545Y-89538872D01*
X81694099Y-89538872D01*
X81146383Y-89647820D01*
X80630446Y-89861528D01*
X80166115Y-90171784D01*
X79771234Y-90566665D01*
X79460978Y-91030996D01*
X79247270Y-91546933D01*
X79138322Y-92094649D01*
X54476382Y-92094649D01*
X54476382Y-80165527D01*
X54931382Y-80165527D01*
X54931382Y-80723973D01*
X55040330Y-81271689D01*
X55254038Y-81787626D01*
X55564294Y-82251957D01*
X55959175Y-82646838D01*
X56423506Y-82957094D01*
X56939443Y-83170802D01*
X57487159Y-83279750D01*
X58045605Y-83279750D01*
X58593321Y-83170802D01*
X59109258Y-82957094D01*
X59573589Y-82646838D01*
X59968470Y-82251957D01*
X60278726Y-81787626D01*
X60492434Y-81271689D01*
X60601382Y-80723973D01*
X60601382Y-80165527D01*
X203378345Y-80165527D01*
X203378345Y-80723973D01*
X203487293Y-81271689D01*
X203701001Y-81787626D01*
X204011257Y-82251957D01*
X204406138Y-82646838D01*
X204870469Y-82957094D01*
X205386406Y-83170802D01*
X205934122Y-83279750D01*
X206492568Y-83279750D01*
X207040284Y-83170802D01*
X207556221Y-82957094D01*
X208020552Y-82646838D01*
X208415433Y-82251957D01*
X208725689Y-81787626D01*
X208939397Y-81271689D01*
X209048345Y-80723973D01*
X209048345Y-80165527D01*
X351825309Y-80165527D01*
X351825309Y-80723973D01*
X351934257Y-81271689D01*
X352147965Y-81787626D01*
X352458221Y-82251957D01*
X352853102Y-82646838D01*
X353317433Y-82957094D01*
X353833370Y-83170802D01*
X354381086Y-83279750D01*
X354939532Y-83279750D01*
X355487248Y-83170802D01*
X356003185Y-82957094D01*
X356467516Y-82646838D01*
X356862397Y-82251957D01*
X357172653Y-81787626D01*
X357386361Y-81271689D01*
X357495309Y-80723973D01*
X357495309Y-80165527D01*
X357386361Y-79617811D01*
X357172653Y-79101874D01*
X356862397Y-78637543D01*
X356467516Y-78242662D01*
X356003185Y-77932406D01*
X355487248Y-77718698D01*
X354939532Y-77609750D01*
X354381086Y-77609750D01*
X353833370Y-77718698D01*
X353317433Y-77932406D01*
X352853102Y-78242662D01*
X352458221Y-78637543D01*
X352147965Y-79101874D01*
X351934257Y-79617811D01*
X351825309Y-80165527D01*
X209048345Y-80165527D01*
X208939397Y-79617811D01*
X208725689Y-79101874D01*
X208415433Y-78637543D01*
X208020552Y-78242662D01*
X207556221Y-77932406D01*
X207040284Y-77718698D01*
X206492568Y-77609750D01*
X205934122Y-77609750D01*
X205386406Y-77718698D01*
X204870469Y-77932406D01*
X204406138Y-78242662D01*
X204011257Y-78637543D01*
X203701001Y-79101874D01*
X203487293Y-79617811D01*
X203378345Y-80165527D01*
X60601382Y-80165527D01*
X60492434Y-79617811D01*
X60278726Y-79101874D01*
X59968470Y-78637543D01*
X59573589Y-78242662D01*
X59109258Y-77932406D01*
X58593321Y-77718698D01*
X58045605Y-77609750D01*
X57487159Y-77609750D01*
X56939443Y-77718698D01*
X56423506Y-77932406D01*
X55959175Y-78242662D01*
X55564294Y-78637543D01*
X55254038Y-79101874D01*
X55040330Y-79617811D01*
X54931382Y-80165527D01*
X54476382Y-80165527D01*
X54476382Y-61415527D01*
X54931382Y-61415527D01*
X54931382Y-61973973D01*
X55040330Y-62521689D01*
X55254038Y-63037626D01*
X55564294Y-63501957D01*
X55959175Y-63896838D01*
X56423506Y-64207094D01*
X56939443Y-64420802D01*
X57487159Y-64529750D01*
X58045605Y-64529750D01*
X58593321Y-64420802D01*
X59109258Y-64207094D01*
X59573589Y-63896838D01*
X59968470Y-63501957D01*
X60278726Y-63037626D01*
X60492434Y-62521689D01*
X60601382Y-61973973D01*
X60601382Y-61415527D01*
X203378345Y-61415527D01*
X203378345Y-61973973D01*
X203487293Y-62521689D01*
X203701001Y-63037626D01*
X204011257Y-63501957D01*
X204406138Y-63896838D01*
X204870469Y-64207094D01*
X205386406Y-64420802D01*
X205934122Y-64529750D01*
X206492568Y-64529750D01*
X207040284Y-64420802D01*
X207556221Y-64207094D01*
X208020552Y-63896838D01*
X208415433Y-63501957D01*
X208725689Y-63037626D01*
X208939397Y-62521689D01*
X209048345Y-61973973D01*
X209048345Y-61415527D01*
X351825309Y-61415527D01*
X351825309Y-61973973D01*
X351934257Y-62521689D01*
X352147965Y-63037626D01*
X352458221Y-63501957D01*
X352853102Y-63896838D01*
X353317433Y-64207094D01*
X353833370Y-64420802D01*
X354381086Y-64529750D01*
X354939532Y-64529750D01*
X355487248Y-64420802D01*
X356003185Y-64207094D01*
X356467516Y-63896838D01*
X356862397Y-63501957D01*
X357172653Y-63037626D01*
X357386361Y-62521689D01*
X357495309Y-61973973D01*
X357495309Y-61415527D01*
X357386361Y-60867811D01*
X357172653Y-60351874D01*
X356862397Y-59887543D01*
X356467516Y-59492662D01*
X356003185Y-59182406D01*
X355487248Y-58968698D01*
X354939532Y-58859750D01*
X354381086Y-58859750D01*
X353833370Y-58968698D01*
X353317433Y-59182406D01*
X352853102Y-59492662D01*
X352458221Y-59887543D01*
X352147965Y-60351874D01*
X351934257Y-60867811D01*
X351825309Y-61415527D01*
X209048345Y-61415527D01*
X208939397Y-60867811D01*
X208725689Y-60351874D01*
X208415433Y-59887543D01*
X208020552Y-59492662D01*
X207556221Y-59182406D01*
X207040284Y-58968698D01*
X206492568Y-58859750D01*
X205934122Y-58859750D01*
X205386406Y-58968698D01*
X204870469Y-59182406D01*
X204406138Y-59492662D01*
X204011257Y-59887543D01*
X203701001Y-60351874D01*
X203487293Y-60867811D01*
X203378345Y-61415527D01*
X60601382Y-61415527D01*
X60492434Y-60867811D01*
X60278726Y-60351874D01*
X59968470Y-59887543D01*
X59573589Y-59492662D01*
X59109258Y-59182406D01*
X58593321Y-58968698D01*
X58045605Y-58859750D01*
X57487159Y-58859750D01*
X56939443Y-58968698D01*
X56423506Y-59182406D01*
X55959175Y-59492662D01*
X55564294Y-59887543D01*
X55254038Y-60351874D01*
X55040330Y-60867811D01*
X54931382Y-61415527D01*
X54476382Y-61415527D01*
X54476382Y-61036528D01*
X54529181Y-60498036D01*
X54675490Y-60013442D01*
X54913131Y-59566501D01*
X55233059Y-59174232D01*
X55623092Y-58851570D01*
X56068357Y-58610816D01*
X56551912Y-58461130D01*
X57088338Y-58404750D01*
X355318531Y-58404750D01*
X355857023Y-58457549D01*
M02*
