G04 #@! TF.GenerationSoftware,KiCad,Pcbnew,(5.1.5)-3*
G04 #@! TF.CreationDate,2020-06-26T11:59:49-04:00*
G04 #@! TF.ProjectId,discipline-pcb,64697363-6970-46c6-996e-652d7063622e,rev?*
G04 #@! TF.SameCoordinates,Original*
G04 #@! TF.FileFunction,Soldermask,Bot*
G04 #@! TF.FilePolarity,Negative*
%FSLAX46Y46*%
G04 Gerber Fmt 4.6, Leading zero omitted, Abs format (unit mm)*
G04 Created by KiCad (PCBNEW (5.1.5)-3) date 2020-06-26 11:59:49*
%MOMM*%
%LPD*%
G04 APERTURE LIST*
%ADD10C,0.100000*%
G04 APERTURE END LIST*
D10*
G36*
X206489225Y-164717886D02*
G01*
X206869938Y-164793614D01*
X207279594Y-164963299D01*
X207648274Y-165209644D01*
X207961811Y-165523181D01*
X208208156Y-165891861D01*
X208377841Y-166301517D01*
X208464345Y-166736406D01*
X208464345Y-167179814D01*
X208377841Y-167614703D01*
X208208156Y-168024359D01*
X207961811Y-168393039D01*
X207648274Y-168706576D01*
X207279594Y-168952921D01*
X206869938Y-169122606D01*
X206489225Y-169198334D01*
X206435050Y-169209110D01*
X205991640Y-169209110D01*
X205937465Y-169198334D01*
X205556752Y-169122606D01*
X205147096Y-168952921D01*
X204778416Y-168706576D01*
X204464879Y-168393039D01*
X204218534Y-168024359D01*
X204048849Y-167614703D01*
X203962345Y-167179814D01*
X203962345Y-166736406D01*
X204048849Y-166301517D01*
X204218534Y-165891861D01*
X204464879Y-165523181D01*
X204778416Y-165209644D01*
X205147096Y-164963299D01*
X205556752Y-164793614D01*
X205937465Y-164717886D01*
X205991640Y-164707110D01*
X206435050Y-164707110D01*
X206489225Y-164717886D01*
G37*
G36*
X316136683Y-158906736D02*
G01*
X316517396Y-158982464D01*
X316927052Y-159152149D01*
X317295732Y-159398494D01*
X317609269Y-159712031D01*
X317855614Y-160080711D01*
X318025299Y-160490367D01*
X318111803Y-160925256D01*
X318111803Y-161368664D01*
X318025299Y-161803553D01*
X317855614Y-162213209D01*
X317609269Y-162581889D01*
X317295732Y-162895426D01*
X316927052Y-163141771D01*
X316517396Y-163311456D01*
X316136683Y-163387184D01*
X316082508Y-163397960D01*
X315639098Y-163397960D01*
X315584923Y-163387184D01*
X315204210Y-163311456D01*
X314794554Y-163141771D01*
X314425874Y-162895426D01*
X314112337Y-162581889D01*
X313865992Y-162213209D01*
X313696307Y-161803553D01*
X313609803Y-161368664D01*
X313609803Y-160925256D01*
X313696307Y-160490367D01*
X313865992Y-160080711D01*
X314112337Y-159712031D01*
X314425874Y-159398494D01*
X314794554Y-159152149D01*
X315204210Y-158982464D01*
X315584923Y-158906736D01*
X315639098Y-158895960D01*
X316082508Y-158895960D01*
X316136683Y-158906736D01*
G37*
G36*
X96841768Y-158906736D02*
G01*
X97222481Y-158982464D01*
X97632137Y-159152149D01*
X98000817Y-159398494D01*
X98314354Y-159712031D01*
X98560699Y-160080711D01*
X98730384Y-160490367D01*
X98816888Y-160925256D01*
X98816888Y-161368664D01*
X98730384Y-161803553D01*
X98560699Y-162213209D01*
X98314354Y-162581889D01*
X98000817Y-162895426D01*
X97632137Y-163141771D01*
X97222481Y-163311456D01*
X96841768Y-163387184D01*
X96787593Y-163397960D01*
X96344183Y-163397960D01*
X96290008Y-163387184D01*
X95909295Y-163311456D01*
X95499639Y-163141771D01*
X95130959Y-162895426D01*
X94817422Y-162581889D01*
X94571077Y-162213209D01*
X94401392Y-161803553D01*
X94314888Y-161368664D01*
X94314888Y-160925256D01*
X94401392Y-160490367D01*
X94571077Y-160080711D01*
X94817422Y-159712031D01*
X95130959Y-159398494D01*
X95499639Y-159152149D01*
X95909295Y-158982464D01*
X96290008Y-158906736D01*
X96344183Y-158895960D01*
X96787593Y-158895960D01*
X96841768Y-158906736D01*
G37*
G36*
X298947848Y-102062770D02*
G01*
X299328561Y-102138498D01*
X299738217Y-102308183D01*
X300106897Y-102554528D01*
X300420434Y-102868065D01*
X300666779Y-103236745D01*
X300836464Y-103646401D01*
X300922968Y-104081290D01*
X300922968Y-104524698D01*
X300836464Y-104959587D01*
X300666779Y-105369243D01*
X300420434Y-105737923D01*
X300106897Y-106051460D01*
X299738217Y-106297805D01*
X299328561Y-106467490D01*
X298947848Y-106543218D01*
X298893673Y-106553994D01*
X298450263Y-106553994D01*
X298396088Y-106543218D01*
X298015375Y-106467490D01*
X297605719Y-106297805D01*
X297237039Y-106051460D01*
X296923502Y-105737923D01*
X296677157Y-105369243D01*
X296507472Y-104959587D01*
X296420968Y-104524698D01*
X296420968Y-104081290D01*
X296507472Y-103646401D01*
X296677157Y-103236745D01*
X296923502Y-102868065D01*
X297237039Y-102554528D01*
X297605719Y-102308183D01*
X298015375Y-102138498D01*
X298396088Y-102062770D01*
X298450263Y-102051994D01*
X298893673Y-102051994D01*
X298947848Y-102062770D01*
G37*
G36*
X206489225Y-102062770D02*
G01*
X206869938Y-102138498D01*
X207279594Y-102308183D01*
X207648274Y-102554528D01*
X207961811Y-102868065D01*
X208208156Y-103236745D01*
X208377841Y-103646401D01*
X208464345Y-104081290D01*
X208464345Y-104524698D01*
X208377841Y-104959587D01*
X208208156Y-105369243D01*
X207961811Y-105737923D01*
X207648274Y-106051460D01*
X207279594Y-106297805D01*
X206869938Y-106467490D01*
X206489225Y-106543218D01*
X206435050Y-106553994D01*
X205991640Y-106553994D01*
X205937465Y-106543218D01*
X205556752Y-106467490D01*
X205147096Y-106297805D01*
X204778416Y-106051460D01*
X204464879Y-105737923D01*
X204218534Y-105369243D01*
X204048849Y-104959587D01*
X203962345Y-104524698D01*
X203962345Y-104081290D01*
X204048849Y-103646401D01*
X204218534Y-103236745D01*
X204464879Y-102868065D01*
X204778416Y-102554528D01*
X205147096Y-102308183D01*
X205556752Y-102138498D01*
X205937465Y-102062770D01*
X205991640Y-102051994D01*
X206435050Y-102051994D01*
X206489225Y-102062770D01*
G37*
G36*
X114030603Y-102062770D02*
G01*
X114411316Y-102138498D01*
X114820972Y-102308183D01*
X115189652Y-102554528D01*
X115503189Y-102868065D01*
X115749534Y-103236745D01*
X115919219Y-103646401D01*
X116005723Y-104081290D01*
X116005723Y-104524698D01*
X115919219Y-104959587D01*
X115749534Y-105369243D01*
X115503189Y-105737923D01*
X115189652Y-106051460D01*
X114820972Y-106297805D01*
X114411316Y-106467490D01*
X114030603Y-106543218D01*
X113976428Y-106553994D01*
X113533018Y-106553994D01*
X113478843Y-106543218D01*
X113098130Y-106467490D01*
X112688474Y-106297805D01*
X112319794Y-106051460D01*
X112006257Y-105737923D01*
X111759912Y-105369243D01*
X111590227Y-104959587D01*
X111503723Y-104524698D01*
X111503723Y-104081290D01*
X111590227Y-103646401D01*
X111759912Y-103236745D01*
X112006257Y-102868065D01*
X112319794Y-102554528D01*
X112688474Y-102308183D01*
X113098130Y-102138498D01*
X113478843Y-102062770D01*
X113533018Y-102051994D01*
X113976428Y-102051994D01*
X114030603Y-102062770D01*
G37*
G36*
X206489225Y-90133648D02*
G01*
X206869938Y-90209376D01*
X207279594Y-90379061D01*
X207648274Y-90625406D01*
X207961811Y-90938943D01*
X208208156Y-91307623D01*
X208377841Y-91717279D01*
X208464345Y-92152168D01*
X208464345Y-92595576D01*
X208377841Y-93030465D01*
X208208156Y-93440121D01*
X207961811Y-93808801D01*
X207648274Y-94122338D01*
X207279594Y-94368683D01*
X206869938Y-94538368D01*
X206489225Y-94614096D01*
X206435050Y-94624872D01*
X205991640Y-94624872D01*
X205937465Y-94614096D01*
X205556752Y-94538368D01*
X205147096Y-94368683D01*
X204778416Y-94122338D01*
X204464879Y-93808801D01*
X204218534Y-93440121D01*
X204048849Y-93030465D01*
X203962345Y-92595576D01*
X203962345Y-92152168D01*
X204048849Y-91717279D01*
X204218534Y-91307623D01*
X204464879Y-90938943D01*
X204778416Y-90625406D01*
X205147096Y-90379061D01*
X205556752Y-90209376D01*
X205937465Y-90133648D01*
X205991640Y-90122872D01*
X206435050Y-90122872D01*
X206489225Y-90133648D01*
G37*
G36*
X330729249Y-90133648D02*
G01*
X331109962Y-90209376D01*
X331519618Y-90379061D01*
X331888298Y-90625406D01*
X332201835Y-90938943D01*
X332448180Y-91307623D01*
X332617865Y-91717279D01*
X332704369Y-92152168D01*
X332704369Y-92595576D01*
X332617865Y-93030465D01*
X332448180Y-93440121D01*
X332201835Y-93808801D01*
X331888298Y-94122338D01*
X331519618Y-94368683D01*
X331109962Y-94538368D01*
X330729249Y-94614096D01*
X330675074Y-94624872D01*
X330231664Y-94624872D01*
X330177489Y-94614096D01*
X329796776Y-94538368D01*
X329387120Y-94368683D01*
X329018440Y-94122338D01*
X328704903Y-93808801D01*
X328458558Y-93440121D01*
X328288873Y-93030465D01*
X328202369Y-92595576D01*
X328202369Y-92152168D01*
X328288873Y-91717279D01*
X328458558Y-91307623D01*
X328704903Y-90938943D01*
X329018440Y-90625406D01*
X329387120Y-90379061D01*
X329796776Y-90209376D01*
X330177489Y-90133648D01*
X330231664Y-90122872D01*
X330675074Y-90122872D01*
X330729249Y-90133648D01*
G37*
G36*
X82249202Y-90133648D02*
G01*
X82629915Y-90209376D01*
X83039571Y-90379061D01*
X83408251Y-90625406D01*
X83721788Y-90938943D01*
X83968133Y-91307623D01*
X84137818Y-91717279D01*
X84224322Y-92152168D01*
X84224322Y-92595576D01*
X84137818Y-93030465D01*
X83968133Y-93440121D01*
X83721788Y-93808801D01*
X83408251Y-94122338D01*
X83039571Y-94368683D01*
X82629915Y-94538368D01*
X82249202Y-94614096D01*
X82195027Y-94624872D01*
X81751617Y-94624872D01*
X81697442Y-94614096D01*
X81316729Y-94538368D01*
X80907073Y-94368683D01*
X80538393Y-94122338D01*
X80224856Y-93808801D01*
X79978511Y-93440121D01*
X79808826Y-93030465D01*
X79722322Y-92595576D01*
X79722322Y-92152168D01*
X79808826Y-91717279D01*
X79978511Y-91307623D01*
X80224856Y-90938943D01*
X80538393Y-90625406D01*
X80907073Y-90379061D01*
X81316729Y-90209376D01*
X81697442Y-90133648D01*
X81751617Y-90122872D01*
X82195027Y-90122872D01*
X82249202Y-90133648D01*
G37*
G36*
X58042262Y-78204526D02*
G01*
X58422975Y-78280254D01*
X58832631Y-78449939D01*
X59201311Y-78696284D01*
X59514848Y-79009821D01*
X59761193Y-79378501D01*
X59930878Y-79788157D01*
X60017382Y-80223046D01*
X60017382Y-80666454D01*
X59930878Y-81101343D01*
X59761193Y-81510999D01*
X59514848Y-81879679D01*
X59201311Y-82193216D01*
X58832631Y-82439561D01*
X58422975Y-82609246D01*
X58042262Y-82684974D01*
X57988087Y-82695750D01*
X57544677Y-82695750D01*
X57490502Y-82684974D01*
X57109789Y-82609246D01*
X56700133Y-82439561D01*
X56331453Y-82193216D01*
X56017916Y-81879679D01*
X55771571Y-81510999D01*
X55601886Y-81101343D01*
X55515382Y-80666454D01*
X55515382Y-80223046D01*
X55601886Y-79788157D01*
X55771571Y-79378501D01*
X56017916Y-79009821D01*
X56331453Y-78696284D01*
X56700133Y-78449939D01*
X57109789Y-78280254D01*
X57490502Y-78204526D01*
X57544677Y-78193750D01*
X57988087Y-78193750D01*
X58042262Y-78204526D01*
G37*
G36*
X206489225Y-78204526D02*
G01*
X206869938Y-78280254D01*
X207279594Y-78449939D01*
X207648274Y-78696284D01*
X207961811Y-79009821D01*
X208208156Y-79378501D01*
X208377841Y-79788157D01*
X208464345Y-80223046D01*
X208464345Y-80666454D01*
X208377841Y-81101343D01*
X208208156Y-81510999D01*
X207961811Y-81879679D01*
X207648274Y-82193216D01*
X207279594Y-82439561D01*
X206869938Y-82609246D01*
X206489225Y-82684974D01*
X206435050Y-82695750D01*
X205991640Y-82695750D01*
X205937465Y-82684974D01*
X205556752Y-82609246D01*
X205147096Y-82439561D01*
X204778416Y-82193216D01*
X204464879Y-81879679D01*
X204218534Y-81510999D01*
X204048849Y-81101343D01*
X203962345Y-80666454D01*
X203962345Y-80223046D01*
X204048849Y-79788157D01*
X204218534Y-79378501D01*
X204464879Y-79009821D01*
X204778416Y-78696284D01*
X205147096Y-78449939D01*
X205556752Y-78280254D01*
X205937465Y-78204526D01*
X205991640Y-78193750D01*
X206435050Y-78193750D01*
X206489225Y-78204526D01*
G37*
G36*
X354936189Y-78204526D02*
G01*
X355316902Y-78280254D01*
X355726558Y-78449939D01*
X356095238Y-78696284D01*
X356408775Y-79009821D01*
X356655120Y-79378501D01*
X356824805Y-79788157D01*
X356911309Y-80223046D01*
X356911309Y-80666454D01*
X356824805Y-81101343D01*
X356655120Y-81510999D01*
X356408775Y-81879679D01*
X356095238Y-82193216D01*
X355726558Y-82439561D01*
X355316902Y-82609246D01*
X354936189Y-82684974D01*
X354882014Y-82695750D01*
X354438604Y-82695750D01*
X354384429Y-82684974D01*
X354003716Y-82609246D01*
X353594060Y-82439561D01*
X353225380Y-82193216D01*
X352911843Y-81879679D01*
X352665498Y-81510999D01*
X352495813Y-81101343D01*
X352409309Y-80666454D01*
X352409309Y-80223046D01*
X352495813Y-79788157D01*
X352665498Y-79378501D01*
X352911843Y-79009821D01*
X353225380Y-78696284D01*
X353594060Y-78449939D01*
X354003716Y-78280254D01*
X354384429Y-78204526D01*
X354438604Y-78193750D01*
X354882014Y-78193750D01*
X354936189Y-78204526D01*
G37*
G36*
X58042262Y-59454526D02*
G01*
X58422975Y-59530254D01*
X58832631Y-59699939D01*
X59201311Y-59946284D01*
X59514848Y-60259821D01*
X59761193Y-60628501D01*
X59930878Y-61038157D01*
X60017382Y-61473046D01*
X60017382Y-61916454D01*
X59930878Y-62351343D01*
X59761193Y-62760999D01*
X59514848Y-63129679D01*
X59201311Y-63443216D01*
X58832631Y-63689561D01*
X58422975Y-63859246D01*
X58042262Y-63934974D01*
X57988087Y-63945750D01*
X57544677Y-63945750D01*
X57490502Y-63934974D01*
X57109789Y-63859246D01*
X56700133Y-63689561D01*
X56331453Y-63443216D01*
X56017916Y-63129679D01*
X55771571Y-62760999D01*
X55601886Y-62351343D01*
X55515382Y-61916454D01*
X55515382Y-61473046D01*
X55601886Y-61038157D01*
X55771571Y-60628501D01*
X56017916Y-60259821D01*
X56331453Y-59946284D01*
X56700133Y-59699939D01*
X57109789Y-59530254D01*
X57490502Y-59454526D01*
X57544677Y-59443750D01*
X57988087Y-59443750D01*
X58042262Y-59454526D01*
G37*
G36*
X206489225Y-59454526D02*
G01*
X206869938Y-59530254D01*
X207279594Y-59699939D01*
X207648274Y-59946284D01*
X207961811Y-60259821D01*
X208208156Y-60628501D01*
X208377841Y-61038157D01*
X208464345Y-61473046D01*
X208464345Y-61916454D01*
X208377841Y-62351343D01*
X208208156Y-62760999D01*
X207961811Y-63129679D01*
X207648274Y-63443216D01*
X207279594Y-63689561D01*
X206869938Y-63859246D01*
X206489225Y-63934974D01*
X206435050Y-63945750D01*
X205991640Y-63945750D01*
X205937465Y-63934974D01*
X205556752Y-63859246D01*
X205147096Y-63689561D01*
X204778416Y-63443216D01*
X204464879Y-63129679D01*
X204218534Y-62760999D01*
X204048849Y-62351343D01*
X203962345Y-61916454D01*
X203962345Y-61473046D01*
X204048849Y-61038157D01*
X204218534Y-60628501D01*
X204464879Y-60259821D01*
X204778416Y-59946284D01*
X205147096Y-59699939D01*
X205556752Y-59530254D01*
X205937465Y-59454526D01*
X205991640Y-59443750D01*
X206435050Y-59443750D01*
X206489225Y-59454526D01*
G37*
G36*
X354936189Y-59454526D02*
G01*
X355316902Y-59530254D01*
X355726558Y-59699939D01*
X356095238Y-59946284D01*
X356408775Y-60259821D01*
X356655120Y-60628501D01*
X356824805Y-61038157D01*
X356911309Y-61473046D01*
X356911309Y-61916454D01*
X356824805Y-62351343D01*
X356655120Y-62760999D01*
X356408775Y-63129679D01*
X356095238Y-63443216D01*
X355726558Y-63689561D01*
X355316902Y-63859246D01*
X354936189Y-63934974D01*
X354882014Y-63945750D01*
X354438604Y-63945750D01*
X354384429Y-63934974D01*
X354003716Y-63859246D01*
X353594060Y-63689561D01*
X353225380Y-63443216D01*
X352911843Y-63129679D01*
X352665498Y-62760999D01*
X352495813Y-62351343D01*
X352409309Y-61916454D01*
X352409309Y-61473046D01*
X352495813Y-61038157D01*
X352665498Y-60628501D01*
X352911843Y-60259821D01*
X353225380Y-59946284D01*
X353594060Y-59699939D01*
X354003716Y-59530254D01*
X354384429Y-59454526D01*
X354438604Y-59443750D01*
X354882014Y-59443750D01*
X354936189Y-59454526D01*
G37*
M02*
