G04 #@! TF.GenerationSoftware,KiCad,Pcbnew,(5.1.5)-3*
G04 #@! TF.CreationDate,2020-06-26T11:59:49-04:00*
G04 #@! TF.ProjectId,discipline-pcb,64697363-6970-46c6-996e-652d7063622e,rev?*
G04 #@! TF.SameCoordinates,Original*
G04 #@! TF.FileFunction,Copper,L1,Top*
G04 #@! TF.FilePolarity,Positive*
%FSLAX46Y46*%
G04 Gerber Fmt 4.6, Leading zero omitted, Abs format (unit mm)*
G04 Created by KiCad (PCBNEW (5.1.5)-3) date 2020-06-26 11:59:49*
%MOMM*%
%LPD*%
G04 APERTURE LIST*
%ADD10C,0.010000*%
%ADD11C,3.000000*%
%ADD12C,4.400000*%
%ADD13C,0.800000*%
%ADD14C,0.254000*%
G04 APERTURE END LIST*
D10*
G36*
X158870985Y-108958112D02*
G01*
X160098538Y-109298701D01*
X161021051Y-109740144D01*
X161442233Y-110187362D01*
X161620439Y-111028920D01*
X161552783Y-111765354D01*
X161355996Y-112068076D01*
X160920525Y-112037855D01*
X160155635Y-111758413D01*
X159821758Y-111598833D01*
X158246516Y-111033794D01*
X156759502Y-110927194D01*
X155469498Y-111240490D01*
X154485290Y-111935136D01*
X153915662Y-112972589D01*
X153818089Y-113726048D01*
X154051380Y-114851439D01*
X154788204Y-115840507D01*
X156083985Y-116751171D01*
X157275081Y-117338613D01*
X159541400Y-118495077D01*
X161170390Y-119676765D01*
X162001937Y-120625110D01*
X162422840Y-121702178D01*
X162599451Y-123107913D01*
X162524854Y-124564499D01*
X162192131Y-125794120D01*
X162133631Y-125914969D01*
X161042702Y-127347034D01*
X159510709Y-128390558D01*
X157645375Y-129007725D01*
X155554418Y-129160714D01*
X153655268Y-128891570D01*
X152492368Y-128507316D01*
X151473508Y-127993613D01*
X150837169Y-127472530D01*
X150810896Y-127435632D01*
X150598351Y-126782523D01*
X150604552Y-126023320D01*
X150820039Y-125497688D01*
X150865863Y-125462387D01*
X151311365Y-125489468D01*
X152093337Y-125772739D01*
X152529168Y-125982804D01*
X154266407Y-126652003D01*
X155938596Y-126871130D01*
X157446154Y-126672940D01*
X158689502Y-126090183D01*
X159569059Y-125155614D01*
X159985246Y-123901983D01*
X160005268Y-123523872D01*
X159790947Y-122634057D01*
X159112851Y-121744643D01*
X157918281Y-120806596D01*
X156154541Y-119770880D01*
X155736011Y-119551396D01*
X153901346Y-118516319D01*
X152613632Y-117549105D01*
X151790994Y-116548054D01*
X151351561Y-115411469D01*
X151213459Y-114037653D01*
X151212961Y-113933123D01*
X151469045Y-112066618D01*
X152233626Y-110605739D01*
X153501196Y-109556151D01*
X155266247Y-108923519D01*
X156226363Y-108775859D01*
X157519792Y-108767468D01*
X158870985Y-108958112D01*
G37*
X158870985Y-108958112D02*
X160098538Y-109298701D01*
X161021051Y-109740144D01*
X161442233Y-110187362D01*
X161620439Y-111028920D01*
X161552783Y-111765354D01*
X161355996Y-112068076D01*
X160920525Y-112037855D01*
X160155635Y-111758413D01*
X159821758Y-111598833D01*
X158246516Y-111033794D01*
X156759502Y-110927194D01*
X155469498Y-111240490D01*
X154485290Y-111935136D01*
X153915662Y-112972589D01*
X153818089Y-113726048D01*
X154051380Y-114851439D01*
X154788204Y-115840507D01*
X156083985Y-116751171D01*
X157275081Y-117338613D01*
X159541400Y-118495077D01*
X161170390Y-119676765D01*
X162001937Y-120625110D01*
X162422840Y-121702178D01*
X162599451Y-123107913D01*
X162524854Y-124564499D01*
X162192131Y-125794120D01*
X162133631Y-125914969D01*
X161042702Y-127347034D01*
X159510709Y-128390558D01*
X157645375Y-129007725D01*
X155554418Y-129160714D01*
X153655268Y-128891570D01*
X152492368Y-128507316D01*
X151473508Y-127993613D01*
X150837169Y-127472530D01*
X150810896Y-127435632D01*
X150598351Y-126782523D01*
X150604552Y-126023320D01*
X150820039Y-125497688D01*
X150865863Y-125462387D01*
X151311365Y-125489468D01*
X152093337Y-125772739D01*
X152529168Y-125982804D01*
X154266407Y-126652003D01*
X155938596Y-126871130D01*
X157446154Y-126672940D01*
X158689502Y-126090183D01*
X159569059Y-125155614D01*
X159985246Y-123901983D01*
X160005268Y-123523872D01*
X159790947Y-122634057D01*
X159112851Y-121744643D01*
X157918281Y-120806596D01*
X156154541Y-119770880D01*
X155736011Y-119551396D01*
X153901346Y-118516319D01*
X152613632Y-117549105D01*
X151790994Y-116548054D01*
X151351561Y-115411469D01*
X151213459Y-114037653D01*
X151212961Y-113933123D01*
X151469045Y-112066618D01*
X152233626Y-110605739D01*
X153501196Y-109556151D01*
X155266247Y-108923519D01*
X156226363Y-108775859D01*
X157519792Y-108767468D01*
X158870985Y-108958112D01*
G36*
X182308392Y-108816567D02*
G01*
X184431510Y-109356777D01*
X185017193Y-109623684D01*
X186059754Y-110296612D01*
X186581113Y-111057378D01*
X186707833Y-111942438D01*
X186558492Y-112574255D01*
X186082126Y-112712086D01*
X185236216Y-112358191D01*
X184735944Y-112047251D01*
X183357734Y-111362017D01*
X181755367Y-111059246D01*
X181549538Y-111044689D01*
X179661954Y-111172783D01*
X178131103Y-111834695D01*
X176902302Y-113061715D01*
X176306448Y-114044648D01*
X175921601Y-114865578D01*
X175676479Y-115642490D01*
X175540701Y-116559771D01*
X175483889Y-117801810D01*
X175474838Y-119092084D01*
X175495217Y-120728942D01*
X175572579Y-121890329D01*
X175734005Y-122751373D01*
X176006578Y-123487197D01*
X176220665Y-123915105D01*
X177322678Y-125347575D01*
X178781598Y-126315616D01*
X180475293Y-126796031D01*
X182281627Y-126765625D01*
X184078469Y-126201204D01*
X185095549Y-125600608D01*
X185809895Y-125161583D01*
X186327999Y-124961814D01*
X186351051Y-124960664D01*
X186658245Y-125217674D01*
X186712369Y-125844064D01*
X186543854Y-126622869D01*
X186183130Y-127337128D01*
X185986293Y-127561355D01*
X184782640Y-128319389D01*
X183154860Y-128845079D01*
X181299174Y-129104419D01*
X179411803Y-129063406D01*
X178357809Y-128883357D01*
X176487502Y-128119158D01*
X174932203Y-126829578D01*
X173725032Y-125076352D01*
X172899109Y-122921219D01*
X172487555Y-120425914D01*
X172497346Y-117959382D01*
X172912324Y-115440835D01*
X173721381Y-113226324D01*
X174876046Y-111421065D01*
X176001588Y-110352818D01*
X177915273Y-109328996D01*
X180076927Y-108812109D01*
X182308392Y-108816567D01*
G37*
X182308392Y-108816567D02*
X184431510Y-109356777D01*
X185017193Y-109623684D01*
X186059754Y-110296612D01*
X186581113Y-111057378D01*
X186707833Y-111942438D01*
X186558492Y-112574255D01*
X186082126Y-112712086D01*
X185236216Y-112358191D01*
X184735944Y-112047251D01*
X183357734Y-111362017D01*
X181755367Y-111059246D01*
X181549538Y-111044689D01*
X179661954Y-111172783D01*
X178131103Y-111834695D01*
X176902302Y-113061715D01*
X176306448Y-114044648D01*
X175921601Y-114865578D01*
X175676479Y-115642490D01*
X175540701Y-116559771D01*
X175483889Y-117801810D01*
X175474838Y-119092084D01*
X175495217Y-120728942D01*
X175572579Y-121890329D01*
X175734005Y-122751373D01*
X176006578Y-123487197D01*
X176220665Y-123915105D01*
X177322678Y-125347575D01*
X178781598Y-126315616D01*
X180475293Y-126796031D01*
X182281627Y-126765625D01*
X184078469Y-126201204D01*
X185095549Y-125600608D01*
X185809895Y-125161583D01*
X186327999Y-124961814D01*
X186351051Y-124960664D01*
X186658245Y-125217674D01*
X186712369Y-125844064D01*
X186543854Y-126622869D01*
X186183130Y-127337128D01*
X185986293Y-127561355D01*
X184782640Y-128319389D01*
X183154860Y-128845079D01*
X181299174Y-129104419D01*
X179411803Y-129063406D01*
X178357809Y-128883357D01*
X176487502Y-128119158D01*
X174932203Y-126829578D01*
X173725032Y-125076352D01*
X172899109Y-122921219D01*
X172487555Y-120425914D01*
X172497346Y-117959382D01*
X172912324Y-115440835D01*
X173721381Y-113226324D01*
X174876046Y-111421065D01*
X176001588Y-110352818D01*
X177915273Y-109328996D01*
X180076927Y-108812109D01*
X182308392Y-108816567D01*
G36*
X116840747Y-109091587D02*
G01*
X118966376Y-109331993D01*
X120727792Y-109818972D01*
X122253182Y-110577026D01*
X122324535Y-110621837D01*
X123836774Y-111954263D01*
X124972378Y-113745812D01*
X125699855Y-115903294D01*
X125987713Y-118333524D01*
X125807095Y-120926872D01*
X125185497Y-123401153D01*
X124173460Y-125379111D01*
X122737667Y-126909062D01*
X120928345Y-128001801D01*
X120018923Y-128289072D01*
X118741532Y-128528703D01*
X117233993Y-128713840D01*
X115634125Y-128837631D01*
X114079748Y-128893222D01*
X112708681Y-128873760D01*
X111658745Y-128772392D01*
X111067758Y-128582265D01*
X110995675Y-128495705D01*
X110954428Y-128065302D01*
X110922636Y-127069857D01*
X110901046Y-125595553D01*
X110890408Y-123728571D01*
X110891470Y-121555095D01*
X110904981Y-119161306D01*
X110909763Y-118606700D01*
X110976890Y-111283741D01*
X113438602Y-111283741D01*
X113438602Y-126588869D01*
X115974730Y-126588869D01*
X117542780Y-126534889D01*
X118714363Y-126342561D01*
X119737656Y-125966301D01*
X119963833Y-125856177D01*
X121339198Y-124881593D01*
X122307401Y-123518556D01*
X122902131Y-121702496D01*
X123138162Y-119772164D01*
X123126380Y-117463917D01*
X122774926Y-115608300D01*
X122052785Y-114084443D01*
X121489602Y-113347626D01*
X120425520Y-112346137D01*
X119236390Y-111709893D01*
X117753176Y-111376577D01*
X115891369Y-111283741D01*
X113438602Y-111283741D01*
X110976890Y-111283741D01*
X110996294Y-109167074D01*
X114222715Y-109073252D01*
X116840747Y-109091587D01*
G37*
X116840747Y-109091587D02*
X118966376Y-109331993D01*
X120727792Y-109818972D01*
X122253182Y-110577026D01*
X122324535Y-110621837D01*
X123836774Y-111954263D01*
X124972378Y-113745812D01*
X125699855Y-115903294D01*
X125987713Y-118333524D01*
X125807095Y-120926872D01*
X125185497Y-123401153D01*
X124173460Y-125379111D01*
X122737667Y-126909062D01*
X120928345Y-128001801D01*
X120018923Y-128289072D01*
X118741532Y-128528703D01*
X117233993Y-128713840D01*
X115634125Y-128837631D01*
X114079748Y-128893222D01*
X112708681Y-128873760D01*
X111658745Y-128772392D01*
X111067758Y-128582265D01*
X110995675Y-128495705D01*
X110954428Y-128065302D01*
X110922636Y-127069857D01*
X110901046Y-125595553D01*
X110890408Y-123728571D01*
X110891470Y-121555095D01*
X110904981Y-119161306D01*
X110909763Y-118606700D01*
X110976890Y-111283741D01*
X113438602Y-111283741D01*
X113438602Y-126588869D01*
X115974730Y-126588869D01*
X117542780Y-126534889D01*
X118714363Y-126342561D01*
X119737656Y-125966301D01*
X119963833Y-125856177D01*
X121339198Y-124881593D01*
X122307401Y-123518556D01*
X122902131Y-121702496D01*
X123138162Y-119772164D01*
X123126380Y-117463917D01*
X122774926Y-115608300D01*
X122052785Y-114084443D01*
X121489602Y-113347626D01*
X120425520Y-112346137D01*
X119236390Y-111709893D01*
X117753176Y-111376577D01*
X115891369Y-111283741D01*
X113438602Y-111283741D01*
X110976890Y-111283741D01*
X110996294Y-109167074D01*
X114222715Y-109073252D01*
X116840747Y-109091587D01*
G36*
X139652704Y-128705536D02*
G01*
X138592132Y-128807745D01*
X137734339Y-128757271D01*
X137365857Y-128478140D01*
X137326343Y-128052383D01*
X137296116Y-127061376D01*
X137275865Y-125591095D01*
X137266281Y-123727515D01*
X137268052Y-121556612D01*
X137281868Y-119164362D01*
X137286686Y-118606700D01*
X137373217Y-109167074D01*
X139652704Y-109167074D01*
X139652704Y-128705536D01*
G37*
X139652704Y-128705536D02*
X138592132Y-128807745D01*
X137734339Y-128757271D01*
X137365857Y-128478140D01*
X137326343Y-128052383D01*
X137296116Y-127061376D01*
X137275865Y-125591095D01*
X137266281Y-123727515D01*
X137268052Y-121556612D01*
X137281868Y-119164362D01*
X137286686Y-118606700D01*
X137373217Y-109167074D01*
X139652704Y-109167074D01*
X139652704Y-128705536D01*
G36*
X199733474Y-128868356D02*
G01*
X198583510Y-128868356D01*
X197776719Y-128763113D01*
X197301855Y-128505001D01*
X197275825Y-128457341D01*
X197238361Y-128037083D01*
X197209987Y-127051329D01*
X197191321Y-125585810D01*
X197182984Y-123726257D01*
X197185595Y-121558403D01*
X197199773Y-119167977D01*
X197204635Y-118606700D01*
X197291166Y-109167074D01*
X198512320Y-109066006D01*
X199733474Y-108964939D01*
X199733474Y-128868356D01*
G37*
X199733474Y-128868356D02*
X198583510Y-128868356D01*
X197776719Y-128763113D01*
X197301855Y-128505001D01*
X197275825Y-128457341D01*
X197238361Y-128037083D01*
X197209987Y-127051329D01*
X197191321Y-125585810D01*
X197182984Y-123726257D01*
X197185595Y-121558403D01*
X197199773Y-119167977D01*
X197204635Y-118606700D01*
X197291166Y-109167074D01*
X198512320Y-109066006D01*
X199733474Y-108964939D01*
X199733474Y-128868356D01*
G36*
X216772434Y-109063453D02*
G01*
X218469498Y-109146283D01*
X219671884Y-109261084D01*
X220536190Y-109436593D01*
X221219010Y-109701548D01*
X221689324Y-109965776D01*
X222951973Y-110963325D01*
X223730079Y-112162832D01*
X224096871Y-113710114D01*
X224149976Y-114865792D01*
X223913490Y-116975774D01*
X223203867Y-118655630D01*
X222007196Y-119918378D01*
X220309564Y-120777039D01*
X218097060Y-121244630D01*
X217258435Y-121314938D01*
X214712961Y-121462293D01*
X214712961Y-128868356D01*
X213627491Y-128868356D01*
X212822859Y-128808780D01*
X212339632Y-128664082D01*
X212324927Y-128651262D01*
X212269248Y-128281924D01*
X212218851Y-127345213D01*
X212175641Y-125925030D01*
X212141520Y-124105276D01*
X212118393Y-121969850D01*
X212108164Y-119602654D01*
X212107833Y-119084725D01*
X212112191Y-116311798D01*
X212127595Y-114120557D01*
X212157535Y-112441449D01*
X212202444Y-111283741D01*
X214712961Y-111283741D01*
X214712961Y-115137160D01*
X214730325Y-116660491D01*
X214777568Y-117938010D01*
X214847415Y-118833300D01*
X214930055Y-119207672D01*
X215448721Y-119376692D01*
X216380697Y-119412673D01*
X217503153Y-119322206D01*
X218593260Y-119111881D01*
X218644834Y-119097805D01*
X220030591Y-118457547D01*
X220942026Y-117410837D01*
X221419032Y-115905190D01*
X221482743Y-115363924D01*
X221538368Y-114298498D01*
X221420245Y-113605014D01*
X221034951Y-113009104D01*
X220483973Y-112430650D01*
X219841839Y-111828796D01*
X219280526Y-111485486D01*
X218581980Y-111328419D01*
X217528150Y-111285296D01*
X217025012Y-111283741D01*
X214712961Y-111283741D01*
X212202444Y-111283741D01*
X212205502Y-111204921D01*
X212274989Y-110341421D01*
X212369487Y-109781397D01*
X212492487Y-109455296D01*
X212597566Y-109328839D01*
X213077616Y-109138656D01*
X213997523Y-109039107D01*
X215434089Y-109025309D01*
X216772434Y-109063453D01*
G37*
X216772434Y-109063453D02*
X218469498Y-109146283D01*
X219671884Y-109261084D01*
X220536190Y-109436593D01*
X221219010Y-109701548D01*
X221689324Y-109965776D01*
X222951973Y-110963325D01*
X223730079Y-112162832D01*
X224096871Y-113710114D01*
X224149976Y-114865792D01*
X223913490Y-116975774D01*
X223203867Y-118655630D01*
X222007196Y-119918378D01*
X220309564Y-120777039D01*
X218097060Y-121244630D01*
X217258435Y-121314938D01*
X214712961Y-121462293D01*
X214712961Y-128868356D01*
X213627491Y-128868356D01*
X212822859Y-128808780D01*
X212339632Y-128664082D01*
X212324927Y-128651262D01*
X212269248Y-128281924D01*
X212218851Y-127345213D01*
X212175641Y-125925030D01*
X212141520Y-124105276D01*
X212118393Y-121969850D01*
X212108164Y-119602654D01*
X212107833Y-119084725D01*
X212112191Y-116311798D01*
X212127595Y-114120557D01*
X212157535Y-112441449D01*
X212202444Y-111283741D01*
X214712961Y-111283741D01*
X214712961Y-115137160D01*
X214730325Y-116660491D01*
X214777568Y-117938010D01*
X214847415Y-118833300D01*
X214930055Y-119207672D01*
X215448721Y-119376692D01*
X216380697Y-119412673D01*
X217503153Y-119322206D01*
X218593260Y-119111881D01*
X218644834Y-119097805D01*
X220030591Y-118457547D01*
X220942026Y-117410837D01*
X221419032Y-115905190D01*
X221482743Y-115363924D01*
X221538368Y-114298498D01*
X221420245Y-113605014D01*
X221034951Y-113009104D01*
X220483973Y-112430650D01*
X219841839Y-111828796D01*
X219280526Y-111485486D01*
X218581980Y-111328419D01*
X217528150Y-111285296D01*
X217025012Y-111283741D01*
X214712961Y-111283741D01*
X212202444Y-111283741D01*
X212205502Y-111204921D01*
X212274989Y-110341421D01*
X212369487Y-109781397D01*
X212492487Y-109455296D01*
X212597566Y-109328839D01*
X213077616Y-109138656D01*
X213997523Y-109039107D01*
X215434089Y-109025309D01*
X216772434Y-109063453D01*
G36*
X236775140Y-109066006D02*
G01*
X237996294Y-109167074D01*
X238169712Y-126567638D01*
X245486038Y-126751690D01*
X245486038Y-128705536D01*
X240745453Y-128795293D01*
X239049744Y-128812395D01*
X237590497Y-128798761D01*
X236489251Y-128757711D01*
X235867547Y-128692567D01*
X235779427Y-128659609D01*
X235722717Y-128288970D01*
X235671236Y-127349275D01*
X235626846Y-125922741D01*
X235591408Y-124091586D01*
X235566783Y-121938027D01*
X235554832Y-119544281D01*
X235553986Y-118699553D01*
X235553986Y-108964939D01*
X236775140Y-109066006D01*
G37*
X236775140Y-109066006D02*
X237996294Y-109167074D01*
X238169712Y-126567638D01*
X245486038Y-126751690D01*
X245486038Y-128705536D01*
X240745453Y-128795293D01*
X239049744Y-128812395D01*
X237590497Y-128798761D01*
X236489251Y-128757711D01*
X235867547Y-128692567D01*
X235779427Y-128659609D01*
X235722717Y-128288970D01*
X235671236Y-127349275D01*
X235626846Y-125922741D01*
X235591408Y-124091586D01*
X235566783Y-121938027D01*
X235554832Y-119544281D01*
X235553986Y-118699553D01*
X235553986Y-108964939D01*
X236775140Y-109066006D01*
G36*
X256964884Y-109066006D02*
G01*
X258186038Y-109167074D01*
X258186038Y-128705536D01*
X256964884Y-128806603D01*
X255743730Y-128907671D01*
X255743730Y-108964939D01*
X256964884Y-109066006D01*
G37*
X256964884Y-109066006D02*
X258186038Y-109167074D01*
X258186038Y-128705536D01*
X256964884Y-128806603D01*
X255743730Y-128907671D01*
X255743730Y-108964939D01*
X256964884Y-109066006D01*
G36*
X285300459Y-118833904D02*
G01*
X285214243Y-128705536D01*
X284074499Y-128801439D01*
X283141336Y-128751393D01*
X282421937Y-128499762D01*
X282388843Y-128475798D01*
X282092989Y-128088758D01*
X281531426Y-127207531D01*
X280750072Y-125909819D01*
X279794845Y-124273324D01*
X278711662Y-122375747D01*
X277546443Y-120294791D01*
X277428567Y-120082112D01*
X273014204Y-112109970D01*
X272839884Y-128705536D01*
X271776744Y-128807937D01*
X270713605Y-128910337D01*
X270799821Y-119038706D01*
X270886038Y-109167074D01*
X272396335Y-109069312D01*
X273401652Y-109063734D01*
X274023819Y-109268611D01*
X274513002Y-109760272D01*
X274833672Y-110258886D01*
X275413533Y-111242227D01*
X276202418Y-112621901D01*
X277150161Y-114309517D01*
X278206598Y-116216681D01*
X279027063Y-117714095D01*
X282934756Y-124879196D01*
X283097576Y-117023135D01*
X283260397Y-109167074D01*
X284323536Y-109064673D01*
X285386676Y-108962272D01*
X285300459Y-118833904D01*
G37*
X285300459Y-118833904D02*
X285214243Y-128705536D01*
X284074499Y-128801439D01*
X283141336Y-128751393D01*
X282421937Y-128499762D01*
X282388843Y-128475798D01*
X282092989Y-128088758D01*
X281531426Y-127207531D01*
X280750072Y-125909819D01*
X279794845Y-124273324D01*
X278711662Y-122375747D01*
X277546443Y-120294791D01*
X277428567Y-120082112D01*
X273014204Y-112109970D01*
X272839884Y-128705536D01*
X271776744Y-128807937D01*
X270713605Y-128910337D01*
X270799821Y-119038706D01*
X270886038Y-109167074D01*
X272396335Y-109069312D01*
X273401652Y-109063734D01*
X274023819Y-109268611D01*
X274513002Y-109760272D01*
X274833672Y-110258886D01*
X275413533Y-111242227D01*
X276202418Y-112621901D01*
X277150161Y-114309517D01*
X278206598Y-116216681D01*
X279027063Y-117714095D01*
X282934756Y-124879196D01*
X283097576Y-117023135D01*
X283260397Y-109167074D01*
X284323536Y-109064673D01*
X285386676Y-108962272D01*
X285300459Y-118833904D01*
G36*
X305398825Y-109010163D02*
G01*
X306752335Y-109035663D01*
X307653095Y-109092416D01*
X308200349Y-109192082D01*
X308493339Y-109346322D01*
X308631306Y-109566797D01*
X308645836Y-109609660D01*
X308709806Y-110398108D01*
X308632941Y-110749404D01*
X308460338Y-110976086D01*
X308076642Y-111129382D01*
X307374645Y-111222761D01*
X306247144Y-111269690D01*
X304586934Y-111283641D01*
X304380003Y-111283741D01*
X300332111Y-111283741D01*
X300425741Y-114295920D01*
X300519371Y-117308100D01*
X307520653Y-117492954D01*
X307520653Y-119424766D01*
X300356550Y-119424766D01*
X300356550Y-126569411D01*
X304508474Y-126660550D01*
X308660397Y-126751690D01*
X308660397Y-128705536D01*
X303604577Y-128794844D01*
X301455550Y-128815045D01*
X299893268Y-128786238D01*
X298854779Y-128704853D01*
X298277132Y-128567321D01*
X298150090Y-128485485D01*
X298026734Y-128043374D01*
X297924273Y-127053154D01*
X297842750Y-125617629D01*
X297782206Y-123839604D01*
X297742684Y-121821883D01*
X297724226Y-119667270D01*
X297726876Y-117478569D01*
X297750676Y-115358585D01*
X297795668Y-113410122D01*
X297861895Y-111735983D01*
X297949399Y-110438975D01*
X298058223Y-109621899D01*
X298142192Y-109395023D01*
X298603553Y-109221591D01*
X299609906Y-109100337D01*
X301195727Y-109028741D01*
X303395496Y-109004287D01*
X303493324Y-109004254D01*
X305398825Y-109010163D01*
G37*
X305398825Y-109010163D02*
X306752335Y-109035663D01*
X307653095Y-109092416D01*
X308200349Y-109192082D01*
X308493339Y-109346322D01*
X308631306Y-109566797D01*
X308645836Y-109609660D01*
X308709806Y-110398108D01*
X308632941Y-110749404D01*
X308460338Y-110976086D01*
X308076642Y-111129382D01*
X307374645Y-111222761D01*
X306247144Y-111269690D01*
X304586934Y-111283641D01*
X304380003Y-111283741D01*
X300332111Y-111283741D01*
X300425741Y-114295920D01*
X300519371Y-117308100D01*
X307520653Y-117492954D01*
X307520653Y-119424766D01*
X300356550Y-119424766D01*
X300356550Y-126569411D01*
X304508474Y-126660550D01*
X308660397Y-126751690D01*
X308660397Y-128705536D01*
X303604577Y-128794844D01*
X301455550Y-128815045D01*
X299893268Y-128786238D01*
X298854779Y-128704853D01*
X298277132Y-128567321D01*
X298150090Y-128485485D01*
X298026734Y-128043374D01*
X297924273Y-127053154D01*
X297842750Y-125617629D01*
X297782206Y-123839604D01*
X297742684Y-121821883D01*
X297724226Y-119667270D01*
X297726876Y-117478569D01*
X297750676Y-115358585D01*
X297795668Y-113410122D01*
X297861895Y-111735983D01*
X297949399Y-110438975D01*
X298058223Y-109621899D01*
X298142192Y-109395023D01*
X298603553Y-109221591D01*
X299609906Y-109100337D01*
X301195727Y-109028741D01*
X303395496Y-109004287D01*
X303493324Y-109004254D01*
X305398825Y-109010163D01*
D11*
X96808345Y-152463484D02*
G75*
G02X96808345Y-85763484I0J33350000D01*
G01*
X315618345Y-85763484D02*
G75*
G02X315618345Y-152463484I0J-33350000D01*
G01*
X96878345Y-85733484D02*
X316198345Y-85763484D01*
X96428345Y-152383484D02*
X315748345Y-152413484D01*
D10*
G36*
X296533181Y-133414417D02*
G01*
X296537380Y-133429439D01*
X296544808Y-133456426D01*
X296555014Y-133493722D01*
X296567549Y-133539669D01*
X296581964Y-133592610D01*
X296597809Y-133650886D01*
X296614634Y-133712840D01*
X296631990Y-133776815D01*
X296649428Y-133841153D01*
X296666498Y-133904197D01*
X296682751Y-133964289D01*
X296697737Y-134019772D01*
X296711006Y-134068988D01*
X296722109Y-134110279D01*
X296730597Y-134141988D01*
X296735518Y-134160542D01*
X296743204Y-134188753D01*
X296750119Y-134212292D01*
X296755131Y-134227372D01*
X296756298Y-134230092D01*
X296758832Y-134225138D01*
X296764437Y-134207604D01*
X296772815Y-134178613D01*
X296783665Y-134139286D01*
X296796686Y-134090746D01*
X296811579Y-134034115D01*
X296828043Y-133970515D01*
X296845778Y-133901069D01*
X296864484Y-133826898D01*
X296869083Y-133808522D01*
X296976845Y-133377375D01*
X297057115Y-133377375D01*
X297094044Y-133377800D01*
X297118587Y-133379203D01*
X297132445Y-133381774D01*
X297137321Y-133385702D01*
X297137384Y-133386336D01*
X297135596Y-133397230D01*
X297130891Y-133417449D01*
X297124260Y-133442757D01*
X297123768Y-133444545D01*
X297120012Y-133458344D01*
X297112885Y-133484755D01*
X297102658Y-133522759D01*
X297089606Y-133571337D01*
X297074001Y-133629468D01*
X297056118Y-133696134D01*
X297036230Y-133770314D01*
X297014610Y-133850989D01*
X296991532Y-133937140D01*
X296967269Y-134027746D01*
X296942094Y-134121789D01*
X296932862Y-134156284D01*
X296907458Y-134250917D01*
X296882803Y-134342180D01*
X296859172Y-134429085D01*
X296836843Y-134510643D01*
X296816090Y-134585866D01*
X296797189Y-134653764D01*
X296780416Y-134713349D01*
X296766047Y-134763632D01*
X296754358Y-134803625D01*
X296745624Y-134832338D01*
X296740122Y-134848784D01*
X296738916Y-134851650D01*
X296710969Y-134894971D01*
X296674648Y-134930186D01*
X296628934Y-134957844D01*
X296572810Y-134978494D01*
X296505256Y-134992686D01*
X296468870Y-134997323D01*
X296424773Y-135001976D01*
X296424773Y-134846863D01*
X296469078Y-134843306D01*
X296520726Y-134832841D01*
X296564965Y-134810375D01*
X296601686Y-134775983D01*
X296629149Y-134733056D01*
X296636670Y-134714628D01*
X296646109Y-134686539D01*
X296656570Y-134652082D01*
X296667156Y-134614548D01*
X296676970Y-134577227D01*
X296685116Y-134543412D01*
X296690698Y-134516395D01*
X296692817Y-134499465D01*
X296692818Y-134499342D01*
X296690824Y-134489999D01*
X296685026Y-134468202D01*
X296675729Y-134434998D01*
X296663240Y-134391431D01*
X296647865Y-134338548D01*
X296629910Y-134277393D01*
X296609682Y-134209013D01*
X296587487Y-134134453D01*
X296563630Y-134054758D01*
X296538419Y-133970975D01*
X296527078Y-133933423D01*
X296501435Y-133848561D01*
X296477005Y-133767624D01*
X296454092Y-133691623D01*
X296432999Y-133621572D01*
X296414032Y-133558482D01*
X296397493Y-133503367D01*
X296383687Y-133457239D01*
X296372917Y-133421110D01*
X296365489Y-133395993D01*
X296361706Y-133382900D01*
X296361273Y-133381193D01*
X296367862Y-133379685D01*
X296385768Y-133378459D01*
X296412197Y-133377645D01*
X296441911Y-133377375D01*
X296522549Y-133377375D01*
X296533181Y-133414417D01*
G37*
X296533181Y-133414417D02*
X296537380Y-133429439D01*
X296544808Y-133456426D01*
X296555014Y-133493722D01*
X296567549Y-133539669D01*
X296581964Y-133592610D01*
X296597809Y-133650886D01*
X296614634Y-133712840D01*
X296631990Y-133776815D01*
X296649428Y-133841153D01*
X296666498Y-133904197D01*
X296682751Y-133964289D01*
X296697737Y-134019772D01*
X296711006Y-134068988D01*
X296722109Y-134110279D01*
X296730597Y-134141988D01*
X296735518Y-134160542D01*
X296743204Y-134188753D01*
X296750119Y-134212292D01*
X296755131Y-134227372D01*
X296756298Y-134230092D01*
X296758832Y-134225138D01*
X296764437Y-134207604D01*
X296772815Y-134178613D01*
X296783665Y-134139286D01*
X296796686Y-134090746D01*
X296811579Y-134034115D01*
X296828043Y-133970515D01*
X296845778Y-133901069D01*
X296864484Y-133826898D01*
X296869083Y-133808522D01*
X296976845Y-133377375D01*
X297057115Y-133377375D01*
X297094044Y-133377800D01*
X297118587Y-133379203D01*
X297132445Y-133381774D01*
X297137321Y-133385702D01*
X297137384Y-133386336D01*
X297135596Y-133397230D01*
X297130891Y-133417449D01*
X297124260Y-133442757D01*
X297123768Y-133444545D01*
X297120012Y-133458344D01*
X297112885Y-133484755D01*
X297102658Y-133522759D01*
X297089606Y-133571337D01*
X297074001Y-133629468D01*
X297056118Y-133696134D01*
X297036230Y-133770314D01*
X297014610Y-133850989D01*
X296991532Y-133937140D01*
X296967269Y-134027746D01*
X296942094Y-134121789D01*
X296932862Y-134156284D01*
X296907458Y-134250917D01*
X296882803Y-134342180D01*
X296859172Y-134429085D01*
X296836843Y-134510643D01*
X296816090Y-134585866D01*
X296797189Y-134653764D01*
X296780416Y-134713349D01*
X296766047Y-134763632D01*
X296754358Y-134803625D01*
X296745624Y-134832338D01*
X296740122Y-134848784D01*
X296738916Y-134851650D01*
X296710969Y-134894971D01*
X296674648Y-134930186D01*
X296628934Y-134957844D01*
X296572810Y-134978494D01*
X296505256Y-134992686D01*
X296468870Y-134997323D01*
X296424773Y-135001976D01*
X296424773Y-134846863D01*
X296469078Y-134843306D01*
X296520726Y-134832841D01*
X296564965Y-134810375D01*
X296601686Y-134775983D01*
X296629149Y-134733056D01*
X296636670Y-134714628D01*
X296646109Y-134686539D01*
X296656570Y-134652082D01*
X296667156Y-134614548D01*
X296676970Y-134577227D01*
X296685116Y-134543412D01*
X296690698Y-134516395D01*
X296692817Y-134499465D01*
X296692818Y-134499342D01*
X296690824Y-134489999D01*
X296685026Y-134468202D01*
X296675729Y-134434998D01*
X296663240Y-134391431D01*
X296647865Y-134338548D01*
X296629910Y-134277393D01*
X296609682Y-134209013D01*
X296587487Y-134134453D01*
X296563630Y-134054758D01*
X296538419Y-133970975D01*
X296527078Y-133933423D01*
X296501435Y-133848561D01*
X296477005Y-133767624D01*
X296454092Y-133691623D01*
X296432999Y-133621572D01*
X296414032Y-133558482D01*
X296397493Y-133503367D01*
X296383687Y-133457239D01*
X296372917Y-133421110D01*
X296365489Y-133395993D01*
X296361706Y-133382900D01*
X296361273Y-133381193D01*
X296367862Y-133379685D01*
X296385768Y-133378459D01*
X296412197Y-133377645D01*
X296441911Y-133377375D01*
X296522549Y-133377375D01*
X296533181Y-133414417D01*
G36*
X293388713Y-133358440D02*
G01*
X293460586Y-133369347D01*
X293524240Y-133391106D01*
X293579114Y-133423325D01*
X293624648Y-133465609D01*
X293660283Y-133517566D01*
X293680505Y-133563573D01*
X293686426Y-133584664D01*
X293692154Y-133612232D01*
X293697234Y-133642844D01*
X293701209Y-133673072D01*
X293703623Y-133699482D01*
X293704018Y-133718644D01*
X293702230Y-133726899D01*
X293694244Y-133728259D01*
X293675286Y-133729340D01*
X293648497Y-133730006D01*
X293627043Y-133730153D01*
X293555110Y-133730153D01*
X293550317Y-133683368D01*
X293542624Y-133637002D01*
X293529317Y-133600436D01*
X293508916Y-133569983D01*
X293501651Y-133561965D01*
X293474010Y-133536917D01*
X293445784Y-133520603D01*
X293412980Y-133511513D01*
X293371606Y-133508134D01*
X293359134Y-133508004D01*
X293312998Y-133510498D01*
X293276874Y-133518871D01*
X293247411Y-133534465D01*
X293221261Y-133558619D01*
X293215374Y-133565511D01*
X293205411Y-133577950D01*
X293197109Y-133589863D01*
X293190319Y-133602618D01*
X293184888Y-133617581D01*
X293180666Y-133636120D01*
X293177500Y-133659601D01*
X293175241Y-133689392D01*
X293173736Y-133726860D01*
X293172834Y-133773371D01*
X293172385Y-133830292D01*
X293172236Y-133898991D01*
X293172231Y-133955424D01*
X293172300Y-134255792D01*
X293188936Y-134291070D01*
X293213791Y-134330875D01*
X293246029Y-134359530D01*
X293286624Y-134377593D01*
X293336548Y-134385623D01*
X293354788Y-134386165D01*
X293400418Y-134384057D01*
X293436376Y-134376547D01*
X293466496Y-134362319D01*
X293494612Y-134340055D01*
X293497743Y-134337064D01*
X293527391Y-134298890D01*
X293546405Y-134253722D01*
X293553161Y-134205424D01*
X293553162Y-134205122D01*
X293553162Y-134181708D01*
X293708384Y-134181708D01*
X293708331Y-134201111D01*
X293702977Y-134257654D01*
X293688242Y-134315212D01*
X293665665Y-134369822D01*
X293636782Y-134417521D01*
X293613924Y-134444388D01*
X293575321Y-134475496D01*
X293527928Y-134502069D01*
X293476945Y-134521399D01*
X293455801Y-134526689D01*
X293422121Y-134531324D01*
X293380588Y-134533545D01*
X293336069Y-134533425D01*
X293293434Y-134531038D01*
X293257552Y-134526457D01*
X293244169Y-134523503D01*
X293180106Y-134500051D01*
X293126216Y-134466834D01*
X293082324Y-134423678D01*
X293048252Y-134370407D01*
X293023821Y-134306845D01*
X293023348Y-134305181D01*
X293020888Y-134293698D01*
X293018845Y-134277476D01*
X293017184Y-134255318D01*
X293015873Y-134226029D01*
X293014879Y-134188412D01*
X293014170Y-134141271D01*
X293013711Y-134083411D01*
X293013470Y-134013636D01*
X293013412Y-133945347D01*
X293013425Y-133869239D01*
X293013505Y-133805870D01*
X293013712Y-133753864D01*
X293014108Y-133711851D01*
X293014753Y-133678455D01*
X293015709Y-133652305D01*
X293017035Y-133632027D01*
X293018794Y-133616248D01*
X293021045Y-133603594D01*
X293023851Y-133592693D01*
X293027271Y-133582170D01*
X293029836Y-133574931D01*
X293059194Y-133511254D01*
X293097655Y-133458270D01*
X293144882Y-133416180D01*
X293200536Y-133385189D01*
X293264279Y-133365502D01*
X293335773Y-133357322D01*
X293388713Y-133358440D01*
G37*
X293388713Y-133358440D02*
X293460586Y-133369347D01*
X293524240Y-133391106D01*
X293579114Y-133423325D01*
X293624648Y-133465609D01*
X293660283Y-133517566D01*
X293680505Y-133563573D01*
X293686426Y-133584664D01*
X293692154Y-133612232D01*
X293697234Y-133642844D01*
X293701209Y-133673072D01*
X293703623Y-133699482D01*
X293704018Y-133718644D01*
X293702230Y-133726899D01*
X293694244Y-133728259D01*
X293675286Y-133729340D01*
X293648497Y-133730006D01*
X293627043Y-133730153D01*
X293555110Y-133730153D01*
X293550317Y-133683368D01*
X293542624Y-133637002D01*
X293529317Y-133600436D01*
X293508916Y-133569983D01*
X293501651Y-133561965D01*
X293474010Y-133536917D01*
X293445784Y-133520603D01*
X293412980Y-133511513D01*
X293371606Y-133508134D01*
X293359134Y-133508004D01*
X293312998Y-133510498D01*
X293276874Y-133518871D01*
X293247411Y-133534465D01*
X293221261Y-133558619D01*
X293215374Y-133565511D01*
X293205411Y-133577950D01*
X293197109Y-133589863D01*
X293190319Y-133602618D01*
X293184888Y-133617581D01*
X293180666Y-133636120D01*
X293177500Y-133659601D01*
X293175241Y-133689392D01*
X293173736Y-133726860D01*
X293172834Y-133773371D01*
X293172385Y-133830292D01*
X293172236Y-133898991D01*
X293172231Y-133955424D01*
X293172300Y-134255792D01*
X293188936Y-134291070D01*
X293213791Y-134330875D01*
X293246029Y-134359530D01*
X293286624Y-134377593D01*
X293336548Y-134385623D01*
X293354788Y-134386165D01*
X293400418Y-134384057D01*
X293436376Y-134376547D01*
X293466496Y-134362319D01*
X293494612Y-134340055D01*
X293497743Y-134337064D01*
X293527391Y-134298890D01*
X293546405Y-134253722D01*
X293553161Y-134205424D01*
X293553162Y-134205122D01*
X293553162Y-134181708D01*
X293708384Y-134181708D01*
X293708331Y-134201111D01*
X293702977Y-134257654D01*
X293688242Y-134315212D01*
X293665665Y-134369822D01*
X293636782Y-134417521D01*
X293613924Y-134444388D01*
X293575321Y-134475496D01*
X293527928Y-134502069D01*
X293476945Y-134521399D01*
X293455801Y-134526689D01*
X293422121Y-134531324D01*
X293380588Y-134533545D01*
X293336069Y-134533425D01*
X293293434Y-134531038D01*
X293257552Y-134526457D01*
X293244169Y-134523503D01*
X293180106Y-134500051D01*
X293126216Y-134466834D01*
X293082324Y-134423678D01*
X293048252Y-134370407D01*
X293023821Y-134306845D01*
X293023348Y-134305181D01*
X293020888Y-134293698D01*
X293018845Y-134277476D01*
X293017184Y-134255318D01*
X293015873Y-134226029D01*
X293014879Y-134188412D01*
X293014170Y-134141271D01*
X293013711Y-134083411D01*
X293013470Y-134013636D01*
X293013412Y-133945347D01*
X293013425Y-133869239D01*
X293013505Y-133805870D01*
X293013712Y-133753864D01*
X293014108Y-133711851D01*
X293014753Y-133678455D01*
X293015709Y-133652305D01*
X293017035Y-133632027D01*
X293018794Y-133616248D01*
X293021045Y-133603594D01*
X293023851Y-133592693D01*
X293027271Y-133582170D01*
X293029836Y-133574931D01*
X293059194Y-133511254D01*
X293097655Y-133458270D01*
X293144882Y-133416180D01*
X293200536Y-133385189D01*
X293264279Y-133365502D01*
X293335773Y-133357322D01*
X293388713Y-133358440D01*
G36*
X294263152Y-133362317D02*
G01*
X294327763Y-133379489D01*
X294384060Y-133407315D01*
X294431379Y-133445264D01*
X294469059Y-133492804D01*
X294496438Y-133549402D01*
X294512854Y-133614528D01*
X294512924Y-133614986D01*
X294515109Y-133637813D01*
X294516797Y-133674408D01*
X294517983Y-133724439D01*
X294518664Y-133787571D01*
X294518833Y-133863470D01*
X294518486Y-133951803D01*
X294518298Y-133978347D01*
X294517706Y-134053046D01*
X294517131Y-134115046D01*
X294516501Y-134165760D01*
X294515741Y-134206600D01*
X294514777Y-134238979D01*
X294513537Y-134264307D01*
X294511946Y-134283999D01*
X294509930Y-134299466D01*
X294507417Y-134312120D01*
X294504331Y-134323373D01*
X294500599Y-134334638D01*
X294499535Y-134337684D01*
X294472008Y-134396192D01*
X294434028Y-134445738D01*
X294386501Y-134485372D01*
X294331265Y-134513789D01*
X294298733Y-134522716D01*
X294256804Y-134529020D01*
X294209981Y-134532516D01*
X294162765Y-134533016D01*
X294119660Y-134530335D01*
X294085166Y-134524286D01*
X294084195Y-134524018D01*
X294021605Y-134500207D01*
X293969335Y-134466779D01*
X293927412Y-134423760D01*
X293895861Y-134371176D01*
X293874707Y-134309053D01*
X293874481Y-134308097D01*
X293871556Y-134288156D01*
X293869043Y-134256126D01*
X293866942Y-134213856D01*
X293865253Y-134163195D01*
X293863976Y-134105993D01*
X293863436Y-134067344D01*
X294019542Y-134067344D01*
X294019588Y-134118349D01*
X294019947Y-134159431D01*
X294020659Y-134191984D01*
X294021761Y-134217405D01*
X294023291Y-134237088D01*
X294025289Y-134252429D01*
X294027791Y-134264823D01*
X294029599Y-134271590D01*
X294047714Y-134316554D01*
X294073007Y-134349775D01*
X294106439Y-134371955D01*
X294148971Y-134383795D01*
X294186624Y-134386314D01*
X294220900Y-134384519D01*
X294250488Y-134379664D01*
X294264139Y-134375399D01*
X294299139Y-134355033D01*
X294326536Y-134325280D01*
X294338779Y-134305181D01*
X294342305Y-134298307D01*
X294345238Y-134291096D01*
X294347634Y-134282258D01*
X294349545Y-134270500D01*
X294351027Y-134254530D01*
X294352135Y-134233056D01*
X294352923Y-134204788D01*
X294353445Y-134168432D01*
X294353755Y-134122697D01*
X294353910Y-134066292D01*
X294353962Y-133997924D01*
X294353967Y-133945347D01*
X294353967Y-133613736D01*
X294334377Y-133580410D01*
X294306076Y-133545396D01*
X294268838Y-133521230D01*
X294222942Y-133508075D01*
X294207284Y-133506281D01*
X294154871Y-133507695D01*
X294110104Y-133520716D01*
X294073363Y-133545144D01*
X294045026Y-133580778D01*
X294037054Y-133596097D01*
X294033481Y-133604357D01*
X294030523Y-133613189D01*
X294028112Y-133623976D01*
X294026176Y-133638098D01*
X294024648Y-133656938D01*
X294023457Y-133681877D01*
X294022533Y-133714297D01*
X294021808Y-133755580D01*
X294021211Y-133807106D01*
X294020673Y-133870259D01*
X294020240Y-133929981D01*
X294019772Y-134005020D01*
X294019542Y-134067344D01*
X293863436Y-134067344D01*
X293863111Y-134044097D01*
X293862658Y-133979357D01*
X293862619Y-133913621D01*
X293862991Y-133848739D01*
X293863777Y-133786560D01*
X293864976Y-133728932D01*
X293866588Y-133677704D01*
X293868613Y-133634725D01*
X293871052Y-133601844D01*
X293873904Y-133580910D01*
X293874422Y-133578705D01*
X293896950Y-133517634D01*
X293929997Y-133465638D01*
X293972909Y-133423179D01*
X294025029Y-133390718D01*
X294085701Y-133368716D01*
X294154269Y-133357634D01*
X294190889Y-133356331D01*
X294263152Y-133362317D01*
G37*
X294263152Y-133362317D02*
X294327763Y-133379489D01*
X294384060Y-133407315D01*
X294431379Y-133445264D01*
X294469059Y-133492804D01*
X294496438Y-133549402D01*
X294512854Y-133614528D01*
X294512924Y-133614986D01*
X294515109Y-133637813D01*
X294516797Y-133674408D01*
X294517983Y-133724439D01*
X294518664Y-133787571D01*
X294518833Y-133863470D01*
X294518486Y-133951803D01*
X294518298Y-133978347D01*
X294517706Y-134053046D01*
X294517131Y-134115046D01*
X294516501Y-134165760D01*
X294515741Y-134206600D01*
X294514777Y-134238979D01*
X294513537Y-134264307D01*
X294511946Y-134283999D01*
X294509930Y-134299466D01*
X294507417Y-134312120D01*
X294504331Y-134323373D01*
X294500599Y-134334638D01*
X294499535Y-134337684D01*
X294472008Y-134396192D01*
X294434028Y-134445738D01*
X294386501Y-134485372D01*
X294331265Y-134513789D01*
X294298733Y-134522716D01*
X294256804Y-134529020D01*
X294209981Y-134532516D01*
X294162765Y-134533016D01*
X294119660Y-134530335D01*
X294085166Y-134524286D01*
X294084195Y-134524018D01*
X294021605Y-134500207D01*
X293969335Y-134466779D01*
X293927412Y-134423760D01*
X293895861Y-134371176D01*
X293874707Y-134309053D01*
X293874481Y-134308097D01*
X293871556Y-134288156D01*
X293869043Y-134256126D01*
X293866942Y-134213856D01*
X293865253Y-134163195D01*
X293863976Y-134105993D01*
X293863436Y-134067344D01*
X294019542Y-134067344D01*
X294019588Y-134118349D01*
X294019947Y-134159431D01*
X294020659Y-134191984D01*
X294021761Y-134217405D01*
X294023291Y-134237088D01*
X294025289Y-134252429D01*
X294027791Y-134264823D01*
X294029599Y-134271590D01*
X294047714Y-134316554D01*
X294073007Y-134349775D01*
X294106439Y-134371955D01*
X294148971Y-134383795D01*
X294186624Y-134386314D01*
X294220900Y-134384519D01*
X294250488Y-134379664D01*
X294264139Y-134375399D01*
X294299139Y-134355033D01*
X294326536Y-134325280D01*
X294338779Y-134305181D01*
X294342305Y-134298307D01*
X294345238Y-134291096D01*
X294347634Y-134282258D01*
X294349545Y-134270500D01*
X294351027Y-134254530D01*
X294352135Y-134233056D01*
X294352923Y-134204788D01*
X294353445Y-134168432D01*
X294353755Y-134122697D01*
X294353910Y-134066292D01*
X294353962Y-133997924D01*
X294353967Y-133945347D01*
X294353967Y-133613736D01*
X294334377Y-133580410D01*
X294306076Y-133545396D01*
X294268838Y-133521230D01*
X294222942Y-133508075D01*
X294207284Y-133506281D01*
X294154871Y-133507695D01*
X294110104Y-133520716D01*
X294073363Y-133545144D01*
X294045026Y-133580778D01*
X294037054Y-133596097D01*
X294033481Y-133604357D01*
X294030523Y-133613189D01*
X294028112Y-133623976D01*
X294026176Y-133638098D01*
X294024648Y-133656938D01*
X294023457Y-133681877D01*
X294022533Y-133714297D01*
X294021808Y-133755580D01*
X294021211Y-133807106D01*
X294020673Y-133870259D01*
X294020240Y-133929981D01*
X294019772Y-134005020D01*
X294019542Y-134067344D01*
X293863436Y-134067344D01*
X293863111Y-134044097D01*
X293862658Y-133979357D01*
X293862619Y-133913621D01*
X293862991Y-133848739D01*
X293863777Y-133786560D01*
X293864976Y-133728932D01*
X293866588Y-133677704D01*
X293868613Y-133634725D01*
X293871052Y-133601844D01*
X293873904Y-133580910D01*
X293874422Y-133578705D01*
X293896950Y-133517634D01*
X293929997Y-133465638D01*
X293972909Y-133423179D01*
X294025029Y-133390718D01*
X294085701Y-133368716D01*
X294154269Y-133357634D01*
X294190889Y-133356331D01*
X294263152Y-133362317D01*
G36*
X295069761Y-133358729D02*
G01*
X295129807Y-133369012D01*
X295185276Y-133387192D01*
X295233568Y-133413211D01*
X295264683Y-133439006D01*
X295291480Y-133473664D01*
X295314450Y-133517590D01*
X295331383Y-133566034D01*
X295337853Y-133596097D01*
X295343314Y-133629944D01*
X295345428Y-133652223D01*
X295342128Y-133665337D01*
X295331352Y-133671690D01*
X295311034Y-133673684D01*
X295279111Y-133673724D01*
X295271190Y-133673708D01*
X295197106Y-133673708D01*
X295197106Y-133653822D01*
X295191317Y-133612372D01*
X295175345Y-133572981D01*
X295151284Y-133538909D01*
X295121231Y-133513415D01*
X295100375Y-133503300D01*
X295069783Y-133496526D01*
X295032448Y-133494026D01*
X294993497Y-133495598D01*
X294958060Y-133501040D01*
X294931646Y-133509951D01*
X294895351Y-133536240D01*
X294868414Y-133572221D01*
X294851505Y-133616469D01*
X294845291Y-133667559D01*
X294846156Y-133692321D01*
X294854008Y-133736055D01*
X294870684Y-133772656D01*
X294897348Y-133803310D01*
X294935165Y-133829203D01*
X294985299Y-133851522D01*
X295011117Y-133860374D01*
X295077521Y-133881754D01*
X295131963Y-133899812D01*
X295175993Y-133915291D01*
X295211164Y-133928933D01*
X295239027Y-133941480D01*
X295261132Y-133953674D01*
X295279030Y-133966256D01*
X295294274Y-133979970D01*
X295308414Y-133995556D01*
X295317753Y-134007050D01*
X295345962Y-134052974D01*
X295364193Y-134107164D01*
X295372730Y-134170599D01*
X295373495Y-134199127D01*
X295369260Y-134274523D01*
X295356276Y-134339225D01*
X295334123Y-134393932D01*
X295302384Y-134439341D01*
X295260637Y-134476149D01*
X295208465Y-134505054D01*
X295183744Y-134514861D01*
X295161672Y-134521444D01*
X295136221Y-134526046D01*
X295104106Y-134529065D01*
X295062043Y-134530901D01*
X295048940Y-134531237D01*
X295012166Y-134531805D01*
X294979180Y-134531811D01*
X294953225Y-134531289D01*
X294937542Y-134530273D01*
X294936051Y-134530039D01*
X294870217Y-134511900D01*
X294814711Y-134484509D01*
X294769251Y-134447536D01*
X294733552Y-134400654D01*
X294707331Y-134343534D01*
X294690303Y-134275847D01*
X294685355Y-134239917D01*
X294680665Y-134195820D01*
X294828274Y-134195820D01*
X294833023Y-134236389D01*
X294844892Y-134288388D01*
X294867037Y-134330791D01*
X294899178Y-134363365D01*
X294941038Y-134385882D01*
X294992336Y-134398109D01*
X295031301Y-134400431D01*
X295088660Y-134395189D01*
X295136508Y-134379642D01*
X295174571Y-134354060D01*
X295202571Y-134318710D01*
X295220232Y-134273861D01*
X295227280Y-134219783D01*
X295227402Y-134209635D01*
X295225359Y-134172025D01*
X295219819Y-134144020D01*
X295216341Y-134135405D01*
X295194648Y-134104289D01*
X295163106Y-134076808D01*
X295120551Y-134052241D01*
X295065821Y-134029870D01*
X295024245Y-134016484D01*
X294974980Y-134000939D01*
X294927144Y-133984124D01*
X294883807Y-133967236D01*
X294848040Y-133951471D01*
X294823162Y-133938180D01*
X294795402Y-133916615D01*
X294766916Y-133887816D01*
X294741914Y-133856533D01*
X294724604Y-133827520D01*
X294724032Y-133826251D01*
X294706771Y-133773187D01*
X294698521Y-133714970D01*
X294698810Y-133654377D01*
X294707165Y-133594185D01*
X294723115Y-133537170D01*
X294746186Y-133486108D01*
X294775908Y-133443776D01*
X294791776Y-133427917D01*
X294835748Y-133397796D01*
X294888131Y-133375878D01*
X294946326Y-133362101D01*
X295007735Y-133356405D01*
X295069761Y-133358729D01*
G37*
X295069761Y-133358729D02*
X295129807Y-133369012D01*
X295185276Y-133387192D01*
X295233568Y-133413211D01*
X295264683Y-133439006D01*
X295291480Y-133473664D01*
X295314450Y-133517590D01*
X295331383Y-133566034D01*
X295337853Y-133596097D01*
X295343314Y-133629944D01*
X295345428Y-133652223D01*
X295342128Y-133665337D01*
X295331352Y-133671690D01*
X295311034Y-133673684D01*
X295279111Y-133673724D01*
X295271190Y-133673708D01*
X295197106Y-133673708D01*
X295197106Y-133653822D01*
X295191317Y-133612372D01*
X295175345Y-133572981D01*
X295151284Y-133538909D01*
X295121231Y-133513415D01*
X295100375Y-133503300D01*
X295069783Y-133496526D01*
X295032448Y-133494026D01*
X294993497Y-133495598D01*
X294958060Y-133501040D01*
X294931646Y-133509951D01*
X294895351Y-133536240D01*
X294868414Y-133572221D01*
X294851505Y-133616469D01*
X294845291Y-133667559D01*
X294846156Y-133692321D01*
X294854008Y-133736055D01*
X294870684Y-133772656D01*
X294897348Y-133803310D01*
X294935165Y-133829203D01*
X294985299Y-133851522D01*
X295011117Y-133860374D01*
X295077521Y-133881754D01*
X295131963Y-133899812D01*
X295175993Y-133915291D01*
X295211164Y-133928933D01*
X295239027Y-133941480D01*
X295261132Y-133953674D01*
X295279030Y-133966256D01*
X295294274Y-133979970D01*
X295308414Y-133995556D01*
X295317753Y-134007050D01*
X295345962Y-134052974D01*
X295364193Y-134107164D01*
X295372730Y-134170599D01*
X295373495Y-134199127D01*
X295369260Y-134274523D01*
X295356276Y-134339225D01*
X295334123Y-134393932D01*
X295302384Y-134439341D01*
X295260637Y-134476149D01*
X295208465Y-134505054D01*
X295183744Y-134514861D01*
X295161672Y-134521444D01*
X295136221Y-134526046D01*
X295104106Y-134529065D01*
X295062043Y-134530901D01*
X295048940Y-134531237D01*
X295012166Y-134531805D01*
X294979180Y-134531811D01*
X294953225Y-134531289D01*
X294937542Y-134530273D01*
X294936051Y-134530039D01*
X294870217Y-134511900D01*
X294814711Y-134484509D01*
X294769251Y-134447536D01*
X294733552Y-134400654D01*
X294707331Y-134343534D01*
X294690303Y-134275847D01*
X294685355Y-134239917D01*
X294680665Y-134195820D01*
X294828274Y-134195820D01*
X294833023Y-134236389D01*
X294844892Y-134288388D01*
X294867037Y-134330791D01*
X294899178Y-134363365D01*
X294941038Y-134385882D01*
X294992336Y-134398109D01*
X295031301Y-134400431D01*
X295088660Y-134395189D01*
X295136508Y-134379642D01*
X295174571Y-134354060D01*
X295202571Y-134318710D01*
X295220232Y-134273861D01*
X295227280Y-134219783D01*
X295227402Y-134209635D01*
X295225359Y-134172025D01*
X295219819Y-134144020D01*
X295216341Y-134135405D01*
X295194648Y-134104289D01*
X295163106Y-134076808D01*
X295120551Y-134052241D01*
X295065821Y-134029870D01*
X295024245Y-134016484D01*
X294974980Y-134000939D01*
X294927144Y-133984124D01*
X294883807Y-133967236D01*
X294848040Y-133951471D01*
X294823162Y-133938180D01*
X294795402Y-133916615D01*
X294766916Y-133887816D01*
X294741914Y-133856533D01*
X294724604Y-133827520D01*
X294724032Y-133826251D01*
X294706771Y-133773187D01*
X294698521Y-133714970D01*
X294698810Y-133654377D01*
X294707165Y-133594185D01*
X294723115Y-133537170D01*
X294746186Y-133486108D01*
X294775908Y-133443776D01*
X294791776Y-133427917D01*
X294835748Y-133397796D01*
X294888131Y-133375878D01*
X294946326Y-133362101D01*
X295007735Y-133356405D01*
X295069761Y-133358729D01*
G36*
X295961010Y-133366575D02*
G01*
X296023425Y-133386282D01*
X296078476Y-133416894D01*
X296124745Y-133457368D01*
X296160816Y-133506660D01*
X296167193Y-133518486D01*
X296178733Y-133542091D01*
X296187919Y-133563777D01*
X296195052Y-133585599D01*
X296200434Y-133609613D01*
X296204364Y-133637875D01*
X296207146Y-133672441D01*
X296209079Y-133715366D01*
X296210465Y-133768706D01*
X296211380Y-133820111D01*
X296214442Y-134012375D01*
X295689572Y-134012375D01*
X295692601Y-134130556D01*
X295694145Y-134178338D01*
X295696152Y-134214344D01*
X295698868Y-134240906D01*
X295702542Y-134260356D01*
X295707420Y-134275029D01*
X295708067Y-134276510D01*
X295734184Y-134321519D01*
X295767120Y-134354348D01*
X295807626Y-134375477D01*
X295856452Y-134385387D01*
X295879579Y-134386320D01*
X295914362Y-134384503D01*
X295944174Y-134379576D01*
X295957569Y-134375362D01*
X295995965Y-134351957D01*
X296026297Y-134318199D01*
X296047026Y-134276248D01*
X296055729Y-134237670D01*
X296059849Y-134202875D01*
X296213106Y-134202875D01*
X296213022Y-134239917D01*
X296206305Y-134301651D01*
X296187180Y-134360194D01*
X296156766Y-134412891D01*
X296124756Y-134449342D01*
X296080270Y-134485078D01*
X296032363Y-134510398D01*
X295978584Y-134526152D01*
X295916482Y-134533192D01*
X295881777Y-134533713D01*
X295848199Y-134532719D01*
X295816209Y-134530726D01*
X295791016Y-134528096D01*
X295783961Y-134526937D01*
X295725134Y-134508378D01*
X295671888Y-134477559D01*
X295625347Y-134435607D01*
X295586639Y-134383653D01*
X295556889Y-134322824D01*
X295545186Y-134287542D01*
X295541918Y-134274789D01*
X295539245Y-134260943D01*
X295537108Y-134244505D01*
X295535449Y-134223978D01*
X295534210Y-134197866D01*
X295533333Y-134164671D01*
X295532759Y-134122897D01*
X295532429Y-134071047D01*
X295532286Y-134007623D01*
X295532265Y-133955931D01*
X295532351Y-133878294D01*
X295532709Y-133813201D01*
X295533201Y-133779889D01*
X295690995Y-133779889D01*
X295690995Y-133864208D01*
X296050828Y-133864208D01*
X296050828Y-133766552D01*
X296049903Y-133713322D01*
X296046747Y-133671247D01*
X296040794Y-133637471D01*
X296031474Y-133609137D01*
X296018220Y-133583388D01*
X296012665Y-133574636D01*
X295983872Y-133543167D01*
X295947055Y-133520908D01*
X295905176Y-133508209D01*
X295861195Y-133505420D01*
X295818071Y-133512892D01*
X295778764Y-133530973D01*
X295760640Y-133544843D01*
X295736117Y-133570942D01*
X295717621Y-133600542D01*
X295704512Y-133635806D01*
X295696147Y-133678902D01*
X295691885Y-133731995D01*
X295690995Y-133779889D01*
X295533201Y-133779889D01*
X295533509Y-133759084D01*
X295534921Y-133714375D01*
X295537113Y-133677506D01*
X295540256Y-133646910D01*
X295544519Y-133621020D01*
X295550072Y-133598268D01*
X295557083Y-133577086D01*
X295565723Y-133555907D01*
X295576161Y-133533163D01*
X295578516Y-133528211D01*
X295611759Y-133474068D01*
X295654586Y-133429540D01*
X295705806Y-133395131D01*
X295764226Y-133371344D01*
X295828656Y-133358682D01*
X295897905Y-133357650D01*
X295961010Y-133366575D01*
G37*
X295961010Y-133366575D02*
X296023425Y-133386282D01*
X296078476Y-133416894D01*
X296124745Y-133457368D01*
X296160816Y-133506660D01*
X296167193Y-133518486D01*
X296178733Y-133542091D01*
X296187919Y-133563777D01*
X296195052Y-133585599D01*
X296200434Y-133609613D01*
X296204364Y-133637875D01*
X296207146Y-133672441D01*
X296209079Y-133715366D01*
X296210465Y-133768706D01*
X296211380Y-133820111D01*
X296214442Y-134012375D01*
X295689572Y-134012375D01*
X295692601Y-134130556D01*
X295694145Y-134178338D01*
X295696152Y-134214344D01*
X295698868Y-134240906D01*
X295702542Y-134260356D01*
X295707420Y-134275029D01*
X295708067Y-134276510D01*
X295734184Y-134321519D01*
X295767120Y-134354348D01*
X295807626Y-134375477D01*
X295856452Y-134385387D01*
X295879579Y-134386320D01*
X295914362Y-134384503D01*
X295944174Y-134379576D01*
X295957569Y-134375362D01*
X295995965Y-134351957D01*
X296026297Y-134318199D01*
X296047026Y-134276248D01*
X296055729Y-134237670D01*
X296059849Y-134202875D01*
X296213106Y-134202875D01*
X296213022Y-134239917D01*
X296206305Y-134301651D01*
X296187180Y-134360194D01*
X296156766Y-134412891D01*
X296124756Y-134449342D01*
X296080270Y-134485078D01*
X296032363Y-134510398D01*
X295978584Y-134526152D01*
X295916482Y-134533192D01*
X295881777Y-134533713D01*
X295848199Y-134532719D01*
X295816209Y-134530726D01*
X295791016Y-134528096D01*
X295783961Y-134526937D01*
X295725134Y-134508378D01*
X295671888Y-134477559D01*
X295625347Y-134435607D01*
X295586639Y-134383653D01*
X295556889Y-134322824D01*
X295545186Y-134287542D01*
X295541918Y-134274789D01*
X295539245Y-134260943D01*
X295537108Y-134244505D01*
X295535449Y-134223978D01*
X295534210Y-134197866D01*
X295533333Y-134164671D01*
X295532759Y-134122897D01*
X295532429Y-134071047D01*
X295532286Y-134007623D01*
X295532265Y-133955931D01*
X295532351Y-133878294D01*
X295532709Y-133813201D01*
X295533201Y-133779889D01*
X295690995Y-133779889D01*
X295690995Y-133864208D01*
X296050828Y-133864208D01*
X296050828Y-133766552D01*
X296049903Y-133713322D01*
X296046747Y-133671247D01*
X296040794Y-133637471D01*
X296031474Y-133609137D01*
X296018220Y-133583388D01*
X296012665Y-133574636D01*
X295983872Y-133543167D01*
X295947055Y-133520908D01*
X295905176Y-133508209D01*
X295861195Y-133505420D01*
X295818071Y-133512892D01*
X295778764Y-133530973D01*
X295760640Y-133544843D01*
X295736117Y-133570942D01*
X295717621Y-133600542D01*
X295704512Y-133635806D01*
X295696147Y-133678902D01*
X295691885Y-133731995D01*
X295690995Y-133779889D01*
X295533201Y-133779889D01*
X295533509Y-133759084D01*
X295534921Y-133714375D01*
X295537113Y-133677506D01*
X295540256Y-133646910D01*
X295544519Y-133621020D01*
X295550072Y-133598268D01*
X295557083Y-133577086D01*
X295565723Y-133555907D01*
X295576161Y-133533163D01*
X295578516Y-133528211D01*
X295611759Y-133474068D01*
X295654586Y-133429540D01*
X295705806Y-133395131D01*
X295764226Y-133371344D01*
X295828656Y-133358682D01*
X295897905Y-133357650D01*
X295961010Y-133366575D01*
G36*
X298293694Y-133367822D02*
G01*
X298356869Y-133386714D01*
X298410501Y-133415584D01*
X298455156Y-133454805D01*
X298491399Y-133504750D01*
X298514856Y-133553021D01*
X298518037Y-133561055D01*
X298520771Y-133568988D01*
X298523096Y-133577909D01*
X298525051Y-133588911D01*
X298526676Y-133603083D01*
X298528010Y-133621515D01*
X298529092Y-133645299D01*
X298529961Y-133675524D01*
X298530656Y-133713282D01*
X298531217Y-133759662D01*
X298531681Y-133815755D01*
X298532089Y-133882652D01*
X298532480Y-133961443D01*
X298532892Y-134053218D01*
X298532906Y-134056472D01*
X298534956Y-134520375D01*
X298386217Y-134520375D01*
X298386217Y-134419480D01*
X298365348Y-134448289D01*
X298334784Y-134479679D01*
X298293720Y-134505549D01*
X298245318Y-134523925D01*
X298243441Y-134524432D01*
X298213796Y-134529632D01*
X298175315Y-134532649D01*
X298132775Y-134533484D01*
X298090953Y-134532136D01*
X298054625Y-134528607D01*
X298033440Y-134524413D01*
X297978398Y-134503281D01*
X297933056Y-134472920D01*
X297897185Y-134432954D01*
X297870559Y-134383007D01*
X297852949Y-134322703D01*
X297844129Y-134251666D01*
X297842940Y-134209577D01*
X297843261Y-134202875D01*
X297988480Y-134202875D01*
X297990951Y-134261846D01*
X298000132Y-134309561D01*
X298016563Y-134347457D01*
X298040783Y-134376968D01*
X298059300Y-134391260D01*
X298093814Y-134407004D01*
X298136655Y-134416214D01*
X298183554Y-134418718D01*
X298230243Y-134414345D01*
X298272453Y-134402923D01*
X298279291Y-134400086D01*
X298317109Y-134378502D01*
X298345124Y-134350183D01*
X298366217Y-134313171D01*
X298371456Y-134300744D01*
X298375484Y-134288319D01*
X298378497Y-134273802D01*
X298380691Y-134255100D01*
X298382260Y-134230121D01*
X298383400Y-134196773D01*
X298384306Y-134152963D01*
X298384943Y-134112359D01*
X298387366Y-133947760D01*
X298254500Y-133950082D01*
X298208004Y-133950957D01*
X298173256Y-133951934D01*
X298147893Y-133953322D01*
X298129554Y-133955434D01*
X298115876Y-133958581D01*
X298104497Y-133963072D01*
X298093056Y-133969221D01*
X298088359Y-133971963D01*
X298051912Y-133999668D01*
X298024172Y-134035355D01*
X298004671Y-134080112D01*
X297992937Y-134135024D01*
X297988500Y-134201180D01*
X297988480Y-134202875D01*
X297843261Y-134202875D01*
X297846634Y-134132580D01*
X297858027Y-134066228D01*
X297877580Y-134009048D01*
X297905759Y-133959570D01*
X297931619Y-133927920D01*
X297957787Y-133902517D01*
X297985035Y-133882117D01*
X298015342Y-133866120D01*
X298050686Y-133853930D01*
X298093047Y-133844947D01*
X298144403Y-133838574D01*
X298206734Y-133834211D01*
X298247525Y-133832411D01*
X298387450Y-133827164D01*
X298384951Y-133720450D01*
X298383724Y-133677783D01*
X298382111Y-133646501D01*
X298379758Y-133623880D01*
X298376308Y-133607193D01*
X298371407Y-133593716D01*
X298367342Y-133585514D01*
X298340237Y-133546335D01*
X298306167Y-133518221D01*
X298263744Y-133500355D01*
X298211580Y-133491921D01*
X298207946Y-133491687D01*
X298160654Y-133492061D01*
X298122677Y-133500209D01*
X298090891Y-133517245D01*
X298063033Y-133543297D01*
X298035424Y-133584362D01*
X298021303Y-133629385D01*
X298019328Y-133655124D01*
X298019328Y-133680764D01*
X297864106Y-133680764D01*
X297864210Y-133654306D01*
X297865940Y-133633018D01*
X297870315Y-133605016D01*
X297874981Y-133582597D01*
X297895869Y-133521798D01*
X297927398Y-133469866D01*
X297968891Y-133427240D01*
X298019673Y-133394358D01*
X298079067Y-133371660D01*
X298146397Y-133359584D01*
X298220412Y-133358534D01*
X298293694Y-133367822D01*
G37*
X298293694Y-133367822D02*
X298356869Y-133386714D01*
X298410501Y-133415584D01*
X298455156Y-133454805D01*
X298491399Y-133504750D01*
X298514856Y-133553021D01*
X298518037Y-133561055D01*
X298520771Y-133568988D01*
X298523096Y-133577909D01*
X298525051Y-133588911D01*
X298526676Y-133603083D01*
X298528010Y-133621515D01*
X298529092Y-133645299D01*
X298529961Y-133675524D01*
X298530656Y-133713282D01*
X298531217Y-133759662D01*
X298531681Y-133815755D01*
X298532089Y-133882652D01*
X298532480Y-133961443D01*
X298532892Y-134053218D01*
X298532906Y-134056472D01*
X298534956Y-134520375D01*
X298386217Y-134520375D01*
X298386217Y-134419480D01*
X298365348Y-134448289D01*
X298334784Y-134479679D01*
X298293720Y-134505549D01*
X298245318Y-134523925D01*
X298243441Y-134524432D01*
X298213796Y-134529632D01*
X298175315Y-134532649D01*
X298132775Y-134533484D01*
X298090953Y-134532136D01*
X298054625Y-134528607D01*
X298033440Y-134524413D01*
X297978398Y-134503281D01*
X297933056Y-134472920D01*
X297897185Y-134432954D01*
X297870559Y-134383007D01*
X297852949Y-134322703D01*
X297844129Y-134251666D01*
X297842940Y-134209577D01*
X297843261Y-134202875D01*
X297988480Y-134202875D01*
X297990951Y-134261846D01*
X298000132Y-134309561D01*
X298016563Y-134347457D01*
X298040783Y-134376968D01*
X298059300Y-134391260D01*
X298093814Y-134407004D01*
X298136655Y-134416214D01*
X298183554Y-134418718D01*
X298230243Y-134414345D01*
X298272453Y-134402923D01*
X298279291Y-134400086D01*
X298317109Y-134378502D01*
X298345124Y-134350183D01*
X298366217Y-134313171D01*
X298371456Y-134300744D01*
X298375484Y-134288319D01*
X298378497Y-134273802D01*
X298380691Y-134255100D01*
X298382260Y-134230121D01*
X298383400Y-134196773D01*
X298384306Y-134152963D01*
X298384943Y-134112359D01*
X298387366Y-133947760D01*
X298254500Y-133950082D01*
X298208004Y-133950957D01*
X298173256Y-133951934D01*
X298147893Y-133953322D01*
X298129554Y-133955434D01*
X298115876Y-133958581D01*
X298104497Y-133963072D01*
X298093056Y-133969221D01*
X298088359Y-133971963D01*
X298051912Y-133999668D01*
X298024172Y-134035355D01*
X298004671Y-134080112D01*
X297992937Y-134135024D01*
X297988500Y-134201180D01*
X297988480Y-134202875D01*
X297843261Y-134202875D01*
X297846634Y-134132580D01*
X297858027Y-134066228D01*
X297877580Y-134009048D01*
X297905759Y-133959570D01*
X297931619Y-133927920D01*
X297957787Y-133902517D01*
X297985035Y-133882117D01*
X298015342Y-133866120D01*
X298050686Y-133853930D01*
X298093047Y-133844947D01*
X298144403Y-133838574D01*
X298206734Y-133834211D01*
X298247525Y-133832411D01*
X298387450Y-133827164D01*
X298384951Y-133720450D01*
X298383724Y-133677783D01*
X298382111Y-133646501D01*
X298379758Y-133623880D01*
X298376308Y-133607193D01*
X298371407Y-133593716D01*
X298367342Y-133585514D01*
X298340237Y-133546335D01*
X298306167Y-133518221D01*
X298263744Y-133500355D01*
X298211580Y-133491921D01*
X298207946Y-133491687D01*
X298160654Y-133492061D01*
X298122677Y-133500209D01*
X298090891Y-133517245D01*
X298063033Y-133543297D01*
X298035424Y-133584362D01*
X298021303Y-133629385D01*
X298019328Y-133655124D01*
X298019328Y-133680764D01*
X297864106Y-133680764D01*
X297864210Y-133654306D01*
X297865940Y-133633018D01*
X297870315Y-133605016D01*
X297874981Y-133582597D01*
X297895869Y-133521798D01*
X297927398Y-133469866D01*
X297968891Y-133427240D01*
X298019673Y-133394358D01*
X298079067Y-133371660D01*
X298146397Y-133359584D01*
X298220412Y-133358534D01*
X298293694Y-133367822D01*
G36*
X301857551Y-133810011D02*
G01*
X301857572Y-133903958D01*
X301857694Y-133984876D01*
X301858001Y-134053847D01*
X301858578Y-134111954D01*
X301859509Y-134160279D01*
X301860878Y-134199904D01*
X301862772Y-134231911D01*
X301865273Y-134257382D01*
X301868468Y-134277400D01*
X301872440Y-134293047D01*
X301877275Y-134305405D01*
X301883058Y-134315556D01*
X301889872Y-134324583D01*
X301897802Y-134333567D01*
X301898594Y-134334434D01*
X301921313Y-134355704D01*
X301945830Y-134370136D01*
X301975746Y-134379093D01*
X302014656Y-134383935D01*
X302032150Y-134384961D01*
X302064282Y-134386069D01*
X302086942Y-134385346D01*
X302104726Y-134382087D01*
X302122229Y-134375587D01*
X302136229Y-134368998D01*
X302164144Y-134352559D01*
X302183801Y-134333064D01*
X302194463Y-134317004D01*
X302213856Y-134284014D01*
X302215819Y-133830695D01*
X302217782Y-133377375D01*
X302379662Y-133377375D01*
X302379662Y-134520375D01*
X302217955Y-134520375D01*
X302215905Y-134463300D01*
X302213856Y-134406225D01*
X302191672Y-134437753D01*
X302156593Y-134475942D01*
X302111959Y-134505954D01*
X302069502Y-134523165D01*
X302033571Y-134530257D01*
X301990406Y-134533475D01*
X301945744Y-134532808D01*
X301905325Y-134528248D01*
X301884807Y-134523431D01*
X301833361Y-134500388D01*
X301788939Y-134465194D01*
X301751736Y-134418042D01*
X301722205Y-134359774D01*
X301705856Y-134319292D01*
X301703810Y-133848333D01*
X301701764Y-133377375D01*
X301857551Y-133377375D01*
X301857551Y-133810011D01*
G37*
X301857551Y-133810011D02*
X301857572Y-133903958D01*
X301857694Y-133984876D01*
X301858001Y-134053847D01*
X301858578Y-134111954D01*
X301859509Y-134160279D01*
X301860878Y-134199904D01*
X301862772Y-134231911D01*
X301865273Y-134257382D01*
X301868468Y-134277400D01*
X301872440Y-134293047D01*
X301877275Y-134305405D01*
X301883058Y-134315556D01*
X301889872Y-134324583D01*
X301897802Y-134333567D01*
X301898594Y-134334434D01*
X301921313Y-134355704D01*
X301945830Y-134370136D01*
X301975746Y-134379093D01*
X302014656Y-134383935D01*
X302032150Y-134384961D01*
X302064282Y-134386069D01*
X302086942Y-134385346D01*
X302104726Y-134382087D01*
X302122229Y-134375587D01*
X302136229Y-134368998D01*
X302164144Y-134352559D01*
X302183801Y-134333064D01*
X302194463Y-134317004D01*
X302213856Y-134284014D01*
X302215819Y-133830695D01*
X302217782Y-133377375D01*
X302379662Y-133377375D01*
X302379662Y-134520375D01*
X302217955Y-134520375D01*
X302215905Y-134463300D01*
X302213856Y-134406225D01*
X302191672Y-134437753D01*
X302156593Y-134475942D01*
X302111959Y-134505954D01*
X302069502Y-134523165D01*
X302033571Y-134530257D01*
X301990406Y-134533475D01*
X301945744Y-134532808D01*
X301905325Y-134528248D01*
X301884807Y-134523431D01*
X301833361Y-134500388D01*
X301788939Y-134465194D01*
X301751736Y-134418042D01*
X301722205Y-134359774D01*
X301705856Y-134319292D01*
X301703810Y-133848333D01*
X301701764Y-133377375D01*
X301857551Y-133377375D01*
X301857551Y-133810011D01*
G36*
X306564766Y-132907142D02*
G01*
X306620073Y-132916414D01*
X306667925Y-132932973D01*
X306711131Y-132957806D01*
X306752498Y-132991897D01*
X306754394Y-132993696D01*
X306794537Y-133040708D01*
X306824503Y-133095969D01*
X306842245Y-133148994D01*
X306844497Y-133164920D01*
X306846510Y-133193555D01*
X306848285Y-133233498D01*
X306849821Y-133283350D01*
X306851119Y-133341710D01*
X306852179Y-133407179D01*
X306853002Y-133478355D01*
X306853588Y-133553839D01*
X306853937Y-133632231D01*
X306854050Y-133712130D01*
X306853925Y-133792137D01*
X306853565Y-133870850D01*
X306852969Y-133946870D01*
X306852138Y-134018797D01*
X306851071Y-134085231D01*
X306849770Y-134144771D01*
X306848233Y-134196017D01*
X306846462Y-134237568D01*
X306844457Y-134268026D01*
X306842219Y-134285989D01*
X306842020Y-134286885D01*
X306820117Y-134351698D01*
X306787283Y-134407729D01*
X306744004Y-134454482D01*
X306690769Y-134491465D01*
X306628065Y-134518184D01*
X306607730Y-134524059D01*
X306574641Y-134529815D01*
X306532620Y-134533033D01*
X306486552Y-134533729D01*
X306441324Y-134531917D01*
X306401823Y-134527614D01*
X306380954Y-134523335D01*
X306323506Y-134501828D01*
X306270803Y-134470388D01*
X306225560Y-134431100D01*
X306190495Y-134386050D01*
X306181603Y-134370242D01*
X306172842Y-134349523D01*
X306163060Y-134321030D01*
X306154307Y-134290761D01*
X306153949Y-134289370D01*
X306151350Y-134278607D01*
X306149102Y-134267376D01*
X306147180Y-134254622D01*
X306145557Y-134239290D01*
X306144210Y-134220323D01*
X306143112Y-134196668D01*
X306142238Y-134167268D01*
X306141563Y-134131068D01*
X306141062Y-134087013D01*
X306140709Y-134034047D01*
X306140479Y-133971116D01*
X306140347Y-133897164D01*
X306140286Y-133811135D01*
X306140273Y-133719570D01*
X306140287Y-133621474D01*
X306140348Y-133536432D01*
X306140482Y-133463386D01*
X306140713Y-133401278D01*
X306141069Y-133349051D01*
X306141574Y-133305647D01*
X306142255Y-133270009D01*
X306143137Y-133241078D01*
X306144247Y-133217797D01*
X306145215Y-133204514D01*
X306299023Y-133204514D01*
X306299023Y-133716042D01*
X306299043Y-133813976D01*
X306299121Y-133898820D01*
X306299278Y-133971592D01*
X306299538Y-134033312D01*
X306299923Y-134085001D01*
X306300458Y-134127678D01*
X306301166Y-134162363D01*
X306302068Y-134190076D01*
X306303189Y-134211837D01*
X306304552Y-134228666D01*
X306306180Y-134241582D01*
X306308095Y-134251606D01*
X306310321Y-134259757D01*
X306311425Y-134263071D01*
X306333952Y-134309610D01*
X306365197Y-134345099D01*
X306405246Y-134369596D01*
X306454183Y-134383155D01*
X306496578Y-134386182D01*
X306530997Y-134385060D01*
X306557109Y-134381007D01*
X306580591Y-134372991D01*
X306588301Y-134369504D01*
X306626396Y-134346389D01*
X306655408Y-134316121D01*
X306677881Y-134276958D01*
X306694134Y-134241681D01*
X306694134Y-133197458D01*
X306677460Y-133160579D01*
X306656937Y-133126332D01*
X306629235Y-133095320D01*
X306598209Y-133071313D01*
X306574514Y-133059982D01*
X306540715Y-133053007D01*
X306500037Y-133050728D01*
X306458922Y-133053178D01*
X306427716Y-133059210D01*
X306387739Y-133077521D01*
X306352366Y-133106952D01*
X306324715Y-133144588D01*
X306315319Y-133164173D01*
X306299023Y-133204514D01*
X306145215Y-133204514D01*
X306145610Y-133199109D01*
X306147253Y-133183956D01*
X306149200Y-133171280D01*
X306151478Y-133160025D01*
X306154113Y-133149131D01*
X306154230Y-133148672D01*
X306172758Y-133091291D01*
X306197063Y-133044129D01*
X306229029Y-133003839D01*
X306244059Y-132989194D01*
X306287837Y-132954933D01*
X306334873Y-132930166D01*
X306387676Y-132914055D01*
X306448751Y-132905766D01*
X306499196Y-132904172D01*
X306564766Y-132907142D01*
G37*
X306564766Y-132907142D02*
X306620073Y-132916414D01*
X306667925Y-132932973D01*
X306711131Y-132957806D01*
X306752498Y-132991897D01*
X306754394Y-132993696D01*
X306794537Y-133040708D01*
X306824503Y-133095969D01*
X306842245Y-133148994D01*
X306844497Y-133164920D01*
X306846510Y-133193555D01*
X306848285Y-133233498D01*
X306849821Y-133283350D01*
X306851119Y-133341710D01*
X306852179Y-133407179D01*
X306853002Y-133478355D01*
X306853588Y-133553839D01*
X306853937Y-133632231D01*
X306854050Y-133712130D01*
X306853925Y-133792137D01*
X306853565Y-133870850D01*
X306852969Y-133946870D01*
X306852138Y-134018797D01*
X306851071Y-134085231D01*
X306849770Y-134144771D01*
X306848233Y-134196017D01*
X306846462Y-134237568D01*
X306844457Y-134268026D01*
X306842219Y-134285989D01*
X306842020Y-134286885D01*
X306820117Y-134351698D01*
X306787283Y-134407729D01*
X306744004Y-134454482D01*
X306690769Y-134491465D01*
X306628065Y-134518184D01*
X306607730Y-134524059D01*
X306574641Y-134529815D01*
X306532620Y-134533033D01*
X306486552Y-134533729D01*
X306441324Y-134531917D01*
X306401823Y-134527614D01*
X306380954Y-134523335D01*
X306323506Y-134501828D01*
X306270803Y-134470388D01*
X306225560Y-134431100D01*
X306190495Y-134386050D01*
X306181603Y-134370242D01*
X306172842Y-134349523D01*
X306163060Y-134321030D01*
X306154307Y-134290761D01*
X306153949Y-134289370D01*
X306151350Y-134278607D01*
X306149102Y-134267376D01*
X306147180Y-134254622D01*
X306145557Y-134239290D01*
X306144210Y-134220323D01*
X306143112Y-134196668D01*
X306142238Y-134167268D01*
X306141563Y-134131068D01*
X306141062Y-134087013D01*
X306140709Y-134034047D01*
X306140479Y-133971116D01*
X306140347Y-133897164D01*
X306140286Y-133811135D01*
X306140273Y-133719570D01*
X306140287Y-133621474D01*
X306140348Y-133536432D01*
X306140482Y-133463386D01*
X306140713Y-133401278D01*
X306141069Y-133349051D01*
X306141574Y-133305647D01*
X306142255Y-133270009D01*
X306143137Y-133241078D01*
X306144247Y-133217797D01*
X306145215Y-133204514D01*
X306299023Y-133204514D01*
X306299023Y-133716042D01*
X306299043Y-133813976D01*
X306299121Y-133898820D01*
X306299278Y-133971592D01*
X306299538Y-134033312D01*
X306299923Y-134085001D01*
X306300458Y-134127678D01*
X306301166Y-134162363D01*
X306302068Y-134190076D01*
X306303189Y-134211837D01*
X306304552Y-134228666D01*
X306306180Y-134241582D01*
X306308095Y-134251606D01*
X306310321Y-134259757D01*
X306311425Y-134263071D01*
X306333952Y-134309610D01*
X306365197Y-134345099D01*
X306405246Y-134369596D01*
X306454183Y-134383155D01*
X306496578Y-134386182D01*
X306530997Y-134385060D01*
X306557109Y-134381007D01*
X306580591Y-134372991D01*
X306588301Y-134369504D01*
X306626396Y-134346389D01*
X306655408Y-134316121D01*
X306677881Y-134276958D01*
X306694134Y-134241681D01*
X306694134Y-133197458D01*
X306677460Y-133160579D01*
X306656937Y-133126332D01*
X306629235Y-133095320D01*
X306598209Y-133071313D01*
X306574514Y-133059982D01*
X306540715Y-133053007D01*
X306500037Y-133050728D01*
X306458922Y-133053178D01*
X306427716Y-133059210D01*
X306387739Y-133077521D01*
X306352366Y-133106952D01*
X306324715Y-133144588D01*
X306315319Y-133164173D01*
X306299023Y-133204514D01*
X306145215Y-133204514D01*
X306145610Y-133199109D01*
X306147253Y-133183956D01*
X306149200Y-133171280D01*
X306151478Y-133160025D01*
X306154113Y-133149131D01*
X306154230Y-133148672D01*
X306172758Y-133091291D01*
X306197063Y-133044129D01*
X306229029Y-133003839D01*
X306244059Y-132989194D01*
X306287837Y-132954933D01*
X306334873Y-132930166D01*
X306387676Y-132914055D01*
X306448751Y-132905766D01*
X306499196Y-132904172D01*
X306564766Y-132907142D01*
G36*
X308398275Y-132906944D02*
G01*
X308437920Y-132911781D01*
X308455870Y-132915533D01*
X308518420Y-132938512D01*
X308572758Y-132972674D01*
X308618106Y-133017208D01*
X308653688Y-133071303D01*
X308678726Y-133134148D01*
X308683747Y-133153226D01*
X308685770Y-133163733D01*
X308687524Y-133177542D01*
X308689026Y-133195629D01*
X308690294Y-133218971D01*
X308691346Y-133248545D01*
X308692200Y-133285327D01*
X308692875Y-133330293D01*
X308693387Y-133384420D01*
X308693755Y-133448684D01*
X308693997Y-133524061D01*
X308694131Y-133611529D01*
X308694175Y-133712063D01*
X308694175Y-133719570D01*
X308694162Y-133822512D01*
X308694082Y-133912375D01*
X308693871Y-133990188D01*
X308693468Y-134056984D01*
X308692810Y-134113792D01*
X308691834Y-134161644D01*
X308690479Y-134201571D01*
X308688682Y-134234604D01*
X308686380Y-134261773D01*
X308683512Y-134284111D01*
X308680014Y-134302647D01*
X308675824Y-134318413D01*
X308670881Y-134332440D01*
X308665121Y-134345758D01*
X308658481Y-134359400D01*
X308655035Y-134366225D01*
X308621328Y-134417489D01*
X308576698Y-134461214D01*
X308522908Y-134496041D01*
X308461721Y-134520614D01*
X308450674Y-134523683D01*
X308417159Y-134529585D01*
X308374904Y-134532950D01*
X308328757Y-134533780D01*
X308283566Y-134532076D01*
X308244177Y-134527841D01*
X308223528Y-134523609D01*
X308159714Y-134500428D01*
X308105783Y-134467605D01*
X308061014Y-134424473D01*
X308024684Y-134370368D01*
X308001208Y-134318728D01*
X307985301Y-134276958D01*
X307985301Y-133723097D01*
X307985314Y-133621316D01*
X307985371Y-133532661D01*
X307985448Y-133483455D01*
X308137843Y-133483455D01*
X308137871Y-133560110D01*
X308138120Y-133648851D01*
X308138534Y-133747792D01*
X308138994Y-133843237D01*
X308139457Y-133925610D01*
X308139951Y-133995954D01*
X308140507Y-134055306D01*
X308141152Y-134104708D01*
X308141918Y-134145200D01*
X308142832Y-134177822D01*
X308143925Y-134203614D01*
X308145226Y-134223616D01*
X308146764Y-134238868D01*
X308148569Y-134250411D01*
X308150670Y-134259285D01*
X308153096Y-134266530D01*
X308153188Y-134266770D01*
X308177301Y-134312821D01*
X308209785Y-134347605D01*
X308250824Y-134371241D01*
X308300601Y-134383846D01*
X308338078Y-134386182D01*
X308372497Y-134385060D01*
X308398609Y-134381007D01*
X308422091Y-134372991D01*
X308429801Y-134369504D01*
X308467896Y-134346389D01*
X308496908Y-134316121D01*
X308519381Y-134276958D01*
X308535634Y-134241681D01*
X308535634Y-133197458D01*
X308518915Y-133160476D01*
X308494549Y-133121111D01*
X308461116Y-133087418D01*
X308422750Y-133063526D01*
X308421138Y-133062818D01*
X308394256Y-133055532D01*
X308359110Y-133051778D01*
X308321048Y-133051563D01*
X308285418Y-133054891D01*
X308257567Y-133061769D01*
X308255438Y-133062643D01*
X308221060Y-133082781D01*
X308189887Y-133110504D01*
X308167005Y-133141193D01*
X308165189Y-133144596D01*
X308159778Y-133156000D01*
X308155088Y-133168206D01*
X308151073Y-133182242D01*
X308147689Y-133199132D01*
X308144889Y-133219902D01*
X308142630Y-133245579D01*
X308140865Y-133277187D01*
X308139549Y-133315753D01*
X308138637Y-133362303D01*
X308138084Y-133417861D01*
X308137843Y-133483455D01*
X307985448Y-133483455D01*
X307985491Y-133456146D01*
X307985699Y-133390788D01*
X307986015Y-133335600D01*
X307986462Y-133289598D01*
X307987062Y-133251797D01*
X307987838Y-133221211D01*
X307988811Y-133196856D01*
X307990003Y-133177746D01*
X307991436Y-133162897D01*
X307993134Y-133151323D01*
X307995117Y-133142039D01*
X307997408Y-133134060D01*
X307998615Y-133130431D01*
X308015655Y-133086096D01*
X308034048Y-133050779D01*
X308056696Y-133019468D01*
X308074475Y-132999526D01*
X308114916Y-132965145D01*
X308164462Y-132936328D01*
X308218417Y-132915687D01*
X308231245Y-132912302D01*
X308264471Y-132907115D01*
X308306651Y-132904541D01*
X308352886Y-132904507D01*
X308398275Y-132906944D01*
G37*
X308398275Y-132906944D02*
X308437920Y-132911781D01*
X308455870Y-132915533D01*
X308518420Y-132938512D01*
X308572758Y-132972674D01*
X308618106Y-133017208D01*
X308653688Y-133071303D01*
X308678726Y-133134148D01*
X308683747Y-133153226D01*
X308685770Y-133163733D01*
X308687524Y-133177542D01*
X308689026Y-133195629D01*
X308690294Y-133218971D01*
X308691346Y-133248545D01*
X308692200Y-133285327D01*
X308692875Y-133330293D01*
X308693387Y-133384420D01*
X308693755Y-133448684D01*
X308693997Y-133524061D01*
X308694131Y-133611529D01*
X308694175Y-133712063D01*
X308694175Y-133719570D01*
X308694162Y-133822512D01*
X308694082Y-133912375D01*
X308693871Y-133990188D01*
X308693468Y-134056984D01*
X308692810Y-134113792D01*
X308691834Y-134161644D01*
X308690479Y-134201571D01*
X308688682Y-134234604D01*
X308686380Y-134261773D01*
X308683512Y-134284111D01*
X308680014Y-134302647D01*
X308675824Y-134318413D01*
X308670881Y-134332440D01*
X308665121Y-134345758D01*
X308658481Y-134359400D01*
X308655035Y-134366225D01*
X308621328Y-134417489D01*
X308576698Y-134461214D01*
X308522908Y-134496041D01*
X308461721Y-134520614D01*
X308450674Y-134523683D01*
X308417159Y-134529585D01*
X308374904Y-134532950D01*
X308328757Y-134533780D01*
X308283566Y-134532076D01*
X308244177Y-134527841D01*
X308223528Y-134523609D01*
X308159714Y-134500428D01*
X308105783Y-134467605D01*
X308061014Y-134424473D01*
X308024684Y-134370368D01*
X308001208Y-134318728D01*
X307985301Y-134276958D01*
X307985301Y-133723097D01*
X307985314Y-133621316D01*
X307985371Y-133532661D01*
X307985448Y-133483455D01*
X308137843Y-133483455D01*
X308137871Y-133560110D01*
X308138120Y-133648851D01*
X308138534Y-133747792D01*
X308138994Y-133843237D01*
X308139457Y-133925610D01*
X308139951Y-133995954D01*
X308140507Y-134055306D01*
X308141152Y-134104708D01*
X308141918Y-134145200D01*
X308142832Y-134177822D01*
X308143925Y-134203614D01*
X308145226Y-134223616D01*
X308146764Y-134238868D01*
X308148569Y-134250411D01*
X308150670Y-134259285D01*
X308153096Y-134266530D01*
X308153188Y-134266770D01*
X308177301Y-134312821D01*
X308209785Y-134347605D01*
X308250824Y-134371241D01*
X308300601Y-134383846D01*
X308338078Y-134386182D01*
X308372497Y-134385060D01*
X308398609Y-134381007D01*
X308422091Y-134372991D01*
X308429801Y-134369504D01*
X308467896Y-134346389D01*
X308496908Y-134316121D01*
X308519381Y-134276958D01*
X308535634Y-134241681D01*
X308535634Y-133197458D01*
X308518915Y-133160476D01*
X308494549Y-133121111D01*
X308461116Y-133087418D01*
X308422750Y-133063526D01*
X308421138Y-133062818D01*
X308394256Y-133055532D01*
X308359110Y-133051778D01*
X308321048Y-133051563D01*
X308285418Y-133054891D01*
X308257567Y-133061769D01*
X308255438Y-133062643D01*
X308221060Y-133082781D01*
X308189887Y-133110504D01*
X308167005Y-133141193D01*
X308165189Y-133144596D01*
X308159778Y-133156000D01*
X308155088Y-133168206D01*
X308151073Y-133182242D01*
X308147689Y-133199132D01*
X308144889Y-133219902D01*
X308142630Y-133245579D01*
X308140865Y-133277187D01*
X308139549Y-133315753D01*
X308138637Y-133362303D01*
X308138084Y-133417861D01*
X308137843Y-133483455D01*
X307985448Y-133483455D01*
X307985491Y-133456146D01*
X307985699Y-133390788D01*
X307986015Y-133335600D01*
X307986462Y-133289598D01*
X307987062Y-133251797D01*
X307987838Y-133221211D01*
X307988811Y-133196856D01*
X307990003Y-133177746D01*
X307991436Y-133162897D01*
X307993134Y-133151323D01*
X307995117Y-133142039D01*
X307997408Y-133134060D01*
X307998615Y-133130431D01*
X308015655Y-133086096D01*
X308034048Y-133050779D01*
X308056696Y-133019468D01*
X308074475Y-132999526D01*
X308114916Y-132965145D01*
X308164462Y-132936328D01*
X308218417Y-132915687D01*
X308231245Y-132912302D01*
X308264471Y-132907115D01*
X308306651Y-132904541D01*
X308352886Y-132904507D01*
X308398275Y-132906944D01*
G36*
X301294740Y-133209806D02*
G01*
X301296634Y-133373847D01*
X301511828Y-133377743D01*
X301511828Y-133525542D01*
X301292215Y-133525542D01*
X301294425Y-133901250D01*
X301296634Y-134276958D01*
X301313010Y-134310206D01*
X301329487Y-134337238D01*
X301349671Y-134356217D01*
X301376253Y-134368513D01*
X301411928Y-134375500D01*
X301446302Y-134378081D01*
X301511828Y-134380947D01*
X301511828Y-134527431D01*
X301439509Y-134526839D01*
X301403728Y-134525700D01*
X301368394Y-134523143D01*
X301338991Y-134519620D01*
X301328384Y-134517673D01*
X301300676Y-134510225D01*
X301273883Y-134500935D01*
X301263000Y-134496237D01*
X301230386Y-134474116D01*
X301199603Y-134441743D01*
X301173738Y-134402919D01*
X301157428Y-134366235D01*
X301154031Y-134355891D01*
X301151149Y-134345755D01*
X301148732Y-134334609D01*
X301146732Y-134321235D01*
X301145098Y-134304415D01*
X301143783Y-134282931D01*
X301142735Y-134255566D01*
X301141906Y-134221100D01*
X301141247Y-134178317D01*
X301140708Y-134125998D01*
X301140240Y-134062925D01*
X301139794Y-133987880D01*
X301139440Y-133922417D01*
X301137330Y-133525542D01*
X301017940Y-133525542D01*
X301017940Y-133377375D01*
X301137884Y-133377375D01*
X301137884Y-133045764D01*
X301292846Y-133045764D01*
X301294740Y-133209806D01*
G37*
X301294740Y-133209806D02*
X301296634Y-133373847D01*
X301511828Y-133377743D01*
X301511828Y-133525542D01*
X301292215Y-133525542D01*
X301294425Y-133901250D01*
X301296634Y-134276958D01*
X301313010Y-134310206D01*
X301329487Y-134337238D01*
X301349671Y-134356217D01*
X301376253Y-134368513D01*
X301411928Y-134375500D01*
X301446302Y-134378081D01*
X301511828Y-134380947D01*
X301511828Y-134527431D01*
X301439509Y-134526839D01*
X301403728Y-134525700D01*
X301368394Y-134523143D01*
X301338991Y-134519620D01*
X301328384Y-134517673D01*
X301300676Y-134510225D01*
X301273883Y-134500935D01*
X301263000Y-134496237D01*
X301230386Y-134474116D01*
X301199603Y-134441743D01*
X301173738Y-134402919D01*
X301157428Y-134366235D01*
X301154031Y-134355891D01*
X301151149Y-134345755D01*
X301148732Y-134334609D01*
X301146732Y-134321235D01*
X301145098Y-134304415D01*
X301143783Y-134282931D01*
X301142735Y-134255566D01*
X301141906Y-134221100D01*
X301141247Y-134178317D01*
X301140708Y-134125998D01*
X301140240Y-134062925D01*
X301139794Y-133987880D01*
X301139440Y-133922417D01*
X301137330Y-133525542D01*
X301017940Y-133525542D01*
X301017940Y-133377375D01*
X301137884Y-133377375D01*
X301137884Y-133045764D01*
X301292846Y-133045764D01*
X301294740Y-133209806D01*
G36*
X302810051Y-133377375D02*
G01*
X303028773Y-133377375D01*
X303028773Y-133525542D01*
X302810051Y-133525542D01*
X302810360Y-133897722D01*
X302810465Y-133983579D01*
X302810683Y-134056500D01*
X302811101Y-134117662D01*
X302811805Y-134168240D01*
X302812884Y-134209410D01*
X302814422Y-134242347D01*
X302816508Y-134268227D01*
X302819227Y-134288227D01*
X302822667Y-134303522D01*
X302826915Y-134315286D01*
X302832057Y-134324698D01*
X302838181Y-134332931D01*
X302842894Y-134338394D01*
X302870089Y-134359635D01*
X302907342Y-134373008D01*
X302955567Y-134378805D01*
X302970565Y-134379109D01*
X303028773Y-134379264D01*
X303028773Y-134527431D01*
X302956453Y-134526601D01*
X302921751Y-134525693D01*
X302888548Y-134523945D01*
X302861825Y-134521657D01*
X302851974Y-134520324D01*
X302795789Y-134504827D01*
X302748899Y-134478872D01*
X302711198Y-134442338D01*
X302682581Y-134395101D01*
X302662941Y-134337039D01*
X302654705Y-134291657D01*
X302653419Y-134274745D01*
X302652208Y-134245306D01*
X302651100Y-134204924D01*
X302650120Y-134155184D01*
X302649293Y-134097669D01*
X302648647Y-134033964D01*
X302648208Y-133965653D01*
X302648000Y-133894320D01*
X302647991Y-133883611D01*
X302647773Y-133525542D01*
X302534884Y-133525542D01*
X302534884Y-133377375D01*
X302647773Y-133377375D01*
X302647773Y-133045764D01*
X302810051Y-133045764D01*
X302810051Y-133377375D01*
G37*
X302810051Y-133377375D02*
X303028773Y-133377375D01*
X303028773Y-133525542D01*
X302810051Y-133525542D01*
X302810360Y-133897722D01*
X302810465Y-133983579D01*
X302810683Y-134056500D01*
X302811101Y-134117662D01*
X302811805Y-134168240D01*
X302812884Y-134209410D01*
X302814422Y-134242347D01*
X302816508Y-134268227D01*
X302819227Y-134288227D01*
X302822667Y-134303522D01*
X302826915Y-134315286D01*
X302832057Y-134324698D01*
X302838181Y-134332931D01*
X302842894Y-134338394D01*
X302870089Y-134359635D01*
X302907342Y-134373008D01*
X302955567Y-134378805D01*
X302970565Y-134379109D01*
X303028773Y-134379264D01*
X303028773Y-134527431D01*
X302956453Y-134526601D01*
X302921751Y-134525693D01*
X302888548Y-134523945D01*
X302861825Y-134521657D01*
X302851974Y-134520324D01*
X302795789Y-134504827D01*
X302748899Y-134478872D01*
X302711198Y-134442338D01*
X302682581Y-134395101D01*
X302662941Y-134337039D01*
X302654705Y-134291657D01*
X302653419Y-134274745D01*
X302652208Y-134245306D01*
X302651100Y-134204924D01*
X302650120Y-134155184D01*
X302649293Y-134097669D01*
X302648647Y-134033964D01*
X302648208Y-133965653D01*
X302648000Y-133894320D01*
X302647991Y-133883611D01*
X302647773Y-133525542D01*
X302534884Y-133525542D01*
X302534884Y-133377375D01*
X302647773Y-133377375D01*
X302647773Y-133045764D01*
X302810051Y-133045764D01*
X302810051Y-133377375D01*
G36*
X303402717Y-133377375D02*
G01*
X303621440Y-133377375D01*
X303621440Y-133525542D01*
X303402717Y-133525542D01*
X303402717Y-133895071D01*
X303402768Y-133978937D01*
X303402943Y-134049864D01*
X303403272Y-134109027D01*
X303403788Y-134157599D01*
X303404521Y-134196752D01*
X303405504Y-134227660D01*
X303406769Y-134251495D01*
X303408346Y-134269432D01*
X303410267Y-134282642D01*
X303412564Y-134292300D01*
X303413486Y-134295124D01*
X303429712Y-134328751D01*
X303452273Y-134352981D01*
X303482902Y-134368786D01*
X303523334Y-134377140D01*
X303563231Y-134379109D01*
X303621440Y-134379264D01*
X303621440Y-134527431D01*
X303549120Y-134526601D01*
X303514337Y-134525685D01*
X303480975Y-134523915D01*
X303454053Y-134521596D01*
X303444138Y-134520252D01*
X303388366Y-134505002D01*
X303341925Y-134479456D01*
X303304376Y-134443208D01*
X303275283Y-134395850D01*
X303256826Y-134346388D01*
X303254183Y-134335945D01*
X303251925Y-134323402D01*
X303250010Y-134307561D01*
X303248399Y-134287225D01*
X303247049Y-134261197D01*
X303245921Y-134228280D01*
X303244975Y-134187278D01*
X303244168Y-134136993D01*
X303243460Y-134076228D01*
X303242811Y-134003786D01*
X303242180Y-133918471D01*
X303242159Y-133915361D01*
X303239481Y-133525542D01*
X303127551Y-133525542D01*
X303127551Y-133377375D01*
X303240440Y-133377375D01*
X303240440Y-133045764D01*
X303402717Y-133045764D01*
X303402717Y-133377375D01*
G37*
X303402717Y-133377375D02*
X303621440Y-133377375D01*
X303621440Y-133525542D01*
X303402717Y-133525542D01*
X303402717Y-133895071D01*
X303402768Y-133978937D01*
X303402943Y-134049864D01*
X303403272Y-134109027D01*
X303403788Y-134157599D01*
X303404521Y-134196752D01*
X303405504Y-134227660D01*
X303406769Y-134251495D01*
X303408346Y-134269432D01*
X303410267Y-134282642D01*
X303412564Y-134292300D01*
X303413486Y-134295124D01*
X303429712Y-134328751D01*
X303452273Y-134352981D01*
X303482902Y-134368786D01*
X303523334Y-134377140D01*
X303563231Y-134379109D01*
X303621440Y-134379264D01*
X303621440Y-134527431D01*
X303549120Y-134526601D01*
X303514337Y-134525685D01*
X303480975Y-134523915D01*
X303454053Y-134521596D01*
X303444138Y-134520252D01*
X303388366Y-134505002D01*
X303341925Y-134479456D01*
X303304376Y-134443208D01*
X303275283Y-134395850D01*
X303256826Y-134346388D01*
X303254183Y-134335945D01*
X303251925Y-134323402D01*
X303250010Y-134307561D01*
X303248399Y-134287225D01*
X303247049Y-134261197D01*
X303245921Y-134228280D01*
X303244975Y-134187278D01*
X303244168Y-134136993D01*
X303243460Y-134076228D01*
X303242811Y-134003786D01*
X303242180Y-133918471D01*
X303242159Y-133915361D01*
X303239481Y-133525542D01*
X303127551Y-133525542D01*
X303127551Y-133377375D01*
X303240440Y-133377375D01*
X303240440Y-133045764D01*
X303402717Y-133045764D01*
X303402717Y-133377375D01*
G36*
X297722995Y-133066931D02*
G01*
X297649371Y-133066931D01*
X297607190Y-133067757D01*
X297575919Y-133070764D01*
X297552425Y-133076747D01*
X297533577Y-133086498D01*
X297516454Y-133100608D01*
X297501018Y-133119795D01*
X297489685Y-133144994D01*
X297482031Y-133178124D01*
X297477634Y-133221100D01*
X297476068Y-133275838D01*
X297476051Y-133283406D01*
X297476051Y-133377375D01*
X297722995Y-133377375D01*
X297722995Y-133511431D01*
X297476051Y-133511431D01*
X297476051Y-134520375D01*
X297313773Y-134520375D01*
X297313773Y-133511431D01*
X297193828Y-133511431D01*
X297193828Y-133377375D01*
X297253801Y-133377375D01*
X297281025Y-133377183D01*
X297301992Y-133376670D01*
X297313407Y-133375933D01*
X297314555Y-133375611D01*
X297315080Y-133368348D01*
X297316062Y-133349249D01*
X297317394Y-133320582D01*
X297318971Y-133284609D01*
X297320555Y-133246847D01*
X297322793Y-133198356D01*
X297325196Y-133161338D01*
X297328093Y-133133155D01*
X297331813Y-133111171D01*
X297336684Y-133092748D01*
X297341438Y-133079301D01*
X297366435Y-133032531D01*
X297402140Y-132990479D01*
X297445202Y-132956684D01*
X297470466Y-132943054D01*
X297488967Y-132935052D01*
X297505654Y-132929373D01*
X297523695Y-132925526D01*
X297546256Y-132923019D01*
X297576505Y-132921360D01*
X297617611Y-132920059D01*
X297618926Y-132920024D01*
X297722995Y-132917226D01*
X297722995Y-133066931D01*
G37*
X297722995Y-133066931D02*
X297649371Y-133066931D01*
X297607190Y-133067757D01*
X297575919Y-133070764D01*
X297552425Y-133076747D01*
X297533577Y-133086498D01*
X297516454Y-133100608D01*
X297501018Y-133119795D01*
X297489685Y-133144994D01*
X297482031Y-133178124D01*
X297477634Y-133221100D01*
X297476068Y-133275838D01*
X297476051Y-133283406D01*
X297476051Y-133377375D01*
X297722995Y-133377375D01*
X297722995Y-133511431D01*
X297476051Y-133511431D01*
X297476051Y-134520375D01*
X297313773Y-134520375D01*
X297313773Y-133511431D01*
X297193828Y-133511431D01*
X297193828Y-133377375D01*
X297253801Y-133377375D01*
X297281025Y-133377183D01*
X297301992Y-133376670D01*
X297313407Y-133375933D01*
X297314555Y-133375611D01*
X297315080Y-133368348D01*
X297316062Y-133349249D01*
X297317394Y-133320582D01*
X297318971Y-133284609D01*
X297320555Y-133246847D01*
X297322793Y-133198356D01*
X297325196Y-133161338D01*
X297328093Y-133133155D01*
X297331813Y-133111171D01*
X297336684Y-133092748D01*
X297341438Y-133079301D01*
X297366435Y-133032531D01*
X297402140Y-132990479D01*
X297445202Y-132956684D01*
X297470466Y-132943054D01*
X297488967Y-132935052D01*
X297505654Y-132929373D01*
X297523695Y-132925526D01*
X297546256Y-132923019D01*
X297576505Y-132921360D01*
X297617611Y-132920059D01*
X297618926Y-132920024D01*
X297722995Y-132917226D01*
X297722995Y-133066931D01*
G36*
X299228689Y-133360953D02*
G01*
X299257336Y-133363466D01*
X299281077Y-133368324D01*
X299304497Y-133376193D01*
X299306610Y-133377019D01*
X299353274Y-133402378D01*
X299394650Y-133438299D01*
X299426929Y-133481307D01*
X299432740Y-133491983D01*
X299440338Y-133507469D01*
X299446914Y-133522507D01*
X299452555Y-133538218D01*
X299457347Y-133555723D01*
X299461375Y-133576146D01*
X299464726Y-133600606D01*
X299467487Y-133630227D01*
X299469743Y-133666130D01*
X299471581Y-133709437D01*
X299473087Y-133761269D01*
X299474347Y-133822748D01*
X299475447Y-133894996D01*
X299476475Y-133979135D01*
X299477493Y-134074111D01*
X299482111Y-134520375D01*
X299318053Y-134520375D01*
X299316038Y-134077639D01*
X299315626Y-133983852D01*
X299315225Y-133903094D01*
X299314714Y-133834282D01*
X299313971Y-133776336D01*
X299312875Y-133728172D01*
X299311304Y-133688710D01*
X299309137Y-133656867D01*
X299306253Y-133631561D01*
X299302530Y-133611711D01*
X299297846Y-133596234D01*
X299292081Y-133584050D01*
X299285113Y-133574075D01*
X299276819Y-133565229D01*
X299267080Y-133556428D01*
X299256500Y-133547233D01*
X299220576Y-133523035D01*
X299178587Y-133509157D01*
X299128531Y-133505049D01*
X299105961Y-133506007D01*
X299055270Y-133515639D01*
X299013134Y-133536423D01*
X298980005Y-133567955D01*
X298956337Y-133609833D01*
X298944770Y-133649246D01*
X298942765Y-133665367D01*
X298941055Y-133692560D01*
X298939632Y-133731263D01*
X298938489Y-133781912D01*
X298937617Y-133844948D01*
X298937009Y-133920808D01*
X298936656Y-134009930D01*
X298936551Y-134105274D01*
X298936551Y-134520375D01*
X298774273Y-134520375D01*
X298774273Y-133377375D01*
X298936551Y-133377375D01*
X298936551Y-133514193D01*
X298956823Y-133482826D01*
X298996671Y-133433517D01*
X299045220Y-133395155D01*
X299074134Y-133379513D01*
X299095043Y-133370404D01*
X299113452Y-133364631D01*
X299133670Y-133361477D01*
X299160004Y-133360223D01*
X299190551Y-133360116D01*
X299228689Y-133360953D01*
G37*
X299228689Y-133360953D02*
X299257336Y-133363466D01*
X299281077Y-133368324D01*
X299304497Y-133376193D01*
X299306610Y-133377019D01*
X299353274Y-133402378D01*
X299394650Y-133438299D01*
X299426929Y-133481307D01*
X299432740Y-133491983D01*
X299440338Y-133507469D01*
X299446914Y-133522507D01*
X299452555Y-133538218D01*
X299457347Y-133555723D01*
X299461375Y-133576146D01*
X299464726Y-133600606D01*
X299467487Y-133630227D01*
X299469743Y-133666130D01*
X299471581Y-133709437D01*
X299473087Y-133761269D01*
X299474347Y-133822748D01*
X299475447Y-133894996D01*
X299476475Y-133979135D01*
X299477493Y-134074111D01*
X299482111Y-134520375D01*
X299318053Y-134520375D01*
X299316038Y-134077639D01*
X299315626Y-133983852D01*
X299315225Y-133903094D01*
X299314714Y-133834282D01*
X299313971Y-133776336D01*
X299312875Y-133728172D01*
X299311304Y-133688710D01*
X299309137Y-133656867D01*
X299306253Y-133631561D01*
X299302530Y-133611711D01*
X299297846Y-133596234D01*
X299292081Y-133584050D01*
X299285113Y-133574075D01*
X299276819Y-133565229D01*
X299267080Y-133556428D01*
X299256500Y-133547233D01*
X299220576Y-133523035D01*
X299178587Y-133509157D01*
X299128531Y-133505049D01*
X299105961Y-133506007D01*
X299055270Y-133515639D01*
X299013134Y-133536423D01*
X298980005Y-133567955D01*
X298956337Y-133609833D01*
X298944770Y-133649246D01*
X298942765Y-133665367D01*
X298941055Y-133692560D01*
X298939632Y-133731263D01*
X298938489Y-133781912D01*
X298937617Y-133844948D01*
X298937009Y-133920808D01*
X298936656Y-134009930D01*
X298936551Y-134105274D01*
X298936551Y-134520375D01*
X298774273Y-134520375D01*
X298774273Y-133377375D01*
X298936551Y-133377375D01*
X298936551Y-133514193D01*
X298956823Y-133482826D01*
X298996671Y-133433517D01*
X299045220Y-133395155D01*
X299074134Y-133379513D01*
X299095043Y-133370404D01*
X299113452Y-133364631D01*
X299133670Y-133361477D01*
X299160004Y-133360223D01*
X299190551Y-133360116D01*
X299228689Y-133360953D01*
G36*
X300210078Y-133366313D02*
G01*
X300265470Y-133385036D01*
X300311670Y-133413403D01*
X300349103Y-133451937D01*
X300378188Y-133501166D01*
X300399349Y-133561614D01*
X300410484Y-133615987D01*
X300412316Y-133635509D01*
X300413915Y-133668693D01*
X300415273Y-133715088D01*
X300416383Y-133774247D01*
X300417239Y-133845719D01*
X300417832Y-133929058D01*
X300418155Y-134023813D01*
X300418217Y-134093102D01*
X300418217Y-134520375D01*
X300255940Y-134520375D01*
X300255940Y-134089583D01*
X300255809Y-133986074D01*
X300255419Y-133895201D01*
X300254774Y-133817182D01*
X300253877Y-133752239D01*
X300252731Y-133700589D01*
X300251341Y-133662455D01*
X300249710Y-133638054D01*
X300248413Y-133629208D01*
X300230655Y-133584781D01*
X300202615Y-133549890D01*
X300164669Y-133524822D01*
X300117194Y-133509865D01*
X300087370Y-133506067D01*
X300035696Y-133507132D01*
X299990009Y-133517586D01*
X299952690Y-133536761D01*
X299939550Y-133547770D01*
X299927186Y-133560372D01*
X299916507Y-133573004D01*
X299907387Y-133586750D01*
X299899706Y-133602696D01*
X299893339Y-133621928D01*
X299888165Y-133645533D01*
X299884059Y-133674595D01*
X299880900Y-133710201D01*
X299878565Y-133753436D01*
X299876930Y-133805387D01*
X299875873Y-133867139D01*
X299875271Y-133939777D01*
X299875000Y-134024389D01*
X299874940Y-134118829D01*
X299874940Y-134520375D01*
X299719717Y-134520375D01*
X299719717Y-133377375D01*
X299873176Y-133377375D01*
X299877585Y-133399424D01*
X299880025Y-133418818D01*
X299881626Y-133445353D01*
X299881995Y-133464305D01*
X299881995Y-133507138D01*
X299901925Y-133475770D01*
X299938695Y-133430483D01*
X299984129Y-133395542D01*
X300036763Y-133371467D01*
X300095134Y-133358778D01*
X300157777Y-133357996D01*
X300210078Y-133366313D01*
G37*
X300210078Y-133366313D02*
X300265470Y-133385036D01*
X300311670Y-133413403D01*
X300349103Y-133451937D01*
X300378188Y-133501166D01*
X300399349Y-133561614D01*
X300410484Y-133615987D01*
X300412316Y-133635509D01*
X300413915Y-133668693D01*
X300415273Y-133715088D01*
X300416383Y-133774247D01*
X300417239Y-133845719D01*
X300417832Y-133929058D01*
X300418155Y-134023813D01*
X300418217Y-134093102D01*
X300418217Y-134520375D01*
X300255940Y-134520375D01*
X300255940Y-134089583D01*
X300255809Y-133986074D01*
X300255419Y-133895201D01*
X300254774Y-133817182D01*
X300253877Y-133752239D01*
X300252731Y-133700589D01*
X300251341Y-133662455D01*
X300249710Y-133638054D01*
X300248413Y-133629208D01*
X300230655Y-133584781D01*
X300202615Y-133549890D01*
X300164669Y-133524822D01*
X300117194Y-133509865D01*
X300087370Y-133506067D01*
X300035696Y-133507132D01*
X299990009Y-133517586D01*
X299952690Y-133536761D01*
X299939550Y-133547770D01*
X299927186Y-133560372D01*
X299916507Y-133573004D01*
X299907387Y-133586750D01*
X299899706Y-133602696D01*
X299893339Y-133621928D01*
X299888165Y-133645533D01*
X299884059Y-133674595D01*
X299880900Y-133710201D01*
X299878565Y-133753436D01*
X299876930Y-133805387D01*
X299875873Y-133867139D01*
X299875271Y-133939777D01*
X299875000Y-134024389D01*
X299874940Y-134118829D01*
X299874940Y-134520375D01*
X299719717Y-134520375D01*
X299719717Y-133377375D01*
X299873176Y-133377375D01*
X299877585Y-133399424D01*
X299880025Y-133418818D01*
X299881626Y-133445353D01*
X299881995Y-133464305D01*
X299881995Y-133507138D01*
X299901925Y-133475770D01*
X299938695Y-133430483D01*
X299984129Y-133395542D01*
X300036763Y-133371467D01*
X300095134Y-133358778D01*
X300157777Y-133357996D01*
X300210078Y-133366313D01*
G36*
X300841551Y-134520375D02*
G01*
X300679273Y-134520375D01*
X300679273Y-133377375D01*
X300841551Y-133377375D01*
X300841551Y-134520375D01*
G37*
X300841551Y-134520375D02*
X300679273Y-134520375D01*
X300679273Y-133377375D01*
X300841551Y-133377375D01*
X300841551Y-134520375D01*
G36*
X303988328Y-134520375D02*
G01*
X303826051Y-134520375D01*
X303826051Y-133377375D01*
X303988328Y-133377375D01*
X303988328Y-134520375D01*
G37*
X303988328Y-134520375D02*
X303826051Y-134520375D01*
X303826051Y-133377375D01*
X303988328Y-133377375D01*
X303988328Y-134520375D01*
G36*
X305602781Y-132904707D02*
G01*
X305646911Y-132907757D01*
X305684091Y-132913431D01*
X305691670Y-132915245D01*
X305756301Y-132938769D01*
X305811450Y-132972745D01*
X305857116Y-133017168D01*
X305893295Y-133072037D01*
X305919984Y-133137347D01*
X305926055Y-133158653D01*
X305933170Y-133198443D01*
X305937010Y-133247445D01*
X305937586Y-133301145D01*
X305934906Y-133355032D01*
X305928980Y-133404593D01*
X305925483Y-133423236D01*
X305916923Y-133460540D01*
X305907249Y-133496523D01*
X305895879Y-133532362D01*
X305882230Y-133569235D01*
X305865720Y-133608319D01*
X305845766Y-133650790D01*
X305821787Y-133697825D01*
X305793199Y-133750603D01*
X305759420Y-133810298D01*
X305719867Y-133878089D01*
X305673959Y-133955153D01*
X305621113Y-134042666D01*
X305609516Y-134061764D01*
X305422991Y-134368681D01*
X305679326Y-134370531D01*
X305935662Y-134372382D01*
X305935662Y-134520375D01*
X305223051Y-134520375D01*
X305223113Y-134389847D01*
X305431937Y-134037070D01*
X305471446Y-133970129D01*
X305509829Y-133904727D01*
X305546288Y-133842244D01*
X305580028Y-133784064D01*
X305610250Y-133731568D01*
X305636158Y-133686139D01*
X305656956Y-133649159D01*
X305671846Y-133622010D01*
X305678020Y-133610208D01*
X305715627Y-133527565D01*
X305744058Y-133447937D01*
X305762900Y-133372913D01*
X305771741Y-133304082D01*
X305771110Y-133251913D01*
X305765650Y-133208343D01*
X305757257Y-133174004D01*
X305744412Y-133144086D01*
X305729097Y-133118892D01*
X305699211Y-133085051D01*
X305662646Y-133063026D01*
X305618273Y-133052259D01*
X305591539Y-133050924D01*
X305544185Y-133055093D01*
X305505248Y-133068223D01*
X305471146Y-133091847D01*
X305452681Y-133110393D01*
X305427249Y-133144200D01*
X305408125Y-133183117D01*
X305394257Y-133229949D01*
X305384588Y-133287498D01*
X305383878Y-133293383D01*
X305375679Y-133363264D01*
X305215995Y-133363264D01*
X305216088Y-133315639D01*
X305219049Y-133269434D01*
X305227014Y-133217844D01*
X305238845Y-133166046D01*
X305253404Y-133119213D01*
X305265653Y-133090010D01*
X305299831Y-133034918D01*
X305343609Y-132987141D01*
X305394676Y-132948591D01*
X305450721Y-132921183D01*
X305480578Y-132912086D01*
X305514427Y-132906794D01*
X305556891Y-132904360D01*
X305602781Y-132904707D01*
G37*
X305602781Y-132904707D02*
X305646911Y-132907757D01*
X305684091Y-132913431D01*
X305691670Y-132915245D01*
X305756301Y-132938769D01*
X305811450Y-132972745D01*
X305857116Y-133017168D01*
X305893295Y-133072037D01*
X305919984Y-133137347D01*
X305926055Y-133158653D01*
X305933170Y-133198443D01*
X305937010Y-133247445D01*
X305937586Y-133301145D01*
X305934906Y-133355032D01*
X305928980Y-133404593D01*
X305925483Y-133423236D01*
X305916923Y-133460540D01*
X305907249Y-133496523D01*
X305895879Y-133532362D01*
X305882230Y-133569235D01*
X305865720Y-133608319D01*
X305845766Y-133650790D01*
X305821787Y-133697825D01*
X305793199Y-133750603D01*
X305759420Y-133810298D01*
X305719867Y-133878089D01*
X305673959Y-133955153D01*
X305621113Y-134042666D01*
X305609516Y-134061764D01*
X305422991Y-134368681D01*
X305679326Y-134370531D01*
X305935662Y-134372382D01*
X305935662Y-134520375D01*
X305223051Y-134520375D01*
X305223113Y-134389847D01*
X305431937Y-134037070D01*
X305471446Y-133970129D01*
X305509829Y-133904727D01*
X305546288Y-133842244D01*
X305580028Y-133784064D01*
X305610250Y-133731568D01*
X305636158Y-133686139D01*
X305656956Y-133649159D01*
X305671846Y-133622010D01*
X305678020Y-133610208D01*
X305715627Y-133527565D01*
X305744058Y-133447937D01*
X305762900Y-133372913D01*
X305771741Y-133304082D01*
X305771110Y-133251913D01*
X305765650Y-133208343D01*
X305757257Y-133174004D01*
X305744412Y-133144086D01*
X305729097Y-133118892D01*
X305699211Y-133085051D01*
X305662646Y-133063026D01*
X305618273Y-133052259D01*
X305591539Y-133050924D01*
X305544185Y-133055093D01*
X305505248Y-133068223D01*
X305471146Y-133091847D01*
X305452681Y-133110393D01*
X305427249Y-133144200D01*
X305408125Y-133183117D01*
X305394257Y-133229949D01*
X305384588Y-133287498D01*
X305383878Y-133293383D01*
X305375679Y-133363264D01*
X305215995Y-133363264D01*
X305216088Y-133315639D01*
X305219049Y-133269434D01*
X305227014Y-133217844D01*
X305238845Y-133166046D01*
X305253404Y-133119213D01*
X305265653Y-133090010D01*
X305299831Y-133034918D01*
X305343609Y-132987141D01*
X305394676Y-132948591D01*
X305450721Y-132921183D01*
X305480578Y-132912086D01*
X305514427Y-132906794D01*
X305556891Y-132904360D01*
X305602781Y-132904707D01*
G36*
X307446645Y-132904857D02*
G01*
X307490775Y-132908064D01*
X307527382Y-132913834D01*
X307533217Y-132915257D01*
X307597580Y-132938709D01*
X307652411Y-132972479D01*
X307697569Y-133016353D01*
X307732916Y-133070119D01*
X307758311Y-133133563D01*
X307773613Y-133206471D01*
X307778682Y-133288630D01*
X307778681Y-133289181D01*
X307773930Y-133371193D01*
X307759582Y-133452973D01*
X307735037Y-133536720D01*
X307699699Y-133624631D01*
X307671040Y-133684292D01*
X307658210Y-133708305D01*
X307638858Y-133742829D01*
X307613874Y-133786369D01*
X307584149Y-133837427D01*
X307550572Y-133894508D01*
X307514035Y-133956115D01*
X307475427Y-134020753D01*
X307435639Y-134086925D01*
X307395561Y-134153135D01*
X307356084Y-134217886D01*
X307318098Y-134279683D01*
X307284757Y-134333403D01*
X307262742Y-134368681D01*
X307519952Y-134370531D01*
X307777162Y-134372382D01*
X307777162Y-134520375D01*
X307064551Y-134520375D01*
X307064551Y-134389063D01*
X307263077Y-134054316D01*
X307301980Y-133988541D01*
X307340034Y-133923864D01*
X307376375Y-133861773D01*
X307410140Y-133803762D01*
X307440464Y-133751320D01*
X307466484Y-133705938D01*
X307487335Y-133669107D01*
X307502154Y-133642319D01*
X307506119Y-133634903D01*
X307547909Y-133547445D01*
X307579504Y-133463829D01*
X307600777Y-133384906D01*
X307611597Y-133311525D01*
X307611835Y-133244536D01*
X307601364Y-133184791D01*
X307581752Y-133136198D01*
X307555488Y-133098161D01*
X307523729Y-133072003D01*
X307484663Y-133056699D01*
X307436474Y-133051223D01*
X307431440Y-133051177D01*
X307384095Y-133055394D01*
X307344824Y-133069211D01*
X307310142Y-133094132D01*
X307294181Y-133110393D01*
X307267344Y-133146562D01*
X307247342Y-133188771D01*
X307233198Y-133239608D01*
X307224715Y-133294472D01*
X307216953Y-133363264D01*
X307055369Y-133363264D01*
X307059684Y-133290945D01*
X307068341Y-133216446D01*
X307084670Y-133147075D01*
X307107784Y-133086455D01*
X307111430Y-133079033D01*
X307141948Y-133032031D01*
X307182555Y-132988978D01*
X307229960Y-132952485D01*
X307280875Y-132925165D01*
X307322406Y-132911557D01*
X307357132Y-132906510D01*
X307400321Y-132904308D01*
X307446645Y-132904857D01*
G37*
X307446645Y-132904857D02*
X307490775Y-132908064D01*
X307527382Y-132913834D01*
X307533217Y-132915257D01*
X307597580Y-132938709D01*
X307652411Y-132972479D01*
X307697569Y-133016353D01*
X307732916Y-133070119D01*
X307758311Y-133133563D01*
X307773613Y-133206471D01*
X307778682Y-133288630D01*
X307778681Y-133289181D01*
X307773930Y-133371193D01*
X307759582Y-133452973D01*
X307735037Y-133536720D01*
X307699699Y-133624631D01*
X307671040Y-133684292D01*
X307658210Y-133708305D01*
X307638858Y-133742829D01*
X307613874Y-133786369D01*
X307584149Y-133837427D01*
X307550572Y-133894508D01*
X307514035Y-133956115D01*
X307475427Y-134020753D01*
X307435639Y-134086925D01*
X307395561Y-134153135D01*
X307356084Y-134217886D01*
X307318098Y-134279683D01*
X307284757Y-134333403D01*
X307262742Y-134368681D01*
X307519952Y-134370531D01*
X307777162Y-134372382D01*
X307777162Y-134520375D01*
X307064551Y-134520375D01*
X307064551Y-134389063D01*
X307263077Y-134054316D01*
X307301980Y-133988541D01*
X307340034Y-133923864D01*
X307376375Y-133861773D01*
X307410140Y-133803762D01*
X307440464Y-133751320D01*
X307466484Y-133705938D01*
X307487335Y-133669107D01*
X307502154Y-133642319D01*
X307506119Y-133634903D01*
X307547909Y-133547445D01*
X307579504Y-133463829D01*
X307600777Y-133384906D01*
X307611597Y-133311525D01*
X307611835Y-133244536D01*
X307601364Y-133184791D01*
X307581752Y-133136198D01*
X307555488Y-133098161D01*
X307523729Y-133072003D01*
X307484663Y-133056699D01*
X307436474Y-133051223D01*
X307431440Y-133051177D01*
X307384095Y-133055394D01*
X307344824Y-133069211D01*
X307310142Y-133094132D01*
X307294181Y-133110393D01*
X307267344Y-133146562D01*
X307247342Y-133188771D01*
X307233198Y-133239608D01*
X307224715Y-133294472D01*
X307216953Y-133363264D01*
X307055369Y-133363264D01*
X307059684Y-133290945D01*
X307068341Y-133216446D01*
X307084670Y-133147075D01*
X307107784Y-133086455D01*
X307111430Y-133079033D01*
X307141948Y-133032031D01*
X307182555Y-132988978D01*
X307229960Y-132952485D01*
X307280875Y-132925165D01*
X307322406Y-132911557D01*
X307357132Y-132906510D01*
X307400321Y-132904308D01*
X307446645Y-132904857D01*
G36*
X300841551Y-133137486D02*
G01*
X300679273Y-133137486D01*
X300679273Y-132982264D01*
X300841551Y-132982264D01*
X300841551Y-133137486D01*
G37*
X300841551Y-133137486D02*
X300679273Y-133137486D01*
X300679273Y-132982264D01*
X300841551Y-132982264D01*
X300841551Y-133137486D01*
G36*
X303988328Y-133137486D02*
G01*
X303826051Y-133137486D01*
X303826051Y-132982264D01*
X303988328Y-132982264D01*
X303988328Y-133137486D01*
G37*
X303988328Y-133137486D02*
X303826051Y-133137486D01*
X303826051Y-132982264D01*
X303988328Y-132982264D01*
X303988328Y-133137486D01*
G36*
X290997640Y-134907020D02*
G01*
X290140390Y-134907020D01*
X290140390Y-134621270D01*
X290997640Y-134621270D01*
X290997640Y-134106920D01*
X290457890Y-134106920D01*
X290457890Y-133802120D01*
X290997640Y-133802120D01*
X290997640Y-133275070D01*
X290140390Y-133275070D01*
X290140390Y-132970270D01*
X290997640Y-132970270D01*
X290997640Y-132506720D01*
X291302440Y-132506720D01*
X291302440Y-132963920D01*
X292153340Y-132963920D01*
X292153340Y-133268720D01*
X291302440Y-133268720D01*
X291302440Y-133795770D01*
X291835840Y-133795770D01*
X291835840Y-134100570D01*
X291302440Y-134100570D01*
X291302440Y-134621270D01*
X292153340Y-134621270D01*
X292153340Y-134907020D01*
X291302440Y-134907020D01*
X291302440Y-135351520D01*
X290997640Y-135351520D01*
X290997640Y-134907020D01*
G37*
X290997640Y-134907020D02*
X290140390Y-134907020D01*
X290140390Y-134621270D01*
X290997640Y-134621270D01*
X290997640Y-134106920D01*
X290457890Y-134106920D01*
X290457890Y-133802120D01*
X290997640Y-133802120D01*
X290997640Y-133275070D01*
X290140390Y-133275070D01*
X290140390Y-132970270D01*
X290997640Y-132970270D01*
X290997640Y-132506720D01*
X291302440Y-132506720D01*
X291302440Y-132963920D01*
X292153340Y-132963920D01*
X292153340Y-133268720D01*
X291302440Y-133268720D01*
X291302440Y-133795770D01*
X291835840Y-133795770D01*
X291835840Y-134100570D01*
X291302440Y-134100570D01*
X291302440Y-134621270D01*
X292153340Y-134621270D01*
X292153340Y-134907020D01*
X291302440Y-134907020D01*
X291302440Y-135351520D01*
X290997640Y-135351520D01*
X290997640Y-134907020D01*
D12*
X206213345Y-92373872D03*
X81973322Y-92373872D03*
X330453369Y-92373872D03*
X206213345Y-166958110D03*
X206213345Y-61694750D03*
X206213345Y-80444750D03*
X206213345Y-104302994D03*
X298671968Y-104302994D03*
X113754723Y-104302994D03*
X315860803Y-161146960D03*
X96565888Y-161146960D03*
X354660309Y-80444750D03*
X354660309Y-61694750D03*
X57766382Y-61694750D03*
X57766382Y-80444750D03*
D13*
X113753900Y-119024400D03*
D14*
G36*
X355857023Y-58457549D02*
G01*
X356341617Y-58603858D01*
X356788558Y-58841499D01*
X357180827Y-59161427D01*
X357503489Y-59551460D01*
X357744243Y-59996725D01*
X357893929Y-60480280D01*
X357950309Y-61016706D01*
X357950310Y-177160421D01*
X357897510Y-177698933D01*
X357751201Y-178183527D01*
X357513561Y-178630465D01*
X357193631Y-179022738D01*
X356803602Y-179345398D01*
X356358336Y-179586153D01*
X355874777Y-179735839D01*
X355338353Y-179792219D01*
X57110854Y-179792219D01*
X56571973Y-179739875D01*
X56087250Y-179594007D01*
X55640094Y-179356771D01*
X55247533Y-179037198D01*
X54924519Y-178647462D01*
X54683359Y-178202411D01*
X54533234Y-177718990D01*
X54476382Y-177182752D01*
X54476382Y-168947885D01*
X204403175Y-168947885D01*
X204643321Y-169335128D01*
X205137222Y-169595751D01*
X205672478Y-169755011D01*
X206228519Y-169806788D01*
X206783977Y-169749091D01*
X207317506Y-169584138D01*
X207783369Y-169335128D01*
X208023515Y-168947885D01*
X206213345Y-167137715D01*
X204403175Y-168947885D01*
X54476382Y-168947885D01*
X54476382Y-166973284D01*
X203364667Y-166973284D01*
X203422364Y-167528742D01*
X203587317Y-168062271D01*
X203836327Y-168528134D01*
X204223570Y-168768280D01*
X206033740Y-166958110D01*
X206392950Y-166958110D01*
X208203120Y-168768280D01*
X208590363Y-168528134D01*
X208850986Y-168034233D01*
X209010246Y-167498977D01*
X209062023Y-166942936D01*
X209004326Y-166387478D01*
X208839373Y-165853949D01*
X208590363Y-165388086D01*
X208203120Y-165147940D01*
X206392950Y-166958110D01*
X206033740Y-166958110D01*
X204223570Y-165147940D01*
X203836327Y-165388086D01*
X203575704Y-165881987D01*
X203416444Y-166417243D01*
X203364667Y-166973284D01*
X54476382Y-166973284D01*
X54476382Y-164968335D01*
X204403175Y-164968335D01*
X206213345Y-166778505D01*
X208023515Y-164968335D01*
X207783369Y-164581092D01*
X207289468Y-164320469D01*
X206754212Y-164161209D01*
X206198171Y-164109432D01*
X205642713Y-164167129D01*
X205109184Y-164332082D01*
X204643321Y-164581092D01*
X204403175Y-164968335D01*
X54476382Y-164968335D01*
X54476382Y-160867737D01*
X93730888Y-160867737D01*
X93730888Y-161426183D01*
X93839836Y-161973899D01*
X94053544Y-162489836D01*
X94363800Y-162954167D01*
X94758681Y-163349048D01*
X95223012Y-163659304D01*
X95738949Y-163873012D01*
X96286665Y-163981960D01*
X96845111Y-163981960D01*
X97392827Y-163873012D01*
X97908764Y-163659304D01*
X98373095Y-163349048D01*
X98767976Y-162954167D01*
X99078232Y-162489836D01*
X99291940Y-161973899D01*
X99400888Y-161426183D01*
X99400888Y-160867737D01*
X313025803Y-160867737D01*
X313025803Y-161426183D01*
X313134751Y-161973899D01*
X313348459Y-162489836D01*
X313658715Y-162954167D01*
X314053596Y-163349048D01*
X314517927Y-163659304D01*
X315033864Y-163873012D01*
X315581580Y-163981960D01*
X316140026Y-163981960D01*
X316687742Y-163873012D01*
X317203679Y-163659304D01*
X317668010Y-163349048D01*
X318062891Y-162954167D01*
X318373147Y-162489836D01*
X318586855Y-161973899D01*
X318695803Y-161426183D01*
X318695803Y-160867737D01*
X318586855Y-160320021D01*
X318373147Y-159804084D01*
X318062891Y-159339753D01*
X317668010Y-158944872D01*
X317203679Y-158634616D01*
X316687742Y-158420908D01*
X316140026Y-158311960D01*
X315581580Y-158311960D01*
X315033864Y-158420908D01*
X314517927Y-158634616D01*
X314053596Y-158944872D01*
X313658715Y-159339753D01*
X313348459Y-159804084D01*
X313134751Y-160320021D01*
X313025803Y-160867737D01*
X99400888Y-160867737D01*
X99291940Y-160320021D01*
X99078232Y-159804084D01*
X98767976Y-159339753D01*
X98373095Y-158944872D01*
X97908764Y-158634616D01*
X97392827Y-158420908D01*
X96845111Y-158311960D01*
X96286665Y-158311960D01*
X95738949Y-158420908D01*
X95223012Y-158634616D01*
X94758681Y-158944872D01*
X94363800Y-159339753D01*
X94053544Y-159804084D01*
X93839836Y-160320021D01*
X93730888Y-160867737D01*
X54476382Y-160867737D01*
X54476382Y-119226627D01*
X61324687Y-119226627D01*
X61325009Y-119288103D01*
X61324687Y-119349578D01*
X61325448Y-119371923D01*
X61414553Y-121639798D01*
X61419053Y-121701084D01*
X61422915Y-121762464D01*
X61425194Y-121784704D01*
X61668343Y-124041266D01*
X61677005Y-124102129D01*
X61685030Y-124163080D01*
X61688816Y-124185114D01*
X62084883Y-126419913D01*
X62097653Y-126479993D01*
X62109815Y-126540308D01*
X62115092Y-126562034D01*
X62662240Y-128764719D01*
X62679081Y-128823840D01*
X62695304Y-128883140D01*
X62702046Y-128904457D01*
X63397745Y-131064827D01*
X63418555Y-131122630D01*
X63438787Y-131180726D01*
X63446963Y-131201535D01*
X64287990Y-133309583D01*
X64312684Y-133365838D01*
X64336819Y-133422420D01*
X64346391Y-133442625D01*
X65328849Y-135488590D01*
X65357342Y-135543092D01*
X65385241Y-135597846D01*
X65396165Y-135617353D01*
X66515505Y-137591757D01*
X66547614Y-137644154D01*
X66579196Y-137696924D01*
X66591412Y-137715627D01*
X66591422Y-137715643D01*
X66591431Y-137715656D01*
X67842459Y-139609342D01*
X67878054Y-139659429D01*
X67913156Y-139709934D01*
X67926627Y-139727778D01*
X69303568Y-141532003D01*
X69342503Y-141579572D01*
X69380943Y-141627553D01*
X69395596Y-141644439D01*
X70892063Y-143350833D01*
X70934146Y-143395648D01*
X70975758Y-143440900D01*
X70991525Y-143456750D01*
X72600589Y-145057410D01*
X72645600Y-145099237D01*
X72690216Y-145141576D01*
X72707025Y-145156317D01*
X74421231Y-146643829D01*
X74468990Y-146682503D01*
X74516375Y-146721703D01*
X74534148Y-146735267D01*
X76345557Y-148102742D01*
X76395876Y-148138107D01*
X76445778Y-148173965D01*
X76464408Y-148186272D01*
X76464432Y-148186289D01*
X76464453Y-148186302D01*
X78364656Y-149427393D01*
X78417179Y-149459202D01*
X78469488Y-149491635D01*
X78488937Y-149502661D01*
X80469175Y-150611648D01*
X80523773Y-150639828D01*
X80578135Y-150668611D01*
X80598289Y-150678288D01*
X82649370Y-151650021D01*
X82705795Y-151674438D01*
X82761951Y-151699440D01*
X82782717Y-151707725D01*
X84895140Y-152537702D01*
X84953078Y-152558219D01*
X85010821Y-152579350D01*
X85032102Y-152586203D01*
X87196086Y-153270581D01*
X87255284Y-153287109D01*
X87314332Y-153304264D01*
X87336030Y-153309654D01*
X89541551Y-153845263D01*
X89601679Y-153857715D01*
X89661814Y-153870826D01*
X89683828Y-153874727D01*
X91920670Y-154259086D01*
X91981534Y-154267423D01*
X92042393Y-154276410D01*
X92064622Y-154278805D01*
X94322426Y-154510136D01*
X94383724Y-154514315D01*
X94445047Y-154519141D01*
X94467385Y-154520019D01*
X94467387Y-154520019D01*
X96735697Y-154597248D01*
X96880994Y-154597248D01*
X97025954Y-154587366D01*
X97169906Y-154567646D01*
X97312184Y-154538182D01*
X97382270Y-154518614D01*
X315160665Y-154548403D01*
X315174456Y-154551829D01*
X315317524Y-154577184D01*
X315461984Y-154592751D01*
X315607169Y-154598455D01*
X315629526Y-154598455D01*
X315978760Y-154596626D01*
X316009477Y-154595419D01*
X316040227Y-154595419D01*
X316062567Y-154594541D01*
X318329944Y-154493563D01*
X318391227Y-154488740D01*
X318452565Y-154484558D01*
X318474794Y-154482163D01*
X320730052Y-154227202D01*
X320790866Y-154218222D01*
X320851775Y-154209878D01*
X320873784Y-154205978D01*
X320873790Y-154205977D01*
X320873795Y-154205976D01*
X323106484Y-153798215D01*
X323166522Y-153785124D01*
X323226748Y-153772652D01*
X323248446Y-153767262D01*
X325448235Y-153208586D01*
X325507221Y-153191449D01*
X325566482Y-153174903D01*
X325587763Y-153168050D01*
X327744461Y-152461048D01*
X327802155Y-152439935D01*
X327860142Y-152419401D01*
X327880897Y-152411120D01*
X327880909Y-152411116D01*
X327880919Y-152411112D01*
X329984524Y-151559064D01*
X330040678Y-151534063D01*
X330097105Y-151509644D01*
X330117246Y-151499972D01*
X330117260Y-151499966D01*
X330117271Y-151499960D01*
X332158051Y-150506809D01*
X332212322Y-150478075D01*
X332267011Y-150449847D01*
X332286460Y-150438821D01*
X334254977Y-149309158D01*
X334307239Y-149276754D01*
X334359809Y-149244916D01*
X334378463Y-149232593D01*
X336265586Y-147971658D01*
X336315469Y-147935813D01*
X336365807Y-147900435D01*
X336383579Y-147886871D01*
X338180571Y-146500502D01*
X338227945Y-146461311D01*
X338275715Y-146422627D01*
X338292524Y-146407886D01*
X339991059Y-144902504D01*
X340035672Y-144860168D01*
X340080685Y-144818339D01*
X340096453Y-144802489D01*
X341688666Y-143185068D01*
X341730278Y-143139816D01*
X341772361Y-143095001D01*
X341787014Y-143078115D01*
X343265530Y-141356144D01*
X343303946Y-141308193D01*
X343342906Y-141260593D01*
X343356376Y-141242750D01*
X344714348Y-139424204D01*
X344749405Y-139373763D01*
X344785045Y-139323613D01*
X344797270Y-139304894D01*
X346028409Y-137398198D01*
X346059969Y-137345466D01*
X346092102Y-137293030D01*
X346103017Y-137273539D01*
X346103026Y-137273524D01*
X346103032Y-137273511D01*
X347201629Y-135287505D01*
X347229514Y-135232778D01*
X347258020Y-135178250D01*
X347267592Y-135158045D01*
X348228571Y-133101905D01*
X348252682Y-133045378D01*
X348277401Y-132989067D01*
X348285564Y-132968288D01*
X348285577Y-132968258D01*
X348285586Y-132968232D01*
X349104481Y-130851518D01*
X349124690Y-130793488D01*
X349145523Y-130735620D01*
X349152265Y-130714303D01*
X349825303Y-128546766D01*
X349841540Y-128487415D01*
X349858366Y-128428345D01*
X349863642Y-128406621D01*
X349863643Y-128406619D01*
X349863649Y-128406591D01*
X350387696Y-126198326D01*
X350399839Y-126138103D01*
X350412629Y-126077929D01*
X350416416Y-126055895D01*
X350789057Y-123817072D01*
X350797076Y-123756168D01*
X350805744Y-123695259D01*
X350808023Y-123673018D01*
X351027528Y-121414032D01*
X351031389Y-121352663D01*
X351035890Y-121291368D01*
X351036651Y-121269024D01*
X351102003Y-119000341D01*
X351101681Y-118938866D01*
X351102003Y-118877390D01*
X351101242Y-118855046D01*
X351012137Y-116587170D01*
X351007637Y-116525887D01*
X351003775Y-116464504D01*
X351001496Y-116442263D01*
X350758347Y-114185702D01*
X350749683Y-114124827D01*
X350741660Y-114063889D01*
X350737874Y-114041854D01*
X350341807Y-111807055D01*
X350329038Y-111746983D01*
X350316875Y-111686660D01*
X350311598Y-111664934D01*
X349764449Y-109462249D01*
X349747623Y-109403179D01*
X349731386Y-109343828D01*
X349724644Y-109322511D01*
X349028945Y-107162141D01*
X349008135Y-107104339D01*
X348987903Y-107046242D01*
X348979727Y-107025433D01*
X348138700Y-104917385D01*
X348114001Y-104861120D01*
X348089871Y-104804548D01*
X348080299Y-104784344D01*
X347097841Y-102738378D01*
X347069348Y-102683876D01*
X347041449Y-102629122D01*
X347030525Y-102609615D01*
X345911185Y-100635211D01*
X345879076Y-100582814D01*
X345847494Y-100530044D01*
X345835278Y-100511341D01*
X345835268Y-100511325D01*
X345835259Y-100511312D01*
X344584231Y-98617626D01*
X344548636Y-98567539D01*
X344513534Y-98517034D01*
X344500063Y-98499190D01*
X343123122Y-96694965D01*
X343084171Y-96647376D01*
X343045747Y-96599415D01*
X343031108Y-96582546D01*
X343031094Y-96582528D01*
X343031081Y-96582514D01*
X341534627Y-94876135D01*
X341492584Y-94831364D01*
X341450932Y-94786068D01*
X341435165Y-94770218D01*
X339826102Y-93169558D01*
X339781063Y-93127705D01*
X339736474Y-93085392D01*
X339719665Y-93070651D01*
X338005459Y-91583139D01*
X337957680Y-91544448D01*
X337910315Y-91505265D01*
X337892542Y-91491701D01*
X336081132Y-90124226D01*
X336030840Y-90088880D01*
X335980912Y-90053003D01*
X335962282Y-90040696D01*
X335962258Y-90040679D01*
X335962237Y-90040666D01*
X334062034Y-88799575D01*
X334009511Y-88767766D01*
X333957202Y-88735333D01*
X333937752Y-88724307D01*
X331957515Y-87615320D01*
X331902874Y-87587118D01*
X331848555Y-87558358D01*
X331828401Y-87548680D01*
X329777320Y-86576948D01*
X329720941Y-86552550D01*
X329664739Y-86527528D01*
X329643974Y-86519243D01*
X327531550Y-85689266D01*
X327473576Y-85668736D01*
X327415869Y-85647619D01*
X327394588Y-85640765D01*
X325230605Y-84956387D01*
X325171382Y-84939852D01*
X325112358Y-84922704D01*
X325090660Y-84917314D01*
X322885140Y-84381705D01*
X322824983Y-84369247D01*
X322764876Y-84356142D01*
X322742868Y-84352242D01*
X322742862Y-84352241D01*
X322742857Y-84352240D01*
X320506020Y-83967882D01*
X320445156Y-83959545D01*
X320384297Y-83950558D01*
X320362069Y-83948163D01*
X318104264Y-83716832D01*
X318042966Y-83712653D01*
X317981643Y-83707827D01*
X317959305Y-83706949D01*
X317959303Y-83706949D01*
X316623917Y-83661483D01*
X316617165Y-83659434D01*
X316303518Y-83628499D01*
X96773756Y-83598470D01*
X96460100Y-83629319D01*
X96456881Y-83630295D01*
X96447930Y-83630342D01*
X96417213Y-83631549D01*
X96386462Y-83631549D01*
X96364122Y-83632427D01*
X94096746Y-83733405D01*
X94035460Y-83738228D01*
X93974125Y-83742410D01*
X93951896Y-83744805D01*
X91696638Y-83999766D01*
X91635824Y-84008746D01*
X91574915Y-84017090D01*
X91552906Y-84020990D01*
X91552900Y-84020991D01*
X91552895Y-84020992D01*
X89320207Y-84428753D01*
X89260149Y-84441848D01*
X89199942Y-84454316D01*
X89178244Y-84459706D01*
X86978454Y-85018382D01*
X86919429Y-85035531D01*
X86860209Y-85052065D01*
X86838928Y-85058918D01*
X84682229Y-85765919D01*
X84624499Y-85787045D01*
X84566548Y-85807567D01*
X84545782Y-85815852D01*
X82442166Y-86667904D01*
X82386012Y-86692905D01*
X82329585Y-86717324D01*
X82309444Y-86726996D01*
X82309430Y-86727002D01*
X82309419Y-86727008D01*
X80268639Y-87720159D01*
X80214368Y-87748893D01*
X80159679Y-87777121D01*
X80140230Y-87788147D01*
X78171713Y-88917810D01*
X78119451Y-88950214D01*
X78066881Y-88982052D01*
X78048226Y-88994375D01*
X76161104Y-90255310D01*
X76111176Y-90291187D01*
X76060884Y-90326533D01*
X76043127Y-90340085D01*
X76043110Y-90340097D01*
X76043096Y-90340108D01*
X74246120Y-91726466D01*
X74198773Y-91765635D01*
X74150975Y-91804341D01*
X74134166Y-91819082D01*
X72435631Y-93324464D01*
X72391018Y-93366800D01*
X72346005Y-93408629D01*
X72330237Y-93424479D01*
X70738024Y-95041900D01*
X70696412Y-95087152D01*
X70654329Y-95131967D01*
X70639676Y-95148853D01*
X69161160Y-96870824D01*
X69122744Y-96918775D01*
X69083784Y-96966375D01*
X69070314Y-96984218D01*
X67712342Y-98802764D01*
X67677285Y-98853205D01*
X67641645Y-98903355D01*
X67629420Y-98922074D01*
X66398281Y-100828770D01*
X66366708Y-100881524D01*
X66334589Y-100933938D01*
X66323664Y-100953444D01*
X65225061Y-102939463D01*
X65197176Y-102994190D01*
X65168670Y-103048718D01*
X65159098Y-103068923D01*
X64198119Y-105125063D01*
X64174008Y-105181590D01*
X64149289Y-105237901D01*
X64141126Y-105258680D01*
X64141113Y-105258710D01*
X64141104Y-105258736D01*
X63322209Y-107375450D01*
X63302000Y-107433480D01*
X63281167Y-107491348D01*
X63274425Y-107512665D01*
X62601387Y-109680202D01*
X62585150Y-109739553D01*
X62568324Y-109798623D01*
X62563047Y-109820349D01*
X62038994Y-112028643D01*
X62026843Y-112088902D01*
X62014061Y-112149039D01*
X62010274Y-112171074D01*
X61637632Y-114409896D01*
X61629608Y-114470848D01*
X61620946Y-114531709D01*
X61618672Y-114553916D01*
X61618667Y-114553950D01*
X61618665Y-114553979D01*
X61399162Y-116812935D01*
X61395301Y-116874308D01*
X61390800Y-116935600D01*
X61390039Y-116957944D01*
X61324687Y-119226627D01*
X54476382Y-119226627D01*
X54476382Y-80165527D01*
X54931382Y-80165527D01*
X54931382Y-80723973D01*
X55040330Y-81271689D01*
X55254038Y-81787626D01*
X55564294Y-82251957D01*
X55959175Y-82646838D01*
X56423506Y-82957094D01*
X56939443Y-83170802D01*
X57487159Y-83279750D01*
X58045605Y-83279750D01*
X58593321Y-83170802D01*
X59109258Y-82957094D01*
X59573589Y-82646838D01*
X59968470Y-82251957D01*
X60278726Y-81787626D01*
X60492434Y-81271689D01*
X60601382Y-80723973D01*
X60601382Y-80165527D01*
X203378345Y-80165527D01*
X203378345Y-80723973D01*
X203487293Y-81271689D01*
X203701001Y-81787626D01*
X204011257Y-82251957D01*
X204406138Y-82646838D01*
X204870469Y-82957094D01*
X205386406Y-83170802D01*
X205934122Y-83279750D01*
X206492568Y-83279750D01*
X207040284Y-83170802D01*
X207556221Y-82957094D01*
X208020552Y-82646838D01*
X208415433Y-82251957D01*
X208725689Y-81787626D01*
X208939397Y-81271689D01*
X209048345Y-80723973D01*
X209048345Y-80165527D01*
X351825309Y-80165527D01*
X351825309Y-80723973D01*
X351934257Y-81271689D01*
X352147965Y-81787626D01*
X352458221Y-82251957D01*
X352853102Y-82646838D01*
X353317433Y-82957094D01*
X353833370Y-83170802D01*
X354381086Y-83279750D01*
X354939532Y-83279750D01*
X355487248Y-83170802D01*
X356003185Y-82957094D01*
X356467516Y-82646838D01*
X356862397Y-82251957D01*
X357172653Y-81787626D01*
X357386361Y-81271689D01*
X357495309Y-80723973D01*
X357495309Y-80165527D01*
X357386361Y-79617811D01*
X357172653Y-79101874D01*
X356862397Y-78637543D01*
X356467516Y-78242662D01*
X356003185Y-77932406D01*
X355487248Y-77718698D01*
X354939532Y-77609750D01*
X354381086Y-77609750D01*
X353833370Y-77718698D01*
X353317433Y-77932406D01*
X352853102Y-78242662D01*
X352458221Y-78637543D01*
X352147965Y-79101874D01*
X351934257Y-79617811D01*
X351825309Y-80165527D01*
X209048345Y-80165527D01*
X208939397Y-79617811D01*
X208725689Y-79101874D01*
X208415433Y-78637543D01*
X208020552Y-78242662D01*
X207556221Y-77932406D01*
X207040284Y-77718698D01*
X206492568Y-77609750D01*
X205934122Y-77609750D01*
X205386406Y-77718698D01*
X204870469Y-77932406D01*
X204406138Y-78242662D01*
X204011257Y-78637543D01*
X203701001Y-79101874D01*
X203487293Y-79617811D01*
X203378345Y-80165527D01*
X60601382Y-80165527D01*
X60492434Y-79617811D01*
X60278726Y-79101874D01*
X59968470Y-78637543D01*
X59573589Y-78242662D01*
X59109258Y-77932406D01*
X58593321Y-77718698D01*
X58045605Y-77609750D01*
X57487159Y-77609750D01*
X56939443Y-77718698D01*
X56423506Y-77932406D01*
X55959175Y-78242662D01*
X55564294Y-78637543D01*
X55254038Y-79101874D01*
X55040330Y-79617811D01*
X54931382Y-80165527D01*
X54476382Y-80165527D01*
X54476382Y-61415527D01*
X54931382Y-61415527D01*
X54931382Y-61973973D01*
X55040330Y-62521689D01*
X55254038Y-63037626D01*
X55564294Y-63501957D01*
X55959175Y-63896838D01*
X56423506Y-64207094D01*
X56939443Y-64420802D01*
X57487159Y-64529750D01*
X58045605Y-64529750D01*
X58593321Y-64420802D01*
X59109258Y-64207094D01*
X59573589Y-63896838D01*
X59968470Y-63501957D01*
X60278726Y-63037626D01*
X60492434Y-62521689D01*
X60601382Y-61973973D01*
X60601382Y-61415527D01*
X203378345Y-61415527D01*
X203378345Y-61973973D01*
X203487293Y-62521689D01*
X203701001Y-63037626D01*
X204011257Y-63501957D01*
X204406138Y-63896838D01*
X204870469Y-64207094D01*
X205386406Y-64420802D01*
X205934122Y-64529750D01*
X206492568Y-64529750D01*
X207040284Y-64420802D01*
X207556221Y-64207094D01*
X208020552Y-63896838D01*
X208415433Y-63501957D01*
X208725689Y-63037626D01*
X208939397Y-62521689D01*
X209048345Y-61973973D01*
X209048345Y-61415527D01*
X351825309Y-61415527D01*
X351825309Y-61973973D01*
X351934257Y-62521689D01*
X352147965Y-63037626D01*
X352458221Y-63501957D01*
X352853102Y-63896838D01*
X353317433Y-64207094D01*
X353833370Y-64420802D01*
X354381086Y-64529750D01*
X354939532Y-64529750D01*
X355487248Y-64420802D01*
X356003185Y-64207094D01*
X356467516Y-63896838D01*
X356862397Y-63501957D01*
X357172653Y-63037626D01*
X357386361Y-62521689D01*
X357495309Y-61973973D01*
X357495309Y-61415527D01*
X357386361Y-60867811D01*
X357172653Y-60351874D01*
X356862397Y-59887543D01*
X356467516Y-59492662D01*
X356003185Y-59182406D01*
X355487248Y-58968698D01*
X354939532Y-58859750D01*
X354381086Y-58859750D01*
X353833370Y-58968698D01*
X353317433Y-59182406D01*
X352853102Y-59492662D01*
X352458221Y-59887543D01*
X352147965Y-60351874D01*
X351934257Y-60867811D01*
X351825309Y-61415527D01*
X209048345Y-61415527D01*
X208939397Y-60867811D01*
X208725689Y-60351874D01*
X208415433Y-59887543D01*
X208020552Y-59492662D01*
X207556221Y-59182406D01*
X207040284Y-58968698D01*
X206492568Y-58859750D01*
X205934122Y-58859750D01*
X205386406Y-58968698D01*
X204870469Y-59182406D01*
X204406138Y-59492662D01*
X204011257Y-59887543D01*
X203701001Y-60351874D01*
X203487293Y-60867811D01*
X203378345Y-61415527D01*
X60601382Y-61415527D01*
X60492434Y-60867811D01*
X60278726Y-60351874D01*
X59968470Y-59887543D01*
X59573589Y-59492662D01*
X59109258Y-59182406D01*
X58593321Y-58968698D01*
X58045605Y-58859750D01*
X57487159Y-58859750D01*
X56939443Y-58968698D01*
X56423506Y-59182406D01*
X55959175Y-59492662D01*
X55564294Y-59887543D01*
X55254038Y-60351874D01*
X55040330Y-60867811D01*
X54931382Y-61415527D01*
X54476382Y-61415527D01*
X54476382Y-61036528D01*
X54529181Y-60498036D01*
X54675490Y-60013442D01*
X54913131Y-59566501D01*
X55233059Y-59174232D01*
X55623092Y-58851570D01*
X56068357Y-58610816D01*
X56551912Y-58461130D01*
X57088338Y-58404750D01*
X355318531Y-58404750D01*
X355857023Y-58457549D01*
G37*
X355857023Y-58457549D02*
X356341617Y-58603858D01*
X356788558Y-58841499D01*
X357180827Y-59161427D01*
X357503489Y-59551460D01*
X357744243Y-59996725D01*
X357893929Y-60480280D01*
X357950309Y-61016706D01*
X357950310Y-177160421D01*
X357897510Y-177698933D01*
X357751201Y-178183527D01*
X357513561Y-178630465D01*
X357193631Y-179022738D01*
X356803602Y-179345398D01*
X356358336Y-179586153D01*
X355874777Y-179735839D01*
X355338353Y-179792219D01*
X57110854Y-179792219D01*
X56571973Y-179739875D01*
X56087250Y-179594007D01*
X55640094Y-179356771D01*
X55247533Y-179037198D01*
X54924519Y-178647462D01*
X54683359Y-178202411D01*
X54533234Y-177718990D01*
X54476382Y-177182752D01*
X54476382Y-168947885D01*
X204403175Y-168947885D01*
X204643321Y-169335128D01*
X205137222Y-169595751D01*
X205672478Y-169755011D01*
X206228519Y-169806788D01*
X206783977Y-169749091D01*
X207317506Y-169584138D01*
X207783369Y-169335128D01*
X208023515Y-168947885D01*
X206213345Y-167137715D01*
X204403175Y-168947885D01*
X54476382Y-168947885D01*
X54476382Y-166973284D01*
X203364667Y-166973284D01*
X203422364Y-167528742D01*
X203587317Y-168062271D01*
X203836327Y-168528134D01*
X204223570Y-168768280D01*
X206033740Y-166958110D01*
X206392950Y-166958110D01*
X208203120Y-168768280D01*
X208590363Y-168528134D01*
X208850986Y-168034233D01*
X209010246Y-167498977D01*
X209062023Y-166942936D01*
X209004326Y-166387478D01*
X208839373Y-165853949D01*
X208590363Y-165388086D01*
X208203120Y-165147940D01*
X206392950Y-166958110D01*
X206033740Y-166958110D01*
X204223570Y-165147940D01*
X203836327Y-165388086D01*
X203575704Y-165881987D01*
X203416444Y-166417243D01*
X203364667Y-166973284D01*
X54476382Y-166973284D01*
X54476382Y-164968335D01*
X204403175Y-164968335D01*
X206213345Y-166778505D01*
X208023515Y-164968335D01*
X207783369Y-164581092D01*
X207289468Y-164320469D01*
X206754212Y-164161209D01*
X206198171Y-164109432D01*
X205642713Y-164167129D01*
X205109184Y-164332082D01*
X204643321Y-164581092D01*
X204403175Y-164968335D01*
X54476382Y-164968335D01*
X54476382Y-160867737D01*
X93730888Y-160867737D01*
X93730888Y-161426183D01*
X93839836Y-161973899D01*
X94053544Y-162489836D01*
X94363800Y-162954167D01*
X94758681Y-163349048D01*
X95223012Y-163659304D01*
X95738949Y-163873012D01*
X96286665Y-163981960D01*
X96845111Y-163981960D01*
X97392827Y-163873012D01*
X97908764Y-163659304D01*
X98373095Y-163349048D01*
X98767976Y-162954167D01*
X99078232Y-162489836D01*
X99291940Y-161973899D01*
X99400888Y-161426183D01*
X99400888Y-160867737D01*
X313025803Y-160867737D01*
X313025803Y-161426183D01*
X313134751Y-161973899D01*
X313348459Y-162489836D01*
X313658715Y-162954167D01*
X314053596Y-163349048D01*
X314517927Y-163659304D01*
X315033864Y-163873012D01*
X315581580Y-163981960D01*
X316140026Y-163981960D01*
X316687742Y-163873012D01*
X317203679Y-163659304D01*
X317668010Y-163349048D01*
X318062891Y-162954167D01*
X318373147Y-162489836D01*
X318586855Y-161973899D01*
X318695803Y-161426183D01*
X318695803Y-160867737D01*
X318586855Y-160320021D01*
X318373147Y-159804084D01*
X318062891Y-159339753D01*
X317668010Y-158944872D01*
X317203679Y-158634616D01*
X316687742Y-158420908D01*
X316140026Y-158311960D01*
X315581580Y-158311960D01*
X315033864Y-158420908D01*
X314517927Y-158634616D01*
X314053596Y-158944872D01*
X313658715Y-159339753D01*
X313348459Y-159804084D01*
X313134751Y-160320021D01*
X313025803Y-160867737D01*
X99400888Y-160867737D01*
X99291940Y-160320021D01*
X99078232Y-159804084D01*
X98767976Y-159339753D01*
X98373095Y-158944872D01*
X97908764Y-158634616D01*
X97392827Y-158420908D01*
X96845111Y-158311960D01*
X96286665Y-158311960D01*
X95738949Y-158420908D01*
X95223012Y-158634616D01*
X94758681Y-158944872D01*
X94363800Y-159339753D01*
X94053544Y-159804084D01*
X93839836Y-160320021D01*
X93730888Y-160867737D01*
X54476382Y-160867737D01*
X54476382Y-119226627D01*
X61324687Y-119226627D01*
X61325009Y-119288103D01*
X61324687Y-119349578D01*
X61325448Y-119371923D01*
X61414553Y-121639798D01*
X61419053Y-121701084D01*
X61422915Y-121762464D01*
X61425194Y-121784704D01*
X61668343Y-124041266D01*
X61677005Y-124102129D01*
X61685030Y-124163080D01*
X61688816Y-124185114D01*
X62084883Y-126419913D01*
X62097653Y-126479993D01*
X62109815Y-126540308D01*
X62115092Y-126562034D01*
X62662240Y-128764719D01*
X62679081Y-128823840D01*
X62695304Y-128883140D01*
X62702046Y-128904457D01*
X63397745Y-131064827D01*
X63418555Y-131122630D01*
X63438787Y-131180726D01*
X63446963Y-131201535D01*
X64287990Y-133309583D01*
X64312684Y-133365838D01*
X64336819Y-133422420D01*
X64346391Y-133442625D01*
X65328849Y-135488590D01*
X65357342Y-135543092D01*
X65385241Y-135597846D01*
X65396165Y-135617353D01*
X66515505Y-137591757D01*
X66547614Y-137644154D01*
X66579196Y-137696924D01*
X66591412Y-137715627D01*
X66591422Y-137715643D01*
X66591431Y-137715656D01*
X67842459Y-139609342D01*
X67878054Y-139659429D01*
X67913156Y-139709934D01*
X67926627Y-139727778D01*
X69303568Y-141532003D01*
X69342503Y-141579572D01*
X69380943Y-141627553D01*
X69395596Y-141644439D01*
X70892063Y-143350833D01*
X70934146Y-143395648D01*
X70975758Y-143440900D01*
X70991525Y-143456750D01*
X72600589Y-145057410D01*
X72645600Y-145099237D01*
X72690216Y-145141576D01*
X72707025Y-145156317D01*
X74421231Y-146643829D01*
X74468990Y-146682503D01*
X74516375Y-146721703D01*
X74534148Y-146735267D01*
X76345557Y-148102742D01*
X76395876Y-148138107D01*
X76445778Y-148173965D01*
X76464408Y-148186272D01*
X76464432Y-148186289D01*
X76464453Y-148186302D01*
X78364656Y-149427393D01*
X78417179Y-149459202D01*
X78469488Y-149491635D01*
X78488937Y-149502661D01*
X80469175Y-150611648D01*
X80523773Y-150639828D01*
X80578135Y-150668611D01*
X80598289Y-150678288D01*
X82649370Y-151650021D01*
X82705795Y-151674438D01*
X82761951Y-151699440D01*
X82782717Y-151707725D01*
X84895140Y-152537702D01*
X84953078Y-152558219D01*
X85010821Y-152579350D01*
X85032102Y-152586203D01*
X87196086Y-153270581D01*
X87255284Y-153287109D01*
X87314332Y-153304264D01*
X87336030Y-153309654D01*
X89541551Y-153845263D01*
X89601679Y-153857715D01*
X89661814Y-153870826D01*
X89683828Y-153874727D01*
X91920670Y-154259086D01*
X91981534Y-154267423D01*
X92042393Y-154276410D01*
X92064622Y-154278805D01*
X94322426Y-154510136D01*
X94383724Y-154514315D01*
X94445047Y-154519141D01*
X94467385Y-154520019D01*
X94467387Y-154520019D01*
X96735697Y-154597248D01*
X96880994Y-154597248D01*
X97025954Y-154587366D01*
X97169906Y-154567646D01*
X97312184Y-154538182D01*
X97382270Y-154518614D01*
X315160665Y-154548403D01*
X315174456Y-154551829D01*
X315317524Y-154577184D01*
X315461984Y-154592751D01*
X315607169Y-154598455D01*
X315629526Y-154598455D01*
X315978760Y-154596626D01*
X316009477Y-154595419D01*
X316040227Y-154595419D01*
X316062567Y-154594541D01*
X318329944Y-154493563D01*
X318391227Y-154488740D01*
X318452565Y-154484558D01*
X318474794Y-154482163D01*
X320730052Y-154227202D01*
X320790866Y-154218222D01*
X320851775Y-154209878D01*
X320873784Y-154205978D01*
X320873790Y-154205977D01*
X320873795Y-154205976D01*
X323106484Y-153798215D01*
X323166522Y-153785124D01*
X323226748Y-153772652D01*
X323248446Y-153767262D01*
X325448235Y-153208586D01*
X325507221Y-153191449D01*
X325566482Y-153174903D01*
X325587763Y-153168050D01*
X327744461Y-152461048D01*
X327802155Y-152439935D01*
X327860142Y-152419401D01*
X327880897Y-152411120D01*
X327880909Y-152411116D01*
X327880919Y-152411112D01*
X329984524Y-151559064D01*
X330040678Y-151534063D01*
X330097105Y-151509644D01*
X330117246Y-151499972D01*
X330117260Y-151499966D01*
X330117271Y-151499960D01*
X332158051Y-150506809D01*
X332212322Y-150478075D01*
X332267011Y-150449847D01*
X332286460Y-150438821D01*
X334254977Y-149309158D01*
X334307239Y-149276754D01*
X334359809Y-149244916D01*
X334378463Y-149232593D01*
X336265586Y-147971658D01*
X336315469Y-147935813D01*
X336365807Y-147900435D01*
X336383579Y-147886871D01*
X338180571Y-146500502D01*
X338227945Y-146461311D01*
X338275715Y-146422627D01*
X338292524Y-146407886D01*
X339991059Y-144902504D01*
X340035672Y-144860168D01*
X340080685Y-144818339D01*
X340096453Y-144802489D01*
X341688666Y-143185068D01*
X341730278Y-143139816D01*
X341772361Y-143095001D01*
X341787014Y-143078115D01*
X343265530Y-141356144D01*
X343303946Y-141308193D01*
X343342906Y-141260593D01*
X343356376Y-141242750D01*
X344714348Y-139424204D01*
X344749405Y-139373763D01*
X344785045Y-139323613D01*
X344797270Y-139304894D01*
X346028409Y-137398198D01*
X346059969Y-137345466D01*
X346092102Y-137293030D01*
X346103017Y-137273539D01*
X346103026Y-137273524D01*
X346103032Y-137273511D01*
X347201629Y-135287505D01*
X347229514Y-135232778D01*
X347258020Y-135178250D01*
X347267592Y-135158045D01*
X348228571Y-133101905D01*
X348252682Y-133045378D01*
X348277401Y-132989067D01*
X348285564Y-132968288D01*
X348285577Y-132968258D01*
X348285586Y-132968232D01*
X349104481Y-130851518D01*
X349124690Y-130793488D01*
X349145523Y-130735620D01*
X349152265Y-130714303D01*
X349825303Y-128546766D01*
X349841540Y-128487415D01*
X349858366Y-128428345D01*
X349863642Y-128406621D01*
X349863643Y-128406619D01*
X349863649Y-128406591D01*
X350387696Y-126198326D01*
X350399839Y-126138103D01*
X350412629Y-126077929D01*
X350416416Y-126055895D01*
X350789057Y-123817072D01*
X350797076Y-123756168D01*
X350805744Y-123695259D01*
X350808023Y-123673018D01*
X351027528Y-121414032D01*
X351031389Y-121352663D01*
X351035890Y-121291368D01*
X351036651Y-121269024D01*
X351102003Y-119000341D01*
X351101681Y-118938866D01*
X351102003Y-118877390D01*
X351101242Y-118855046D01*
X351012137Y-116587170D01*
X351007637Y-116525887D01*
X351003775Y-116464504D01*
X351001496Y-116442263D01*
X350758347Y-114185702D01*
X350749683Y-114124827D01*
X350741660Y-114063889D01*
X350737874Y-114041854D01*
X350341807Y-111807055D01*
X350329038Y-111746983D01*
X350316875Y-111686660D01*
X350311598Y-111664934D01*
X349764449Y-109462249D01*
X349747623Y-109403179D01*
X349731386Y-109343828D01*
X349724644Y-109322511D01*
X349028945Y-107162141D01*
X349008135Y-107104339D01*
X348987903Y-107046242D01*
X348979727Y-107025433D01*
X348138700Y-104917385D01*
X348114001Y-104861120D01*
X348089871Y-104804548D01*
X348080299Y-104784344D01*
X347097841Y-102738378D01*
X347069348Y-102683876D01*
X347041449Y-102629122D01*
X347030525Y-102609615D01*
X345911185Y-100635211D01*
X345879076Y-100582814D01*
X345847494Y-100530044D01*
X345835278Y-100511341D01*
X345835268Y-100511325D01*
X345835259Y-100511312D01*
X344584231Y-98617626D01*
X344548636Y-98567539D01*
X344513534Y-98517034D01*
X344500063Y-98499190D01*
X343123122Y-96694965D01*
X343084171Y-96647376D01*
X343045747Y-96599415D01*
X343031108Y-96582546D01*
X343031094Y-96582528D01*
X343031081Y-96582514D01*
X341534627Y-94876135D01*
X341492584Y-94831364D01*
X341450932Y-94786068D01*
X341435165Y-94770218D01*
X339826102Y-93169558D01*
X339781063Y-93127705D01*
X339736474Y-93085392D01*
X339719665Y-93070651D01*
X338005459Y-91583139D01*
X337957680Y-91544448D01*
X337910315Y-91505265D01*
X337892542Y-91491701D01*
X336081132Y-90124226D01*
X336030840Y-90088880D01*
X335980912Y-90053003D01*
X335962282Y-90040696D01*
X335962258Y-90040679D01*
X335962237Y-90040666D01*
X334062034Y-88799575D01*
X334009511Y-88767766D01*
X333957202Y-88735333D01*
X333937752Y-88724307D01*
X331957515Y-87615320D01*
X331902874Y-87587118D01*
X331848555Y-87558358D01*
X331828401Y-87548680D01*
X329777320Y-86576948D01*
X329720941Y-86552550D01*
X329664739Y-86527528D01*
X329643974Y-86519243D01*
X327531550Y-85689266D01*
X327473576Y-85668736D01*
X327415869Y-85647619D01*
X327394588Y-85640765D01*
X325230605Y-84956387D01*
X325171382Y-84939852D01*
X325112358Y-84922704D01*
X325090660Y-84917314D01*
X322885140Y-84381705D01*
X322824983Y-84369247D01*
X322764876Y-84356142D01*
X322742868Y-84352242D01*
X322742862Y-84352241D01*
X322742857Y-84352240D01*
X320506020Y-83967882D01*
X320445156Y-83959545D01*
X320384297Y-83950558D01*
X320362069Y-83948163D01*
X318104264Y-83716832D01*
X318042966Y-83712653D01*
X317981643Y-83707827D01*
X317959305Y-83706949D01*
X317959303Y-83706949D01*
X316623917Y-83661483D01*
X316617165Y-83659434D01*
X316303518Y-83628499D01*
X96773756Y-83598470D01*
X96460100Y-83629319D01*
X96456881Y-83630295D01*
X96447930Y-83630342D01*
X96417213Y-83631549D01*
X96386462Y-83631549D01*
X96364122Y-83632427D01*
X94096746Y-83733405D01*
X94035460Y-83738228D01*
X93974125Y-83742410D01*
X93951896Y-83744805D01*
X91696638Y-83999766D01*
X91635824Y-84008746D01*
X91574915Y-84017090D01*
X91552906Y-84020990D01*
X91552900Y-84020991D01*
X91552895Y-84020992D01*
X89320207Y-84428753D01*
X89260149Y-84441848D01*
X89199942Y-84454316D01*
X89178244Y-84459706D01*
X86978454Y-85018382D01*
X86919429Y-85035531D01*
X86860209Y-85052065D01*
X86838928Y-85058918D01*
X84682229Y-85765919D01*
X84624499Y-85787045D01*
X84566548Y-85807567D01*
X84545782Y-85815852D01*
X82442166Y-86667904D01*
X82386012Y-86692905D01*
X82329585Y-86717324D01*
X82309444Y-86726996D01*
X82309430Y-86727002D01*
X82309419Y-86727008D01*
X80268639Y-87720159D01*
X80214368Y-87748893D01*
X80159679Y-87777121D01*
X80140230Y-87788147D01*
X78171713Y-88917810D01*
X78119451Y-88950214D01*
X78066881Y-88982052D01*
X78048226Y-88994375D01*
X76161104Y-90255310D01*
X76111176Y-90291187D01*
X76060884Y-90326533D01*
X76043127Y-90340085D01*
X76043110Y-90340097D01*
X76043096Y-90340108D01*
X74246120Y-91726466D01*
X74198773Y-91765635D01*
X74150975Y-91804341D01*
X74134166Y-91819082D01*
X72435631Y-93324464D01*
X72391018Y-93366800D01*
X72346005Y-93408629D01*
X72330237Y-93424479D01*
X70738024Y-95041900D01*
X70696412Y-95087152D01*
X70654329Y-95131967D01*
X70639676Y-95148853D01*
X69161160Y-96870824D01*
X69122744Y-96918775D01*
X69083784Y-96966375D01*
X69070314Y-96984218D01*
X67712342Y-98802764D01*
X67677285Y-98853205D01*
X67641645Y-98903355D01*
X67629420Y-98922074D01*
X66398281Y-100828770D01*
X66366708Y-100881524D01*
X66334589Y-100933938D01*
X66323664Y-100953444D01*
X65225061Y-102939463D01*
X65197176Y-102994190D01*
X65168670Y-103048718D01*
X65159098Y-103068923D01*
X64198119Y-105125063D01*
X64174008Y-105181590D01*
X64149289Y-105237901D01*
X64141126Y-105258680D01*
X64141113Y-105258710D01*
X64141104Y-105258736D01*
X63322209Y-107375450D01*
X63302000Y-107433480D01*
X63281167Y-107491348D01*
X63274425Y-107512665D01*
X62601387Y-109680202D01*
X62585150Y-109739553D01*
X62568324Y-109798623D01*
X62563047Y-109820349D01*
X62038994Y-112028643D01*
X62026843Y-112088902D01*
X62014061Y-112149039D01*
X62010274Y-112171074D01*
X61637632Y-114409896D01*
X61629608Y-114470848D01*
X61620946Y-114531709D01*
X61618672Y-114553916D01*
X61618667Y-114553950D01*
X61618665Y-114553979D01*
X61399162Y-116812935D01*
X61395301Y-116874308D01*
X61390800Y-116935600D01*
X61390039Y-116957944D01*
X61324687Y-119226627D01*
X54476382Y-119226627D01*
X54476382Y-80165527D01*
X54931382Y-80165527D01*
X54931382Y-80723973D01*
X55040330Y-81271689D01*
X55254038Y-81787626D01*
X55564294Y-82251957D01*
X55959175Y-82646838D01*
X56423506Y-82957094D01*
X56939443Y-83170802D01*
X57487159Y-83279750D01*
X58045605Y-83279750D01*
X58593321Y-83170802D01*
X59109258Y-82957094D01*
X59573589Y-82646838D01*
X59968470Y-82251957D01*
X60278726Y-81787626D01*
X60492434Y-81271689D01*
X60601382Y-80723973D01*
X60601382Y-80165527D01*
X203378345Y-80165527D01*
X203378345Y-80723973D01*
X203487293Y-81271689D01*
X203701001Y-81787626D01*
X204011257Y-82251957D01*
X204406138Y-82646838D01*
X204870469Y-82957094D01*
X205386406Y-83170802D01*
X205934122Y-83279750D01*
X206492568Y-83279750D01*
X207040284Y-83170802D01*
X207556221Y-82957094D01*
X208020552Y-82646838D01*
X208415433Y-82251957D01*
X208725689Y-81787626D01*
X208939397Y-81271689D01*
X209048345Y-80723973D01*
X209048345Y-80165527D01*
X351825309Y-80165527D01*
X351825309Y-80723973D01*
X351934257Y-81271689D01*
X352147965Y-81787626D01*
X352458221Y-82251957D01*
X352853102Y-82646838D01*
X353317433Y-82957094D01*
X353833370Y-83170802D01*
X354381086Y-83279750D01*
X354939532Y-83279750D01*
X355487248Y-83170802D01*
X356003185Y-82957094D01*
X356467516Y-82646838D01*
X356862397Y-82251957D01*
X357172653Y-81787626D01*
X357386361Y-81271689D01*
X357495309Y-80723973D01*
X357495309Y-80165527D01*
X357386361Y-79617811D01*
X357172653Y-79101874D01*
X356862397Y-78637543D01*
X356467516Y-78242662D01*
X356003185Y-77932406D01*
X355487248Y-77718698D01*
X354939532Y-77609750D01*
X354381086Y-77609750D01*
X353833370Y-77718698D01*
X353317433Y-77932406D01*
X352853102Y-78242662D01*
X352458221Y-78637543D01*
X352147965Y-79101874D01*
X351934257Y-79617811D01*
X351825309Y-80165527D01*
X209048345Y-80165527D01*
X208939397Y-79617811D01*
X208725689Y-79101874D01*
X208415433Y-78637543D01*
X208020552Y-78242662D01*
X207556221Y-77932406D01*
X207040284Y-77718698D01*
X206492568Y-77609750D01*
X205934122Y-77609750D01*
X205386406Y-77718698D01*
X204870469Y-77932406D01*
X204406138Y-78242662D01*
X204011257Y-78637543D01*
X203701001Y-79101874D01*
X203487293Y-79617811D01*
X203378345Y-80165527D01*
X60601382Y-80165527D01*
X60492434Y-79617811D01*
X60278726Y-79101874D01*
X59968470Y-78637543D01*
X59573589Y-78242662D01*
X59109258Y-77932406D01*
X58593321Y-77718698D01*
X58045605Y-77609750D01*
X57487159Y-77609750D01*
X56939443Y-77718698D01*
X56423506Y-77932406D01*
X55959175Y-78242662D01*
X55564294Y-78637543D01*
X55254038Y-79101874D01*
X55040330Y-79617811D01*
X54931382Y-80165527D01*
X54476382Y-80165527D01*
X54476382Y-61415527D01*
X54931382Y-61415527D01*
X54931382Y-61973973D01*
X55040330Y-62521689D01*
X55254038Y-63037626D01*
X55564294Y-63501957D01*
X55959175Y-63896838D01*
X56423506Y-64207094D01*
X56939443Y-64420802D01*
X57487159Y-64529750D01*
X58045605Y-64529750D01*
X58593321Y-64420802D01*
X59109258Y-64207094D01*
X59573589Y-63896838D01*
X59968470Y-63501957D01*
X60278726Y-63037626D01*
X60492434Y-62521689D01*
X60601382Y-61973973D01*
X60601382Y-61415527D01*
X203378345Y-61415527D01*
X203378345Y-61973973D01*
X203487293Y-62521689D01*
X203701001Y-63037626D01*
X204011257Y-63501957D01*
X204406138Y-63896838D01*
X204870469Y-64207094D01*
X205386406Y-64420802D01*
X205934122Y-64529750D01*
X206492568Y-64529750D01*
X207040284Y-64420802D01*
X207556221Y-64207094D01*
X208020552Y-63896838D01*
X208415433Y-63501957D01*
X208725689Y-63037626D01*
X208939397Y-62521689D01*
X209048345Y-61973973D01*
X209048345Y-61415527D01*
X351825309Y-61415527D01*
X351825309Y-61973973D01*
X351934257Y-62521689D01*
X352147965Y-63037626D01*
X352458221Y-63501957D01*
X352853102Y-63896838D01*
X353317433Y-64207094D01*
X353833370Y-64420802D01*
X354381086Y-64529750D01*
X354939532Y-64529750D01*
X355487248Y-64420802D01*
X356003185Y-64207094D01*
X356467516Y-63896838D01*
X356862397Y-63501957D01*
X357172653Y-63037626D01*
X357386361Y-62521689D01*
X357495309Y-61973973D01*
X357495309Y-61415527D01*
X357386361Y-60867811D01*
X357172653Y-60351874D01*
X356862397Y-59887543D01*
X356467516Y-59492662D01*
X356003185Y-59182406D01*
X355487248Y-58968698D01*
X354939532Y-58859750D01*
X354381086Y-58859750D01*
X353833370Y-58968698D01*
X353317433Y-59182406D01*
X352853102Y-59492662D01*
X352458221Y-59887543D01*
X352147965Y-60351874D01*
X351934257Y-60867811D01*
X351825309Y-61415527D01*
X209048345Y-61415527D01*
X208939397Y-60867811D01*
X208725689Y-60351874D01*
X208415433Y-59887543D01*
X208020552Y-59492662D01*
X207556221Y-59182406D01*
X207040284Y-58968698D01*
X206492568Y-58859750D01*
X205934122Y-58859750D01*
X205386406Y-58968698D01*
X204870469Y-59182406D01*
X204406138Y-59492662D01*
X204011257Y-59887543D01*
X203701001Y-60351874D01*
X203487293Y-60867811D01*
X203378345Y-61415527D01*
X60601382Y-61415527D01*
X60492434Y-60867811D01*
X60278726Y-60351874D01*
X59968470Y-59887543D01*
X59573589Y-59492662D01*
X59109258Y-59182406D01*
X58593321Y-58968698D01*
X58045605Y-58859750D01*
X57487159Y-58859750D01*
X56939443Y-58968698D01*
X56423506Y-59182406D01*
X55959175Y-59492662D01*
X55564294Y-59887543D01*
X55254038Y-60351874D01*
X55040330Y-60867811D01*
X54931382Y-61415527D01*
X54476382Y-61415527D01*
X54476382Y-61036528D01*
X54529181Y-60498036D01*
X54675490Y-60013442D01*
X54913131Y-59566501D01*
X55233059Y-59174232D01*
X55623092Y-58851570D01*
X56068357Y-58610816D01*
X56551912Y-58461130D01*
X57088338Y-58404750D01*
X355318531Y-58404750D01*
X355857023Y-58457549D01*
M02*
