<?xml version="1.0" encoding="UTF-8" standalone="no"?>
<!-- Created with Inkscape (http://www.inkscape.org/) -->

<svg
   xmlns:dc="http://purl.org/dc/elements/1.1/"
   xmlns:cc="http://creativecommons.org/ns#"
   xmlns:rdf="http://www.w3.org/1999/02/22-rdf-syntax-ns#"
   xmlns:svg="http://www.w3.org/2000/svg"
   xmlns="http://www.w3.org/2000/svg"
   xmlns:sodipodi="http://sodipodi.sourceforge.net/DTD/sodipodi-0.dtd"
   xmlns:inkscape="http://www.inkscape.org/namespaces/inkscape"
   version="1.1"
   id="svg6875"
   xml:space="preserve"
   width="309.091mm"
   height="252.92201mm"
   viewBox="0 0 1168.218 955.92568"
   sodipodi:docname="discipline-plate.svg"
   inkscape:version="0.92.4 (5da689c313, 2019-01-14)"
   inkscape:export-filename="C:\Users\sendy\Projects\discipline\acrylic-plate\discipline-plate.png"
   inkscape:export-xdpi="96"
   inkscape:export-ydpi="96"><metadata
     id="metadata6881"><rdf:RDF><cc:Work
         rdf:about=""><dc:format>image/svg+xml</dc:format><dc:type
           rdf:resource="http://purl.org/dc/dcmitype/StillImage" /><dc:title /></cc:Work></rdf:RDF></metadata><defs
     id="defs6879"><marker
       style="overflow:visible"
       refY="0"
       refX="0"
       orient="auto"
       id="DistanceX"><path
         id="path8313"
         style="stroke:#000000;stroke-width:0.5"
         d="M 3,-3 -3,3 M 0,-5 V 5"
         inkscape:connector-curvature="0" /></marker><pattern
       y="0"
       x="0"
       width="8"
       patternUnits="userSpaceOnUse"
       id="Hatch"
       height="8"><path
         id="path8316"
         stroke-width="0.25"
         stroke="#000000"
         linecap="square"
         d="M8 4 l-4,4" /><path
         id="path8318"
         stroke-width="0.25"
         stroke="#000000"
         linecap="square"
         d="M6 2 l-4,4" /><path
         id="path8320"
         stroke-width="0.25"
         stroke="#000000"
         linecap="square"
         d="M4 0 l-4,4" /></pattern><symbol
       id="PART__FEATURE"><path
         id="path8323"
         style="fill:none;stroke:#000000"
         d="m 250.70553,1407.7564 a 4.1574805,4.1574805 0 1 0 -8.31496,0 4.1574805,4.1574805 0 1 0 8.31496,0 z"
         inkscape:connector-curvature="0" /><path
         id="path8325"
         style="fill:none;stroke:#000000"
         d="m 250.70553,1338.509 a 4.1574805,4.1574805 0 1 0 -8.31496,0 4.1574805,4.1574805 0 1 0 8.31496,0 z"
         inkscape:connector-curvature="0" /><path
         id="path8327"
         style="fill:none;stroke:#000000"
         d="m 1367.6117,1407.7564 a 4.1575,4.1575 0 1 0 -8.315,0 4.1575,4.1575 0 1 0 8.315,0 z"
         inkscape:connector-curvature="0" /><path
         id="path8329"
         style="fill:none;stroke:#000000"
         d="m 1367.6117,1338.509 a 4.1575,4.1575 0 1 0 -8.315,0 4.1575,4.1575 0 1 0 8.315,0 z"
         inkscape:connector-curvature="0" /><path
         id="path8331"
         style="fill:none;stroke:#000000"
         d="m 228.82362,1335.116 -2.5e-4,76.1101"
         inkscape:connector-curvature="0" /><path
         id="path8333"
         style="fill:none;stroke:#000000"
         d="m 241.32274,1322.6169 a 12.499121,12.499121 0 0 0 -12.49912,12.4991"
         inkscape:connector-curvature="0" /><path
         id="path8335"
         style="fill:none;stroke:#000000"
         d="M 1368.6795,1322.6169 H 241.32274"
         inkscape:connector-curvature="0" /><path
         id="path8337"
         style="fill:none;stroke:#000000"
         d="m 1381.1786,1335.116 a 12.499121,12.499121 0 0 0 -12.4991,-12.4991"
         inkscape:connector-curvature="0" /><path
         id="path8339"
         style="fill:none;stroke:#000000"
         d="M 1381.1813,1411.3709 V 1335.116"
         inkscape:connector-curvature="0" /><path
         id="path8341"
         style="fill:none;stroke:#000000"
         d="m 1368.6821,1423.87 a 12.499121,12.499121 0 0 0 12.4992,-12.4991"
         inkscape:connector-curvature="0" /><path
         id="path8343"
         style="fill:none;stroke:#000000"
         d="M 241.33383,1423.7139 1368.6821,1423.87"
         inkscape:connector-curvature="0" /><path
         id="path8345"
         style="fill:none;stroke:#000000"
         d="m 228.82337,1411.2261 a 12.499126,12.499126 0 0 0 12.51046,12.4878"
         inkscape:connector-curvature="0" /></symbol></defs><sodipodi:namedview
     pagecolor="#ffffff"
     bordercolor="#666666"
     borderopacity="1"
     objecttolerance="10"
     gridtolerance="10"
     guidetolerance="10"
     inkscape:pageopacity="0"
     inkscape:pageshadow="2"
     inkscape:window-width="1920"
     inkscape:window-height="1027"
     id="namedview6877"
     showgrid="false"
     showguides="true"
     inkscape:guide-bbox="true"
     units="mm"
     fit-margin-top="2"
     fit-margin-left="2"
     fit-margin-right="2"
     fit-margin-bottom="2"
     inkscape:zoom="2"
     inkscape:cx="217.0423"
     inkscape:cy="166.08918"
     inkscape:window-x="-8"
     inkscape:window-y="-8"
     inkscape:window-maximized="1"
     inkscape:current-layer="g6883"
     inkscape:snap-global="true"><sodipodi:guide
       position="297.69197,42.161249"
       orientation="1,0"
       id="guide34512"
       inkscape:locked="false" /><sodipodi:guide
       position="307.3263,15.37958"
       orientation="1,0"
       id="guide34514"
       inkscape:locked="false" /><sodipodi:guide
       position="266.66766,22.892589"
       orientation="1,0"
       id="guide34516"
       inkscape:locked="false" /><sodipodi:guide
       position="276.50086,5.2149196"
       orientation="1,0"
       id="guide34518"
       inkscape:locked="false" /></sodipodi:namedview><g
     id="g6883"
     inkscape:groupmode="layer"
     inkscape:label="middle-plate"
     transform="matrix(0.0096,0,0,-0.0096,-30.236209,1110.8862)"><g
       id="g6885"
       transform="translate(29356.543,79607.993)"
       style="stroke:#ff0000;stroke-opacity:1" /><path
       style="fill:none;stroke:#ff0000;stroke-width:0.18897652mm"
       d="M 476.45703 885.55273 L 476.45703 903.31641 L 326.69727 903.31641 L 326.69727 891.10938 L 320.17773 891.10938 L 320.17773 887.62891 L 307.70508 887.62891 L 307.70508 891.10938 L 301.18555 891.10938 L 301.18555 903.31641 L 298.06641 903.31641 L 298.06641 913.90039 L 301.18555 913.90039 L 301.18555 937.59375 L 307.70508 937.59375 L 307.70508 941.30078 L 320.17773 941.30078 L 320.17773 937.59375 L 326.69727 937.59375 L 326.69727 920.69922 L 476.45703 920.69922 L 476.45703 938.4668 L 529.375 938.4668 L 529.375 920.69922 L 679.13867 920.69922 L 679.13867 937.59375 L 685.6582 937.59375 L 685.6582 941.30078 L 698.13086 941.30078 L 698.13086 937.59375 L 704.65039 937.59375 L 704.65039 913.90039 L 707.76758 913.90039 L 707.76758 903.31641 L 704.65039 903.31641 L 704.65039 891.10938 L 698.13086 891.10938 L 698.13086 887.62891 L 685.6582 887.62891 L 685.6582 891.10938 L 679.13867 891.10938 L 679.13867 903.31641 L 587.72852 903.31641 A 7.2741252 7.2741141 0 0 0 591.375 897.02148 A 7.2741252 7.2741141 0 0 0 584.10156 889.74609 A 7.2741252 7.2741141 0 0 0 576.82812 897.02148 A 7.2741252 7.2741141 0 0 0 580.46875 903.31641 L 529.375 903.31641 L 529.375 885.55273 L 476.45703 885.55273 z "
       transform="matrix(104.16667,0,0,-104.16667,3149.6051,115717.31)"
       id="polygon7913" /><path
       style="fill:none;stroke:#ff0000;stroke-width:19.68394063mm"
       d="m 5906.1548,23472.233 v -5511.887 h 967.7038 v -0.813 h 5511.0494 v 5511.886 h -967.703 v 0.814 z"
       id="polygon7915"
       inkscape:connector-curvature="0" /><path
       style="fill:none;stroke:#ff0000;stroke-width:0.18897652mm"
       d="m 116.46094,885.55273 v 52.91407 h 27.42383 25.48828 27.42578 v -52.91407 h -27.42578 -25.48828 z"
       transform="matrix(104.16667,0,0,-104.16667,3149.6057,115717.31)"
       id="polygon7917"
       inkscape:connector-curvature="0" /><path
       style="fill:none;stroke:#ff0000;stroke-width:0.18897652mm"
       d="m 206.46289,885.55273 v 52.91407 h 47.37109 v 2.83008 h 12.48438 v -3.71876 h 6.74805 v -23.66601 h 3.13867 v -10.61328 h -3.13867 v -12.18945 h -6.70703 v -3.51172 H 259.375 v -2.04493 z"
       transform="matrix(104.16667,0,0,-104.16667,3149.6057,115717.31)"
       id="polygon7919"
       inkscape:connector-curvature="0" /><polygon
       points="212.026,97.726 212.026,83.726 198.026,83.726 198.026,97.726 "
       style="fill:none;stroke:#ff0000;stroke-width:0;stroke-miterlimit:4;stroke-dasharray:none"
       id="polygon7921"
       transform="matrix(393.70142,0,0,-393.70079,2005.6816,56435.174)" /><polygon
       points="269.176,97.726 269.176,83.726 255.176,83.726 255.176,97.726 "
       style="fill:none;stroke:#ff0000;stroke-width:0.05mm"
       id="polygon7927"
       transform="matrix(393.70142,0,0,-393.70079,2005.6816,56435.174)" /><polygon
       points="288.226,97.726 288.226,83.726 274.226,83.726 274.226,97.726 "
       style="fill:none;stroke:#ff0000;stroke-width:0.05mm"
       id="polygon7929"
       transform="matrix(393.70142,0,0,-393.70079,2005.6816,56435.174)" /><polygon
       points="307.276,97.726 307.276,83.726 293.276,83.726 293.276,97.726 "
       style="fill:none;stroke:#ff0000;stroke-width:0.05mm"
       id="polygon7931"
       transform="matrix(393.70142,0,0,-393.70079,2005.6816,56435.174)" /><polygon
       points="41.707,78.446 41.707,72.176 42.532,72.176 42.532,69.376 41.707,69.376 41.707,66.146 39.982,66.146 39.982,65.225 36.682,65.225 36.682,66.146 34.957,66.146 34.957,69.376 33.432,69.376 33.432,64.676 19.432,64.676 19.432,69.376 17.907,69.376 17.907,66.146 16.182,66.146 16.182,65.225 12.882,65.225 12.882,66.146 11.157,66.146 11.157,69.376 10.332,69.376 10.332,72.176 11.157,72.176 11.157,78.446 12.882,78.446 12.882,79.426 16.182,79.426 16.182,78.446 17.907,78.446 17.907,73.976 19.432,73.976 19.432,78.676 33.432,78.676 33.432,73.976 34.957,73.976 34.957,78.446 36.682,78.446 36.682,79.426 39.982,79.426 39.982,78.446 "
       style="fill:none;stroke:#ff0000;stroke-width:0.05mm"
       id="polygon7933"
       transform="matrix(393.70142,0,0,-393.70079,2005.6816,56435.174)" /><polygon
       points="64.388,78.676 64.388,64.676 50.388,64.676 50.388,78.676 "
       style="fill:none;stroke:#ff0000;stroke-width:0.05mm"
       id="polygon7935"
       transform="matrix(393.70142,0,0,-393.70079,2005.6816,56435.174)" /><polygon
       points="83.438,78.676 83.438,64.676 69.438,64.676 69.438,78.676 "
       style="fill:none;stroke:#ff0000;stroke-width:0.05mm"
       id="polygon7937"
       transform="matrix(393.70142,0,0,-393.70079,2005.6816,56435.174)" /><polygon
       points="102.488,78.676 102.488,64.676 88.488,64.676 88.488,78.676 "
       style="fill:none;stroke:#ff0000;stroke-width:0.05mm"
       id="polygon7939"
       transform="matrix(393.70142,0,0,-393.70079,2005.6816,56435.174)" /><polygon
       points="121.538,78.676 121.538,64.676 107.538,64.676 107.538,78.676 "
       style="fill:none;stroke:#ff0000;stroke-width:0.05mm"
       id="polygon7941"
       transform="matrix(393.70142,0,0,-393.70079,2005.6816,56435.174)" /><polygon
       points="140.588,78.676 140.588,64.676 126.588,64.676 126.588,78.676 "
       style="fill:none;stroke:#ff0000;stroke-width:0.05mm"
       id="polygon7943"
       transform="matrix(393.70142,0,0,-393.70079,2005.6816,56435.174)" /><polygon
       points="159.638,78.676 159.638,64.676 145.638,64.676 145.638,78.676 "
       style="fill:none;stroke:#ff0000;stroke-width:0.05mm"
       id="polygon7945"
       transform="matrix(393.70142,0,0,-393.70079,2005.6816,56435.174)" /><polygon
       points="178.688,78.676 178.688,64.676 164.688,64.676 164.688,78.676 "
       style="fill:none;stroke:#ff0000;stroke-width:0.05mm"
       id="polygon7947"
       transform="matrix(393.70142,0,0,-393.70079,2005.6816,56435.174)" /><polygon
       points="197.738,78.676 197.738,64.676 183.738,64.676 183.738,78.676 "
       style="fill:none;stroke:#ff0000;stroke-width:0.05mm"
       id="polygon7949"
       transform="matrix(393.70142,0,0,-393.70079,2005.6816,56435.174)" /><polygon
       points="216.788,78.676 216.788,64.676 202.788,64.676 202.788,78.676 "
       style="fill:none;stroke:#ff0000;stroke-width:0.05mm"
       id="polygon7951"
       transform="matrix(393.70142,0,0,-393.70079,2005.6816,56435.174)" /><polygon
       points="235.838,78.676 235.838,64.676 221.838,64.676 221.838,78.676 "
       style="fill:none;stroke:#ff0000;stroke-width:0.05mm"
       id="polygon7953"
       transform="matrix(393.70142,0,0,-393.70079,2005.6816,56435.174)" /><polygon
       points="262.032,78.676 262.032,64.676 248.032,64.676 248.032,78.676 "
       style="fill:none;stroke:#ff0000;stroke-width:0.05mm"
       id="polygon7955"
       transform="matrix(393.70142,0,0,-393.70079,2005.6816,56435.174)" /><polygon
       points="288.226,78.676 288.226,64.676 274.226,64.676 274.226,78.676 "
       style="fill:none;stroke:#ff0000;stroke-width:0.05mm"
       id="polygon7957"
       transform="matrix(393.70142,0,0,-393.70079,2005.6816,56435.174)" /><polygon
       points="307.276,78.676 307.276,64.676 293.276,64.676 293.276,78.676 "
       style="fill:none;stroke:#ff0000;stroke-width:0.05mm"
       id="polygon7959"
       transform="matrix(393.70142,0,0,-393.70079,2005.6816,56435.174)" /><polygon
       points="284.594,59.395 284.594,53.126 285.419,53.126 285.419,50.326 284.594,50.326 284.594,47.096 282.869,47.096 282.869,46.176 279.569,46.176 279.569,47.096 277.844,47.096 277.844,50.326 276.319,50.326 276.319,45.626 262.319,45.626 262.319,50.326 260.794,50.326 260.794,47.096 259.068,47.096 259.068,46.176 255.769,46.176 255.769,47.096 254.044,47.096 254.044,50.326 253.219,50.326 253.219,53.126 254.044,53.126 254.044,59.395 255.769,59.395 255.769,60.376 259.068,60.376 259.068,59.395 260.794,59.395 260.794,54.926 262.319,54.926 262.319,59.626 276.319,59.626 276.319,54.926 277.844,54.926 277.844,59.395 279.569,59.395 279.569,60.376 282.869,60.376 282.869,59.395 "
       style="fill:none;stroke:#ff0000;stroke-width:0.05mm"
       id="polygon7961"
       transform="matrix(393.70142,0,0,-393.70079,2005.6816,56435.174)" /><polygon
       points="28.669,59.626 28.669,45.626 14.669,45.626 14.669,59.626 "
       style="fill:none;stroke:#ff0000;stroke-width:0.05mm"
       id="polygon7963"
       transform="matrix(393.70142,0,0,-393.70079,2005.6816,56435.174)" /><polygon
       points="54.863,59.626 54.863,45.626 40.863,45.626 40.863,59.626 "
       style="fill:none;stroke:#ff0000;stroke-width:0.05mm"
       id="polygon7965"
       transform="matrix(393.70142,0,0,-393.70079,2005.6816,56435.174)" /><polygon
       points="73.913,59.626 73.913,45.626 59.913,45.626 59.913,59.626 "
       style="fill:none;stroke:#ff0000;stroke-width:0.05mm"
       id="polygon7967"
       transform="matrix(393.70142,0,0,-393.70079,2005.6816,56435.174)" /><polygon
       points="92.963,59.626 92.963,45.626 78.963,45.626 78.963,59.626 "
       style="fill:none;stroke:#ff0000;stroke-width:0.05mm"
       id="polygon7969"
       transform="matrix(393.70142,0,0,-393.70079,2005.6816,56435.174)" /><polygon
       points="112.013,59.626 112.013,45.626 98.013,45.626 98.013,59.626 "
       style="fill:none;stroke:#ff0000;stroke-width:0.05mm"
       id="polygon7971"
       transform="matrix(393.70142,0,0,-393.70079,2005.6816,56435.174)" /><polygon
       points="131.063,59.626 131.063,45.626 117.063,45.626 117.063,59.626 "
       style="fill:none;stroke:#ff0000;stroke-width:0.05mm"
       id="polygon7973"
       transform="matrix(393.70142,0,0,-393.70079,2005.6816,56435.174)" /><polygon
       points="150.113,59.626 150.113,45.626 136.113,45.626 136.113,59.626 "
       style="fill:none;stroke:#ff0000;stroke-width:0.05mm"
       id="polygon7975"
       transform="matrix(393.70142,0,0,-393.70079,2005.6816,56435.174)" /><polygon
       points="169.163,59.626 169.163,45.626 155.163,45.626 155.163,59.626 "
       style="fill:none;stroke:#ff0000;stroke-width:0.05mm"
       id="polygon7977"
       transform="matrix(393.70142,0,0,-393.70079,2005.6816,56435.174)" /><polygon
       points="188.213,59.626 188.213,45.626 174.213,45.626 174.213,59.626 "
       style="fill:none;stroke:#ff0000;stroke-width:0.05mm"
       id="polygon7979"
       transform="matrix(393.70142,0,0,-393.70079,2005.6816,56435.174)" /><polygon
       points="207.263,59.626 207.263,45.626 193.263,45.626 193.263,59.626 "
       style="fill:none;stroke:#ff0000;stroke-width:0.05mm"
       id="polygon7981"
       transform="matrix(393.70142,0,0,-393.70079,2005.6816,56435.174)" /><polygon
       points="226.313,59.626 226.313,45.626 212.313,45.626 212.313,59.626 "
       style="fill:none;stroke:#ff0000;stroke-width:0.05mm"
       id="polygon7983"
       transform="matrix(393.70142,0,0,-393.70079,2005.6816,56435.174)" /><polygon
       points="245.363,59.626 245.363,45.626 231.363,45.626 231.363,59.626 "
       style="fill:none;stroke:#ff0000;stroke-width:0.05mm"
       id="polygon7985"
       transform="matrix(393.70142,0,0,-393.70079,2005.6816,56435.174)" /><polygon
       points="307.276,59.626 307.276,45.626 293.276,45.626 293.276,59.626 "
       style="fill:none;stroke:#ff0000;stroke-width:0.05mm"
       id="polygon7987"
       transform="matrix(393.70142,0,0,-393.70079,2005.6816,56435.174)" /><polygon
       points="26.288,40.576 26.288,26.576 12.288,26.576 12.288,40.576 "
       style="fill:none;stroke:#ff0000;stroke-width:0.05mm"
       id="polygon7989"
       transform="matrix(393.70142,0,0,-393.70079,2005.6816,56435.174)" /><polygon
       points="50.101,40.576 50.101,26.576 36.101,26.576 36.101,40.576 "
       style="fill:none;stroke:#ff0000;stroke-width:0.05mm"
       id="polygon7991"
       transform="matrix(393.70142,0,0,-393.70079,2005.6816,56435.174)" /><polygon
       points="69.151,40.576 69.151,26.576 55.151,26.576 55.151,40.576 "
       style="fill:none;stroke:#ff0000;stroke-width:0.05mm"
       id="polygon7993"
       transform="matrix(393.70142,0,0,-393.70079,2005.6816,56435.174)" /><polygon
       points="88.201,40.576 88.201,26.576 74.201,26.576 74.201,40.576 "
       style="fill:none;stroke:#ff0000;stroke-width:0.05mm"
       id="polygon7995"
       transform="matrix(393.70142,0,0,-393.70079,2005.6816,56435.174)" /><polygon
       points="107.251,40.576 107.251,26.576 93.251,26.576 93.251,40.576 "
       style="fill:none;stroke:#ff0000;stroke-width:0.05mm"
       id="polygon7997"
       transform="matrix(393.70142,0,0,-393.70079,2005.6816,56435.174)" /><polygon
       points="126.301,40.576 126.301,26.576 112.301,26.576 112.301,40.576 "
       style="fill:none;stroke:#ff0000;stroke-width:0.05mm"
       id="polygon7999"
       transform="matrix(393.70142,0,0,-393.70079,2005.6816,56435.174)" /><polygon
       points="145.351,40.576 145.351,26.576 131.351,26.576 131.351,40.576 "
       style="fill:none;stroke:#ff0000;stroke-width:0.05mm"
       id="polygon8001"
       transform="matrix(393.70142,0,0,-393.70079,2005.6816,56435.174)" /><polygon
       points="164.401,40.576 164.401,26.576 150.401,26.576 150.401,40.576 "
       style="fill:none;stroke:#ff0000;stroke-width:0.05mm"
       id="polygon8003"
       transform="matrix(393.70142,0,0,-393.70079,2005.6816,56435.174)" /><polygon
       points="183.451,40.576 183.451,26.576 169.451,26.576 169.451,40.576 "
       style="fill:none;stroke:#ff0000;stroke-width:0.05mm"
       id="polygon8005"
       transform="matrix(393.70142,0,0,-393.70079,2005.6816,56435.174)" /><polygon
       points="202.501,40.576 202.501,26.576 188.501,26.576 188.501,40.576 "
       style="fill:none;stroke:#ff0000;stroke-width:0.05mm"
       id="polygon8007"
       transform="matrix(393.70142,0,0,-393.70079,2005.6816,56435.174)" /><polygon
       points="221.551,40.576 221.551,26.576 207.551,26.576 207.551,40.576 "
       style="fill:none;stroke:#ff0000;stroke-width:0.05mm"
       id="polygon8009"
       transform="matrix(393.70142,0,0,-393.70079,2005.6816,56435.174)" /><polygon
       points="240.601,40.576 240.601,26.576 226.601,26.576 226.601,40.576 "
       style="fill:none;stroke:#ff0000;stroke-width:0.05mm"
       id="polygon8011"
       transform="matrix(393.70142,0,0,-393.70079,2005.6816,56435.174)" /><polygon
       points="259.65,40.576 259.65,26.576 245.651,26.576 245.651,40.576 "
       style="fill:none;stroke:#ff0000;stroke-width:0.05mm"
       id="polygon8013"
       transform="matrix(393.70142,0,0,-393.70079,2005.6816,56435.174)" /><polygon
       points="283.463,40.576 283.463,26.576 269.463,26.576 269.463,40.576 "
       style="fill:none;stroke:#ff0000;stroke-width:0.05mm"
       id="polygon8015"
       transform="matrix(393.70142,0,0,-393.70079,2005.6816,56435.174)" /><polygon
       points="307.276,40.576 307.276,26.576 293.276,26.576 293.276,40.576 "
       style="fill:none;stroke:#ff0000;stroke-width:0.05mm"
       id="polygon8017"
       transform="matrix(393.70142,0,0,-393.70079,2005.6816,56435.174)" /><polygon
       points="286.976,21.296 286.976,15.026 287.801,15.026 287.801,12.226 286.976,12.226 286.976,8.996 285.251,8.996 285.251,8.075 281.951,8.075 281.951,8.996 280.226,8.996 280.226,12.226 278.701,12.226 278.701,7.526 264.701,7.526 264.701,12.226 263.176,12.226 263.176,8.996 261.451,8.996 261.451,8.075 258.15,8.075 258.15,8.996 256.426,8.996 256.426,12.226 255.601,12.226 255.601,15.026 256.426,15.026 256.426,21.296 258.15,21.296 258.15,22.276 261.451,22.276 261.451,21.296 263.176,21.296 263.176,16.826 264.701,16.826 264.701,21.526 278.701,21.526 278.701,16.826 280.226,16.826 280.226,21.296 281.951,21.296 281.951,22.276 285.251,22.276 285.251,21.296 "
       style="fill:none;stroke:#ff0000;stroke-width:0.05mm"
       id="polygon8019"
       transform="matrix(393.70142,0,0,-393.70079,2005.6816,56435.174)" /><polygon
       points="21.526,21.526 21.526,7.526 7.526,7.526 7.526,21.526 "
       style="fill:none;stroke:#ff0000;stroke-width:0.05mm"
       id="polygon8021"
       transform="matrix(393.70142,0,0,-393.70079,2005.6816,56435.174)" /><polygon
       points="40.576,21.526 40.576,7.526 26.576,7.526 26.576,21.526 "
       style="fill:none;stroke:#ff0000;stroke-width:0.05mm"
       id="polygon8023"
       transform="matrix(393.70142,0,0,-393.70079,2005.6816,56435.174)" /><polygon
       points="59.626,21.526 59.626,7.526 45.626,7.526 45.626,21.526 "
       style="fill:none;stroke:#ff0000;stroke-width:0.05mm"
       id="polygon8025"
       transform="matrix(393.70142,0,0,-393.70079,2005.6816,56435.174)" /><polygon
       points="78.676,21.526 78.676,7.526 64.676,7.526 64.676,21.526 "
       style="fill:none;stroke:#ff0000;stroke-width:0.05mm"
       id="polygon8027"
       transform="matrix(393.70142,0,0,-393.70079,2005.6816,56435.174)" /><polygon
       points="97.726,21.526 97.726,7.526 83.726,7.526 83.726,21.526 "
       style="fill:none;stroke:#ff0000;stroke-width:0.05mm"
       id="polygon8029"
       transform="matrix(393.70142,0,0,-393.70079,2005.6816,56435.174)" /><polygon
       points="116.775,21.526 116.775,7.526 102.775,7.526 102.775,21.526 "
       style="fill:none;stroke:#ff0000;stroke-width:0.05mm"
       id="polygon8031"
       transform="matrix(393.70142,0,0,-393.70079,2005.6816,56435.174)" /><polygon
       points="135.826,21.526 135.826,7.526 121.825,7.526 121.825,21.526 "
       style="fill:none;stroke:#ff0000;stroke-width:0.05mm"
       id="polygon8033"
       transform="matrix(393.70142,0,0,-393.70079,2005.6816,56435.174)" /><polygon
       points="154.876,21.526 154.876,7.526 140.876,7.526 140.876,21.526 "
       style="fill:none;stroke:#ff0000;stroke-width:0.05mm"
       id="polygon8035"
       transform="matrix(393.70142,0,0,-393.70079,2005.6816,56435.174)" /><polygon
       points="173.926,21.526 173.926,7.526 159.926,7.526 159.926,21.526 "
       style="fill:none;stroke:#ff0000;stroke-width:0.05mm"
       id="polygon8037"
       transform="matrix(393.70142,0,0,-393.70079,2005.6816,56435.174)" /><polygon
       points="192.976,21.526 192.976,7.526 178.976,7.526 178.976,21.526 "
       style="fill:none;stroke:#ff0000;stroke-width:0.05mm"
       id="polygon8039"
       transform="matrix(393.70142,0,0,-393.70079,2005.6816,56435.174)" /><polygon
       points="212.026,21.526 212.026,7.526 198.026,7.526 198.026,21.526 "
       style="fill:none;stroke:#ff0000;stroke-width:0.05mm"
       id="polygon8041"
       transform="matrix(393.70142,0,0,-393.70079,2005.6816,56435.174)" /><polygon
       points="231.076,21.526 231.076,7.526 217.076,7.526 217.076,21.526 "
       style="fill:none;stroke:#ff0000;stroke-width:0.05mm"
       id="polygon8043"
       transform="matrix(393.70142,0,0,-393.70079,2005.6816,56435.174)" /><polygon
       points="250.126,21.526 250.126,7.526 236.126,7.526 236.126,21.526 "
       style="fill:none;stroke:#ff0000;stroke-width:0.05mm"
       id="polygon8045"
       transform="matrix(393.70142,0,0,-393.70079,2005.6816,56435.174)" /><polygon
       points="307.276,21.526 307.276,7.526 293.276,7.526 293.276,21.526 "
       style="fill:none;stroke:#ff0000;stroke-width:0.05mm"
       id="polygon8047"
       transform="matrix(393.70142,0,0,-393.70079,2005.6816,56435.174)" /><ellipse
       style="fill:none;fill-opacity:1;stroke:#ff0000;stroke-width:59.36275864;stroke-miterlimit:10;stroke-dasharray:none;stroke-opacity:1"
       id="path8389"
       cx="27599.652"
       cy="-46968.371"
       transform="scale(1,-1)"
       rx="757.72137"
       ry="757.72021" /><ellipse
       style="fill:none;fill-opacity:1;stroke:#ff0000;stroke-width:59.36276245;stroke-miterlimit:10;stroke-dasharray:none;stroke-opacity:1"
       id="path8389-2"
       cx="63992.789"
       cy="-46968.809"
       rx="757.72137"
       ry="757.72021"
       transform="scale(1,-1)" /><ellipse
       style="fill:none;fill-opacity:1;stroke:#ff0000;stroke-width:59.36276245;stroke-miterlimit:10;stroke-dasharray:none;stroke-opacity:1"
       id="path8389-1"
       cx="100379.34"
       cy="-46968.832"
       rx="757.72137"
       ry="757.72021"
       transform="scale(1,-1)" /><ellipse
       style="fill:none;fill-opacity:1;stroke:#ff0000;stroke-width:59.36276245;stroke-miterlimit:10;stroke-dasharray:none;stroke-opacity:1"
       id="path8389-8"
       cx="107154.05"
       cy="-24569.426"
       rx="757.72137"
       ry="757.72021"
       transform="scale(1,-1)" /><ellipse
       style="fill:none;fill-opacity:1;stroke:#ff0000;stroke-width:59.36276245;stroke-miterlimit:10;stroke-dasharray:none;stroke-opacity:1"
       id="path8389-9"
       cx="20823.402"
       cy="-24566.387"
       rx="757.72137"
       ry="757.72021"
       transform="scale(1,-1)" /><rect
       style="fill:none;fill-opacity:1;stroke:#fe0000;stroke-width:81.5149231;stroke-miterlimit:10;stroke-dasharray:none;stroke-opacity:1"
       id="rect8672"
       width="120033.05"
       height="37493.277"
       x="3977.7651"
       y="-54463.164"
       transform="scale(1,-1)"
       ry="1297.5385" /><rect
       style="fill:none;fill-opacity:1;stroke:#ff0000;stroke-width:74.375;stroke-miterlimit:4;stroke-dasharray:none;stroke-opacity:1"
       id="rect9074"
       width="20511.844"
       height="5511.8115"
       x="79968.797"
       y="-23472.174"
       transform="scale(1,-1)" /></g><g
     inkscape:groupmode="layer"
     id="layer5"
     inkscape:label="top-shield"
     transform="translate(6.1719404e-6,3.7002876e-5)"><g
       id="g8975"
       transform="matrix(0.0096,0,0,-0.0096,-30.23622,1113.0315)"><path
         inkscape:connector-curvature="0"
         id="path7025-2"
         style="fill:#ffffff;fill-opacity:1;fill-rule:nonzero;stroke:#ff0000;stroke-width:77.08333588;stroke-linecap:round;stroke-linejoin:round;stroke-miterlimit:10;stroke-dasharray:none;stroke-opacity:1"
         d="m 121715.42,106257.36 c 0,239 195,433.1 433,433.1 239,0 434,-194.1 434,-433.1 0,-238.9 -195,-433 -434,-433 -238,0 -433,194.1 -433,433 z" /><path
         inkscape:connector-curvature="0"
         id="path7025-8"
         style="fill:#ffffff;fill-opacity:1;fill-rule:nonzero;stroke:#ff0000;stroke-width:77.08333588;stroke-linecap:round;stroke-linejoin:round;stroke-miterlimit:10;stroke-dasharray:none;stroke-opacity:1"
         d="m 121721.73,113471.84 c 0,239 195,433.1 433,433.1 239,0 434,-194.1 434,-433.1 0,-238.9 -195,-433 -434,-433 -238,0 -433,194.1 -433,433 z" /><path
         inkscape:connector-curvature="0"
         id="path7025-88"
         style="fill:#ffffff;fill-opacity:1;fill-rule:nonzero;stroke:#ff0000;stroke-width:77.08333588;stroke-linecap:round;stroke-linejoin:round;stroke-miterlimit:10;stroke-dasharray:none;stroke-opacity:1"
         d="m 5373.461,113475.71 c 0,239 195,433.1 433,433.1 239,0 434,-194.1 434,-433.1 0,-238.9 -195,-433 -434,-433 -238,0 -433,194.1 -433,433 z" /><path
         inkscape:connector-curvature="0"
         id="path7025-1"
         style="fill:#ffffff;fill-opacity:1;fill-rule:nonzero;stroke:#ff0000;stroke-width:77.08333588;stroke-linecap:round;stroke-linejoin:round;stroke-miterlimit:10;stroke-dasharray:none;stroke-opacity:1"
         d="m 5377.3324,106259.59 c 0,239 195,433.1 433,433.1 239,0 434,-194.1 434,-433.1 0,-238.9 -195,-433 -434,-433 -238,0 -433,194.1 -433,433 z" /><g
         id="g8943"><rect
           style="fill:none;fill-opacity:1;stroke:#ff0000;stroke-width:69.20455933;stroke-miterlimit:4;stroke-dasharray:none;stroke-opacity:1"
           id="rect8903"
           width="120020.16"
           height="10530.008"
           x="3971.6101"
           y="-115118.78"
           transform="scale(1,-1)"
           ry="1246.561" /></g></g></g><g
     inkscape:groupmode="layer"
     id="layer6"
     inkscape:label="bottom-plate"
     transform="translate(6.1719404e-6,3.7002876e-5)"><g
       id="g8997"
       transform="matrix(0.0096,0,0,-0.0096,-30.236215,1117.5376)"><path
         inkscape:connector-curvature="0"
         id="path6939"
         style="fill:none;stroke:#ff0000;stroke-width:77.08333588;stroke-linecap:round;stroke-linejoin:round;stroke-miterlimit:10;stroke-dasharray:none;stroke-opacity:1"
         d="M 122710.77,55849.531 H 5278.7776" /><path
         inkscape:connector-curvature="0"
         id="path6941"
         style="fill:none;stroke:#ff0000;stroke-width:77.08333588;stroke-linecap:round;stroke-linejoin:round;stroke-miterlimit:10;stroke-dasharray:none;stroke-opacity:1"
         d="M 124012.77,102897.03 V 57151.531" /><path
         inkscape:connector-curvature="0"
         id="path6943"
         style="fill:none;stroke:#ff0000;stroke-width:77.08333588;stroke-linecap:round;stroke-linejoin:round;stroke-miterlimit:10;stroke-dasharray:none;stroke-opacity:1"
         d="M 5277.5776,104198.93 H 122710.77" /><path
         inkscape:connector-curvature="0"
         id="path6945"
         style="fill:none;stroke:#ff0000;stroke-width:77.08333588;stroke-linecap:round;stroke-linejoin:round;stroke-miterlimit:10;stroke-dasharray:none;stroke-opacity:1"
         d="M 3975.5776,57150.431 V 102897.03" /><path
         inkscape:connector-curvature="0"
         id="path6947"
         style="fill:none;stroke:#ff0000;stroke-width:77.08333588;stroke-linecap:round;stroke-linejoin:round;stroke-miterlimit:10;stroke-dasharray:none;stroke-opacity:1"
         d="m 124012.77,102897.03 -5,113.4 -15,112.6 -25,110.9 -34,108.4 -43,104.9 -53,100.7 -61,95.8 -69,90.2 -77,83.7 -83,76.7 -90,69.2 -96,61 -101,52.5 -105,43.4 -108,34.2 -111,24.6 -113,14.8 -113,4.9" /><path
         inkscape:connector-curvature="0"
         id="path6949"
         style="fill:none;stroke:#ff0000;stroke-width:77.08333588;stroke-linecap:round;stroke-linejoin:round;stroke-miterlimit:10;stroke-dasharray:none;stroke-opacity:1"
         d="m 122710.77,55849.531 113,5 113,14.8 111,24.6 108,34.2 105,43.4 101,52.5 96,61 90,69.2 83,76.7 77,83.7 69,90.1 61,95.8 53,100.8 43,104.9 34,108.4 25,110.8 15,112.7 5,113.4" /><path
         inkscape:connector-curvature="0"
         id="path6951"
         style="fill:none;stroke:#ff0000;stroke-width:77.08333588;stroke-linecap:round;stroke-linejoin:round;stroke-miterlimit:10;stroke-dasharray:none;stroke-opacity:1"
         d="m 3975.5776,57150.431 5.1,-114.6 15.1,-112.6 24.7,-110.8 34.4,-108.3 43.6,-104.9 52.7,-100.6 61.2,-95.7 69.3,-90 76.8,-83.6 83.9,-76.6 90.3,-69 95.9,-60.9 100.8,-52.2 105,-43.3 108.4,-34 110.9,-24.4 112.7,-14.6 112.4,-4.8" /><path
         inkscape:connector-curvature="0"
         id="path6953"
         style="fill:none;stroke:#ff0000;stroke-width:77.08333588;stroke-linecap:round;stroke-linejoin:round;stroke-miterlimit:10;stroke-dasharray:none;stroke-opacity:1"
         d="m 5277.5776,104198.93 -113.5,-4.9 -112.6,-14.8 -110.9,-24.6 -108.3,-34.2 -105,-43.4 -100.7,-52.5 -95.8,-61 -90.1,-69.2 -83.8,-76.7 -76.7,-83.7 -69.1,-90.2 -61.1,-95.8 -52.4,-100.7 -43.5,-104.9 -34.1,-108.4 -24.6,-110.9 -14.9,-112.6 -4.9,-113.4" /><path
         inkscape:connector-curvature="0"
         id="path7011"
         style="fill:#ffffff;fill-opacity:1;fill-rule:nonzero;stroke:#ff0000;stroke-width:77.08333588;stroke-linecap:round;stroke-linejoin:round;stroke-miterlimit:10;stroke-dasharray:none;stroke-opacity:1"
         d="m 112060.77,89054.431 c 0,467 380,846.4 847,846.4 467,0 846,-379.4 846,-846.4 0,-467.1 -379,-846.5 -846,-846.5 -467,0 -847,379.4 -847,846.5 z" /><path
         inkscape:connector-curvature="0"
         id="path7013"
         style="fill:#ffffff;fill-opacity:1;fill-rule:nonzero;stroke:#ff0000;stroke-width:77.08333588;stroke-linecap:round;stroke-linejoin:round;stroke-miterlimit:10;stroke-dasharray:none;stroke-opacity:1"
         d="m 63560.978,61181.931 c 0,238.9 194.1,433 433.1,433 238.9,0 433.1,-194.1 433.1,-433 0,-239 -194.2,-433.1 -433.1,-433.1 -239,0 -433.1,194.1 -433.1,433.1 z" /><path
         inkscape:connector-curvature="0"
         id="path7015"
         style="fill:#ffffff;fill-opacity:1;fill-rule:nonzero;stroke:#ff0000;stroke-width:77.08333588;stroke-linecap:round;stroke-linejoin:round;stroke-miterlimit:10;stroke-dasharray:none;stroke-opacity:1"
         d="m 63560.978,85849.231 c 0,239 194.1,433.1 433.1,433.1 238.9,0 433.1,-194.1 433.1,-433.1 0,-238.9 -194.2,-433 -433.1,-433 -239,0 -433.1,194.1 -433.1,433 z" /><path
         inkscape:connector-curvature="0"
         id="path7017"
         style="fill:#ffffff;fill-opacity:1;fill-rule:nonzero;stroke:#ff0000;stroke-width:77.08333588;stroke-linecap:round;stroke-linejoin:round;stroke-miterlimit:10;stroke-dasharray:none;stroke-opacity:1"
         d="m 99961.778,85849.231 c 0,239 194.002,433.1 432.992,433.1 239,0 433,-194.1 433,-433.1 0,-238.9 -194,-433 -433,-433 -238.99,0 -432.992,194.1 -432.992,433 z" /><path
         inkscape:connector-curvature="0"
         id="path7019"
         style="fill:#ffffff;fill-opacity:1;fill-rule:nonzero;stroke:#ff0000;stroke-width:77.08333588;stroke-linecap:round;stroke-linejoin:round;stroke-miterlimit:10;stroke-dasharray:none;stroke-opacity:1"
         d="m 27159.978,85849.231 c 0,239 194.1,433.1 433.1,433.1 238.9,0 433,-194.1 433,-433.1 0,-238.9 -194.1,-433 -433,-433 -239,0 -433.1,194.1 -433.1,433 z" /><path
         inkscape:connector-curvature="0"
         id="path7021"
         style="fill:#ffffff;fill-opacity:1;fill-rule:nonzero;stroke:#ff0000;stroke-width:77.08333588;stroke-linecap:round;stroke-linejoin:round;stroke-miterlimit:10;stroke-dasharray:none;stroke-opacity:1"
         d="m 106729.77,63469.731 c 0,239 194,433.1 433,433.1 239,0 433,-194.1 433,-433.1 0,-238.9 -194,-433 -433,-433 -239,0 -433,194.1 -433,433 z" /><path
         inkscape:connector-curvature="0"
         id="path7023"
         style="fill:#ffffff;fill-opacity:1;fill-rule:nonzero;stroke:#ff0000;stroke-width:77.08333588;stroke-linecap:round;stroke-linejoin:round;stroke-miterlimit:10;stroke-dasharray:none;stroke-opacity:1"
         d="m 20392.678,63469.731 c 0,239 194.1,433.1 433.1,433.1 239,0 433.1,-194.1 433.1,-433.1 0,-238.9 -194.1,-433 -433.1,-433 -239,0 -433.1,194.1 -433.1,433 z" /><path
         inkscape:connector-curvature="0"
         id="path7025"
         style="fill:#ffffff;fill-opacity:1;fill-rule:nonzero;stroke:#ff0000;stroke-width:77.08333588;stroke-linecap:round;stroke-linejoin:round;stroke-miterlimit:10;stroke-dasharray:none;stroke-opacity:1"
         d="m 121732.77,95330.228 c 0,239 195,433.1 433,433.1 239,0 434,-194.1 434,-433.1 0,-238.9 -195,-433 -434,-433 -238,0 -433,194.1 -433,433 z" /><path
         inkscape:connector-curvature="0"
         id="path7027"
         style="fill:#ffffff;fill-opacity:1;fill-rule:nonzero;stroke:#ff0000;stroke-width:77.08333588;stroke-linecap:round;stroke-linejoin:round;stroke-miterlimit:10;stroke-dasharray:none;stroke-opacity:1"
         d="m 121732.77,102543.53 c 0,239 195,433.1 433,433.1 239,0 434,-194.1 434,-433.1 0,-238.9 -195,-433.1 -434,-433.1 -238,0 -433,194.2 -433,433.1 z" /><path
         inkscape:connector-curvature="0"
         id="path7029"
         style="fill:#ffffff;fill-opacity:1;fill-rule:nonzero;stroke:#ff0000;stroke-width:77.08333588;stroke-linecap:round;stroke-linejoin:round;stroke-miterlimit:10;stroke-dasharray:none;stroke-opacity:1"
         d="m 5388.7776,102543.53 c 0,239 194.1,433.1 433.1,433.1 238.9,0 433.1,-194.1 433.1,-433.1 0,-238.9 -194.2,-433.1 -433.1,-433.1 -239,0 -433.1,194.2 -433.1,433.1 z" /><path
         inkscape:connector-curvature="0"
         id="path7031"
         style="fill:#ffffff;fill-opacity:1;fill-rule:nonzero;stroke:#ff0000;stroke-width:77.08333588;stroke-linecap:round;stroke-linejoin:round;stroke-miterlimit:10;stroke-dasharray:none;stroke-opacity:1"
         d="m 5388.7776,95330.228 c 0,239 194.1,433.1 433.1,433.1 238.9,0 433.1,-194.1 433.1,-433.1 0,-238.9 -194.2,-433 -433.1,-433 -239,0 -433.1,194.1 -433.1,433 z" /><path
         inkscape:connector-curvature="0"
         id="path7033"
         style="fill:#ffffff;fill-opacity:1;fill-rule:nonzero;stroke:#ff0000;stroke-width:77.08333588;stroke-linecap:round;stroke-linejoin:round;stroke-miterlimit:10;stroke-dasharray:none;stroke-opacity:1"
         d="m 14234.178,89054.431 c 0,467 379.4,846.4 846.5,846.4 467,0 846.4,-379.4 846.4,-846.4 0,-467.1 -379.4,-846.5 -846.4,-846.5 -467.1,0 -846.5,379.4 -846.5,846.5 z" /></g></g></svg>