G04 #@! TF.GenerationSoftware,KiCad,Pcbnew,(5.99.0-208-ga1d3f3486)*
G04 #@! TF.CreationDate,2019-11-19T11:23:27+07:00*
G04 #@! TF.ProjectId,discipline-pcb,64697363-6970-46c6-996e-652d7063622e,rev?*
G04 #@! TF.SameCoordinates,Original*
G04 #@! TF.FileFunction,Legend,Top*
G04 #@! TF.FilePolarity,Positive*
%FSLAX46Y46*%
G04 Gerber Fmt 4.6, Leading zero omitted, Abs format (unit mm)*
G04 Created by KiCad (PCBNEW (5.99.0-208-ga1d3f3486)) date 2019-11-19 11:23:27*
%MOMM*%
%LPD*%
G04 APERTURE LIST*
%ADD10C,0.100000*%
%ADD11C,0.120000*%
%ADD12C,0.150000*%
%ADD13C,0.075000*%
%ADD14C,0.203200*%
%ADD15C,0.200000*%
G04 APERTURE END LIST*
D10*
X275347969Y-61241179D02*
X274967017Y-61241179D01*
X274928922Y-61622132D01*
X274967017Y-61584036D01*
X275043208Y-61545941D01*
X275233684Y-61545941D01*
X275309874Y-61584036D01*
X275347969Y-61622132D01*
X275386065Y-61698322D01*
X275386065Y-61888798D01*
X275347969Y-61964989D01*
X275309874Y-62003084D01*
X275233684Y-62041179D01*
X275043208Y-62041179D01*
X274967017Y-62003084D01*
X274928922Y-61964989D01*
X275881303Y-61241179D02*
X275957493Y-61241179D01*
X276033684Y-61279275D01*
X276071779Y-61317370D01*
X276109874Y-61393560D01*
X276147969Y-61545941D01*
X276147969Y-61736417D01*
X276109874Y-61888798D01*
X276071779Y-61964989D01*
X276033684Y-62003084D01*
X275957493Y-62041179D01*
X275881303Y-62041179D01*
X275805112Y-62003084D01*
X275767017Y-61964989D01*
X275728922Y-61888798D01*
X275690827Y-61736417D01*
X275690827Y-61545941D01*
X275728922Y-61393560D01*
X275767017Y-61317370D01*
X275805112Y-61279275D01*
X275881303Y-61241179D01*
X276643208Y-61241179D02*
X276719398Y-61241179D01*
X276795589Y-61279275D01*
X276833684Y-61317370D01*
X276871779Y-61393560D01*
X276909874Y-61545941D01*
X276909874Y-61736417D01*
X276871779Y-61888798D01*
X276833684Y-61964989D01*
X276795589Y-62003084D01*
X276719398Y-62041179D01*
X276643208Y-62041179D01*
X276567017Y-62003084D01*
X276528922Y-61964989D01*
X276490827Y-61888798D01*
X276452731Y-61736417D01*
X276452731Y-61545941D01*
X276490827Y-61393560D01*
X276528922Y-61317370D01*
X276567017Y-61279275D01*
X276643208Y-61241179D01*
X277252731Y-62041179D02*
X277252731Y-61507846D01*
X277252731Y-61584036D02*
X277290827Y-61545941D01*
X277367017Y-61507846D01*
X277481303Y-61507846D01*
X277557493Y-61545941D01*
X277595589Y-61622132D01*
X277595589Y-62041179D01*
X277595589Y-61622132D02*
X277633684Y-61545941D01*
X277709874Y-61507846D01*
X277824160Y-61507846D01*
X277900350Y-61545941D01*
X277938446Y-61622132D01*
X277938446Y-62041179D01*
X278281303Y-61812608D02*
X278662255Y-61812608D01*
X278205112Y-62041179D02*
X278471779Y-61241179D01*
X278738446Y-62041179D01*
X290127979Y-74833764D02*
X290747027Y-74833764D01*
X290413693Y-75214717D01*
X290556550Y-75214717D01*
X290651789Y-75262336D01*
X290699408Y-75309955D01*
X290747027Y-75405193D01*
X290747027Y-75643288D01*
X290699408Y-75738526D01*
X290651789Y-75786145D01*
X290556550Y-75833764D01*
X290270836Y-75833764D01*
X290175598Y-75786145D01*
X290127979Y-75738526D01*
X291175598Y-75738526D02*
X291223217Y-75786145D01*
X291175598Y-75833764D01*
X291127979Y-75786145D01*
X291175598Y-75738526D01*
X291175598Y-75833764D01*
X292080360Y-74833764D02*
X291889884Y-74833764D01*
X291794646Y-74881384D01*
X291747027Y-74929003D01*
X291651789Y-75071860D01*
X291604170Y-75262336D01*
X291604170Y-75643288D01*
X291651789Y-75738526D01*
X291699408Y-75786145D01*
X291794646Y-75833764D01*
X291985122Y-75833764D01*
X292080360Y-75786145D01*
X292127979Y-75738526D01*
X292175598Y-75643288D01*
X292175598Y-75405193D01*
X292127979Y-75309955D01*
X292080360Y-75262336D01*
X291985122Y-75214717D01*
X291794646Y-75214717D01*
X291699408Y-75262336D01*
X291651789Y-75309955D01*
X291604170Y-75405193D01*
X292461312Y-74833764D02*
X292794646Y-75833764D01*
X293127979Y-74833764D01*
X287944174Y-76007063D02*
X287944174Y-75407063D01*
X288844174Y-76119563D01*
X288844174Y-75519563D01*
X288372746Y-75117777D02*
X288372746Y-74817777D01*
X288844174Y-74748134D02*
X288844174Y-75176706D01*
X287944174Y-75064206D01*
X287944174Y-74635634D01*
X288844174Y-74362420D02*
X287944174Y-74249920D01*
X288844174Y-73848134D01*
X287944174Y-73735634D01*
X288372746Y-73360634D02*
X288372746Y-73060634D01*
X288844174Y-72990991D02*
X288844174Y-73419563D01*
X287944174Y-73307063D01*
X287944174Y-72878491D01*
X288844174Y-72090991D02*
X288415603Y-72337420D01*
X288844174Y-72605277D02*
X287944174Y-72492777D01*
X287944174Y-72149920D01*
X287987032Y-72069563D01*
X288029889Y-72032063D01*
X288115603Y-71999920D01*
X288244174Y-72015991D01*
X288329889Y-72069563D01*
X288372746Y-72117777D01*
X288415603Y-72208849D01*
X288415603Y-72551706D01*
X288844174Y-71019563D02*
X287944174Y-70907063D01*
X287944174Y-70692777D01*
X287987032Y-70569563D01*
X288072746Y-70494563D01*
X288158460Y-70462420D01*
X288329889Y-70440991D01*
X288458460Y-70457063D01*
X288629889Y-70521349D01*
X288715603Y-70574920D01*
X288801317Y-70671349D01*
X288844174Y-70805277D01*
X288844174Y-71019563D01*
X288844174Y-70119563D02*
X287944174Y-70007063D01*
X287944174Y-69407063D02*
X287944174Y-69235634D01*
X287987032Y-69155277D01*
X288072746Y-69080277D01*
X288244174Y-69058849D01*
X288544174Y-69096349D01*
X288715603Y-69160634D01*
X288801317Y-69257063D01*
X288844174Y-69348134D01*
X288844174Y-69519563D01*
X288801317Y-69599920D01*
X288715603Y-69674920D01*
X288544174Y-69696349D01*
X288244174Y-69658849D01*
X288072746Y-69594563D01*
X287987032Y-69498134D01*
X287944174Y-69407063D01*
X288844174Y-68748134D02*
X287944174Y-68635634D01*
X287944174Y-68421349D01*
X287987032Y-68298134D01*
X288072746Y-68223134D01*
X288158460Y-68190991D01*
X288329889Y-68169563D01*
X288458460Y-68185634D01*
X288629889Y-68249920D01*
X288715603Y-68303491D01*
X288801317Y-68399920D01*
X288844174Y-68533849D01*
X288844174Y-68748134D01*
X288372746Y-67789206D02*
X288372746Y-67489206D01*
X288844174Y-67419563D02*
X288844174Y-67848134D01*
X287944174Y-67735634D01*
X287944174Y-67307063D01*
X288801317Y-67071349D02*
X288844174Y-66948134D01*
X288844174Y-66733849D01*
X288801317Y-66642777D01*
X288758460Y-66594563D01*
X288672746Y-66540991D01*
X288587032Y-66530277D01*
X288501317Y-66562420D01*
X288458460Y-66599920D01*
X288415603Y-66680277D01*
X288372746Y-66846349D01*
X288329889Y-66926706D01*
X288287032Y-66964206D01*
X288201317Y-66996349D01*
X288115603Y-66985634D01*
X288029889Y-66932063D01*
X287987032Y-66883849D01*
X287944174Y-66792777D01*
X287944174Y-66578491D01*
X287987032Y-66455277D01*
D11*
X292176544Y-70762296D02*
X292421516Y-70499826D01*
X293511452Y-70499442D02*
X293756424Y-70236972D01*
X289294434Y-70761912D02*
X289539406Y-70499442D01*
X290641780Y-70499442D02*
X290886752Y-70236972D01*
D12*
X234976091Y-61764204D02*
X234642757Y-61288014D01*
X234404662Y-61764204D02*
X234404662Y-60764204D01*
X234785614Y-60764204D01*
X234880852Y-60811824D01*
X234928472Y-60859443D01*
X234976091Y-60954681D01*
X234976091Y-61097538D01*
X234928472Y-61192776D01*
X234880852Y-61240395D01*
X234785614Y-61288014D01*
X234404662Y-61288014D01*
X235404662Y-61240395D02*
X235737995Y-61240395D01*
X235880852Y-61764204D02*
X235404662Y-61764204D01*
X235404662Y-60764204D01*
X235880852Y-60764204D01*
X236261805Y-61716585D02*
X236404662Y-61764204D01*
X236642757Y-61764204D01*
X236737995Y-61716585D01*
X236785614Y-61668966D01*
X236833233Y-61573728D01*
X236833233Y-61478490D01*
X236785614Y-61383252D01*
X236737995Y-61335633D01*
X236642757Y-61288014D01*
X236452281Y-61240395D01*
X236357043Y-61192776D01*
X236309424Y-61145157D01*
X236261805Y-61049919D01*
X236261805Y-60954681D01*
X236309424Y-60859443D01*
X236357043Y-60811824D01*
X236452281Y-60764204D01*
X236690376Y-60764204D01*
X236833233Y-60811824D01*
X237261805Y-61240395D02*
X237595138Y-61240395D01*
X237737995Y-61764204D02*
X237261805Y-61764204D01*
X237261805Y-60764204D01*
X237737995Y-60764204D01*
X238023710Y-60764204D02*
X238595138Y-60764204D01*
X238309424Y-61764204D02*
X238309424Y-60764204D01*
X289872080Y-54573694D02*
X289872080Y-53573694D01*
X290253032Y-53573694D01*
X290348270Y-53621314D01*
X290395889Y-53668933D01*
X290443508Y-53764171D01*
X290443508Y-53907028D01*
X290395889Y-54002266D01*
X290348270Y-54049885D01*
X290253032Y-54097504D01*
X289872080Y-54097504D01*
X291062556Y-53573694D02*
X291253032Y-53573694D01*
X291348270Y-53621314D01*
X291443508Y-53716552D01*
X291491127Y-53907028D01*
X291491127Y-54240361D01*
X291443508Y-54430837D01*
X291348270Y-54526075D01*
X291253032Y-54573694D01*
X291062556Y-54573694D01*
X290967318Y-54526075D01*
X290872080Y-54430837D01*
X290824461Y-54240361D01*
X290824461Y-53907028D01*
X290872080Y-53716552D01*
X290967318Y-53621314D01*
X291062556Y-53573694D01*
X291824461Y-53573694D02*
X292062556Y-54573694D01*
X292253032Y-53859409D01*
X292443508Y-54573694D01*
X292681604Y-53573694D01*
X293062556Y-54049885D02*
X293395889Y-54049885D01*
X293538746Y-54573694D02*
X293062556Y-54573694D01*
X293062556Y-53573694D01*
X293538746Y-53573694D01*
X294538746Y-54573694D02*
X294205413Y-54097504D01*
X293967318Y-54573694D02*
X293967318Y-53573694D01*
X294348270Y-53573694D01*
X294443508Y-53621314D01*
X294491127Y-53668933D01*
X294538746Y-53764171D01*
X294538746Y-53907028D01*
X294491127Y-54002266D01*
X294443508Y-54049885D01*
X294348270Y-54097504D01*
X293967318Y-54097504D01*
X256191330Y-59814457D02*
X256096092Y-59766837D01*
X255953235Y-59766837D01*
X255810377Y-59814457D01*
X255715139Y-59909695D01*
X255667520Y-60004933D01*
X255619901Y-60195409D01*
X255619901Y-60338266D01*
X255667520Y-60528742D01*
X255715139Y-60623980D01*
X255810377Y-60719218D01*
X255953235Y-60766837D01*
X256048473Y-60766837D01*
X256191330Y-60719218D01*
X256238949Y-60671599D01*
X256238949Y-60338266D01*
X256048473Y-60338266D01*
X256667520Y-60766837D02*
X256667520Y-59766837D01*
X257238949Y-60766837D01*
X257238949Y-59766837D01*
X257715139Y-60766837D02*
X257715139Y-59766837D01*
X257953235Y-59766837D01*
X258096092Y-59814457D01*
X258191330Y-59909695D01*
X258238949Y-60004933D01*
X258286568Y-60195409D01*
X258286568Y-60338266D01*
X258238949Y-60528742D01*
X258191330Y-60623980D01*
X258096092Y-60719218D01*
X257953235Y-60766837D01*
X257715139Y-60766837D01*
X263746008Y-55884988D02*
X263746008Y-54884988D01*
X264174579Y-55837369D02*
X264317437Y-55884988D01*
X264555532Y-55884988D01*
X264650770Y-55837369D01*
X264698389Y-55789750D01*
X264746008Y-55694512D01*
X264746008Y-55599274D01*
X264698389Y-55504036D01*
X264650770Y-55456417D01*
X264555532Y-55408798D01*
X264365056Y-55361179D01*
X264269818Y-55313560D01*
X264222199Y-55265941D01*
X264174579Y-55170703D01*
X264174579Y-55075465D01*
X264222199Y-54980227D01*
X264269818Y-54932608D01*
X264365056Y-54884988D01*
X264603151Y-54884988D01*
X264746008Y-54932608D01*
X265174579Y-55884988D02*
X265174579Y-54884988D01*
X265555532Y-54884988D01*
X265650770Y-54932608D01*
X265698389Y-54980227D01*
X265746008Y-55075465D01*
X265746008Y-55218322D01*
X265698389Y-55313560D01*
X265650770Y-55361179D01*
X265555532Y-55408798D01*
X265174579Y-55408798D01*
D10*
X298627744Y-169726244D02*
X298056316Y-169726244D01*
X298342030Y-169726244D02*
X298342030Y-168726244D01*
X298246792Y-168869102D01*
X298151554Y-168964340D01*
X298056316Y-169011959D01*
X299056316Y-168726244D02*
X299056316Y-169535768D01*
X299103935Y-169631006D01*
X299151554Y-169678625D01*
X299246792Y-169726244D01*
X299437268Y-169726244D01*
X299532506Y-169678625D01*
X299580125Y-169631006D01*
X299627744Y-169535768D01*
X299627744Y-168726244D01*
X279537426Y-169726244D02*
X278965998Y-169726244D01*
X279251712Y-169726244D02*
X279251712Y-168726244D01*
X279156474Y-168869102D01*
X279061236Y-168964340D01*
X278965998Y-169011959D01*
X279965998Y-168726244D02*
X279965998Y-169535768D01*
X280013617Y-169631006D01*
X280061236Y-169678625D01*
X280156474Y-169726244D01*
X280346950Y-169726244D01*
X280442188Y-169678625D01*
X280489807Y-169631006D01*
X280537426Y-169535768D01*
X280537426Y-168726244D01*
X260127184Y-169726244D02*
X259555756Y-169726244D01*
X259841470Y-169726244D02*
X259841470Y-168726244D01*
X259746232Y-168869102D01*
X259650994Y-168964340D01*
X259555756Y-169011959D01*
X260555756Y-168726244D02*
X260555756Y-169535768D01*
X260603375Y-169631006D01*
X260650994Y-169678625D01*
X260746232Y-169726244D01*
X260936708Y-169726244D01*
X261031946Y-169678625D01*
X261079565Y-169631006D01*
X261127184Y-169535768D01*
X261127184Y-168726244D01*
X75753008Y-131673693D02*
X75895866Y-131721312D01*
X76133961Y-131721312D01*
X76229199Y-131673693D01*
X76276818Y-131626074D01*
X76324437Y-131530836D01*
X76324437Y-131435598D01*
X76276818Y-131340360D01*
X76229199Y-131292741D01*
X76133961Y-131245122D01*
X75943485Y-131197503D01*
X75848247Y-131149884D01*
X75800628Y-131102265D01*
X75753008Y-131007027D01*
X75753008Y-130911789D01*
X75800628Y-130816551D01*
X75848247Y-130768932D01*
X75943485Y-130721312D01*
X76181580Y-130721312D01*
X76324437Y-130768932D01*
X76610151Y-130721312D02*
X77181580Y-130721312D01*
X76895866Y-131721312D02*
X76895866Y-130721312D01*
X77467294Y-131435598D02*
X77943485Y-131435598D01*
X77372056Y-131721312D02*
X77705389Y-130721312D01*
X78038723Y-131721312D01*
X78372056Y-131721312D02*
X78372056Y-130721312D01*
X78943485Y-131721312D01*
X78943485Y-130721312D01*
X79419675Y-131721312D02*
X79419675Y-130721312D01*
X79657770Y-130721312D01*
X79800628Y-130768932D01*
X79895866Y-130864170D01*
X79943485Y-130959408D01*
X79991104Y-131149884D01*
X79991104Y-131292741D01*
X79943485Y-131483217D01*
X79895866Y-131578455D01*
X79800628Y-131673693D01*
X79657770Y-131721312D01*
X79419675Y-131721312D01*
X80372056Y-131435598D02*
X80848247Y-131435598D01*
X80276818Y-131721312D02*
X80610151Y-130721312D01*
X80943485Y-131721312D01*
X81848247Y-131721312D02*
X81514913Y-131245122D01*
X81276818Y-131721312D02*
X81276818Y-130721312D01*
X81657770Y-130721312D01*
X81753008Y-130768932D01*
X81800628Y-130816551D01*
X81848247Y-130911789D01*
X81848247Y-131054646D01*
X81800628Y-131149884D01*
X81753008Y-131197503D01*
X81657770Y-131245122D01*
X81276818Y-131245122D01*
X82276818Y-131721312D02*
X82276818Y-130721312D01*
X82514913Y-130721312D01*
X82657770Y-130768932D01*
X82753008Y-130864170D01*
X82800628Y-130959408D01*
X82848247Y-131149884D01*
X82848247Y-131292741D01*
X82800628Y-131483217D01*
X82753008Y-131578455D01*
X82657770Y-131673693D01*
X82514913Y-131721312D01*
X82276818Y-131721312D01*
X66832952Y-131673693D02*
X66975809Y-131721312D01*
X67213904Y-131721312D01*
X67309142Y-131673693D01*
X67356761Y-131626074D01*
X67404381Y-131530836D01*
X67404381Y-131435598D01*
X67356761Y-131340360D01*
X67309142Y-131292741D01*
X67213904Y-131245122D01*
X67023428Y-131197503D01*
X66928190Y-131149884D01*
X66880571Y-131102265D01*
X66832952Y-131007027D01*
X66832952Y-130911789D01*
X66880571Y-130816551D01*
X66928190Y-130768932D01*
X67023428Y-130721312D01*
X67261523Y-130721312D01*
X67404381Y-130768932D01*
X67690095Y-130721312D02*
X68261523Y-130721312D01*
X67975809Y-131721312D02*
X67975809Y-130721312D01*
X68594857Y-131197503D02*
X68928190Y-131197503D01*
X69071047Y-131721312D02*
X68594857Y-131721312D01*
X68594857Y-130721312D01*
X69071047Y-130721312D01*
X69499619Y-131721312D02*
X69499619Y-130721312D01*
X69880571Y-130721312D01*
X69975809Y-130768932D01*
X70023428Y-130816551D01*
X70071047Y-130911789D01*
X70071047Y-131054646D01*
X70023428Y-131149884D01*
X69975809Y-131197503D01*
X69880571Y-131245122D01*
X69499619Y-131245122D01*
X70499619Y-131721312D02*
X70499619Y-130721312D01*
X70880571Y-130721312D01*
X70975809Y-130768932D01*
X71023428Y-130816551D01*
X71071047Y-130911789D01*
X71071047Y-131054646D01*
X71023428Y-131149884D01*
X70975809Y-131197503D01*
X70880571Y-131245122D01*
X70499619Y-131245122D01*
X71499619Y-131197503D02*
X71832952Y-131197503D01*
X71975809Y-131721312D02*
X71499619Y-131721312D01*
X71499619Y-130721312D01*
X71975809Y-130721312D01*
X72404381Y-131721312D02*
X72404381Y-130721312D01*
X72642476Y-130721312D01*
X72785333Y-130768932D01*
X72880571Y-130864170D01*
X72928190Y-130959408D01*
X72975809Y-131149884D01*
X72975809Y-131292741D01*
X72928190Y-131483217D01*
X72880571Y-131578455D01*
X72785333Y-131673693D01*
X72642476Y-131721312D01*
X72404381Y-131721312D01*
X292887138Y-169726244D02*
X292315709Y-169726244D01*
X292601423Y-169726244D02*
X292601423Y-168726244D01*
X292506185Y-168869102D01*
X292410947Y-168964340D01*
X292315709Y-169011959D01*
X293315709Y-169631006D02*
X293363328Y-169678625D01*
X293315709Y-169726244D01*
X293268090Y-169678625D01*
X293315709Y-169631006D01*
X293315709Y-169726244D01*
X294268090Y-168726244D02*
X293791899Y-168726244D01*
X293744280Y-169202435D01*
X293791899Y-169154816D01*
X293887138Y-169107197D01*
X294125233Y-169107197D01*
X294220471Y-169154816D01*
X294268090Y-169202435D01*
X294315709Y-169297673D01*
X294315709Y-169535768D01*
X294268090Y-169631006D01*
X294220471Y-169678625D01*
X294125233Y-169726244D01*
X293887138Y-169726244D01*
X293791899Y-169678625D01*
X293744280Y-169631006D01*
X294744280Y-168726244D02*
X294744280Y-169535768D01*
X294791899Y-169631006D01*
X294839519Y-169678625D01*
X294934757Y-169726244D01*
X295125233Y-169726244D01*
X295220471Y-169678625D01*
X295268090Y-169631006D01*
X295315709Y-169535768D01*
X295315709Y-168726244D01*
X264399734Y-169726244D02*
X263828305Y-169726244D01*
X264114019Y-169726244D02*
X264114019Y-168726244D01*
X264018781Y-168869102D01*
X263923543Y-168964340D01*
X263828305Y-169011959D01*
X264828305Y-169631006D02*
X264875924Y-169678625D01*
X264828305Y-169726244D01*
X264780686Y-169678625D01*
X264828305Y-169631006D01*
X264828305Y-169726244D01*
X265780686Y-168726244D02*
X265304495Y-168726244D01*
X265256876Y-169202435D01*
X265304495Y-169154816D01*
X265399734Y-169107197D01*
X265637829Y-169107197D01*
X265733067Y-169154816D01*
X265780686Y-169202435D01*
X265828305Y-169297673D01*
X265828305Y-169535768D01*
X265780686Y-169631006D01*
X265733067Y-169678625D01*
X265637829Y-169726244D01*
X265399734Y-169726244D01*
X265304495Y-169678625D01*
X265256876Y-169631006D01*
X266256876Y-168726244D02*
X266256876Y-169535768D01*
X266304495Y-169631006D01*
X266352115Y-169678625D01*
X266447353Y-169726244D01*
X266637829Y-169726244D01*
X266733067Y-169678625D01*
X266780686Y-169631006D01*
X266828305Y-169535768D01*
X266828305Y-168726244D01*
X102757492Y-169726244D02*
X102186063Y-169726244D01*
X102471777Y-169726244D02*
X102471777Y-168726244D01*
X102376539Y-168869102D01*
X102281301Y-168964340D01*
X102186063Y-169011959D01*
X103186063Y-169631006D02*
X103233682Y-169678625D01*
X103186063Y-169726244D01*
X103138444Y-169678625D01*
X103186063Y-169631006D01*
X103186063Y-169726244D01*
X104138444Y-168726244D02*
X103662253Y-168726244D01*
X103614634Y-169202435D01*
X103662253Y-169154816D01*
X103757492Y-169107197D01*
X103995587Y-169107197D01*
X104090825Y-169154816D01*
X104138444Y-169202435D01*
X104186063Y-169297673D01*
X104186063Y-169535768D01*
X104138444Y-169631006D01*
X104090825Y-169678625D01*
X103995587Y-169726244D01*
X103757492Y-169726244D01*
X103662253Y-169678625D01*
X103614634Y-169631006D01*
X104614634Y-168726244D02*
X104614634Y-169535768D01*
X104662253Y-169631006D01*
X104709873Y-169678625D01*
X104805111Y-169726244D01*
X104995587Y-169726244D01*
X105090825Y-169678625D01*
X105138444Y-169631006D01*
X105186063Y-169535768D01*
X105186063Y-168726244D01*
X74411272Y-169726244D02*
X73839843Y-169726244D01*
X74125557Y-169726244D02*
X74125557Y-168726244D01*
X74030319Y-168869102D01*
X73935081Y-168964340D01*
X73839843Y-169011959D01*
X74839843Y-169631006D02*
X74887462Y-169678625D01*
X74839843Y-169726244D01*
X74792224Y-169678625D01*
X74839843Y-169631006D01*
X74839843Y-169726244D01*
X75792224Y-168726244D02*
X75316033Y-168726244D01*
X75268414Y-169202435D01*
X75316033Y-169154816D01*
X75411272Y-169107197D01*
X75649367Y-169107197D01*
X75744605Y-169154816D01*
X75792224Y-169202435D01*
X75839843Y-169297673D01*
X75839843Y-169535768D01*
X75792224Y-169631006D01*
X75744605Y-169678625D01*
X75649367Y-169726244D01*
X75411272Y-169726244D01*
X75316033Y-169678625D01*
X75268414Y-169631006D01*
X76268414Y-168726244D02*
X76268414Y-169535768D01*
X76316033Y-169631006D01*
X76363653Y-169678625D01*
X76458891Y-169726244D01*
X76649367Y-169726244D01*
X76744605Y-169678625D01*
X76792224Y-169631006D01*
X76839843Y-169535768D01*
X76839843Y-168726244D01*
X118816596Y-169726244D02*
X118245168Y-169726244D01*
X118530882Y-169726244D02*
X118530882Y-168726244D01*
X118435644Y-168869102D01*
X118340406Y-168964340D01*
X118245168Y-169011959D01*
X119245168Y-169631006D02*
X119292787Y-169678625D01*
X119245168Y-169726244D01*
X119197548Y-169678625D01*
X119245168Y-169631006D01*
X119245168Y-169726244D01*
X119673739Y-168821483D02*
X119721358Y-168773864D01*
X119816596Y-168726244D01*
X120054691Y-168726244D01*
X120149929Y-168773864D01*
X120197548Y-168821483D01*
X120245168Y-168916721D01*
X120245168Y-169011959D01*
X120197548Y-169154816D01*
X119626120Y-169726244D01*
X120245168Y-169726244D01*
X121149929Y-168726244D02*
X120673739Y-168726244D01*
X120626120Y-169202435D01*
X120673739Y-169154816D01*
X120768977Y-169107197D01*
X121007072Y-169107197D01*
X121102310Y-169154816D01*
X121149929Y-169202435D01*
X121197548Y-169297673D01*
X121197548Y-169535768D01*
X121149929Y-169631006D01*
X121102310Y-169678625D01*
X121007072Y-169726244D01*
X120768977Y-169726244D01*
X120673739Y-169678625D01*
X120626120Y-169631006D01*
X121626120Y-168726244D02*
X121626120Y-169535768D01*
X121673739Y-169631006D01*
X121721358Y-169678625D01*
X121816596Y-169726244D01*
X122007072Y-169726244D01*
X122102310Y-169678625D01*
X122149929Y-169631006D01*
X122197548Y-169535768D01*
X122197548Y-168726244D01*
X94669816Y-169726244D02*
X94098388Y-169726244D01*
X94384102Y-169726244D02*
X94384102Y-168726244D01*
X94288864Y-168869102D01*
X94193626Y-168964340D01*
X94098388Y-169011959D01*
X95098388Y-169631006D02*
X95146007Y-169678625D01*
X95098388Y-169726244D01*
X95050768Y-169678625D01*
X95098388Y-169631006D01*
X95098388Y-169726244D01*
X95526959Y-168821483D02*
X95574578Y-168773864D01*
X95669816Y-168726244D01*
X95907911Y-168726244D01*
X96003149Y-168773864D01*
X96050768Y-168821483D01*
X96098388Y-168916721D01*
X96098388Y-169011959D01*
X96050768Y-169154816D01*
X95479340Y-169726244D01*
X96098388Y-169726244D01*
X97003149Y-168726244D02*
X96526959Y-168726244D01*
X96479340Y-169202435D01*
X96526959Y-169154816D01*
X96622197Y-169107197D01*
X96860292Y-169107197D01*
X96955530Y-169154816D01*
X97003149Y-169202435D01*
X97050768Y-169297673D01*
X97050768Y-169535768D01*
X97003149Y-169631006D01*
X96955530Y-169678625D01*
X96860292Y-169726244D01*
X96622197Y-169726244D01*
X96526959Y-169678625D01*
X96479340Y-169631006D01*
X97479340Y-168726244D02*
X97479340Y-169535768D01*
X97526959Y-169631006D01*
X97574578Y-169678625D01*
X97669816Y-169726244D01*
X97860292Y-169726244D01*
X97955530Y-169678625D01*
X98003149Y-169631006D01*
X98050768Y-169535768D01*
X98050768Y-168726244D01*
X69000739Y-169726244D02*
X68429311Y-169726244D01*
X68715025Y-169726244D02*
X68715025Y-168726244D01*
X68619787Y-168869102D01*
X68524549Y-168964340D01*
X68429311Y-169011959D01*
X69429311Y-169631006D02*
X69476930Y-169678625D01*
X69429311Y-169726244D01*
X69381691Y-169678625D01*
X69429311Y-169631006D01*
X69429311Y-169726244D01*
X69857882Y-168821483D02*
X69905501Y-168773864D01*
X70000739Y-168726244D01*
X70238834Y-168726244D01*
X70334072Y-168773864D01*
X70381691Y-168821483D01*
X70429311Y-168916721D01*
X70429311Y-169011959D01*
X70381691Y-169154816D01*
X69810263Y-169726244D01*
X70429311Y-169726244D01*
X71334072Y-168726244D02*
X70857882Y-168726244D01*
X70810263Y-169202435D01*
X70857882Y-169154816D01*
X70953120Y-169107197D01*
X71191215Y-169107197D01*
X71286453Y-169154816D01*
X71334072Y-169202435D01*
X71381691Y-169297673D01*
X71381691Y-169535768D01*
X71334072Y-169631006D01*
X71286453Y-169678625D01*
X71191215Y-169726244D01*
X70953120Y-169726244D01*
X70857882Y-169678625D01*
X70810263Y-169631006D01*
X71810263Y-168726244D02*
X71810263Y-169535768D01*
X71857882Y-169631006D01*
X71905501Y-169678625D01*
X72000739Y-169726244D01*
X72191215Y-169726244D01*
X72286453Y-169678625D01*
X72334072Y-169631006D01*
X72381691Y-169535768D01*
X72381691Y-168726244D01*
D13*
X149586777Y-165360531D02*
X149443920Y-165455769D01*
X149158205Y-165455769D01*
X149015348Y-165360531D01*
X148943920Y-165265293D01*
X148872491Y-165074817D01*
X148872491Y-164503388D01*
X148943920Y-164312912D01*
X149015348Y-164217674D01*
X149158205Y-164122436D01*
X149443920Y-164122436D01*
X149586777Y-164217674D01*
X150443920Y-165455769D02*
X150301062Y-165360531D01*
X150229634Y-165265293D01*
X150158205Y-165074817D01*
X150158205Y-164503388D01*
X150229634Y-164312912D01*
X150301062Y-164217674D01*
X150443920Y-164122436D01*
X150658205Y-164122436D01*
X150801062Y-164217674D01*
X150872491Y-164312912D01*
X150943920Y-164503388D01*
X150943920Y-165074817D01*
X150872491Y-165265293D01*
X150801062Y-165360531D01*
X150658205Y-165455769D01*
X150443920Y-165455769D01*
X151515348Y-165360531D02*
X151658205Y-165455769D01*
X151943920Y-165455769D01*
X152086777Y-165360531D01*
X152158205Y-165170055D01*
X152158205Y-165074817D01*
X152086777Y-164884341D01*
X151943920Y-164789103D01*
X151729634Y-164789103D01*
X151586777Y-164693865D01*
X151515348Y-164503388D01*
X151515348Y-164408150D01*
X151586777Y-164217674D01*
X151729634Y-164122436D01*
X151943920Y-164122436D01*
X152086777Y-164217674D01*
X153372491Y-165360531D02*
X153229634Y-165455769D01*
X152943920Y-165455769D01*
X152801062Y-165360531D01*
X152729634Y-165170055D01*
X152729634Y-164408150D01*
X152801062Y-164217674D01*
X152943920Y-164122436D01*
X153229634Y-164122436D01*
X153372491Y-164217674D01*
X153443920Y-164408150D01*
X153443920Y-164598627D01*
X152729634Y-164789103D01*
X153943920Y-164122436D02*
X154301062Y-165455769D01*
X154658205Y-164122436D02*
X154301062Y-165455769D01*
X154158205Y-165931960D01*
X154086777Y-166027198D01*
X153943920Y-166122436D01*
X155015348Y-164122436D02*
X155586777Y-164122436D01*
X155229634Y-165455769D02*
X155229634Y-163741484D01*
X155301062Y-163551008D01*
X155443920Y-163455769D01*
X155586777Y-163455769D01*
X156729634Y-165455769D02*
X156729634Y-164408150D01*
X156658205Y-164217674D01*
X156515348Y-164122436D01*
X156229634Y-164122436D01*
X156086777Y-164217674D01*
X156729634Y-165360531D02*
X156586777Y-165455769D01*
X156229634Y-165455769D01*
X156086777Y-165360531D01*
X156015348Y-165170055D01*
X156015348Y-164979579D01*
X156086777Y-164789103D01*
X156229634Y-164693865D01*
X156586777Y-164693865D01*
X156729634Y-164598627D01*
X157443920Y-164122436D02*
X157443920Y-165455769D01*
X157443920Y-164312912D02*
X157515348Y-164217674D01*
X157658205Y-164122436D01*
X157872491Y-164122436D01*
X158015348Y-164217674D01*
X158086777Y-164408150D01*
X158086777Y-165455769D01*
X158801062Y-164122436D02*
X158801062Y-165455769D01*
X158801062Y-164312912D02*
X158872491Y-164217674D01*
X159015348Y-164122436D01*
X159229634Y-164122436D01*
X159372491Y-164217674D01*
X159443920Y-164408150D01*
X159443920Y-165455769D01*
X160158205Y-165455769D02*
X160158205Y-164122436D01*
X160158205Y-163455769D02*
X160086777Y-163551008D01*
X160158205Y-163646246D01*
X160229634Y-163551008D01*
X160158205Y-163455769D01*
X160158205Y-163646246D01*
X160658205Y-164122436D02*
X161229634Y-164122436D01*
X160872491Y-163455769D02*
X160872491Y-165170055D01*
X160943920Y-165360531D01*
X161086777Y-165455769D01*
X161229634Y-165455769D01*
X162372491Y-164122436D02*
X162372491Y-165455769D01*
X161729634Y-164122436D02*
X161729634Y-165170055D01*
X161801062Y-165360531D01*
X161943920Y-165455769D01*
X162158205Y-165455769D01*
X162301062Y-165360531D01*
X162372491Y-165265293D01*
X162872491Y-164122436D02*
X163443920Y-164122436D01*
X163086777Y-163455769D02*
X163086777Y-165170055D01*
X163158205Y-165360531D01*
X163301062Y-165455769D01*
X163443920Y-165455769D01*
X163729634Y-164122436D02*
X164301062Y-164122436D01*
X163943920Y-163455769D02*
X163943920Y-165170055D01*
X164015348Y-165360531D01*
X164158205Y-165455769D01*
X164301062Y-165455769D01*
X164801062Y-165455769D02*
X164801062Y-164122436D01*
X164801062Y-163455769D02*
X164729634Y-163551008D01*
X164801062Y-163646246D01*
X164872491Y-163551008D01*
X164801062Y-163455769D01*
X164801062Y-163646246D01*
X165586777Y-165360531D02*
X165586777Y-165455769D01*
X165515348Y-165646246D01*
X165443920Y-165741484D01*
X167301062Y-165360531D02*
X167443920Y-165455769D01*
X167729634Y-165455769D01*
X167872491Y-165360531D01*
X167943920Y-165170055D01*
X167943920Y-165074817D01*
X167872491Y-164884341D01*
X167729634Y-164789103D01*
X167515348Y-164789103D01*
X167372491Y-164693865D01*
X167301062Y-164503388D01*
X167301062Y-164408150D01*
X167372491Y-164217674D01*
X167515348Y-164122436D01*
X167729634Y-164122436D01*
X167872491Y-164217674D01*
X169158205Y-165360531D02*
X169015348Y-165455769D01*
X168729634Y-165455769D01*
X168586777Y-165360531D01*
X168515348Y-165170055D01*
X168515348Y-164408150D01*
X168586777Y-164217674D01*
X168729634Y-164122436D01*
X169015348Y-164122436D01*
X169158205Y-164217674D01*
X169229634Y-164408150D01*
X169229634Y-164598627D01*
X168515348Y-164789103D01*
X169872491Y-164122436D02*
X169872491Y-165455769D01*
X169872491Y-164312912D02*
X169943920Y-164217674D01*
X170086777Y-164122436D01*
X170301062Y-164122436D01*
X170443920Y-164217674D01*
X170515348Y-164408150D01*
X170515348Y-165455769D01*
X171872491Y-165455769D02*
X171872491Y-163455769D01*
X171872491Y-165360531D02*
X171729634Y-165455769D01*
X171443920Y-165455769D01*
X171301062Y-165360531D01*
X171229634Y-165265293D01*
X171158205Y-165074817D01*
X171158205Y-164503388D01*
X171229634Y-164312912D01*
X171301062Y-164217674D01*
X171443920Y-164122436D01*
X171729634Y-164122436D01*
X171872491Y-164217674D01*
X172443920Y-164122436D02*
X173229634Y-164122436D01*
X172443920Y-165455769D01*
X173229634Y-165455769D01*
X160015348Y-168675769D02*
X160015348Y-167342436D01*
X160015348Y-167723388D02*
X160086777Y-167532912D01*
X160158205Y-167437674D01*
X160301062Y-167342436D01*
X160443920Y-167342436D01*
X161515348Y-168580531D02*
X161372491Y-168675769D01*
X161086777Y-168675769D01*
X160943920Y-168580531D01*
X160872491Y-168390055D01*
X160872491Y-167628150D01*
X160943920Y-167437674D01*
X161086777Y-167342436D01*
X161372491Y-167342436D01*
X161515348Y-167437674D01*
X161586777Y-167628150D01*
X161586777Y-167818627D01*
X160872491Y-168009103D01*
X162086777Y-167342436D02*
X162443920Y-168675769D01*
X162801062Y-167342436D01*
X164158205Y-168675769D02*
X163301062Y-168675769D01*
X163729634Y-168675769D02*
X163729634Y-166675769D01*
X163586777Y-166961484D01*
X163443920Y-167151960D01*
X163301062Y-167247198D01*
X164801062Y-168485293D02*
X164872491Y-168580531D01*
X164801062Y-168675769D01*
X164729634Y-168580531D01*
X164801062Y-168485293D01*
X164801062Y-168675769D01*
X166301062Y-168675769D02*
X165443920Y-168675769D01*
X165872491Y-168675769D02*
X165872491Y-166675769D01*
X165729634Y-166961484D01*
X165586777Y-167151960D01*
X165443920Y-167247198D01*
X168015348Y-166866246D02*
X168086777Y-166771008D01*
X168229634Y-166675769D01*
X168586777Y-166675769D01*
X168729634Y-166771008D01*
X168801062Y-166866246D01*
X168872491Y-167056722D01*
X168872491Y-167247198D01*
X168801062Y-167532912D01*
X167943920Y-168675769D01*
X168872491Y-168675769D01*
X169801062Y-166675769D02*
X169943920Y-166675769D01*
X170086777Y-166771008D01*
X170158205Y-166866246D01*
X170229634Y-167056722D01*
X170301062Y-167437674D01*
X170301062Y-167913865D01*
X170229634Y-168294817D01*
X170158205Y-168485293D01*
X170086777Y-168580531D01*
X169943920Y-168675769D01*
X169801062Y-168675769D01*
X169658205Y-168580531D01*
X169586777Y-168485293D01*
X169515348Y-168294817D01*
X169443920Y-167913865D01*
X169443920Y-167437674D01*
X169515348Y-167056722D01*
X169586777Y-166866246D01*
X169658205Y-166771008D01*
X169801062Y-166675769D01*
X171729634Y-168675769D02*
X170872491Y-168675769D01*
X171301062Y-168675769D02*
X171301062Y-166675769D01*
X171158205Y-166961484D01*
X171015348Y-167151960D01*
X170872491Y-167247198D01*
X172443920Y-168675769D02*
X172729634Y-168675769D01*
X172872491Y-168580531D01*
X172943920Y-168485293D01*
X173086777Y-168199579D01*
X173158205Y-167818627D01*
X173158205Y-167056722D01*
X173086777Y-166866246D01*
X173015348Y-166771008D01*
X172872491Y-166675769D01*
X172586777Y-166675769D01*
X172443920Y-166771008D01*
X172372491Y-166866246D01*
X172301062Y-167056722D01*
X172301062Y-167532912D01*
X172372491Y-167723388D01*
X172443920Y-167818627D01*
X172586777Y-167913865D01*
X172872491Y-167913865D01*
X173015348Y-167818627D01*
X173086777Y-167723388D01*
X173158205Y-167532912D01*
D14*
X263340364Y-54328500D02*
X263340364Y-59408500D01*
X255720364Y-59408500D02*
X255720364Y-54328500D01*
X263340364Y-59408500D02*
X255720364Y-59408500D01*
X255720364Y-54328500D02*
X263340364Y-54328500D01*
D15*
X258230364Y-53518500D02*
X258230364Y-54318500D01*
X260780364Y-53518500D02*
X258230364Y-53518500D01*
X260780364Y-54318500D02*
X260780364Y-53518500D01*
D11*
X69846818Y-64813242D02*
X70926818Y-64813242D01*
X69846818Y-65863242D02*
X70926818Y-65863242D01*
X70376818Y-64923242D02*
X69846818Y-65833242D01*
X70386818Y-64913242D02*
X70926818Y-65863242D01*
X69376818Y-63783242D02*
X71376818Y-63783242D01*
X70386818Y-63523242D02*
X70386818Y-64803242D01*
X70386818Y-66983242D02*
X70386818Y-65863242D01*
X69376818Y-66773242D02*
X71366818Y-66773242D01*
X71376818Y-63783242D02*
X71366818Y-66773242D01*
X69376818Y-63793242D02*
X69376818Y-66763242D01*
X79355207Y-69773829D02*
X80435207Y-69773829D01*
X79355207Y-70823829D02*
X80435207Y-70823829D01*
X79885207Y-69883829D02*
X79355207Y-70793829D01*
X79895207Y-69873829D02*
X80435207Y-70823829D01*
X78885207Y-68743829D02*
X80885207Y-68743829D01*
X79895207Y-68483829D02*
X79895207Y-69763829D01*
X79895207Y-71943829D02*
X79895207Y-70823829D01*
X78885207Y-71733829D02*
X80875207Y-71733829D01*
X80885207Y-68743829D02*
X80875207Y-71733829D01*
X78885207Y-68753829D02*
X78885207Y-71723829D01*
X92033059Y-69773829D02*
X93113059Y-69773829D01*
X92033059Y-70823829D02*
X93113059Y-70823829D01*
X92563059Y-69883829D02*
X92033059Y-70793829D01*
X92573059Y-69873829D02*
X93113059Y-70823829D01*
X91563059Y-68743829D02*
X93563059Y-68743829D01*
X92573059Y-68483829D02*
X92573059Y-69763829D01*
X92573059Y-71943829D02*
X92573059Y-70823829D01*
X91563059Y-71733829D02*
X93553059Y-71733829D01*
X93563059Y-68743829D02*
X93553059Y-71733829D01*
X91563059Y-68753829D02*
X91563059Y-71723829D01*
X95202522Y-64813242D02*
X96282522Y-64813242D01*
X95202522Y-65863242D02*
X96282522Y-65863242D01*
X95732522Y-64923242D02*
X95202522Y-65833242D01*
X95742522Y-64913242D02*
X96282522Y-65863242D01*
X94732522Y-63783242D02*
X96732522Y-63783242D01*
X95742522Y-63523242D02*
X95742522Y-64803242D01*
X95742522Y-66983242D02*
X95742522Y-65863242D01*
X94732522Y-66773242D02*
X96722522Y-66773242D01*
X96732522Y-63783242D02*
X96722522Y-66773242D01*
X94732522Y-63793242D02*
X94732522Y-66763242D01*
X107880374Y-64813242D02*
X108960374Y-64813242D01*
X107880374Y-65863242D02*
X108960374Y-65863242D01*
X108410374Y-64923242D02*
X107880374Y-65833242D01*
X108420374Y-64913242D02*
X108960374Y-65863242D01*
X107410374Y-63783242D02*
X109410374Y-63783242D01*
X108420374Y-63523242D02*
X108420374Y-64803242D01*
X108420374Y-66983242D02*
X108420374Y-65863242D01*
X107410374Y-66773242D02*
X109400374Y-66773242D01*
X109410374Y-63783242D02*
X109400374Y-66773242D01*
X107410374Y-63793242D02*
X107410374Y-66763242D01*
X120558226Y-64813242D02*
X121638226Y-64813242D01*
X120558226Y-65863242D02*
X121638226Y-65863242D01*
X121088226Y-64923242D02*
X120558226Y-65833242D01*
X121098226Y-64913242D02*
X121638226Y-65863242D01*
X120088226Y-63783242D02*
X122088226Y-63783242D01*
X121098226Y-63523242D02*
X121098226Y-64803242D01*
X121098226Y-66983242D02*
X121098226Y-65863242D01*
X120088226Y-66773242D02*
X122078226Y-66773242D01*
X122088226Y-63783242D02*
X122078226Y-66773242D01*
X120088226Y-63793242D02*
X120088226Y-66763242D01*
X133236078Y-64813242D02*
X134316078Y-64813242D01*
X133236078Y-65863242D02*
X134316078Y-65863242D01*
X133766078Y-64923242D02*
X133236078Y-65833242D01*
X133776078Y-64913242D02*
X134316078Y-65863242D01*
X132766078Y-63783242D02*
X134766078Y-63783242D01*
X133776078Y-63523242D02*
X133776078Y-64803242D01*
X133776078Y-66983242D02*
X133776078Y-65863242D01*
X132766078Y-66773242D02*
X134756078Y-66773242D01*
X134766078Y-63783242D02*
X134756078Y-66773242D01*
X132766078Y-63793242D02*
X132766078Y-66763242D01*
X145913930Y-64813242D02*
X146993930Y-64813242D01*
X145913930Y-65863242D02*
X146993930Y-65863242D01*
X146443930Y-64923242D02*
X145913930Y-65833242D01*
X146453930Y-64913242D02*
X146993930Y-65863242D01*
X145443930Y-63783242D02*
X147443930Y-63783242D01*
X146453930Y-63523242D02*
X146453930Y-64803242D01*
X146453930Y-66983242D02*
X146453930Y-65863242D01*
X145443930Y-66773242D02*
X147433930Y-66773242D01*
X147443930Y-63783242D02*
X147433930Y-66773242D01*
X145443930Y-63793242D02*
X145443930Y-66763242D01*
X158591782Y-64813242D02*
X159671782Y-64813242D01*
X158591782Y-65863242D02*
X159671782Y-65863242D01*
X159121782Y-64923242D02*
X158591782Y-65833242D01*
X159131782Y-64913242D02*
X159671782Y-65863242D01*
X158121782Y-63783242D02*
X160121782Y-63783242D01*
X159131782Y-63523242D02*
X159131782Y-64803242D01*
X159131782Y-66983242D02*
X159131782Y-65863242D01*
X158121782Y-66773242D02*
X160111782Y-66773242D01*
X160121782Y-63783242D02*
X160111782Y-66773242D01*
X158121782Y-63793242D02*
X158121782Y-66763242D01*
X171269634Y-64813242D02*
X172349634Y-64813242D01*
X171269634Y-65863242D02*
X172349634Y-65863242D01*
X171799634Y-64923242D02*
X171269634Y-65833242D01*
X171809634Y-64913242D02*
X172349634Y-65863242D01*
X170799634Y-63783242D02*
X172799634Y-63783242D01*
X171809634Y-63523242D02*
X171809634Y-64803242D01*
X171809634Y-66983242D02*
X171809634Y-65863242D01*
X170799634Y-66773242D02*
X172789634Y-66773242D01*
X172799634Y-63783242D02*
X172789634Y-66773242D01*
X170799634Y-63793242D02*
X170799634Y-66763242D01*
X183947486Y-64813242D02*
X185027486Y-64813242D01*
X183947486Y-65863242D02*
X185027486Y-65863242D01*
X184477486Y-64923242D02*
X183947486Y-65833242D01*
X184487486Y-64913242D02*
X185027486Y-65863242D01*
X183477486Y-63783242D02*
X185477486Y-63783242D01*
X184487486Y-63523242D02*
X184487486Y-64803242D01*
X184487486Y-66983242D02*
X184487486Y-65863242D01*
X183477486Y-66773242D02*
X185467486Y-66773242D01*
X185477486Y-63783242D02*
X185467486Y-66773242D01*
X183477486Y-63793242D02*
X183477486Y-66763242D01*
X196625338Y-64813242D02*
X197705338Y-64813242D01*
X196625338Y-65863242D02*
X197705338Y-65863242D01*
X197155338Y-64923242D02*
X196625338Y-65833242D01*
X197165338Y-64913242D02*
X197705338Y-65863242D01*
X196155338Y-63783242D02*
X198155338Y-63783242D01*
X197165338Y-63523242D02*
X197165338Y-64803242D01*
X197165338Y-66983242D02*
X197165338Y-65863242D01*
X196155338Y-66773242D02*
X198145338Y-66773242D01*
X198155338Y-63783242D02*
X198145338Y-66773242D01*
X196155338Y-63793242D02*
X196155338Y-66763242D01*
X209303190Y-64813242D02*
X210383190Y-64813242D01*
X209303190Y-65863242D02*
X210383190Y-65863242D01*
X209833190Y-64923242D02*
X209303190Y-65833242D01*
X209843190Y-64913242D02*
X210383190Y-65863242D01*
X208833190Y-63783242D02*
X210833190Y-63783242D01*
X209843190Y-63523242D02*
X209843190Y-64803242D01*
X209843190Y-66983242D02*
X209843190Y-65863242D01*
X208833190Y-66773242D02*
X210823190Y-66773242D01*
X210833190Y-63783242D02*
X210823190Y-66773242D01*
X208833190Y-63793242D02*
X208833190Y-66763242D01*
X221981042Y-64813242D02*
X223061042Y-64813242D01*
X221981042Y-65863242D02*
X223061042Y-65863242D01*
X222511042Y-64923242D02*
X221981042Y-65833242D01*
X222521042Y-64913242D02*
X223061042Y-65863242D01*
X221511042Y-63783242D02*
X223511042Y-63783242D01*
X222521042Y-63523242D02*
X222521042Y-64803242D01*
X222521042Y-66983242D02*
X222521042Y-65863242D01*
X221511042Y-66773242D02*
X223501042Y-66773242D01*
X223511042Y-63783242D02*
X223501042Y-66773242D01*
X221511042Y-63793242D02*
X221511042Y-66763242D01*
X234588910Y-64813242D02*
X235668910Y-64813242D01*
X234588910Y-65863242D02*
X235668910Y-65863242D01*
X235118910Y-64923242D02*
X234588910Y-65833242D01*
X235128910Y-64913242D02*
X235668910Y-65863242D01*
X234118910Y-63783242D02*
X236118910Y-63783242D01*
X235128910Y-63523242D02*
X235128910Y-64803242D01*
X235128910Y-66983242D02*
X235128910Y-65863242D01*
X234118910Y-66773242D02*
X236108910Y-66773242D01*
X236118910Y-63783242D02*
X236108910Y-66773242D01*
X234118910Y-63793242D02*
X234118910Y-66763242D01*
X281788463Y-69773829D02*
X282868463Y-69773829D01*
X281788463Y-70823829D02*
X282868463Y-70823829D01*
X282318463Y-69883829D02*
X281788463Y-70793829D01*
X282328463Y-69873829D02*
X282868463Y-70823829D01*
X281318463Y-68743829D02*
X283318463Y-68743829D01*
X282328463Y-68483829D02*
X282328463Y-69763829D01*
X282328463Y-71943829D02*
X282328463Y-70823829D01*
X281318463Y-71733829D02*
X283308463Y-71733829D01*
X283318463Y-68743829D02*
X283308463Y-71733829D01*
X281318463Y-68753829D02*
X281318463Y-71723829D01*
X73016281Y-66466771D02*
X74096281Y-66466771D01*
X73016281Y-67516771D02*
X74096281Y-67516771D01*
X73546281Y-66576771D02*
X73016281Y-67486771D01*
X73556281Y-66566771D02*
X74096281Y-67516771D01*
X72546281Y-65436771D02*
X74546281Y-65436771D01*
X73556281Y-65176771D02*
X73556281Y-66456771D01*
X73556281Y-68636771D02*
X73556281Y-67516771D01*
X72546281Y-68426771D02*
X74536281Y-68426771D01*
X74546281Y-65436771D02*
X74536281Y-68426771D01*
X72546281Y-65446771D02*
X72546281Y-68416771D01*
X88863596Y-68120300D02*
X89943596Y-68120300D01*
X88863596Y-69170300D02*
X89943596Y-69170300D01*
X89393596Y-68230300D02*
X88863596Y-69140300D01*
X89403596Y-68220300D02*
X89943596Y-69170300D01*
X88393596Y-67090300D02*
X90393596Y-67090300D01*
X89403596Y-66830300D02*
X89403596Y-68110300D01*
X89403596Y-70290300D02*
X89403596Y-69170300D01*
X88393596Y-70080300D02*
X90383596Y-70080300D01*
X90393596Y-67090300D02*
X90383596Y-70080300D01*
X88393596Y-67100300D02*
X88393596Y-70070300D01*
X98371985Y-66466771D02*
X99451985Y-66466771D01*
X98371985Y-67516771D02*
X99451985Y-67516771D01*
X98901985Y-66576771D02*
X98371985Y-67486771D01*
X98911985Y-66566771D02*
X99451985Y-67516771D01*
X97901985Y-65436771D02*
X99901985Y-65436771D01*
X98911985Y-65176771D02*
X98911985Y-66456771D01*
X98911985Y-68636771D02*
X98911985Y-67516771D01*
X97901985Y-68426771D02*
X99891985Y-68426771D01*
X99901985Y-65436771D02*
X99891985Y-68426771D01*
X97901985Y-65446771D02*
X97901985Y-68416771D01*
X111049837Y-66466771D02*
X112129837Y-66466771D01*
X111049837Y-67516771D02*
X112129837Y-67516771D01*
X111579837Y-66576771D02*
X111049837Y-67486771D01*
X111589837Y-66566771D02*
X112129837Y-67516771D01*
X110579837Y-65436771D02*
X112579837Y-65436771D01*
X111589837Y-65176771D02*
X111589837Y-66456771D01*
X111589837Y-68636771D02*
X111589837Y-67516771D01*
X110579837Y-68426771D02*
X112569837Y-68426771D01*
X112579837Y-65436771D02*
X112569837Y-68426771D01*
X110579837Y-65446771D02*
X110579837Y-68416771D01*
X123727689Y-66466771D02*
X124807689Y-66466771D01*
X123727689Y-67516771D02*
X124807689Y-67516771D01*
X124257689Y-66576771D02*
X123727689Y-67486771D01*
X124267689Y-66566771D02*
X124807689Y-67516771D01*
X123257689Y-65436771D02*
X125257689Y-65436771D01*
X124267689Y-65176771D02*
X124267689Y-66456771D01*
X124267689Y-68636771D02*
X124267689Y-67516771D01*
X123257689Y-68426771D02*
X125247689Y-68426771D01*
X125257689Y-65436771D02*
X125247689Y-68426771D01*
X123257689Y-65446771D02*
X123257689Y-68416771D01*
X136405541Y-66466771D02*
X137485541Y-66466771D01*
X136405541Y-67516771D02*
X137485541Y-67516771D01*
X136935541Y-66576771D02*
X136405541Y-67486771D01*
X136945541Y-66566771D02*
X137485541Y-67516771D01*
X135935541Y-65436771D02*
X137935541Y-65436771D01*
X136945541Y-65176771D02*
X136945541Y-66456771D01*
X136945541Y-68636771D02*
X136945541Y-67516771D01*
X135935541Y-68426771D02*
X137925541Y-68426771D01*
X137935541Y-65436771D02*
X137925541Y-68426771D01*
X135935541Y-65446771D02*
X135935541Y-68416771D01*
X149083393Y-66466771D02*
X150163393Y-66466771D01*
X149083393Y-67516771D02*
X150163393Y-67516771D01*
X149613393Y-66576771D02*
X149083393Y-67486771D01*
X149623393Y-66566771D02*
X150163393Y-67516771D01*
X148613393Y-65436771D02*
X150613393Y-65436771D01*
X149623393Y-65176771D02*
X149623393Y-66456771D01*
X149623393Y-68636771D02*
X149623393Y-67516771D01*
X148613393Y-68426771D02*
X150603393Y-68426771D01*
X150613393Y-65436771D02*
X150603393Y-68426771D01*
X148613393Y-65446771D02*
X148613393Y-68416771D01*
X161761245Y-66466771D02*
X162841245Y-66466771D01*
X161761245Y-67516771D02*
X162841245Y-67516771D01*
X162291245Y-66576771D02*
X161761245Y-67486771D01*
X162301245Y-66566771D02*
X162841245Y-67516771D01*
X161291245Y-65436771D02*
X163291245Y-65436771D01*
X162301245Y-65176771D02*
X162301245Y-66456771D01*
X162301245Y-68636771D02*
X162301245Y-67516771D01*
X161291245Y-68426771D02*
X163281245Y-68426771D01*
X163291245Y-65436771D02*
X163281245Y-68426771D01*
X161291245Y-65446771D02*
X161291245Y-68416771D01*
X174439097Y-66466771D02*
X175519097Y-66466771D01*
X174439097Y-67516771D02*
X175519097Y-67516771D01*
X174969097Y-66576771D02*
X174439097Y-67486771D01*
X174979097Y-66566771D02*
X175519097Y-67516771D01*
X173969097Y-65436771D02*
X175969097Y-65436771D01*
X174979097Y-65176771D02*
X174979097Y-66456771D01*
X174979097Y-68636771D02*
X174979097Y-67516771D01*
X173969097Y-68426771D02*
X175959097Y-68426771D01*
X175969097Y-65436771D02*
X175959097Y-68426771D01*
X173969097Y-65446771D02*
X173969097Y-68416771D01*
X187116949Y-66466771D02*
X188196949Y-66466771D01*
X187116949Y-67516771D02*
X188196949Y-67516771D01*
X187646949Y-66576771D02*
X187116949Y-67486771D01*
X187656949Y-66566771D02*
X188196949Y-67516771D01*
X186646949Y-65436771D02*
X188646949Y-65436771D01*
X187656949Y-65176771D02*
X187656949Y-66456771D01*
X187656949Y-68636771D02*
X187656949Y-67516771D01*
X186646949Y-68426771D02*
X188636949Y-68426771D01*
X188646949Y-65436771D02*
X188636949Y-68426771D01*
X186646949Y-65446771D02*
X186646949Y-68416771D01*
X199794801Y-66466771D02*
X200874801Y-66466771D01*
X199794801Y-67516771D02*
X200874801Y-67516771D01*
X200324801Y-66576771D02*
X199794801Y-67486771D01*
X200334801Y-66566771D02*
X200874801Y-67516771D01*
X199324801Y-65436771D02*
X201324801Y-65436771D01*
X200334801Y-65176771D02*
X200334801Y-66456771D01*
X200334801Y-68636771D02*
X200334801Y-67516771D01*
X199324801Y-68426771D02*
X201314801Y-68426771D01*
X201324801Y-65436771D02*
X201314801Y-68426771D01*
X199324801Y-65446771D02*
X199324801Y-68416771D01*
X212472653Y-66466771D02*
X213552653Y-66466771D01*
X212472653Y-67516771D02*
X213552653Y-67516771D01*
X213002653Y-66576771D02*
X212472653Y-67486771D01*
X213012653Y-66566771D02*
X213552653Y-67516771D01*
X212002653Y-65436771D02*
X214002653Y-65436771D01*
X213012653Y-65176771D02*
X213012653Y-66456771D01*
X213012653Y-68636771D02*
X213012653Y-67516771D01*
X212002653Y-68426771D02*
X213992653Y-68426771D01*
X214002653Y-65436771D02*
X213992653Y-68426771D01*
X212002653Y-65446771D02*
X212002653Y-68416771D01*
X225133009Y-66466771D02*
X226213009Y-66466771D01*
X225133009Y-67516771D02*
X226213009Y-67516771D01*
X225663009Y-66576771D02*
X225133009Y-67486771D01*
X225673009Y-66566771D02*
X226213009Y-67516771D01*
X224663009Y-65436771D02*
X226663009Y-65436771D01*
X225673009Y-65176771D02*
X225673009Y-66456771D01*
X225673009Y-68636771D02*
X225673009Y-67516771D01*
X224663009Y-68426771D02*
X226653009Y-68426771D01*
X226663009Y-65436771D02*
X226653009Y-68426771D01*
X224663009Y-65446771D02*
X224663009Y-68416771D01*
X237739683Y-66466771D02*
X238819683Y-66466771D01*
X237739683Y-67516771D02*
X238819683Y-67516771D01*
X238269683Y-66576771D02*
X237739683Y-67486771D01*
X238279683Y-66566771D02*
X238819683Y-67516771D01*
X237269683Y-65436771D02*
X239269683Y-65436771D01*
X238279683Y-65176771D02*
X238279683Y-66456771D01*
X238279683Y-68636771D02*
X238279683Y-67516771D01*
X237269683Y-68426771D02*
X239259683Y-68426771D01*
X239269683Y-65436771D02*
X239259683Y-68426771D01*
X237269683Y-65446771D02*
X237269683Y-68416771D01*
X278699739Y-68120300D02*
X279779739Y-68120300D01*
X278699739Y-69170300D02*
X279779739Y-69170300D01*
X279229739Y-68230300D02*
X278699739Y-69140300D01*
X279239739Y-68220300D02*
X279779739Y-69170300D01*
X278229739Y-67090300D02*
X280229739Y-67090300D01*
X279239739Y-66830300D02*
X279239739Y-68110300D01*
X279239739Y-70290300D02*
X279239739Y-69170300D01*
X278229739Y-70080300D02*
X280219739Y-70080300D01*
X280229739Y-67090300D02*
X280219739Y-70080300D01*
X278229739Y-67100300D02*
X278229739Y-70070300D01*
X76185744Y-68120300D02*
X77265744Y-68120300D01*
X76185744Y-69170300D02*
X77265744Y-69170300D01*
X76715744Y-68230300D02*
X76185744Y-69140300D01*
X76725744Y-68220300D02*
X77265744Y-69170300D01*
X75715744Y-67090300D02*
X77715744Y-67090300D01*
X76725744Y-66830300D02*
X76725744Y-68110300D01*
X76725744Y-70290300D02*
X76725744Y-69170300D01*
X75715744Y-70080300D02*
X77705744Y-70080300D01*
X77715744Y-67090300D02*
X77705744Y-70080300D01*
X75715744Y-67100300D02*
X75715744Y-70070300D01*
X85694133Y-66466771D02*
X86774133Y-66466771D01*
X85694133Y-67516771D02*
X86774133Y-67516771D01*
X86224133Y-66576771D02*
X85694133Y-67486771D01*
X86234133Y-66566771D02*
X86774133Y-67516771D01*
X85224133Y-65436771D02*
X87224133Y-65436771D01*
X86234133Y-65176771D02*
X86234133Y-66456771D01*
X86234133Y-68636771D02*
X86234133Y-67516771D01*
X85224133Y-68426771D02*
X87214133Y-68426771D01*
X87224133Y-65436771D02*
X87214133Y-68426771D01*
X85224133Y-65446771D02*
X85224133Y-68416771D01*
X101541448Y-68120300D02*
X102621448Y-68120300D01*
X101541448Y-69170300D02*
X102621448Y-69170300D01*
X102071448Y-68230300D02*
X101541448Y-69140300D01*
X102081448Y-68220300D02*
X102621448Y-69170300D01*
X101071448Y-67090300D02*
X103071448Y-67090300D01*
X102081448Y-66830300D02*
X102081448Y-68110300D01*
X102081448Y-70290300D02*
X102081448Y-69170300D01*
X101071448Y-70080300D02*
X103061448Y-70080300D01*
X103071448Y-67090300D02*
X103061448Y-70080300D01*
X101071448Y-67100300D02*
X101071448Y-70070300D01*
X114219300Y-68120300D02*
X115299300Y-68120300D01*
X114219300Y-69170300D02*
X115299300Y-69170300D01*
X114749300Y-68230300D02*
X114219300Y-69140300D01*
X114759300Y-68220300D02*
X115299300Y-69170300D01*
X113749300Y-67090300D02*
X115749300Y-67090300D01*
X114759300Y-66830300D02*
X114759300Y-68110300D01*
X114759300Y-70290300D02*
X114759300Y-69170300D01*
X113749300Y-70080300D02*
X115739300Y-70080300D01*
X115749300Y-67090300D02*
X115739300Y-70080300D01*
X113749300Y-67100300D02*
X113749300Y-70070300D01*
X126897152Y-68120300D02*
X127977152Y-68120300D01*
X126897152Y-69170300D02*
X127977152Y-69170300D01*
X127427152Y-68230300D02*
X126897152Y-69140300D01*
X127437152Y-68220300D02*
X127977152Y-69170300D01*
X126427152Y-67090300D02*
X128427152Y-67090300D01*
X127437152Y-66830300D02*
X127437152Y-68110300D01*
X127437152Y-70290300D02*
X127437152Y-69170300D01*
X126427152Y-70080300D02*
X128417152Y-70080300D01*
X128427152Y-67090300D02*
X128417152Y-70080300D01*
X126427152Y-67100300D02*
X126427152Y-70070300D01*
X139575004Y-68120300D02*
X140655004Y-68120300D01*
X139575004Y-69170300D02*
X140655004Y-69170300D01*
X140105004Y-68230300D02*
X139575004Y-69140300D01*
X140115004Y-68220300D02*
X140655004Y-69170300D01*
X139105004Y-67090300D02*
X141105004Y-67090300D01*
X140115004Y-66830300D02*
X140115004Y-68110300D01*
X140115004Y-70290300D02*
X140115004Y-69170300D01*
X139105004Y-70080300D02*
X141095004Y-70080300D01*
X141105004Y-67090300D02*
X141095004Y-70080300D01*
X139105004Y-67100300D02*
X139105004Y-70070300D01*
X152252856Y-68120300D02*
X153332856Y-68120300D01*
X152252856Y-69170300D02*
X153332856Y-69170300D01*
X152782856Y-68230300D02*
X152252856Y-69140300D01*
X152792856Y-68220300D02*
X153332856Y-69170300D01*
X151782856Y-67090300D02*
X153782856Y-67090300D01*
X152792856Y-66830300D02*
X152792856Y-68110300D01*
X152792856Y-70290300D02*
X152792856Y-69170300D01*
X151782856Y-70080300D02*
X153772856Y-70080300D01*
X153782856Y-67090300D02*
X153772856Y-70080300D01*
X151782856Y-67100300D02*
X151782856Y-70070300D01*
X164930708Y-68120300D02*
X166010708Y-68120300D01*
X164930708Y-69170300D02*
X166010708Y-69170300D01*
X165460708Y-68230300D02*
X164930708Y-69140300D01*
X165470708Y-68220300D02*
X166010708Y-69170300D01*
X164460708Y-67090300D02*
X166460708Y-67090300D01*
X165470708Y-66830300D02*
X165470708Y-68110300D01*
X165470708Y-70290300D02*
X165470708Y-69170300D01*
X164460708Y-70080300D02*
X166450708Y-70080300D01*
X166460708Y-67090300D02*
X166450708Y-70080300D01*
X164460708Y-67100300D02*
X164460708Y-70070300D01*
X177608560Y-68120300D02*
X178688560Y-68120300D01*
X177608560Y-69170300D02*
X178688560Y-69170300D01*
X178138560Y-68230300D02*
X177608560Y-69140300D01*
X178148560Y-68220300D02*
X178688560Y-69170300D01*
X177138560Y-67090300D02*
X179138560Y-67090300D01*
X178148560Y-66830300D02*
X178148560Y-68110300D01*
X178148560Y-70290300D02*
X178148560Y-69170300D01*
X177138560Y-70080300D02*
X179128560Y-70080300D01*
X179138560Y-67090300D02*
X179128560Y-70080300D01*
X177138560Y-67100300D02*
X177138560Y-70070300D01*
X190286412Y-68120300D02*
X191366412Y-68120300D01*
X190286412Y-69170300D02*
X191366412Y-69170300D01*
X190816412Y-68230300D02*
X190286412Y-69140300D01*
X190826412Y-68220300D02*
X191366412Y-69170300D01*
X189816412Y-67090300D02*
X191816412Y-67090300D01*
X190826412Y-66830300D02*
X190826412Y-68110300D01*
X190826412Y-70290300D02*
X190826412Y-69170300D01*
X189816412Y-70080300D02*
X191806412Y-70080300D01*
X191816412Y-67090300D02*
X191806412Y-70080300D01*
X189816412Y-67100300D02*
X189816412Y-70070300D01*
X202964264Y-68120300D02*
X204044264Y-68120300D01*
X202964264Y-69170300D02*
X204044264Y-69170300D01*
X203494264Y-68230300D02*
X202964264Y-69140300D01*
X203504264Y-68220300D02*
X204044264Y-69170300D01*
X202494264Y-67090300D02*
X204494264Y-67090300D01*
X203504264Y-66830300D02*
X203504264Y-68110300D01*
X203504264Y-70290300D02*
X203504264Y-69170300D01*
X202494264Y-70080300D02*
X204484264Y-70080300D01*
X204494264Y-67090300D02*
X204484264Y-70080300D01*
X202494264Y-67100300D02*
X202494264Y-70070300D01*
X215642116Y-68120300D02*
X216722116Y-68120300D01*
X215642116Y-69170300D02*
X216722116Y-69170300D01*
X216172116Y-68230300D02*
X215642116Y-69140300D01*
X216182116Y-68220300D02*
X216722116Y-69170300D01*
X215172116Y-67090300D02*
X217172116Y-67090300D01*
X216182116Y-66830300D02*
X216182116Y-68110300D01*
X216182116Y-70290300D02*
X216182116Y-69170300D01*
X215172116Y-70080300D02*
X217162116Y-70080300D01*
X217172116Y-67090300D02*
X217162116Y-70080300D01*
X215172116Y-67100300D02*
X215172116Y-70070300D01*
X240890456Y-68120300D02*
X241970456Y-68120300D01*
X240890456Y-69170300D02*
X241970456Y-69170300D01*
X241420456Y-68230300D02*
X240890456Y-69140300D01*
X241430456Y-68220300D02*
X241970456Y-69170300D01*
X240420456Y-67090300D02*
X242420456Y-67090300D01*
X241430456Y-66830300D02*
X241430456Y-68110300D01*
X241430456Y-70290300D02*
X241430456Y-69170300D01*
X240420456Y-70080300D02*
X242410456Y-70080300D01*
X242420456Y-67090300D02*
X242410456Y-70080300D01*
X240420456Y-67100300D02*
X240420456Y-70070300D01*
X275611015Y-66466771D02*
X276691015Y-66466771D01*
X275611015Y-67516771D02*
X276691015Y-67516771D01*
X276141015Y-66576771D02*
X275611015Y-67486771D01*
X276151015Y-66566771D02*
X276691015Y-67516771D01*
X275141015Y-65436771D02*
X277141015Y-65436771D01*
X276151015Y-65176771D02*
X276151015Y-66456771D01*
X276151015Y-68636771D02*
X276151015Y-67516771D01*
X275141015Y-68426771D02*
X277131015Y-68426771D01*
X277141015Y-65436771D02*
X277131015Y-68426771D01*
X275141015Y-65446771D02*
X275141015Y-68416771D01*
X104710911Y-69773829D02*
X105790911Y-69773829D01*
X104710911Y-70823829D02*
X105790911Y-70823829D01*
X105240911Y-69883829D02*
X104710911Y-70793829D01*
X105250911Y-69873829D02*
X105790911Y-70823829D01*
X104240911Y-68743829D02*
X106240911Y-68743829D01*
X105250911Y-68483829D02*
X105250911Y-69763829D01*
X105250911Y-71943829D02*
X105250911Y-70823829D01*
X104240911Y-71733829D02*
X106230911Y-71733829D01*
X106240911Y-68743829D02*
X106230911Y-71733829D01*
X104240911Y-68753829D02*
X104240911Y-71723829D01*
X117388763Y-69773829D02*
X118468763Y-69773829D01*
X117388763Y-70823829D02*
X118468763Y-70823829D01*
X117918763Y-69883829D02*
X117388763Y-70793829D01*
X117928763Y-69873829D02*
X118468763Y-70823829D01*
X116918763Y-68743829D02*
X118918763Y-68743829D01*
X117928763Y-68483829D02*
X117928763Y-69763829D01*
X117928763Y-71943829D02*
X117928763Y-70823829D01*
X116918763Y-71733829D02*
X118908763Y-71733829D01*
X118918763Y-68743829D02*
X118908763Y-71733829D01*
X116918763Y-68753829D02*
X116918763Y-71723829D01*
X130066615Y-69773829D02*
X131146615Y-69773829D01*
X130066615Y-70823829D02*
X131146615Y-70823829D01*
X130596615Y-69883829D02*
X130066615Y-70793829D01*
X130606615Y-69873829D02*
X131146615Y-70823829D01*
X129596615Y-68743829D02*
X131596615Y-68743829D01*
X130606615Y-68483829D02*
X130606615Y-69763829D01*
X130606615Y-71943829D02*
X130606615Y-70823829D01*
X129596615Y-71733829D02*
X131586615Y-71733829D01*
X131596615Y-68743829D02*
X131586615Y-71733829D01*
X129596615Y-68753829D02*
X129596615Y-71723829D01*
X142744467Y-69773829D02*
X143824467Y-69773829D01*
X142744467Y-70823829D02*
X143824467Y-70823829D01*
X143274467Y-69883829D02*
X142744467Y-70793829D01*
X143284467Y-69873829D02*
X143824467Y-70823829D01*
X142274467Y-68743829D02*
X144274467Y-68743829D01*
X143284467Y-68483829D02*
X143284467Y-69763829D01*
X143284467Y-71943829D02*
X143284467Y-70823829D01*
X142274467Y-71733829D02*
X144264467Y-71733829D01*
X144274467Y-68743829D02*
X144264467Y-71733829D01*
X142274467Y-68753829D02*
X142274467Y-71723829D01*
X155422319Y-69773829D02*
X156502319Y-69773829D01*
X155422319Y-70823829D02*
X156502319Y-70823829D01*
X155952319Y-69883829D02*
X155422319Y-70793829D01*
X155962319Y-69873829D02*
X156502319Y-70823829D01*
X154952319Y-68743829D02*
X156952319Y-68743829D01*
X155962319Y-68483829D02*
X155962319Y-69763829D01*
X155962319Y-71943829D02*
X155962319Y-70823829D01*
X154952319Y-71733829D02*
X156942319Y-71733829D01*
X156952319Y-68743829D02*
X156942319Y-71733829D01*
X154952319Y-68753829D02*
X154952319Y-71723829D01*
X168100171Y-69773829D02*
X169180171Y-69773829D01*
X168100171Y-70823829D02*
X169180171Y-70823829D01*
X168630171Y-69883829D02*
X168100171Y-70793829D01*
X168640171Y-69873829D02*
X169180171Y-70823829D01*
X167630171Y-68743829D02*
X169630171Y-68743829D01*
X168640171Y-68483829D02*
X168640171Y-69763829D01*
X168640171Y-71943829D02*
X168640171Y-70823829D01*
X167630171Y-71733829D02*
X169620171Y-71733829D01*
X169630171Y-68743829D02*
X169620171Y-71733829D01*
X167630171Y-68753829D02*
X167630171Y-71723829D01*
X180778023Y-69773829D02*
X181858023Y-69773829D01*
X180778023Y-70823829D02*
X181858023Y-70823829D01*
X181308023Y-69883829D02*
X180778023Y-70793829D01*
X181318023Y-69873829D02*
X181858023Y-70823829D01*
X180308023Y-68743829D02*
X182308023Y-68743829D01*
X181318023Y-68483829D02*
X181318023Y-69763829D01*
X181318023Y-71943829D02*
X181318023Y-70823829D01*
X180308023Y-71733829D02*
X182298023Y-71733829D01*
X182308023Y-68743829D02*
X182298023Y-71733829D01*
X180308023Y-68753829D02*
X180308023Y-71723829D01*
X193455875Y-69773829D02*
X194535875Y-69773829D01*
X193455875Y-70823829D02*
X194535875Y-70823829D01*
X193985875Y-69883829D02*
X193455875Y-70793829D01*
X193995875Y-69873829D02*
X194535875Y-70823829D01*
X192985875Y-68743829D02*
X194985875Y-68743829D01*
X193995875Y-68483829D02*
X193995875Y-69763829D01*
X193995875Y-71943829D02*
X193995875Y-70823829D01*
X192985875Y-71733829D02*
X194975875Y-71733829D01*
X194985875Y-68743829D02*
X194975875Y-71733829D01*
X192985875Y-68753829D02*
X192985875Y-71723829D01*
X206133727Y-69773829D02*
X207213727Y-69773829D01*
X206133727Y-70823829D02*
X207213727Y-70823829D01*
X206663727Y-69883829D02*
X206133727Y-70793829D01*
X206673727Y-69873829D02*
X207213727Y-70823829D01*
X205663727Y-68743829D02*
X207663727Y-68743829D01*
X206673727Y-68483829D02*
X206673727Y-69763829D01*
X206673727Y-71943829D02*
X206673727Y-70823829D01*
X205663727Y-71733829D02*
X207653727Y-71733829D01*
X207663727Y-68743829D02*
X207653727Y-71733829D01*
X205663727Y-68753829D02*
X205663727Y-71723829D01*
X218811579Y-69773829D02*
X219891579Y-69773829D01*
X218811579Y-70823829D02*
X219891579Y-70823829D01*
X219341579Y-69883829D02*
X218811579Y-70793829D01*
X219351579Y-69873829D02*
X219891579Y-70823829D01*
X218341579Y-68743829D02*
X220341579Y-68743829D01*
X219351579Y-68483829D02*
X219351579Y-69763829D01*
X219351579Y-71943829D02*
X219351579Y-70823829D01*
X218341579Y-71733829D02*
X220331579Y-71733829D01*
X220341579Y-68743829D02*
X220331579Y-71733829D01*
X218341579Y-68753829D02*
X218341579Y-71723829D01*
X228284976Y-68120300D02*
X229364976Y-68120300D01*
X228284976Y-69170300D02*
X229364976Y-69170300D01*
X228814976Y-68230300D02*
X228284976Y-69140300D01*
X228824976Y-68220300D02*
X229364976Y-69170300D01*
X227814976Y-67090300D02*
X229814976Y-67090300D01*
X228824976Y-66830300D02*
X228824976Y-68110300D01*
X228824976Y-70290300D02*
X228824976Y-69170300D01*
X227814976Y-70080300D02*
X229804976Y-70080300D01*
X229814976Y-67090300D02*
X229804976Y-70080300D01*
X227814976Y-67100300D02*
X227814976Y-70070300D01*
X244041229Y-69773829D02*
X245121229Y-69773829D01*
X244041229Y-70823829D02*
X245121229Y-70823829D01*
X244571229Y-69883829D02*
X244041229Y-70793829D01*
X244581229Y-69873829D02*
X245121229Y-70823829D01*
X243571229Y-68743829D02*
X245571229Y-68743829D01*
X244581229Y-68483829D02*
X244581229Y-69763829D01*
X244581229Y-71943829D02*
X244581229Y-70823829D01*
X243571229Y-71733829D02*
X245561229Y-71733829D01*
X245571229Y-68743829D02*
X245561229Y-71733829D01*
X243571229Y-68753829D02*
X243571229Y-71723829D01*
X272336140Y-64813242D02*
X273416140Y-64813242D01*
X272336140Y-65863242D02*
X273416140Y-65863242D01*
X272866140Y-64923242D02*
X272336140Y-65833242D01*
X272876140Y-64913242D02*
X273416140Y-65863242D01*
X271866140Y-63783242D02*
X273866140Y-63783242D01*
X272876140Y-63523242D02*
X272876140Y-64803242D01*
X272876140Y-66983242D02*
X272876140Y-65863242D01*
X271866140Y-66773242D02*
X273856140Y-66773242D01*
X273866140Y-63783242D02*
X273856140Y-66773242D01*
X271866140Y-63793242D02*
X271866140Y-66763242D01*
X266034592Y-68120300D02*
X267114592Y-68120300D01*
X266034592Y-69170300D02*
X267114592Y-69170300D01*
X266564592Y-68230300D02*
X266034592Y-69140300D01*
X266574592Y-68220300D02*
X267114592Y-69170300D01*
X265564592Y-67090300D02*
X267564592Y-67090300D01*
X266574592Y-66830300D02*
X266574592Y-68110300D01*
X266574592Y-70290300D02*
X266574592Y-69170300D01*
X265564592Y-70080300D02*
X267554592Y-70080300D01*
X267564592Y-67090300D02*
X267554592Y-70080300D01*
X265564592Y-67100300D02*
X265564592Y-70070300D01*
X82524670Y-64813242D02*
X83604670Y-64813242D01*
X82524670Y-65863242D02*
X83604670Y-65863242D01*
X83054670Y-64923242D02*
X82524670Y-65833242D01*
X83064670Y-64913242D02*
X83604670Y-65863242D01*
X82054670Y-63783242D02*
X84054670Y-63783242D01*
X83064670Y-63523242D02*
X83064670Y-64803242D01*
X83064670Y-66983242D02*
X83064670Y-65863242D01*
X82054670Y-66773242D02*
X84044670Y-66773242D01*
X84054670Y-63783242D02*
X84044670Y-66773242D01*
X82054670Y-63793242D02*
X82054670Y-66763242D01*
X262883818Y-66466771D02*
X263963818Y-66466771D01*
X262883818Y-67516771D02*
X263963818Y-67516771D01*
X263413818Y-66576771D02*
X262883818Y-67486771D01*
X263423818Y-66566771D02*
X263963818Y-67516771D01*
X262413818Y-65436771D02*
X264413818Y-65436771D01*
X263423818Y-65176771D02*
X263423818Y-66456771D01*
X263423818Y-68636771D02*
X263423818Y-67516771D01*
X262413818Y-68426771D02*
X264403818Y-68426771D01*
X264413818Y-65436771D02*
X264403818Y-68426771D01*
X262413818Y-65446771D02*
X262413818Y-68416771D01*
X259733045Y-64813242D02*
X260813045Y-64813242D01*
X259733045Y-65863242D02*
X260813045Y-65863242D01*
X260263045Y-64923242D02*
X259733045Y-65833242D01*
X260273045Y-64913242D02*
X260813045Y-65863242D01*
X259263045Y-63783242D02*
X261263045Y-63783242D01*
X260273045Y-63523242D02*
X260273045Y-64803242D01*
X260273045Y-66983242D02*
X260273045Y-65863242D01*
X259263045Y-66773242D02*
X261253045Y-66773242D01*
X261263045Y-63783242D02*
X261253045Y-66773242D01*
X259263045Y-63793242D02*
X259263045Y-66763242D01*
X256582272Y-69773829D02*
X257662272Y-69773829D01*
X256582272Y-70823829D02*
X257662272Y-70823829D01*
X257112272Y-69883829D02*
X256582272Y-70793829D01*
X257122272Y-69873829D02*
X257662272Y-70823829D01*
X256112272Y-68743829D02*
X258112272Y-68743829D01*
X257122272Y-68483829D02*
X257122272Y-69763829D01*
X257122272Y-71943829D02*
X257122272Y-70823829D01*
X256112272Y-71733829D02*
X258102272Y-71733829D01*
X258112272Y-68743829D02*
X258102272Y-71733829D01*
X256112272Y-68753829D02*
X256112272Y-71723829D01*
X231436943Y-69773829D02*
X232516943Y-69773829D01*
X231436943Y-70823829D02*
X232516943Y-70823829D01*
X231966943Y-69883829D02*
X231436943Y-70793829D01*
X231976943Y-69873829D02*
X232516943Y-70823829D01*
X230966943Y-68743829D02*
X232966943Y-68743829D01*
X231976943Y-68483829D02*
X231976943Y-69763829D01*
X231976943Y-71943829D02*
X231976943Y-70823829D01*
X230966943Y-71733829D02*
X232956943Y-71733829D01*
X232966943Y-68743829D02*
X232956943Y-71733829D01*
X230966943Y-68753829D02*
X230966943Y-71723829D01*
X250342775Y-66466771D02*
X251422775Y-66466771D01*
X250342775Y-67516771D02*
X251422775Y-67516771D01*
X250872775Y-66576771D02*
X250342775Y-67486771D01*
X250882775Y-66566771D02*
X251422775Y-67516771D01*
X249872775Y-65436771D02*
X251872775Y-65436771D01*
X250882775Y-65176771D02*
X250882775Y-66456771D01*
X250882775Y-68636771D02*
X250882775Y-67516771D01*
X249872775Y-68426771D02*
X251862775Y-68426771D01*
X251872775Y-65436771D02*
X251862775Y-68426771D01*
X249872775Y-65446771D02*
X249872775Y-68416771D01*
X247192002Y-64813242D02*
X248272002Y-64813242D01*
X247192002Y-65863242D02*
X248272002Y-65863242D01*
X247722002Y-64923242D02*
X247192002Y-65833242D01*
X247732002Y-64913242D02*
X248272002Y-65863242D01*
X246722002Y-63783242D02*
X248722002Y-63783242D01*
X247732002Y-63523242D02*
X247732002Y-64803242D01*
X247732002Y-66983242D02*
X247732002Y-65863242D01*
X246722002Y-66773242D02*
X248712002Y-66773242D01*
X248722002Y-63783242D02*
X248712002Y-66773242D01*
X246722002Y-63793242D02*
X246722002Y-66763242D01*
X269185366Y-69773829D02*
X270265366Y-69773829D01*
X269185366Y-70823829D02*
X270265366Y-70823829D01*
X269715366Y-69883829D02*
X269185366Y-70793829D01*
X269725366Y-69873829D02*
X270265366Y-70823829D01*
X268715366Y-68743829D02*
X270715366Y-68743829D01*
X269725366Y-68483829D02*
X269725366Y-69763829D01*
X269725366Y-71943829D02*
X269725366Y-70823829D01*
X268715366Y-71733829D02*
X270705366Y-71733829D01*
X270715366Y-68743829D02*
X270705366Y-71733829D01*
X268715366Y-68753829D02*
X268715366Y-71723829D01*
X253431499Y-68120300D02*
X254511499Y-68120300D01*
X253431499Y-69170300D02*
X254511499Y-69170300D01*
X253961499Y-68230300D02*
X253431499Y-69140300D01*
X253971499Y-68220300D02*
X254511499Y-69170300D01*
X252961499Y-67090300D02*
X254961499Y-67090300D01*
X253971499Y-66830300D02*
X253971499Y-68110300D01*
X253971499Y-70290300D02*
X253971499Y-69170300D01*
X252961499Y-70080300D02*
X254951499Y-70080300D01*
X254961499Y-67090300D02*
X254951499Y-70080300D01*
X252961499Y-67100300D02*
X252961499Y-70070300D01*
X291951516Y-69479826D02*
X291951516Y-72449826D01*
X293951516Y-69469826D02*
X293941516Y-72459826D01*
X291951516Y-72459826D02*
X293941516Y-72459826D01*
X292961516Y-72669826D02*
X292961516Y-71549826D01*
X292961516Y-69209826D02*
X292961516Y-70489826D01*
X291951516Y-69469826D02*
X293951516Y-69469826D01*
X292961516Y-70599826D02*
X293501516Y-71549826D01*
X292951516Y-70609826D02*
X292421516Y-71519826D01*
X292421516Y-71549826D02*
X293501516Y-71549826D01*
X292421516Y-70499826D02*
X293501516Y-70499826D01*
X289081844Y-69479826D02*
X289081844Y-72449826D01*
X291081844Y-69469826D02*
X291071844Y-72459826D01*
X289081844Y-72459826D02*
X291071844Y-72459826D01*
X290091844Y-72669826D02*
X290091844Y-71549826D01*
X290091844Y-69209826D02*
X290091844Y-70489826D01*
X289081844Y-69469826D02*
X291081844Y-69469826D01*
X290091844Y-70599826D02*
X290631844Y-71549826D01*
X290081844Y-70609826D02*
X289551844Y-71519826D01*
X289551844Y-71549826D02*
X290631844Y-71549826D01*
X289551844Y-70499826D02*
X290631844Y-70499826D01*
X252012266Y-58083704D02*
X252012266Y-56583704D01*
X250762266Y-54083704D02*
X246262266Y-54083704D01*
X245012266Y-56583704D02*
X245012266Y-58083704D01*
X246262266Y-60583704D02*
X250762266Y-60583704D01*
X332132064Y-53103808D02*
X336672064Y-53103808D01*
X332132064Y-55243808D02*
X336672064Y-55243808D01*
X332132064Y-53103808D02*
X332132064Y-53118808D01*
X332132064Y-55228808D02*
X332132064Y-55243808D01*
X336672064Y-53103808D02*
X336672064Y-53118808D01*
X336672064Y-55228808D02*
X336672064Y-55243808D01*
X332017596Y-75019046D02*
X332017596Y-75034046D01*
X332017596Y-72894046D02*
X332017596Y-72909046D01*
X327477596Y-75019046D02*
X327477596Y-75034046D01*
X327477596Y-72894046D02*
X327477596Y-72909046D01*
X327477596Y-75034046D02*
X332017596Y-75034046D01*
X327477596Y-72894046D02*
X332017596Y-72894046D01*
X305199964Y-63016812D02*
G75*
G02X305199964Y-65016812I0J-1000000D01*
G01*
X305199964Y-65016812D02*
X305199964Y-70476812D01*
X305199964Y-70476812D02*
X356119964Y-70476812D01*
X356119964Y-70476812D02*
X356119964Y-57556812D01*
X356119964Y-57556812D02*
X305199964Y-57556812D01*
X305199964Y-57556812D02*
X305199964Y-63016812D01*
X296472850Y-70893147D02*
X297422850Y-70893147D01*
X302212850Y-70893147D02*
X301262850Y-70893147D01*
X297422850Y-71813147D02*
X301262850Y-71813147D01*
X297422850Y-69973147D02*
X297422850Y-71813147D01*
X301262850Y-69973147D02*
X297422850Y-69973147D01*
X301262850Y-71813147D02*
X301262850Y-69973147D01*
X301262850Y-69319682D02*
X301262850Y-67479682D01*
X301262850Y-67479682D02*
X297422850Y-67479682D01*
X297422850Y-67479682D02*
X297422850Y-69319682D01*
X297422850Y-69319682D02*
X301262850Y-69319682D01*
X302212850Y-68399682D02*
X301262850Y-68399682D01*
X296472850Y-68399682D02*
X297422850Y-68399682D01*
X301262850Y-74306612D02*
X301262850Y-72466612D01*
X301262850Y-72466612D02*
X297422850Y-72466612D01*
X297422850Y-72466612D02*
X297422850Y-74306612D01*
X297422850Y-74306612D02*
X301262850Y-74306612D01*
X302212850Y-73386612D02*
X301262850Y-73386612D01*
X296472850Y-73386612D02*
X297422850Y-73386612D01*
X349602646Y-76632670D02*
X349602646Y-75374670D01*
X347762646Y-76632670D02*
X347762646Y-75374670D01*
X333536772Y-76632670D02*
X333536772Y-75374670D01*
X335376772Y-76632670D02*
X335376772Y-75374670D01*
X338388178Y-72978870D02*
G75*
G03X338388178Y-78028870I0J-2525000D01*
G01*
X344788178Y-72978870D02*
G75*
G02X344788178Y-78028870I0J-2525000D01*
G01*
X344788178Y-72978870D02*
X338388178Y-72978870D01*
X344788178Y-78028870D02*
X338388178Y-78028870D01*
X293374210Y-64902496D02*
G75*
G03X293374210Y-64902496I-2120000J0D01*
G01*
X292094210Y-64902496D02*
X293334210Y-64902496D01*
X289174210Y-64902496D02*
X290414210Y-64902496D01*
X292094210Y-64862496D02*
X293334210Y-64862496D01*
X289174210Y-64862496D02*
X290414210Y-64862496D01*
X292094210Y-64822496D02*
X293333210Y-64822496D01*
X289175210Y-64822496D02*
X290414210Y-64822496D01*
X289177210Y-64782496D02*
X290414210Y-64782496D01*
X292094210Y-64782496D02*
X293331210Y-64782496D01*
X289180210Y-64742496D02*
X290414210Y-64742496D01*
X292094210Y-64742496D02*
X293328210Y-64742496D01*
X289183210Y-64702496D02*
X290414210Y-64702496D01*
X292094210Y-64702496D02*
X293325210Y-64702496D01*
X289187210Y-64662496D02*
X290414210Y-64662496D01*
X292094210Y-64662496D02*
X293321210Y-64662496D01*
X289192210Y-64622496D02*
X290414210Y-64622496D01*
X292094210Y-64622496D02*
X293316210Y-64622496D01*
X289198210Y-64582496D02*
X290414210Y-64582496D01*
X292094210Y-64582496D02*
X293310210Y-64582496D01*
X289204210Y-64542496D02*
X290414210Y-64542496D01*
X292094210Y-64542496D02*
X293304210Y-64542496D01*
X289212210Y-64502496D02*
X290414210Y-64502496D01*
X292094210Y-64502496D02*
X293296210Y-64502496D01*
X289220210Y-64462496D02*
X290414210Y-64462496D01*
X292094210Y-64462496D02*
X293288210Y-64462496D01*
X289229210Y-64422496D02*
X290414210Y-64422496D01*
X292094210Y-64422496D02*
X293279210Y-64422496D01*
X289238210Y-64382496D02*
X290414210Y-64382496D01*
X292094210Y-64382496D02*
X293270210Y-64382496D01*
X289249210Y-64342496D02*
X290414210Y-64342496D01*
X292094210Y-64342496D02*
X293259210Y-64342496D01*
X289260210Y-64302496D02*
X290414210Y-64302496D01*
X292094210Y-64302496D02*
X293248210Y-64302496D01*
X289272210Y-64262496D02*
X290414210Y-64262496D01*
X292094210Y-64262496D02*
X293236210Y-64262496D01*
X289286210Y-64222496D02*
X290414210Y-64222496D01*
X292094210Y-64222496D02*
X293222210Y-64222496D01*
X289300210Y-64181496D02*
X290414210Y-64181496D01*
X292094210Y-64181496D02*
X293208210Y-64181496D01*
X289314210Y-64141496D02*
X290414210Y-64141496D01*
X292094210Y-64141496D02*
X293194210Y-64141496D01*
X289330210Y-64101496D02*
X290414210Y-64101496D01*
X292094210Y-64101496D02*
X293178210Y-64101496D01*
X289347210Y-64061496D02*
X290414210Y-64061496D01*
X292094210Y-64061496D02*
X293161210Y-64061496D01*
X289365210Y-64021496D02*
X290414210Y-64021496D01*
X292094210Y-64021496D02*
X293143210Y-64021496D01*
X289384210Y-63981496D02*
X290414210Y-63981496D01*
X292094210Y-63981496D02*
X293124210Y-63981496D01*
X289403210Y-63941496D02*
X290414210Y-63941496D01*
X292094210Y-63941496D02*
X293105210Y-63941496D01*
X289424210Y-63901496D02*
X290414210Y-63901496D01*
X292094210Y-63901496D02*
X293084210Y-63901496D01*
X289446210Y-63861496D02*
X290414210Y-63861496D01*
X292094210Y-63861496D02*
X293062210Y-63861496D01*
X289469210Y-63821496D02*
X290414210Y-63821496D01*
X292094210Y-63821496D02*
X293039210Y-63821496D01*
X289494210Y-63781496D02*
X290414210Y-63781496D01*
X292094210Y-63781496D02*
X293014210Y-63781496D01*
X289519210Y-63741496D02*
X290414210Y-63741496D01*
X292094210Y-63741496D02*
X292989210Y-63741496D01*
X289546210Y-63701496D02*
X290414210Y-63701496D01*
X292094210Y-63701496D02*
X292962210Y-63701496D01*
X289574210Y-63661496D02*
X290414210Y-63661496D01*
X292094210Y-63661496D02*
X292934210Y-63661496D01*
X289604210Y-63621496D02*
X290414210Y-63621496D01*
X292094210Y-63621496D02*
X292904210Y-63621496D01*
X289635210Y-63581496D02*
X290414210Y-63581496D01*
X292094210Y-63581496D02*
X292873210Y-63581496D01*
X289667210Y-63541496D02*
X290414210Y-63541496D01*
X292094210Y-63541496D02*
X292841210Y-63541496D01*
X289702210Y-63501496D02*
X290414210Y-63501496D01*
X292094210Y-63501496D02*
X292806210Y-63501496D01*
X289738210Y-63461496D02*
X290414210Y-63461496D01*
X292094210Y-63461496D02*
X292770210Y-63461496D01*
X289776210Y-63421496D02*
X290414210Y-63421496D01*
X292094210Y-63421496D02*
X292732210Y-63421496D01*
X289816210Y-63381496D02*
X290414210Y-63381496D01*
X292094210Y-63381496D02*
X292692210Y-63381496D01*
X289858210Y-63341496D02*
X290414210Y-63341496D01*
X292094210Y-63341496D02*
X292650210Y-63341496D01*
X289903210Y-63301496D02*
X292605210Y-63301496D01*
X289950210Y-63261496D02*
X292558210Y-63261496D01*
X290000210Y-63221496D02*
X292508210Y-63221496D01*
X290054210Y-63181496D02*
X292454210Y-63181496D01*
X290112210Y-63141496D02*
X292396210Y-63141496D01*
X290174210Y-63101496D02*
X292334210Y-63101496D01*
X290241210Y-63061496D02*
X292267210Y-63061496D01*
X290314210Y-63021496D02*
X292194210Y-63021496D01*
X290395210Y-62981496D02*
X292113210Y-62981496D01*
X290486210Y-62941496D02*
X292022210Y-62941496D01*
X290590210Y-62901496D02*
X291918210Y-62901496D01*
X290717210Y-62861496D02*
X291791210Y-62861496D01*
X290884210Y-62821496D02*
X291624210Y-62821496D01*
X290059210Y-67172297D02*
X290059210Y-66772297D01*
X289859210Y-66972297D02*
X290259210Y-66972297D01*
X234262266Y-60583704D02*
X238762266Y-60583704D01*
X233012266Y-56583704D02*
X233012266Y-58083704D01*
X238762266Y-54083704D02*
X234262266Y-54083704D01*
X240012266Y-58083704D02*
X240012266Y-56583704D01*
X293846585Y-56139852D02*
G75*
G03X290614250Y-55982944I-1672335J-1078608D01*
G01*
X293846585Y-58297068D02*
G75*
G02X290614250Y-58453976I-1672335J1078608D01*
G01*
X293215380Y-56138623D02*
G75*
G03X291133289Y-56138460I-1041130J-1079837D01*
G01*
X293215380Y-58298297D02*
G75*
G02X291133289Y-58298460I-1041130J1079837D01*
G01*
X290614250Y-55982460D02*
X290614250Y-56138460D01*
X290614250Y-58298460D02*
X290614250Y-58454460D01*
X297422850Y-59894664D02*
X297422850Y-61734664D01*
X297422850Y-61734664D02*
X301262850Y-61734664D01*
X301262850Y-61734664D02*
X301262850Y-59894664D01*
X301262850Y-59894664D02*
X297422850Y-59894664D01*
X296472850Y-60814664D02*
X297422850Y-60814664D01*
X302212850Y-60814664D02*
X301262850Y-60814664D01*
X301262850Y-59240834D02*
X301262850Y-57400834D01*
X301262850Y-57400834D02*
X297422850Y-57400834D01*
X297422850Y-57400834D02*
X297422850Y-59240834D01*
X297422850Y-59240834D02*
X301262850Y-59240834D01*
X302212850Y-58320834D02*
X301262850Y-58320834D01*
X296472850Y-58320834D02*
X297422850Y-58320834D01*
D12*
X282605654Y-53546130D02*
X282605654Y-54355654D01*
X282653273Y-54450892D01*
X282700892Y-54498511D01*
X282796130Y-54546130D01*
X282986607Y-54546130D01*
X283081845Y-54498511D01*
X283129464Y-54450892D01*
X283177083Y-54355654D01*
X283177083Y-53546130D01*
X283605654Y-54498511D02*
X283748511Y-54546130D01*
X283986607Y-54546130D01*
X284081845Y-54498511D01*
X284129464Y-54450892D01*
X284177083Y-54355654D01*
X284177083Y-54260416D01*
X284129464Y-54165178D01*
X284081845Y-54117559D01*
X283986607Y-54069940D01*
X283796130Y-54022321D01*
X283700892Y-53974702D01*
X283653273Y-53927083D01*
X283605654Y-53831845D01*
X283605654Y-53736607D01*
X283653273Y-53641369D01*
X283700892Y-53593750D01*
X283796130Y-53546130D01*
X284034226Y-53546130D01*
X284177083Y-53593750D01*
X284938988Y-54022321D02*
X285081845Y-54069940D01*
X285129464Y-54117559D01*
X285177083Y-54212797D01*
X285177083Y-54355654D01*
X285129464Y-54450892D01*
X285081845Y-54498511D01*
X284986607Y-54546130D01*
X284605654Y-54546130D01*
X284605654Y-53546130D01*
X284938988Y-53546130D01*
X285034226Y-53593750D01*
X285081845Y-53641369D01*
X285129464Y-53736607D01*
X285129464Y-53831845D01*
X285081845Y-53927083D01*
X285034226Y-53974702D01*
X284938988Y-54022321D01*
X284605654Y-54022321D01*
X286129464Y-54546130D02*
X285558035Y-54546130D01*
X285843750Y-54546130D02*
X285843750Y-53546130D01*
X285748511Y-53688988D01*
X285653273Y-53784226D01*
X285558035Y-53831845D01*
D10*
X183324499Y-168738744D02*
X183991165Y-168738744D01*
X183562594Y-169738744D01*
X184372118Y-168738744D02*
X184372118Y-169548268D01*
X184419737Y-169643506D01*
X184467356Y-169691125D01*
X184562594Y-169738744D01*
X184753070Y-169738744D01*
X184848308Y-169691125D01*
X184895927Y-169643506D01*
X184943546Y-169548268D01*
X184943546Y-168738744D01*
D12*
X276782719Y-58437991D02*
X276782719Y-58771325D01*
X277306528Y-58771325D02*
X276306528Y-58771325D01*
X276306528Y-58295134D01*
X276306528Y-57914182D02*
X277116052Y-57914182D01*
X277211290Y-57866563D01*
X277258909Y-57818944D01*
X277306528Y-57723706D01*
X277306528Y-57533229D01*
X277258909Y-57437991D01*
X277211290Y-57390372D01*
X277116052Y-57342753D01*
X276306528Y-57342753D01*
X277258909Y-56914182D02*
X277306528Y-56771325D01*
X277306528Y-56533229D01*
X277258909Y-56437991D01*
X277211290Y-56390372D01*
X277116052Y-56342753D01*
X277020814Y-56342753D01*
X276925576Y-56390372D01*
X276877957Y-56437991D01*
X276830338Y-56533229D01*
X276782719Y-56723706D01*
X276735100Y-56818944D01*
X276687481Y-56866563D01*
X276592243Y-56914182D01*
X276497005Y-56914182D01*
X276401767Y-56866563D01*
X276354148Y-56818944D01*
X276306528Y-56723706D01*
X276306528Y-56485610D01*
X276354148Y-56342753D01*
X276782719Y-55914182D02*
X276782719Y-55580848D01*
X277306528Y-55437991D02*
X277306528Y-55914182D01*
X276306528Y-55914182D01*
X276306528Y-55437991D01*
X70014913Y-69632765D02*
X70814913Y-69632765D01*
X70814913Y-69823242D01*
X70776818Y-69937527D01*
X70700627Y-70013718D01*
X70624437Y-70051813D01*
X70472056Y-70089908D01*
X70357770Y-70089908D01*
X70205389Y-70051813D01*
X70129198Y-70013718D01*
X70053008Y-69937527D01*
X70014913Y-69823242D01*
X70014913Y-69632765D01*
X70014913Y-70851813D02*
X70014913Y-70394670D01*
X70014913Y-70623242D02*
X70814913Y-70623242D01*
X70700627Y-70547051D01*
X70624437Y-70470861D01*
X70586341Y-70394670D01*
X79523302Y-74212400D02*
X80323302Y-74212400D01*
X80323302Y-74402876D01*
X80285207Y-74517162D01*
X80209016Y-74593352D01*
X80132826Y-74631448D01*
X79980445Y-74669543D01*
X79866159Y-74669543D01*
X79713778Y-74631448D01*
X79637587Y-74593352D01*
X79561397Y-74517162D01*
X79523302Y-74402876D01*
X79523302Y-74212400D01*
X80056635Y-75355257D02*
X79523302Y-75355257D01*
X80361397Y-75164781D02*
X79789968Y-74974305D01*
X79789968Y-75469543D01*
X80323302Y-76155257D02*
X80323302Y-75774305D01*
X79942349Y-75736209D01*
X79980445Y-75774305D01*
X80018540Y-75850495D01*
X80018540Y-76040971D01*
X79980445Y-76117162D01*
X79942349Y-76155257D01*
X79866159Y-76193352D01*
X79675683Y-76193352D01*
X79599492Y-76155257D01*
X79561397Y-76117162D01*
X79523302Y-76040971D01*
X79523302Y-75850495D01*
X79561397Y-75774305D01*
X79599492Y-75736209D01*
X92201154Y-74593352D02*
X93001154Y-74593352D01*
X93001154Y-74783829D01*
X92963059Y-74898114D01*
X92886868Y-74974305D01*
X92810678Y-75012400D01*
X92658297Y-75050495D01*
X92544011Y-75050495D01*
X92391630Y-75012400D01*
X92315439Y-74974305D01*
X92239249Y-74898114D01*
X92201154Y-74783829D01*
X92201154Y-74593352D01*
X92924963Y-75355257D02*
X92963059Y-75393352D01*
X93001154Y-75469543D01*
X93001154Y-75660019D01*
X92963059Y-75736209D01*
X92924963Y-75774305D01*
X92848773Y-75812400D01*
X92772582Y-75812400D01*
X92658297Y-75774305D01*
X92201154Y-75317162D01*
X92201154Y-75812400D01*
X95370617Y-69632765D02*
X96170617Y-69632765D01*
X96170617Y-69823242D01*
X96132522Y-69937527D01*
X96056331Y-70013718D01*
X95980141Y-70051813D01*
X95827760Y-70089908D01*
X95713474Y-70089908D01*
X95561093Y-70051813D01*
X95484902Y-70013718D01*
X95408712Y-69937527D01*
X95370617Y-69823242D01*
X95370617Y-69632765D01*
X96170617Y-70356575D02*
X96170617Y-70851813D01*
X95865855Y-70585146D01*
X95865855Y-70699432D01*
X95827760Y-70775622D01*
X95789664Y-70813718D01*
X95713474Y-70851813D01*
X95522998Y-70851813D01*
X95446807Y-70813718D01*
X95408712Y-70775622D01*
X95370617Y-70699432D01*
X95370617Y-70470861D01*
X95408712Y-70394670D01*
X95446807Y-70356575D01*
X108048469Y-69632765D02*
X108848469Y-69632765D01*
X108848469Y-69823242D01*
X108810374Y-69937527D01*
X108734183Y-70013718D01*
X108657993Y-70051813D01*
X108505612Y-70089908D01*
X108391326Y-70089908D01*
X108238945Y-70051813D01*
X108162754Y-70013718D01*
X108086564Y-69937527D01*
X108048469Y-69823242D01*
X108048469Y-69632765D01*
X108581802Y-70775622D02*
X108048469Y-70775622D01*
X108886564Y-70585146D02*
X108315135Y-70394670D01*
X108315135Y-70889908D01*
X120726321Y-69632765D02*
X121526321Y-69632765D01*
X121526321Y-69823242D01*
X121488226Y-69937527D01*
X121412035Y-70013718D01*
X121335845Y-70051813D01*
X121183464Y-70089908D01*
X121069178Y-70089908D01*
X120916797Y-70051813D01*
X120840606Y-70013718D01*
X120764416Y-69937527D01*
X120726321Y-69823242D01*
X120726321Y-69632765D01*
X121526321Y-70813718D02*
X121526321Y-70432765D01*
X121145368Y-70394670D01*
X121183464Y-70432765D01*
X121221559Y-70508956D01*
X121221559Y-70699432D01*
X121183464Y-70775622D01*
X121145368Y-70813718D01*
X121069178Y-70851813D01*
X120878702Y-70851813D01*
X120802511Y-70813718D01*
X120764416Y-70775622D01*
X120726321Y-70699432D01*
X120726321Y-70508956D01*
X120764416Y-70432765D01*
X120802511Y-70394670D01*
X133404173Y-69632765D02*
X134204173Y-69632765D01*
X134204173Y-69823242D01*
X134166078Y-69937527D01*
X134089887Y-70013718D01*
X134013697Y-70051813D01*
X133861316Y-70089908D01*
X133747030Y-70089908D01*
X133594649Y-70051813D01*
X133518458Y-70013718D01*
X133442268Y-69937527D01*
X133404173Y-69823242D01*
X133404173Y-69632765D01*
X134204173Y-70775622D02*
X134204173Y-70623242D01*
X134166078Y-70547051D01*
X134127982Y-70508956D01*
X134013697Y-70432765D01*
X133861316Y-70394670D01*
X133556554Y-70394670D01*
X133480363Y-70432765D01*
X133442268Y-70470861D01*
X133404173Y-70547051D01*
X133404173Y-70699432D01*
X133442268Y-70775622D01*
X133480363Y-70813718D01*
X133556554Y-70851813D01*
X133747030Y-70851813D01*
X133823220Y-70813718D01*
X133861316Y-70775622D01*
X133899411Y-70699432D01*
X133899411Y-70547051D01*
X133861316Y-70470861D01*
X133823220Y-70432765D01*
X133747030Y-70394670D01*
X146082025Y-69632765D02*
X146882025Y-69632765D01*
X146882025Y-69823242D01*
X146843930Y-69937527D01*
X146767739Y-70013718D01*
X146691549Y-70051813D01*
X146539168Y-70089908D01*
X146424882Y-70089908D01*
X146272501Y-70051813D01*
X146196310Y-70013718D01*
X146120120Y-69937527D01*
X146082025Y-69823242D01*
X146082025Y-69632765D01*
X146882025Y-70356575D02*
X146882025Y-70889908D01*
X146082025Y-70547051D01*
X158759877Y-69632765D02*
X159559877Y-69632765D01*
X159559877Y-69823242D01*
X159521782Y-69937527D01*
X159445591Y-70013718D01*
X159369401Y-70051813D01*
X159217020Y-70089908D01*
X159102734Y-70089908D01*
X158950353Y-70051813D01*
X158874162Y-70013718D01*
X158797972Y-69937527D01*
X158759877Y-69823242D01*
X158759877Y-69632765D01*
X159217020Y-70547051D02*
X159255115Y-70470861D01*
X159293210Y-70432765D01*
X159369401Y-70394670D01*
X159407496Y-70394670D01*
X159483686Y-70432765D01*
X159521782Y-70470861D01*
X159559877Y-70547051D01*
X159559877Y-70699432D01*
X159521782Y-70775622D01*
X159483686Y-70813718D01*
X159407496Y-70851813D01*
X159369401Y-70851813D01*
X159293210Y-70813718D01*
X159255115Y-70775622D01*
X159217020Y-70699432D01*
X159217020Y-70547051D01*
X159178924Y-70470861D01*
X159140829Y-70432765D01*
X159064639Y-70394670D01*
X158912258Y-70394670D01*
X158836067Y-70432765D01*
X158797972Y-70470861D01*
X158759877Y-70547051D01*
X158759877Y-70699432D01*
X158797972Y-70775622D01*
X158836067Y-70813718D01*
X158912258Y-70851813D01*
X159064639Y-70851813D01*
X159140829Y-70813718D01*
X159178924Y-70775622D01*
X159217020Y-70699432D01*
X171437729Y-69632765D02*
X172237729Y-69632765D01*
X172237729Y-69823242D01*
X172199634Y-69937527D01*
X172123443Y-70013718D01*
X172047253Y-70051813D01*
X171894872Y-70089908D01*
X171780586Y-70089908D01*
X171628205Y-70051813D01*
X171552014Y-70013718D01*
X171475824Y-69937527D01*
X171437729Y-69823242D01*
X171437729Y-69632765D01*
X171437729Y-70470861D02*
X171437729Y-70623242D01*
X171475824Y-70699432D01*
X171513919Y-70737527D01*
X171628205Y-70813718D01*
X171780586Y-70851813D01*
X172085348Y-70851813D01*
X172161538Y-70813718D01*
X172199634Y-70775622D01*
X172237729Y-70699432D01*
X172237729Y-70547051D01*
X172199634Y-70470861D01*
X172161538Y-70432765D01*
X172085348Y-70394670D01*
X171894872Y-70394670D01*
X171818681Y-70432765D01*
X171780586Y-70470861D01*
X171742491Y-70547051D01*
X171742491Y-70699432D01*
X171780586Y-70775622D01*
X171818681Y-70813718D01*
X171894872Y-70851813D01*
X184115581Y-69251813D02*
X184915581Y-69251813D01*
X184915581Y-69442289D01*
X184877486Y-69556575D01*
X184801295Y-69632765D01*
X184725105Y-69670861D01*
X184572724Y-69708956D01*
X184458438Y-69708956D01*
X184306057Y-69670861D01*
X184229866Y-69632765D01*
X184153676Y-69556575D01*
X184115581Y-69442289D01*
X184115581Y-69251813D01*
X184115581Y-70470861D02*
X184115581Y-70013718D01*
X184115581Y-70242289D02*
X184915581Y-70242289D01*
X184801295Y-70166099D01*
X184725105Y-70089908D01*
X184687009Y-70013718D01*
X184915581Y-70966099D02*
X184915581Y-71042289D01*
X184877486Y-71118480D01*
X184839390Y-71156575D01*
X184763200Y-71194670D01*
X184610819Y-71232765D01*
X184420343Y-71232765D01*
X184267962Y-71194670D01*
X184191771Y-71156575D01*
X184153676Y-71118480D01*
X184115581Y-71042289D01*
X184115581Y-70966099D01*
X184153676Y-70889908D01*
X184191771Y-70851813D01*
X184267962Y-70813718D01*
X184420343Y-70775622D01*
X184610819Y-70775622D01*
X184763200Y-70813718D01*
X184839390Y-70851813D01*
X184877486Y-70889908D01*
X184915581Y-70966099D01*
X196793433Y-69251813D02*
X197593433Y-69251813D01*
X197593433Y-69442289D01*
X197555338Y-69556575D01*
X197479147Y-69632765D01*
X197402957Y-69670861D01*
X197250576Y-69708956D01*
X197136290Y-69708956D01*
X196983909Y-69670861D01*
X196907718Y-69632765D01*
X196831528Y-69556575D01*
X196793433Y-69442289D01*
X196793433Y-69251813D01*
X196793433Y-70470861D02*
X196793433Y-70013718D01*
X196793433Y-70242289D02*
X197593433Y-70242289D01*
X197479147Y-70166099D01*
X197402957Y-70089908D01*
X197364861Y-70013718D01*
X196793433Y-71232765D02*
X196793433Y-70775622D01*
X196793433Y-71004194D02*
X197593433Y-71004194D01*
X197479147Y-70928003D01*
X197402957Y-70851813D01*
X197364861Y-70775622D01*
X209471285Y-69251813D02*
X210271285Y-69251813D01*
X210271285Y-69442289D01*
X210233190Y-69556575D01*
X210156999Y-69632765D01*
X210080809Y-69670861D01*
X209928428Y-69708956D01*
X209814142Y-69708956D01*
X209661761Y-69670861D01*
X209585570Y-69632765D01*
X209509380Y-69556575D01*
X209471285Y-69442289D01*
X209471285Y-69251813D01*
X209471285Y-70470861D02*
X209471285Y-70013718D01*
X209471285Y-70242289D02*
X210271285Y-70242289D01*
X210156999Y-70166099D01*
X210080809Y-70089908D01*
X210042713Y-70013718D01*
X210195094Y-70775622D02*
X210233190Y-70813718D01*
X210271285Y-70889908D01*
X210271285Y-71080384D01*
X210233190Y-71156575D01*
X210195094Y-71194670D01*
X210118904Y-71232765D01*
X210042713Y-71232765D01*
X209928428Y-71194670D01*
X209471285Y-70737527D01*
X209471285Y-71232765D01*
X222149137Y-69251813D02*
X222949137Y-69251813D01*
X222949137Y-69442289D01*
X222911042Y-69556575D01*
X222834851Y-69632765D01*
X222758661Y-69670861D01*
X222606280Y-69708956D01*
X222491994Y-69708956D01*
X222339613Y-69670861D01*
X222263422Y-69632765D01*
X222187232Y-69556575D01*
X222149137Y-69442289D01*
X222149137Y-69251813D01*
X222149137Y-70470861D02*
X222149137Y-70013718D01*
X222149137Y-70242289D02*
X222949137Y-70242289D01*
X222834851Y-70166099D01*
X222758661Y-70089908D01*
X222720565Y-70013718D01*
X222949137Y-70737527D02*
X222949137Y-71232765D01*
X222644375Y-70966099D01*
X222644375Y-71080384D01*
X222606280Y-71156575D01*
X222568184Y-71194670D01*
X222491994Y-71232765D01*
X222301518Y-71232765D01*
X222225327Y-71194670D01*
X222187232Y-71156575D01*
X222149137Y-71080384D01*
X222149137Y-70851813D01*
X222187232Y-70775622D01*
X222225327Y-70737527D01*
X234757005Y-69251813D02*
X235557005Y-69251813D01*
X235557005Y-69442289D01*
X235518910Y-69556575D01*
X235442719Y-69632765D01*
X235366529Y-69670861D01*
X235214148Y-69708956D01*
X235099862Y-69708956D01*
X234947481Y-69670861D01*
X234871290Y-69632765D01*
X234795100Y-69556575D01*
X234757005Y-69442289D01*
X234757005Y-69251813D01*
X234757005Y-70470861D02*
X234757005Y-70013718D01*
X234757005Y-70242289D02*
X235557005Y-70242289D01*
X235442719Y-70166099D01*
X235366529Y-70089908D01*
X235328433Y-70013718D01*
X235290338Y-71156575D02*
X234757005Y-71156575D01*
X235595100Y-70966099D02*
X235023671Y-70775622D01*
X235023671Y-71270861D01*
X281956558Y-74212400D02*
X282756558Y-74212400D01*
X282756558Y-74402876D01*
X282718463Y-74517162D01*
X282642272Y-74593352D01*
X282566082Y-74631448D01*
X282413701Y-74669543D01*
X282299415Y-74669543D01*
X282147034Y-74631448D01*
X282070843Y-74593352D01*
X281994653Y-74517162D01*
X281956558Y-74402876D01*
X281956558Y-74212400D01*
X281956558Y-75431448D02*
X281956558Y-74974305D01*
X281956558Y-75202876D02*
X282756558Y-75202876D01*
X282642272Y-75126686D01*
X282566082Y-75050495D01*
X282527986Y-74974305D01*
X282756558Y-76155257D02*
X282756558Y-75774305D01*
X282375605Y-75736209D01*
X282413701Y-75774305D01*
X282451796Y-75850495D01*
X282451796Y-76040971D01*
X282413701Y-76117162D01*
X282375605Y-76155257D01*
X282299415Y-76193352D01*
X282108939Y-76193352D01*
X282032748Y-76155257D01*
X281994653Y-76117162D01*
X281956558Y-76040971D01*
X281956558Y-75850495D01*
X281994653Y-75774305D01*
X282032748Y-75736209D01*
X73184376Y-70905342D02*
X73984376Y-70905342D01*
X73984376Y-71095818D01*
X73946281Y-71210104D01*
X73870090Y-71286294D01*
X73793900Y-71324390D01*
X73641519Y-71362485D01*
X73527233Y-71362485D01*
X73374852Y-71324390D01*
X73298661Y-71286294D01*
X73222471Y-71210104D01*
X73184376Y-71095818D01*
X73184376Y-70905342D01*
X73184376Y-72124390D02*
X73184376Y-71667247D01*
X73184376Y-71895818D02*
X73984376Y-71895818D01*
X73870090Y-71819628D01*
X73793900Y-71743437D01*
X73755804Y-71667247D01*
X73984376Y-72810104D02*
X73984376Y-72657723D01*
X73946281Y-72581532D01*
X73908185Y-72543437D01*
X73793900Y-72467247D01*
X73641519Y-72429151D01*
X73336757Y-72429151D01*
X73260566Y-72467247D01*
X73222471Y-72505342D01*
X73184376Y-72581532D01*
X73184376Y-72733913D01*
X73222471Y-72810104D01*
X73260566Y-72848199D01*
X73336757Y-72886294D01*
X73527233Y-72886294D01*
X73603423Y-72848199D01*
X73641519Y-72810104D01*
X73679614Y-72733913D01*
X73679614Y-72581532D01*
X73641519Y-72505342D01*
X73603423Y-72467247D01*
X73527233Y-72429151D01*
X89031691Y-72558871D02*
X89831691Y-72558871D01*
X89831691Y-72749347D01*
X89793596Y-72863633D01*
X89717405Y-72939823D01*
X89641215Y-72977919D01*
X89488834Y-73016014D01*
X89374548Y-73016014D01*
X89222167Y-72977919D01*
X89145976Y-72939823D01*
X89069786Y-72863633D01*
X89031691Y-72749347D01*
X89031691Y-72558871D01*
X89031691Y-73777919D02*
X89031691Y-73320776D01*
X89031691Y-73549347D02*
X89831691Y-73549347D01*
X89717405Y-73473157D01*
X89641215Y-73396966D01*
X89603119Y-73320776D01*
X89831691Y-74044585D02*
X89831691Y-74577919D01*
X89031691Y-74235061D01*
X98540080Y-70905342D02*
X99340080Y-70905342D01*
X99340080Y-71095818D01*
X99301985Y-71210104D01*
X99225794Y-71286294D01*
X99149604Y-71324390D01*
X98997223Y-71362485D01*
X98882937Y-71362485D01*
X98730556Y-71324390D01*
X98654365Y-71286294D01*
X98578175Y-71210104D01*
X98540080Y-71095818D01*
X98540080Y-70905342D01*
X98540080Y-72124390D02*
X98540080Y-71667247D01*
X98540080Y-71895818D02*
X99340080Y-71895818D01*
X99225794Y-71819628D01*
X99149604Y-71743437D01*
X99111508Y-71667247D01*
X98997223Y-72581532D02*
X99035318Y-72505342D01*
X99073413Y-72467247D01*
X99149604Y-72429151D01*
X99187699Y-72429151D01*
X99263889Y-72467247D01*
X99301985Y-72505342D01*
X99340080Y-72581532D01*
X99340080Y-72733913D01*
X99301985Y-72810104D01*
X99263889Y-72848199D01*
X99187699Y-72886294D01*
X99149604Y-72886294D01*
X99073413Y-72848199D01*
X99035318Y-72810104D01*
X98997223Y-72733913D01*
X98997223Y-72581532D01*
X98959127Y-72505342D01*
X98921032Y-72467247D01*
X98844842Y-72429151D01*
X98692461Y-72429151D01*
X98616270Y-72467247D01*
X98578175Y-72505342D01*
X98540080Y-72581532D01*
X98540080Y-72733913D01*
X98578175Y-72810104D01*
X98616270Y-72848199D01*
X98692461Y-72886294D01*
X98844842Y-72886294D01*
X98921032Y-72848199D01*
X98959127Y-72810104D01*
X98997223Y-72733913D01*
X111217932Y-70905342D02*
X112017932Y-70905342D01*
X112017932Y-71095818D01*
X111979837Y-71210104D01*
X111903646Y-71286294D01*
X111827456Y-71324390D01*
X111675075Y-71362485D01*
X111560789Y-71362485D01*
X111408408Y-71324390D01*
X111332217Y-71286294D01*
X111256027Y-71210104D01*
X111217932Y-71095818D01*
X111217932Y-70905342D01*
X111217932Y-72124390D02*
X111217932Y-71667247D01*
X111217932Y-71895818D02*
X112017932Y-71895818D01*
X111903646Y-71819628D01*
X111827456Y-71743437D01*
X111789360Y-71667247D01*
X111217932Y-72505342D02*
X111217932Y-72657723D01*
X111256027Y-72733913D01*
X111294122Y-72772009D01*
X111408408Y-72848199D01*
X111560789Y-72886294D01*
X111865551Y-72886294D01*
X111941741Y-72848199D01*
X111979837Y-72810104D01*
X112017932Y-72733913D01*
X112017932Y-72581532D01*
X111979837Y-72505342D01*
X111941741Y-72467247D01*
X111865551Y-72429151D01*
X111675075Y-72429151D01*
X111598884Y-72467247D01*
X111560789Y-72505342D01*
X111522694Y-72581532D01*
X111522694Y-72733913D01*
X111560789Y-72810104D01*
X111598884Y-72848199D01*
X111675075Y-72886294D01*
X123895784Y-70905342D02*
X124695784Y-70905342D01*
X124695784Y-71095818D01*
X124657689Y-71210104D01*
X124581498Y-71286294D01*
X124505308Y-71324390D01*
X124352927Y-71362485D01*
X124238641Y-71362485D01*
X124086260Y-71324390D01*
X124010069Y-71286294D01*
X123933879Y-71210104D01*
X123895784Y-71095818D01*
X123895784Y-70905342D01*
X124619593Y-71667247D02*
X124657689Y-71705342D01*
X124695784Y-71781532D01*
X124695784Y-71972009D01*
X124657689Y-72048199D01*
X124619593Y-72086294D01*
X124543403Y-72124390D01*
X124467212Y-72124390D01*
X124352927Y-72086294D01*
X123895784Y-71629151D01*
X123895784Y-72124390D01*
X124695784Y-72619628D02*
X124695784Y-72695818D01*
X124657689Y-72772009D01*
X124619593Y-72810104D01*
X124543403Y-72848199D01*
X124391022Y-72886294D01*
X124200546Y-72886294D01*
X124048165Y-72848199D01*
X123971974Y-72810104D01*
X123933879Y-72772009D01*
X123895784Y-72695818D01*
X123895784Y-72619628D01*
X123933879Y-72543437D01*
X123971974Y-72505342D01*
X124048165Y-72467247D01*
X124200546Y-72429151D01*
X124391022Y-72429151D01*
X124543403Y-72467247D01*
X124619593Y-72505342D01*
X124657689Y-72543437D01*
X124695784Y-72619628D01*
X136573636Y-70905342D02*
X137373636Y-70905342D01*
X137373636Y-71095818D01*
X137335541Y-71210104D01*
X137259350Y-71286294D01*
X137183160Y-71324390D01*
X137030779Y-71362485D01*
X136916493Y-71362485D01*
X136764112Y-71324390D01*
X136687921Y-71286294D01*
X136611731Y-71210104D01*
X136573636Y-71095818D01*
X136573636Y-70905342D01*
X137297445Y-71667247D02*
X137335541Y-71705342D01*
X137373636Y-71781532D01*
X137373636Y-71972009D01*
X137335541Y-72048199D01*
X137297445Y-72086294D01*
X137221255Y-72124390D01*
X137145064Y-72124390D01*
X137030779Y-72086294D01*
X136573636Y-71629151D01*
X136573636Y-72124390D01*
X136573636Y-72886294D02*
X136573636Y-72429151D01*
X136573636Y-72657723D02*
X137373636Y-72657723D01*
X137259350Y-72581532D01*
X137183160Y-72505342D01*
X137145064Y-72429151D01*
X149251488Y-70905342D02*
X150051488Y-70905342D01*
X150051488Y-71095818D01*
X150013393Y-71210104D01*
X149937202Y-71286294D01*
X149861012Y-71324390D01*
X149708631Y-71362485D01*
X149594345Y-71362485D01*
X149441964Y-71324390D01*
X149365773Y-71286294D01*
X149289583Y-71210104D01*
X149251488Y-71095818D01*
X149251488Y-70905342D01*
X149975297Y-71667247D02*
X150013393Y-71705342D01*
X150051488Y-71781532D01*
X150051488Y-71972009D01*
X150013393Y-72048199D01*
X149975297Y-72086294D01*
X149899107Y-72124390D01*
X149822916Y-72124390D01*
X149708631Y-72086294D01*
X149251488Y-71629151D01*
X149251488Y-72124390D01*
X149975297Y-72429151D02*
X150013393Y-72467247D01*
X150051488Y-72543437D01*
X150051488Y-72733913D01*
X150013393Y-72810104D01*
X149975297Y-72848199D01*
X149899107Y-72886294D01*
X149822916Y-72886294D01*
X149708631Y-72848199D01*
X149251488Y-72391056D01*
X149251488Y-72886294D01*
X161929340Y-70905342D02*
X162729340Y-70905342D01*
X162729340Y-71095818D01*
X162691245Y-71210104D01*
X162615054Y-71286294D01*
X162538864Y-71324390D01*
X162386483Y-71362485D01*
X162272197Y-71362485D01*
X162119816Y-71324390D01*
X162043625Y-71286294D01*
X161967435Y-71210104D01*
X161929340Y-71095818D01*
X161929340Y-70905342D01*
X162653149Y-71667247D02*
X162691245Y-71705342D01*
X162729340Y-71781532D01*
X162729340Y-71972009D01*
X162691245Y-72048199D01*
X162653149Y-72086294D01*
X162576959Y-72124390D01*
X162500768Y-72124390D01*
X162386483Y-72086294D01*
X161929340Y-71629151D01*
X161929340Y-72124390D01*
X162729340Y-72391056D02*
X162729340Y-72886294D01*
X162424578Y-72619628D01*
X162424578Y-72733913D01*
X162386483Y-72810104D01*
X162348387Y-72848199D01*
X162272197Y-72886294D01*
X162081721Y-72886294D01*
X162005530Y-72848199D01*
X161967435Y-72810104D01*
X161929340Y-72733913D01*
X161929340Y-72505342D01*
X161967435Y-72429151D01*
X162005530Y-72391056D01*
X174607192Y-70905342D02*
X175407192Y-70905342D01*
X175407192Y-71095818D01*
X175369097Y-71210104D01*
X175292906Y-71286294D01*
X175216716Y-71324390D01*
X175064335Y-71362485D01*
X174950049Y-71362485D01*
X174797668Y-71324390D01*
X174721477Y-71286294D01*
X174645287Y-71210104D01*
X174607192Y-71095818D01*
X174607192Y-70905342D01*
X175331001Y-71667247D02*
X175369097Y-71705342D01*
X175407192Y-71781532D01*
X175407192Y-71972009D01*
X175369097Y-72048199D01*
X175331001Y-72086294D01*
X175254811Y-72124390D01*
X175178620Y-72124390D01*
X175064335Y-72086294D01*
X174607192Y-71629151D01*
X174607192Y-72124390D01*
X175140525Y-72810104D02*
X174607192Y-72810104D01*
X175445287Y-72619628D02*
X174873858Y-72429151D01*
X174873858Y-72924390D01*
X187285044Y-70905342D02*
X188085044Y-70905342D01*
X188085044Y-71095818D01*
X188046949Y-71210104D01*
X187970758Y-71286294D01*
X187894568Y-71324390D01*
X187742187Y-71362485D01*
X187627901Y-71362485D01*
X187475520Y-71324390D01*
X187399329Y-71286294D01*
X187323139Y-71210104D01*
X187285044Y-71095818D01*
X187285044Y-70905342D01*
X188008853Y-71667247D02*
X188046949Y-71705342D01*
X188085044Y-71781532D01*
X188085044Y-71972009D01*
X188046949Y-72048199D01*
X188008853Y-72086294D01*
X187932663Y-72124390D01*
X187856472Y-72124390D01*
X187742187Y-72086294D01*
X187285044Y-71629151D01*
X187285044Y-72124390D01*
X188085044Y-72848199D02*
X188085044Y-72467247D01*
X187704091Y-72429151D01*
X187742187Y-72467247D01*
X187780282Y-72543437D01*
X187780282Y-72733913D01*
X187742187Y-72810104D01*
X187704091Y-72848199D01*
X187627901Y-72886294D01*
X187437425Y-72886294D01*
X187361234Y-72848199D01*
X187323139Y-72810104D01*
X187285044Y-72733913D01*
X187285044Y-72543437D01*
X187323139Y-72467247D01*
X187361234Y-72429151D01*
X199962896Y-70905342D02*
X200762896Y-70905342D01*
X200762896Y-71095818D01*
X200724801Y-71210104D01*
X200648610Y-71286294D01*
X200572420Y-71324390D01*
X200420039Y-71362485D01*
X200305753Y-71362485D01*
X200153372Y-71324390D01*
X200077181Y-71286294D01*
X200000991Y-71210104D01*
X199962896Y-71095818D01*
X199962896Y-70905342D01*
X200686705Y-71667247D02*
X200724801Y-71705342D01*
X200762896Y-71781532D01*
X200762896Y-71972009D01*
X200724801Y-72048199D01*
X200686705Y-72086294D01*
X200610515Y-72124390D01*
X200534324Y-72124390D01*
X200420039Y-72086294D01*
X199962896Y-71629151D01*
X199962896Y-72124390D01*
X200762896Y-72810104D02*
X200762896Y-72657723D01*
X200724801Y-72581532D01*
X200686705Y-72543437D01*
X200572420Y-72467247D01*
X200420039Y-72429151D01*
X200115277Y-72429151D01*
X200039086Y-72467247D01*
X200000991Y-72505342D01*
X199962896Y-72581532D01*
X199962896Y-72733913D01*
X200000991Y-72810104D01*
X200039086Y-72848199D01*
X200115277Y-72886294D01*
X200305753Y-72886294D01*
X200381943Y-72848199D01*
X200420039Y-72810104D01*
X200458134Y-72733913D01*
X200458134Y-72581532D01*
X200420039Y-72505342D01*
X200381943Y-72467247D01*
X200305753Y-72429151D01*
X212640748Y-70905342D02*
X213440748Y-70905342D01*
X213440748Y-71095818D01*
X213402653Y-71210104D01*
X213326462Y-71286294D01*
X213250272Y-71324390D01*
X213097891Y-71362485D01*
X212983605Y-71362485D01*
X212831224Y-71324390D01*
X212755033Y-71286294D01*
X212678843Y-71210104D01*
X212640748Y-71095818D01*
X212640748Y-70905342D01*
X213364557Y-71667247D02*
X213402653Y-71705342D01*
X213440748Y-71781532D01*
X213440748Y-71972009D01*
X213402653Y-72048199D01*
X213364557Y-72086294D01*
X213288367Y-72124390D01*
X213212176Y-72124390D01*
X213097891Y-72086294D01*
X212640748Y-71629151D01*
X212640748Y-72124390D01*
X213440748Y-72391056D02*
X213440748Y-72924390D01*
X212640748Y-72581532D01*
X225301104Y-70905342D02*
X226101104Y-70905342D01*
X226101104Y-71095818D01*
X226063009Y-71210104D01*
X225986818Y-71286294D01*
X225910628Y-71324390D01*
X225758247Y-71362485D01*
X225643961Y-71362485D01*
X225491580Y-71324390D01*
X225415389Y-71286294D01*
X225339199Y-71210104D01*
X225301104Y-71095818D01*
X225301104Y-70905342D01*
X226024913Y-71667247D02*
X226063009Y-71705342D01*
X226101104Y-71781532D01*
X226101104Y-71972009D01*
X226063009Y-72048199D01*
X226024913Y-72086294D01*
X225948723Y-72124390D01*
X225872532Y-72124390D01*
X225758247Y-72086294D01*
X225301104Y-71629151D01*
X225301104Y-72124390D01*
X225758247Y-72581532D02*
X225796342Y-72505342D01*
X225834437Y-72467247D01*
X225910628Y-72429151D01*
X225948723Y-72429151D01*
X226024913Y-72467247D01*
X226063009Y-72505342D01*
X226101104Y-72581532D01*
X226101104Y-72733913D01*
X226063009Y-72810104D01*
X226024913Y-72848199D01*
X225948723Y-72886294D01*
X225910628Y-72886294D01*
X225834437Y-72848199D01*
X225796342Y-72810104D01*
X225758247Y-72733913D01*
X225758247Y-72581532D01*
X225720151Y-72505342D01*
X225682056Y-72467247D01*
X225605866Y-72429151D01*
X225453485Y-72429151D01*
X225377294Y-72467247D01*
X225339199Y-72505342D01*
X225301104Y-72581532D01*
X225301104Y-72733913D01*
X225339199Y-72810104D01*
X225377294Y-72848199D01*
X225453485Y-72886294D01*
X225605866Y-72886294D01*
X225682056Y-72848199D01*
X225720151Y-72810104D01*
X225758247Y-72733913D01*
X237907778Y-70905342D02*
X238707778Y-70905342D01*
X238707778Y-71095818D01*
X238669683Y-71210104D01*
X238593492Y-71286294D01*
X238517302Y-71324390D01*
X238364921Y-71362485D01*
X238250635Y-71362485D01*
X238098254Y-71324390D01*
X238022063Y-71286294D01*
X237945873Y-71210104D01*
X237907778Y-71095818D01*
X237907778Y-70905342D01*
X238631587Y-71667247D02*
X238669683Y-71705342D01*
X238707778Y-71781532D01*
X238707778Y-71972009D01*
X238669683Y-72048199D01*
X238631587Y-72086294D01*
X238555397Y-72124390D01*
X238479206Y-72124390D01*
X238364921Y-72086294D01*
X237907778Y-71629151D01*
X237907778Y-72124390D01*
X237907778Y-72505342D02*
X237907778Y-72657723D01*
X237945873Y-72733913D01*
X237983968Y-72772009D01*
X238098254Y-72848199D01*
X238250635Y-72886294D01*
X238555397Y-72886294D01*
X238631587Y-72848199D01*
X238669683Y-72810104D01*
X238707778Y-72733913D01*
X238707778Y-72581532D01*
X238669683Y-72505342D01*
X238631587Y-72467247D01*
X238555397Y-72429151D01*
X238364921Y-72429151D01*
X238288730Y-72467247D01*
X238250635Y-72505342D01*
X238212540Y-72581532D01*
X238212540Y-72733913D01*
X238250635Y-72810104D01*
X238288730Y-72848199D01*
X238364921Y-72886294D01*
X278867834Y-72558871D02*
X279667834Y-72558871D01*
X279667834Y-72749347D01*
X279629739Y-72863633D01*
X279553548Y-72939823D01*
X279477358Y-72977919D01*
X279324977Y-73016014D01*
X279210691Y-73016014D01*
X279058310Y-72977919D01*
X278982119Y-72939823D01*
X278905929Y-72863633D01*
X278867834Y-72749347D01*
X278867834Y-72558871D01*
X279667834Y-73282680D02*
X279667834Y-73777919D01*
X279363072Y-73511252D01*
X279363072Y-73625538D01*
X279324977Y-73701728D01*
X279286881Y-73739823D01*
X279210691Y-73777919D01*
X279020215Y-73777919D01*
X278944024Y-73739823D01*
X278905929Y-73701728D01*
X278867834Y-73625538D01*
X278867834Y-73396966D01*
X278905929Y-73320776D01*
X278944024Y-73282680D01*
X279667834Y-74273157D02*
X279667834Y-74349347D01*
X279629739Y-74425538D01*
X279591643Y-74463633D01*
X279515453Y-74501728D01*
X279363072Y-74539823D01*
X279172596Y-74539823D01*
X279020215Y-74501728D01*
X278944024Y-74463633D01*
X278905929Y-74425538D01*
X278867834Y-74349347D01*
X278867834Y-74273157D01*
X278905929Y-74196966D01*
X278944024Y-74158871D01*
X279020215Y-74120776D01*
X279172596Y-74082680D01*
X279363072Y-74082680D01*
X279515453Y-74120776D01*
X279591643Y-74158871D01*
X279629739Y-74196966D01*
X279667834Y-74273157D01*
X76353839Y-72558871D02*
X77153839Y-72558871D01*
X77153839Y-72749347D01*
X77115744Y-72863633D01*
X77039553Y-72939823D01*
X76963363Y-72977919D01*
X76810982Y-73016014D01*
X76696696Y-73016014D01*
X76544315Y-72977919D01*
X76468124Y-72939823D01*
X76391934Y-72863633D01*
X76353839Y-72749347D01*
X76353839Y-72558871D01*
X77153839Y-73282680D02*
X77153839Y-73777919D01*
X76849077Y-73511252D01*
X76849077Y-73625538D01*
X76810982Y-73701728D01*
X76772886Y-73739823D01*
X76696696Y-73777919D01*
X76506220Y-73777919D01*
X76430029Y-73739823D01*
X76391934Y-73701728D01*
X76353839Y-73625538D01*
X76353839Y-73396966D01*
X76391934Y-73320776D01*
X76430029Y-73282680D01*
X76353839Y-74539823D02*
X76353839Y-74082680D01*
X76353839Y-74311252D02*
X77153839Y-74311252D01*
X77039553Y-74235061D01*
X76963363Y-74158871D01*
X76925267Y-74082680D01*
X85862228Y-70905342D02*
X86662228Y-70905342D01*
X86662228Y-71095818D01*
X86624133Y-71210104D01*
X86547942Y-71286294D01*
X86471752Y-71324390D01*
X86319371Y-71362485D01*
X86205085Y-71362485D01*
X86052704Y-71324390D01*
X85976513Y-71286294D01*
X85900323Y-71210104D01*
X85862228Y-71095818D01*
X85862228Y-70905342D01*
X86662228Y-71629151D02*
X86662228Y-72124390D01*
X86357466Y-71857723D01*
X86357466Y-71972009D01*
X86319371Y-72048199D01*
X86281275Y-72086294D01*
X86205085Y-72124390D01*
X86014609Y-72124390D01*
X85938418Y-72086294D01*
X85900323Y-72048199D01*
X85862228Y-71972009D01*
X85862228Y-71743437D01*
X85900323Y-71667247D01*
X85938418Y-71629151D01*
X86586037Y-72429151D02*
X86624133Y-72467247D01*
X86662228Y-72543437D01*
X86662228Y-72733913D01*
X86624133Y-72810104D01*
X86586037Y-72848199D01*
X86509847Y-72886294D01*
X86433656Y-72886294D01*
X86319371Y-72848199D01*
X85862228Y-72391056D01*
X85862228Y-72886294D01*
X101709543Y-72558871D02*
X102509543Y-72558871D01*
X102509543Y-72749347D01*
X102471448Y-72863633D01*
X102395257Y-72939823D01*
X102319067Y-72977919D01*
X102166686Y-73016014D01*
X102052400Y-73016014D01*
X101900019Y-72977919D01*
X101823828Y-72939823D01*
X101747638Y-72863633D01*
X101709543Y-72749347D01*
X101709543Y-72558871D01*
X102509543Y-73282680D02*
X102509543Y-73777919D01*
X102204781Y-73511252D01*
X102204781Y-73625538D01*
X102166686Y-73701728D01*
X102128590Y-73739823D01*
X102052400Y-73777919D01*
X101861924Y-73777919D01*
X101785733Y-73739823D01*
X101747638Y-73701728D01*
X101709543Y-73625538D01*
X101709543Y-73396966D01*
X101747638Y-73320776D01*
X101785733Y-73282680D01*
X102509543Y-74044585D02*
X102509543Y-74539823D01*
X102204781Y-74273157D01*
X102204781Y-74387442D01*
X102166686Y-74463633D01*
X102128590Y-74501728D01*
X102052400Y-74539823D01*
X101861924Y-74539823D01*
X101785733Y-74501728D01*
X101747638Y-74463633D01*
X101709543Y-74387442D01*
X101709543Y-74158871D01*
X101747638Y-74082680D01*
X101785733Y-74044585D01*
X114387395Y-72558871D02*
X115187395Y-72558871D01*
X115187395Y-72749347D01*
X115149300Y-72863633D01*
X115073109Y-72939823D01*
X114996919Y-72977919D01*
X114844538Y-73016014D01*
X114730252Y-73016014D01*
X114577871Y-72977919D01*
X114501680Y-72939823D01*
X114425490Y-72863633D01*
X114387395Y-72749347D01*
X114387395Y-72558871D01*
X115187395Y-73282680D02*
X115187395Y-73777919D01*
X114882633Y-73511252D01*
X114882633Y-73625538D01*
X114844538Y-73701728D01*
X114806442Y-73739823D01*
X114730252Y-73777919D01*
X114539776Y-73777919D01*
X114463585Y-73739823D01*
X114425490Y-73701728D01*
X114387395Y-73625538D01*
X114387395Y-73396966D01*
X114425490Y-73320776D01*
X114463585Y-73282680D01*
X114920728Y-74463633D02*
X114387395Y-74463633D01*
X115225490Y-74273157D02*
X114654061Y-74082680D01*
X114654061Y-74577919D01*
X127065247Y-72558871D02*
X127865247Y-72558871D01*
X127865247Y-72749347D01*
X127827152Y-72863633D01*
X127750961Y-72939823D01*
X127674771Y-72977919D01*
X127522390Y-73016014D01*
X127408104Y-73016014D01*
X127255723Y-72977919D01*
X127179532Y-72939823D01*
X127103342Y-72863633D01*
X127065247Y-72749347D01*
X127065247Y-72558871D01*
X127865247Y-73282680D02*
X127865247Y-73777919D01*
X127560485Y-73511252D01*
X127560485Y-73625538D01*
X127522390Y-73701728D01*
X127484294Y-73739823D01*
X127408104Y-73777919D01*
X127217628Y-73777919D01*
X127141437Y-73739823D01*
X127103342Y-73701728D01*
X127065247Y-73625538D01*
X127065247Y-73396966D01*
X127103342Y-73320776D01*
X127141437Y-73282680D01*
X127865247Y-74501728D02*
X127865247Y-74120776D01*
X127484294Y-74082680D01*
X127522390Y-74120776D01*
X127560485Y-74196966D01*
X127560485Y-74387442D01*
X127522390Y-74463633D01*
X127484294Y-74501728D01*
X127408104Y-74539823D01*
X127217628Y-74539823D01*
X127141437Y-74501728D01*
X127103342Y-74463633D01*
X127065247Y-74387442D01*
X127065247Y-74196966D01*
X127103342Y-74120776D01*
X127141437Y-74082680D01*
X139743099Y-72558871D02*
X140543099Y-72558871D01*
X140543099Y-72749347D01*
X140505004Y-72863633D01*
X140428813Y-72939823D01*
X140352623Y-72977919D01*
X140200242Y-73016014D01*
X140085956Y-73016014D01*
X139933575Y-72977919D01*
X139857384Y-72939823D01*
X139781194Y-72863633D01*
X139743099Y-72749347D01*
X139743099Y-72558871D01*
X140543099Y-73282680D02*
X140543099Y-73777919D01*
X140238337Y-73511252D01*
X140238337Y-73625538D01*
X140200242Y-73701728D01*
X140162146Y-73739823D01*
X140085956Y-73777919D01*
X139895480Y-73777919D01*
X139819289Y-73739823D01*
X139781194Y-73701728D01*
X139743099Y-73625538D01*
X139743099Y-73396966D01*
X139781194Y-73320776D01*
X139819289Y-73282680D01*
X140543099Y-74463633D02*
X140543099Y-74311252D01*
X140505004Y-74235061D01*
X140466908Y-74196966D01*
X140352623Y-74120776D01*
X140200242Y-74082680D01*
X139895480Y-74082680D01*
X139819289Y-74120776D01*
X139781194Y-74158871D01*
X139743099Y-74235061D01*
X139743099Y-74387442D01*
X139781194Y-74463633D01*
X139819289Y-74501728D01*
X139895480Y-74539823D01*
X140085956Y-74539823D01*
X140162146Y-74501728D01*
X140200242Y-74463633D01*
X140238337Y-74387442D01*
X140238337Y-74235061D01*
X140200242Y-74158871D01*
X140162146Y-74120776D01*
X140085956Y-74082680D01*
X152420951Y-72558871D02*
X153220951Y-72558871D01*
X153220951Y-72749347D01*
X153182856Y-72863633D01*
X153106665Y-72939823D01*
X153030475Y-72977919D01*
X152878094Y-73016014D01*
X152763808Y-73016014D01*
X152611427Y-72977919D01*
X152535236Y-72939823D01*
X152459046Y-72863633D01*
X152420951Y-72749347D01*
X152420951Y-72558871D01*
X153220951Y-73282680D02*
X153220951Y-73777919D01*
X152916189Y-73511252D01*
X152916189Y-73625538D01*
X152878094Y-73701728D01*
X152839998Y-73739823D01*
X152763808Y-73777919D01*
X152573332Y-73777919D01*
X152497141Y-73739823D01*
X152459046Y-73701728D01*
X152420951Y-73625538D01*
X152420951Y-73396966D01*
X152459046Y-73320776D01*
X152497141Y-73282680D01*
X153220951Y-74044585D02*
X153220951Y-74577919D01*
X152420951Y-74235061D01*
X165098803Y-72558871D02*
X165898803Y-72558871D01*
X165898803Y-72749347D01*
X165860708Y-72863633D01*
X165784517Y-72939823D01*
X165708327Y-72977919D01*
X165555946Y-73016014D01*
X165441660Y-73016014D01*
X165289279Y-72977919D01*
X165213088Y-72939823D01*
X165136898Y-72863633D01*
X165098803Y-72749347D01*
X165098803Y-72558871D01*
X165898803Y-73282680D02*
X165898803Y-73777919D01*
X165594041Y-73511252D01*
X165594041Y-73625538D01*
X165555946Y-73701728D01*
X165517850Y-73739823D01*
X165441660Y-73777919D01*
X165251184Y-73777919D01*
X165174993Y-73739823D01*
X165136898Y-73701728D01*
X165098803Y-73625538D01*
X165098803Y-73396966D01*
X165136898Y-73320776D01*
X165174993Y-73282680D01*
X165555946Y-74235061D02*
X165594041Y-74158871D01*
X165632136Y-74120776D01*
X165708327Y-74082680D01*
X165746422Y-74082680D01*
X165822612Y-74120776D01*
X165860708Y-74158871D01*
X165898803Y-74235061D01*
X165898803Y-74387442D01*
X165860708Y-74463633D01*
X165822612Y-74501728D01*
X165746422Y-74539823D01*
X165708327Y-74539823D01*
X165632136Y-74501728D01*
X165594041Y-74463633D01*
X165555946Y-74387442D01*
X165555946Y-74235061D01*
X165517850Y-74158871D01*
X165479755Y-74120776D01*
X165403565Y-74082680D01*
X165251184Y-74082680D01*
X165174993Y-74120776D01*
X165136898Y-74158871D01*
X165098803Y-74235061D01*
X165098803Y-74387442D01*
X165136898Y-74463633D01*
X165174993Y-74501728D01*
X165251184Y-74539823D01*
X165403565Y-74539823D01*
X165479755Y-74501728D01*
X165517850Y-74463633D01*
X165555946Y-74387442D01*
X177776655Y-72558871D02*
X178576655Y-72558871D01*
X178576655Y-72749347D01*
X178538560Y-72863633D01*
X178462369Y-72939823D01*
X178386179Y-72977919D01*
X178233798Y-73016014D01*
X178119512Y-73016014D01*
X177967131Y-72977919D01*
X177890940Y-72939823D01*
X177814750Y-72863633D01*
X177776655Y-72749347D01*
X177776655Y-72558871D01*
X178576655Y-73282680D02*
X178576655Y-73777919D01*
X178271893Y-73511252D01*
X178271893Y-73625538D01*
X178233798Y-73701728D01*
X178195702Y-73739823D01*
X178119512Y-73777919D01*
X177929036Y-73777919D01*
X177852845Y-73739823D01*
X177814750Y-73701728D01*
X177776655Y-73625538D01*
X177776655Y-73396966D01*
X177814750Y-73320776D01*
X177852845Y-73282680D01*
X177776655Y-74158871D02*
X177776655Y-74311252D01*
X177814750Y-74387442D01*
X177852845Y-74425538D01*
X177967131Y-74501728D01*
X178119512Y-74539823D01*
X178424274Y-74539823D01*
X178500464Y-74501728D01*
X178538560Y-74463633D01*
X178576655Y-74387442D01*
X178576655Y-74235061D01*
X178538560Y-74158871D01*
X178500464Y-74120776D01*
X178424274Y-74082680D01*
X178233798Y-74082680D01*
X178157607Y-74120776D01*
X178119512Y-74158871D01*
X178081417Y-74235061D01*
X178081417Y-74387442D01*
X178119512Y-74463633D01*
X178157607Y-74501728D01*
X178233798Y-74539823D01*
X190454507Y-72558871D02*
X191254507Y-72558871D01*
X191254507Y-72749347D01*
X191216412Y-72863633D01*
X191140221Y-72939823D01*
X191064031Y-72977919D01*
X190911650Y-73016014D01*
X190797364Y-73016014D01*
X190644983Y-72977919D01*
X190568792Y-72939823D01*
X190492602Y-72863633D01*
X190454507Y-72749347D01*
X190454507Y-72558871D01*
X190987840Y-73701728D02*
X190454507Y-73701728D01*
X191292602Y-73511252D02*
X190721173Y-73320776D01*
X190721173Y-73816014D01*
X191254507Y-74273157D02*
X191254507Y-74349347D01*
X191216412Y-74425538D01*
X191178316Y-74463633D01*
X191102126Y-74501728D01*
X190949745Y-74539823D01*
X190759269Y-74539823D01*
X190606888Y-74501728D01*
X190530697Y-74463633D01*
X190492602Y-74425538D01*
X190454507Y-74349347D01*
X190454507Y-74273157D01*
X190492602Y-74196966D01*
X190530697Y-74158871D01*
X190606888Y-74120776D01*
X190759269Y-74082680D01*
X190949745Y-74082680D01*
X191102126Y-74120776D01*
X191178316Y-74158871D01*
X191216412Y-74196966D01*
X191254507Y-74273157D01*
X203132359Y-72558871D02*
X203932359Y-72558871D01*
X203932359Y-72749347D01*
X203894264Y-72863633D01*
X203818073Y-72939823D01*
X203741883Y-72977919D01*
X203589502Y-73016014D01*
X203475216Y-73016014D01*
X203322835Y-72977919D01*
X203246644Y-72939823D01*
X203170454Y-72863633D01*
X203132359Y-72749347D01*
X203132359Y-72558871D01*
X203665692Y-73701728D02*
X203132359Y-73701728D01*
X203970454Y-73511252D02*
X203399025Y-73320776D01*
X203399025Y-73816014D01*
X203132359Y-74539823D02*
X203132359Y-74082680D01*
X203132359Y-74311252D02*
X203932359Y-74311252D01*
X203818073Y-74235061D01*
X203741883Y-74158871D01*
X203703787Y-74082680D01*
X215810211Y-72558871D02*
X216610211Y-72558871D01*
X216610211Y-72749347D01*
X216572116Y-72863633D01*
X216495925Y-72939823D01*
X216419735Y-72977919D01*
X216267354Y-73016014D01*
X216153068Y-73016014D01*
X216000687Y-72977919D01*
X215924496Y-72939823D01*
X215848306Y-72863633D01*
X215810211Y-72749347D01*
X215810211Y-72558871D01*
X216343544Y-73701728D02*
X215810211Y-73701728D01*
X216648306Y-73511252D02*
X216076877Y-73320776D01*
X216076877Y-73816014D01*
X216534020Y-74082680D02*
X216572116Y-74120776D01*
X216610211Y-74196966D01*
X216610211Y-74387442D01*
X216572116Y-74463633D01*
X216534020Y-74501728D01*
X216457830Y-74539823D01*
X216381639Y-74539823D01*
X216267354Y-74501728D01*
X215810211Y-74044585D01*
X215810211Y-74539823D01*
X241058551Y-72558871D02*
X241858551Y-72558871D01*
X241858551Y-72749347D01*
X241820456Y-72863633D01*
X241744265Y-72939823D01*
X241668075Y-72977919D01*
X241515694Y-73016014D01*
X241401408Y-73016014D01*
X241249027Y-72977919D01*
X241172836Y-72939823D01*
X241096646Y-72863633D01*
X241058551Y-72749347D01*
X241058551Y-72558871D01*
X241591884Y-73701728D02*
X241058551Y-73701728D01*
X241896646Y-73511252D02*
X241325217Y-73320776D01*
X241325217Y-73816014D01*
X241858551Y-74044585D02*
X241858551Y-74539823D01*
X241553789Y-74273157D01*
X241553789Y-74387442D01*
X241515694Y-74463633D01*
X241477598Y-74501728D01*
X241401408Y-74539823D01*
X241210932Y-74539823D01*
X241134741Y-74501728D01*
X241096646Y-74463633D01*
X241058551Y-74387442D01*
X241058551Y-74158871D01*
X241096646Y-74082680D01*
X241134741Y-74044585D01*
X275779110Y-70905342D02*
X276579110Y-70905342D01*
X276579110Y-71095818D01*
X276541015Y-71210104D01*
X276464824Y-71286294D01*
X276388634Y-71324390D01*
X276236253Y-71362485D01*
X276121967Y-71362485D01*
X275969586Y-71324390D01*
X275893395Y-71286294D01*
X275817205Y-71210104D01*
X275779110Y-71095818D01*
X275779110Y-70905342D01*
X276312443Y-72048199D02*
X275779110Y-72048199D01*
X276617205Y-71857723D02*
X276045776Y-71667247D01*
X276045776Y-72162485D01*
X276312443Y-72810104D02*
X275779110Y-72810104D01*
X276617205Y-72619628D02*
X276045776Y-72429151D01*
X276045776Y-72924390D01*
X104879006Y-74212400D02*
X105679006Y-74212400D01*
X105679006Y-74402876D01*
X105640911Y-74517162D01*
X105564720Y-74593352D01*
X105488530Y-74631448D01*
X105336149Y-74669543D01*
X105221863Y-74669543D01*
X105069482Y-74631448D01*
X104993291Y-74593352D01*
X104917101Y-74517162D01*
X104879006Y-74402876D01*
X104879006Y-74212400D01*
X105412339Y-75355257D02*
X104879006Y-75355257D01*
X105717101Y-75164781D02*
X105145672Y-74974305D01*
X105145672Y-75469543D01*
X105679006Y-76117162D02*
X105679006Y-75964781D01*
X105640911Y-75888590D01*
X105602815Y-75850495D01*
X105488530Y-75774305D01*
X105336149Y-75736209D01*
X105031387Y-75736209D01*
X104955196Y-75774305D01*
X104917101Y-75812400D01*
X104879006Y-75888590D01*
X104879006Y-76040971D01*
X104917101Y-76117162D01*
X104955196Y-76155257D01*
X105031387Y-76193352D01*
X105221863Y-76193352D01*
X105298053Y-76155257D01*
X105336149Y-76117162D01*
X105374244Y-76040971D01*
X105374244Y-75888590D01*
X105336149Y-75812400D01*
X105298053Y-75774305D01*
X105221863Y-75736209D01*
X117556858Y-74212400D02*
X118356858Y-74212400D01*
X118356858Y-74402876D01*
X118318763Y-74517162D01*
X118242572Y-74593352D01*
X118166382Y-74631448D01*
X118014001Y-74669543D01*
X117899715Y-74669543D01*
X117747334Y-74631448D01*
X117671143Y-74593352D01*
X117594953Y-74517162D01*
X117556858Y-74402876D01*
X117556858Y-74212400D01*
X118090191Y-75355257D02*
X117556858Y-75355257D01*
X118394953Y-75164781D02*
X117823524Y-74974305D01*
X117823524Y-75469543D01*
X118356858Y-75698114D02*
X118356858Y-76231448D01*
X117556858Y-75888590D01*
X130234710Y-74212400D02*
X131034710Y-74212400D01*
X131034710Y-74402876D01*
X130996615Y-74517162D01*
X130920424Y-74593352D01*
X130844234Y-74631448D01*
X130691853Y-74669543D01*
X130577567Y-74669543D01*
X130425186Y-74631448D01*
X130348995Y-74593352D01*
X130272805Y-74517162D01*
X130234710Y-74402876D01*
X130234710Y-74212400D01*
X130768043Y-75355257D02*
X130234710Y-75355257D01*
X131072805Y-75164781D02*
X130501376Y-74974305D01*
X130501376Y-75469543D01*
X130691853Y-75888590D02*
X130729948Y-75812400D01*
X130768043Y-75774305D01*
X130844234Y-75736209D01*
X130882329Y-75736209D01*
X130958519Y-75774305D01*
X130996615Y-75812400D01*
X131034710Y-75888590D01*
X131034710Y-76040971D01*
X130996615Y-76117162D01*
X130958519Y-76155257D01*
X130882329Y-76193352D01*
X130844234Y-76193352D01*
X130768043Y-76155257D01*
X130729948Y-76117162D01*
X130691853Y-76040971D01*
X130691853Y-75888590D01*
X130653757Y-75812400D01*
X130615662Y-75774305D01*
X130539472Y-75736209D01*
X130387091Y-75736209D01*
X130310900Y-75774305D01*
X130272805Y-75812400D01*
X130234710Y-75888590D01*
X130234710Y-76040971D01*
X130272805Y-76117162D01*
X130310900Y-76155257D01*
X130387091Y-76193352D01*
X130539472Y-76193352D01*
X130615662Y-76155257D01*
X130653757Y-76117162D01*
X130691853Y-76040971D01*
X142912562Y-74212400D02*
X143712562Y-74212400D01*
X143712562Y-74402876D01*
X143674467Y-74517162D01*
X143598276Y-74593352D01*
X143522086Y-74631448D01*
X143369705Y-74669543D01*
X143255419Y-74669543D01*
X143103038Y-74631448D01*
X143026847Y-74593352D01*
X142950657Y-74517162D01*
X142912562Y-74402876D01*
X142912562Y-74212400D01*
X143445895Y-75355257D02*
X142912562Y-75355257D01*
X143750657Y-75164781D02*
X143179228Y-74974305D01*
X143179228Y-75469543D01*
X142912562Y-75812400D02*
X142912562Y-75964781D01*
X142950657Y-76040971D01*
X142988752Y-76079067D01*
X143103038Y-76155257D01*
X143255419Y-76193352D01*
X143560181Y-76193352D01*
X143636371Y-76155257D01*
X143674467Y-76117162D01*
X143712562Y-76040971D01*
X143712562Y-75888590D01*
X143674467Y-75812400D01*
X143636371Y-75774305D01*
X143560181Y-75736209D01*
X143369705Y-75736209D01*
X143293514Y-75774305D01*
X143255419Y-75812400D01*
X143217324Y-75888590D01*
X143217324Y-76040971D01*
X143255419Y-76117162D01*
X143293514Y-76155257D01*
X143369705Y-76193352D01*
X155590414Y-74212400D02*
X156390414Y-74212400D01*
X156390414Y-74402876D01*
X156352319Y-74517162D01*
X156276128Y-74593352D01*
X156199938Y-74631448D01*
X156047557Y-74669543D01*
X155933271Y-74669543D01*
X155780890Y-74631448D01*
X155704699Y-74593352D01*
X155628509Y-74517162D01*
X155590414Y-74402876D01*
X155590414Y-74212400D01*
X156390414Y-75393352D02*
X156390414Y-75012400D01*
X156009461Y-74974305D01*
X156047557Y-75012400D01*
X156085652Y-75088590D01*
X156085652Y-75279067D01*
X156047557Y-75355257D01*
X156009461Y-75393352D01*
X155933271Y-75431448D01*
X155742795Y-75431448D01*
X155666604Y-75393352D01*
X155628509Y-75355257D01*
X155590414Y-75279067D01*
X155590414Y-75088590D01*
X155628509Y-75012400D01*
X155666604Y-74974305D01*
X156390414Y-75926686D02*
X156390414Y-76002876D01*
X156352319Y-76079067D01*
X156314223Y-76117162D01*
X156238033Y-76155257D01*
X156085652Y-76193352D01*
X155895176Y-76193352D01*
X155742795Y-76155257D01*
X155666604Y-76117162D01*
X155628509Y-76079067D01*
X155590414Y-76002876D01*
X155590414Y-75926686D01*
X155628509Y-75850495D01*
X155666604Y-75812400D01*
X155742795Y-75774305D01*
X155895176Y-75736209D01*
X156085652Y-75736209D01*
X156238033Y-75774305D01*
X156314223Y-75812400D01*
X156352319Y-75850495D01*
X156390414Y-75926686D01*
X168268266Y-74212400D02*
X169068266Y-74212400D01*
X169068266Y-74402876D01*
X169030171Y-74517162D01*
X168953980Y-74593352D01*
X168877790Y-74631448D01*
X168725409Y-74669543D01*
X168611123Y-74669543D01*
X168458742Y-74631448D01*
X168382551Y-74593352D01*
X168306361Y-74517162D01*
X168268266Y-74402876D01*
X168268266Y-74212400D01*
X169068266Y-75393352D02*
X169068266Y-75012400D01*
X168687313Y-74974305D01*
X168725409Y-75012400D01*
X168763504Y-75088590D01*
X168763504Y-75279067D01*
X168725409Y-75355257D01*
X168687313Y-75393352D01*
X168611123Y-75431448D01*
X168420647Y-75431448D01*
X168344456Y-75393352D01*
X168306361Y-75355257D01*
X168268266Y-75279067D01*
X168268266Y-75088590D01*
X168306361Y-75012400D01*
X168344456Y-74974305D01*
X168268266Y-76193352D02*
X168268266Y-75736209D01*
X168268266Y-75964781D02*
X169068266Y-75964781D01*
X168953980Y-75888590D01*
X168877790Y-75812400D01*
X168839694Y-75736209D01*
X180946118Y-74212400D02*
X181746118Y-74212400D01*
X181746118Y-74402876D01*
X181708023Y-74517162D01*
X181631832Y-74593352D01*
X181555642Y-74631448D01*
X181403261Y-74669543D01*
X181288975Y-74669543D01*
X181136594Y-74631448D01*
X181060403Y-74593352D01*
X180984213Y-74517162D01*
X180946118Y-74402876D01*
X180946118Y-74212400D01*
X181746118Y-75393352D02*
X181746118Y-75012400D01*
X181365165Y-74974305D01*
X181403261Y-75012400D01*
X181441356Y-75088590D01*
X181441356Y-75279067D01*
X181403261Y-75355257D01*
X181365165Y-75393352D01*
X181288975Y-75431448D01*
X181098499Y-75431448D01*
X181022308Y-75393352D01*
X180984213Y-75355257D01*
X180946118Y-75279067D01*
X180946118Y-75088590D01*
X180984213Y-75012400D01*
X181022308Y-74974305D01*
X181669927Y-75736209D02*
X181708023Y-75774305D01*
X181746118Y-75850495D01*
X181746118Y-76040971D01*
X181708023Y-76117162D01*
X181669927Y-76155257D01*
X181593737Y-76193352D01*
X181517546Y-76193352D01*
X181403261Y-76155257D01*
X180946118Y-75698114D01*
X180946118Y-76193352D01*
X193623970Y-74212400D02*
X194423970Y-74212400D01*
X194423970Y-74402876D01*
X194385875Y-74517162D01*
X194309684Y-74593352D01*
X194233494Y-74631448D01*
X194081113Y-74669543D01*
X193966827Y-74669543D01*
X193814446Y-74631448D01*
X193738255Y-74593352D01*
X193662065Y-74517162D01*
X193623970Y-74402876D01*
X193623970Y-74212400D01*
X194423970Y-75393352D02*
X194423970Y-75012400D01*
X194043017Y-74974305D01*
X194081113Y-75012400D01*
X194119208Y-75088590D01*
X194119208Y-75279067D01*
X194081113Y-75355257D01*
X194043017Y-75393352D01*
X193966827Y-75431448D01*
X193776351Y-75431448D01*
X193700160Y-75393352D01*
X193662065Y-75355257D01*
X193623970Y-75279067D01*
X193623970Y-75088590D01*
X193662065Y-75012400D01*
X193700160Y-74974305D01*
X194423970Y-75698114D02*
X194423970Y-76193352D01*
X194119208Y-75926686D01*
X194119208Y-76040971D01*
X194081113Y-76117162D01*
X194043017Y-76155257D01*
X193966827Y-76193352D01*
X193776351Y-76193352D01*
X193700160Y-76155257D01*
X193662065Y-76117162D01*
X193623970Y-76040971D01*
X193623970Y-75812400D01*
X193662065Y-75736209D01*
X193700160Y-75698114D01*
X206301822Y-74212400D02*
X207101822Y-74212400D01*
X207101822Y-74402876D01*
X207063727Y-74517162D01*
X206987536Y-74593352D01*
X206911346Y-74631448D01*
X206758965Y-74669543D01*
X206644679Y-74669543D01*
X206492298Y-74631448D01*
X206416107Y-74593352D01*
X206339917Y-74517162D01*
X206301822Y-74402876D01*
X206301822Y-74212400D01*
X207101822Y-75393352D02*
X207101822Y-75012400D01*
X206720869Y-74974305D01*
X206758965Y-75012400D01*
X206797060Y-75088590D01*
X206797060Y-75279067D01*
X206758965Y-75355257D01*
X206720869Y-75393352D01*
X206644679Y-75431448D01*
X206454203Y-75431448D01*
X206378012Y-75393352D01*
X206339917Y-75355257D01*
X206301822Y-75279067D01*
X206301822Y-75088590D01*
X206339917Y-75012400D01*
X206378012Y-74974305D01*
X206835155Y-76117162D02*
X206301822Y-76117162D01*
X207139917Y-75926686D02*
X206568488Y-75736209D01*
X206568488Y-76231448D01*
X218979674Y-74212400D02*
X219779674Y-74212400D01*
X219779674Y-74402876D01*
X219741579Y-74517162D01*
X219665388Y-74593352D01*
X219589198Y-74631448D01*
X219436817Y-74669543D01*
X219322531Y-74669543D01*
X219170150Y-74631448D01*
X219093959Y-74593352D01*
X219017769Y-74517162D01*
X218979674Y-74402876D01*
X218979674Y-74212400D01*
X219779674Y-75393352D02*
X219779674Y-75012400D01*
X219398721Y-74974305D01*
X219436817Y-75012400D01*
X219474912Y-75088590D01*
X219474912Y-75279067D01*
X219436817Y-75355257D01*
X219398721Y-75393352D01*
X219322531Y-75431448D01*
X219132055Y-75431448D01*
X219055864Y-75393352D01*
X219017769Y-75355257D01*
X218979674Y-75279067D01*
X218979674Y-75088590D01*
X219017769Y-75012400D01*
X219055864Y-74974305D01*
X219779674Y-76155257D02*
X219779674Y-75774305D01*
X219398721Y-75736209D01*
X219436817Y-75774305D01*
X219474912Y-75850495D01*
X219474912Y-76040971D01*
X219436817Y-76117162D01*
X219398721Y-76155257D01*
X219322531Y-76193352D01*
X219132055Y-76193352D01*
X219055864Y-76155257D01*
X219017769Y-76117162D01*
X218979674Y-76040971D01*
X218979674Y-75850495D01*
X219017769Y-75774305D01*
X219055864Y-75736209D01*
X228453071Y-72558871D02*
X229253071Y-72558871D01*
X229253071Y-72749347D01*
X229214976Y-72863633D01*
X229138785Y-72939823D01*
X229062595Y-72977919D01*
X228910214Y-73016014D01*
X228795928Y-73016014D01*
X228643547Y-72977919D01*
X228567356Y-72939823D01*
X228491166Y-72863633D01*
X228453071Y-72749347D01*
X228453071Y-72558871D01*
X229253071Y-73739823D02*
X229253071Y-73358871D01*
X228872118Y-73320776D01*
X228910214Y-73358871D01*
X228948309Y-73435061D01*
X228948309Y-73625538D01*
X228910214Y-73701728D01*
X228872118Y-73739823D01*
X228795928Y-73777919D01*
X228605452Y-73777919D01*
X228529261Y-73739823D01*
X228491166Y-73701728D01*
X228453071Y-73625538D01*
X228453071Y-73435061D01*
X228491166Y-73358871D01*
X228529261Y-73320776D01*
X229253071Y-74463633D02*
X229253071Y-74311252D01*
X229214976Y-74235061D01*
X229176880Y-74196966D01*
X229062595Y-74120776D01*
X228910214Y-74082680D01*
X228605452Y-74082680D01*
X228529261Y-74120776D01*
X228491166Y-74158871D01*
X228453071Y-74235061D01*
X228453071Y-74387442D01*
X228491166Y-74463633D01*
X228529261Y-74501728D01*
X228605452Y-74539823D01*
X228795928Y-74539823D01*
X228872118Y-74501728D01*
X228910214Y-74463633D01*
X228948309Y-74387442D01*
X228948309Y-74235061D01*
X228910214Y-74158871D01*
X228872118Y-74120776D01*
X228795928Y-74082680D01*
X244209324Y-74212400D02*
X245009324Y-74212400D01*
X245009324Y-74402876D01*
X244971229Y-74517162D01*
X244895038Y-74593352D01*
X244818848Y-74631448D01*
X244666467Y-74669543D01*
X244552181Y-74669543D01*
X244399800Y-74631448D01*
X244323609Y-74593352D01*
X244247419Y-74517162D01*
X244209324Y-74402876D01*
X244209324Y-74212400D01*
X245009324Y-75393352D02*
X245009324Y-75012400D01*
X244628371Y-74974305D01*
X244666467Y-75012400D01*
X244704562Y-75088590D01*
X244704562Y-75279067D01*
X244666467Y-75355257D01*
X244628371Y-75393352D01*
X244552181Y-75431448D01*
X244361705Y-75431448D01*
X244285514Y-75393352D01*
X244247419Y-75355257D01*
X244209324Y-75279067D01*
X244209324Y-75088590D01*
X244247419Y-75012400D01*
X244285514Y-74974305D01*
X245009324Y-75698114D02*
X245009324Y-76231448D01*
X244209324Y-75888590D01*
X272504235Y-69251813D02*
X273304235Y-69251813D01*
X273304235Y-69442289D01*
X273266140Y-69556575D01*
X273189949Y-69632765D01*
X273113759Y-69670861D01*
X272961378Y-69708956D01*
X272847092Y-69708956D01*
X272694711Y-69670861D01*
X272618520Y-69632765D01*
X272542330Y-69556575D01*
X272504235Y-69442289D01*
X272504235Y-69251813D01*
X273304235Y-70432765D02*
X273304235Y-70051813D01*
X272923282Y-70013718D01*
X272961378Y-70051813D01*
X272999473Y-70128003D01*
X272999473Y-70318480D01*
X272961378Y-70394670D01*
X272923282Y-70432765D01*
X272847092Y-70470861D01*
X272656616Y-70470861D01*
X272580425Y-70432765D01*
X272542330Y-70394670D01*
X272504235Y-70318480D01*
X272504235Y-70128003D01*
X272542330Y-70051813D01*
X272580425Y-70013718D01*
X272961378Y-70928003D02*
X272999473Y-70851813D01*
X273037568Y-70813718D01*
X273113759Y-70775622D01*
X273151854Y-70775622D01*
X273228044Y-70813718D01*
X273266140Y-70851813D01*
X273304235Y-70928003D01*
X273304235Y-71080384D01*
X273266140Y-71156575D01*
X273228044Y-71194670D01*
X273151854Y-71232765D01*
X273113759Y-71232765D01*
X273037568Y-71194670D01*
X272999473Y-71156575D01*
X272961378Y-71080384D01*
X272961378Y-70928003D01*
X272923282Y-70851813D01*
X272885187Y-70813718D01*
X272808997Y-70775622D01*
X272656616Y-70775622D01*
X272580425Y-70813718D01*
X272542330Y-70851813D01*
X272504235Y-70928003D01*
X272504235Y-71080384D01*
X272542330Y-71156575D01*
X272580425Y-71194670D01*
X272656616Y-71232765D01*
X272808997Y-71232765D01*
X272885187Y-71194670D01*
X272923282Y-71156575D01*
X272961378Y-71080384D01*
X266202687Y-72558871D02*
X267002687Y-72558871D01*
X267002687Y-72749347D01*
X266964592Y-72863633D01*
X266888401Y-72939823D01*
X266812211Y-72977919D01*
X266659830Y-73016014D01*
X266545544Y-73016014D01*
X266393163Y-72977919D01*
X266316972Y-72939823D01*
X266240782Y-72863633D01*
X266202687Y-72749347D01*
X266202687Y-72558871D01*
X267002687Y-73739823D02*
X267002687Y-73358871D01*
X266621734Y-73320776D01*
X266659830Y-73358871D01*
X266697925Y-73435061D01*
X266697925Y-73625538D01*
X266659830Y-73701728D01*
X266621734Y-73739823D01*
X266545544Y-73777919D01*
X266355068Y-73777919D01*
X266278877Y-73739823D01*
X266240782Y-73701728D01*
X266202687Y-73625538D01*
X266202687Y-73435061D01*
X266240782Y-73358871D01*
X266278877Y-73320776D01*
X266202687Y-74158871D02*
X266202687Y-74311252D01*
X266240782Y-74387442D01*
X266278877Y-74425538D01*
X266393163Y-74501728D01*
X266545544Y-74539823D01*
X266850306Y-74539823D01*
X266926496Y-74501728D01*
X266964592Y-74463633D01*
X267002687Y-74387442D01*
X267002687Y-74235061D01*
X266964592Y-74158871D01*
X266926496Y-74120776D01*
X266850306Y-74082680D01*
X266659830Y-74082680D01*
X266583639Y-74120776D01*
X266545544Y-74158871D01*
X266507449Y-74235061D01*
X266507449Y-74387442D01*
X266545544Y-74463633D01*
X266583639Y-74501728D01*
X266659830Y-74539823D01*
X82692765Y-69251813D02*
X83492765Y-69251813D01*
X83492765Y-69442289D01*
X83454670Y-69556575D01*
X83378479Y-69632765D01*
X83302289Y-69670861D01*
X83149908Y-69708956D01*
X83035622Y-69708956D01*
X82883241Y-69670861D01*
X82807050Y-69632765D01*
X82730860Y-69556575D01*
X82692765Y-69442289D01*
X82692765Y-69251813D01*
X83492765Y-70394670D02*
X83492765Y-70242289D01*
X83454670Y-70166099D01*
X83416574Y-70128003D01*
X83302289Y-70051813D01*
X83149908Y-70013718D01*
X82845146Y-70013718D01*
X82768955Y-70051813D01*
X82730860Y-70089908D01*
X82692765Y-70166099D01*
X82692765Y-70318480D01*
X82730860Y-70394670D01*
X82768955Y-70432765D01*
X82845146Y-70470861D01*
X83035622Y-70470861D01*
X83111812Y-70432765D01*
X83149908Y-70394670D01*
X83188003Y-70318480D01*
X83188003Y-70166099D01*
X83149908Y-70089908D01*
X83111812Y-70051813D01*
X83035622Y-70013718D01*
X83492765Y-70966099D02*
X83492765Y-71042289D01*
X83454670Y-71118480D01*
X83416574Y-71156575D01*
X83340384Y-71194670D01*
X83188003Y-71232765D01*
X82997527Y-71232765D01*
X82845146Y-71194670D01*
X82768955Y-71156575D01*
X82730860Y-71118480D01*
X82692765Y-71042289D01*
X82692765Y-70966099D01*
X82730860Y-70889908D01*
X82768955Y-70851813D01*
X82845146Y-70813718D01*
X82997527Y-70775622D01*
X83188003Y-70775622D01*
X83340384Y-70813718D01*
X83416574Y-70851813D01*
X83454670Y-70889908D01*
X83492765Y-70966099D01*
X263051913Y-70905342D02*
X263851913Y-70905342D01*
X263851913Y-71095818D01*
X263813818Y-71210104D01*
X263737627Y-71286294D01*
X263661437Y-71324390D01*
X263509056Y-71362485D01*
X263394770Y-71362485D01*
X263242389Y-71324390D01*
X263166198Y-71286294D01*
X263090008Y-71210104D01*
X263051913Y-71095818D01*
X263051913Y-70905342D01*
X263851913Y-72048199D02*
X263851913Y-71895818D01*
X263813818Y-71819628D01*
X263775722Y-71781532D01*
X263661437Y-71705342D01*
X263509056Y-71667247D01*
X263204294Y-71667247D01*
X263128103Y-71705342D01*
X263090008Y-71743437D01*
X263051913Y-71819628D01*
X263051913Y-71972009D01*
X263090008Y-72048199D01*
X263128103Y-72086294D01*
X263204294Y-72124390D01*
X263394770Y-72124390D01*
X263470960Y-72086294D01*
X263509056Y-72048199D01*
X263547151Y-71972009D01*
X263547151Y-71819628D01*
X263509056Y-71743437D01*
X263470960Y-71705342D01*
X263394770Y-71667247D01*
X263051913Y-72886294D02*
X263051913Y-72429151D01*
X263051913Y-72657723D02*
X263851913Y-72657723D01*
X263737627Y-72581532D01*
X263661437Y-72505342D01*
X263623341Y-72429151D01*
X259901140Y-69251813D02*
X260701140Y-69251813D01*
X260701140Y-69442289D01*
X260663045Y-69556575D01*
X260586854Y-69632765D01*
X260510664Y-69670861D01*
X260358283Y-69708956D01*
X260243997Y-69708956D01*
X260091616Y-69670861D01*
X260015425Y-69632765D01*
X259939235Y-69556575D01*
X259901140Y-69442289D01*
X259901140Y-69251813D01*
X260701140Y-70394670D02*
X260701140Y-70242289D01*
X260663045Y-70166099D01*
X260624949Y-70128003D01*
X260510664Y-70051813D01*
X260358283Y-70013718D01*
X260053521Y-70013718D01*
X259977330Y-70051813D01*
X259939235Y-70089908D01*
X259901140Y-70166099D01*
X259901140Y-70318480D01*
X259939235Y-70394670D01*
X259977330Y-70432765D01*
X260053521Y-70470861D01*
X260243997Y-70470861D01*
X260320187Y-70432765D01*
X260358283Y-70394670D01*
X260396378Y-70318480D01*
X260396378Y-70166099D01*
X260358283Y-70089908D01*
X260320187Y-70051813D01*
X260243997Y-70013718D01*
X260624949Y-70775622D02*
X260663045Y-70813718D01*
X260701140Y-70889908D01*
X260701140Y-71080384D01*
X260663045Y-71156575D01*
X260624949Y-71194670D01*
X260548759Y-71232765D01*
X260472568Y-71232765D01*
X260358283Y-71194670D01*
X259901140Y-70737527D01*
X259901140Y-71232765D01*
X256750367Y-74212400D02*
X257550367Y-74212400D01*
X257550367Y-74402876D01*
X257512272Y-74517162D01*
X257436081Y-74593352D01*
X257359891Y-74631448D01*
X257207510Y-74669543D01*
X257093224Y-74669543D01*
X256940843Y-74631448D01*
X256864652Y-74593352D01*
X256788462Y-74517162D01*
X256750367Y-74402876D01*
X256750367Y-74212400D01*
X257550367Y-75355257D02*
X257550367Y-75202876D01*
X257512272Y-75126686D01*
X257474176Y-75088590D01*
X257359891Y-75012400D01*
X257207510Y-74974305D01*
X256902748Y-74974305D01*
X256826557Y-75012400D01*
X256788462Y-75050495D01*
X256750367Y-75126686D01*
X256750367Y-75279067D01*
X256788462Y-75355257D01*
X256826557Y-75393352D01*
X256902748Y-75431448D01*
X257093224Y-75431448D01*
X257169414Y-75393352D01*
X257207510Y-75355257D01*
X257245605Y-75279067D01*
X257245605Y-75126686D01*
X257207510Y-75050495D01*
X257169414Y-75012400D01*
X257093224Y-74974305D01*
X257550367Y-75698114D02*
X257550367Y-76193352D01*
X257245605Y-75926686D01*
X257245605Y-76040971D01*
X257207510Y-76117162D01*
X257169414Y-76155257D01*
X257093224Y-76193352D01*
X256902748Y-76193352D01*
X256826557Y-76155257D01*
X256788462Y-76117162D01*
X256750367Y-76040971D01*
X256750367Y-75812400D01*
X256788462Y-75736209D01*
X256826557Y-75698114D01*
X231605038Y-74212400D02*
X232405038Y-74212400D01*
X232405038Y-74402876D01*
X232366943Y-74517162D01*
X232290752Y-74593352D01*
X232214562Y-74631448D01*
X232062181Y-74669543D01*
X231947895Y-74669543D01*
X231795514Y-74631448D01*
X231719323Y-74593352D01*
X231643133Y-74517162D01*
X231605038Y-74402876D01*
X231605038Y-74212400D01*
X232405038Y-75355257D02*
X232405038Y-75202876D01*
X232366943Y-75126686D01*
X232328847Y-75088590D01*
X232214562Y-75012400D01*
X232062181Y-74974305D01*
X231757419Y-74974305D01*
X231681228Y-75012400D01*
X231643133Y-75050495D01*
X231605038Y-75126686D01*
X231605038Y-75279067D01*
X231643133Y-75355257D01*
X231681228Y-75393352D01*
X231757419Y-75431448D01*
X231947895Y-75431448D01*
X232024085Y-75393352D01*
X232062181Y-75355257D01*
X232100276Y-75279067D01*
X232100276Y-75126686D01*
X232062181Y-75050495D01*
X232024085Y-75012400D01*
X231947895Y-74974305D01*
X232138371Y-76117162D02*
X231605038Y-76117162D01*
X232443133Y-75926686D02*
X231871704Y-75736209D01*
X231871704Y-76231448D01*
X250510870Y-70905342D02*
X251310870Y-70905342D01*
X251310870Y-71095818D01*
X251272775Y-71210104D01*
X251196584Y-71286294D01*
X251120394Y-71324390D01*
X250968013Y-71362485D01*
X250853727Y-71362485D01*
X250701346Y-71324390D01*
X250625155Y-71286294D01*
X250548965Y-71210104D01*
X250510870Y-71095818D01*
X250510870Y-70905342D01*
X251310870Y-72048199D02*
X251310870Y-71895818D01*
X251272775Y-71819628D01*
X251234679Y-71781532D01*
X251120394Y-71705342D01*
X250968013Y-71667247D01*
X250663251Y-71667247D01*
X250587060Y-71705342D01*
X250548965Y-71743437D01*
X250510870Y-71819628D01*
X250510870Y-71972009D01*
X250548965Y-72048199D01*
X250587060Y-72086294D01*
X250663251Y-72124390D01*
X250853727Y-72124390D01*
X250929917Y-72086294D01*
X250968013Y-72048199D01*
X251006108Y-71972009D01*
X251006108Y-71819628D01*
X250968013Y-71743437D01*
X250929917Y-71705342D01*
X250853727Y-71667247D01*
X251310870Y-72848199D02*
X251310870Y-72467247D01*
X250929917Y-72429151D01*
X250968013Y-72467247D01*
X251006108Y-72543437D01*
X251006108Y-72733913D01*
X250968013Y-72810104D01*
X250929917Y-72848199D01*
X250853727Y-72886294D01*
X250663251Y-72886294D01*
X250587060Y-72848199D01*
X250548965Y-72810104D01*
X250510870Y-72733913D01*
X250510870Y-72543437D01*
X250548965Y-72467247D01*
X250587060Y-72429151D01*
X247360097Y-69251813D02*
X248160097Y-69251813D01*
X248160097Y-69442289D01*
X248122002Y-69556575D01*
X248045811Y-69632765D01*
X247969621Y-69670861D01*
X247817240Y-69708956D01*
X247702954Y-69708956D01*
X247550573Y-69670861D01*
X247474382Y-69632765D01*
X247398192Y-69556575D01*
X247360097Y-69442289D01*
X247360097Y-69251813D01*
X248160097Y-70394670D02*
X248160097Y-70242289D01*
X248122002Y-70166099D01*
X248083906Y-70128003D01*
X247969621Y-70051813D01*
X247817240Y-70013718D01*
X247512478Y-70013718D01*
X247436287Y-70051813D01*
X247398192Y-70089908D01*
X247360097Y-70166099D01*
X247360097Y-70318480D01*
X247398192Y-70394670D01*
X247436287Y-70432765D01*
X247512478Y-70470861D01*
X247702954Y-70470861D01*
X247779144Y-70432765D01*
X247817240Y-70394670D01*
X247855335Y-70318480D01*
X247855335Y-70166099D01*
X247817240Y-70089908D01*
X247779144Y-70051813D01*
X247702954Y-70013718D01*
X248160097Y-71156575D02*
X248160097Y-71004194D01*
X248122002Y-70928003D01*
X248083906Y-70889908D01*
X247969621Y-70813718D01*
X247817240Y-70775622D01*
X247512478Y-70775622D01*
X247436287Y-70813718D01*
X247398192Y-70851813D01*
X247360097Y-70928003D01*
X247360097Y-71080384D01*
X247398192Y-71156575D01*
X247436287Y-71194670D01*
X247512478Y-71232765D01*
X247702954Y-71232765D01*
X247779144Y-71194670D01*
X247817240Y-71156575D01*
X247855335Y-71080384D01*
X247855335Y-70928003D01*
X247817240Y-70851813D01*
X247779144Y-70813718D01*
X247702954Y-70775622D01*
X269353461Y-74212400D02*
X270153461Y-74212400D01*
X270153461Y-74402876D01*
X270115366Y-74517162D01*
X270039175Y-74593352D01*
X269962985Y-74631448D01*
X269810604Y-74669543D01*
X269696318Y-74669543D01*
X269543937Y-74631448D01*
X269467746Y-74593352D01*
X269391556Y-74517162D01*
X269353461Y-74402876D01*
X269353461Y-74212400D01*
X270153461Y-75355257D02*
X270153461Y-75202876D01*
X270115366Y-75126686D01*
X270077270Y-75088590D01*
X269962985Y-75012400D01*
X269810604Y-74974305D01*
X269505842Y-74974305D01*
X269429651Y-75012400D01*
X269391556Y-75050495D01*
X269353461Y-75126686D01*
X269353461Y-75279067D01*
X269391556Y-75355257D01*
X269429651Y-75393352D01*
X269505842Y-75431448D01*
X269696318Y-75431448D01*
X269772508Y-75393352D01*
X269810604Y-75355257D01*
X269848699Y-75279067D01*
X269848699Y-75126686D01*
X269810604Y-75050495D01*
X269772508Y-75012400D01*
X269696318Y-74974305D01*
X270153461Y-75698114D02*
X270153461Y-76231448D01*
X269353461Y-75888590D01*
X253599594Y-72558871D02*
X254399594Y-72558871D01*
X254399594Y-72749347D01*
X254361499Y-72863633D01*
X254285308Y-72939823D01*
X254209118Y-72977919D01*
X254056737Y-73016014D01*
X253942451Y-73016014D01*
X253790070Y-72977919D01*
X253713879Y-72939823D01*
X253637689Y-72863633D01*
X253599594Y-72749347D01*
X253599594Y-72558871D01*
X254399594Y-73701728D02*
X254399594Y-73549347D01*
X254361499Y-73473157D01*
X254323403Y-73435061D01*
X254209118Y-73358871D01*
X254056737Y-73320776D01*
X253751975Y-73320776D01*
X253675784Y-73358871D01*
X253637689Y-73396966D01*
X253599594Y-73473157D01*
X253599594Y-73625538D01*
X253637689Y-73701728D01*
X253675784Y-73739823D01*
X253751975Y-73777919D01*
X253942451Y-73777919D01*
X254018641Y-73739823D01*
X254056737Y-73701728D01*
X254094832Y-73625538D01*
X254094832Y-73473157D01*
X254056737Y-73396966D01*
X254018641Y-73358871D01*
X253942451Y-73320776D01*
X254056737Y-74235061D02*
X254094832Y-74158871D01*
X254132927Y-74120776D01*
X254209118Y-74082680D01*
X254247213Y-74082680D01*
X254323403Y-74120776D01*
X254361499Y-74158871D01*
X254399594Y-74235061D01*
X254399594Y-74387442D01*
X254361499Y-74463633D01*
X254323403Y-74501728D01*
X254247213Y-74539823D01*
X254209118Y-74539823D01*
X254132927Y-74501728D01*
X254094832Y-74463633D01*
X254056737Y-74387442D01*
X254056737Y-74235061D01*
X254018641Y-74158871D01*
X253980546Y-74120776D01*
X253904356Y-74082680D01*
X253751975Y-74082680D01*
X253675784Y-74120776D01*
X253637689Y-74158871D01*
X253599594Y-74235061D01*
X253599594Y-74387442D01*
X253637689Y-74463633D01*
X253675784Y-74501728D01*
X253751975Y-74539823D01*
X253904356Y-74539823D01*
X253980546Y-74501728D01*
X254018641Y-74463633D01*
X254056737Y-74387442D01*
X247197212Y-61240395D02*
X247340069Y-61288014D01*
X247387688Y-61335633D01*
X247435307Y-61430871D01*
X247435307Y-61573728D01*
X247387688Y-61668966D01*
X247340069Y-61716585D01*
X247244831Y-61764204D01*
X246863878Y-61764204D01*
X246863878Y-60764204D01*
X247197212Y-60764204D01*
X247292450Y-60811824D01*
X247340069Y-60859443D01*
X247387688Y-60954681D01*
X247387688Y-61049919D01*
X247340069Y-61145157D01*
X247292450Y-61192776D01*
X247197212Y-61240395D01*
X246863878Y-61240395D01*
X248054355Y-60764204D02*
X248244831Y-60764204D01*
X248340069Y-60811824D01*
X248435307Y-60907062D01*
X248482926Y-61097538D01*
X248482926Y-61430871D01*
X248435307Y-61621347D01*
X248340069Y-61716585D01*
X248244831Y-61764204D01*
X248054355Y-61764204D01*
X247959116Y-61716585D01*
X247863878Y-61621347D01*
X247816259Y-61430871D01*
X247816259Y-61097538D01*
X247863878Y-60907062D01*
X247959116Y-60811824D01*
X248054355Y-60764204D01*
X249101974Y-60764204D02*
X249292450Y-60764204D01*
X249387688Y-60811824D01*
X249482926Y-60907062D01*
X249530545Y-61097538D01*
X249530545Y-61430871D01*
X249482926Y-61621347D01*
X249387688Y-61716585D01*
X249292450Y-61764204D01*
X249101974Y-61764204D01*
X249006735Y-61716585D01*
X248911497Y-61621347D01*
X248863878Y-61430871D01*
X248863878Y-61097538D01*
X248911497Y-60907062D01*
X249006735Y-60811824D01*
X249101974Y-60764204D01*
X249816259Y-60764204D02*
X250387688Y-60764204D01*
X250101974Y-61764204D02*
X250101974Y-60764204D01*
X334185117Y-54548448D02*
X334137498Y-54596067D01*
X333994641Y-54643686D01*
X333899403Y-54643686D01*
X333756545Y-54596067D01*
X333661307Y-54500829D01*
X333613688Y-54405591D01*
X333566069Y-54215115D01*
X333566069Y-54072258D01*
X333613688Y-53881782D01*
X333661307Y-53786544D01*
X333756545Y-53691306D01*
X333899403Y-53643686D01*
X333994641Y-53643686D01*
X334137498Y-53691306D01*
X334185117Y-53738925D01*
X335042260Y-53977020D02*
X335042260Y-54643686D01*
X334804164Y-53596067D02*
X334566069Y-54310353D01*
X335185117Y-54310353D01*
X338520410Y-53730142D02*
X338615648Y-53730142D01*
X338710886Y-53777762D01*
X338758505Y-53825381D01*
X338806124Y-53920619D01*
X338853743Y-54111095D01*
X338853743Y-54349190D01*
X338806124Y-54539666D01*
X338758505Y-54634904D01*
X338710886Y-54682523D01*
X338615648Y-54730142D01*
X338520410Y-54730142D01*
X338425172Y-54682523D01*
X338377553Y-54634904D01*
X338329934Y-54539666D01*
X338282315Y-54349190D01*
X338282315Y-54111095D01*
X338329934Y-53920619D01*
X338377553Y-53825381D01*
X338425172Y-53777762D01*
X338520410Y-53730142D01*
X339282315Y-54634904D02*
X339329934Y-54682523D01*
X339282315Y-54730142D01*
X339234696Y-54682523D01*
X339282315Y-54634904D01*
X339282315Y-54730142D01*
X340282315Y-54730142D02*
X339710886Y-54730142D01*
X339996600Y-54730142D02*
X339996600Y-53730142D01*
X339901362Y-53873000D01*
X339806124Y-53968238D01*
X339710886Y-54015857D01*
X341139457Y-54063476D02*
X341139457Y-54730142D01*
X340710886Y-54063476D02*
X340710886Y-54587285D01*
X340758505Y-54682523D01*
X340853743Y-54730142D01*
X340996600Y-54730142D01*
X341091838Y-54682523D01*
X341139457Y-54634904D01*
X329583143Y-74303690D02*
X329535524Y-74351309D01*
X329392667Y-74398928D01*
X329297429Y-74398928D01*
X329154571Y-74351309D01*
X329059333Y-74256071D01*
X329011714Y-74160833D01*
X328964095Y-73970357D01*
X328964095Y-73827500D01*
X329011714Y-73637024D01*
X329059333Y-73541786D01*
X329154571Y-73446548D01*
X329297429Y-73398928D01*
X329392667Y-73398928D01*
X329535524Y-73446548D01*
X329583143Y-73494167D01*
X330487905Y-73398928D02*
X330011714Y-73398928D01*
X329964095Y-73875119D01*
X330011714Y-73827500D01*
X330106952Y-73779881D01*
X330345048Y-73779881D01*
X330440286Y-73827500D01*
X330487905Y-73875119D01*
X330535524Y-73970357D01*
X330535524Y-74208452D01*
X330487905Y-74303690D01*
X330440286Y-74351309D01*
X330345048Y-74398928D01*
X330106952Y-74398928D01*
X330011714Y-74351309D01*
X329964095Y-74303690D01*
X328704219Y-75409751D02*
X328799457Y-75409751D01*
X328894695Y-75457371D01*
X328942314Y-75504990D01*
X328989933Y-75600228D01*
X329037552Y-75790704D01*
X329037552Y-76028799D01*
X328989933Y-76219275D01*
X328942314Y-76314513D01*
X328894695Y-76362132D01*
X328799457Y-76409751D01*
X328704219Y-76409751D01*
X328608981Y-76362132D01*
X328561362Y-76314513D01*
X328513743Y-76219275D01*
X328466124Y-76028799D01*
X328466124Y-75790704D01*
X328513743Y-75600228D01*
X328561362Y-75504990D01*
X328608981Y-75457371D01*
X328704219Y-75409751D01*
X329466124Y-76314513D02*
X329513743Y-76362132D01*
X329466124Y-76409751D01*
X329418505Y-76362132D01*
X329466124Y-76314513D01*
X329466124Y-76409751D01*
X330466124Y-76409751D02*
X329894695Y-76409751D01*
X330180409Y-76409751D02*
X330180409Y-75409751D01*
X330085171Y-75552609D01*
X329989933Y-75647847D01*
X329894695Y-75695466D01*
X331323266Y-75743085D02*
X331323266Y-76409751D01*
X330894695Y-75743085D02*
X330894695Y-76266894D01*
X330942314Y-76362132D01*
X331037552Y-76409751D01*
X331180409Y-76409751D01*
X331275647Y-76362132D01*
X331323266Y-76314513D01*
X329932797Y-63565052D02*
X329932797Y-64374576D01*
X329980416Y-64469814D01*
X330028035Y-64517433D01*
X330123273Y-64565052D01*
X330313749Y-64565052D01*
X330408987Y-64517433D01*
X330456606Y-64469814D01*
X330504225Y-64374576D01*
X330504225Y-63565052D01*
X331504225Y-64565052D02*
X330932797Y-64565052D01*
X331218511Y-64565052D02*
X331218511Y-63565052D01*
X331123273Y-63707910D01*
X331028035Y-63803148D01*
X330932797Y-63850767D01*
X325349310Y-61742128D02*
X325825501Y-61742128D01*
X325254072Y-62027842D02*
X325587406Y-61027842D01*
X325920739Y-62027842D01*
X326111215Y-61027842D02*
X326682644Y-61027842D01*
X326396929Y-62027842D02*
X326396929Y-61027842D01*
X327015977Y-62027842D02*
X327015977Y-61361176D01*
X327015977Y-61456414D02*
X327063596Y-61408795D01*
X327158834Y-61361176D01*
X327301691Y-61361176D01*
X327396929Y-61408795D01*
X327444548Y-61504033D01*
X327444548Y-62027842D01*
X327444548Y-61504033D02*
X327492168Y-61408795D01*
X327587406Y-61361176D01*
X327730263Y-61361176D01*
X327825501Y-61408795D01*
X327873120Y-61504033D01*
X327873120Y-62027842D01*
X328730263Y-61980223D02*
X328635025Y-62027842D01*
X328444548Y-62027842D01*
X328349310Y-61980223D01*
X328301691Y-61884985D01*
X328301691Y-61504033D01*
X328349310Y-61408795D01*
X328444548Y-61361176D01*
X328635025Y-61361176D01*
X328730263Y-61408795D01*
X328777882Y-61504033D01*
X328777882Y-61599271D01*
X328301691Y-61694509D01*
X329635025Y-61361176D02*
X329635025Y-62170700D01*
X329587406Y-62265938D01*
X329539787Y-62313557D01*
X329444548Y-62361176D01*
X329301691Y-62361176D01*
X329206453Y-62313557D01*
X329635025Y-61980223D02*
X329539787Y-62027842D01*
X329349310Y-62027842D01*
X329254072Y-61980223D01*
X329206453Y-61932604D01*
X329158834Y-61837366D01*
X329158834Y-61551652D01*
X329206453Y-61456414D01*
X329254072Y-61408795D01*
X329349310Y-61361176D01*
X329539787Y-61361176D01*
X329635025Y-61408795D01*
X330539787Y-62027842D02*
X330539787Y-61504033D01*
X330492168Y-61408795D01*
X330396929Y-61361176D01*
X330206453Y-61361176D01*
X330111215Y-61408795D01*
X330539787Y-61980223D02*
X330444548Y-62027842D01*
X330206453Y-62027842D01*
X330111215Y-61980223D01*
X330063596Y-61884985D01*
X330063596Y-61789747D01*
X330111215Y-61694509D01*
X330206453Y-61646890D01*
X330444548Y-61646890D01*
X330539787Y-61599271D01*
X330920739Y-61027842D02*
X331539787Y-61027842D01*
X331206453Y-61408795D01*
X331349310Y-61408795D01*
X331444548Y-61456414D01*
X331492168Y-61504033D01*
X331539787Y-61599271D01*
X331539787Y-61837366D01*
X331492168Y-61932604D01*
X331444548Y-61980223D01*
X331349310Y-62027842D01*
X331063596Y-62027842D01*
X330968358Y-61980223D01*
X330920739Y-61932604D01*
X331920739Y-61123081D02*
X331968358Y-61075462D01*
X332063596Y-61027842D01*
X332301691Y-61027842D01*
X332396929Y-61075462D01*
X332444548Y-61123081D01*
X332492168Y-61218319D01*
X332492168Y-61313557D01*
X332444548Y-61456414D01*
X331873120Y-62027842D01*
X332492168Y-62027842D01*
X332873120Y-61742128D02*
X333349310Y-61742128D01*
X332777882Y-62027842D02*
X333111215Y-61027842D01*
X333444548Y-62027842D01*
X333777882Y-61646890D02*
X334539787Y-61646890D01*
X335015977Y-62027842D02*
X335015977Y-61027842D01*
X335396929Y-61027842D01*
X335492168Y-61075462D01*
X335539787Y-61123081D01*
X335587406Y-61218319D01*
X335587406Y-61361176D01*
X335539787Y-61456414D01*
X335492168Y-61504033D01*
X335396929Y-61551652D01*
X335015977Y-61551652D01*
X336015977Y-61027842D02*
X336015977Y-61837366D01*
X336063596Y-61932604D01*
X336111215Y-61980223D01*
X336206453Y-62027842D01*
X336396929Y-62027842D01*
X336492168Y-61980223D01*
X336539787Y-61932604D01*
X336587406Y-61837366D01*
X336587406Y-61027842D01*
D10*
X304978783Y-71007631D02*
X304597831Y-71274298D01*
X304978783Y-71464774D02*
X304178783Y-71464774D01*
X304178783Y-71160012D01*
X304216879Y-71083821D01*
X304254974Y-71045726D01*
X304331164Y-71007631D01*
X304445450Y-71007631D01*
X304521640Y-71045726D01*
X304559736Y-71083821D01*
X304597831Y-71160012D01*
X304597831Y-71464774D01*
X304445450Y-70321917D02*
X304978783Y-70321917D01*
X304140688Y-70512393D02*
X304712117Y-70702869D01*
X304712117Y-70207631D01*
X298372452Y-70479947D02*
X298905786Y-70479947D01*
X298562929Y-71279947D01*
X299591500Y-70479947D02*
X299210548Y-70479947D01*
X299172452Y-70860900D01*
X299210548Y-70822804D01*
X299286738Y-70784709D01*
X299477214Y-70784709D01*
X299553405Y-70822804D01*
X299591500Y-70860900D01*
X299629595Y-70937090D01*
X299629595Y-71127566D01*
X299591500Y-71203757D01*
X299553405Y-71241852D01*
X299477214Y-71279947D01*
X299286738Y-71279947D01*
X299210548Y-71241852D01*
X299172452Y-71203757D01*
X300429595Y-71279947D02*
X300162929Y-70898995D01*
X299972452Y-71279947D02*
X299972452Y-70479947D01*
X300277214Y-70479947D01*
X300353405Y-70518043D01*
X300391500Y-70556138D01*
X300429595Y-70632328D01*
X300429595Y-70746614D01*
X300391500Y-70822804D01*
X300353405Y-70860900D01*
X300277214Y-70898995D01*
X299972452Y-70898995D01*
X304978783Y-68496716D02*
X304597831Y-68763383D01*
X304978783Y-68953859D02*
X304178783Y-68953859D01*
X304178783Y-68649097D01*
X304216879Y-68572906D01*
X304254974Y-68534811D01*
X304331164Y-68496716D01*
X304445450Y-68496716D01*
X304521640Y-68534811D01*
X304559736Y-68572906D01*
X304597831Y-68649097D01*
X304597831Y-68953859D01*
X304178783Y-68230049D02*
X304178783Y-67734811D01*
X304483545Y-68001478D01*
X304483545Y-67887192D01*
X304521640Y-67811002D01*
X304559736Y-67772906D01*
X304635926Y-67734811D01*
X304826402Y-67734811D01*
X304902593Y-67772906D01*
X304940688Y-67811002D01*
X304978783Y-67887192D01*
X304978783Y-68115763D01*
X304940688Y-68191954D01*
X304902593Y-68230049D01*
X298372452Y-68012776D02*
X298905786Y-68012776D01*
X298562929Y-68812776D01*
X299591500Y-68012776D02*
X299210548Y-68012776D01*
X299172452Y-68393729D01*
X299210548Y-68355633D01*
X299286738Y-68317538D01*
X299477214Y-68317538D01*
X299553405Y-68355633D01*
X299591500Y-68393729D01*
X299629595Y-68469919D01*
X299629595Y-68660395D01*
X299591500Y-68736586D01*
X299553405Y-68774681D01*
X299477214Y-68812776D01*
X299286738Y-68812776D01*
X299210548Y-68774681D01*
X299172452Y-68736586D01*
X300429595Y-68812776D02*
X300162929Y-68431824D01*
X299972452Y-68812776D02*
X299972452Y-68012776D01*
X300277214Y-68012776D01*
X300353405Y-68050872D01*
X300391500Y-68088967D01*
X300429595Y-68165157D01*
X300429595Y-68279443D01*
X300391500Y-68355633D01*
X300353405Y-68393729D01*
X300277214Y-68431824D01*
X299972452Y-68431824D01*
X304978783Y-73518547D02*
X304597831Y-73785214D01*
X304978783Y-73975690D02*
X304178783Y-73975690D01*
X304178783Y-73670928D01*
X304216879Y-73594737D01*
X304254974Y-73556642D01*
X304331164Y-73518547D01*
X304445450Y-73518547D01*
X304521640Y-73556642D01*
X304559736Y-73594737D01*
X304597831Y-73670928D01*
X304597831Y-73975690D01*
X304178783Y-72794737D02*
X304178783Y-73175690D01*
X304559736Y-73213785D01*
X304521640Y-73175690D01*
X304483545Y-73099499D01*
X304483545Y-72909023D01*
X304521640Y-72832833D01*
X304559736Y-72794737D01*
X304635926Y-72756642D01*
X304826402Y-72756642D01*
X304902593Y-72794737D01*
X304940688Y-72832833D01*
X304978783Y-72909023D01*
X304978783Y-73099499D01*
X304940688Y-73175690D01*
X304902593Y-73213785D01*
X298753405Y-73799611D02*
X298296262Y-73799611D01*
X298524833Y-73799611D02*
X298524833Y-72999611D01*
X298448643Y-73113897D01*
X298372452Y-73190087D01*
X298296262Y-73228183D01*
X299096262Y-73723421D02*
X299134357Y-73761516D01*
X299096262Y-73799611D01*
X299058167Y-73761516D01*
X299096262Y-73723421D01*
X299096262Y-73799611D01*
X299858167Y-72999611D02*
X299477214Y-72999611D01*
X299439119Y-73380564D01*
X299477214Y-73342468D01*
X299553405Y-73304373D01*
X299743881Y-73304373D01*
X299820072Y-73342468D01*
X299858167Y-73380564D01*
X299896262Y-73456754D01*
X299896262Y-73647230D01*
X299858167Y-73723421D01*
X299820072Y-73761516D01*
X299743881Y-73799611D01*
X299553405Y-73799611D01*
X299477214Y-73761516D01*
X299439119Y-73723421D01*
X300239119Y-73799611D02*
X300239119Y-72999611D01*
X300315310Y-73494849D02*
X300543881Y-73799611D01*
X300543881Y-73266278D02*
X300239119Y-73571040D01*
X189392678Y-169738744D02*
X189392678Y-168738744D01*
X189964107Y-169738744D02*
X189535535Y-169167316D01*
X189964107Y-168738744D02*
X189392678Y-169310173D01*
X190392678Y-169214935D02*
X190726012Y-169214935D01*
X190868869Y-169738744D02*
X190392678Y-169738744D01*
X190392678Y-168738744D01*
X190868869Y-168738744D01*
X191487916Y-169262554D02*
X191487916Y-169738744D01*
X191154583Y-168738744D02*
X191487916Y-169262554D01*
X191821250Y-168738744D01*
X192106964Y-169691125D02*
X192249821Y-169738744D01*
X192487916Y-169738744D01*
X192583155Y-169691125D01*
X192630774Y-169643506D01*
X192678393Y-169548268D01*
X192678393Y-169453030D01*
X192630774Y-169357792D01*
X192583155Y-169310173D01*
X192487916Y-169262554D01*
X192297440Y-169214935D01*
X192202202Y-169167316D01*
X192154583Y-169119697D01*
X192106964Y-169024459D01*
X192106964Y-168929221D01*
X192154583Y-168833983D01*
X192202202Y-168786364D01*
X192297440Y-168738744D01*
X192535535Y-168738744D01*
X192678393Y-168786364D01*
X193011726Y-168738744D02*
X193249821Y-169738744D01*
X193440297Y-169024459D01*
X193630774Y-169738744D01*
X193868869Y-168738744D01*
D12*
X348620967Y-79378110D02*
X348573348Y-79425729D01*
X348430491Y-79473348D01*
X348335253Y-79473348D01*
X348192395Y-79425729D01*
X348097157Y-79330491D01*
X348049538Y-79235253D01*
X348001919Y-79044777D01*
X348001919Y-78901920D01*
X348049538Y-78711444D01*
X348097157Y-78616206D01*
X348192395Y-78520968D01*
X348335253Y-78473348D01*
X348430491Y-78473348D01*
X348573348Y-78520968D01*
X348620967Y-78568587D01*
X349573348Y-79473348D02*
X349001919Y-79473348D01*
X349287634Y-79473348D02*
X349287634Y-78473348D01*
X349192395Y-78616206D01*
X349097157Y-78711444D01*
X349001919Y-78759063D01*
X347916657Y-79966895D02*
X347964276Y-79919276D01*
X348059514Y-79871656D01*
X348297609Y-79871656D01*
X348392847Y-79919276D01*
X348440466Y-79966895D01*
X348488085Y-80062133D01*
X348488085Y-80157371D01*
X348440466Y-80300228D01*
X347869038Y-80871656D01*
X348488085Y-80871656D01*
X348869038Y-79966895D02*
X348916657Y-79919276D01*
X349011895Y-79871656D01*
X349249990Y-79871656D01*
X349345228Y-79919276D01*
X349392847Y-79966895D01*
X349440466Y-80062133D01*
X349440466Y-80157371D01*
X349392847Y-80300228D01*
X348821419Y-80871656D01*
X349440466Y-80871656D01*
X349869038Y-80204990D02*
X349869038Y-81204990D01*
X349869038Y-80252609D02*
X349964276Y-80204990D01*
X350154752Y-80204990D01*
X350249990Y-80252609D01*
X350297609Y-80300228D01*
X350345228Y-80395466D01*
X350345228Y-80681180D01*
X350297609Y-80776418D01*
X350249990Y-80824037D01*
X350154752Y-80871656D01*
X349964276Y-80871656D01*
X349869038Y-80824037D01*
X334342599Y-79430604D02*
X334294980Y-79478223D01*
X334152123Y-79525842D01*
X334056885Y-79525842D01*
X333914027Y-79478223D01*
X333818789Y-79382985D01*
X333771170Y-79287747D01*
X333723551Y-79097271D01*
X333723551Y-78954414D01*
X333771170Y-78763938D01*
X333818789Y-78668700D01*
X333914027Y-78573462D01*
X334056885Y-78525842D01*
X334152123Y-78525842D01*
X334294980Y-78573462D01*
X334342599Y-78621081D01*
X334723551Y-78621081D02*
X334771170Y-78573462D01*
X334866408Y-78525842D01*
X335104504Y-78525842D01*
X335199742Y-78573462D01*
X335247361Y-78621081D01*
X335294980Y-78716319D01*
X335294980Y-78811557D01*
X335247361Y-78954414D01*
X334675932Y-79525842D01*
X335294980Y-79525842D01*
X333428589Y-79966895D02*
X333476208Y-79919276D01*
X333571446Y-79871656D01*
X333809541Y-79871656D01*
X333904779Y-79919276D01*
X333952398Y-79966895D01*
X334000017Y-80062133D01*
X334000017Y-80157371D01*
X333952398Y-80300228D01*
X333380970Y-80871656D01*
X334000017Y-80871656D01*
X334380970Y-79966895D02*
X334428589Y-79919276D01*
X334523827Y-79871656D01*
X334761922Y-79871656D01*
X334857160Y-79919276D01*
X334904779Y-79966895D01*
X334952398Y-80062133D01*
X334952398Y-80157371D01*
X334904779Y-80300228D01*
X334333351Y-80871656D01*
X334952398Y-80871656D01*
X335380970Y-80204990D02*
X335380970Y-81204990D01*
X335380970Y-80252609D02*
X335476208Y-80204990D01*
X335666684Y-80204990D01*
X335761922Y-80252609D01*
X335809541Y-80300228D01*
X335857160Y-80395466D01*
X335857160Y-80681180D01*
X335809541Y-80776418D01*
X335761922Y-80824037D01*
X335666684Y-80871656D01*
X335476208Y-80871656D01*
X335380970Y-80824037D01*
X341111987Y-75461124D02*
X341111987Y-75937314D01*
X340778654Y-74937314D02*
X341111987Y-75461124D01*
X341445320Y-74937314D01*
X342302463Y-75937314D02*
X341731035Y-75937314D01*
X342016749Y-75937314D02*
X342016749Y-74937314D01*
X341921511Y-75080172D01*
X341826273Y-75175410D01*
X341731035Y-75223029D01*
X291000053Y-62335058D02*
X290952434Y-62382677D01*
X290809577Y-62430296D01*
X290714339Y-62430296D01*
X290571481Y-62382677D01*
X290476243Y-62287439D01*
X290428624Y-62192201D01*
X290381005Y-62001725D01*
X290381005Y-61858868D01*
X290428624Y-61668392D01*
X290476243Y-61573154D01*
X290571481Y-61477916D01*
X290714339Y-61430296D01*
X290809577Y-61430296D01*
X290952434Y-61477916D01*
X291000053Y-61525535D01*
X291333386Y-61430296D02*
X291952434Y-61430296D01*
X291619100Y-61811249D01*
X291761958Y-61811249D01*
X291857196Y-61858868D01*
X291904815Y-61906487D01*
X291952434Y-62001725D01*
X291952434Y-62239820D01*
X291904815Y-62335058D01*
X291857196Y-62382677D01*
X291761958Y-62430296D01*
X291476243Y-62430296D01*
X291381005Y-62382677D01*
X291333386Y-62335058D01*
D10*
X304978783Y-60963971D02*
X304597831Y-61230638D01*
X304978783Y-61421114D02*
X304178783Y-61421114D01*
X304178783Y-61116352D01*
X304216879Y-61040161D01*
X304254974Y-61002066D01*
X304331164Y-60963971D01*
X304445450Y-60963971D01*
X304521640Y-61002066D01*
X304559736Y-61040161D01*
X304597831Y-61116352D01*
X304597831Y-61421114D01*
X304178783Y-60278257D02*
X304178783Y-60430638D01*
X304216879Y-60506828D01*
X304254974Y-60544923D01*
X304369259Y-60621114D01*
X304521640Y-60659209D01*
X304826402Y-60659209D01*
X304902593Y-60621114D01*
X304940688Y-60583018D01*
X304978783Y-60506828D01*
X304978783Y-60354447D01*
X304940688Y-60278257D01*
X304902593Y-60240161D01*
X304826402Y-60202066D01*
X304635926Y-60202066D01*
X304559736Y-60240161D01*
X304521640Y-60278257D01*
X304483545Y-60354447D01*
X304483545Y-60506828D01*
X304521640Y-60583018D01*
X304559736Y-60621114D01*
X304635926Y-60659209D01*
X298677214Y-61219948D02*
X298220072Y-61219948D01*
X298448643Y-61219948D02*
X298448643Y-60419948D01*
X298372452Y-60534234D01*
X298296262Y-60610424D01*
X298220072Y-60648520D01*
X299020072Y-61143758D02*
X299058167Y-61181853D01*
X299020072Y-61219948D01*
X298981976Y-61181853D01*
X299020072Y-61143758D01*
X299020072Y-61219948D01*
X299781976Y-60419948D02*
X299401024Y-60419948D01*
X299362929Y-60800901D01*
X299401024Y-60762805D01*
X299477214Y-60724710D01*
X299667691Y-60724710D01*
X299743881Y-60762805D01*
X299781976Y-60800901D01*
X299820072Y-60877091D01*
X299820072Y-61067567D01*
X299781976Y-61143758D01*
X299743881Y-61181853D01*
X299667691Y-61219948D01*
X299477214Y-61219948D01*
X299401024Y-61181853D01*
X299362929Y-61143758D01*
X300162929Y-61219948D02*
X300162929Y-60419948D01*
X300620072Y-61219948D02*
X300277214Y-60762805D01*
X300620072Y-60419948D02*
X300162929Y-60877091D01*
X304978783Y-58453056D02*
X304597831Y-58719723D01*
X304978783Y-58910199D02*
X304178783Y-58910199D01*
X304178783Y-58605437D01*
X304216879Y-58529246D01*
X304254974Y-58491151D01*
X304331164Y-58453056D01*
X304445450Y-58453056D01*
X304521640Y-58491151D01*
X304559736Y-58529246D01*
X304597831Y-58605437D01*
X304597831Y-58910199D01*
X304178783Y-58186389D02*
X304178783Y-57653056D01*
X304978783Y-57995913D01*
X298943881Y-58731402D02*
X298486738Y-58731402D01*
X298715310Y-58731402D02*
X298715310Y-57931402D01*
X298639119Y-58045688D01*
X298562929Y-58121878D01*
X298486738Y-58159974D01*
X299439119Y-57931402D02*
X299515310Y-57931402D01*
X299591500Y-57969498D01*
X299629595Y-58007593D01*
X299667691Y-58083783D01*
X299705786Y-58236164D01*
X299705786Y-58426640D01*
X299667691Y-58579021D01*
X299629595Y-58655212D01*
X299591500Y-58693307D01*
X299515310Y-58731402D01*
X299439119Y-58731402D01*
X299362929Y-58693307D01*
X299324833Y-58655212D01*
X299286738Y-58579021D01*
X299248643Y-58426640D01*
X299248643Y-58236164D01*
X299286738Y-58083783D01*
X299324833Y-58007593D01*
X299362929Y-57969498D01*
X299439119Y-57931402D01*
X300048643Y-58731402D02*
X300048643Y-57931402D01*
X300124833Y-58426640D02*
X300353405Y-58731402D01*
X300353405Y-58198069D02*
X300048643Y-58502831D01*
M02*
