M48
; DRILL file {KiCad (5.99.0-208-ga1d3f3486)} date 11/19/19 11:23:22
; FORMAT={3:3/ absolute / metric / suppress leading zeros}
; #@! TF.CreationDate,2019-11-19T11:23:22+07:00
; #@! TF.GenerationSoftware,Kicad,Pcbnew,(5.99.0-208-ga1d3f3486)
FMAT,2
METRIC,TZ
T1C0.400
T2C0.600
T3C0.700
T4C0.800
T5C0.900
T6C1.016
T7C1.100
T8C1.500
T9C2.200
T10C1.700
T11C3.048
T12C3.050
T13C3.988
T14C4.000
%
G90
G05
T1
X64375Y-81716
X111672Y-119424
X134052Y-173090
X219215Y-173370
X230501Y-63640
X241822Y-60736
X243502Y-64575
X244850Y-64183
X245497Y-62888
X255979Y-62495
X256048Y-65687
X256731Y-168453
X256857Y-63715
X256976Y-61260
X257238Y-62720
X261385Y-116782
X264026Y-57599
X269079Y-55485
X269814Y-59580
X274427Y-55854
X279938Y-63375
X281945Y-117219
X283380Y-168243
X283590Y-57279
X284344Y-64688
X285750Y-64688
X290204Y-168331
X296428Y-56418
X296486Y-168471
X305375Y-73597
X309079Y-61364
X310292Y-84200
X311633Y-61364
X314188Y-61364
X316743Y-61364
X319297Y-61364
X321648Y-66440
X321852Y-61364
X323042Y-68952
X323066Y-73492
X323765Y-83238
X324063Y-142906
X324407Y-61364
X324407Y-66509
X326716Y-66509
X329236Y-66509
X329662Y-58251
X331220Y-87927
X340109Y-164761
X349348Y-89088
T2
X291254Y-64152
X291254Y-65652
T3
X276824Y-54598
X276824Y-59698
X295533Y-70893
X303153Y-70893
X282744Y-62344
X283544Y-61144
X284344Y-62344
X285144Y-61144
X285944Y-62344
X295533Y-68400
X303153Y-68400
X295533Y-58321
X303153Y-58321
X295533Y-60815
X303153Y-60815
X295533Y-73387
X303153Y-73387
T4
X263414Y-64377
X263414Y-69457
X279230Y-66030
X279230Y-71110
X105241Y-67684
X105241Y-72764
X89394Y-66030
X89394Y-71110
X152783Y-66030
X152783Y-71110
X79885Y-67684
X79885Y-72764
X266565Y-66030
X266565Y-71110
X165461Y-66030
X165461Y-71110
X331902Y-54174
X336902Y-54174
X162291Y-64377
X162291Y-69457
X127427Y-66030
X127427Y-71110
X159122Y-62723
X159122Y-67803
X260263Y-62723
X260263Y-67803
X178139Y-66030
X178139Y-71110
X253961Y-66030
X253961Y-71110
X216172Y-66030
X216172Y-71110
X306530Y-56397
X306530Y-71637
X309070Y-56397
X309070Y-71637
X311610Y-56397
X311610Y-71637
X314150Y-56397
X314150Y-71637
X316690Y-56397
X316690Y-71637
X319230Y-56397
X319230Y-71637
X321770Y-56397
X321770Y-71637
X324310Y-56397
X324310Y-71637
X326850Y-56397
X326850Y-71637
X329390Y-56397
X329390Y-71637
X331930Y-56397
X331930Y-71637
X334470Y-56397
X334470Y-71637
X337010Y-56397
X337010Y-71637
X339550Y-56397
X339550Y-71637
X342090Y-56397
X342090Y-71637
X344630Y-56397
X344630Y-71637
X347170Y-56397
X347170Y-71637
X349710Y-56397
X349710Y-71637
X352250Y-56397
X352250Y-71637
X354790Y-56397
X354790Y-71637
X181308Y-67684
X181308Y-72764
X98902Y-64377
X98902Y-69457
X244571Y-67684
X244571Y-72764
X276141Y-64377
X276141Y-69457
X187647Y-64377
X187647Y-69457
X171800Y-62723
X171800Y-67803
X250873Y-64377
X250873Y-69457
X241420Y-66030
X241420Y-71110
X290082Y-68410
X290082Y-73490
X155952Y-67684
X155952Y-72764
X111580Y-64377
X111580Y-69457
X225663Y-64377
X225663Y-69457
X92563Y-67684
X92563Y-72764
X200325Y-64377
X200325Y-69457
X184477Y-62723
X184477Y-67803
X247722Y-62723
X247722Y-67803
X193986Y-67684
X193986Y-72764
X282318Y-67684
X282318Y-72764
X334457Y-74754
X334457Y-77254
X168630Y-67684
X168630Y-72764
X108410Y-62723
X108410Y-67803
X86224Y-64377
X86224Y-69457
X206664Y-67684
X206664Y-72764
X209833Y-62723
X209833Y-67803
X257112Y-67684
X257112Y-72764
X117919Y-67684
X117919Y-72764
X327248Y-73964
X332248Y-73964
X339148Y-75504
X344028Y-75504
X272866Y-62723
X272866Y-67803
X124258Y-64377
X124258Y-69457
X130597Y-67684
X130597Y-72764
X121088Y-62723
X121088Y-67803
X228815Y-66030
X228815Y-71110
X140105Y-66030
X140105Y-71110
X70377Y-62723
X70377Y-67803
X174969Y-64377
X174969Y-69457
X197155Y-62723
X197155Y-67803
X190816Y-66030
X190816Y-71110
X235119Y-62723
X235119Y-67803
X269715Y-67684
X269715Y-72764
X76716Y-66030
X76716Y-71110
X102071Y-66030
X102071Y-71110
X95733Y-62723
X95733Y-67803
X292952Y-68410
X292952Y-73490
X136936Y-64377
X136936Y-69457
X238270Y-64377
X238270Y-69457
X133766Y-62723
X133766Y-67803
X83055Y-62723
X83055Y-67803
X231967Y-67684
X231967Y-72764
X348683Y-74754
X348683Y-77254
X213003Y-64377
X213003Y-69457
X222511Y-62723
X222511Y-67803
X203494Y-66030
X203494Y-71110
X73546Y-64377
X73546Y-69457
X143274Y-67684
X143274Y-72764
X219342Y-67684
X219342Y-72764
X114749Y-66030
X114749Y-71110
X149613Y-64377
X149613Y-69457
X146444Y-62723
X146444Y-67803
T5
X290904Y-57218
X293444Y-57218
T6
X256990Y-55598
X256990Y-58139
X259530Y-55598
X259530Y-58139
X262070Y-55598
X262070Y-58139
T7
X233262Y-55084
X233262Y-59584
X239762Y-55084
X239762Y-59584
X245262Y-55084
X245262Y-59584
X251762Y-55084
X251762Y-59584
T8
X187752Y-163681
X194102Y-161141
X352058Y-125581
X358408Y-123041
X171083Y-106531
X177433Y-103991
X142508Y-87481
X148858Y-84941
X78214Y-144631
X84564Y-142091
X199658Y-87481
X206008Y-84941
X294948Y-163681
X301298Y-161141
X223471Y-144631
X229821Y-142091
X118695Y-125581
X125045Y-123041
X247283Y-106531
X253633Y-103991
X352058Y-144631
X358408Y-142091
X73452Y-125581
X79802Y-123041
X256808Y-87481
X263158Y-84941
X99670Y-163677
X106020Y-161137
X175845Y-125581
X182195Y-123041
X323483Y-87481
X329833Y-84941
X161558Y-87481
X167908Y-84941
X209183Y-106531
X215533Y-103991
X180634Y-163689
X186984Y-161149
X306814Y-144631
X313164Y-142091
X352058Y-163681
X358408Y-161141
X166321Y-144631
X172671Y-142091
X352058Y-106531
X358408Y-103991
X68689Y-125581
X75039Y-123041
X137745Y-125581
X144095Y-123041
X228233Y-106531
X234583Y-103991
X294908Y-87481
X301258Y-84941
X68689Y-163681
X75039Y-161141
X242521Y-144631
X248871Y-142091
X213945Y-125581
X220295Y-123041
X123458Y-87481
X129808Y-84941
X128220Y-144631
X134570Y-142091
X152033Y-106531
X158383Y-103991
X180608Y-87481
X186958Y-84941
X66308Y-87481
X72658Y-84941
X285383Y-106531
X291733Y-103991
X85358Y-87481
X91708Y-84941
X321102Y-125581
X327452Y-123041
X132983Y-106531
X139333Y-103991
X113933Y-106531
X120283Y-103991
X99645Y-125581
X105995Y-123041
X304433Y-106531
X310783Y-103991
X280621Y-144631
X286971Y-142091
X256837Y-163681
X263187Y-161141
X190133Y-106531
X196483Y-103991
X290167Y-163681
X296517Y-161141
X156795Y-125581
X163145Y-123041
X333008Y-144631
X339358Y-142091
X71070Y-106531
X77420Y-103991
X275858Y-87481
X282208Y-84941
X147270Y-144631
X153620Y-142091
X194895Y-125581
X201245Y-123041
X94883Y-106531
X101233Y-103991
X261571Y-144631
X267921Y-142091
X271095Y-125581
X277445Y-123041
X92502Y-163681
X98852Y-161141
X333008Y-163681
X339358Y-161141
X352058Y-87481
X358408Y-84941
X104408Y-87481
X110758Y-84941
X313958Y-163681
X320308Y-161141
X71070Y-163677
X77420Y-161137
X116314Y-163681
X122664Y-161141
X218708Y-87481
X225058Y-84941
X290145Y-125581
X296495Y-123041
X266333Y-106531
X272683Y-103991
X261610Y-163681
X267960Y-161141
X204421Y-144631
X210771Y-142091
X252045Y-125581
X258395Y-123041
X232995Y-125581
X239345Y-123041
X185371Y-144631
X191721Y-142091
X328245Y-106531
X334595Y-103991
X237758Y-87481
X244108Y-84941
X109170Y-144631
X115520Y-142091
X275893Y-163681
X282243Y-161141
T9
X65233Y-75469
X212990Y-162206
X212990Y-99551
X120531Y-99551
X360747Y-75469
X103342Y-156395
X322637Y-156395
X305449Y-99551
X65233Y-57147
X360747Y-57147
T10
X212675Y-128121
X222835Y-128121
X122188Y-90021
X132348Y-90021
X126950Y-147171
X137110Y-147171
X150763Y-109071
X160923Y-109071
X179338Y-90021
X189498Y-90021
X65038Y-90021
X75198Y-90021
X284113Y-109071
X294273Y-109071
X84088Y-90021
X94248Y-90021
X319832Y-128121
X329992Y-128121
X131713Y-109071
X141873Y-109071
X112663Y-109071
X122823Y-109071
X98375Y-128121
X108535Y-128121
X303163Y-109071
X313323Y-109071
X279351Y-147171
X289511Y-147171
X255567Y-166221
X265727Y-166221
X188863Y-109071
X199023Y-109071
X288897Y-166221
X299057Y-166221
X155525Y-128121
X165685Y-128121
X331738Y-147171
X341898Y-147171
X69800Y-109071
X79960Y-109071
X274588Y-90021
X284748Y-90021
X146000Y-147171
X156160Y-147171
X193625Y-128121
X203785Y-128121
X93613Y-109071
X103773Y-109071
X260301Y-147171
X270461Y-147171
X269825Y-128121
X279985Y-128121
X91232Y-166221
X101392Y-166221
X331738Y-166221
X341898Y-166221
X350788Y-90021
X360948Y-90021
X103138Y-90021
X113298Y-90021
X312688Y-166221
X322848Y-166221
X69800Y-166217
X79960Y-166217
X115044Y-166221
X125204Y-166221
X217438Y-90021
X227598Y-90021
X288875Y-128121
X299035Y-128121
X265063Y-109071
X275223Y-109071
X260340Y-166221
X270500Y-166221
X203151Y-147171
X213311Y-147171
X250775Y-128121
X260935Y-128121
X231725Y-128121
X241885Y-128121
X184101Y-147171
X194261Y-147171
X326975Y-109071
X337135Y-109071
X236488Y-90021
X246648Y-90021
X107900Y-147171
X118060Y-147171
X274623Y-166221
X284783Y-166221
X186482Y-166221
X196642Y-166221
X350788Y-128121
X360948Y-128121
X169813Y-109071
X179973Y-109071
X141238Y-90021
X151398Y-90021
X76944Y-147171
X87104Y-147171
X198388Y-90021
X208548Y-90021
X293678Y-166221
X303838Y-166221
X222201Y-147171
X232361Y-147171
X117425Y-128121
X127585Y-128121
X246013Y-109071
X256173Y-109071
X350788Y-147171
X360948Y-147171
X72182Y-128121
X82342Y-128121
X255538Y-90021
X265698Y-90021
X98400Y-166217
X108560Y-166217
X174575Y-128121
X184735Y-128121
X322213Y-90021
X332373Y-90021
X160288Y-90021
X170448Y-90021
X207913Y-109071
X218073Y-109071
X179364Y-166229
X189524Y-166229
X305544Y-147171
X315704Y-147171
X350788Y-166221
X360948Y-166221
X165051Y-147171
X175211Y-147171
X350788Y-109071
X360948Y-109071
X67419Y-128121
X77579Y-128121
X136475Y-128121
X146635Y-128121
X226963Y-109071
X237123Y-109071
X293638Y-90021
X303798Y-90021
X67419Y-166221
X77579Y-166221
X241251Y-147171
X251411Y-147171
T11
X141583Y-173214
X241583Y-173214
X127294Y-173214
X241594Y-173214
T12
X70124Y-140171
X93924Y-140171
X315393Y-83021
X339193Y-83021
X313012Y-121121
X336812Y-121121
T13
X141583Y-157974
X241583Y-157974
X127294Y-157974
X241594Y-157974
T14
X70118Y-90021
X289193Y-109071
X89168Y-90021
X313012Y-136361
X324912Y-128121
X336812Y-136361
X136793Y-109071
X117743Y-109071
X103455Y-128121
X308243Y-109071
X284431Y-147171
X260647Y-166221
X193943Y-109071
X293977Y-166221
X160605Y-128121
X336818Y-147171
X74880Y-109071
X279668Y-90021
X151080Y-147171
X198705Y-128121
X98693Y-109071
X265381Y-147171
X274905Y-128121
X96312Y-166221
X336818Y-166221
X355868Y-90021
X108218Y-90021
X317768Y-166221
X74880Y-166217
X120124Y-166221
X222518Y-90021
X293955Y-128121
X270143Y-109071
X265420Y-166221
X208231Y-147171
X255855Y-128121
X236805Y-128121
X189181Y-147171
X332055Y-109071
X241568Y-90021
X112980Y-147171
X279703Y-166221
X191562Y-166221
X355868Y-128121
X174893Y-109071
X146318Y-90021
X70124Y-155411
X82024Y-147171
X93924Y-155411
X203468Y-90021
X298758Y-166221
X227281Y-147171
X122505Y-128121
X251093Y-109071
X355868Y-147171
X77262Y-128121
X260618Y-90021
X103480Y-166217
X179655Y-128121
X315393Y-98261
X327293Y-90021
X339193Y-98261
X165368Y-90021
X212993Y-109071
X184444Y-166229
X310624Y-147171
X355868Y-166221
X170131Y-147171
X355868Y-109071
X72499Y-128121
X141555Y-128121
X232043Y-109071
X298718Y-90021
X72499Y-166221
X246331Y-147171
X217755Y-128121
X127268Y-90021
X132030Y-147171
X155843Y-109071
X184418Y-90021
T4
G00X280644Y-57244
M15
G01X280644Y-56144
M16
G05
G00X280644Y-61994
M15
G01X280644Y-60894
M16
G05
G00X288044Y-57244
M15
G01X288044Y-56144
M16
G05
G00X288044Y-61994
M15
G01X288044Y-60894
M16
G05
T0
M30
