G04 #@! TF.GenerationSoftware,KiCad,Pcbnew,(5.1.5)-3*
G04 #@! TF.CreationDate,2020-06-26T12:36:06-04:00*
G04 #@! TF.ProjectId,discipline-pcb,64697363-6970-46c6-996e-652d7063622e,rev?*
G04 #@! TF.SameCoordinates,Original*
G04 #@! TF.FileFunction,Soldermask,Bot*
G04 #@! TF.FilePolarity,Negative*
%FSLAX46Y46*%
G04 Gerber Fmt 4.6, Leading zero omitted, Abs format (unit mm)*
G04 Created by KiCad (PCBNEW (5.1.5)-3) date 2020-06-26 12:36:06*
%MOMM*%
%LPD*%
G04 APERTURE LIST*
%ADD10C,0.010000*%
G04 APERTURE END LIST*
D10*
G36*
X178077840Y-167516238D02*
G01*
X178240117Y-167516238D01*
X178240117Y-167361016D01*
X178077840Y-167361016D01*
X178077840Y-167516238D01*
G37*
X178077840Y-167516238D02*
X178240117Y-167516238D01*
X178240117Y-167361016D01*
X178077840Y-167361016D01*
X178077840Y-167516238D01*
G36*
X181224617Y-167516238D02*
G01*
X181386895Y-167516238D01*
X181386895Y-167361016D01*
X181224617Y-167361016D01*
X181224617Y-167516238D01*
G37*
X181224617Y-167516238D02*
X181386895Y-167516238D01*
X181386895Y-167361016D01*
X181224617Y-167361016D01*
X181224617Y-167516238D01*
G36*
X174619523Y-167283609D02*
G01*
X174575393Y-167286816D01*
X174538786Y-167292586D01*
X174532951Y-167294009D01*
X174468588Y-167317461D01*
X174413757Y-167351231D01*
X174368599Y-167395105D01*
X174333252Y-167448871D01*
X174307857Y-167512315D01*
X174292555Y-167585223D01*
X174287486Y-167667382D01*
X174287487Y-167667933D01*
X174292238Y-167749945D01*
X174306586Y-167831725D01*
X174331131Y-167915472D01*
X174366469Y-168003383D01*
X174395128Y-168063044D01*
X174407958Y-168087057D01*
X174427310Y-168121581D01*
X174452294Y-168165121D01*
X174482019Y-168216179D01*
X174515596Y-168273260D01*
X174552133Y-168334867D01*
X174590741Y-168399505D01*
X174630529Y-168465677D01*
X174670607Y-168531887D01*
X174710084Y-168596638D01*
X174748070Y-168658435D01*
X174781411Y-168712155D01*
X174803426Y-168747433D01*
X174546216Y-168749283D01*
X174289006Y-168751134D01*
X174289006Y-168899127D01*
X175001617Y-168899127D01*
X175001617Y-168767815D01*
X174803091Y-168433068D01*
X174764188Y-168367293D01*
X174726134Y-168302616D01*
X174689793Y-168240525D01*
X174656028Y-168182514D01*
X174625704Y-168130072D01*
X174599684Y-168084690D01*
X174578833Y-168047859D01*
X174564014Y-168021071D01*
X174560049Y-168013655D01*
X174518259Y-167926197D01*
X174486664Y-167842581D01*
X174465391Y-167763658D01*
X174454571Y-167690277D01*
X174454333Y-167623288D01*
X174464804Y-167563543D01*
X174484416Y-167514950D01*
X174510680Y-167476913D01*
X174542439Y-167450755D01*
X174581505Y-167435451D01*
X174629694Y-167429975D01*
X174634728Y-167429929D01*
X174682073Y-167434146D01*
X174721344Y-167447963D01*
X174756026Y-167472884D01*
X174771987Y-167489145D01*
X174798824Y-167525314D01*
X174818826Y-167567523D01*
X174832970Y-167618360D01*
X174841453Y-167673224D01*
X174849215Y-167742016D01*
X175010799Y-167742016D01*
X175006484Y-167669697D01*
X174997827Y-167595198D01*
X174981498Y-167525827D01*
X174958384Y-167465207D01*
X174954738Y-167457785D01*
X174924220Y-167410783D01*
X174883613Y-167367730D01*
X174836208Y-167331237D01*
X174785293Y-167303917D01*
X174743762Y-167290309D01*
X174709036Y-167285262D01*
X174665847Y-167283060D01*
X174619523Y-167283609D01*
G37*
X174619523Y-167283609D02*
X174575393Y-167286816D01*
X174538786Y-167292586D01*
X174532951Y-167294009D01*
X174468588Y-167317461D01*
X174413757Y-167351231D01*
X174368599Y-167395105D01*
X174333252Y-167448871D01*
X174307857Y-167512315D01*
X174292555Y-167585223D01*
X174287486Y-167667382D01*
X174287487Y-167667933D01*
X174292238Y-167749945D01*
X174306586Y-167831725D01*
X174331131Y-167915472D01*
X174366469Y-168003383D01*
X174395128Y-168063044D01*
X174407958Y-168087057D01*
X174427310Y-168121581D01*
X174452294Y-168165121D01*
X174482019Y-168216179D01*
X174515596Y-168273260D01*
X174552133Y-168334867D01*
X174590741Y-168399505D01*
X174630529Y-168465677D01*
X174670607Y-168531887D01*
X174710084Y-168596638D01*
X174748070Y-168658435D01*
X174781411Y-168712155D01*
X174803426Y-168747433D01*
X174546216Y-168749283D01*
X174289006Y-168751134D01*
X174289006Y-168899127D01*
X175001617Y-168899127D01*
X175001617Y-168767815D01*
X174803091Y-168433068D01*
X174764188Y-168367293D01*
X174726134Y-168302616D01*
X174689793Y-168240525D01*
X174656028Y-168182514D01*
X174625704Y-168130072D01*
X174599684Y-168084690D01*
X174578833Y-168047859D01*
X174564014Y-168021071D01*
X174560049Y-168013655D01*
X174518259Y-167926197D01*
X174486664Y-167842581D01*
X174465391Y-167763658D01*
X174454571Y-167690277D01*
X174454333Y-167623288D01*
X174464804Y-167563543D01*
X174484416Y-167514950D01*
X174510680Y-167476913D01*
X174542439Y-167450755D01*
X174581505Y-167435451D01*
X174629694Y-167429975D01*
X174634728Y-167429929D01*
X174682073Y-167434146D01*
X174721344Y-167447963D01*
X174756026Y-167472884D01*
X174771987Y-167489145D01*
X174798824Y-167525314D01*
X174818826Y-167567523D01*
X174832970Y-167618360D01*
X174841453Y-167673224D01*
X174849215Y-167742016D01*
X175010799Y-167742016D01*
X175006484Y-167669697D01*
X174997827Y-167595198D01*
X174981498Y-167525827D01*
X174958384Y-167465207D01*
X174954738Y-167457785D01*
X174924220Y-167410783D01*
X174883613Y-167367730D01*
X174836208Y-167331237D01*
X174785293Y-167303917D01*
X174743762Y-167290309D01*
X174709036Y-167285262D01*
X174665847Y-167283060D01*
X174619523Y-167283609D01*
G36*
X176463387Y-167283459D02*
G01*
X176419257Y-167286509D01*
X176382077Y-167292183D01*
X176374498Y-167293997D01*
X176309867Y-167317521D01*
X176254718Y-167351497D01*
X176209052Y-167395920D01*
X176172873Y-167450789D01*
X176146184Y-167516099D01*
X176140113Y-167537405D01*
X176132998Y-167577195D01*
X176129158Y-167626197D01*
X176128582Y-167679897D01*
X176131262Y-167733784D01*
X176137188Y-167783345D01*
X176140685Y-167801988D01*
X176149245Y-167839292D01*
X176158919Y-167875275D01*
X176170289Y-167911114D01*
X176183938Y-167947987D01*
X176200448Y-167987071D01*
X176220402Y-168029542D01*
X176244381Y-168076577D01*
X176272969Y-168129355D01*
X176306748Y-168189050D01*
X176346301Y-168256841D01*
X176392209Y-168333905D01*
X176445055Y-168421418D01*
X176456652Y-168440516D01*
X176643177Y-168747433D01*
X176386842Y-168749283D01*
X176130506Y-168751134D01*
X176130506Y-168899127D01*
X176843117Y-168899127D01*
X176843055Y-168768599D01*
X176634231Y-168415822D01*
X176594722Y-168348881D01*
X176556339Y-168283479D01*
X176519880Y-168220996D01*
X176486140Y-168162816D01*
X176455918Y-168110320D01*
X176430010Y-168064891D01*
X176409212Y-168027911D01*
X176394322Y-168000762D01*
X176388148Y-167988960D01*
X176350541Y-167906317D01*
X176322110Y-167826689D01*
X176303268Y-167751665D01*
X176294427Y-167682834D01*
X176295058Y-167630665D01*
X176300518Y-167587095D01*
X176308911Y-167552756D01*
X176321756Y-167522838D01*
X176337071Y-167497644D01*
X176366957Y-167463803D01*
X176403522Y-167441778D01*
X176447895Y-167431011D01*
X176474629Y-167429676D01*
X176521983Y-167433845D01*
X176560920Y-167446975D01*
X176595022Y-167470599D01*
X176613487Y-167489145D01*
X176638919Y-167522952D01*
X176658043Y-167561869D01*
X176671911Y-167608701D01*
X176681580Y-167666250D01*
X176682290Y-167672135D01*
X176690489Y-167742016D01*
X176850173Y-167742016D01*
X176850080Y-167694391D01*
X176847119Y-167648186D01*
X176839154Y-167596596D01*
X176827323Y-167544798D01*
X176812764Y-167497965D01*
X176800515Y-167468762D01*
X176766337Y-167413670D01*
X176722559Y-167365893D01*
X176671492Y-167327343D01*
X176615447Y-167299935D01*
X176585590Y-167290838D01*
X176551741Y-167285546D01*
X176509277Y-167283112D01*
X176463387Y-167283459D01*
G37*
X176463387Y-167283459D02*
X176419257Y-167286509D01*
X176382077Y-167292183D01*
X176374498Y-167293997D01*
X176309867Y-167317521D01*
X176254718Y-167351497D01*
X176209052Y-167395920D01*
X176172873Y-167450789D01*
X176146184Y-167516099D01*
X176140113Y-167537405D01*
X176132998Y-167577195D01*
X176129158Y-167626197D01*
X176128582Y-167679897D01*
X176131262Y-167733784D01*
X176137188Y-167783345D01*
X176140685Y-167801988D01*
X176149245Y-167839292D01*
X176158919Y-167875275D01*
X176170289Y-167911114D01*
X176183938Y-167947987D01*
X176200448Y-167987071D01*
X176220402Y-168029542D01*
X176244381Y-168076577D01*
X176272969Y-168129355D01*
X176306748Y-168189050D01*
X176346301Y-168256841D01*
X176392209Y-168333905D01*
X176445055Y-168421418D01*
X176456652Y-168440516D01*
X176643177Y-168747433D01*
X176386842Y-168749283D01*
X176130506Y-168751134D01*
X176130506Y-168899127D01*
X176843117Y-168899127D01*
X176843055Y-168768599D01*
X176634231Y-168415822D01*
X176594722Y-168348881D01*
X176556339Y-168283479D01*
X176519880Y-168220996D01*
X176486140Y-168162816D01*
X176455918Y-168110320D01*
X176430010Y-168064891D01*
X176409212Y-168027911D01*
X176394322Y-168000762D01*
X176388148Y-167988960D01*
X176350541Y-167906317D01*
X176322110Y-167826689D01*
X176303268Y-167751665D01*
X176294427Y-167682834D01*
X176295058Y-167630665D01*
X176300518Y-167587095D01*
X176308911Y-167552756D01*
X176321756Y-167522838D01*
X176337071Y-167497644D01*
X176366957Y-167463803D01*
X176403522Y-167441778D01*
X176447895Y-167431011D01*
X176474629Y-167429676D01*
X176521983Y-167433845D01*
X176560920Y-167446975D01*
X176595022Y-167470599D01*
X176613487Y-167489145D01*
X176638919Y-167522952D01*
X176658043Y-167561869D01*
X176671911Y-167608701D01*
X176681580Y-167666250D01*
X176682290Y-167672135D01*
X176690489Y-167742016D01*
X176850173Y-167742016D01*
X176850080Y-167694391D01*
X176847119Y-167648186D01*
X176839154Y-167596596D01*
X176827323Y-167544798D01*
X176812764Y-167497965D01*
X176800515Y-167468762D01*
X176766337Y-167413670D01*
X176722559Y-167365893D01*
X176671492Y-167327343D01*
X176615447Y-167299935D01*
X176585590Y-167290838D01*
X176551741Y-167285546D01*
X176509277Y-167283112D01*
X176463387Y-167283459D01*
G36*
X178077840Y-168899127D02*
G01*
X178240117Y-168899127D01*
X178240117Y-167756127D01*
X178077840Y-167756127D01*
X178077840Y-168899127D01*
G37*
X178077840Y-168899127D02*
X178240117Y-168899127D01*
X178240117Y-167756127D01*
X178077840Y-167756127D01*
X178077840Y-168899127D01*
G36*
X181224617Y-168899127D02*
G01*
X181386895Y-168899127D01*
X181386895Y-167756127D01*
X181224617Y-167756127D01*
X181224617Y-168899127D01*
G37*
X181224617Y-168899127D02*
X181386895Y-168899127D01*
X181386895Y-167756127D01*
X181224617Y-167756127D01*
X181224617Y-168899127D01*
G36*
X181856090Y-167745065D02*
G01*
X181800698Y-167763788D01*
X181754498Y-167792155D01*
X181717065Y-167830689D01*
X181687980Y-167879918D01*
X181666819Y-167940366D01*
X181655684Y-167994739D01*
X181653852Y-168014261D01*
X181652253Y-168047445D01*
X181650895Y-168093840D01*
X181649785Y-168152999D01*
X181648929Y-168224471D01*
X181648336Y-168307810D01*
X181648013Y-168402565D01*
X181647951Y-168471854D01*
X181647951Y-168899127D01*
X181810228Y-168899127D01*
X181810228Y-168468335D01*
X181810359Y-168364826D01*
X181810749Y-168273953D01*
X181811394Y-168195934D01*
X181812291Y-168130991D01*
X181813437Y-168079341D01*
X181814827Y-168041207D01*
X181816458Y-168016806D01*
X181817755Y-168007960D01*
X181835513Y-167963533D01*
X181863553Y-167928642D01*
X181901499Y-167903574D01*
X181948974Y-167888617D01*
X181978798Y-167884819D01*
X182030472Y-167885884D01*
X182076159Y-167896338D01*
X182113478Y-167915513D01*
X182126618Y-167926522D01*
X182138982Y-167939124D01*
X182149661Y-167951756D01*
X182158781Y-167965502D01*
X182166462Y-167981448D01*
X182172829Y-168000680D01*
X182178003Y-168024285D01*
X182182109Y-168053347D01*
X182185268Y-168088953D01*
X182187603Y-168132188D01*
X182189238Y-168184139D01*
X182190295Y-168245891D01*
X182190897Y-168318529D01*
X182191168Y-168403141D01*
X182191228Y-168497581D01*
X182191228Y-168899127D01*
X182346451Y-168899127D01*
X182346451Y-167756127D01*
X182192992Y-167756127D01*
X182188583Y-167778176D01*
X182186143Y-167797570D01*
X182184542Y-167824105D01*
X182184173Y-167843057D01*
X182184173Y-167885890D01*
X182164243Y-167854522D01*
X182127473Y-167809235D01*
X182082039Y-167774294D01*
X182029405Y-167750219D01*
X181971034Y-167737530D01*
X181908391Y-167736748D01*
X181856090Y-167745065D01*
G37*
X181856090Y-167745065D02*
X181800698Y-167763788D01*
X181754498Y-167792155D01*
X181717065Y-167830689D01*
X181687980Y-167879918D01*
X181666819Y-167940366D01*
X181655684Y-167994739D01*
X181653852Y-168014261D01*
X181652253Y-168047445D01*
X181650895Y-168093840D01*
X181649785Y-168152999D01*
X181648929Y-168224471D01*
X181648336Y-168307810D01*
X181648013Y-168402565D01*
X181647951Y-168471854D01*
X181647951Y-168899127D01*
X181810228Y-168899127D01*
X181810228Y-168468335D01*
X181810359Y-168364826D01*
X181810749Y-168273953D01*
X181811394Y-168195934D01*
X181812291Y-168130991D01*
X181813437Y-168079341D01*
X181814827Y-168041207D01*
X181816458Y-168016806D01*
X181817755Y-168007960D01*
X181835513Y-167963533D01*
X181863553Y-167928642D01*
X181901499Y-167903574D01*
X181948974Y-167888617D01*
X181978798Y-167884819D01*
X182030472Y-167885884D01*
X182076159Y-167896338D01*
X182113478Y-167915513D01*
X182126618Y-167926522D01*
X182138982Y-167939124D01*
X182149661Y-167951756D01*
X182158781Y-167965502D01*
X182166462Y-167981448D01*
X182172829Y-168000680D01*
X182178003Y-168024285D01*
X182182109Y-168053347D01*
X182185268Y-168088953D01*
X182187603Y-168132188D01*
X182189238Y-168184139D01*
X182190295Y-168245891D01*
X182190897Y-168318529D01*
X182191168Y-168403141D01*
X182191228Y-168497581D01*
X182191228Y-168899127D01*
X182346451Y-168899127D01*
X182346451Y-167756127D01*
X182192992Y-167756127D01*
X182188583Y-167778176D01*
X182186143Y-167797570D01*
X182184542Y-167824105D01*
X182184173Y-167843057D01*
X182184173Y-167885890D01*
X182164243Y-167854522D01*
X182127473Y-167809235D01*
X182082039Y-167774294D01*
X182029405Y-167750219D01*
X181971034Y-167737530D01*
X181908391Y-167736748D01*
X181856090Y-167745065D01*
G36*
X182837479Y-167739705D02*
G01*
X182808832Y-167742218D01*
X182785091Y-167747076D01*
X182761671Y-167754945D01*
X182759558Y-167755771D01*
X182712894Y-167781130D01*
X182671518Y-167817051D01*
X182639239Y-167860059D01*
X182633428Y-167870735D01*
X182625830Y-167886221D01*
X182619254Y-167901259D01*
X182613613Y-167916970D01*
X182608821Y-167934475D01*
X182604793Y-167954898D01*
X182601442Y-167979358D01*
X182598681Y-168008979D01*
X182596425Y-168044882D01*
X182594587Y-168088189D01*
X182593081Y-168140021D01*
X182591821Y-168201500D01*
X182590721Y-168273748D01*
X182589693Y-168357887D01*
X182588675Y-168452863D01*
X182584057Y-168899127D01*
X182748115Y-168899127D01*
X182750130Y-168456391D01*
X182750542Y-168362604D01*
X182750943Y-168281846D01*
X182751454Y-168213034D01*
X182752197Y-168155088D01*
X182753293Y-168106924D01*
X182754864Y-168067462D01*
X182757031Y-168035619D01*
X182759915Y-168010313D01*
X182763638Y-167990463D01*
X182768322Y-167974986D01*
X182774087Y-167962802D01*
X182781055Y-167952827D01*
X182789349Y-167943981D01*
X182799088Y-167935180D01*
X182809668Y-167925985D01*
X182845592Y-167901787D01*
X182887581Y-167887909D01*
X182937637Y-167883801D01*
X182960207Y-167884759D01*
X183010898Y-167894391D01*
X183053034Y-167915175D01*
X183086163Y-167946707D01*
X183109831Y-167988585D01*
X183121398Y-168027998D01*
X183123403Y-168044119D01*
X183125113Y-168071312D01*
X183126536Y-168110015D01*
X183127679Y-168160664D01*
X183128551Y-168223700D01*
X183129159Y-168299560D01*
X183129512Y-168388682D01*
X183129617Y-168484026D01*
X183129617Y-168899127D01*
X183291895Y-168899127D01*
X183291895Y-167756127D01*
X183129617Y-167756127D01*
X183129617Y-167892945D01*
X183109345Y-167861578D01*
X183069497Y-167812269D01*
X183020948Y-167773907D01*
X182992034Y-167758265D01*
X182971125Y-167749156D01*
X182952716Y-167743383D01*
X182932498Y-167740229D01*
X182906164Y-167738975D01*
X182875617Y-167738868D01*
X182837479Y-167739705D01*
G37*
X182837479Y-167739705D02*
X182808832Y-167742218D01*
X182785091Y-167747076D01*
X182761671Y-167754945D01*
X182759558Y-167755771D01*
X182712894Y-167781130D01*
X182671518Y-167817051D01*
X182639239Y-167860059D01*
X182633428Y-167870735D01*
X182625830Y-167886221D01*
X182619254Y-167901259D01*
X182613613Y-167916970D01*
X182608821Y-167934475D01*
X182604793Y-167954898D01*
X182601442Y-167979358D01*
X182598681Y-168008979D01*
X182596425Y-168044882D01*
X182594587Y-168088189D01*
X182593081Y-168140021D01*
X182591821Y-168201500D01*
X182590721Y-168273748D01*
X182589693Y-168357887D01*
X182588675Y-168452863D01*
X182584057Y-168899127D01*
X182748115Y-168899127D01*
X182750130Y-168456391D01*
X182750542Y-168362604D01*
X182750943Y-168281846D01*
X182751454Y-168213034D01*
X182752197Y-168155088D01*
X182753293Y-168106924D01*
X182754864Y-168067462D01*
X182757031Y-168035619D01*
X182759915Y-168010313D01*
X182763638Y-167990463D01*
X182768322Y-167974986D01*
X182774087Y-167962802D01*
X182781055Y-167952827D01*
X182789349Y-167943981D01*
X182799088Y-167935180D01*
X182809668Y-167925985D01*
X182845592Y-167901787D01*
X182887581Y-167887909D01*
X182937637Y-167883801D01*
X182960207Y-167884759D01*
X183010898Y-167894391D01*
X183053034Y-167915175D01*
X183086163Y-167946707D01*
X183109831Y-167988585D01*
X183121398Y-168027998D01*
X183123403Y-168044119D01*
X183125113Y-168071312D01*
X183126536Y-168110015D01*
X183127679Y-168160664D01*
X183128551Y-168223700D01*
X183129159Y-168299560D01*
X183129512Y-168388682D01*
X183129617Y-168484026D01*
X183129617Y-168899127D01*
X183291895Y-168899127D01*
X183291895Y-167756127D01*
X183129617Y-167756127D01*
X183129617Y-167892945D01*
X183109345Y-167861578D01*
X183069497Y-167812269D01*
X183020948Y-167773907D01*
X182992034Y-167758265D01*
X182971125Y-167749156D01*
X182952716Y-167743383D01*
X182932498Y-167740229D01*
X182906164Y-167738975D01*
X182875617Y-167738868D01*
X182837479Y-167739705D01*
G36*
X184343173Y-167445683D02*
G01*
X184416797Y-167445683D01*
X184458978Y-167446509D01*
X184490249Y-167449516D01*
X184513743Y-167455499D01*
X184532591Y-167465250D01*
X184549714Y-167479360D01*
X184565150Y-167498547D01*
X184576483Y-167523746D01*
X184584137Y-167556876D01*
X184588534Y-167599852D01*
X184590100Y-167654590D01*
X184590117Y-167662158D01*
X184590117Y-167756127D01*
X184343173Y-167756127D01*
X184343173Y-167890183D01*
X184590117Y-167890183D01*
X184590117Y-168899127D01*
X184752395Y-168899127D01*
X184752395Y-167890183D01*
X184872340Y-167890183D01*
X184872340Y-167756127D01*
X184812367Y-167756127D01*
X184785143Y-167755935D01*
X184764176Y-167755422D01*
X184752761Y-167754685D01*
X184751613Y-167754363D01*
X184751088Y-167747100D01*
X184750106Y-167728001D01*
X184748774Y-167699334D01*
X184747197Y-167663361D01*
X184745613Y-167625599D01*
X184743375Y-167577108D01*
X184740972Y-167540090D01*
X184738075Y-167511907D01*
X184734355Y-167489923D01*
X184729484Y-167471500D01*
X184724730Y-167458053D01*
X184699733Y-167411283D01*
X184664028Y-167369231D01*
X184620966Y-167335436D01*
X184595702Y-167321806D01*
X184577201Y-167313804D01*
X184560514Y-167308125D01*
X184542473Y-167304278D01*
X184519912Y-167301771D01*
X184489663Y-167300112D01*
X184448557Y-167298811D01*
X184447242Y-167298776D01*
X184343173Y-167295978D01*
X184343173Y-167445683D01*
G37*
X184343173Y-167445683D02*
X184416797Y-167445683D01*
X184458978Y-167446509D01*
X184490249Y-167449516D01*
X184513743Y-167455499D01*
X184532591Y-167465250D01*
X184549714Y-167479360D01*
X184565150Y-167498547D01*
X184576483Y-167523746D01*
X184584137Y-167556876D01*
X184588534Y-167599852D01*
X184590100Y-167654590D01*
X184590117Y-167662158D01*
X184590117Y-167756127D01*
X184343173Y-167756127D01*
X184343173Y-167890183D01*
X184590117Y-167890183D01*
X184590117Y-168899127D01*
X184752395Y-168899127D01*
X184752395Y-167890183D01*
X184872340Y-167890183D01*
X184872340Y-167756127D01*
X184812367Y-167756127D01*
X184785143Y-167755935D01*
X184764176Y-167755422D01*
X184752761Y-167754685D01*
X184751613Y-167754363D01*
X184751088Y-167747100D01*
X184750106Y-167728001D01*
X184748774Y-167699334D01*
X184747197Y-167663361D01*
X184745613Y-167625599D01*
X184743375Y-167577108D01*
X184740972Y-167540090D01*
X184738075Y-167511907D01*
X184734355Y-167489923D01*
X184729484Y-167471500D01*
X184724730Y-167458053D01*
X184699733Y-167411283D01*
X184664028Y-167369231D01*
X184620966Y-167335436D01*
X184595702Y-167321806D01*
X184577201Y-167313804D01*
X184560514Y-167308125D01*
X184542473Y-167304278D01*
X184519912Y-167301771D01*
X184489663Y-167300112D01*
X184448557Y-167298811D01*
X184447242Y-167298776D01*
X184343173Y-167295978D01*
X184343173Y-167445683D01*
G36*
X178663451Y-167756127D02*
G01*
X178444728Y-167756127D01*
X178444728Y-167904294D01*
X178663451Y-167904294D01*
X178663451Y-168273823D01*
X178663400Y-168357689D01*
X178663225Y-168428616D01*
X178662896Y-168487779D01*
X178662380Y-168536351D01*
X178661647Y-168575504D01*
X178660664Y-168606412D01*
X178659399Y-168630247D01*
X178657822Y-168648184D01*
X178655901Y-168661394D01*
X178653604Y-168671052D01*
X178652682Y-168673876D01*
X178636456Y-168707503D01*
X178613895Y-168731733D01*
X178583266Y-168747538D01*
X178542834Y-168755892D01*
X178502937Y-168757861D01*
X178444728Y-168758016D01*
X178444728Y-168906183D01*
X178517048Y-168905353D01*
X178551831Y-168904437D01*
X178585193Y-168902667D01*
X178612115Y-168900348D01*
X178622030Y-168899004D01*
X178677802Y-168883754D01*
X178724243Y-168858208D01*
X178761792Y-168821960D01*
X178790885Y-168774602D01*
X178809342Y-168725140D01*
X178811985Y-168714697D01*
X178814243Y-168702154D01*
X178816158Y-168686313D01*
X178817769Y-168665977D01*
X178819119Y-168639949D01*
X178820247Y-168607032D01*
X178821193Y-168566030D01*
X178822000Y-168515745D01*
X178822708Y-168454980D01*
X178823357Y-168382538D01*
X178823988Y-168297223D01*
X178824009Y-168294113D01*
X178826687Y-167904294D01*
X178938617Y-167904294D01*
X178938617Y-167756127D01*
X178825728Y-167756127D01*
X178825728Y-167424516D01*
X178663451Y-167424516D01*
X178663451Y-167756127D01*
G37*
X178663451Y-167756127D02*
X178444728Y-167756127D01*
X178444728Y-167904294D01*
X178663451Y-167904294D01*
X178663451Y-168273823D01*
X178663400Y-168357689D01*
X178663225Y-168428616D01*
X178662896Y-168487779D01*
X178662380Y-168536351D01*
X178661647Y-168575504D01*
X178660664Y-168606412D01*
X178659399Y-168630247D01*
X178657822Y-168648184D01*
X178655901Y-168661394D01*
X178653604Y-168671052D01*
X178652682Y-168673876D01*
X178636456Y-168707503D01*
X178613895Y-168731733D01*
X178583266Y-168747538D01*
X178542834Y-168755892D01*
X178502937Y-168757861D01*
X178444728Y-168758016D01*
X178444728Y-168906183D01*
X178517048Y-168905353D01*
X178551831Y-168904437D01*
X178585193Y-168902667D01*
X178612115Y-168900348D01*
X178622030Y-168899004D01*
X178677802Y-168883754D01*
X178724243Y-168858208D01*
X178761792Y-168821960D01*
X178790885Y-168774602D01*
X178809342Y-168725140D01*
X178811985Y-168714697D01*
X178814243Y-168702154D01*
X178816158Y-168686313D01*
X178817769Y-168665977D01*
X178819119Y-168639949D01*
X178820247Y-168607032D01*
X178821193Y-168566030D01*
X178822000Y-168515745D01*
X178822708Y-168454980D01*
X178823357Y-168382538D01*
X178823988Y-168297223D01*
X178824009Y-168294113D01*
X178826687Y-167904294D01*
X178938617Y-167904294D01*
X178938617Y-167756127D01*
X178825728Y-167756127D01*
X178825728Y-167424516D01*
X178663451Y-167424516D01*
X178663451Y-167756127D01*
G36*
X179256117Y-167756127D02*
G01*
X179037395Y-167756127D01*
X179037395Y-167904294D01*
X179256117Y-167904294D01*
X179255808Y-168276474D01*
X179255703Y-168362331D01*
X179255485Y-168435252D01*
X179255067Y-168496414D01*
X179254363Y-168546992D01*
X179253284Y-168588162D01*
X179251746Y-168621099D01*
X179249660Y-168646979D01*
X179246941Y-168666979D01*
X179243501Y-168682274D01*
X179239253Y-168694038D01*
X179234111Y-168703450D01*
X179227987Y-168711683D01*
X179223274Y-168717146D01*
X179196079Y-168738387D01*
X179158826Y-168751760D01*
X179110601Y-168757557D01*
X179095603Y-168757861D01*
X179037395Y-168758016D01*
X179037395Y-168906183D01*
X179109715Y-168905353D01*
X179144417Y-168904445D01*
X179177620Y-168902697D01*
X179204343Y-168900409D01*
X179214194Y-168899076D01*
X179270379Y-168883579D01*
X179317269Y-168857624D01*
X179354970Y-168821090D01*
X179383587Y-168773853D01*
X179403227Y-168715791D01*
X179411463Y-168670409D01*
X179412749Y-168653497D01*
X179413960Y-168624058D01*
X179415068Y-168583676D01*
X179416048Y-168533936D01*
X179416875Y-168476421D01*
X179417521Y-168412716D01*
X179417960Y-168344405D01*
X179418168Y-168273072D01*
X179418177Y-168262363D01*
X179418395Y-167904294D01*
X179531284Y-167904294D01*
X179531284Y-167756127D01*
X179418395Y-167756127D01*
X179418395Y-167424516D01*
X179256117Y-167424516D01*
X179256117Y-167756127D01*
G37*
X179256117Y-167756127D02*
X179037395Y-167756127D01*
X179037395Y-167904294D01*
X179256117Y-167904294D01*
X179255808Y-168276474D01*
X179255703Y-168362331D01*
X179255485Y-168435252D01*
X179255067Y-168496414D01*
X179254363Y-168546992D01*
X179253284Y-168588162D01*
X179251746Y-168621099D01*
X179249660Y-168646979D01*
X179246941Y-168666979D01*
X179243501Y-168682274D01*
X179239253Y-168694038D01*
X179234111Y-168703450D01*
X179227987Y-168711683D01*
X179223274Y-168717146D01*
X179196079Y-168738387D01*
X179158826Y-168751760D01*
X179110601Y-168757557D01*
X179095603Y-168757861D01*
X179037395Y-168758016D01*
X179037395Y-168906183D01*
X179109715Y-168905353D01*
X179144417Y-168904445D01*
X179177620Y-168902697D01*
X179204343Y-168900409D01*
X179214194Y-168899076D01*
X179270379Y-168883579D01*
X179317269Y-168857624D01*
X179354970Y-168821090D01*
X179383587Y-168773853D01*
X179403227Y-168715791D01*
X179411463Y-168670409D01*
X179412749Y-168653497D01*
X179413960Y-168624058D01*
X179415068Y-168583676D01*
X179416048Y-168533936D01*
X179416875Y-168476421D01*
X179417521Y-168412716D01*
X179417960Y-168344405D01*
X179418168Y-168273072D01*
X179418177Y-168262363D01*
X179418395Y-167904294D01*
X179531284Y-167904294D01*
X179531284Y-167756127D01*
X179418395Y-167756127D01*
X179418395Y-167424516D01*
X179256117Y-167424516D01*
X179256117Y-167756127D01*
G36*
X180771428Y-167588558D02*
G01*
X180769534Y-167752599D01*
X180554340Y-167756495D01*
X180554340Y-167904294D01*
X180773953Y-167904294D01*
X180771743Y-168280002D01*
X180769534Y-168655710D01*
X180753158Y-168688958D01*
X180736681Y-168715990D01*
X180716497Y-168734969D01*
X180689915Y-168747265D01*
X180654240Y-168754252D01*
X180619866Y-168756833D01*
X180554340Y-168759699D01*
X180554340Y-168906183D01*
X180626659Y-168905591D01*
X180662440Y-168904452D01*
X180697774Y-168901895D01*
X180727177Y-168898372D01*
X180737784Y-168896425D01*
X180765492Y-168888977D01*
X180792285Y-168879687D01*
X180803168Y-168874989D01*
X180835782Y-168852868D01*
X180866565Y-168820495D01*
X180892430Y-168781671D01*
X180908740Y-168744987D01*
X180912137Y-168734643D01*
X180915019Y-168724507D01*
X180917436Y-168713361D01*
X180919436Y-168699987D01*
X180921070Y-168683167D01*
X180922385Y-168661683D01*
X180923433Y-168634318D01*
X180924262Y-168599852D01*
X180924921Y-168557069D01*
X180925460Y-168504750D01*
X180925928Y-168441677D01*
X180926374Y-168366632D01*
X180926728Y-168301169D01*
X180928838Y-167904294D01*
X181048228Y-167904294D01*
X181048228Y-167756127D01*
X180928284Y-167756127D01*
X180928284Y-167424516D01*
X180773322Y-167424516D01*
X180771428Y-167588558D01*
G37*
X180771428Y-167588558D02*
X180769534Y-167752599D01*
X180554340Y-167756495D01*
X180554340Y-167904294D01*
X180773953Y-167904294D01*
X180771743Y-168280002D01*
X180769534Y-168655710D01*
X180753158Y-168688958D01*
X180736681Y-168715990D01*
X180716497Y-168734969D01*
X180689915Y-168747265D01*
X180654240Y-168754252D01*
X180619866Y-168756833D01*
X180554340Y-168759699D01*
X180554340Y-168906183D01*
X180626659Y-168905591D01*
X180662440Y-168904452D01*
X180697774Y-168901895D01*
X180727177Y-168898372D01*
X180737784Y-168896425D01*
X180765492Y-168888977D01*
X180792285Y-168879687D01*
X180803168Y-168874989D01*
X180835782Y-168852868D01*
X180866565Y-168820495D01*
X180892430Y-168781671D01*
X180908740Y-168744987D01*
X180912137Y-168734643D01*
X180915019Y-168724507D01*
X180917436Y-168713361D01*
X180919436Y-168699987D01*
X180921070Y-168683167D01*
X180922385Y-168661683D01*
X180923433Y-168634318D01*
X180924262Y-168599852D01*
X180924921Y-168557069D01*
X180925460Y-168504750D01*
X180925928Y-168441677D01*
X180926374Y-168366632D01*
X180926728Y-168301169D01*
X180928838Y-167904294D01*
X181048228Y-167904294D01*
X181048228Y-167756127D01*
X180928284Y-167756127D01*
X180928284Y-167424516D01*
X180773322Y-167424516D01*
X180771428Y-167588558D01*
G36*
X173667893Y-167285696D02*
G01*
X173628248Y-167290533D01*
X173610298Y-167294285D01*
X173547748Y-167317264D01*
X173493410Y-167351426D01*
X173448062Y-167395960D01*
X173412480Y-167450055D01*
X173387442Y-167512900D01*
X173382421Y-167531978D01*
X173380398Y-167542485D01*
X173378644Y-167556294D01*
X173377142Y-167574381D01*
X173375874Y-167597723D01*
X173374822Y-167627297D01*
X173373968Y-167664079D01*
X173373293Y-167709045D01*
X173372781Y-167763172D01*
X173372413Y-167827436D01*
X173372171Y-167902813D01*
X173372037Y-167990281D01*
X173371993Y-168090815D01*
X173371993Y-168098322D01*
X173372006Y-168201264D01*
X173372086Y-168291127D01*
X173372297Y-168368940D01*
X173372700Y-168435736D01*
X173373358Y-168492544D01*
X173374334Y-168540396D01*
X173375689Y-168580323D01*
X173377486Y-168613356D01*
X173379788Y-168640525D01*
X173382656Y-168662863D01*
X173386154Y-168681399D01*
X173390344Y-168697165D01*
X173395287Y-168711192D01*
X173401047Y-168724510D01*
X173407687Y-168738152D01*
X173411133Y-168744977D01*
X173444840Y-168796241D01*
X173489470Y-168839966D01*
X173543260Y-168874793D01*
X173604447Y-168899366D01*
X173615494Y-168902435D01*
X173649009Y-168908337D01*
X173691264Y-168911702D01*
X173737411Y-168912532D01*
X173782602Y-168910828D01*
X173821991Y-168906593D01*
X173842640Y-168902361D01*
X173906454Y-168879180D01*
X173960385Y-168846357D01*
X174005154Y-168803225D01*
X174041484Y-168749120D01*
X174064960Y-168697480D01*
X174080867Y-168655710D01*
X174080867Y-168101849D01*
X174080854Y-168000068D01*
X174080797Y-167911413D01*
X174080720Y-167862207D01*
X173928325Y-167862207D01*
X173928297Y-167938862D01*
X173928048Y-168027603D01*
X173927634Y-168126544D01*
X173927174Y-168221989D01*
X173926711Y-168304362D01*
X173926217Y-168374706D01*
X173925661Y-168434058D01*
X173925016Y-168483460D01*
X173924250Y-168523952D01*
X173923336Y-168556574D01*
X173922243Y-168582366D01*
X173920942Y-168602368D01*
X173919404Y-168617620D01*
X173917599Y-168629163D01*
X173915498Y-168638037D01*
X173913072Y-168645282D01*
X173912980Y-168645522D01*
X173888867Y-168691573D01*
X173856383Y-168726357D01*
X173815344Y-168749993D01*
X173765567Y-168762598D01*
X173728090Y-168764934D01*
X173693671Y-168763812D01*
X173667559Y-168759759D01*
X173644077Y-168751743D01*
X173636367Y-168748256D01*
X173598272Y-168725141D01*
X173569260Y-168694873D01*
X173546787Y-168655710D01*
X173530534Y-168620433D01*
X173530534Y-167576210D01*
X173547253Y-167539228D01*
X173571619Y-167499863D01*
X173605052Y-167466170D01*
X173643418Y-167442278D01*
X173645030Y-167441570D01*
X173671912Y-167434284D01*
X173707058Y-167430530D01*
X173745120Y-167430315D01*
X173780750Y-167433643D01*
X173808601Y-167440521D01*
X173810730Y-167441395D01*
X173845108Y-167461533D01*
X173876281Y-167489256D01*
X173899163Y-167519945D01*
X173900979Y-167523348D01*
X173906390Y-167534752D01*
X173911080Y-167546958D01*
X173915095Y-167560994D01*
X173918479Y-167577884D01*
X173921279Y-167598654D01*
X173923538Y-167624331D01*
X173925303Y-167655939D01*
X173926619Y-167694505D01*
X173927531Y-167741055D01*
X173928084Y-167796613D01*
X173928325Y-167862207D01*
X174080720Y-167862207D01*
X174080677Y-167834898D01*
X174080469Y-167769540D01*
X174080153Y-167714352D01*
X174079706Y-167668350D01*
X174079106Y-167630549D01*
X174078330Y-167599963D01*
X174077357Y-167575608D01*
X174076165Y-167556498D01*
X174074732Y-167541649D01*
X174073034Y-167530075D01*
X174071051Y-167520791D01*
X174068760Y-167512812D01*
X174067553Y-167509183D01*
X174050513Y-167464848D01*
X174032120Y-167429531D01*
X174009472Y-167398220D01*
X173991693Y-167378278D01*
X173951252Y-167343897D01*
X173901706Y-167315080D01*
X173847751Y-167294439D01*
X173834923Y-167291054D01*
X173801697Y-167285867D01*
X173759517Y-167283293D01*
X173713282Y-167283259D01*
X173667893Y-167285696D01*
G37*
X173667893Y-167285696D02*
X173628248Y-167290533D01*
X173610298Y-167294285D01*
X173547748Y-167317264D01*
X173493410Y-167351426D01*
X173448062Y-167395960D01*
X173412480Y-167450055D01*
X173387442Y-167512900D01*
X173382421Y-167531978D01*
X173380398Y-167542485D01*
X173378644Y-167556294D01*
X173377142Y-167574381D01*
X173375874Y-167597723D01*
X173374822Y-167627297D01*
X173373968Y-167664079D01*
X173373293Y-167709045D01*
X173372781Y-167763172D01*
X173372413Y-167827436D01*
X173372171Y-167902813D01*
X173372037Y-167990281D01*
X173371993Y-168090815D01*
X173371993Y-168098322D01*
X173372006Y-168201264D01*
X173372086Y-168291127D01*
X173372297Y-168368940D01*
X173372700Y-168435736D01*
X173373358Y-168492544D01*
X173374334Y-168540396D01*
X173375689Y-168580323D01*
X173377486Y-168613356D01*
X173379788Y-168640525D01*
X173382656Y-168662863D01*
X173386154Y-168681399D01*
X173390344Y-168697165D01*
X173395287Y-168711192D01*
X173401047Y-168724510D01*
X173407687Y-168738152D01*
X173411133Y-168744977D01*
X173444840Y-168796241D01*
X173489470Y-168839966D01*
X173543260Y-168874793D01*
X173604447Y-168899366D01*
X173615494Y-168902435D01*
X173649009Y-168908337D01*
X173691264Y-168911702D01*
X173737411Y-168912532D01*
X173782602Y-168910828D01*
X173821991Y-168906593D01*
X173842640Y-168902361D01*
X173906454Y-168879180D01*
X173960385Y-168846357D01*
X174005154Y-168803225D01*
X174041484Y-168749120D01*
X174064960Y-168697480D01*
X174080867Y-168655710D01*
X174080867Y-168101849D01*
X174080854Y-168000068D01*
X174080797Y-167911413D01*
X174080720Y-167862207D01*
X173928325Y-167862207D01*
X173928297Y-167938862D01*
X173928048Y-168027603D01*
X173927634Y-168126544D01*
X173927174Y-168221989D01*
X173926711Y-168304362D01*
X173926217Y-168374706D01*
X173925661Y-168434058D01*
X173925016Y-168483460D01*
X173924250Y-168523952D01*
X173923336Y-168556574D01*
X173922243Y-168582366D01*
X173920942Y-168602368D01*
X173919404Y-168617620D01*
X173917599Y-168629163D01*
X173915498Y-168638037D01*
X173913072Y-168645282D01*
X173912980Y-168645522D01*
X173888867Y-168691573D01*
X173856383Y-168726357D01*
X173815344Y-168749993D01*
X173765567Y-168762598D01*
X173728090Y-168764934D01*
X173693671Y-168763812D01*
X173667559Y-168759759D01*
X173644077Y-168751743D01*
X173636367Y-168748256D01*
X173598272Y-168725141D01*
X173569260Y-168694873D01*
X173546787Y-168655710D01*
X173530534Y-168620433D01*
X173530534Y-167576210D01*
X173547253Y-167539228D01*
X173571619Y-167499863D01*
X173605052Y-167466170D01*
X173643418Y-167442278D01*
X173645030Y-167441570D01*
X173671912Y-167434284D01*
X173707058Y-167430530D01*
X173745120Y-167430315D01*
X173780750Y-167433643D01*
X173808601Y-167440521D01*
X173810730Y-167441395D01*
X173845108Y-167461533D01*
X173876281Y-167489256D01*
X173899163Y-167519945D01*
X173900979Y-167523348D01*
X173906390Y-167534752D01*
X173911080Y-167546958D01*
X173915095Y-167560994D01*
X173918479Y-167577884D01*
X173921279Y-167598654D01*
X173923538Y-167624331D01*
X173925303Y-167655939D01*
X173926619Y-167694505D01*
X173927531Y-167741055D01*
X173928084Y-167796613D01*
X173928325Y-167862207D01*
X174080720Y-167862207D01*
X174080677Y-167834898D01*
X174080469Y-167769540D01*
X174080153Y-167714352D01*
X174079706Y-167668350D01*
X174079106Y-167630549D01*
X174078330Y-167599963D01*
X174077357Y-167575608D01*
X174076165Y-167556498D01*
X174074732Y-167541649D01*
X174073034Y-167530075D01*
X174071051Y-167520791D01*
X174068760Y-167512812D01*
X174067553Y-167509183D01*
X174050513Y-167464848D01*
X174032120Y-167429531D01*
X174009472Y-167398220D01*
X173991693Y-167378278D01*
X173951252Y-167343897D01*
X173901706Y-167315080D01*
X173847751Y-167294439D01*
X173834923Y-167291054D01*
X173801697Y-167285867D01*
X173759517Y-167283293D01*
X173713282Y-167283259D01*
X173667893Y-167285696D01*
G36*
X175501402Y-167285894D02*
G01*
X175446095Y-167295166D01*
X175398243Y-167311725D01*
X175355037Y-167336558D01*
X175313670Y-167370649D01*
X175311774Y-167372448D01*
X175271631Y-167419460D01*
X175241665Y-167474721D01*
X175223923Y-167527746D01*
X175221671Y-167543672D01*
X175219658Y-167572307D01*
X175217883Y-167612250D01*
X175216347Y-167662102D01*
X175215049Y-167720462D01*
X175213989Y-167785931D01*
X175213166Y-167857107D01*
X175212580Y-167932591D01*
X175212231Y-168010983D01*
X175212118Y-168090882D01*
X175212243Y-168170889D01*
X175212603Y-168249602D01*
X175213199Y-168325622D01*
X175214030Y-168397549D01*
X175215097Y-168463983D01*
X175216398Y-168523523D01*
X175217935Y-168574769D01*
X175219706Y-168616320D01*
X175221711Y-168646778D01*
X175223949Y-168664741D01*
X175224148Y-168665637D01*
X175246051Y-168730450D01*
X175278885Y-168786481D01*
X175322164Y-168833234D01*
X175375399Y-168870217D01*
X175438103Y-168896936D01*
X175458438Y-168902811D01*
X175491527Y-168908567D01*
X175533548Y-168911785D01*
X175579616Y-168912481D01*
X175624844Y-168910669D01*
X175664345Y-168906366D01*
X175685214Y-168902087D01*
X175742662Y-168880580D01*
X175795365Y-168849140D01*
X175840608Y-168809852D01*
X175875673Y-168764802D01*
X175884565Y-168748994D01*
X175893326Y-168728275D01*
X175903108Y-168699782D01*
X175911861Y-168669513D01*
X175912219Y-168668122D01*
X175914818Y-168657359D01*
X175917066Y-168646128D01*
X175918988Y-168633374D01*
X175920611Y-168618042D01*
X175921958Y-168599075D01*
X175923056Y-168575420D01*
X175923930Y-168546020D01*
X175924605Y-168509820D01*
X175925106Y-168465765D01*
X175925459Y-168412799D01*
X175925689Y-168349868D01*
X175925821Y-168275916D01*
X175925882Y-168189887D01*
X175925895Y-168098322D01*
X175925881Y-168000226D01*
X175925820Y-167915184D01*
X175925686Y-167842138D01*
X175925455Y-167780030D01*
X175925099Y-167727803D01*
X175924594Y-167684399D01*
X175923913Y-167648761D01*
X175923031Y-167619830D01*
X175921921Y-167596549D01*
X175920953Y-167583266D01*
X175767145Y-167583266D01*
X175767145Y-168094794D01*
X175767125Y-168192728D01*
X175767047Y-168277572D01*
X175766890Y-168350344D01*
X175766630Y-168412064D01*
X175766245Y-168463753D01*
X175765710Y-168506430D01*
X175765002Y-168541115D01*
X175764100Y-168568828D01*
X175762979Y-168590589D01*
X175761616Y-168607418D01*
X175759988Y-168620334D01*
X175758073Y-168630358D01*
X175755847Y-168638509D01*
X175754743Y-168641823D01*
X175732216Y-168688362D01*
X175700971Y-168723851D01*
X175660922Y-168748348D01*
X175611985Y-168761907D01*
X175569590Y-168764934D01*
X175535171Y-168763812D01*
X175509059Y-168759759D01*
X175485577Y-168751743D01*
X175477867Y-168748256D01*
X175439772Y-168725141D01*
X175410760Y-168694873D01*
X175388287Y-168655710D01*
X175372034Y-168620433D01*
X175372034Y-167576210D01*
X175388708Y-167539331D01*
X175409231Y-167505084D01*
X175436933Y-167474072D01*
X175467959Y-167450065D01*
X175491654Y-167438734D01*
X175525453Y-167431759D01*
X175566131Y-167429480D01*
X175607246Y-167431930D01*
X175638452Y-167437962D01*
X175678429Y-167456273D01*
X175713802Y-167485704D01*
X175741453Y-167523340D01*
X175750849Y-167542925D01*
X175767145Y-167583266D01*
X175920953Y-167583266D01*
X175920558Y-167577861D01*
X175918915Y-167562708D01*
X175916968Y-167550032D01*
X175914690Y-167538777D01*
X175912055Y-167527883D01*
X175911938Y-167527424D01*
X175893410Y-167470043D01*
X175869105Y-167422881D01*
X175837139Y-167382591D01*
X175822109Y-167367946D01*
X175778331Y-167333685D01*
X175731295Y-167308918D01*
X175678492Y-167292807D01*
X175617417Y-167284518D01*
X175566972Y-167282924D01*
X175501402Y-167285894D01*
G37*
X175501402Y-167285894D02*
X175446095Y-167295166D01*
X175398243Y-167311725D01*
X175355037Y-167336558D01*
X175313670Y-167370649D01*
X175311774Y-167372448D01*
X175271631Y-167419460D01*
X175241665Y-167474721D01*
X175223923Y-167527746D01*
X175221671Y-167543672D01*
X175219658Y-167572307D01*
X175217883Y-167612250D01*
X175216347Y-167662102D01*
X175215049Y-167720462D01*
X175213989Y-167785931D01*
X175213166Y-167857107D01*
X175212580Y-167932591D01*
X175212231Y-168010983D01*
X175212118Y-168090882D01*
X175212243Y-168170889D01*
X175212603Y-168249602D01*
X175213199Y-168325622D01*
X175214030Y-168397549D01*
X175215097Y-168463983D01*
X175216398Y-168523523D01*
X175217935Y-168574769D01*
X175219706Y-168616320D01*
X175221711Y-168646778D01*
X175223949Y-168664741D01*
X175224148Y-168665637D01*
X175246051Y-168730450D01*
X175278885Y-168786481D01*
X175322164Y-168833234D01*
X175375399Y-168870217D01*
X175438103Y-168896936D01*
X175458438Y-168902811D01*
X175491527Y-168908567D01*
X175533548Y-168911785D01*
X175579616Y-168912481D01*
X175624844Y-168910669D01*
X175664345Y-168906366D01*
X175685214Y-168902087D01*
X175742662Y-168880580D01*
X175795365Y-168849140D01*
X175840608Y-168809852D01*
X175875673Y-168764802D01*
X175884565Y-168748994D01*
X175893326Y-168728275D01*
X175903108Y-168699782D01*
X175911861Y-168669513D01*
X175912219Y-168668122D01*
X175914818Y-168657359D01*
X175917066Y-168646128D01*
X175918988Y-168633374D01*
X175920611Y-168618042D01*
X175921958Y-168599075D01*
X175923056Y-168575420D01*
X175923930Y-168546020D01*
X175924605Y-168509820D01*
X175925106Y-168465765D01*
X175925459Y-168412799D01*
X175925689Y-168349868D01*
X175925821Y-168275916D01*
X175925882Y-168189887D01*
X175925895Y-168098322D01*
X175925881Y-168000226D01*
X175925820Y-167915184D01*
X175925686Y-167842138D01*
X175925455Y-167780030D01*
X175925099Y-167727803D01*
X175924594Y-167684399D01*
X175923913Y-167648761D01*
X175923031Y-167619830D01*
X175921921Y-167596549D01*
X175920953Y-167583266D01*
X175767145Y-167583266D01*
X175767145Y-168094794D01*
X175767125Y-168192728D01*
X175767047Y-168277572D01*
X175766890Y-168350344D01*
X175766630Y-168412064D01*
X175766245Y-168463753D01*
X175765710Y-168506430D01*
X175765002Y-168541115D01*
X175764100Y-168568828D01*
X175762979Y-168590589D01*
X175761616Y-168607418D01*
X175759988Y-168620334D01*
X175758073Y-168630358D01*
X175755847Y-168638509D01*
X175754743Y-168641823D01*
X175732216Y-168688362D01*
X175700971Y-168723851D01*
X175660922Y-168748348D01*
X175611985Y-168761907D01*
X175569590Y-168764934D01*
X175535171Y-168763812D01*
X175509059Y-168759759D01*
X175485577Y-168751743D01*
X175477867Y-168748256D01*
X175439772Y-168725141D01*
X175410760Y-168694873D01*
X175388287Y-168655710D01*
X175372034Y-168620433D01*
X175372034Y-167576210D01*
X175388708Y-167539331D01*
X175409231Y-167505084D01*
X175436933Y-167474072D01*
X175467959Y-167450065D01*
X175491654Y-167438734D01*
X175525453Y-167431759D01*
X175566131Y-167429480D01*
X175607246Y-167431930D01*
X175638452Y-167437962D01*
X175678429Y-167456273D01*
X175713802Y-167485704D01*
X175741453Y-167523340D01*
X175750849Y-167542925D01*
X175767145Y-167583266D01*
X175920953Y-167583266D01*
X175920558Y-167577861D01*
X175918915Y-167562708D01*
X175916968Y-167550032D01*
X175914690Y-167538777D01*
X175912055Y-167527883D01*
X175911938Y-167527424D01*
X175893410Y-167470043D01*
X175869105Y-167422881D01*
X175837139Y-167382591D01*
X175822109Y-167367946D01*
X175778331Y-167333685D01*
X175731295Y-167308918D01*
X175678492Y-167292807D01*
X175617417Y-167284518D01*
X175566972Y-167282924D01*
X175501402Y-167285894D01*
G36*
X180208617Y-168188763D02*
G01*
X180208596Y-168282710D01*
X180208474Y-168363628D01*
X180208167Y-168432599D01*
X180207590Y-168490706D01*
X180206659Y-168539031D01*
X180205290Y-168578656D01*
X180203396Y-168610663D01*
X180200895Y-168636134D01*
X180197700Y-168656152D01*
X180193728Y-168671799D01*
X180188893Y-168684157D01*
X180183110Y-168694308D01*
X180176296Y-168703335D01*
X180168366Y-168712319D01*
X180167574Y-168713186D01*
X180144855Y-168734456D01*
X180120338Y-168748888D01*
X180090422Y-168757845D01*
X180051512Y-168762687D01*
X180034018Y-168763713D01*
X180001886Y-168764821D01*
X179979226Y-168764098D01*
X179961442Y-168760839D01*
X179943939Y-168754339D01*
X179929939Y-168747750D01*
X179902024Y-168731311D01*
X179882367Y-168711816D01*
X179871705Y-168695756D01*
X179852312Y-168662766D01*
X179850349Y-168209447D01*
X179848386Y-167756127D01*
X179686506Y-167756127D01*
X179686506Y-168899127D01*
X179848213Y-168899127D01*
X179850263Y-168842052D01*
X179852312Y-168784977D01*
X179874496Y-168816505D01*
X179909575Y-168854694D01*
X179954209Y-168884706D01*
X179996666Y-168901917D01*
X180032597Y-168909009D01*
X180075762Y-168912227D01*
X180120424Y-168911560D01*
X180160843Y-168907000D01*
X180181361Y-168902183D01*
X180232807Y-168879140D01*
X180277229Y-168843946D01*
X180314432Y-168796794D01*
X180343963Y-168738526D01*
X180360312Y-168698044D01*
X180362358Y-168227085D01*
X180364404Y-167756127D01*
X180208617Y-167756127D01*
X180208617Y-168188763D01*
G37*
X180208617Y-168188763D02*
X180208596Y-168282710D01*
X180208474Y-168363628D01*
X180208167Y-168432599D01*
X180207590Y-168490706D01*
X180206659Y-168539031D01*
X180205290Y-168578656D01*
X180203396Y-168610663D01*
X180200895Y-168636134D01*
X180197700Y-168656152D01*
X180193728Y-168671799D01*
X180188893Y-168684157D01*
X180183110Y-168694308D01*
X180176296Y-168703335D01*
X180168366Y-168712319D01*
X180167574Y-168713186D01*
X180144855Y-168734456D01*
X180120338Y-168748888D01*
X180090422Y-168757845D01*
X180051512Y-168762687D01*
X180034018Y-168763713D01*
X180001886Y-168764821D01*
X179979226Y-168764098D01*
X179961442Y-168760839D01*
X179943939Y-168754339D01*
X179929939Y-168747750D01*
X179902024Y-168731311D01*
X179882367Y-168711816D01*
X179871705Y-168695756D01*
X179852312Y-168662766D01*
X179850349Y-168209447D01*
X179848386Y-167756127D01*
X179686506Y-167756127D01*
X179686506Y-168899127D01*
X179848213Y-168899127D01*
X179850263Y-168842052D01*
X179852312Y-168784977D01*
X179874496Y-168816505D01*
X179909575Y-168854694D01*
X179954209Y-168884706D01*
X179996666Y-168901917D01*
X180032597Y-168909009D01*
X180075762Y-168912227D01*
X180120424Y-168911560D01*
X180160843Y-168907000D01*
X180181361Y-168902183D01*
X180232807Y-168879140D01*
X180277229Y-168843946D01*
X180314432Y-168796794D01*
X180343963Y-168738526D01*
X180360312Y-168698044D01*
X180362358Y-168227085D01*
X180364404Y-167756127D01*
X180208617Y-167756127D01*
X180208617Y-168188763D01*
G36*
X183772474Y-167746574D02*
G01*
X183709299Y-167765466D01*
X183655667Y-167794336D01*
X183611012Y-167833557D01*
X183574769Y-167883502D01*
X183551312Y-167931773D01*
X183548131Y-167939807D01*
X183545397Y-167947740D01*
X183543072Y-167956661D01*
X183541117Y-167967663D01*
X183539492Y-167981835D01*
X183538158Y-168000267D01*
X183537076Y-168024051D01*
X183536207Y-168054276D01*
X183535512Y-168092034D01*
X183534951Y-168138414D01*
X183534487Y-168194507D01*
X183534079Y-168261404D01*
X183533688Y-168340195D01*
X183533276Y-168431970D01*
X183533262Y-168435224D01*
X183531212Y-168899127D01*
X183679951Y-168899127D01*
X183679951Y-168798232D01*
X183700820Y-168827041D01*
X183731384Y-168858431D01*
X183772448Y-168884301D01*
X183820850Y-168902677D01*
X183822727Y-168903184D01*
X183852372Y-168908384D01*
X183890853Y-168911401D01*
X183933393Y-168912236D01*
X183975215Y-168910888D01*
X184011543Y-168907359D01*
X184032728Y-168903165D01*
X184087770Y-168882033D01*
X184133112Y-168851672D01*
X184168983Y-168811706D01*
X184195609Y-168761759D01*
X184213219Y-168701455D01*
X184222039Y-168630418D01*
X184223228Y-168588329D01*
X184222907Y-168581627D01*
X184077688Y-168581627D01*
X184075217Y-168640598D01*
X184066036Y-168688313D01*
X184049605Y-168726209D01*
X184025385Y-168755720D01*
X184006868Y-168770012D01*
X183972354Y-168785756D01*
X183929513Y-168794966D01*
X183882614Y-168797470D01*
X183835925Y-168793097D01*
X183793715Y-168781675D01*
X183786877Y-168778838D01*
X183749059Y-168757254D01*
X183721044Y-168728935D01*
X183699951Y-168691923D01*
X183694712Y-168679496D01*
X183690684Y-168667071D01*
X183687671Y-168652554D01*
X183685477Y-168633852D01*
X183683908Y-168608873D01*
X183682768Y-168575525D01*
X183681862Y-168531715D01*
X183681225Y-168491111D01*
X183678802Y-168326512D01*
X183811668Y-168328834D01*
X183858164Y-168329709D01*
X183892912Y-168330686D01*
X183918275Y-168332074D01*
X183936614Y-168334186D01*
X183950292Y-168337333D01*
X183961671Y-168341824D01*
X183973112Y-168347973D01*
X183977809Y-168350715D01*
X184014256Y-168378420D01*
X184041996Y-168414107D01*
X184061497Y-168458864D01*
X184073231Y-168513776D01*
X184077668Y-168579932D01*
X184077688Y-168581627D01*
X184222907Y-168581627D01*
X184219534Y-168511332D01*
X184208141Y-168444980D01*
X184188588Y-168387800D01*
X184160409Y-168338322D01*
X184134549Y-168306672D01*
X184108381Y-168281269D01*
X184081133Y-168260869D01*
X184050826Y-168244872D01*
X184015482Y-168232682D01*
X183973121Y-168223699D01*
X183921765Y-168217326D01*
X183859434Y-168212963D01*
X183818643Y-168211163D01*
X183678718Y-168205916D01*
X183681217Y-168099202D01*
X183682444Y-168056535D01*
X183684057Y-168025253D01*
X183686410Y-168002632D01*
X183689860Y-167985945D01*
X183694761Y-167972468D01*
X183698826Y-167964266D01*
X183725931Y-167925087D01*
X183760001Y-167896973D01*
X183802424Y-167879107D01*
X183854588Y-167870673D01*
X183858222Y-167870439D01*
X183905514Y-167870813D01*
X183943491Y-167878961D01*
X183975277Y-167895997D01*
X184003135Y-167922049D01*
X184030744Y-167963114D01*
X184044865Y-168008137D01*
X184046840Y-168033876D01*
X184046840Y-168059516D01*
X184202062Y-168059516D01*
X184201958Y-168033058D01*
X184200228Y-168011770D01*
X184195853Y-167983768D01*
X184191187Y-167961349D01*
X184170299Y-167900550D01*
X184138770Y-167848618D01*
X184097277Y-167805992D01*
X184046495Y-167773110D01*
X183987101Y-167750412D01*
X183919771Y-167738336D01*
X183845756Y-167737286D01*
X183772474Y-167746574D01*
G37*
X183772474Y-167746574D02*
X183709299Y-167765466D01*
X183655667Y-167794336D01*
X183611012Y-167833557D01*
X183574769Y-167883502D01*
X183551312Y-167931773D01*
X183548131Y-167939807D01*
X183545397Y-167947740D01*
X183543072Y-167956661D01*
X183541117Y-167967663D01*
X183539492Y-167981835D01*
X183538158Y-168000267D01*
X183537076Y-168024051D01*
X183536207Y-168054276D01*
X183535512Y-168092034D01*
X183534951Y-168138414D01*
X183534487Y-168194507D01*
X183534079Y-168261404D01*
X183533688Y-168340195D01*
X183533276Y-168431970D01*
X183533262Y-168435224D01*
X183531212Y-168899127D01*
X183679951Y-168899127D01*
X183679951Y-168798232D01*
X183700820Y-168827041D01*
X183731384Y-168858431D01*
X183772448Y-168884301D01*
X183820850Y-168902677D01*
X183822727Y-168903184D01*
X183852372Y-168908384D01*
X183890853Y-168911401D01*
X183933393Y-168912236D01*
X183975215Y-168910888D01*
X184011543Y-168907359D01*
X184032728Y-168903165D01*
X184087770Y-168882033D01*
X184133112Y-168851672D01*
X184168983Y-168811706D01*
X184195609Y-168761759D01*
X184213219Y-168701455D01*
X184222039Y-168630418D01*
X184223228Y-168588329D01*
X184222907Y-168581627D01*
X184077688Y-168581627D01*
X184075217Y-168640598D01*
X184066036Y-168688313D01*
X184049605Y-168726209D01*
X184025385Y-168755720D01*
X184006868Y-168770012D01*
X183972354Y-168785756D01*
X183929513Y-168794966D01*
X183882614Y-168797470D01*
X183835925Y-168793097D01*
X183793715Y-168781675D01*
X183786877Y-168778838D01*
X183749059Y-168757254D01*
X183721044Y-168728935D01*
X183699951Y-168691923D01*
X183694712Y-168679496D01*
X183690684Y-168667071D01*
X183687671Y-168652554D01*
X183685477Y-168633852D01*
X183683908Y-168608873D01*
X183682768Y-168575525D01*
X183681862Y-168531715D01*
X183681225Y-168491111D01*
X183678802Y-168326512D01*
X183811668Y-168328834D01*
X183858164Y-168329709D01*
X183892912Y-168330686D01*
X183918275Y-168332074D01*
X183936614Y-168334186D01*
X183950292Y-168337333D01*
X183961671Y-168341824D01*
X183973112Y-168347973D01*
X183977809Y-168350715D01*
X184014256Y-168378420D01*
X184041996Y-168414107D01*
X184061497Y-168458864D01*
X184073231Y-168513776D01*
X184077668Y-168579932D01*
X184077688Y-168581627D01*
X184222907Y-168581627D01*
X184219534Y-168511332D01*
X184208141Y-168444980D01*
X184188588Y-168387800D01*
X184160409Y-168338322D01*
X184134549Y-168306672D01*
X184108381Y-168281269D01*
X184081133Y-168260869D01*
X184050826Y-168244872D01*
X184015482Y-168232682D01*
X183973121Y-168223699D01*
X183921765Y-168217326D01*
X183859434Y-168212963D01*
X183818643Y-168211163D01*
X183678718Y-168205916D01*
X183681217Y-168099202D01*
X183682444Y-168056535D01*
X183684057Y-168025253D01*
X183686410Y-168002632D01*
X183689860Y-167985945D01*
X183694761Y-167972468D01*
X183698826Y-167964266D01*
X183725931Y-167925087D01*
X183760001Y-167896973D01*
X183802424Y-167879107D01*
X183854588Y-167870673D01*
X183858222Y-167870439D01*
X183905514Y-167870813D01*
X183943491Y-167878961D01*
X183975277Y-167895997D01*
X184003135Y-167922049D01*
X184030744Y-167963114D01*
X184044865Y-168008137D01*
X184046840Y-168033876D01*
X184046840Y-168059516D01*
X184202062Y-168059516D01*
X184201958Y-168033058D01*
X184200228Y-168011770D01*
X184195853Y-167983768D01*
X184191187Y-167961349D01*
X184170299Y-167900550D01*
X184138770Y-167848618D01*
X184097277Y-167805992D01*
X184046495Y-167773110D01*
X183987101Y-167750412D01*
X183919771Y-167738336D01*
X183845756Y-167737286D01*
X183772474Y-167746574D01*
G36*
X186105158Y-167745327D02*
G01*
X186042743Y-167765034D01*
X185987692Y-167795646D01*
X185941423Y-167836120D01*
X185905352Y-167885412D01*
X185898975Y-167897238D01*
X185887435Y-167920843D01*
X185878249Y-167942529D01*
X185871116Y-167964351D01*
X185865734Y-167988365D01*
X185861804Y-168016627D01*
X185859022Y-168051193D01*
X185857089Y-168094118D01*
X185855703Y-168147458D01*
X185854788Y-168198863D01*
X185851726Y-168391127D01*
X186376596Y-168391127D01*
X186373567Y-168509308D01*
X186372023Y-168557090D01*
X186370016Y-168593096D01*
X186367300Y-168619658D01*
X186363626Y-168639108D01*
X186358748Y-168653781D01*
X186358101Y-168655262D01*
X186331984Y-168700271D01*
X186299048Y-168733100D01*
X186258542Y-168754229D01*
X186209716Y-168764139D01*
X186186589Y-168765072D01*
X186151806Y-168763255D01*
X186121994Y-168758328D01*
X186108599Y-168754114D01*
X186070203Y-168730709D01*
X186039871Y-168696951D01*
X186019142Y-168655000D01*
X186010439Y-168616422D01*
X186006319Y-168581627D01*
X185853062Y-168581627D01*
X185853146Y-168618669D01*
X185859863Y-168680403D01*
X185878988Y-168738946D01*
X185909402Y-168791643D01*
X185941412Y-168828094D01*
X185985898Y-168863830D01*
X186033805Y-168889150D01*
X186087584Y-168904904D01*
X186149686Y-168911944D01*
X186184391Y-168912465D01*
X186217969Y-168911471D01*
X186249959Y-168909478D01*
X186275152Y-168906848D01*
X186282207Y-168905689D01*
X186341034Y-168887130D01*
X186394280Y-168856311D01*
X186440821Y-168814359D01*
X186479529Y-168762405D01*
X186509279Y-168701576D01*
X186520982Y-168666294D01*
X186524250Y-168653541D01*
X186526923Y-168639695D01*
X186529060Y-168623257D01*
X186530719Y-168602730D01*
X186531958Y-168576618D01*
X186532835Y-168543423D01*
X186533409Y-168501649D01*
X186533739Y-168449799D01*
X186533882Y-168386375D01*
X186533903Y-168334683D01*
X186533817Y-168257046D01*
X186533459Y-168191953D01*
X186532967Y-168158641D01*
X186375173Y-168158641D01*
X186375173Y-168242960D01*
X186015340Y-168242960D01*
X186015340Y-168145304D01*
X186016265Y-168092074D01*
X186019421Y-168049999D01*
X186025374Y-168016223D01*
X186034694Y-167987889D01*
X186047948Y-167962140D01*
X186053503Y-167953388D01*
X186082296Y-167921919D01*
X186119113Y-167899660D01*
X186160992Y-167886961D01*
X186204973Y-167884172D01*
X186248097Y-167891644D01*
X186287404Y-167909725D01*
X186305528Y-167923595D01*
X186330051Y-167949694D01*
X186348547Y-167979294D01*
X186361656Y-168014558D01*
X186370021Y-168057654D01*
X186374283Y-168110747D01*
X186375173Y-168158641D01*
X186532967Y-168158641D01*
X186532659Y-168137836D01*
X186531247Y-168093127D01*
X186529055Y-168056258D01*
X186525912Y-168025662D01*
X186521649Y-167999772D01*
X186516096Y-167977020D01*
X186509085Y-167955838D01*
X186500445Y-167934659D01*
X186490007Y-167911915D01*
X186487652Y-167906963D01*
X186454409Y-167852820D01*
X186411582Y-167808292D01*
X186360362Y-167773883D01*
X186301942Y-167750096D01*
X186237512Y-167737434D01*
X186168263Y-167736402D01*
X186105158Y-167745327D01*
G37*
X186105158Y-167745327D02*
X186042743Y-167765034D01*
X185987692Y-167795646D01*
X185941423Y-167836120D01*
X185905352Y-167885412D01*
X185898975Y-167897238D01*
X185887435Y-167920843D01*
X185878249Y-167942529D01*
X185871116Y-167964351D01*
X185865734Y-167988365D01*
X185861804Y-168016627D01*
X185859022Y-168051193D01*
X185857089Y-168094118D01*
X185855703Y-168147458D01*
X185854788Y-168198863D01*
X185851726Y-168391127D01*
X186376596Y-168391127D01*
X186373567Y-168509308D01*
X186372023Y-168557090D01*
X186370016Y-168593096D01*
X186367300Y-168619658D01*
X186363626Y-168639108D01*
X186358748Y-168653781D01*
X186358101Y-168655262D01*
X186331984Y-168700271D01*
X186299048Y-168733100D01*
X186258542Y-168754229D01*
X186209716Y-168764139D01*
X186186589Y-168765072D01*
X186151806Y-168763255D01*
X186121994Y-168758328D01*
X186108599Y-168754114D01*
X186070203Y-168730709D01*
X186039871Y-168696951D01*
X186019142Y-168655000D01*
X186010439Y-168616422D01*
X186006319Y-168581627D01*
X185853062Y-168581627D01*
X185853146Y-168618669D01*
X185859863Y-168680403D01*
X185878988Y-168738946D01*
X185909402Y-168791643D01*
X185941412Y-168828094D01*
X185985898Y-168863830D01*
X186033805Y-168889150D01*
X186087584Y-168904904D01*
X186149686Y-168911944D01*
X186184391Y-168912465D01*
X186217969Y-168911471D01*
X186249959Y-168909478D01*
X186275152Y-168906848D01*
X186282207Y-168905689D01*
X186341034Y-168887130D01*
X186394280Y-168856311D01*
X186440821Y-168814359D01*
X186479529Y-168762405D01*
X186509279Y-168701576D01*
X186520982Y-168666294D01*
X186524250Y-168653541D01*
X186526923Y-168639695D01*
X186529060Y-168623257D01*
X186530719Y-168602730D01*
X186531958Y-168576618D01*
X186532835Y-168543423D01*
X186533409Y-168501649D01*
X186533739Y-168449799D01*
X186533882Y-168386375D01*
X186533903Y-168334683D01*
X186533817Y-168257046D01*
X186533459Y-168191953D01*
X186532967Y-168158641D01*
X186375173Y-168158641D01*
X186375173Y-168242960D01*
X186015340Y-168242960D01*
X186015340Y-168145304D01*
X186016265Y-168092074D01*
X186019421Y-168049999D01*
X186025374Y-168016223D01*
X186034694Y-167987889D01*
X186047948Y-167962140D01*
X186053503Y-167953388D01*
X186082296Y-167921919D01*
X186119113Y-167899660D01*
X186160992Y-167886961D01*
X186204973Y-167884172D01*
X186248097Y-167891644D01*
X186287404Y-167909725D01*
X186305528Y-167923595D01*
X186330051Y-167949694D01*
X186348547Y-167979294D01*
X186361656Y-168014558D01*
X186370021Y-168057654D01*
X186374283Y-168110747D01*
X186375173Y-168158641D01*
X186532967Y-168158641D01*
X186532659Y-168137836D01*
X186531247Y-168093127D01*
X186529055Y-168056258D01*
X186525912Y-168025662D01*
X186521649Y-167999772D01*
X186516096Y-167977020D01*
X186509085Y-167955838D01*
X186500445Y-167934659D01*
X186490007Y-167911915D01*
X186487652Y-167906963D01*
X186454409Y-167852820D01*
X186411582Y-167808292D01*
X186360362Y-167773883D01*
X186301942Y-167750096D01*
X186237512Y-167737434D01*
X186168263Y-167736402D01*
X186105158Y-167745327D01*
G36*
X186996407Y-167737481D02*
G01*
X186936361Y-167747764D01*
X186880892Y-167765944D01*
X186832600Y-167791963D01*
X186801485Y-167817758D01*
X186774688Y-167852416D01*
X186751718Y-167896342D01*
X186734785Y-167944786D01*
X186728315Y-167974849D01*
X186722854Y-168008696D01*
X186720740Y-168030975D01*
X186724040Y-168044089D01*
X186734816Y-168050442D01*
X186755134Y-168052436D01*
X186787057Y-168052476D01*
X186794978Y-168052460D01*
X186869062Y-168052460D01*
X186869062Y-168032574D01*
X186874851Y-167991124D01*
X186890823Y-167951733D01*
X186914884Y-167917661D01*
X186944937Y-167892167D01*
X186965793Y-167882052D01*
X186996385Y-167875278D01*
X187033720Y-167872778D01*
X187072671Y-167874350D01*
X187108108Y-167879792D01*
X187134522Y-167888703D01*
X187170817Y-167914992D01*
X187197754Y-167950973D01*
X187214663Y-167995221D01*
X187220877Y-168046311D01*
X187220012Y-168071073D01*
X187212160Y-168114807D01*
X187195484Y-168151408D01*
X187168820Y-168182062D01*
X187131003Y-168207955D01*
X187080869Y-168230274D01*
X187055051Y-168239126D01*
X186988647Y-168260506D01*
X186934205Y-168278564D01*
X186890175Y-168294043D01*
X186855004Y-168307685D01*
X186827141Y-168320232D01*
X186805036Y-168332426D01*
X186787138Y-168345008D01*
X186771894Y-168358722D01*
X186757754Y-168374308D01*
X186748415Y-168385802D01*
X186720206Y-168431726D01*
X186701975Y-168485916D01*
X186693438Y-168549351D01*
X186692673Y-168577879D01*
X186696908Y-168653275D01*
X186709892Y-168717977D01*
X186732045Y-168772684D01*
X186763784Y-168818093D01*
X186805531Y-168854901D01*
X186857703Y-168883806D01*
X186882424Y-168893613D01*
X186904496Y-168900196D01*
X186929947Y-168904798D01*
X186962062Y-168907817D01*
X187004125Y-168909653D01*
X187017228Y-168909989D01*
X187054002Y-168910557D01*
X187086988Y-168910563D01*
X187112943Y-168910041D01*
X187128626Y-168909025D01*
X187130117Y-168908791D01*
X187195951Y-168890652D01*
X187251457Y-168863261D01*
X187296917Y-168826288D01*
X187332616Y-168779406D01*
X187358837Y-168722286D01*
X187375865Y-168654599D01*
X187380813Y-168618669D01*
X187385503Y-168574572D01*
X187237894Y-168574572D01*
X187233145Y-168615141D01*
X187221276Y-168667140D01*
X187199131Y-168709543D01*
X187166990Y-168742117D01*
X187125130Y-168764634D01*
X187073832Y-168776861D01*
X187034867Y-168779183D01*
X186977508Y-168773941D01*
X186929660Y-168758394D01*
X186891597Y-168732812D01*
X186863597Y-168697462D01*
X186845936Y-168652613D01*
X186838888Y-168598535D01*
X186838766Y-168588387D01*
X186840809Y-168550777D01*
X186846349Y-168522772D01*
X186849827Y-168514157D01*
X186871520Y-168483041D01*
X186903062Y-168455560D01*
X186945617Y-168430993D01*
X187000347Y-168408622D01*
X187041923Y-168395236D01*
X187091188Y-168379691D01*
X187139024Y-168362876D01*
X187182361Y-168345988D01*
X187218128Y-168330223D01*
X187243006Y-168316932D01*
X187270766Y-168295367D01*
X187299252Y-168266568D01*
X187324254Y-168235285D01*
X187341564Y-168206272D01*
X187342136Y-168205003D01*
X187359397Y-168151939D01*
X187367647Y-168093722D01*
X187367358Y-168033129D01*
X187359003Y-167972937D01*
X187343053Y-167915922D01*
X187319982Y-167864860D01*
X187290260Y-167822528D01*
X187274392Y-167806669D01*
X187230420Y-167776548D01*
X187178037Y-167754630D01*
X187119842Y-167740853D01*
X187058433Y-167735157D01*
X186996407Y-167737481D01*
G37*
X186996407Y-167737481D02*
X186936361Y-167747764D01*
X186880892Y-167765944D01*
X186832600Y-167791963D01*
X186801485Y-167817758D01*
X186774688Y-167852416D01*
X186751718Y-167896342D01*
X186734785Y-167944786D01*
X186728315Y-167974849D01*
X186722854Y-168008696D01*
X186720740Y-168030975D01*
X186724040Y-168044089D01*
X186734816Y-168050442D01*
X186755134Y-168052436D01*
X186787057Y-168052476D01*
X186794978Y-168052460D01*
X186869062Y-168052460D01*
X186869062Y-168032574D01*
X186874851Y-167991124D01*
X186890823Y-167951733D01*
X186914884Y-167917661D01*
X186944937Y-167892167D01*
X186965793Y-167882052D01*
X186996385Y-167875278D01*
X187033720Y-167872778D01*
X187072671Y-167874350D01*
X187108108Y-167879792D01*
X187134522Y-167888703D01*
X187170817Y-167914992D01*
X187197754Y-167950973D01*
X187214663Y-167995221D01*
X187220877Y-168046311D01*
X187220012Y-168071073D01*
X187212160Y-168114807D01*
X187195484Y-168151408D01*
X187168820Y-168182062D01*
X187131003Y-168207955D01*
X187080869Y-168230274D01*
X187055051Y-168239126D01*
X186988647Y-168260506D01*
X186934205Y-168278564D01*
X186890175Y-168294043D01*
X186855004Y-168307685D01*
X186827141Y-168320232D01*
X186805036Y-168332426D01*
X186787138Y-168345008D01*
X186771894Y-168358722D01*
X186757754Y-168374308D01*
X186748415Y-168385802D01*
X186720206Y-168431726D01*
X186701975Y-168485916D01*
X186693438Y-168549351D01*
X186692673Y-168577879D01*
X186696908Y-168653275D01*
X186709892Y-168717977D01*
X186732045Y-168772684D01*
X186763784Y-168818093D01*
X186805531Y-168854901D01*
X186857703Y-168883806D01*
X186882424Y-168893613D01*
X186904496Y-168900196D01*
X186929947Y-168904798D01*
X186962062Y-168907817D01*
X187004125Y-168909653D01*
X187017228Y-168909989D01*
X187054002Y-168910557D01*
X187086988Y-168910563D01*
X187112943Y-168910041D01*
X187128626Y-168909025D01*
X187130117Y-168908791D01*
X187195951Y-168890652D01*
X187251457Y-168863261D01*
X187296917Y-168826288D01*
X187332616Y-168779406D01*
X187358837Y-168722286D01*
X187375865Y-168654599D01*
X187380813Y-168618669D01*
X187385503Y-168574572D01*
X187237894Y-168574572D01*
X187233145Y-168615141D01*
X187221276Y-168667140D01*
X187199131Y-168709543D01*
X187166990Y-168742117D01*
X187125130Y-168764634D01*
X187073832Y-168776861D01*
X187034867Y-168779183D01*
X186977508Y-168773941D01*
X186929660Y-168758394D01*
X186891597Y-168732812D01*
X186863597Y-168697462D01*
X186845936Y-168652613D01*
X186838888Y-168598535D01*
X186838766Y-168588387D01*
X186840809Y-168550777D01*
X186846349Y-168522772D01*
X186849827Y-168514157D01*
X186871520Y-168483041D01*
X186903062Y-168455560D01*
X186945617Y-168430993D01*
X187000347Y-168408622D01*
X187041923Y-168395236D01*
X187091188Y-168379691D01*
X187139024Y-168362876D01*
X187182361Y-168345988D01*
X187218128Y-168330223D01*
X187243006Y-168316932D01*
X187270766Y-168295367D01*
X187299252Y-168266568D01*
X187324254Y-168235285D01*
X187341564Y-168206272D01*
X187342136Y-168205003D01*
X187359397Y-168151939D01*
X187367647Y-168093722D01*
X187367358Y-168033129D01*
X187359003Y-167972937D01*
X187343053Y-167915922D01*
X187319982Y-167864860D01*
X187290260Y-167822528D01*
X187274392Y-167806669D01*
X187230420Y-167776548D01*
X187178037Y-167754630D01*
X187119842Y-167740853D01*
X187058433Y-167735157D01*
X186996407Y-167737481D01*
G36*
X187803016Y-167741069D02*
G01*
X187738405Y-167758241D01*
X187682108Y-167786067D01*
X187634789Y-167824016D01*
X187597109Y-167871556D01*
X187569730Y-167928154D01*
X187553314Y-167993280D01*
X187553244Y-167993738D01*
X187551059Y-168016565D01*
X187549371Y-168053160D01*
X187548185Y-168103191D01*
X187547504Y-168166323D01*
X187547335Y-168242222D01*
X187547682Y-168330555D01*
X187547870Y-168357099D01*
X187548462Y-168431798D01*
X187549037Y-168493798D01*
X187549667Y-168544512D01*
X187550427Y-168585352D01*
X187551391Y-168617731D01*
X187552631Y-168643059D01*
X187554222Y-168662751D01*
X187556238Y-168678218D01*
X187558751Y-168690872D01*
X187561837Y-168702125D01*
X187565569Y-168713390D01*
X187566633Y-168716436D01*
X187594160Y-168774944D01*
X187632140Y-168824490D01*
X187679667Y-168864124D01*
X187734903Y-168892541D01*
X187767435Y-168901468D01*
X187809364Y-168907772D01*
X187856187Y-168911268D01*
X187903403Y-168911768D01*
X187946508Y-168909087D01*
X187981002Y-168903038D01*
X187981973Y-168902770D01*
X188044563Y-168878959D01*
X188096833Y-168845531D01*
X188138756Y-168802512D01*
X188170307Y-168749928D01*
X188191461Y-168687805D01*
X188191687Y-168686849D01*
X188194612Y-168666908D01*
X188197125Y-168634878D01*
X188199226Y-168592608D01*
X188200915Y-168541947D01*
X188202192Y-168484745D01*
X188202732Y-168446096D01*
X188046626Y-168446096D01*
X188046580Y-168497101D01*
X188046221Y-168538183D01*
X188045509Y-168570736D01*
X188044407Y-168596157D01*
X188042877Y-168615840D01*
X188040879Y-168631181D01*
X188038377Y-168643575D01*
X188036569Y-168650342D01*
X188018454Y-168695306D01*
X187993161Y-168728527D01*
X187959729Y-168750707D01*
X187917197Y-168762547D01*
X187879544Y-168765066D01*
X187845268Y-168763271D01*
X187815680Y-168758416D01*
X187802029Y-168754151D01*
X187767029Y-168733785D01*
X187739632Y-168704032D01*
X187727389Y-168683933D01*
X187723863Y-168677059D01*
X187720930Y-168669848D01*
X187718534Y-168661010D01*
X187716623Y-168649252D01*
X187715141Y-168633282D01*
X187714033Y-168611808D01*
X187713245Y-168583540D01*
X187712723Y-168547184D01*
X187712413Y-168501449D01*
X187712258Y-168445044D01*
X187712206Y-168376676D01*
X187712201Y-168324099D01*
X187712201Y-167992488D01*
X187731791Y-167959162D01*
X187760092Y-167924148D01*
X187797330Y-167899982D01*
X187843226Y-167886827D01*
X187858884Y-167885033D01*
X187911297Y-167886447D01*
X187956064Y-167899468D01*
X187992805Y-167923896D01*
X188021142Y-167959530D01*
X188029114Y-167974849D01*
X188032687Y-167983109D01*
X188035645Y-167991941D01*
X188038056Y-168002728D01*
X188039992Y-168016850D01*
X188041520Y-168035690D01*
X188042711Y-168060629D01*
X188043635Y-168093049D01*
X188044360Y-168134332D01*
X188044957Y-168185858D01*
X188045495Y-168249011D01*
X188045928Y-168308733D01*
X188046396Y-168383772D01*
X188046626Y-168446096D01*
X188202732Y-168446096D01*
X188203057Y-168422849D01*
X188203510Y-168358109D01*
X188203549Y-168292373D01*
X188203177Y-168227491D01*
X188202391Y-168165312D01*
X188201192Y-168107684D01*
X188199580Y-168056456D01*
X188197555Y-168013477D01*
X188195116Y-167980596D01*
X188192264Y-167959662D01*
X188191746Y-167957457D01*
X188169218Y-167896386D01*
X188136171Y-167844390D01*
X188093259Y-167801931D01*
X188041139Y-167769470D01*
X187980467Y-167747468D01*
X187911899Y-167736386D01*
X187875279Y-167735083D01*
X187803016Y-167741069D01*
G37*
X187803016Y-167741069D02*
X187738405Y-167758241D01*
X187682108Y-167786067D01*
X187634789Y-167824016D01*
X187597109Y-167871556D01*
X187569730Y-167928154D01*
X187553314Y-167993280D01*
X187553244Y-167993738D01*
X187551059Y-168016565D01*
X187549371Y-168053160D01*
X187548185Y-168103191D01*
X187547504Y-168166323D01*
X187547335Y-168242222D01*
X187547682Y-168330555D01*
X187547870Y-168357099D01*
X187548462Y-168431798D01*
X187549037Y-168493798D01*
X187549667Y-168544512D01*
X187550427Y-168585352D01*
X187551391Y-168617731D01*
X187552631Y-168643059D01*
X187554222Y-168662751D01*
X187556238Y-168678218D01*
X187558751Y-168690872D01*
X187561837Y-168702125D01*
X187565569Y-168713390D01*
X187566633Y-168716436D01*
X187594160Y-168774944D01*
X187632140Y-168824490D01*
X187679667Y-168864124D01*
X187734903Y-168892541D01*
X187767435Y-168901468D01*
X187809364Y-168907772D01*
X187856187Y-168911268D01*
X187903403Y-168911768D01*
X187946508Y-168909087D01*
X187981002Y-168903038D01*
X187981973Y-168902770D01*
X188044563Y-168878959D01*
X188096833Y-168845531D01*
X188138756Y-168802512D01*
X188170307Y-168749928D01*
X188191461Y-168687805D01*
X188191687Y-168686849D01*
X188194612Y-168666908D01*
X188197125Y-168634878D01*
X188199226Y-168592608D01*
X188200915Y-168541947D01*
X188202192Y-168484745D01*
X188202732Y-168446096D01*
X188046626Y-168446096D01*
X188046580Y-168497101D01*
X188046221Y-168538183D01*
X188045509Y-168570736D01*
X188044407Y-168596157D01*
X188042877Y-168615840D01*
X188040879Y-168631181D01*
X188038377Y-168643575D01*
X188036569Y-168650342D01*
X188018454Y-168695306D01*
X187993161Y-168728527D01*
X187959729Y-168750707D01*
X187917197Y-168762547D01*
X187879544Y-168765066D01*
X187845268Y-168763271D01*
X187815680Y-168758416D01*
X187802029Y-168754151D01*
X187767029Y-168733785D01*
X187739632Y-168704032D01*
X187727389Y-168683933D01*
X187723863Y-168677059D01*
X187720930Y-168669848D01*
X187718534Y-168661010D01*
X187716623Y-168649252D01*
X187715141Y-168633282D01*
X187714033Y-168611808D01*
X187713245Y-168583540D01*
X187712723Y-168547184D01*
X187712413Y-168501449D01*
X187712258Y-168445044D01*
X187712206Y-168376676D01*
X187712201Y-168324099D01*
X187712201Y-167992488D01*
X187731791Y-167959162D01*
X187760092Y-167924148D01*
X187797330Y-167899982D01*
X187843226Y-167886827D01*
X187858884Y-167885033D01*
X187911297Y-167886447D01*
X187956064Y-167899468D01*
X187992805Y-167923896D01*
X188021142Y-167959530D01*
X188029114Y-167974849D01*
X188032687Y-167983109D01*
X188035645Y-167991941D01*
X188038056Y-168002728D01*
X188039992Y-168016850D01*
X188041520Y-168035690D01*
X188042711Y-168060629D01*
X188043635Y-168093049D01*
X188044360Y-168134332D01*
X188044957Y-168185858D01*
X188045495Y-168249011D01*
X188045928Y-168308733D01*
X188046396Y-168383772D01*
X188046626Y-168446096D01*
X188202732Y-168446096D01*
X188203057Y-168422849D01*
X188203510Y-168358109D01*
X188203549Y-168292373D01*
X188203177Y-168227491D01*
X188202391Y-168165312D01*
X188201192Y-168107684D01*
X188199580Y-168056456D01*
X188197555Y-168013477D01*
X188195116Y-167980596D01*
X188192264Y-167959662D01*
X188191746Y-167957457D01*
X188169218Y-167896386D01*
X188136171Y-167844390D01*
X188093259Y-167801931D01*
X188041139Y-167769470D01*
X187980467Y-167747468D01*
X187911899Y-167736386D01*
X187875279Y-167735083D01*
X187803016Y-167741069D01*
G36*
X188677455Y-167737192D02*
G01*
X188605582Y-167748099D01*
X188541928Y-167769858D01*
X188487054Y-167802077D01*
X188441520Y-167844361D01*
X188405885Y-167896318D01*
X188385663Y-167942325D01*
X188379742Y-167963416D01*
X188374014Y-167990984D01*
X188368934Y-168021596D01*
X188364959Y-168051824D01*
X188362545Y-168078234D01*
X188362150Y-168097396D01*
X188363938Y-168105651D01*
X188371924Y-168107011D01*
X188390882Y-168108092D01*
X188417671Y-168108758D01*
X188439125Y-168108905D01*
X188511058Y-168108905D01*
X188515851Y-168062120D01*
X188523544Y-168015754D01*
X188536851Y-167979188D01*
X188557252Y-167948735D01*
X188564517Y-167940717D01*
X188592158Y-167915669D01*
X188620384Y-167899355D01*
X188653188Y-167890265D01*
X188694562Y-167886886D01*
X188707034Y-167886756D01*
X188753170Y-167889250D01*
X188789294Y-167897623D01*
X188818757Y-167913217D01*
X188844907Y-167937371D01*
X188850794Y-167944263D01*
X188860757Y-167956702D01*
X188869059Y-167968615D01*
X188875849Y-167981370D01*
X188881280Y-167996333D01*
X188885502Y-168014872D01*
X188888668Y-168038353D01*
X188890927Y-168068144D01*
X188892432Y-168105612D01*
X188893334Y-168152123D01*
X188893783Y-168209044D01*
X188893932Y-168277743D01*
X188893937Y-168334176D01*
X188893868Y-168634544D01*
X188877232Y-168669822D01*
X188852377Y-168709627D01*
X188820139Y-168738282D01*
X188779544Y-168756345D01*
X188729620Y-168764375D01*
X188711380Y-168764917D01*
X188665750Y-168762809D01*
X188629792Y-168755299D01*
X188599672Y-168741071D01*
X188571556Y-168718807D01*
X188568425Y-168715816D01*
X188538777Y-168677642D01*
X188519763Y-168632474D01*
X188513007Y-168584176D01*
X188513006Y-168583874D01*
X188513006Y-168560460D01*
X188357784Y-168560460D01*
X188357837Y-168579863D01*
X188363191Y-168636406D01*
X188377926Y-168693964D01*
X188400503Y-168748574D01*
X188429386Y-168796273D01*
X188452244Y-168823140D01*
X188490847Y-168854248D01*
X188538240Y-168880821D01*
X188589223Y-168900151D01*
X188610367Y-168905441D01*
X188644047Y-168910076D01*
X188685580Y-168912297D01*
X188730099Y-168912177D01*
X188772734Y-168909790D01*
X188808616Y-168905209D01*
X188821999Y-168902255D01*
X188886062Y-168878803D01*
X188939952Y-168845586D01*
X188983844Y-168802430D01*
X189017916Y-168749159D01*
X189042347Y-168685597D01*
X189042820Y-168683933D01*
X189045280Y-168672450D01*
X189047323Y-168656228D01*
X189048984Y-168634070D01*
X189050295Y-168604781D01*
X189051289Y-168567164D01*
X189051998Y-168520023D01*
X189052457Y-168462163D01*
X189052698Y-168392388D01*
X189052756Y-168324099D01*
X189052743Y-168247991D01*
X189052663Y-168184622D01*
X189052456Y-168132616D01*
X189052060Y-168090603D01*
X189051415Y-168057207D01*
X189050459Y-168031057D01*
X189049133Y-168010779D01*
X189047374Y-167995000D01*
X189045123Y-167982346D01*
X189042317Y-167971445D01*
X189038897Y-167960922D01*
X189036332Y-167953683D01*
X189006974Y-167890006D01*
X188968513Y-167837022D01*
X188921286Y-167794932D01*
X188865632Y-167763941D01*
X188801889Y-167744254D01*
X188730395Y-167736074D01*
X188677455Y-167737192D01*
G37*
X188677455Y-167737192D02*
X188605582Y-167748099D01*
X188541928Y-167769858D01*
X188487054Y-167802077D01*
X188441520Y-167844361D01*
X188405885Y-167896318D01*
X188385663Y-167942325D01*
X188379742Y-167963416D01*
X188374014Y-167990984D01*
X188368934Y-168021596D01*
X188364959Y-168051824D01*
X188362545Y-168078234D01*
X188362150Y-168097396D01*
X188363938Y-168105651D01*
X188371924Y-168107011D01*
X188390882Y-168108092D01*
X188417671Y-168108758D01*
X188439125Y-168108905D01*
X188511058Y-168108905D01*
X188515851Y-168062120D01*
X188523544Y-168015754D01*
X188536851Y-167979188D01*
X188557252Y-167948735D01*
X188564517Y-167940717D01*
X188592158Y-167915669D01*
X188620384Y-167899355D01*
X188653188Y-167890265D01*
X188694562Y-167886886D01*
X188707034Y-167886756D01*
X188753170Y-167889250D01*
X188789294Y-167897623D01*
X188818757Y-167913217D01*
X188844907Y-167937371D01*
X188850794Y-167944263D01*
X188860757Y-167956702D01*
X188869059Y-167968615D01*
X188875849Y-167981370D01*
X188881280Y-167996333D01*
X188885502Y-168014872D01*
X188888668Y-168038353D01*
X188890927Y-168068144D01*
X188892432Y-168105612D01*
X188893334Y-168152123D01*
X188893783Y-168209044D01*
X188893932Y-168277743D01*
X188893937Y-168334176D01*
X188893868Y-168634544D01*
X188877232Y-168669822D01*
X188852377Y-168709627D01*
X188820139Y-168738282D01*
X188779544Y-168756345D01*
X188729620Y-168764375D01*
X188711380Y-168764917D01*
X188665750Y-168762809D01*
X188629792Y-168755299D01*
X188599672Y-168741071D01*
X188571556Y-168718807D01*
X188568425Y-168715816D01*
X188538777Y-168677642D01*
X188519763Y-168632474D01*
X188513007Y-168584176D01*
X188513006Y-168583874D01*
X188513006Y-168560460D01*
X188357784Y-168560460D01*
X188357837Y-168579863D01*
X188363191Y-168636406D01*
X188377926Y-168693964D01*
X188400503Y-168748574D01*
X188429386Y-168796273D01*
X188452244Y-168823140D01*
X188490847Y-168854248D01*
X188538240Y-168880821D01*
X188589223Y-168900151D01*
X188610367Y-168905441D01*
X188644047Y-168910076D01*
X188685580Y-168912297D01*
X188730099Y-168912177D01*
X188772734Y-168909790D01*
X188808616Y-168905209D01*
X188821999Y-168902255D01*
X188886062Y-168878803D01*
X188939952Y-168845586D01*
X188983844Y-168802430D01*
X189017916Y-168749159D01*
X189042347Y-168685597D01*
X189042820Y-168683933D01*
X189045280Y-168672450D01*
X189047323Y-168656228D01*
X189048984Y-168634070D01*
X189050295Y-168604781D01*
X189051289Y-168567164D01*
X189051998Y-168520023D01*
X189052457Y-168462163D01*
X189052698Y-168392388D01*
X189052756Y-168324099D01*
X189052743Y-168247991D01*
X189052663Y-168184622D01*
X189052456Y-168132616D01*
X189052060Y-168090603D01*
X189051415Y-168057207D01*
X189050459Y-168031057D01*
X189049133Y-168010779D01*
X189047374Y-167995000D01*
X189045123Y-167982346D01*
X189042317Y-167971445D01*
X189038897Y-167960922D01*
X189036332Y-167953683D01*
X189006974Y-167890006D01*
X188968513Y-167837022D01*
X188921286Y-167794932D01*
X188865632Y-167763941D01*
X188801889Y-167744254D01*
X188730395Y-167736074D01*
X188677455Y-167737192D01*
G36*
X185532987Y-167793169D02*
G01*
X185528788Y-167808191D01*
X185521360Y-167835178D01*
X185511154Y-167872474D01*
X185498619Y-167918421D01*
X185484204Y-167971362D01*
X185468359Y-168029638D01*
X185451534Y-168091592D01*
X185434178Y-168155567D01*
X185416740Y-168219905D01*
X185399670Y-168282949D01*
X185383417Y-168343041D01*
X185368431Y-168398524D01*
X185355162Y-168447740D01*
X185344059Y-168489031D01*
X185335571Y-168520740D01*
X185330650Y-168539294D01*
X185322964Y-168567505D01*
X185316049Y-168591044D01*
X185311037Y-168606124D01*
X185309870Y-168608844D01*
X185307336Y-168603890D01*
X185301731Y-168586356D01*
X185293353Y-168557365D01*
X185282503Y-168518038D01*
X185269482Y-168469498D01*
X185254589Y-168412867D01*
X185238125Y-168349267D01*
X185220390Y-168279821D01*
X185201684Y-168205650D01*
X185197085Y-168187274D01*
X185089323Y-167756127D01*
X185009053Y-167756127D01*
X184972124Y-167756552D01*
X184947581Y-167757955D01*
X184933723Y-167760526D01*
X184928847Y-167764454D01*
X184928784Y-167765088D01*
X184930572Y-167775982D01*
X184935277Y-167796201D01*
X184941908Y-167821509D01*
X184942400Y-167823297D01*
X184946156Y-167837096D01*
X184953283Y-167863507D01*
X184963510Y-167901511D01*
X184976562Y-167950089D01*
X184992167Y-168008220D01*
X185010050Y-168074886D01*
X185029938Y-168149066D01*
X185051558Y-168229741D01*
X185074636Y-168315892D01*
X185098899Y-168406498D01*
X185124074Y-168500541D01*
X185133306Y-168535036D01*
X185158710Y-168629669D01*
X185183365Y-168720932D01*
X185206996Y-168807837D01*
X185229325Y-168889395D01*
X185250078Y-168964618D01*
X185268979Y-169032516D01*
X185285752Y-169092101D01*
X185300121Y-169142384D01*
X185311810Y-169182377D01*
X185320544Y-169211090D01*
X185326046Y-169227536D01*
X185327252Y-169230402D01*
X185355199Y-169273723D01*
X185391520Y-169308938D01*
X185437234Y-169336596D01*
X185493358Y-169357246D01*
X185560912Y-169371438D01*
X185597298Y-169376075D01*
X185641395Y-169380728D01*
X185641395Y-169225615D01*
X185597090Y-169222058D01*
X185545442Y-169211593D01*
X185501203Y-169189127D01*
X185464482Y-169154735D01*
X185437019Y-169111808D01*
X185429498Y-169093380D01*
X185420059Y-169065291D01*
X185409598Y-169030834D01*
X185399012Y-168993300D01*
X185389198Y-168955979D01*
X185381052Y-168922164D01*
X185375470Y-168895147D01*
X185373351Y-168878217D01*
X185373350Y-168878094D01*
X185375344Y-168868751D01*
X185381142Y-168846954D01*
X185390439Y-168813750D01*
X185402928Y-168770183D01*
X185418303Y-168717300D01*
X185436258Y-168656145D01*
X185456486Y-168587765D01*
X185478681Y-168513205D01*
X185502538Y-168433510D01*
X185527749Y-168349727D01*
X185539090Y-168312175D01*
X185564733Y-168227313D01*
X185589163Y-168146376D01*
X185612076Y-168070375D01*
X185633169Y-168000324D01*
X185652136Y-167937234D01*
X185668675Y-167882119D01*
X185682481Y-167835991D01*
X185693251Y-167799862D01*
X185700679Y-167774745D01*
X185704462Y-167761652D01*
X185704895Y-167759945D01*
X185698306Y-167758437D01*
X185680400Y-167757211D01*
X185653971Y-167756397D01*
X185624257Y-167756127D01*
X185543619Y-167756127D01*
X185532987Y-167793169D01*
G37*
X185532987Y-167793169D02*
X185528788Y-167808191D01*
X185521360Y-167835178D01*
X185511154Y-167872474D01*
X185498619Y-167918421D01*
X185484204Y-167971362D01*
X185468359Y-168029638D01*
X185451534Y-168091592D01*
X185434178Y-168155567D01*
X185416740Y-168219905D01*
X185399670Y-168282949D01*
X185383417Y-168343041D01*
X185368431Y-168398524D01*
X185355162Y-168447740D01*
X185344059Y-168489031D01*
X185335571Y-168520740D01*
X185330650Y-168539294D01*
X185322964Y-168567505D01*
X185316049Y-168591044D01*
X185311037Y-168606124D01*
X185309870Y-168608844D01*
X185307336Y-168603890D01*
X185301731Y-168586356D01*
X185293353Y-168557365D01*
X185282503Y-168518038D01*
X185269482Y-168469498D01*
X185254589Y-168412867D01*
X185238125Y-168349267D01*
X185220390Y-168279821D01*
X185201684Y-168205650D01*
X185197085Y-168187274D01*
X185089323Y-167756127D01*
X185009053Y-167756127D01*
X184972124Y-167756552D01*
X184947581Y-167757955D01*
X184933723Y-167760526D01*
X184928847Y-167764454D01*
X184928784Y-167765088D01*
X184930572Y-167775982D01*
X184935277Y-167796201D01*
X184941908Y-167821509D01*
X184942400Y-167823297D01*
X184946156Y-167837096D01*
X184953283Y-167863507D01*
X184963510Y-167901511D01*
X184976562Y-167950089D01*
X184992167Y-168008220D01*
X185010050Y-168074886D01*
X185029938Y-168149066D01*
X185051558Y-168229741D01*
X185074636Y-168315892D01*
X185098899Y-168406498D01*
X185124074Y-168500541D01*
X185133306Y-168535036D01*
X185158710Y-168629669D01*
X185183365Y-168720932D01*
X185206996Y-168807837D01*
X185229325Y-168889395D01*
X185250078Y-168964618D01*
X185268979Y-169032516D01*
X185285752Y-169092101D01*
X185300121Y-169142384D01*
X185311810Y-169182377D01*
X185320544Y-169211090D01*
X185326046Y-169227536D01*
X185327252Y-169230402D01*
X185355199Y-169273723D01*
X185391520Y-169308938D01*
X185437234Y-169336596D01*
X185493358Y-169357246D01*
X185560912Y-169371438D01*
X185597298Y-169376075D01*
X185641395Y-169380728D01*
X185641395Y-169225615D01*
X185597090Y-169222058D01*
X185545442Y-169211593D01*
X185501203Y-169189127D01*
X185464482Y-169154735D01*
X185437019Y-169111808D01*
X185429498Y-169093380D01*
X185420059Y-169065291D01*
X185409598Y-169030834D01*
X185399012Y-168993300D01*
X185389198Y-168955979D01*
X185381052Y-168922164D01*
X185375470Y-168895147D01*
X185373351Y-168878217D01*
X185373350Y-168878094D01*
X185375344Y-168868751D01*
X185381142Y-168846954D01*
X185390439Y-168813750D01*
X185402928Y-168770183D01*
X185418303Y-168717300D01*
X185436258Y-168656145D01*
X185456486Y-168587765D01*
X185478681Y-168513205D01*
X185502538Y-168433510D01*
X185527749Y-168349727D01*
X185539090Y-168312175D01*
X185564733Y-168227313D01*
X185589163Y-168146376D01*
X185612076Y-168070375D01*
X185633169Y-168000324D01*
X185652136Y-167937234D01*
X185668675Y-167882119D01*
X185682481Y-167835991D01*
X185693251Y-167799862D01*
X185700679Y-167774745D01*
X185704462Y-167761652D01*
X185704895Y-167759945D01*
X185698306Y-167758437D01*
X185680400Y-167757211D01*
X185653971Y-167756397D01*
X185624257Y-167756127D01*
X185543619Y-167756127D01*
X185532987Y-167793169D01*
M02*
