G04 #@! TF.GenerationSoftware,KiCad,Pcbnew,(5.1.5)-3*
G04 #@! TF.CreationDate,2020-06-26T12:36:06-04:00*
G04 #@! TF.ProjectId,discipline-pcb,64697363-6970-46c6-996e-652d7063622e,rev?*
G04 #@! TF.SameCoordinates,Original*
G04 #@! TF.FileFunction,Profile,NP*
%FSLAX46Y46*%
G04 Gerber Fmt 4.6, Leading zero omitted, Abs format (unit mm)*
G04 Created by KiCad (PCBNEW (5.1.5)-3) date 2020-06-26 12:36:06*
%MOMM*%
%LPD*%
G04 APERTURE LIST*
%ADD10C,0.150000*%
%ADD11C,0.200000*%
G04 APERTURE END LIST*
D10*
X56647558Y-91322900D02*
X355783441Y-91322900D01*
D11*
X131284250Y-182522901D02*
X131284250Y-169522901D01*
X132284250Y-183522901D02*
G75*
G02X131284250Y-182522901I0J1000000D01*
G01*
X137284250Y-168522901D02*
X132284250Y-168522901D01*
X137284250Y-183522901D02*
X132284250Y-183522901D01*
X138284250Y-182522901D02*
X138284250Y-169522901D01*
X138284250Y-182522901D02*
G75*
G02X137284250Y-183522901I-1000000J0D01*
G01*
X137284250Y-168522901D02*
G75*
G02X138284250Y-169522901I0J-1000000D01*
G01*
X131284250Y-169522901D02*
G75*
G02X132284250Y-168522901I1000000J0D01*
G01*
X237284250Y-168522901D02*
G75*
G02X238284250Y-169522901I0J-1000000D01*
G01*
X237284250Y-183522901D02*
X232284250Y-183522901D01*
X238284250Y-182522901D02*
X238284250Y-169522901D01*
X231284250Y-182522901D02*
X231284250Y-169522901D01*
X237284250Y-168522901D02*
X232284250Y-168522901D01*
X231284250Y-169522901D02*
G75*
G02X232284250Y-168522901I1000000J0D01*
G01*
X238284250Y-182522901D02*
G75*
G02X237284250Y-183522901I-1000000J0D01*
G01*
X232284250Y-183522901D02*
G75*
G02X231284250Y-182522901I0J1000000D01*
G01*
X171640500Y-184522901D02*
G75*
G02X170640500Y-183522901I0J1000000D01*
G01*
X170640500Y-171522901D02*
X170640500Y-183522901D01*
X191784250Y-183522901D02*
G75*
G02X190784250Y-184522901I-1000000J0D01*
G01*
X170640500Y-171522901D02*
G75*
G02X171640500Y-170522901I1000000J0D01*
G01*
X190784250Y-170522901D02*
G75*
G02X191784250Y-171522901I0J-1000000D01*
G01*
X191784250Y-171522901D02*
X191784250Y-183522901D01*
X161698107Y-178502520D02*
X161605141Y-178556818D01*
X143453074Y-178553845D02*
G75*
G02X145040341Y-178944527I-385301J-4985132D01*
G01*
X154451367Y-178502520D02*
X154544333Y-178556818D01*
X142530135Y-177556818D02*
X142530135Y-177556818D01*
X150323654Y-176829812D02*
X150416620Y-176775514D01*
X151332341Y-178556819D02*
G75*
G02X145040341Y-178944527I-3530404J6044523D01*
G01*
X160596454Y-176829812D02*
G75*
G02X155553020Y-176829812I-2521717J4317516D01*
G01*
X166390500Y-177522900D02*
X166390500Y-177522900D01*
X166390500Y-177522901D02*
G75*
G02X165266353Y-178515164I-1000000J1D01*
G01*
X142530135Y-177556818D02*
G75*
G02X143530135Y-176556818I1000000J0D01*
G01*
X155460054Y-176775514D02*
X155553020Y-176829812D01*
X203787769Y-176795894D02*
G75*
G02X199024080Y-176947557I-2521717J4317516D01*
G01*
X151332341Y-178556818D02*
X151425307Y-178502520D01*
X151425306Y-178502521D02*
G75*
G02X154451367Y-178502520I1513031J-2590509D01*
G01*
X160596454Y-176829812D02*
X160689420Y-176775514D01*
X224573526Y-178910490D02*
G75*
G02X226158790Y-178519893I1972767J-4594364D01*
G01*
X143530135Y-176556818D02*
X143766387Y-176556818D01*
X161698106Y-178502520D02*
G75*
G02X164214617Y-178265835I1513031J-2590510D01*
G01*
X165266353Y-178515165D02*
G75*
G02X164214617Y-178265835I620731J4961320D01*
G01*
X143766387Y-176556818D02*
G75*
G02X145559965Y-176981475I0J-4000000D01*
G01*
X160689420Y-176775514D02*
G75*
G02X164577976Y-176283482I2521717J-4317516D01*
G01*
X150416620Y-176775514D02*
G75*
G02X155460054Y-176775514I2521717J-4317516D01*
G01*
X196917189Y-178519927D02*
G75*
G02X198504456Y-178910609I-385302J-4985132D01*
G01*
X161605141Y-178556818D02*
G75*
G02X154544333Y-178556818I-3530404J6044522D01*
G01*
X196917190Y-178519927D02*
G75*
G02X195994250Y-177522901I77060J997026D01*
G01*
X195994250Y-177522901D02*
G75*
G02X196994250Y-176522901I1000000J0D01*
G01*
X165612160Y-176547776D02*
G75*
G02X166390500Y-177522901I-221660J-975124D01*
G01*
X165612158Y-176547777D02*
G75*
G02X164577976Y-176283482I4433173J19502487D01*
G01*
X150323654Y-176829812D02*
G75*
G02X145559965Y-176981475I-2521717J4317516D01*
G01*
X143453075Y-178553844D02*
G75*
G02X142530135Y-177556818I77060J997026D01*
G01*
X214153535Y-176741596D02*
G75*
G02X219196969Y-176741596I2521717J-4317516D01*
G01*
X208924169Y-176741596D02*
X209017135Y-176795894D01*
X224573526Y-178910489D02*
G75*
G02X218281248Y-178522900I-2761874J6432111D01*
G01*
X215162221Y-178468603D02*
G75*
G02X218188282Y-178468602I1513031J-2590509D01*
G01*
X215069256Y-178522900D02*
G75*
G02X208008448Y-178522900I-3530404J6044522D01*
G01*
X203880735Y-176741596D02*
G75*
G02X208924169Y-176741596I2521717J-4317516D01*
G01*
X204889421Y-178468603D02*
G75*
G02X207915482Y-178468602I1513031J-2590509D01*
G01*
X204796456Y-178522901D02*
G75*
G02X198504456Y-178910609I-3530404J6044523D01*
G01*
X204796456Y-178522901D02*
X204889422Y-178468602D01*
X227081290Y-177522901D02*
G75*
G02X226158790Y-178519893I-1000000J0D01*
G01*
X224053624Y-176947558D02*
G75*
G02X225847202Y-176522901I1793578J-3575343D01*
G01*
X224053624Y-176947557D02*
G75*
G02X219289935Y-176795894I-2241972J4469179D01*
G01*
X225847202Y-176522901D02*
X226081290Y-176522901D01*
X226081290Y-176522901D02*
G75*
G02X227081290Y-177522901I0J-1000000D01*
G01*
X195994250Y-177522901D02*
X195994250Y-177522901D01*
X196994250Y-176522901D02*
X197230502Y-176522901D01*
X227081290Y-177522901D02*
X227081290Y-177522901D01*
X219196969Y-176741596D02*
X219289935Y-176795894D01*
X214060569Y-176795894D02*
G75*
G02X209017135Y-176795894I-2521717J4317516D01*
G01*
X215162222Y-178468602D02*
X215069256Y-178522901D01*
X197230502Y-176522900D02*
G75*
G02X199024080Y-176947557I0J-4000001D01*
G01*
X214060569Y-176795894D02*
X214153535Y-176741596D01*
X207915482Y-178468602D02*
X208008448Y-178522901D01*
X218188282Y-178468602D02*
X218281248Y-178522901D01*
X203787769Y-176795894D02*
X203880735Y-176741596D01*
X171640500Y-170522901D02*
X190784250Y-170522901D01*
X171640500Y-184522901D02*
X190784250Y-184522901D01*
X58721750Y-171522901D02*
X58721750Y-183522901D01*
X58721750Y-171522901D02*
G75*
G02X59721750Y-170522901I1000000J0D01*
G01*
X75103000Y-171522901D02*
X75103000Y-183522901D01*
X75103000Y-183522901D02*
G75*
G02X74103000Y-184522901I-1000000J0D01*
G01*
X59721750Y-184522901D02*
G75*
G02X58721750Y-183522901I0J1000000D01*
G01*
X74103000Y-170522901D02*
G75*
G02X75103000Y-171522901I0J-1000000D01*
G01*
X59721750Y-184522901D02*
X74103000Y-184522901D01*
X59721750Y-170522901D02*
X74103000Y-170522901D01*
X82534250Y-171522901D02*
X82534250Y-183522901D01*
X83534250Y-184522901D02*
G75*
G02X82534250Y-183522901I0J1000000D01*
G01*
X82534250Y-171522901D02*
G75*
G02X83534250Y-170522901I1000000J0D01*
G01*
X103678000Y-171522901D02*
X103678000Y-183522901D01*
X102678000Y-170522901D02*
G75*
G02X103678000Y-171522901I0J-1000000D01*
G01*
X103678000Y-183522901D02*
G75*
G02X102678000Y-184522901I-1000000J0D01*
G01*
X83534250Y-170522901D02*
X102678000Y-170522901D01*
X83534250Y-184522901D02*
X102678000Y-184522901D01*
X107346750Y-184522901D02*
X119346750Y-184522901D01*
X106346750Y-171522901D02*
X106346750Y-183522901D01*
X122990500Y-168522901D02*
G75*
G02X123990500Y-169522901I0J-1000000D01*
G01*
X116990500Y-169522901D02*
G75*
G02X117990500Y-168522901I1000000J0D01*
G01*
X107346750Y-184522901D02*
G75*
G02X106346750Y-183522901I0J1000000D01*
G01*
X123990500Y-182522901D02*
G75*
G02X122990500Y-183522901I-1000000J0D01*
G01*
X123990500Y-182522901D02*
X123990500Y-169522901D01*
X120212775Y-184022901D02*
G75*
G02X119346750Y-184522901I-866025J500000D01*
G01*
X122990500Y-168522901D02*
X117990500Y-168522901D01*
X106346750Y-171522901D02*
G75*
G02X107346750Y-170522901I1000000J0D01*
G01*
X116990500Y-169522901D02*
G75*
G02X115990500Y-170522901I-1000000J0D01*
G01*
X116990499Y-169522901D02*
X116990499Y-169522901D01*
X107346750Y-170522901D02*
X115990500Y-170522901D01*
X122990500Y-183522901D02*
X121078800Y-183522901D01*
X120212775Y-184022901D02*
G75*
G02X121078800Y-183522901I866025J-500000D01*
G01*
X343090500Y-184522901D02*
X355090500Y-184522901D01*
X343090500Y-184522901D02*
G75*
G02X342090500Y-183522901I0J1000000D01*
G01*
X323040500Y-171522901D02*
G75*
G02X324040500Y-170522901I1000000J0D01*
G01*
X337040500Y-183522901D02*
G75*
G02X336040500Y-184522901I-1000000J0D01*
G01*
X356090500Y-183522901D02*
G75*
G02X355090500Y-184522901I-1000000J0D01*
G01*
X324040500Y-184522901D02*
G75*
G02X323040500Y-183522901I0J1000000D01*
G01*
X343090500Y-170522901D02*
X355090500Y-170522901D01*
X355090500Y-170522901D02*
G75*
G02X356090500Y-171522901I0J-1000000D01*
G01*
X336040500Y-170522901D02*
G75*
G02X337040500Y-171522901I0J-1000000D01*
G01*
X342090500Y-171522901D02*
X342090500Y-183522901D01*
X342090500Y-171522901D02*
G75*
G02X343090500Y-170522901I1000000J0D01*
G01*
X356090500Y-171522901D02*
X356090500Y-183522901D01*
X303990500Y-171522901D02*
G75*
G02X304990500Y-170522901I1000000J0D01*
G01*
X317990500Y-183522901D02*
G75*
G02X316990500Y-184522901I-1000000J0D01*
G01*
X324040500Y-170522901D02*
X336040500Y-170522901D01*
X323040500Y-171522901D02*
X323040500Y-183522901D01*
X303990500Y-171522901D02*
X303990500Y-183522901D01*
X324040500Y-184522901D02*
X336040500Y-184522901D01*
X304990500Y-184522901D02*
X316990500Y-184522901D01*
X316990500Y-170522901D02*
G75*
G02X317990500Y-171522901I0J-1000000D01*
G01*
X337040500Y-171522901D02*
X337040500Y-183522901D01*
X317990500Y-171522901D02*
X317990500Y-183522901D01*
X304990500Y-184522901D02*
G75*
G02X303990500Y-183522901I0J1000000D01*
G01*
X304990500Y-170522901D02*
X316990500Y-170522901D01*
X247840500Y-184522901D02*
X297940500Y-184522901D01*
X247840500Y-170522901D02*
X297940500Y-170522901D01*
X247840500Y-184522901D02*
G75*
G02X246840500Y-183522901I0J1000000D01*
G01*
X246840500Y-171522901D02*
X246840500Y-183522901D01*
X298940500Y-171522901D02*
X298940500Y-183522901D01*
X298940500Y-183522901D02*
G75*
G02X297940500Y-184522901I-1000000J0D01*
G01*
X246840500Y-171522901D02*
G75*
G02X247840500Y-170522901I1000000J0D01*
G01*
X297940500Y-170522901D02*
G75*
G02X298940500Y-171522901I0J-1000000D01*
G01*
X57340499Y-108322901D02*
G75*
G02X56340499Y-107322901I0J1000000D01*
G01*
X70340499Y-107322901D02*
G75*
G02X69340500Y-108322900I-999999J0D01*
G01*
X56340499Y-95322900D02*
G75*
G02X57340499Y-94322900I1000000J0D01*
G01*
X57340499Y-94322900D02*
X69340500Y-94322900D01*
X57340499Y-108322900D02*
X69340500Y-108322900D01*
X70340499Y-95322900D02*
X70340499Y-107322901D01*
X69340500Y-94322901D02*
G75*
G02X70340499Y-95322900I0J-999999D01*
G01*
X56340499Y-95322900D02*
X56340499Y-107322901D01*
X343090500Y-94322900D02*
X355090500Y-94322900D01*
X343090500Y-108322900D02*
X355090500Y-108322900D01*
X285940500Y-108322901D02*
G75*
G02X284940500Y-107322901I0J1000000D01*
G01*
X329953500Y-110322901D02*
X334953500Y-110322901D01*
X284940500Y-95322900D02*
G75*
G02X285940500Y-94322900I1000000J0D01*
G01*
X335953500Y-96322901D02*
X335953500Y-109322901D01*
X305077500Y-96322901D02*
G75*
G02X306077500Y-95322901I1000000J0D01*
G01*
X342090500Y-95322900D02*
X342090500Y-107322901D01*
X298940499Y-107322901D02*
G75*
G02X297940500Y-108322900I-999999J0D01*
G01*
X297940500Y-94322900D02*
G75*
G02X298940500Y-95322900I0J-1000000D01*
G01*
X356090500Y-95322900D02*
X356090500Y-107322901D01*
X314515500Y-94322900D02*
X326515500Y-94322900D01*
X306077500Y-110322901D02*
X311077500Y-110322901D01*
X355090500Y-94322900D02*
G75*
G02X356090500Y-95322900I0J-1000000D01*
G01*
X326515500Y-94322900D02*
G75*
G02X327381525Y-94822900I0J-1000000D01*
G01*
X334953500Y-95322901D02*
G75*
G02X335953500Y-96322901I0J-1000000D01*
G01*
X305077500Y-96322901D02*
X305077500Y-109322901D01*
X342090500Y-95322900D02*
G75*
G02X343090500Y-94322900I1000000J0D01*
G01*
X306077500Y-110322901D02*
G75*
G02X305077500Y-109322901I0J1000000D01*
G01*
X312077500Y-109322901D02*
G75*
G02X311077500Y-110322901I-1000000J0D01*
G01*
X313649475Y-94822900D02*
G75*
G02X314515500Y-94322900I866025J-500000D01*
G01*
X329953500Y-110322901D02*
G75*
G02X328953500Y-109322901I0J1000000D01*
G01*
X335953500Y-109322901D02*
G75*
G02X334953500Y-110322901I-1000000J0D01*
G01*
X221740500Y-94322900D02*
G75*
G02X222740500Y-95322900I0J-1000000D01*
G01*
X209740500Y-108322901D02*
G75*
G02X208740500Y-107322901I0J1000000D01*
G01*
X222740500Y-95322900D02*
X222740500Y-107322901D01*
X184640498Y-107322901D02*
G75*
G02X183640499Y-108322900I-999999J0D01*
G01*
X209740500Y-94322900D02*
X221740500Y-94322900D01*
X228790500Y-94322900D02*
X240790500Y-94322900D01*
X228790500Y-108322900D02*
X240790500Y-108322900D01*
X203690499Y-107322901D02*
G75*
G02X202690500Y-108322900I-999999J0D01*
G01*
X190690500Y-108322901D02*
G75*
G02X189690500Y-107322901I0J1000000D01*
G01*
X190690500Y-94322900D02*
X202690500Y-94322900D01*
X189690500Y-95322900D02*
G75*
G02X190690500Y-94322900I1000000J0D01*
G01*
X208740500Y-95322900D02*
X208740500Y-107322901D01*
X222740499Y-107322901D02*
G75*
G02X221740500Y-108322900I-999999J0D01*
G01*
X227790500Y-95322900D02*
X227790500Y-107322901D01*
X241790500Y-95322900D02*
X241790500Y-107322901D01*
X190690500Y-108322900D02*
X202690500Y-108322900D01*
X227790500Y-95322900D02*
G75*
G02X228790500Y-94322900I1000000J0D01*
G01*
X203690500Y-95322900D02*
X203690500Y-107322901D01*
X209740500Y-108322900D02*
X221740500Y-108322900D01*
X208740500Y-95322900D02*
G75*
G02X209740500Y-94322900I1000000J0D01*
G01*
X171640500Y-108322901D02*
G75*
G02X170640500Y-107322901I0J1000000D01*
G01*
X202690500Y-94322900D02*
G75*
G02X203690500Y-95322900I0J-1000000D01*
G01*
X189690500Y-95322900D02*
X189690500Y-107322901D01*
X356090499Y-107322901D02*
G75*
G02X355090500Y-108322900I-999999J0D01*
G01*
X343090500Y-108322901D02*
G75*
G02X342090500Y-107322901I0J1000000D01*
G01*
X171640500Y-94322900D02*
X183640499Y-94322900D01*
X171640500Y-108322900D02*
X183640499Y-108322900D01*
X133540500Y-108322900D02*
X145540500Y-108322900D01*
X133540500Y-108322901D02*
G75*
G02X132540500Y-107322901I0J1000000D01*
G01*
X146540499Y-107322901D02*
G75*
G02X145540500Y-108322900I-999999J0D01*
G01*
X164590500Y-94322900D02*
G75*
G02X165590500Y-95322900I0J-1000000D01*
G01*
X170640500Y-95322900D02*
X170640500Y-107322901D01*
X184640499Y-95322900D02*
X184640499Y-107322901D01*
X132540500Y-95322900D02*
X132540500Y-107322901D01*
X183640499Y-94322900D02*
G75*
G02X184640499Y-95322900I0J-1000000D01*
G01*
X127490499Y-107322901D02*
G75*
G02X126490500Y-108322900I-999999J0D01*
G01*
X146540500Y-95322900D02*
X146540500Y-107322901D01*
X165590500Y-95322900D02*
X165590500Y-107322901D01*
X133540500Y-94322900D02*
X145540500Y-94322900D01*
X145540500Y-94322900D02*
G75*
G02X146540500Y-95322900I0J-1000000D01*
G01*
X152590500Y-94322900D02*
X164590500Y-94322900D01*
X151590500Y-95322900D02*
G75*
G02X152590500Y-94322900I1000000J0D01*
G01*
X170640500Y-95322900D02*
G75*
G02X171640500Y-94322900I1000000J0D01*
G01*
X152590500Y-108322901D02*
G75*
G02X151590500Y-107322901I0J1000000D01*
G01*
X165590499Y-107322901D02*
G75*
G02X164590500Y-108322900I-999999J0D01*
G01*
X132540500Y-95322900D02*
G75*
G02X133540500Y-94322900I1000000J0D01*
G01*
X152590500Y-108322900D02*
X164590500Y-108322900D01*
X151590500Y-95322900D02*
X151590500Y-107322901D01*
X328953500Y-109322901D02*
X328953500Y-109322901D01*
X313077500Y-108322900D02*
X327953500Y-108322900D01*
X313649474Y-94822900D02*
G75*
G02X312783449Y-95322900I-866025J500000D01*
G01*
X328247550Y-95322900D02*
G75*
G02X327381525Y-94822900I0J1000000D01*
G01*
X312077499Y-109322901D02*
G75*
G02X313077500Y-108322900I1000001J0D01*
G01*
X327953500Y-108322901D02*
G75*
G02X328953500Y-109322901I0J-1000000D01*
G01*
X334953500Y-95322901D02*
X328247550Y-95322900D01*
X312077500Y-109322901D02*
X312077500Y-109322901D01*
X306077500Y-95322901D02*
X312783449Y-95322900D01*
X246840500Y-95322900D02*
X246840500Y-107322901D01*
X241790499Y-107322901D02*
G75*
G02X240790500Y-108322900I-999999J0D01*
G01*
X266890500Y-108322901D02*
G75*
G02X265890500Y-107322901I0J1000000D01*
G01*
X247840500Y-108322900D02*
X259840500Y-108322900D01*
X266890500Y-94322900D02*
X278890500Y-94322900D01*
X265890500Y-95322900D02*
X265890500Y-107322901D01*
X246840500Y-95322900D02*
G75*
G02X247840500Y-94322900I1000000J0D01*
G01*
X278890500Y-94322900D02*
G75*
G02X279890500Y-95322900I0J-1000000D01*
G01*
X247840500Y-94322900D02*
X259840500Y-94322900D01*
X240790500Y-94322900D02*
G75*
G02X241790500Y-95322900I0J-1000000D01*
G01*
X279890500Y-95322900D02*
X279890500Y-107322901D01*
X285940500Y-94322900D02*
X297940500Y-94322900D01*
X265890500Y-95322900D02*
G75*
G02X266890500Y-94322900I1000000J0D01*
G01*
X279890499Y-107322901D02*
G75*
G02X278890500Y-108322900I-999999J0D01*
G01*
X266890500Y-108322900D02*
X278890500Y-108322900D01*
X285940500Y-108322900D02*
X297940500Y-108322900D01*
X284940500Y-95322900D02*
X284940500Y-107322901D01*
X260840500Y-95322900D02*
X260840500Y-107322901D01*
X298940500Y-95322900D02*
X298940500Y-107322901D01*
X259840500Y-94322900D02*
G75*
G02X260840500Y-95322900I0J-1000000D01*
G01*
X228790500Y-108322901D02*
G75*
G02X227790500Y-107322901I0J1000000D01*
G01*
X247840500Y-108322901D02*
G75*
G02X246840500Y-107322901I0J1000000D01*
G01*
X260840499Y-107322901D02*
G75*
G02X259840500Y-108322900I-999999J0D01*
G01*
X108440500Y-95322900D02*
X108440500Y-107322901D01*
X95440500Y-108322901D02*
G75*
G02X94440500Y-107322901I0J1000000D01*
G01*
X108440499Y-107322901D02*
G75*
G02X107440500Y-108322900I-999999J0D01*
G01*
X76390500Y-108322900D02*
X88390500Y-108322900D01*
X95440500Y-94322900D02*
X107440500Y-94322900D01*
X95440500Y-108322900D02*
X107440500Y-108322900D01*
X94440500Y-95322900D02*
X94440500Y-107322901D01*
X114490499Y-94322900D02*
X126490500Y-94322900D01*
X114490499Y-108322900D02*
X126490500Y-108322900D01*
X113490500Y-95322900D02*
X113490500Y-107322901D01*
X107440500Y-94322900D02*
G75*
G02X108440500Y-95322900I0J-1000000D01*
G01*
X127490499Y-95322900D02*
X127490499Y-107322901D01*
X89390499Y-107322901D02*
G75*
G02X88390500Y-108322900I-999999J0D01*
G01*
X113490499Y-95322900D02*
G75*
G02X114490499Y-94322900I1000000J0D01*
G01*
X126490500Y-94322900D02*
G75*
G02X127490500Y-95322900I0J-1000000D01*
G01*
X114490499Y-108322901D02*
G75*
G02X113490499Y-107322901I0J1000000D01*
G01*
X76390500Y-94322900D02*
X88390500Y-94322900D01*
X94440500Y-95322900D02*
G75*
G02X95440500Y-94322900I1000000J0D01*
G01*
X75390500Y-95322900D02*
X75390500Y-107322901D01*
X89390500Y-95322900D02*
X89390500Y-107322901D01*
X75390500Y-95322900D02*
G75*
G02X76390500Y-94322900I1000000J0D01*
G01*
X88390500Y-94322900D02*
G75*
G02X89390500Y-95322900I0J-1000000D01*
G01*
X76390500Y-108322901D02*
G75*
G02X75390500Y-107322901I0J1000000D01*
G01*
X318277999Y-114372901D02*
X318277999Y-126372901D01*
X318277999Y-114372901D02*
G75*
G02X319277999Y-113372901I1000000J0D01*
G01*
X334159250Y-123031876D02*
G75*
G02X334659250Y-123897901I-500000J-866025D01*
G01*
X331277999Y-113372902D02*
G75*
G02X332178837Y-113938745I1J-999999D01*
G01*
X319277999Y-127372901D02*
G75*
G02X318277999Y-126372901I0J1000000D01*
G01*
X334659250Y-123897901D02*
X334659250Y-135897901D01*
X319277999Y-113372901D02*
X331278000Y-113372901D01*
X334659250Y-135897901D02*
G75*
G02X334159250Y-136763926I-1000000J0D01*
G01*
X332869463Y-114482245D02*
G75*
G02X333659250Y-115459901I-210213J-977656D01*
G01*
X327572250Y-148422901D02*
G75*
G02X326572250Y-147422901I0J1000000D01*
G01*
X327572250Y-148422901D02*
X332572250Y-148422901D01*
X325572250Y-146422901D02*
G75*
G02X326572250Y-147422901I0J-1000000D01*
G01*
X326572250Y-147422901D02*
X326572250Y-147422901D01*
X333659250Y-147422901D02*
X333659250Y-137629951D01*
X333659250Y-137629951D02*
G75*
G02X334159250Y-136763926I1000000J0D01*
G01*
X320659250Y-131422901D02*
G75*
G02X319659250Y-132422901I-1000000J0D01*
G01*
X319659250Y-127372901D02*
X319277999Y-127372901D01*
X319659250Y-127372901D02*
G75*
G02X320659250Y-128372901I0J-1000000D01*
G01*
X333659250Y-115459901D02*
X333659250Y-122165850D01*
X332869462Y-114482245D02*
G75*
G02X332178837Y-113938745I210213J977656D01*
G01*
X334159250Y-123031875D02*
G75*
G02X333659250Y-122165850I500000J866025D01*
G01*
X332572250Y-148422901D02*
X332659250Y-148422901D01*
X333659250Y-147422901D02*
G75*
G02X332659250Y-148422901I-1000000J0D01*
G01*
X320659250Y-131422901D02*
X320659250Y-128372901D01*
X300228000Y-146422901D02*
G75*
G02X299228000Y-145422901I0J1000000D01*
G01*
X299228000Y-133422901D02*
X299228000Y-145422901D01*
X303696250Y-148422901D02*
X308696250Y-148422901D01*
X303696250Y-148422901D02*
G75*
G02X302696250Y-147422901I0J1000000D01*
G01*
X309696250Y-147422901D02*
G75*
G02X308696250Y-148422901I-1000000J0D01*
G01*
X299228000Y-133422901D02*
G75*
G02X300228000Y-132422901I1000000J0D01*
G01*
X301696250Y-146422901D02*
G75*
G02X302696250Y-147422901I0J-1000000D01*
G01*
X309696250Y-147422901D02*
G75*
G02X310696250Y-146422901I1000000J0D01*
G01*
X302696250Y-147422901D02*
X302696250Y-147422901D01*
X300228000Y-146422901D02*
X301696250Y-146422901D01*
X310696250Y-146422901D02*
X325572250Y-146422901D01*
X309696250Y-147422901D02*
X309696250Y-147422901D01*
X300228000Y-132422901D02*
X319659250Y-132422901D01*
X90684750Y-166472901D02*
G75*
G02X89684750Y-167472901I-1000000J0D01*
G01*
X93153000Y-151472900D02*
G75*
G02X94153000Y-152472900I0J-1000000D01*
G01*
X84684750Y-167472900D02*
X89684750Y-167472900D01*
X84684750Y-167472901D02*
G75*
G02X83684750Y-166472901I0J1000000D01*
G01*
X94153000Y-152472900D02*
X94153000Y-164472901D01*
X66808750Y-166472901D02*
G75*
G02X65808750Y-167472901I-1000000J0D01*
G01*
X58721750Y-152472900D02*
G75*
G02X59721750Y-151472900I1000000J0D01*
G01*
X59265250Y-165362624D02*
G75*
G02X58721750Y-164472901I456500J889723D01*
G01*
X94153000Y-164472901D02*
G75*
G02X93153000Y-165472901I-1000000J0D01*
G01*
X60808749Y-167472900D02*
X65808750Y-167472900D01*
X58721750Y-152472900D02*
X58721750Y-164472901D01*
X60808749Y-167472901D02*
G75*
G02X59808749Y-166472901I0J1000000D01*
G01*
X66808750Y-166472901D02*
G75*
G02X67808750Y-165472901I1000000J0D01*
G01*
X90684750Y-166472901D02*
G75*
G02X91684750Y-165472901I1000000J0D01*
G01*
X91684750Y-165472900D02*
X93153000Y-165472900D01*
X66808750Y-166472901D02*
X66808750Y-166472901D01*
X59808749Y-166472901D02*
X59808749Y-166252347D01*
X83684750Y-166472901D02*
X83684750Y-166472901D01*
X90684750Y-166472901D02*
X90684750Y-166472901D01*
X82684750Y-165472901D02*
G75*
G02X83684750Y-166472901I0J-1000000D01*
G01*
X59721750Y-151472901D02*
X93153000Y-151472901D01*
X67808750Y-165472900D02*
X82684750Y-165472900D01*
X59265250Y-165362624D02*
G75*
G02X59808750Y-166252347I-456500J-889723D01*
G01*
X61102999Y-114372901D02*
X61102999Y-126372901D01*
X75103000Y-126372901D02*
G75*
G02X74103000Y-127372901I-1000000J0D01*
G01*
X61103000Y-114372901D02*
G75*
G02X62103000Y-113372901I1000000J0D01*
G01*
X62103000Y-113372901D02*
X74103000Y-113372901D01*
X75103000Y-114372901D02*
X75103000Y-126372901D01*
X62103000Y-127372901D02*
G75*
G02X61103000Y-126372901I0J1000000D01*
G01*
X62103000Y-127372901D02*
X74103000Y-127372901D01*
X74103000Y-113372901D02*
G75*
G02X75103000Y-114372901I0J-1000000D01*
G01*
X77484250Y-133422901D02*
X77484250Y-145422901D01*
X58721750Y-133422901D02*
G75*
G02X59721750Y-132422901I1000000J0D01*
G01*
X76484250Y-132422901D02*
G75*
G02X77484250Y-133422901I0J-1000000D01*
G01*
X77484250Y-145422901D02*
G75*
G02X76484250Y-146422901I-1000000J0D01*
G01*
X58721750Y-133422901D02*
X58721750Y-145422901D01*
X59721750Y-146422901D02*
G75*
G02X58721750Y-145422901I0J1000000D01*
G01*
X59721750Y-146422901D02*
X76484250Y-146422901D01*
X59721750Y-132422901D02*
X76484250Y-132422901D01*
X324040500Y-165472900D02*
X336040500Y-165472900D01*
X297846750Y-165472900D02*
X309846750Y-165472900D01*
X271653000Y-165472900D02*
X283653000Y-165472900D01*
X343090500Y-165472900D02*
X355090500Y-165472900D01*
X252603000Y-165472900D02*
X264603000Y-165472900D01*
X233553000Y-165472900D02*
X245553000Y-165472900D01*
X100203000Y-165472900D02*
X112203000Y-165472900D01*
X138303000Y-165472900D02*
X150302999Y-165472900D01*
X119253000Y-165472900D02*
X131253000Y-165472900D01*
X157353000Y-165472900D02*
X169353000Y-165472900D01*
X176403000Y-165472900D02*
X188403000Y-165472900D01*
X195453000Y-165472900D02*
X207453000Y-165472900D01*
X214503000Y-165472900D02*
X226503000Y-165472900D01*
X252603000Y-151472901D02*
X264603000Y-151472901D01*
X296846750Y-152472900D02*
G75*
G02X297846750Y-151472900I1000000J0D01*
G01*
X232553000Y-152472900D02*
X232553000Y-164472901D01*
X324040500Y-165472901D02*
G75*
G02X323040500Y-164472901I0J1000000D01*
G01*
X233553000Y-151472901D02*
X245553000Y-151472901D01*
X251603000Y-152472900D02*
X251603000Y-164472901D01*
X227503000Y-164472901D02*
G75*
G02X226503000Y-165472901I-1000000J0D01*
G01*
X270653000Y-152472900D02*
X270653000Y-164472901D01*
X310846750Y-164472901D02*
G75*
G02X309846750Y-165472901I-1000000J0D01*
G01*
X356090500Y-164472901D02*
G75*
G02X355090500Y-165472901I-1000000J0D01*
G01*
X283653000Y-151472900D02*
G75*
G02X284653000Y-152472900I0J-1000000D01*
G01*
X356090500Y-152472900D02*
X356090500Y-164472901D01*
X264603000Y-151472900D02*
G75*
G02X265603000Y-152472900I0J-1000000D01*
G01*
X232553000Y-152472900D02*
G75*
G02X233553000Y-151472900I1000000J0D01*
G01*
X296846750Y-152472900D02*
X296846750Y-164472901D01*
X245553000Y-151472900D02*
G75*
G02X246553000Y-152472900I0J-1000000D01*
G01*
X214503000Y-165472901D02*
G75*
G02X213503000Y-164472901I0J1000000D01*
G01*
X297846750Y-151472901D02*
X309846750Y-151472901D01*
X343090500Y-151472901D02*
X355090500Y-151472901D01*
X246553000Y-152472900D02*
X246553000Y-164472901D01*
X265603000Y-164472901D02*
G75*
G02X264603000Y-165472901I-1000000J0D01*
G01*
X342090500Y-152472900D02*
X342090500Y-164472901D01*
X284653000Y-164472901D02*
G75*
G02X283653000Y-165472901I-1000000J0D01*
G01*
X284653000Y-152472900D02*
X284653000Y-164472901D01*
X271653000Y-165472901D02*
G75*
G02X270653000Y-164472901I0J1000000D01*
G01*
X337040500Y-164472901D02*
G75*
G02X336040500Y-165472901I-1000000J0D01*
G01*
X233553000Y-165472901D02*
G75*
G02X232553000Y-164472901I0J1000000D01*
G01*
X246553000Y-164472901D02*
G75*
G02X245553000Y-165472901I-1000000J0D01*
G01*
X297846750Y-165472901D02*
G75*
G02X296846750Y-164472901I0J1000000D01*
G01*
X324040500Y-151472901D02*
X336040500Y-151472901D01*
X342090500Y-152472900D02*
G75*
G02X343090500Y-151472900I1000000J0D01*
G01*
X265603000Y-152472900D02*
X265603000Y-164472901D01*
X271653000Y-151472901D02*
X283653000Y-151472901D01*
X355090500Y-151472900D02*
G75*
G02X356090500Y-152472900I0J-1000000D01*
G01*
X343090500Y-165472901D02*
G75*
G02X342090500Y-164472901I0J1000000D01*
G01*
X252603000Y-165472901D02*
G75*
G02X251603000Y-164472901I0J1000000D01*
G01*
X336040500Y-151472900D02*
G75*
G02X337040500Y-152472900I0J-1000000D01*
G01*
X309846750Y-151472900D02*
G75*
G02X310846750Y-152472900I0J-1000000D01*
G01*
X270653000Y-152472900D02*
G75*
G02X271653000Y-151472900I1000000J0D01*
G01*
X323040500Y-152472900D02*
X323040500Y-164472901D01*
X251603000Y-152472900D02*
G75*
G02X252603000Y-151472900I1000000J0D01*
G01*
X337040500Y-152472900D02*
X337040500Y-164472901D01*
X323040500Y-152472900D02*
G75*
G02X324040500Y-151472900I1000000J0D01*
G01*
X310846750Y-152472900D02*
X310846750Y-164472901D01*
X99203000Y-152472900D02*
X99203000Y-164472901D01*
X113203000Y-152472900D02*
X113203000Y-164472901D01*
X99203000Y-152472900D02*
G75*
G02X100203000Y-151472900I1000000J0D01*
G01*
X112203000Y-151472900D02*
G75*
G02X113203000Y-152472900I0J-1000000D01*
G01*
X119253000Y-151472901D02*
X131253000Y-151472901D01*
X118253000Y-152472900D02*
X118253000Y-164472901D01*
X132253000Y-152472900D02*
X132253000Y-164472901D01*
X118253000Y-152472900D02*
G75*
G02X119253000Y-151472900I1000000J0D01*
G01*
X100203000Y-151472901D02*
X112203000Y-151472901D01*
X131253000Y-151472900D02*
G75*
G02X132253000Y-152472900I0J-1000000D01*
G01*
X119253000Y-165472901D02*
G75*
G02X118253000Y-164472901I0J1000000D01*
G01*
X138303000Y-151472901D02*
X150302999Y-151472901D01*
X151303000Y-152472900D02*
X151303000Y-164472901D01*
X137303000Y-152472900D02*
G75*
G02X138303000Y-151472900I1000000J0D01*
G01*
X138303000Y-165472901D02*
G75*
G02X137303000Y-164472901I0J1000000D01*
G01*
X151302999Y-164472901D02*
G75*
G02X150302999Y-165472901I-1000000J0D01*
G01*
X137303000Y-152472900D02*
X137303000Y-164472901D01*
X132253000Y-164472901D02*
G75*
G02X131253000Y-165472901I-1000000J0D01*
G01*
X100203000Y-165472901D02*
G75*
G02X99203000Y-164472901I0J1000000D01*
G01*
X113203000Y-164472901D02*
G75*
G02X112203000Y-165472901I-1000000J0D01*
G01*
X150302999Y-151472900D02*
G75*
G02X151302999Y-152472900I0J-1000000D01*
G01*
X157353000Y-151472901D02*
X169353000Y-151472901D01*
X175403000Y-152472900D02*
X175403000Y-164472901D01*
X208453000Y-152472900D02*
X208453000Y-164472901D01*
X170353000Y-164472901D02*
G75*
G02X169353000Y-165472901I-1000000J0D01*
G01*
X213503000Y-152472900D02*
G75*
G02X214503000Y-151472900I1000000J0D01*
G01*
X226503000Y-151472900D02*
G75*
G02X227503000Y-152472900I0J-1000000D01*
G01*
X195453000Y-165472901D02*
G75*
G02X194453000Y-164472901I0J1000000D01*
G01*
X189403000Y-152472900D02*
X189403000Y-164472901D01*
X227503000Y-152472900D02*
X227503000Y-164472901D01*
X170353000Y-152472900D02*
X170353000Y-164472901D01*
X175403000Y-152472900D02*
G75*
G02X176403000Y-151472900I1000000J0D01*
G01*
X176403000Y-165472901D02*
G75*
G02X175403000Y-164472901I0J1000000D01*
G01*
X195453000Y-151472901D02*
X207453000Y-151472901D01*
X194453000Y-152472900D02*
G75*
G02X195453000Y-151472900I1000000J0D01*
G01*
X156353000Y-152472900D02*
G75*
G02X157353000Y-151472900I1000000J0D01*
G01*
X176403000Y-151472901D02*
X188403000Y-151472901D01*
X189403000Y-164472901D02*
G75*
G02X188403000Y-165472901I-1000000J0D01*
G01*
X194453000Y-152472900D02*
X194453000Y-164472901D01*
X214503000Y-151472901D02*
X226503000Y-151472901D01*
X157353000Y-165472901D02*
G75*
G02X156353000Y-164472901I0J1000000D01*
G01*
X156353000Y-152472900D02*
X156353000Y-164472901D01*
X169353000Y-151472900D02*
G75*
G02X170353000Y-152472900I0J-1000000D01*
G01*
X207453000Y-151472900D02*
G75*
G02X208453000Y-152472900I0J-1000000D01*
G01*
X208453000Y-164472901D02*
G75*
G02X207453000Y-165472901I-1000000J0D01*
G01*
X213503000Y-152472900D02*
X213503000Y-164472901D01*
X188403000Y-151472900D02*
G75*
G02X189403000Y-152472900I0J-1000000D01*
G01*
X256365500Y-114372901D02*
X256365500Y-126372901D01*
X250315500Y-113372901D02*
G75*
G02X251315500Y-114372901I0J-1000000D01*
G01*
X256365500Y-114372901D02*
G75*
G02X257365500Y-113372901I1000000J0D01*
G01*
X269365500Y-113372901D02*
G75*
G02X270365500Y-114372901I0J-1000000D01*
G01*
X237315500Y-114372901D02*
X237315500Y-126372901D01*
X257365500Y-127372901D02*
G75*
G02X256365500Y-126372901I0J1000000D01*
G01*
X257365500Y-127372901D02*
X269365500Y-127372901D01*
X295465500Y-127372901D02*
X307465500Y-127372901D01*
X232265500Y-114372901D02*
X232265500Y-126372901D01*
X270365500Y-126372901D02*
G75*
G02X269365500Y-127372901I-1000000J0D01*
G01*
X307465500Y-113372901D02*
G75*
G02X308465500Y-114372901I0J-1000000D01*
G01*
X219265500Y-127372901D02*
G75*
G02X218265500Y-126372901I0J1000000D01*
G01*
X294465500Y-114372901D02*
X294465500Y-126372901D01*
X295465500Y-127372901D02*
G75*
G02X294465500Y-126372901I0J1000000D01*
G01*
X308465500Y-126372901D02*
G75*
G02X307465500Y-127372901I-1000000J0D01*
G01*
X295465500Y-113372901D02*
X307465500Y-113372901D01*
X251315500Y-114372901D02*
X251315500Y-126372901D01*
X294465500Y-114372901D02*
G75*
G02X295465500Y-113372901I1000000J0D01*
G01*
X275415500Y-114372901D02*
G75*
G02X276415500Y-113372901I1000000J0D01*
G01*
X238315500Y-127372901D02*
X250315500Y-127372901D01*
X251315500Y-126372901D02*
G75*
G02X250315500Y-127372901I-1000000J0D01*
G01*
X275415500Y-114372901D02*
X275415500Y-126372901D01*
X218265500Y-114372901D02*
G75*
G02X219265500Y-113372901I1000000J0D01*
G01*
X232265500Y-126372901D02*
G75*
G02X231265500Y-127372901I-1000000J0D01*
G01*
X238315500Y-113372901D02*
X250315500Y-113372901D01*
X276415500Y-127372901D02*
X288415500Y-127372901D01*
X289415500Y-114372901D02*
X289415500Y-126372901D01*
X257365500Y-113372901D02*
X269365500Y-113372901D01*
X288415500Y-113372901D02*
G75*
G02X289415500Y-114372901I0J-1000000D01*
G01*
X276415500Y-127372901D02*
G75*
G02X275415500Y-126372901I0J1000000D01*
G01*
X276415500Y-113372901D02*
X288415500Y-113372901D01*
X308465500Y-114372901D02*
X308465500Y-126372901D01*
X231265500Y-113372901D02*
G75*
G02X232265500Y-114372901I0J-1000000D01*
G01*
X289415500Y-126372901D02*
G75*
G02X288415500Y-127372901I-1000000J0D01*
G01*
X270365500Y-114372901D02*
X270365500Y-126372901D01*
X238315500Y-127372901D02*
G75*
G02X237315500Y-126372901I0J1000000D01*
G01*
X237315500Y-114372901D02*
G75*
G02X238315500Y-113372901I1000000J0D01*
G01*
X85915500Y-127372901D02*
X97915500Y-127372901D01*
X85915500Y-113372901D02*
X97915500Y-113372901D01*
X85915500Y-127372901D02*
G75*
G02X84915500Y-126372901I0J1000000D01*
G01*
X117965500Y-114372901D02*
X117965500Y-126372901D01*
X103965500Y-114372901D02*
G75*
G02X104965500Y-113372901I1000000J0D01*
G01*
X84915500Y-114372901D02*
G75*
G02X85915500Y-113372901I1000000J0D01*
G01*
X98915500Y-114372901D02*
X98915500Y-126372901D01*
X98915500Y-126372901D02*
G75*
G02X97915500Y-127372901I-1000000J0D01*
G01*
X84915500Y-114372901D02*
X84915500Y-126372901D01*
X97915500Y-113372901D02*
G75*
G02X98915500Y-114372901I0J-1000000D01*
G01*
X104965500Y-113372901D02*
X116965500Y-113372901D01*
X104965500Y-127372901D02*
X116965500Y-127372901D01*
X103965500Y-114372901D02*
X103965500Y-126372901D01*
X356090500Y-126372901D02*
G75*
G02X355090500Y-127372901I-1000000J0D01*
G01*
X343090500Y-127372901D02*
G75*
G02X342090500Y-126372901I0J1000000D01*
G01*
X90678000Y-146422901D02*
X102678000Y-146422901D01*
X342090500Y-114372901D02*
X342090500Y-126372901D01*
X102678000Y-132422901D02*
G75*
G02X103678000Y-133422901I0J-1000000D01*
G01*
X108728000Y-133422901D02*
X108728000Y-145422901D01*
X89678000Y-133422901D02*
X89678000Y-145422901D01*
X103678000Y-133422901D02*
X103678000Y-145422901D01*
X122728000Y-145422901D02*
G75*
G02X121728000Y-146422901I-1000000J0D01*
G01*
X90678000Y-132422901D02*
X102678000Y-132422901D01*
X89678000Y-133422901D02*
G75*
G02X90678000Y-132422901I1000000J0D01*
G01*
X128778000Y-146422901D02*
X140778000Y-146422901D01*
X355090500Y-113372901D02*
G75*
G02X356090500Y-114372901I0J-1000000D01*
G01*
X122728000Y-133422901D02*
X122728000Y-145422901D01*
X127778000Y-133422901D02*
G75*
G02X128778000Y-132422901I1000000J0D01*
G01*
X109728000Y-132422901D02*
X121728000Y-132422901D01*
X109728000Y-146422901D02*
G75*
G02X108728000Y-145422901I0J1000000D01*
G01*
X343090500Y-113372901D02*
X355090500Y-113372901D01*
X140778000Y-132422901D02*
G75*
G02X141778000Y-133422901I0J-1000000D01*
G01*
X141778000Y-145422901D02*
G75*
G02X140778000Y-146422901I-1000000J0D01*
G01*
X147828000Y-132422901D02*
X159828000Y-132422901D01*
X103678000Y-145422901D02*
G75*
G02X102678000Y-146422901I-1000000J0D01*
G01*
X343090500Y-127372901D02*
X355090500Y-127372901D01*
X146828000Y-133422901D02*
G75*
G02X147828000Y-132422901I1000000J0D01*
G01*
X128778000Y-146422901D02*
G75*
G02X127778000Y-145422901I0J1000000D01*
G01*
X342090500Y-114372901D02*
G75*
G02X343090500Y-113372901I1000000J0D01*
G01*
X147828000Y-146422901D02*
X159828000Y-146422901D01*
X109728000Y-146422901D02*
X121728000Y-146422901D01*
X90678000Y-146422901D02*
G75*
G02X89678000Y-145422901I0J1000000D01*
G01*
X121728000Y-132422901D02*
G75*
G02X122728000Y-133422901I0J-1000000D01*
G01*
X127778000Y-133422901D02*
X127778000Y-145422901D01*
X108728000Y-133422901D02*
G75*
G02X109728000Y-132422901I1000000J0D01*
G01*
X128778000Y-132422901D02*
X140778000Y-132422901D01*
X146828000Y-133422901D02*
X146828000Y-145422901D01*
X356090500Y-114372901D02*
X356090500Y-126372901D01*
X160828000Y-133422901D02*
X160828000Y-145422901D01*
X159828000Y-132422901D02*
G75*
G02X160828000Y-133422901I0J-1000000D01*
G01*
X141778000Y-133422901D02*
X141778000Y-145422901D01*
X147828000Y-146422901D02*
G75*
G02X146828000Y-145422901I0J1000000D01*
G01*
X160828000Y-145422901D02*
G75*
G02X159828000Y-146422901I-1000000J0D01*
G01*
X275128000Y-145422901D02*
G75*
G02X274128000Y-146422901I-1000000J0D01*
G01*
X280178000Y-133422901D02*
G75*
G02X281178000Y-132422901I1000000J0D01*
G01*
X343090500Y-146422901D02*
X355090500Y-146422901D01*
X355090500Y-132422901D02*
G75*
G02X356090500Y-133422901I0J-1000000D01*
G01*
X294178000Y-145422901D02*
G75*
G02X293178000Y-146422901I-1000000J0D01*
G01*
X281178000Y-146422901D02*
G75*
G02X280178000Y-145422901I0J1000000D01*
G01*
X356090500Y-145422901D02*
G75*
G02X355090500Y-146422901I-1000000J0D01*
G01*
X343090500Y-132422901D02*
X355090500Y-132422901D01*
X293178000Y-132422901D02*
G75*
G02X294178000Y-133422901I0J-1000000D01*
G01*
X262128000Y-146422901D02*
G75*
G02X261128000Y-145422901I0J1000000D01*
G01*
X342090500Y-133422901D02*
X342090500Y-145422901D01*
X294178000Y-133422901D02*
X294178000Y-145422901D01*
X343090500Y-146422901D02*
G75*
G02X342090500Y-145422901I0J1000000D01*
G01*
X342090500Y-133422901D02*
G75*
G02X343090500Y-132422901I1000000J0D01*
G01*
X281178000Y-132422901D02*
X293178000Y-132422901D01*
X280178000Y-133422901D02*
X280178000Y-145422901D01*
X281178000Y-146422901D02*
X293178000Y-146422901D01*
X356090500Y-133422901D02*
X356090500Y-145422901D01*
X137015500Y-114372901D02*
X137015500Y-126372901D01*
X213215500Y-114372901D02*
X213215500Y-126372901D01*
X123015500Y-114372901D02*
G75*
G02X124015500Y-113372901I1000000J0D01*
G01*
X181165500Y-113372901D02*
X193165500Y-113372901D01*
X162115500Y-113372901D02*
X174115500Y-113372901D01*
X124015500Y-127372901D02*
X136015500Y-127372901D01*
X174115500Y-113372901D02*
G75*
G02X175115500Y-114372901I0J-1000000D01*
G01*
X142065500Y-114372901D02*
G75*
G02X143065500Y-113372901I1000000J0D01*
G01*
X194165500Y-114372901D02*
X194165500Y-126372901D01*
X136015500Y-113372901D02*
G75*
G02X137015500Y-114372901I0J-1000000D01*
G01*
X193165500Y-113372901D02*
G75*
G02X194165500Y-114372901I0J-1000000D01*
G01*
X181165500Y-127372901D02*
X193165500Y-127372901D01*
X200215500Y-127372901D02*
G75*
G02X199215500Y-126372901I0J1000000D01*
G01*
X124015500Y-127372901D02*
G75*
G02X123015500Y-126372901I0J1000000D01*
G01*
X175115500Y-114372901D02*
X175115500Y-126372901D01*
X142065500Y-114372901D02*
X142065500Y-126372901D01*
X116965500Y-113372901D02*
G75*
G02X117965500Y-114372901I0J-1000000D01*
G01*
X143065500Y-113372901D02*
X155065500Y-113372901D01*
X194165500Y-126372901D02*
G75*
G02X193165500Y-127372901I-1000000J0D01*
G01*
X212215500Y-113372901D02*
G75*
G02X213215500Y-114372901I0J-1000000D01*
G01*
X162115500Y-127372901D02*
G75*
G02X161115500Y-126372901I0J1000000D01*
G01*
X143065500Y-127372901D02*
X155065500Y-127372901D01*
X155065500Y-113372901D02*
G75*
G02X156065500Y-114372901I0J-1000000D01*
G01*
X180165500Y-114372901D02*
X180165500Y-126372901D01*
X104965500Y-127372901D02*
G75*
G02X103965500Y-126372901I0J1000000D01*
G01*
X123015500Y-114372901D02*
X123015500Y-126372901D01*
X156065500Y-114372901D02*
X156065500Y-126372901D01*
X161115500Y-114372901D02*
X161115500Y-126372901D01*
X161115500Y-114372901D02*
G75*
G02X162115500Y-113372901I1000000J0D01*
G01*
X181165500Y-127372901D02*
G75*
G02X180165500Y-126372901I0J1000000D01*
G01*
X200215500Y-113372901D02*
X212215500Y-113372901D01*
X213215500Y-126372901D02*
G75*
G02X212215500Y-127372901I-1000000J0D01*
G01*
X200215500Y-127372901D02*
X212215500Y-127372901D01*
X124015500Y-113372901D02*
X136015500Y-113372901D01*
X162115500Y-127372901D02*
X174115500Y-127372901D01*
X199215500Y-114372901D02*
X199215500Y-126372901D01*
X219265500Y-113372901D02*
X231265500Y-113372901D01*
X117965500Y-126372901D02*
G75*
G02X116965500Y-127372901I-1000000J0D01*
G01*
X156065500Y-126372901D02*
G75*
G02X155065500Y-127372901I-1000000J0D01*
G01*
X199215500Y-114372901D02*
G75*
G02X200215500Y-113372901I1000000J0D01*
G01*
X143065500Y-127372901D02*
G75*
G02X142065500Y-126372901I0J1000000D01*
G01*
X219265500Y-127372901D02*
X231265500Y-127372901D01*
X137015500Y-126372901D02*
G75*
G02X136015500Y-127372901I-1000000J0D01*
G01*
X175115500Y-126372901D02*
G75*
G02X174115500Y-127372901I-1000000J0D01*
G01*
X180165500Y-114372901D02*
G75*
G02X181165500Y-113372901I1000000J0D01*
G01*
X218265500Y-114372901D02*
X218265500Y-126372901D01*
X217978000Y-145422901D02*
G75*
G02X216978000Y-146422901I-1000000J0D01*
G01*
X198928000Y-145422901D02*
G75*
G02X197928000Y-146422901I-1000000J0D01*
G01*
X184928000Y-133422901D02*
G75*
G02X185928000Y-132422901I1000000J0D01*
G01*
X165878000Y-133422901D02*
G75*
G02X166878000Y-132422901I1000000J0D01*
G01*
X204978000Y-146422901D02*
X216978000Y-146422901D01*
X185928000Y-146422901D02*
X197928000Y-146422901D01*
X237028000Y-133422901D02*
X237028000Y-145422901D01*
X256078000Y-133422901D02*
X256078000Y-145422901D01*
X261128000Y-133422901D02*
X261128000Y-145422901D01*
X261128000Y-133422901D02*
G75*
G02X262128000Y-132422901I1000000J0D01*
G01*
X197928000Y-132422901D02*
G75*
G02X198928000Y-133422901I0J-1000000D01*
G01*
X275128000Y-133422901D02*
X275128000Y-145422901D01*
X179878000Y-145422901D02*
G75*
G02X178878000Y-146422901I-1000000J0D01*
G01*
X224028000Y-146422901D02*
X236028000Y-146422901D01*
X165878000Y-133422901D02*
X165878000Y-145422901D01*
X243078000Y-146422901D02*
X255078000Y-146422901D01*
X262128000Y-132422901D02*
X274128000Y-132422901D01*
X217978000Y-133422901D02*
X217978000Y-145422901D01*
X243078000Y-132422901D02*
X255078000Y-132422901D01*
X184928000Y-133422901D02*
X184928000Y-145422901D01*
X185928000Y-146422901D02*
G75*
G02X184928000Y-145422901I0J1000000D01*
G01*
X166878000Y-132422901D02*
X178878000Y-132422901D01*
X203978000Y-133422901D02*
G75*
G02X204978000Y-132422901I1000000J0D01*
G01*
X185928000Y-132422901D02*
X197928000Y-132422901D01*
X223028000Y-133422901D02*
G75*
G02X224028000Y-132422901I1000000J0D01*
G01*
X166878000Y-146422901D02*
G75*
G02X165878000Y-145422901I0J1000000D01*
G01*
X179878000Y-133422901D02*
X179878000Y-145422901D01*
X203978000Y-133422901D02*
X203978000Y-145422901D01*
X242078000Y-133422901D02*
G75*
G02X243078000Y-132422901I1000000J0D01*
G01*
X262128000Y-146422901D02*
X274128000Y-146422901D01*
X256078000Y-145422901D02*
G75*
G02X255078000Y-146422901I-1000000J0D01*
G01*
X216978000Y-132422901D02*
G75*
G02X217978000Y-133422901I0J-1000000D01*
G01*
X204978000Y-146422901D02*
G75*
G02X203978000Y-145422901I0J1000000D01*
G01*
X178878000Y-132422901D02*
G75*
G02X179878000Y-133422901I0J-1000000D01*
G01*
X224028000Y-132422901D02*
X236028000Y-132422901D01*
X224028000Y-146422901D02*
G75*
G02X223028000Y-145422901I0J1000000D01*
G01*
X242078000Y-133422901D02*
X242078000Y-145422901D01*
X255078000Y-132422901D02*
G75*
G02X256078000Y-133422901I0J-1000000D01*
G01*
X243078000Y-146422901D02*
G75*
G02X242078000Y-145422901I0J1000000D01*
G01*
X274128000Y-132422901D02*
G75*
G02X275128000Y-133422901I0J-1000000D01*
G01*
X223028000Y-133422901D02*
X223028000Y-145422901D01*
X204978000Y-132422901D02*
X216978000Y-132422901D01*
X198928000Y-133422901D02*
X198928000Y-145422901D01*
X237028000Y-145422901D02*
G75*
G02X236028000Y-146422901I-1000000J0D01*
G01*
X166878000Y-146422901D02*
X178878000Y-146422901D01*
X236028000Y-132422901D02*
G75*
G02X237028000Y-133422901I0J-1000000D01*
G01*
D10*
X355783441Y-187522901D02*
X56650558Y-187522900D01*
X359090500Y-94629959D02*
X359090500Y-184215842D01*
X53340499Y-184218841D02*
X53340499Y-94629959D01*
X355783441Y-91322900D02*
G75*
G02X359090500Y-94629959I0J-3307059D01*
G01*
X359090500Y-184215842D02*
G75*
G02X355783441Y-187522901I-3307059J0D01*
G01*
X56650558Y-187522900D02*
G75*
G02X53340499Y-184218841I-3000J3307059D01*
G01*
X53340499Y-94629959D02*
G75*
G02X56647558Y-91322900I3307059J0D01*
G01*
M02*
